<?xml version="1.0" encoding="UTF-8"?>
<!-- Created with Inkscape (http://www.inkscape.org/) -->
<svg width="47.895mm" height="50.427mm" version="1.1" viewBox="0 0 47.895 50.427" xmlns="http://www.w3.org/2000/svg">
 <g transform="translate(-14.555 -103.72)">
  <path d="m60.198 153.6-43.349-0.0212" fill="none" stroke="#1e1917" stroke-linecap="round" stroke-linejoin="round" stroke-miterlimit="10" stroke-width=".20038"/>
  <path d="m31.051 148.82-0.5715 0.5715v4.191l-0.04233 0.0635-0.04233 0.0847-0.02117 0.0635-0.02117 0.0847-0.04233 0.0847-0.02117 0.0212-0.02117 0.0423-0.0635 0.0635-0.04233 0.0212-0.08467-0.0847-0.02117-0.0423-0.02117-0.0212-0.04234-0.0846-0.04233-0.0847-0.04233-0.0635-0.02117-0.0847-0.04233-0.0635-0.16933-0.10583-0.16933-0.0847-0.16933-0.10583-0.16933-0.0847-0.14817-0.0847-0.16933-0.10583-0.33867-0.16933v-3.0903h-1.9262v-3.4713l1.9262-0.0423v-3.1327l0.33867-0.16933 0.16933-0.10584 0.14817-0.0847 0.16933-0.0847 0.16933-0.10583 0.16933-0.0847 0.16933-0.10583 0.04233-0.0635 0.02117-0.0635 0.04233-0.0635 0.04233-0.0847 0.16933-0.254 0.16933 0.254 0.02117 0.0847 0.04233 0.0635 0.08467 0.127v4.1275l0.5715 0.59266 15.6-0.0212 0.59267-0.61384v-4.1275l0.04233-0.0847 0.04233-0.0635 0.02117-0.0635 0.127-0.1905 0.02117-0.0635 0.04233-0.0847 0.04233 0.0847 0.0635 0.0635 0.08467 0.127 0.02117 0.0635 0.08466 0.127 0.04233 0.0847 0.16933 0.0847 0.16933 0.10583 0.16933 0.0847 0.14817 0.0847 0.16933 0.10583 0.33867 0.16933 0.14817 0.0847v3.1538l1.9262 0.0212v3.4713h-1.9261v3.1115l-0.14817 0.0847-0.33867 0.16933-0.16933 0.10584-0.14817 0.0847-0.16933 0.0847-0.16933 0.10583-0.16933 0.0847-0.04233 0.0847-0.04233 0.0635-0.02117 0.0847-0.0635 0.127-0.02117 0.0212-0.02117 0.0423-0.02117 0.0212-0.02117 0.0423-0.04233 0.0423-0.04233 0.0212-0.0635-0.0635-0.02117-0.0423-0.02117-0.0212-0.02117-0.0423-0.02117-0.0212-0.02117-0.0423-0.02117-0.0847-0.04233-0.0847-0.02117-0.0635-0.04233-0.0847v-4.1698l-0.59267-0.5715-15.6 0.0423" fill="#7e7e7e" fill-rule="evenodd" stroke="#1e1917" stroke-linecap="round" stroke-linejoin="round" stroke-miterlimit="10" stroke-width=".075142"/>
  <g fill="none" stroke="#1e1917" stroke-linecap="round" stroke-linejoin="round" stroke-miterlimit="10" stroke-width=".075142">
   <path d="m47.879 153.56v-11.218"/>
   <path d="m28.511 146.24v3.5348"/>
   <path d="m30.48 146.49v2.8787"/>
   <path d="m29.845 142.34v11.261"/>
  </g>
  <path d="m21.209 115.12h-1.143l0.3175-0.5715 0.33867-0.5715 0.35983-0.55033 0.381-0.55034 0.40217-0.55033 0.42333-0.508 0.4445-0.52917 0.46567-0.508 0.46567-0.48683 0.508-0.48683 1.0583-0.93134 0.55033-0.4445 0.5715-0.42333 0.5715-0.40217 0.59267-0.381 0.61383-0.381 0.61383-0.35983 0.61383-0.33867 0.65617-0.3175 0.635-0.29633 0.67733-0.27517 0.65617-0.254 0.67733-0.254 0.67733-0.21166 0.67733-0.16934 0.6985-0.16933 0.6985-0.14817 1.397-0.21166 0.6985-0.0635 0.6985-0.0212 0.71967 0.0212 0.71967 0.0423 0.71967 0.0847 0.71967 0.10583 0.71967 0.14817 0.71967 0.16933 0.71967 0.1905 0.71967 0.21167 0.6985 0.23283 0.6985 0.254 0.6985 0.29633 0.67733 0.29634 0.67733 0.3175 1.3123 0.71966 0.635 0.381 0.635 0.40217 0.61383 0.42333 0.59267 0.42334 0.5715 0.4445 0.55033 0.46566 0.52917 0.46567 0.52917 0.48683 0.48683 0.508 0.46567 0.508 0.4445 0.508 0.42333 0.52917 0.40217 0.52917 0.381 0.55033 0.33867 0.52917 0.29633 0.5715 0.29633 0.55033h-1.1007l0.02117 27.707h-34.65l0.02117-27.707" fill="#7e7e7e" fill-rule="evenodd" stroke="#1e1917" stroke-linecap="round" stroke-linejoin="round" stroke-miterlimit="10" stroke-width=".075142"/>
  <g fill="none" stroke="#1e1917" stroke-linecap="round" stroke-linejoin="round" stroke-miterlimit="10">
   <path d="m26.183 139.8h24.723" stroke-width=".075142"/>
   <g stroke-width=".10019">
    <path d="m48.768 142.85v-27.75l0.80433-0.0423-0.80433-2.8575"/>
    <path d="m28.363 115.12-0.8255-0.0212 0.84667-2.8787 20.405-0.0212"/>
    <path d="m28.363 142.83v-27.707"/>
    <path d="m31.157 115.12 14.711-0.0212"/>
    <path d="m31.157 116.12 14.711-0.0423"/>
    <path d="m31.157 117.09 14.711-0.0212"/>
    <path d="m31.157 118.08 14.711-0.0212"/>
    <path d="m31.157 119.08 14.711-0.0212"/>
    <path d="m31.157 120.07 14.711-0.0423"/>
    <path d="m31.157 121.05 14.711-0.0212"/>
    <path d="m31.157 122.04 14.711-0.0212"/>
    <path d="m31.157 123.04 14.711-0.0212"/>
    <path d="m31.157 124.01 14.711-0.0212"/>
    <path d="m31.157 125.01 14.711-0.0212"/>
    <path d="m31.157 126 14.711-0.0212"/>
    <path d="m31.157 127 14.711-0.0212"/>
    <path d="m31.157 127 14.711-0.0212"/>
    <path d="m31.157 127.99 14.711-0.0423"/>
    <path d="m31.157 128.96 14.711-0.0212"/>
    <path d="m31.157 129.96 14.711-0.0212"/>
    <path d="m31.157 130.95 14.711-0.0212"/>
    <path d="m31.157 131.93 14.711-0.0212"/>
    <path d="m31.157 132.92 14.711-0.0212"/>
    <path d="m31.157 133.92 14.711-0.0212"/>
    <path d="m31.157 134.91 14.711-0.0423"/>
    <path d="m31.157 135.89 14.711-0.0212"/>
    <path d="m31.157 135.89 14.711-0.0212"/>
    <path d="m31.157 136.88 14.711-0.0212"/>
    <path d="m31.157 137.87 14.711-0.0212"/>
    <path d="m31.157 138.87 14.711-0.0423"/>
    <path d="m31.157 139.82v-24.702"/>
    <path d="m45.868 115.12v24.68"/>
    <path d="m50.906 115.1v27.728"/>
    <path d="m26.162 142.83v-27.728"/>
   </g>
  </g>
  <path d="m36.893 141.96h3.4078v-1.778h-3.4078z" fill="#7e7e7e"/>
  <path d="m36.893 140.18h3.4078v1.778h-3.4078z" fill="none" stroke="#1e1917" stroke-linecap="round" stroke-linejoin="round" stroke-miterlimit="10" stroke-width=".075142"/>
  <path d="m37.19 145.92h2.8787v-0.80433h-2.8787z" fill="#7e7e7e"/>
  <path d="m37.19 145.11h2.8787v0.80433h-2.8787z" fill="none" stroke="#1e1917" stroke-linecap="round" stroke-linejoin="round" stroke-miterlimit="10" stroke-width=".075142"/>
  <path d="m38.29 141.94v-0.48683l0.02117-0.10584v-0.1905l0.02117-0.0847 0.04233-0.127 0.02117-0.0423v-0.0212l0.02117-0.0212v-0.0212l0.04233-0.0423 0.04234-0.0424h0.04233l0.02117-0.0212h0.04233l0.04233 0.0212h0.04233l0.02117 0.0212 0.08467 0.0847v0.0212l0.02117 0.0423 0.04233 0.127 0.04234 0.1694 0.04233 0.21167 0.02117 0.23283 0.02117 0.27517" fill="none" stroke="#1e1917" stroke-linecap="round" stroke-linejoin="round" stroke-miterlimit="10" stroke-width=".075142"/>
  <g fill="#7e7e7e" fill-rule="evenodd" stroke="#1e1917" stroke-linecap="round" stroke-linejoin="round" stroke-miterlimit="10" stroke-width=".075142">
   <path d="m38.312 141.22v3.8523l-0.48683-0.0212v-0.21167l0.02117-0.23283v-1.524l0.02117-0.21167v-1.3547l0.02117-0.0212v-0.0423l0.04233-0.0423 0.04234-0.0424 0.04233-0.0212 0.02117-0.0212 0.127-0.0635h0.04233l0.04233-0.0212 0.0635-0.0212"/>
   <path d="m38.904 141.22v3.8523l0.46567-0.0212v-1.3123l-0.02117-0.21166v-1.9897l-0.02117-0.0212v-0.0212l-0.02117-0.0423v-0.0212l-0.04233-0.0423-0.04233-0.0212-0.02117-0.0212-0.04233-0.0212-0.02117-0.0212-0.08467-0.0423h-0.04233l-0.0635-0.0212-0.04233-0.0212"/>
   <path d="m48.747 139.55h-0.1905l-0.10583 0.0212h-0.10583l-0.08467 0.0423-0.10583 0.0212-0.08467 0.0212-0.33867 0.16934-0.08467 0.0635-0.08467 0.0423-0.0635 0.0635-0.08467 0.0635-0.0635 0.0635-0.0635 0.0847-0.127 0.127-0.0635 0.0847-0.08467 0.16934-0.12699 0.2541-0.04233 0.10583-0.02117 0.0847-0.02117 0.10583-0.02117 0.0847v0.10583l-0.02117 0.10583v0.21167l0.02117 0.0847v0.10583l0.02117 0.10583 0.02117 0.0847 0.02117 0.10583 0.12699 0.2541 0.04233 0.10584 0.04233 0.0847 0.04233 0.0635 0.127 0.1694 0.1905 0.1905 0.08467 0.0635 0.0635 0.0635 0.08467 0.0635 0.16933 0.0847 0.08467 0.0635 0.08467 0.0212 0.16933 0.0847 0.10583 0.0212 0.08467 0.0212 0.10583 0.0212h0.10583l0.10583 0.0212h0.1905l0.10583-0.0212h0.10583l0.08467-0.0212 0.10583-0.0212 0.08467-0.0212 0.10583-0.0423 0.08467-0.0423 0.08467-0.0212 0.08467-0.0635 0.16933-0.0847 0.08467-0.0635 0.0635-0.0635 0.08467-0.0635 0.1905-0.1905 0.0635-0.0847 0.04233-0.0847 0.0635-0.0635 0.04233-0.0847 0.04233-0.10584 0.08466-0.1694 0.02117-0.0847 0.02117-0.10583 0.04233-0.0847v-0.10583l0.02117-0.10583v-0.40217l-0.02117-0.10583v-0.0847l-0.04233-0.10583-0.02117-0.0847-0.02117-0.10583-0.16932-0.3388-0.0635-0.0847-0.04233-0.0847-0.127-0.127-0.0635-0.0847-0.0635-0.0635-0.08467-0.0635-0.0635-0.0635-0.08467-0.0423-0.08467-0.0635-0.33867-0.16934-0.10583-0.0212-0.08467-0.0212-0.10583-0.0423h-0.08467l-0.10583-0.0212h-0.21167"/>
   <path d="m28.363 139.55h-0.21167l-0.08467 0.0212h-0.10583l-0.10583 0.0423-0.16933 0.0423-0.10583 0.0423-0.254 0.127-0.08467 0.0635-0.0635 0.0423-0.08467 0.0635-0.0635 0.0635-0.08467 0.0635-0.0635 0.0847-0.127 0.127-0.04233 0.0847-0.0635 0.0847-0.12699 0.2541-0.02117 0.0847-0.04233 0.10583-0.02117 0.0847-0.02117 0.10583-0.02117 0.0847-0.02117 0.10583v0.40217l0.04234 0.21166 0.02117 0.0847 0.02117 0.10583 0.04233 0.0847 0.02117 0.0847 0.04233 0.0847 0.04233 0.10584 0.04233 0.0847 0.0635 0.0635 0.04233 0.0847 0.0635 0.0847 0.127 0.127 0.08467 0.0635 0.0635 0.0635 0.08467 0.0635 0.0635 0.0635 0.16933 0.0847 0.08467 0.0635 0.08467 0.0212 0.10583 0.0423 0.08467 0.0423 0.08467 0.0212 0.21167 0.0423h0.08467l0.10583 0.0212h0.21167l0.08467-0.0212h0.10583l0.10583-0.0212 0.08467-0.0212 0.10583-0.0212 0.16933-0.0847 0.10583-0.0212 0.08467-0.0635 0.08467-0.0423 0.0635-0.0423 0.16933-0.127 0.254-0.254 0.127-0.16934 0.04233-0.0635 0.04233-0.0847 0.0635-0.10584 0.04233-0.0847 0.02117-0.0847 0.04233-0.0847 0.02117-0.10583 0.02117-0.0847 0.02117-0.10583v-0.10583l0.02117-0.0847v-0.21167l-0.02117-0.10583v-0.10583l-0.02117-0.0847-0.02117-0.10583-0.02117-0.0847-0.04233-0.10583-0.02117-0.0847-0.04233-0.0847-0.0635-0.0847-0.08467-0.16934-0.0635-0.0847-0.127-0.127-0.0635-0.0847-0.127-0.127-0.08467-0.0635-0.08467-0.0423-0.0635-0.0635-0.16933-0.0847-0.10583-0.0423-0.08467-0.0423-0.08467-0.0212-0.10583-0.0212-0.08467-0.0423h-0.10583l-0.10583-0.0212h-0.1905"/>
  </g>
  <g fill="none" stroke="#1e1917" stroke-linecap="round" stroke-linejoin="round" stroke-miterlimit="10">
   <g stroke-width=".075142">
    <path d="m31.051 147.08v1.7357"/>
    <path d="m49.191 146.19v3.4713"/>
    <path d="m46.63 147.08v1.6933"/>
    <path d="m47.244 146.43v2.9633"/>
   </g>
   <g stroke-width=".10019">
    <path d="m21.209 115.1h4.9742"/>
    <path d="m55.816 115.1h-4.953"/>
    <path d="m28.342 115.12 0.08467-0.10583 0.08467-0.0847 0.08467-0.0635 0.08467-0.0847 0.254-0.1905 0.16933-0.0847 0.10583-0.0423 0.08467-0.0423 0.254-0.0635h0.35983l0.254 0.0635 0.10583 0.0423 0.254 0.127 0.16933 0.127 0.10583 0.0635 0.08467 0.0847 0.08467 0.0635 0.08467 0.0847 0.08467 0.10583"/>
    <path d="m45.847 115.12 0.08467-0.10583 0.08467-0.0847 0.10583-0.0635 0.08467-0.0847 0.08467-0.0635 0.10583-0.0635 0.08467-0.0635 0.16933-0.0847 0.10583-0.0423 0.08467-0.0423 0.08467-0.0212 0.10583-0.0212 0.08467-0.0212h0.08467l0.08467-0.0212 0.10583 0.0212h0.08467l0.08467 0.0212 0.10583 0.0212 0.16933 0.0423 0.10583 0.0423 0.08467 0.0423 0.08467 0.0635 0.10583 0.0423 0.08467 0.0635 0.08467 0.0847 0.10583 0.0635 0.27517 0.27517"/>
   </g>
  </g>
  <g fill-rule="evenodd" stroke="#1e1917" stroke-linecap="round" stroke-linejoin="round" stroke-miterlimit="10" stroke-width=".10019">
   <path d="m45.847 139.72-14.69 0.0423 0.71967-2.3707 6.731-0.80434 6.4982 0.78317 0.74083 2.3495" fill="#7e7e7e"/>
   <path d="m18.097 112.64 0.35983-0.3175 4.6143 5.5033-0.35983 0.3175-4.6143-5.5033" fill="#7e7e7e"/>
   <path d="m14.605 115.57 3.4925-2.921 2.413 2.8787-3.4925 2.921-2.413-2.8787" fill="#edee20"/>
   <path d="m58.907 112.62-0.35983-0.3175-4.6143 5.5033 0.35983 0.3175 4.6143-5.5033" fill="#7e7e7e"/>
   <path d="m62.399 115.54-3.4925-2.921-2.413 2.8787 3.4925 2.921 2.413-2.8787" fill="#edee20"/>
  </g>
 </g>
</svg>
