<?xml version="1.0" encoding="UTF-8"?>
<!-- Created with Inkscape (http://www.inkscape.org/) -->
<svg width="17.695mm" height="43.857mm" version="1.1" viewBox="0 0 17.695 43.857" xmlns="http://www.w3.org/2000/svg">
 <defs>
  <clipPath id="clipPath528">
   <path transform="translate(.00020833 .00020833)" d="m2177 2587.7h418v-1036h-418z"/>
  </clipPath>
 </defs>
 <g transform="translate(-49.477 -164.84)">
  <path transform="matrix(.042333 0 0 -.042333 -42.683 274.38)" d="m2177 1551.7h418v1036h-418z" clip-path="url(#clipPath528)" fill="#bfbfbf" fill-rule="evenodd"/>
  <path d="m57.689 206.49h1.4393v-35.348h-1.4393z" fill="#7e7e7e" fill-rule="evenodd"/>
  <path d="m59.129 171.14v35.348h-1.4393v-35.348h1.4393" fill="none" stroke="#000" stroke-miterlimit="10" stroke-width=".042333"/>
  <path d="m60.441 182.83 0.33867 0.16933 0.33867 0.127 0.381 0.0423 0.381-0.0423 0.33867-0.0847 0.33867-0.16934 0.29633-0.21166 0.254-0.29634 0.16933-0.33866 0.127-0.33867 0.08467-0.381-0.08467-0.381-0.08467-0.33867-0.16933-0.33866-0.21167-0.29634-0.29633-0.254-2.6247-1.8203-0.33867-0.21167-0.33867-0.0847-0.381-0.0423h-0.381l-0.33867 0.127-0.33867 0.16934-0.29633 0.21166-0.254 0.29634-0.16933 0.33866-0.127 0.33867-0.04233 0.381 0.04233 0.381 0.08467 0.33867 0.16933 0.33866 0.21167 0.29634 0.29633 0.254 2.6247 1.8203" fill="#7e7e7e" fill-rule="evenodd"/>
  <path d="m60.441 182.83 0.33867 0.16933 0.33867 0.127 0.381 0.0423 0.381-0.0423 0.33867-0.0847 0.33867-0.16934 0.29633-0.21166 0.254-0.29634 0.16933-0.33866 0.127-0.33867 0.08467-0.381-0.08467-0.381-0.08467-0.33867-0.16933-0.33866-0.21167-0.29634-0.29633-0.254-2.6247-1.8203-0.33867-0.21167-0.33867-0.0847-0.381-0.0423h-0.381l-0.33867 0.127-0.33867 0.16934-0.29633 0.21166-0.254 0.29634-0.16933 0.33866-0.127 0.33867-0.04233 0.381 0.04233 0.381 0.08467 0.33867 0.16933 0.33866 0.21167 0.29634 0.29633 0.254 2.6247 1.8203" fill="none" stroke="#000" stroke-miterlimit="10" stroke-width=".042333"/>
  <path d="m60.78 182.45-0.21167-0.16933-0.127-0.21167-0.127-0.254-0.08467-0.254-0.04233-0.254 0.04233-0.254 0.08467-0.254 0.127-0.254 0.16933-0.21167 0.21167-0.16933 0.254-0.127 0.508-0.0846 0.29633 0.0423 0.254 0.0847 0.254 0.127 0.21167 0.16934 0.16933 0.21166 0.16934 0.508 0.04233 0.254-0.04233 0.29634-0.08467 0.254-0.127 0.254-0.21167 0.21166-0.16933 0.16934-0.508 0.1694h-0.55033l-0.254-0.0847-0.254-0.16933" fill="#0f0" fill-rule="evenodd"/>
  <path d="m60.78 182.45-0.21167-0.16933-0.127-0.21167-0.127-0.254-0.08467-0.254-0.04233-0.254 0.04233-0.254 0.08467-0.254 0.127-0.254 0.16933-0.21167 0.21167-0.16933 0.254-0.127 0.508-0.0846 0.29633 0.0423 0.254 0.0847 0.254 0.127 0.21167 0.16934 0.16933 0.21166 0.16934 0.508 0.04233 0.254-0.04233 0.29634-0.08467 0.254-0.127 0.254-0.21167 0.21166-0.16933 0.16934-0.508 0.1694h-0.55033l-0.254-0.0847-0.254-0.16933" fill="none" stroke="#000" stroke-miterlimit="10" stroke-width=".042333"/>
  <path d="m58.113 180.63-0.21167-0.16933-0.254-0.508-0.08467-0.254-0.04233-0.254 0.04233-0.254 0.08467-0.254 0.127-0.254 0.16933-0.16934 0.21167-0.21166 0.508-0.1694h0.55033l0.254 0.0847 0.21167 0.16933 0.254 0.16934 0.127 0.21166 0.127 0.254 0.08467 0.254 0.04233 0.254-0.04233 0.254-0.08467 0.254-0.127 0.254-0.21167 0.16934-0.16933 0.21166-0.508 0.1694h-0.55033l-0.254-0.0847-0.254-0.127" fill="none" stroke="#000" stroke-miterlimit="10" stroke-width=".042333"/>
  <path d="m51.932 171.14h12.996v-0.889h-12.996z" fill="#7e7e7e" fill-rule="evenodd"/>
  <path d="m51.932 170.25h12.996v0.889h-12.996v-0.889" fill="none" stroke="#000" stroke-miterlimit="10" stroke-width=".042333"/>
 </g>
</svg>
