<?xml version="1.0" encoding="UTF-8"?>
<!-- Created with Inkscape (http://www.inkscape.org/) -->
<svg width="10.837mm" height="10.583mm" version="1.1" viewBox="0 0 10.837 10.583" xmlns="http://www.w3.org/2000/svg" style="background-color:white">
 <defs>
  <clipPath id="clipPath106">
   <path transform="translate(-294.66 -409.46)" d="m293.64 379.46h30.72v30h-30.72z"/>
  </clipPath>
 </defs>
 <g transform="translate(-79.375 -156.37)" fill="#1f1a17 icc-color(sRGB-IEC61966-2, 0.1, 0.12156677, 0.10195923, 0.0901947)">
  <path transform="matrix(.35278 0 0 -.35278 79.735 156.37)" d="m0 0h28.68v-1.98h-28.68zm28.68 0h1.02v-1.02h-1.02zm-1.02-1.02h2.04v-28.02h-2.04zm2.04 0m-1.02-28.02h1.02v-0.95999h-1.02zm1.02 0m-1.02-0.96h-28.68v1.98h28.68zm-28.68 0h-1.02v0.95999h1.02zm1.02 0.96h-2.04v28.02h2.04zm-2.04 0m1.02 28.02h-1.02v1.02h1.02z" clip-path="url(#clipPath106)"/>
  <path d="m84.836 157.85h0.10583c0.93839 0.0395 1.9092 0.39123 2.5823 1.0583l0.0635 0.0635-0.508 0.48684-0.04233-0.0423c-0.51435-0.52387-1.3914-0.85654-2.1167-0.86783h-0.08467zm2.7517 1.1218 0.0635 0.0635c0.67275 0.65335 1.0643 1.585 1.0795 2.5188v0.10583h-0.6985v-0.0847l-0.02117-0.0847c-0.0039-0.33514-0.07832-0.66781-0.21167-0.97367l-0.02117-0.0635-0.04233-0.0635c-0.1023-0.28751-0.33726-0.60431-0.55033-0.8255l-0.10583-0.10583zm1.143 2.6882v0.10583c-0.01482 0.93098-0.40605 1.8687-1.0795 2.5188l-0.0635 0.0635-0.508-0.48684 0.10583-0.10583c0.22331-0.21378 0.42122-0.5267 0.55033-0.80433l0.04233-0.0847 0.02117-0.0635c0.13758-0.30692 0.20496-0.63994 0.21167-0.97367l0.02117-0.0847v-0.0847zm-1.143 2.6882-0.0635 0.0635c-0.6798 0.6671-1.6362 1.0276-2.5823 1.0583h-0.10583v-0.6985h0.08467c0.74471-0.0205 1.5847-0.32703 2.1167-0.86783l0.04233-0.0423zm-2.7517 1.1218h-0.10583c-0.94015-0.0413-1.9075-0.38982-2.5823-1.0583l-0.0635-0.0635 0.508-0.48684 0.04233 0.0423c0.56727 0.5535 1.3367 0.84314 2.1167 0.86783h0.08467zm-2.7517-1.1218-0.0635-0.0635c-0.67698-0.65123-1.0562-1.5886-1.0795-2.5188v-0.10583h0.71967v0.0847c-0.0134 0.73448 0.33902 1.5445 0.86783 2.0532l0.0635 0.0635zm-1.143-2.6882v-0.10583c0.02328-0.93169 0.40393-1.8655 1.0795-2.5188l0.0635-0.0635 0.508 0.48684-0.0635 0.0635c-0.52317 0.50517-0.88336 1.325-0.86783 2.0532v0.0847zm1.143-2.6882 0.0635-0.0635c0.70661-0.6738 1.6125-1.0121 2.5823-1.0583h0.10583v0.6985h-0.08467c-0.73695 0.0138-1.5886 0.34149-2.1167 0.86783l-0.04233 0.0423-0.508-0.48684"/>
 </g>
</svg>
