<?xml version="1.0" encoding="UTF-8"?>
<!-- Created with Inkscape (http://www.inkscape.org/) -->
<svg width="14mm" height="39.802mm" version="1.1" viewBox="0 0 14 39.802" xmlns="http://www.w3.org/2000/svg">
 <defs>
  <clipPath id="clipPath373">
   <path transform="matrix(1.0364 0 0 -.9661 -2502.8 4728.8)" d="m2380 4896.7h39v-653h-39z"/>
  </clipPath>
  <clipPath id="clipPath380">
   <path transform="matrix(1.0364 0 0 -.9661 -2486.2 5008.9)" d="m2246 5184.7h306v-310h-306z"/>
  </clipPath>
  <clipPath id="clipPath385">
   <path transform="matrix(1.0364 0 0 -.9661 -2643.8 4313.3)" d="m2221 4801.7h331v-341h-331z"/>
  </clipPath>
 </defs>
 <g transform="translate(-67.733 -139.7)">
  <path d="m70.352 164.59v0.29633l0.04233 0.0847v0.127l0.04233 0.0847v0.0847l0.21165 0.4235 0.08467 0.0847 0.04233 0.0423 0.04233 0.0847 0.08467 0.0847 0.04233 0.0423 0.08467 0.0423 0.08467 0.0847 0.04233 0.0423 0.59269 0.2961h0.21167l0.08467 0.0423h0.381l0.08467-0.0423h0.21167l0.50802-0.2538 0.04233-0.0423 0.08467-0.0423 0.08467-0.0847 0.04233-0.0423 0.08467-0.0423 0.04233-0.0847 0.08467-0.0847 0.04233-0.0423 0.04233-0.0847 0.08467-0.0847 0.12699-0.2541v-0.0847l0.08466-0.1694v-0.127l0.04233-0.0847v-3.7677l-0.04233-0.0847v-0.0847l-0.04233-0.127-0.04233-0.0847v-0.0847l-0.12699-0.2541-0.08467-0.0847-0.04233-0.0423-0.04233-0.0847-0.08467-0.0847-0.04233-0.0423-0.08467-0.0847-0.04233-0.0423-0.08467-0.0847-0.08467-0.0423-0.04233-0.0423-0.42335-0.2115h-0.08467l-0.127-0.0423h-0.08467l-0.08467-0.0423h-0.381l-0.08467 0.0423h-0.127l-0.08467 0.0423h-0.08467l-0.50802 0.2538-0.04233 0.0423-0.08467 0.0847-0.08467 0.0423-0.04233 0.0847-0.08467 0.0423-0.08466 0.1694-0.08467 0.0423-0.21165 0.4235v0.0847l-0.04233 0.127v0.0847l-0.04233 0.0847v3.4713" fill="#848382" fill-rule="evenodd"/>
  <g fill="none" stroke="#1f1a17" stroke-linecap="round" stroke-linejoin="round" stroke-miterlimit="10" stroke-width=".074757">
   <path d="m70.352 164.59v0.29622l0.04207 0.085v0.12664l0.04248 0.085v0.0846l0.04248 0.0846 0.04207 0.0846 0.04248 0.085 0.04248 0.0846 0.04207 0.0846 0.08496 0.0846 0.04207 0.0425 0.04248 0.0846 0.12704 0.1271 0.08456 0.0421 0.08455 0.085 0.04248 0.0421 0.1691 0.085 0.08496 0.0421 0.08456 0.0425 0.08455 0.0421 0.08496 0.0425 0.08456 0.0425h0.21159l0.08456 0.0421h0.38111l0.08455-0.0421h0.21159l0.08496-0.0425 0.08455-0.0425 0.08456-0.0421 0.08496-0.0425 0.08455-0.0421 0.08456-0.0425 0.04248-0.0425 0.08456-0.0421 0.08456-0.085 0.04248-0.0421 0.08456-0.0425 0.04248-0.0846 0.12704-0.1271 0.04207-0.0846 0.08496-0.0846 0.04207-0.0846 0.04248-0.085 0.04248-0.0846v-0.0846l0.04207-0.0846 0.04248-0.085v-0.12664l0.04207-0.085v-3.7676l-0.04207-0.0846v-0.0846l-0.04248-0.12707-0.04207-0.0846v-0.085l-0.08496-0.1692-0.04207-0.0846-0.08496-0.085-0.04207-0.0421-0.04248-0.0846-0.08456-0.085-0.04248-0.0421-0.2116-0.2117-0.08456-0.0425-0.04248-0.0421-0.08456-0.0425-0.08455-0.0425-0.08496-0.0421-0.08456-0.0425-0.08455-0.0421h-0.08496l-0.12663-0.0425h-0.08496l-0.08455-0.0425h-0.38111l-0.08456 0.0425h-0.12704l-0.08455 0.0425h-0.08456l-0.08496 0.0421-0.08455 0.0425-0.08456 0.0421-0.08496 0.0425-0.08455 0.0425-0.08455 0.0421-0.04248 0.0425-0.08455 0.0846-0.08456 0.0425-0.04248 0.0846-0.08456 0.0421-0.04248 0.085-0.04207 0.0846-0.08496 0.0421-0.04207 0.085-0.08496 0.1692-0.04207 0.0846-0.04248 0.085v0.0846l-0.04248 0.12707v0.0846l-0.04207 0.0846z"/>
   <path d="m70.817 164.72v-0.29622l0.04207-0.085v-0.0421l0.04248-0.0846v-0.0425l0.04248-0.0846 0.04207-0.0425v-0.0421l0.04248-0.085 0.04248-0.0421 0.04207-0.0425 0.04248-0.0421 0.04248-0.085 0.04207-0.0421 0.04248-0.0425 0.08456-0.0425 0.04248-0.0421h0.04207l0.08496-0.0425 0.04207-0.0421 0.04248-0.0425h0.08455l0.04248-0.0425h0.08455l0.08455-0.0421h0.55063l0.04207 0.0421h0.08496l0.04207 0.0425h0.08455l0.04248 0.0425 0.08456 0.0421 0.04248 0.0425h0.04248l0.04207 0.0421 0.08496 0.0425 0.04207 0.0425 0.04248 0.0421 0.04207 0.085 0.04248 0.0421 0.04248 0.0425 0.04207 0.0421 0.04248 0.085 0.04248 0.0421v0.0425l0.04207 0.0846 0.04248 0.0425v0.12664l0.04248 0.085v0.21165l0.04207 0.0846-0.04207 0.0425v0.21165l-0.04248 0.0846v0.12707l-0.04248 0.0421-0.04207 0.0846v0.0425l-0.04248 0.0846-0.04248 0.0425-0.04207 0.0425-0.04248 0.0846-0.04248 0.0421-0.04207 0.0425-0.04248 0.0425-0.04207 0.0421-0.08496 0.0425-0.04207 0.0421-0.08496 0.085h-0.08456l-0.04248 0.0421-0.08455 0.0425h-0.12704l-0.04207 0.0421h-0.212l-0.08456 0.0425-0.08455-0.0425h-0.16946l-0.08455-0.0421h-0.12704l-0.08455-0.0425-0.04248-0.0421h-0.04207l-0.08496-0.0425-0.04207-0.0425-0.04248-0.0421-0.08456-0.0425-0.04248-0.0421-0.04207-0.0425-0.04248-0.0425-0.04248-0.0421-0.04207-0.0846-0.08496-0.085v-0.0846l-0.04207-0.0425-0.04248-0.0846v-0.0421l-0.04248-0.085v-0.0421l-0.04207-0.0846z"/>
   <path d="m70.817 161.46v-0.29622l0.04207-0.0425v-0.0846l0.04248-0.0425v-0.0846l0.04248-0.0425 0.04207-0.0846v-0.0421l0.04248-0.085 0.04248-0.0421 0.04207-0.0425 0.04248-0.0421 0.04248-0.0425 0.04207-0.0425 0.04248-0.0421 0.08456-0.0425 0.04248-0.0425 0.04207-0.0421 0.08496-0.0425 0.04207-0.0421h0.04248l0.08455-0.0425 0.04248-0.0425h0.16911l0.04248-0.0421h0.42318l0.08496 0.0421h0.12704l0.04207 0.0425 0.08455 0.0425h0.04248l0.08456 0.0421 0.04248 0.0425 0.04248 0.0421 0.04207 0.0425 0.08496 0.0425 0.04207 0.0421 0.04248 0.0425 0.04207 0.0425 0.04248 0.0421 0.04248 0.0425 0.04207 0.0421 0.04248 0.085 0.04248 0.0421v0.0846l0.04207 0.0425 0.04248 0.0846v0.12707l0.04248 0.0425v0.21165l0.04207 0.0846-0.04207 0.0846v0.21165l-0.04248 0.0425v0.12707l-0.04248 0.0846-0.04207 0.0425v0.0846l-0.04248 0.0421-0.04248 0.0425-0.04207 0.0846-0.04248 0.0425-0.04248 0.0421-0.04207 0.0425-0.04248 0.0425-0.04207 0.0421-0.08496 0.0425-0.04207 0.0421-0.08496 0.085-0.08456 0.0421h-0.04248l-0.08455 0.0425h-0.04207l-0.08496 0.0421h-0.12704l-0.08456 0.0425h-0.25407l-0.08455-0.0425h-0.12704l-0.08455-0.0421h-0.04248l-0.08455-0.0425h-0.04248l-0.04207-0.0421-0.08496-0.0425-0.04207-0.0425-0.04248-0.0421-0.08456-0.0425-0.04248-0.0421-0.04207-0.0425-0.04248-0.0425-0.04248-0.0421-0.04207-0.0425-0.04248-0.0846-0.04248-0.0425v-0.0421l-0.04207-0.0846-0.04248-0.0425v-0.0846l-0.04248-0.0425v-0.0846l-0.04207-0.0425z"/>
  </g>
  <path d="m74.543 179.45h1.397v-27.474h-1.397z" fill="#848382" fill-rule="evenodd"/>
  <path transform="matrix(.040848 0 0 .043819 75.94 151.98)" d="m0 0v627h-34.2v-627z" clip-path="url(#clipPath373)" fill="none" stroke="#1f1a17" stroke-linecap="round" stroke-linejoin="round" stroke-miterlimit="10" stroke-width="2.337"/>
  <path d="m77.21 155.58 0.16934 0.0846 0.08467 0.0847h0.08467l0.08467 0.0423 0.127 0.0423 0.08467 0.0423h0.08467l0.08467 0.0423h0.635l0.08467-0.0423h0.08467l0.16934-0.0846h0.08467l0.25401-0.1269 0.08467-0.0847 0.16934-0.0846 0.04233-0.0847 0.08467-0.0423 0.04233-0.0847 0.08467-0.0847 0.08466-0.1694 0.08467-0.0847 0.08466-0.1694v-0.0847l0.08466-0.1694v-0.16934l0.04233-0.127v-0.46566l-0.04233-0.0847v-0.0847l-0.04233-0.0847v-0.0847l-0.29631-0.5929-0.08467-0.0847-0.04233-0.0423-0.08467-0.0847-0.08467-0.0423-0.04233-0.0847-0.08467-0.0423-2.5823-1.8203-0.08467-0.0847-0.33868-0.1692h-0.08467l-0.16934-0.0846h-0.21171l-0.08467-0.0423h-0.254l-0.127 0.0423h-0.16933l-0.16934 0.0846h-0.08467l-0.42335 0.2115-0.04233 0.0847-0.08467 0.0423-0.08467 0.0847-0.04233 0.0423-0.08467 0.0847-0.04233 0.0847-0.08467 0.0423-0.16932 0.3388-0.04233 0.127-0.04233 0.0847v0.0847l-0.04233 0.0847v0.16933l-0.04233 0.127v0.254l0.04233 0.0847v0.21167l0.08466 0.1694v0.0847l0.16932 0.3388 0.08467 0.0847 0.04233 0.0423 0.04233 0.0847 0.08467 0.0847 0.04233 0.0423 0.08467 0.0847 0.08467 0.0423 0.08467 0.0847 2.54 1.8203" fill="#848382" fill-rule="evenodd"/>
  <g fill="none" stroke="#1f1a17" stroke-linecap="round" stroke-linejoin="round" stroke-miterlimit="10" stroke-width=".074757">
   <path d="m77.21 155.57 0.08456 0.0425 0.08455 0.0421 0.08496 0.085h0.08456l0.08456 0.0421 0.12704 0.0425 0.08455 0.0421h0.08496l0.08456 0.0425h0.63518l0.08456-0.0425h0.08455l0.08456-0.0421 0.08496-0.0425h0.08456l0.08455-0.0421 0.08456-0.0425 0.08496-0.0425 0.08455-0.0846 0.08456-0.0421 0.08496-0.0425 0.04207-0.0846 0.08455-0.0425 0.04248-0.0846 0.08456-0.0846 0.04248-0.085 0.04248-0.0846 0.08455-0.0846 0.04248-0.0846 0.04207-0.0846v-0.085l0.04248-0.0846 0.04207-0.0846v-0.16958l0.04248-0.12664v-0.46579l-0.04248-0.0846v-0.085l-0.04207-0.0846v-0.0846l-0.04248-0.0846-0.04207-0.0846-0.04248-0.085-0.04248-0.0846-0.04207-0.0846-0.04248-0.0846-0.04248-0.085-0.08456-0.0846-0.04248-0.0421-0.08455-0.085-0.08456-0.0421-0.04248-0.0846-0.08456-0.0425-2.5824-1.8202-0.08456-0.0846-0.08456-0.0425-0.08496-0.0425-0.08456-0.0421-0.08455-0.0425h-0.08455l-0.08496-0.0425-0.08456-0.0421h-0.21159l-0.08456-0.0425h-0.25407l-0.12704 0.0425h-0.1695l-0.08456 0.0421-0.08456 0.0425h-0.08496l-0.08455 0.0425-0.08455 0.0421-0.08456 0.0425-0.08496 0.0425-0.08455 0.0421-0.04248 0.0846-0.08455 0.0425-0.08455 0.0846-0.04248 0.0425-0.08455 0.0846-0.04248 0.0846-0.08456 0.0425-0.04248 0.0846-0.04207 0.0846-0.04248 0.085-0.04207 0.0846-0.04248 0.12707-0.04248 0.0846v0.0846l-0.04207 0.0846v0.16958l-0.04248 0.12708v0.25371l0.04248 0.0846v0.21164l0.04207 0.085 0.04248 0.0846v0.0846l0.04248 0.0846 0.04207 0.085 0.04248 0.0846 0.04207 0.0846 0.08496 0.0846 0.04207 0.0425 0.04248 0.0846 0.08455 0.0846 0.04248 0.0425 0.08455 0.0846 0.08455 0.0425 0.08496 0.0846z"/>
   <path d="m77.591 155.24-0.08496-0.0421-0.04207-0.0425-0.04248-0.0425-0.04248-0.0421-0.04207-0.0425-0.04248-0.0421-0.04207-0.085-0.04248-0.0421-0.04248-0.0425-0.04207-0.0846v-0.0425l-0.04248-0.0846v-0.0421l-0.04248-0.085v-0.0421l-0.04207-0.085v-0.46536l0.04207-0.0425v-0.16914l0.04248-0.0425v-0.0846l0.04248-0.0425 0.04207-0.0846 0.04248-0.0425 0.04248-0.0421 0.04207-0.0846 0.04248-0.0425 0.04207-0.0425 0.04248-0.0421 0.04248-0.0846 0.04207-0.0425 0.08496-0.0425h0.04207l0.04248-0.0421 0.08456-0.0425 0.04248-0.0425h0.08456l0.04248-0.0421h0.08456l0.04248-0.0425h0.5927l0.08456 0.0425h0.04207l0.08496 0.0421h0.04207l0.08496 0.0425 0.04207 0.0425 0.08496 0.0421 0.04207 0.0425 0.04248 0.0425 0.08456 0.0421 0.04248 0.0425 0.04207 0.0421 0.08496 0.085 0.04207 0.0846 0.04248 0.0421 0.04248 0.0425v0.0846l0.04207 0.0425 0.04248 0.0846v0.0425l0.04207 0.0846v0.16914l0.04248 0.085v0.25371l-0.04248 0.0846v0.12707l-0.04207 0.0425v0.0846l-0.04248 0.0846-0.04207 0.0425v0.0425l-0.04248 0.0846-0.04248 0.0421-0.04207 0.085-0.04248 0.0421-0.04248 0.0425-0.04207 0.0421-0.08496 0.0425-0.04207 0.0425-0.04248 0.0421-0.04207 0.0425-0.08496 0.0421-0.04207 0.0425-0.08496 0.0425h-0.04207l-0.08496 0.0421h-0.04207l-0.08456 0.0425h-0.55064l-0.08455-0.0425h-0.08456l-0.04248-0.0421h-0.08456l-0.04248-0.0425-0.04207-0.0425-0.08496-0.0421z"/>
   <path d="m74.966 153.37-0.08455-0.0421-0.04248-0.0425-0.04207-0.0421-0.08496-0.085-0.04207-0.0421-0.04248-0.0846-0.04248-0.0425-0.04207-0.0425-0.04248-0.0846v-0.0425l-0.04207-0.0846-0.04248-0.0421v-0.12708l-0.04248-0.0846v-0.46579l0.04248-0.0425v-0.16914l0.04248-0.0425 0.04207-0.0846v-0.0425l0.04248-0.0846 0.04207-0.0421 0.04248-0.0425 0.04248-0.0846 0.04207-0.0425 0.04248-0.0421 0.04248-0.0425 0.04207-0.0846 0.04248-0.0425 0.08455-0.0425h0.04248l0.04207-0.0421 0.08496-0.0425 0.04207-0.0421h0.08496l0.04207-0.0425h0.08496l0.04207-0.0425h0.5927l0.08456 0.0425h0.04248l0.08455 0.0425h0.04248l0.08455 0.0421 0.04248 0.0425 0.08455 0.0421 0.04248 0.0425 0.04207 0.0425 0.08496 0.0421 0.04207 0.0425 0.04248 0.0425 0.04248 0.0421 0.04207 0.0425 0.04248 0.0846 0.04207 0.0425 0.04248 0.0421v0.0846l0.04248 0.0425 0.04207 0.0846v0.0425l0.04248 0.0846v0.16957l0.04248 0.0846v0.25371l-0.04248 0.085v0.12664l-0.04248 0.0425v0.0846l-0.04207 0.0846-0.04248 0.0425v0.0425l-0.04248 0.0846-0.04207 0.0425-0.04248 0.0846-0.04207 0.0421-0.08496 0.085-0.08456 0.0421-0.04248 0.0425-0.04207 0.0421-0.04248 0.0425-0.08455 0.0425-0.04248 0.0421-0.08455 0.0425h-0.04248l-0.08455 0.0421h-0.04248l-0.08456 0.0425h-0.5927l-0.04207-0.0425h-0.08496l-0.04207-0.0421h-0.08496l-0.04207-0.0425-0.04248-0.0421-0.08456-0.0425z"/>
  </g>
  <path d="m75.262 139.7 0.29633 0.0423h0.33867l0.33867 0.0423 0.29633 0.0847 0.29633 0.0423 0.29633 0.0847 0.33867 0.127 0.254 0.0847 0.29633 0.16933 0.29633 0.127 0.762 0.508 0.254 0.16934 0.21167 0.21166 0.21167 0.21167 0.21167 0.254 0.21167 0.21167 0.21167 0.254 0.33867 0.508 0.127 0.254 0.16933 0.29633 0.127 0.29633 0.08467 0.29634 0.127 0.29633 0.08467 0.29633 0.04233 0.33867 0.08467 0.29633 0.04233 0.33867v0.33867l0.04233 0.29633-0.04233 0.33867v0.33866l-0.04233 0.33867-0.08467 0.29633-0.04233 0.33867-0.08467 0.29633-0.127 0.29634-0.08467 0.29633-0.127 0.29633-0.16933 0.254-0.127 0.29634-0.33867 0.508-0.21167 0.254-0.42333 0.42333-0.21167 0.254-0.21167 0.16933-0.254 0.21167-0.508 0.33867-0.254 0.16933-0.59267 0.254-0.254 0.127-0.33867 0.0847-0.889 0.2541-0.33867 0.0423h-1.3123l-0.29633-0.0423-0.33867-0.0847-0.889-0.2541-0.59267-0.254-0.254-0.127-0.29633-0.16933-0.508-0.33867-0.21167-0.21167-0.254-0.16933-0.21167-0.254-0.42333-0.42333-0.508-0.762-0.16933-0.29634-0.127-0.254-0.254-0.59266-0.08467-0.29634-0.08467-0.29633-0.08467-0.33867-0.08467-0.29633v-0.33867l-0.04233-0.33866v-0.635l0.04233-0.33867v-0.33867l0.08467-0.29633 0.08467-0.33867 0.16934-0.59266 0.127-0.29634 0.254-0.59266 0.16933-0.254 0.508-0.762 0.21167-0.21167 0.21167-0.254 0.21167-0.21167 0.254-0.21166 0.21167-0.16934 0.508-0.33866 0.29633-0.16934 0.254-0.127 0.29633-0.16933 0.29633-0.0847 0.29633-0.127 0.29633-0.0847 0.29633-0.0423 0.33867-0.0847 0.29633-0.0423h0.33867l0.33867-0.0423" fill="#fff" fill-rule="evenodd"/>
  <path transform="matrix(.040848 0 0 .043819 75.262 139.7)" d="m0 0 7.25 0.97h8.29l8.29 0.97 7.26 1.93 7.25 0.96 7.26 1.94 8.29 2.89 6.22 1.94 7.25 3.86 7.25 2.9 6.22 3.86 6.22 3.87 6.22 3.86 6.22 3.87 10.36 9.66 5.18 5.79 5.18 4.84 5.19 5.79 4.14 5.8 4.15 5.79 3.11 5.8 4.14 6.76 3.11 6.77 2.07 6.76 3.11 6.76 2.08 6.77 1.03 7.72 2.07 6.77 1.04 7.73v7.72l1.04 6.77-1.04 7.73v7.72l-1.04 7.73-2.07 6.77-1.03 7.72-2.08 6.77-3.11 6.76-2.07 6.76-3.11 6.77-4.14 5.79-3.11 6.77-4.15 5.79-4.14 5.8-5.19 5.79-5.18 4.84-5.18 4.83-5.18 5.79-5.18 3.87-6.22 4.83-6.22 3.86-6.22 3.87-6.22 3.86-14.5 5.8-6.22 2.9-8.29 1.93-7.26 1.93-7.25 1.93-7.26 1.93-8.29 0.97h-32.13l-7.25-0.97-8.29-1.93-7.26-1.93-14.5-3.86-7.26-2.9-7.25-2.9-6.22-2.9-7.26-3.86-6.21-3.87-6.22-3.86-5.18-4.83-6.22-3.87-5.18-5.79-5.19-4.83-5.18-4.84-4.14-5.79-4.15-5.8-4.14-5.79-4.15-6.77-3.11-5.79-3.11-6.77-3.11-6.76-2.07-6.76-2.07-6.77-2.08-7.72-2.07-6.77v-7.73l-1.03-7.72v-14.5l1.03-7.72v-7.73l2.07-6.77 2.08-7.72 2.07-6.77 2.07-6.76 3.11-6.76 3.11-6.77 3.11-6.76 4.15-5.8 4.14-5.79 4.15-5.8 4.14-5.79 5.18-4.84 5.19-5.79 5.18-4.83 6.22-4.83 5.18-3.87 6.22-3.86 6.21-3.87 7.26-3.86 6.22-2.9 7.25-3.86 7.26-1.94 7.25-2.89 7.25-1.94 7.26-0.96 8.29-1.93 7.25-0.97h8.3z" clip-path="url(#clipPath380)" fill="none" stroke="#1f1a17" stroke-linecap="round" stroke-linejoin="round" stroke-miterlimit="10" stroke-width="1.767"/>
  <g fill-rule="evenodd">
   <path d="m75.262 140.72h0.55033l0.508 0.0846 0.29633 0.0847 0.508 0.1694 0.21167 0.0847 0.254 0.127 0.254 0.0847 0.21167 0.16933 0.21167 0.127 0.21167 0.16934 0.21167 0.127 0.21167 0.16933 0.16933 0.21167 0.16933 0.16933 0.16933 0.21167 0.16933 0.21166 0.16933 0.21167 0.127 0.21167 0.127 0.254 0.127 0.21166 0.08467 0.254 0.127 0.254 0.08467 0.254 0.04233 0.254 0.08467 0.254 0.04233 0.29634 0.04233 0.254v1.143l-0.08466 0.508-0.08467 0.29633-0.04233 0.254-0.08467 0.254-0.127 0.254-0.08467 0.254-0.127 0.21167-0.127 0.254-0.127 0.21166-0.16933 0.21167-0.16933 0.21167-0.16933 0.16933-0.16933 0.21167-0.16933 0.16933-0.42333 0.33867-0.21167 0.16933-0.42333 0.254-0.508 0.254-0.21167 0.0847-0.508 0.1694-0.29633 0.0423-0.508 0.0846-0.29633 0.0423h-0.55033l-0.254-0.0423-0.29633-0.0423-0.508-0.0846-0.762-0.2541-0.254-0.127-0.21167-0.127-0.254-0.127-0.21167-0.127-0.21167-0.16933-0.21167-0.16934-0.16933-0.16933-0.21167-0.16933-0.16933-0.21167-0.16933-0.16933-0.16933-0.21167-0.127-0.21167-0.16933-0.21166-0.127-0.254-0.127-0.21167-0.33868-1.016-0.08467-0.29633-0.08466-0.508v-1.143l0.04233-0.254 0.04233-0.29634 0.42335-1.27 0.127-0.21166 0.127-0.254 0.16933-0.21167 0.127-0.21167 0.16933-0.21166 0.16933-0.21167 0.381-0.381 0.16933-0.16933 0.21167-0.127 0.21167-0.16934 0.21167-0.127 0.254-0.16933 0.21167-0.0847 0.254-0.127 1.016-0.3388 0.254-0.0423 0.29633-0.0423h0.55033" fill="#1f1a17"/>
   <path d="m75.262 141.44h0.46567l0.254 0.0423 0.42333 0.0846 0.254 0.0847 0.21167 0.0423 0.21167 0.0847 0.21167 0.127 0.21167 0.0847 0.16933 0.127 0.21167 0.127 0.33867 0.254 0.16933 0.16934 0.16933 0.16933 0.16933 0.16933 0.127 0.16934 0.16933 0.16933 0.127 0.16933 0.127 0.21167 0.08467 0.21167 0.127 0.16933 0.08467 0.21167 0.08467 0.254 0.08467 0.21166 0.04233 0.21167 0.08467 0.254 0.04233 0.21167v0.254l0.04233 0.254v0.46566l-0.04233 0.254v0.21167l-0.04233 0.254-0.08467 0.21167-0.04233 0.254-0.08467 0.21166-0.16934 0.42334-0.127 0.21166-0.08467 0.21167-0.127 0.16933-0.127 0.21167-0.16933 0.16933-0.127 0.16934-0.16933 0.16933-0.16933 0.16933-0.16933 0.127-0.16933 0.16934-0.16933 0.127-0.21167 0.127-0.16933 0.0847-0.21167 0.127-0.635 0.2541-0.254 0.0423-0.21167 0.0847-0.21167 0.0423h-0.254l-0.254 0.0423h-0.46567l-0.254-0.0423h-0.21167l-0.254-0.0423-0.21167-0.0847-0.21167-0.0423-0.254-0.0847-0.42333-0.1694-0.16933-0.127-0.21167-0.0847-0.21167-0.127-0.16933-0.127-0.16933-0.16934-0.16933-0.127-0.33867-0.33866-0.127-0.16934-0.16933-0.16933-0.127-0.21167-0.08467-0.16933-0.127-0.21167-0.127-0.21166-0.16934-0.42334-0.08467-0.21166-0.04233-0.254-0.04233-0.21167-0.04233-0.254-0.04233-0.21167v-0.254l-0.04233-0.254 0.04233-0.21166v-0.254l0.04233-0.254 0.04233-0.21167 0.04233-0.254 0.04233-0.21167 0.08467-0.21166 0.08467-0.254 0.08467-0.21167 0.127-0.16933 0.127-0.21167 0.08467-0.21167 0.127-0.16933 0.16933-0.16933 0.127-0.16934 0.33867-0.33866 0.16933-0.16934 0.33867-0.254 0.42333-0.254 0.16933-0.0847 0.21167-0.127 0.21167-0.0847 0.254-0.0423 0.21167-0.0847 0.21167-0.0423 0.254-0.0423 0.21167-0.0423h0.508" fill="#f8c300"/>
   <path d="m81.697 170.18v-2.159l-11.896-12.023-2.032 2.0743 11.896 12.023 2.032 0.0847" fill="#fff"/>
  </g>
  <path transform="matrix(.040848 0 0 .043819 81.697 170.18)" d="m0 0v-49.27l-291.21-274.38-49.75 47.34 291.22 274.37z" clip-path="url(#clipPath385)" fill="none" stroke="#1f1a17" stroke-linecap="round" stroke-linejoin="round" stroke-miterlimit="10" stroke-width="1.767"/>
  <path d="m81.062 169.59-0.08467-1.397-11.049-11.218-1.2277 1.2277 11.091 11.218 1.27 0.16933" fill="#f8c300" fill-rule="evenodd"/>
  <path d="m81.062 169.59-0.08456-1.3969-11.049-11.218-1.2275 1.2278 11.091 11.218z" fill="none" stroke="#1f1a17" stroke-linecap="round" stroke-linejoin="round" stroke-miterlimit="10" stroke-width=".2942"/>
 </g>
</svg>
