<?xml version="1.0" encoding="UTF-8"?>
<!-- Created with Inkscape (http://www.inkscape.org/) -->
<svg width="17.695mm" height="43.9mm" version="1.1" viewBox="0 0 17.695 43.9" xmlns="http://www.w3.org/2000/svg">
 <defs>
  <clipPath id="clipPath287">
   <path transform="translate(0 .00020833)" d="m2177 2399.7h418v-1037h-418z"/>
  </clipPath>
 </defs>
 <g transform="translate(-77.787 -201.35)">
  <g fill-rule="evenodd">
   <path transform="matrix(.042333 0 0 -.042333 -14.372 302.93)" d="m2177 1362.7h418v1037h-418z" clip-path="url(#clipPath287)" fill="#b6b5b4"/>
   <path d="m86 243.09h1.4393v-35.518h-1.4393z" fill="#848382" stroke="#1f1a17" stroke-linecap="round" stroke-linejoin="round" stroke-miterlimit="10" stroke-width=".098679"/>
   <path d="m88.752 219.34 0.08467 0.0423 0.08467 0.0847 0.25401 0.1269h0.08467l0.08467 0.0423h0.08467l0.127 0.0423h0.16933l0.08467 0.0423h0.08467l0.127-0.0423h0.16933l0.08467-0.0423h0.08467l0.08467-0.0423h0.08467l0.42335-0.2115 0.08467-0.0847 0.08467-0.0423 0.04233-0.0847 0.08467-0.0423 0.04233-0.0847 0.08467-0.0847 0.04233-0.0847 0.08467-0.0847 0.16932-0.3388v-0.0847l0.04233-0.0847v-0.0847l0.04233-0.0847v-0.67733l-0.04233-0.0847v-0.0847l-0.33864-0.6776-0.08467-0.0423-0.04233-0.0847-0.08467-0.0847-0.08467-0.0423-0.04233-0.0847-0.08467-0.0423-2.6247-1.8203-0.08467-0.0423-0.08467-0.0847-0.25401-0.1269h-0.08467l-0.08467-0.0423h-0.08467l-0.127-0.0423h-0.635l-0.08467 0.0423h-0.08467l-0.08467 0.0423-0.127 0.0423h-0.08467l-0.08467 0.0423-0.04233 0.0423-0.08467 0.0423-0.08467 0.0847-0.16934 0.0846-0.04233 0.0847-0.08467 0.0423-0.08467 0.0847-0.08466 0.1694-0.08467 0.0847-0.16932 0.3388v0.0847l-0.08466 0.1694v0.762l0.04233 0.0847v0.0847l0.12699 0.2541v0.0847l0.04233 0.0847 0.08467 0.0847 0.08466 0.1694 0.08467 0.0423 0.04233 0.0847 0.08467 0.0847 0.08467 0.0423 0.04233 0.0847 0.08467 0.0423 2.6247 1.8203" fill="#848382"/>
  </g>
  <path d="m88.752 219.34v0l0.08467 0.0423 0.08467 0.0847 0.25401 0.1269h0.08467l0.08467 0.0423h0.08467l0.127 0.0423h0.16933l0.08467 0.0423h0.08467l0.127-0.0423h0.16933l0.08467-0.0423h0.08467l0.08467-0.0423h0.08467l0.42335-0.2115 0.08467-0.0847 0.08467-0.0423 0.04233-0.0847 0.08467-0.0423 0.04233-0.0847 0.08467-0.0847 0.04233-0.0847 0.08467-0.0847 0.16932-0.3388v-0.0847l0.04233-0.0847v-0.0847l0.04233-0.0847v-0.67733l-0.04233-0.0847v-0.0847l-0.33864-0.6776-0.08467-0.0423-0.04233-0.0847-0.08467-0.0847-0.08467-0.0423-0.04233-0.0847-0.08467-0.0423-2.6247-1.8203v0l-0.08467-0.0423-0.08467-0.0847-0.25401-0.1269h-0.08467l-0.08467-0.0423h-0.08467l-0.127-0.0423h-0.635l-0.08467 0.0423h-0.08467l-0.08467 0.0423-0.127 0.0423h-0.08467l-0.08467 0.0423-0.04233 0.0423-0.08467 0.0423-0.08467 0.0847-0.16934 0.0846-0.04233 0.0847-0.08467 0.0423-0.08467 0.0847-0.08466 0.1694-0.08467 0.0847-0.16932 0.3388v0.0847l-0.08466 0.1694v0.762l0.04233 0.0847v0.0847l0.12699 0.2541v0.0847l0.04233 0.0847 0.08467 0.0847 0.08466 0.1694 0.08467 0.0423 0.04233 0.0847 0.08467 0.0847 0.08467 0.0423 0.04233 0.0847 0.08467 0.0423z" fill="none" stroke="#1f1a17" stroke-linecap="round" stroke-linejoin="round" stroke-miterlimit="10" stroke-width=".074676"/>
  <path d="m89.09 219-0.04233-0.0423-0.08467-0.0423-0.08466-0.0846-0.04233-0.0847-0.12699-0.1269-0.04233-0.0847-0.04233-0.0423v-0.0847l-0.04233-0.0423v-0.0847l-0.04233-0.0423v-0.0847l-0.04233-0.0423v-0.46567l0.04233-0.0847v-0.0423l0.04233-0.0847v-0.0423l0.04233-0.0847v-0.0423l0.04233-0.0847 0.04233-0.0423 0.04233-0.0847 0.08466-0.0846 0.04233-0.0847 0.04233-0.0423 0.08467-0.0423 0.12699-0.1269 0.08467-0.0423h0.04233l0.08467-0.0423 0.04233-0.0423h0.08467l0.04233-0.0423h0.127l0.08467-0.0423h0.33867l0.04233 0.0423h0.127l0.08467 0.0423h0.04233l0.08467 0.0423 0.04233 0.0423h0.08467l0.04233 0.0423 0.08467 0.0423 0.08466 0.0846 0.08467 0.0423 0.04233 0.0423 0.04233 0.0847 0.08466 0.0846 0.04233 0.0847 0.04233 0.0423v0.0423l0.04233 0.0847 0.04233 0.0423v0.0847l0.04233 0.0423v0.127l0.04233 0.0847v0.33866l-0.04233 0.0423v0.16933l-0.04233 0.0423v0.0847l-0.04233 0.0423-0.04233 0.0847v0.0423l-0.04233 0.0847-0.08466 0.0846-0.04233 0.0847-0.08466 0.0846-0.08467 0.0423-0.08466 0.0846-0.08467 0.0423-0.08466 0.0846h-0.08467l-0.04233 0.0423h-0.08467l-0.04233 0.0423h-0.127l-0.08467 0.0423h-0.381l-0.08467-0.0423h-0.08467l-0.04233-0.0423h-0.08467l-0.04233-0.0423h-0.08467l-0.04233-0.0423-0.08467-0.0423-0.04233-0.0423" fill="#00923f" fill-rule="evenodd"/>
  <g stroke="#1f1a17" stroke-linecap="round" stroke-linejoin="round" stroke-miterlimit="10" stroke-width=".074676">
   <path d="m89.09 219-0.04233-0.0423-0.08467-0.0423-0.08466-0.0846-0.04233-0.0847-0.12699-0.1269-0.04233-0.0847-0.04233-0.0423v-0.0847l-0.04233-0.0423v-0.0847l-0.04233-0.0423v-0.0847l-0.04233-0.0423v-0.46567l0.04233-0.0847v-0.0423l0.04233-0.0847v-0.0423l0.04233-0.0847v-0.0423l0.04233-0.0847 0.04233-0.0423 0.04233-0.0847 0.08466-0.0846 0.04233-0.0847 0.04233-0.0423 0.08467-0.0423 0.12699-0.1269 0.08467-0.0423h0.04233l0.08467-0.0423 0.04233-0.0423h0.08467l0.04233-0.0423h0.127l0.08467-0.0423h0.33867l0.04233 0.0423h0.127l0.08467 0.0423h0.04233l0.08467 0.0423 0.04233 0.0423h0.08467l0.04233 0.0423 0.08467 0.0423 0.08466 0.0846 0.08467 0.0423 0.04233 0.0423 0.04233 0.0847 0.08466 0.0846 0.04233 0.0847 0.04233 0.0423v0.0423l0.04233 0.0847 0.04233 0.0423v0.0847l0.04233 0.0423v0.127l0.04233 0.0847v0.33866l-0.04233 0.0423v0.16933l-0.04233 0.0423v0.0847l-0.04233 0.0423-0.04233 0.0847v0.0423l-0.04233 0.0847-0.08466 0.0846-0.04233 0.0847-0.08466 0.0846-0.08467 0.0423-0.08466 0.0846-0.08467 0.0423-0.08466 0.0846h-0.08467l-0.04233 0.0423h-0.08467l-0.04233 0.0423h-0.127l-0.08467 0.0423h-0.381l-0.08467-0.0423h-0.08467l-0.04233-0.0423h-0.08467l-0.04233-0.0423h-0.08467l-0.04233-0.0423-0.08467-0.0423z" fill="none"/>
   <path d="m86.423 217.14-0.04233-0.0423-0.08467-0.0423-0.08466-0.0846-0.04233-0.0847-0.12699-0.1269-0.04233-0.0847v-0.0423l-0.04233-0.0847-0.04233-0.0423v-0.0847l-0.04233-0.0423v-0.127l-0.04233-0.0847v-0.33866l0.04233-0.0423v-0.127l0.04233-0.0847v-0.0423l0.04233-0.0847 0.04233-0.0423v-0.0847l0.04233-0.0423 0.04233-0.0847 0.08466-0.0846 0.04233-0.0847 0.04233-0.0423 0.08467-0.0423 0.08466-0.0846 0.08467-0.0423 0.04233-0.0423h0.04233l0.08467-0.0423 0.04233-0.0423h0.08467l0.04233-0.0423h0.127l0.08467-0.0423h0.33867l0.04233 0.0423h0.16933l0.04233 0.0423h0.08467l0.04233 0.0423 0.08467 0.0423h0.04233l0.04233 0.0423 0.08467 0.0423 0.04233 0.0423 0.08467 0.0423 0.08466 0.0846 0.04233 0.0847 0.08466 0.0846 0.04233 0.0847 0.04233 0.0423v0.0423l0.04233 0.0847 0.04233 0.0423v0.0847l0.04233 0.0423v0.127l0.04233 0.0847v0.381l-0.04233 0.0847v0.0847l-0.04233 0.0423v0.0847l-0.04233 0.0423v0.0847l-0.04233 0.0423-0.04233 0.0847-0.08466 0.0846-0.04233 0.0847-0.08466 0.0846-0.08467 0.0423-0.12699 0.1269-0.08467 0.0423-0.04233 0.0423h-0.08467l-0.04233 0.0423h-0.08467l-0.04233 0.0423h-0.127l-0.08467 0.0423h-0.33867l-0.04233-0.0423h-0.127l-0.08467-0.0423h-0.08467l-0.04233-0.0423h-0.08467l-0.08466-0.0846z" fill="none"/>
   <path d="m86.677 236.48 1.524-1.524v-17.018h-2.921v17.018l1.397 1.524" fill="#848382" fill-rule="evenodd"/>
   <path d="m80.243 207.7h12.996v-0.93134h-12.996z" fill="#848382" fill-rule="evenodd"/>
  </g>
 </g>
</svg>
