<?xml version="1.0" encoding="UTF-8"?>
<!-- Created with Inkscape (http://www.inkscape.org/) -->
<svg width="12.996mm" height="36.28mm" version="1.1" viewBox="0 0 12.996 36.28" xmlns="http://www.w3.org/2000/svg">
 <g transform="translate(-52.916 -166.16)">
  <path d="m58.695 202.42h1.397v-35.348h-1.397z" fill="#7e7e7e" fill-rule="evenodd"/>
  <path d="m60.092 167.07v35.348h-1.397v-35.348h1.397" fill="none" stroke="#000" stroke-miterlimit="10" stroke-width=".042333"/>
  <path d="m61.446 178.75 0.29633 0.21167 0.381 0.0847 0.33867 0.0423 0.381-0.0423 0.33867-0.0847 0.33867-0.127 0.33867-0.254 0.254-0.29634 0.16933-0.33866 0.127-0.33867 0.04233-0.381-0.04233-0.381-0.127-0.29633-0.127-0.381-0.254-0.29634-0.29633-0.254-2.6247-1.8203-0.29633-0.16933-0.381-0.127-0.381-0.0423-0.33867 0.0423-0.33867 0.0847-0.33867 0.16934-0.29633 0.21166-0.254 0.29634-0.21167 0.33866-0.127 0.33867v0.762l0.127 0.33867 0.127 0.33866 0.254 0.29634 0.29633 0.254 2.6247 1.8203" fill="#7e7e7e" fill-rule="evenodd"/>
  <path d="m61.446 178.75 0.29633 0.21167 0.381 0.0847 0.33867 0.0423 0.381-0.0423 0.33867-0.0847 0.33867-0.127 0.33867-0.254 0.254-0.29634 0.16933-0.33866 0.127-0.33867 0.04233-0.381-0.04233-0.381-0.127-0.29633-0.127-0.381-0.254-0.29634-0.29633-0.254-2.6247-1.8203-0.29633-0.16933-0.381-0.127-0.381-0.0423-0.33867 0.0423-0.33867 0.0847-0.33867 0.16934-0.29633 0.21166-0.254 0.29634-0.21167 0.33866-0.127 0.33867v0.762l0.127 0.33867 0.127 0.33866 0.254 0.29634 0.29633 0.254 2.6247 1.8203" fill="none" stroke="#000" stroke-miterlimit="10" stroke-width=".042333"/>
  <path d="m61.743 178.37-0.16933-0.16933-0.16933-0.21167-0.127-0.254-0.08467-0.254v-0.508l0.08467-0.254 0.127-0.254 0.16933-0.16933 0.254-0.21167 0.21167-0.127 0.29633-0.0423h0.508l0.254 0.0847 0.254 0.127 0.21167 0.16934 0.16933 0.254 0.127 0.21166 0.04233 0.254 0.04233 0.29634-0.04233 0.254-0.08467 0.254-0.127 0.254-0.16933 0.21166-0.21167 0.16934-0.21167 0.127-0.29633 0.0423h-0.55033l-0.254-0.0847-0.254-0.16933" fill="#848382" fill-rule="evenodd"/>
  <path d="m61.743 178.37-0.16933-0.16933-0.16933-0.21167-0.127-0.254-0.08467-0.254v-0.508l0.08467-0.254 0.127-0.254 0.16933-0.16933 0.254-0.21167 0.21167-0.127 0.29633-0.0423h0.508l0.254 0.0847 0.254 0.127 0.21167 0.16934 0.16933 0.254 0.127 0.21166 0.04233 0.254 0.04233 0.29634-0.04233 0.254-0.08467 0.254-0.127 0.254-0.16933 0.21166-0.21167 0.16934-0.21167 0.127-0.29633 0.0423h-0.55033l-0.254-0.0847-0.254-0.16933" fill="none" stroke="#000" stroke-miterlimit="10" stroke-width=".042333"/>
  <path d="m59.118 176.55-0.21167-0.16933-0.16933-0.21167-0.127-0.254-0.08467-0.254v-0.55033l0.08467-0.254 0.127-0.21167 0.16933-0.21167 0.254-0.16933 0.21167-0.127 0.29633-0.0847h0.508l0.254 0.0847 0.254 0.16933 0.21167 0.16934 0.16933 0.21166 0.127 0.254 0.08466 0.508-0.08466 0.508-0.16933 0.254-0.16933 0.21167-0.21167 0.16933-0.508 0.1694-0.254 0.0423-0.254-0.0423-0.254-0.0847-0.254-0.127" fill="none" stroke="#000" stroke-miterlimit="10" stroke-width=".042333"/>
  <path d="m52.937 167.07h12.954v-0.889h-12.954z" fill="#7e7e7e" fill-rule="evenodd"/>
  <path d="m52.937 166.18h12.954v0.889h-12.954v-0.889" fill="none" stroke="#000" stroke-miterlimit="10" stroke-width=".042333"/>
  <path d="m57.848 191.07 0.381 0.21167 0.381 0.0847 0.33867 0.0847 0.381-0.0423 0.33867-0.0847 0.381-0.21167 0.29633-0.21166 0.254-0.29634 0.16933-0.33866 0.08467-0.33867 0.08467-0.381-0.08467-0.33867-0.08467-0.381-0.16933-0.29633-0.254-0.33867-0.29633-0.254-2.54-1.8203-0.381-0.16933-0.381-0.127-0.33867-0.0423-0.381 0.0423-0.33867 0.0847-0.33867 0.16934-0.254 0.21166-0.254 0.29634-0.21167 0.33866-0.127 0.381-0.04233 0.33867 0.04233 0.381 0.08467 0.381 0.16933 0.29633 0.254 0.29634 0.29633 0.254 2.54 1.8203" fill="#7e7e7e" fill-rule="evenodd"/>
  <path d="m57.848 191.07 0.381 0.21167 0.381 0.0847 0.33867 0.0847 0.381-0.0423 0.33867-0.0847 0.381-0.21167 0.29633-0.21166 0.254-0.29634 0.16933-0.33866 0.08467-0.33867 0.08467-0.381-0.08467-0.33867-0.08467-0.381-0.16933-0.29633-0.254-0.33867-0.29633-0.254-2.54-1.8203-0.381-0.16933-0.381-0.127-0.33867-0.0423-0.381 0.0423-0.33867 0.0847-0.33867 0.16934-0.254 0.21166-0.254 0.29634-0.21167 0.33866-0.127 0.381-0.04233 0.33867 0.04233 0.381 0.08467 0.381 0.16933 0.29633 0.254 0.29634 0.29633 0.254 2.54 1.8203" fill="none" stroke="#000" stroke-miterlimit="10" stroke-width=".042333"/>
  <path d="m58.229 190.73-0.21167-0.16933-0.16933-0.21167-0.127-0.254-0.08466-0.508 0.04233-0.254 0.08467-0.29633 0.127-0.21167 0.21167-0.21167 0.16933-0.16933 0.254-0.127 0.508-0.0846 0.254 0.0423 0.29633 0.0847 0.21167 0.127 0.254 0.16934 0.16933 0.254 0.127 0.21166 0.08467 0.254v0.29634l-0.04233 0.254-0.08467 0.254-0.127 0.254-0.21167 0.21166-0.16933 0.16934-0.508 0.1694h-0.55033l-0.508-0.254" fill="none" stroke="#000" stroke-miterlimit="10" stroke-width=".042333"/>
  <path d="m55.562 188.87-0.16933-0.16933-0.16933-0.21167-0.127-0.254-0.08466-0.508 0.04233-0.29633 0.04233-0.254 0.127-0.21167 0.16933-0.21167 0.21167-0.16933 0.254-0.127 0.508-0.0846 0.254 0.0423 0.29633 0.0847 0.21167 0.127 0.21167 0.16934 0.16933 0.21166 0.127 0.254 0.08467 0.29634 0.04233 0.254-0.04233 0.254-0.08467 0.254-0.127 0.254-0.16933 0.21166-0.21167 0.16934-0.508 0.1694h-0.29633l-0.508-0.0846-0.254-0.16933" fill="#848382" fill-rule="evenodd"/>
  <path d="m55.562 188.87-0.16933-0.16933-0.16933-0.21167-0.127-0.254-0.08466-0.508 0.04233-0.29633 0.04233-0.254 0.127-0.21167 0.16933-0.21167 0.21167-0.16933 0.254-0.127 0.508-0.0846 0.254 0.0423 0.29633 0.0847 0.21167 0.127 0.21167 0.16934 0.16933 0.21166 0.127 0.254 0.08467 0.29634 0.04233 0.254-0.04233 0.254-0.08467 0.254-0.127 0.254-0.16933 0.21166-0.21167 0.16934-0.508 0.1694h-0.29633l-0.508-0.0846-0.254-0.16933" fill="none" stroke="#000" stroke-miterlimit="10" stroke-width=".042333"/>
 </g>
</svg>
