<?xml version="1.0" encoding="UTF-8"?>
<!-- Created with Inkscape (http://www.inkscape.org/) -->
<svg width="17.695mm" height="43.857mm" version="1.1" viewBox="0 0 17.695 43.857" xmlns="http://www.w3.org/2000/svg">
 <defs>
  <clipPath id="clipPath270">
   <path transform="translate(0 .00020833)" d="m2177 3851.7h418v-1036h-418z"/>
  </clipPath>
 </defs>
 <g transform="translate(-65.087 -150.28)">
  <path transform="matrix(.042333 0 0 -.042333 -27.072 313.34)" d="m2177 2815.7h418v1036h-418z" clip-path="url(#clipPath270)" fill="#b6b5b4" fill-rule="evenodd"/>
  <path d="m72.496 180.59 0.08467 0.0847 0.33868 0.1692h0.127l0.16934 0.0846h0.16933l0.08467 0.0423h0.29633l0.08467-0.0423h0.16933l0.127-0.0423 0.08467-0.0423h0.08467l0.42335-0.2115 0.04233-0.0847 0.08467-0.0423 0.08467-0.0847 0.04233-0.0423 0.08467-0.0847 0.04233-0.0847 0.08467-0.0847 0.04233-0.0423 0.12699-0.2541 0.04233-0.127 0.04233-0.0847v-0.0847l0.04233-0.0847v-0.0847l0.04233-0.0847v-0.381l-0.04233-0.0847v-0.21167l-0.08466-0.1694v-0.0847l-0.21165-0.4235-0.08467-0.0423-0.04233-0.0847-0.08467-0.0847-0.04233-0.0423-0.08467-0.0847-0.08467-0.0423-0.08467-0.0847-2.5823-1.8203-0.16934-0.0846-0.08467-0.0847h-0.08467l-0.127-0.0423-0.16934-0.0846h-0.08467l-0.08467-0.0423h-0.67733l-0.08467 0.0423h-0.08467l-0.25401 0.1269h-0.08467l-0.08467 0.0847-0.25401 0.1269-0.04233 0.0847-0.08467 0.0423-0.08467 0.0847-0.04233 0.0423-0.08467 0.0847-0.33864 0.6776v0.21167l-0.04233 0.0847v0.46566l0.04233 0.0847v0.0847l0.04233 0.0847v0.0847l0.25398 0.5082 0.08467 0.0847 0.04233 0.0423 0.08467 0.0847 0.04233 0.0847 0.08467 0.0423 0.08467 0.0847 0.08467 0.0423 2.5823 1.8203" fill="#848382" fill-rule="evenodd"/>
  <path d="m72.496 180.59v0l0.08467 0.0847 0.33868 0.1692h0.127l0.16934 0.0846h0.16933l0.08467 0.0423h0.29633l0.08467-0.0423h0.16933l0.127-0.0423 0.08467-0.0423h0.08467l0.42335-0.2115 0.04233-0.0847 0.08467-0.0423 0.08467-0.0847 0.04233-0.0423 0.08467-0.0847 0.04233-0.0847 0.08467-0.0847 0.04233-0.0423 0.12699-0.2541 0.04233-0.127 0.04233-0.0847v-0.0847l0.04233-0.0847v-0.0847l0.04233-0.0847v-0.381l-0.04233-0.0847v-0.21167l-0.08466-0.1694v-0.0847l-0.21165-0.4235-0.08467-0.0423-0.04233-0.0847-0.08467-0.0847-0.04233-0.0423-0.08467-0.0847-0.08467-0.0423-0.08467-0.0847-2.5823-1.8203v0l-0.16934-0.0846-0.08467-0.0847h-0.08467l-0.127-0.0423-0.16934-0.0846h-0.08467l-0.08467-0.0423h-0.67733l-0.08467 0.0423h-0.08467l-0.25401 0.1269h-0.08467l-0.08467 0.0847-0.25401 0.1269-0.04233 0.0847-0.08467 0.0423-0.08467 0.0847-0.04233 0.0423-0.08467 0.0847-0.33864 0.6776v0.21167l-0.04233 0.0847v0.46566l0.04233 0.0847v0.0847l0.04233 0.0847v0.0847l0.25398 0.5082 0.08467 0.0847 0.04233 0.0423 0.08467 0.0847 0.04233 0.0847 0.08467 0.0423 0.08467 0.0847 0.08467 0.0423z" fill="none" stroke="#1f1a17" stroke-linecap="round" stroke-linejoin="round" stroke-miterlimit="10" stroke-width=".074676"/>
  <path d="m72.877 180.3-0.08467-0.0423-0.08466-0.0846-0.04233-0.0847-0.08467-0.0423-0.08466-0.0846v-0.0847l-0.08466-0.0846-0.04233-0.0847v-0.0423l-0.04233-0.0847v-0.0423l-0.04233-0.0847v-0.59266l0.04233-0.0847v-0.0423l0.04233-0.0847v-0.0423l0.04233-0.0847 0.04233-0.0423 0.04233-0.0847v-0.0423l0.08467-0.0423 0.04233-0.0847 0.16932-0.1692 0.08467-0.0423 0.08466-0.0846 0.08467-0.0423h0.04233l0.08467-0.0423h0.04233l0.08467-0.0423h0.04233l0.08467-0.0423h0.46567l0.04233 0.0423h0.08467l0.04233 0.0423h0.08467l0.08467 0.0423h0.04233l0.04233 0.0423 0.08467 0.0423 0.04233 0.0423 0.08467 0.0423 0.16932 0.1692 0.08467 0.0847v0.0423l0.04233 0.0423 0.04233 0.0847 0.04233 0.0423 0.04233 0.0847v0.0423l0.04233 0.0847v0.0423l0.04233 0.0847v0.59266l-0.04233 0.0423v0.0847l-0.04233 0.0423v0.0847l-0.04233 0.0423-0.04233 0.0847-0.04233 0.0423-0.04233 0.0847-0.08466 0.0846-0.04233 0.0847-0.12699 0.1269-0.08467 0.0423-0.04233 0.0423h-0.04233l-0.08467 0.0423-0.04233 0.0423h-0.08467l-0.04233 0.0423h-0.08467l-0.04233 0.0423h-0.127l-0.08467 0.0423h-0.254l-0.08467-0.0423h-0.127l-0.08467-0.0423h-0.04233l-0.08467-0.0423-0.04233-0.0423h-0.08467l-0.04233-0.0423z" fill="none" stroke="#1f1a17" stroke-linecap="round" stroke-linejoin="round" stroke-miterlimit="10" stroke-width=".074676"/>
  <path d="m70.21 178.44-0.08467-0.0423-0.08466-0.0846-0.04233-0.0847-0.12699-0.1269-0.04233-0.0847-0.08466-0.0846-0.04233-0.0847v-0.0423l-0.04233-0.0847v-0.0423l-0.04233-0.0847v-0.59266l0.04233-0.0847v-0.0423l0.04233-0.0847v-0.0423l0.04233-0.0847 0.04233-0.0423 0.04233-0.0847 0.08466-0.0846 0.04233-0.0847 0.16932-0.1692 0.08467-0.0423 0.08466-0.0846 0.08467-0.0423h0.04233l0.08467-0.0423h0.04233l0.08467-0.0423h0.04233l0.08467-0.0423h0.46567l0.08467 0.0423h0.04233l0.08467 0.0423h0.04233l0.08467 0.0423h0.04233l0.08467 0.0423 0.08466 0.0846 0.08467 0.0423 0.08466 0.0846 0.08467 0.0423 0.04233 0.0423 0.04233 0.0847 0.04233 0.0423v0.0423l0.04233 0.0847 0.04233 0.0423 0.04233 0.0847v0.0423l0.04233 0.0847v0.0423l0.04233 0.0847v0.254l0.04233 0.0423-0.04233 0.0847v0.21166l-0.04233 0.0423v0.0847l-0.04233 0.0423v0.0847l-0.04233 0.0423-0.04233 0.0847-0.04233 0.0423v0.0847l-0.04233 0.0423-0.08467 0.0423-0.04233 0.0847-0.12699 0.1269-0.08467 0.0423-0.08466 0.0846h-0.08467l-0.04233 0.0423-0.08467 0.0423h-0.127l-0.04233 0.0423h-0.127l-0.08467 0.0423h-0.21167l-0.04233-0.0423h-0.21167l-0.04233-0.0423h-0.08467l-0.04233-0.0423-0.08467-0.0423h-0.04233l-0.08467-0.0423-0.04233-0.0423" fill="#00923f" fill-rule="evenodd"/>
  <path d="m70.21 178.44-0.08467-0.0423-0.08466-0.0846-0.04233-0.0847-0.12699-0.1269-0.04233-0.0847-0.08466-0.0846-0.04233-0.0847v-0.0423l-0.04233-0.0847v-0.0423l-0.04233-0.0847v-0.59266l0.04233-0.0847v-0.0423l0.04233-0.0847v-0.0423l0.04233-0.0847 0.04233-0.0423 0.04233-0.0847 0.08466-0.0846 0.04233-0.0847 0.16932-0.1692 0.08467-0.0423 0.08466-0.0846 0.08467-0.0423h0.04233l0.08467-0.0423h0.04233l0.08467-0.0423h0.04233l0.08467-0.0423h0.46567l0.08467 0.0423h0.04233l0.08467 0.0423h0.04233l0.08467 0.0423h0.04233l0.08467 0.0423 0.08466 0.0846 0.08467 0.0423 0.08466 0.0846 0.08467 0.0423 0.04233 0.0423 0.04233 0.0847 0.04233 0.0423v0.0423l0.04233 0.0847 0.04233 0.0423 0.04233 0.0847v0.0423l0.04233 0.0847v0.0423l0.04233 0.0847v0.254l0.04233 0.0423-0.04233 0.0847v0.21166l-0.04233 0.0423v0.0847l-0.04233 0.0423v0.0847l-0.04233 0.0423-0.04233 0.0847-0.04233 0.0423v0.0847l-0.04233 0.0423-0.08467 0.0423-0.04233 0.0847-0.12699 0.1269-0.08467 0.0423-0.08466 0.0846h-0.08467l-0.04233 0.0423-0.08467 0.0423h-0.127l-0.04233 0.0423h-0.127l-0.08467 0.0423h-0.21167l-0.04233-0.0423h-0.21167l-0.04233-0.0423h-0.08467l-0.04233-0.0423-0.08467-0.0423h-0.04233l-0.08467-0.0423z" fill="none" stroke="#1f1a17" stroke-linecap="round" stroke-linejoin="round" stroke-miterlimit="10" stroke-width=".074676"/>
  <path d="m73.3 191.98h1.4393v-35.475h-1.4393z" fill="#848382" fill-rule="evenodd" stroke="#1f1a17" stroke-linecap="round" stroke-linejoin="round" stroke-miterlimit="10" stroke-width=".098679"/>
  <path d="m76.052 168.28 0.50802 0.2538h0.08467l0.08467 0.0423h0.127l0.08467 0.0423h0.55033l0.08467-0.0423h0.08467l0.25401-0.1269h0.08467l0.08467-0.0847 0.25401-0.1269 0.08467-0.0847 0.04233-0.0423 0.08467-0.0847 0.04233-0.0423 0.08467-0.0847 0.04233-0.0847 0.08467-0.0847 0.16932-0.3388v-0.0847l0.04233-0.0847v-0.0847l0.04233-0.127v-0.635l-0.04233-0.0847v-0.0847l-0.33864-0.6776-0.08467-0.0847-0.04233-0.0423-0.16934-0.1694-0.04233-0.0423-0.08467-0.0423-2.6247-1.8203-0.08467-0.0847-0.42335-0.2115h-0.08467l-0.08467-0.0423h-0.21167l-0.08467-0.0423h-0.29633l-0.08467 0.0423h-0.16933l-0.16934 0.0846h-0.127l-0.16934 0.0846-0.04233 0.0423-0.16934 0.0846-0.08467 0.0847-0.08467 0.0423-0.04233 0.0423-0.16934 0.1694-0.04233 0.0423-0.04233 0.0847-0.08467 0.0847-0.16932 0.3388v0.127l-0.08466 0.1694v0.71967l0.04233 0.0847v0.127l0.12699 0.2541v0.0847l0.04233 0.0847 0.08467 0.0847 0.04233 0.0423 0.04233 0.0847 0.08467 0.0847 0.04233 0.0847 0.08467 0.0423 0.08467 0.0847 0.04233 0.0423 0.08467 0.0847 2.6247 1.8203" fill="#848382" fill-rule="evenodd"/>
  <path d="m76.052 168.28v0l0.50802 0.2538h0.08467l0.08467 0.0423h0.127l0.08467 0.0423h0.55033l0.08467-0.0423h0.08467l0.25401-0.1269h0.08467l0.08467-0.0847 0.25401-0.1269 0.08467-0.0847 0.04233-0.0423 0.08467-0.0847 0.04233-0.0423 0.08467-0.0847 0.04233-0.0847 0.08467-0.0847 0.16932-0.3388v-0.0847l0.04233-0.0847v-0.0847l0.04233-0.127v-0.635l-0.04233-0.0847v-0.0847l-0.33864-0.6776-0.08467-0.0847-0.04233-0.0423-0.16934-0.1694-0.04233-0.0423-0.08467-0.0423-2.6247-1.8203v0l-0.08467-0.0847-0.42335-0.2115h-0.08467l-0.08467-0.0423h-0.21167l-0.08467-0.0423h-0.29633l-0.08467 0.0423h-0.16933l-0.16934 0.0846h-0.127l-0.16934 0.0846-0.04233 0.0423-0.16934 0.0846-0.08467 0.0847-0.08467 0.0423-0.04233 0.0423-0.16934 0.1694-0.04233 0.0423-0.04233 0.0847-0.08467 0.0847-0.16932 0.3388v0.127l-0.08466 0.1694v0.71967l0.04233 0.0847v0.127l0.12699 0.2541v0.0847l0.04233 0.0847 0.08467 0.0847 0.04233 0.0423 0.04233 0.0847 0.08467 0.0847 0.04233 0.0847 0.08467 0.0423 0.08467 0.0847 0.04233 0.0423 0.08467 0.0847z" fill="none" stroke="#1f1a17" stroke-linecap="round" stroke-linejoin="round" stroke-miterlimit="10" stroke-width=".074676"/>
  <path d="m76.39 167.94-0.04233-0.0423-0.08467-0.0423-0.04233-0.0847-0.12699-0.1269-0.04233-0.0847-0.08466-0.0846-0.04233-0.0847v-0.0423l-0.04233-0.0847v-0.0423l-0.04233-0.0847v-0.0423l-0.04233-0.0847v-0.46567l0.04233-0.0423v-0.0847l0.04233-0.0423v-0.0847l0.04233-0.0423v-0.0847l0.04233-0.0423 0.04233-0.0847 0.08466-0.0846 0.04233-0.0847 0.08466-0.0846 0.08467-0.0423 0.12699-0.1269 0.08467-0.0423 0.04233-0.0423h0.08467l0.04233-0.0423h0.08467l0.04233-0.0423h0.08467l0.04233-0.0423h0.46567l0.08467 0.0423h0.127l0.04233 0.0423 0.08467 0.0423h0.04233l0.08467 0.0423 0.04233 0.0423 0.08467 0.0423 0.08466 0.0846 0.08467 0.0423 0.08466 0.0846 0.04233 0.0847 0.08466 0.0846 0.04233 0.0847v0.0423l0.04233 0.0423 0.04233 0.0847v0.0423l0.04233 0.0847v0.127l0.04233 0.0847v0.29633l-0.04233 0.0847v0.127l-0.04233 0.0847v0.0423l-0.04233 0.0847-0.04233 0.0423v0.0847l-0.04233 0.0423-0.04233 0.0847-0.12699 0.1269-0.04233 0.0847-0.08467 0.0423-0.08466 0.0846-0.08467 0.0423h-0.04233l-0.04233 0.0423-0.08467 0.0423h-0.04233l-0.08467 0.0423h-0.04233l-0.08467 0.0423h-0.16933l-0.08467 0.0423h-0.08467l-0.04233-0.0423h-0.21167l-0.08467-0.0423h-0.04233l-0.08467-0.0423h-0.04233l-0.08467-0.0423-0.04233-0.0423h-0.08467l-0.04233-0.0423" fill="#00923f" fill-rule="evenodd"/>
  <g stroke="#1f1a17" stroke-linecap="round" stroke-linejoin="round" stroke-miterlimit="10" stroke-width=".074676">
   <path d="m76.39 167.94-0.04233-0.0423-0.08467-0.0423-0.04233-0.0847-0.12699-0.1269-0.04233-0.0847-0.08466-0.0846-0.04233-0.0847v-0.0423l-0.04233-0.0847v-0.0423l-0.04233-0.0847v-0.0423l-0.04233-0.0847v-0.46567l0.04233-0.0423v-0.0847l0.04233-0.0423v-0.0847l0.04233-0.0423v-0.0847l0.04233-0.0423 0.04233-0.0847 0.08466-0.0846 0.04233-0.0847 0.08466-0.0846 0.08467-0.0423 0.12699-0.1269 0.08467-0.0423 0.04233-0.0423h0.08467l0.04233-0.0423h0.08467l0.04233-0.0423h0.08467l0.04233-0.0423h0.46567l0.08467 0.0423h0.127l0.04233 0.0423 0.08467 0.0423h0.04233l0.08467 0.0423 0.04233 0.0423 0.08467 0.0423 0.08466 0.0846 0.08467 0.0423 0.08466 0.0846 0.04233 0.0847 0.08466 0.0846 0.04233 0.0847v0.0423l0.04233 0.0423 0.04233 0.0847v0.0423l0.04233 0.0847v0.127l0.04233 0.0847v0.29633l-0.04233 0.0847v0.127l-0.04233 0.0847v0.0423l-0.04233 0.0847-0.04233 0.0423v0.0847l-0.04233 0.0423-0.04233 0.0847-0.12699 0.1269-0.04233 0.0847-0.08467 0.0423-0.08466 0.0846-0.08467 0.0423h-0.04233l-0.04233 0.0423-0.08467 0.0423h-0.04233l-0.08467 0.0423h-0.04233l-0.08467 0.0423h-0.16933l-0.08467 0.0423h-0.08467l-0.04233-0.0423h-0.21167l-0.08467-0.0423h-0.04233l-0.08467-0.0423h-0.04233l-0.08467-0.0423-0.04233-0.0423h-0.08467z" fill="none"/>
   <path d="m73.723 166.07-0.04233-0.0423-0.08467-0.0423-0.04233-0.0847-0.16932-0.1692-0.04233-0.0847-0.04233-0.0423v-0.0847l-0.04233-0.0423-0.04233-0.0847v-0.0423l-0.04233-0.0847v-0.127l-0.04233-0.0423v-0.33866l0.04233-0.0847v-0.127l0.04233-0.0423v-0.0847l0.04233-0.0423 0.04233-0.0847v-0.0423l0.04233-0.0847 0.04233-0.0423 0.04233-0.0847 0.12699-0.1269 0.08467-0.0423 0.08466-0.0846 0.08467-0.0423 0.08466-0.0846h0.08467l0.04233-0.0423h0.08467l0.04233-0.0423h0.08467l0.04233-0.0423h0.46567l0.08467 0.0423h0.127l0.08467 0.0423 0.04233 0.0423h0.08467l0.08466 0.0846 0.08467 0.0423 0.04233 0.0423 0.08467 0.0423 0.12699 0.1269 0.04233 0.0847 0.08466 0.0846 0.04233 0.0847v0.0423l0.04233 0.0423 0.04233 0.0847v0.0423l0.04233 0.0847v0.127l0.04233 0.0847v0.381l-0.04233 0.0847v0.0423l-0.04233 0.0847v0.0423l-0.04233 0.0847v0.0423l-0.04233 0.0847-0.04233 0.0423-0.04233 0.0847-0.12699 0.1269-0.04233 0.0847-0.08467 0.0423-0.12699 0.1269h-0.08467l-0.04233 0.0423-0.08467 0.0423h-0.04233l-0.08467 0.0423h-0.04233l-0.08467 0.0423h-0.16933l-0.08467 0.0423h-0.127l-0.08467-0.0423h-0.127l-0.04233-0.0423h-0.16933l-0.04233-0.0423-0.08467-0.0423-0.04233-0.0423h-0.04233z" fill="none"/>
   <path d="m73.977 185.38 1.524-1.4817v-17.018h-2.921v17.018l1.397 1.4817" fill="#848382" fill-rule="evenodd"/>
   <path d="m67.543 156.59h12.996v-0.889h-12.996z" fill="#848382" fill-rule="evenodd"/>
  </g>
 </g>
</svg>
