<?xml version="1.0" encoding="UTF-8"?>
<!-- Created with Inkscape (http://www.inkscape.org/) -->
<svg width="17.695mm" height="43.9mm" version="1.1" viewBox="0 0 17.695 43.9" xmlns="http://www.w3.org/2000/svg">
 <defs>
  <clipPath id="clipPath159">
   <path transform="translate(.00020833 .00020833)" d="m2177 3883.7h418v-1037h-418z"/>
  </clipPath>
 </defs>
 <g transform="translate(-46.567 -175.15)">
  <path transform="matrix(.042333 0 0 -.042333 -45.593 339.56)" d="m2177 2846.7h418v1037h-418z" clip-path="url(#clipPath159)" fill="#b6b5b4" fill-rule="evenodd"/>
  <path d="m50.419 201.99 0.04233 0.0847v0.29633l0.04233 0.127v0.0847l0.29631 0.5929 0.08467 0.0423 0.04233 0.0847 0.08467 0.0847 0.04233 0.0423 0.08467 0.0423 0.08467 0.0847 0.04233 0.0423 0.59269 0.2961h0.21167l0.08467 0.0423h0.381l0.127-0.0423h0.16933l0.67736-0.3384 0.04233-0.0847 0.16934-0.0846 0.04233-0.0847 0.08467-0.0847 0.04233-0.0423 0.08466-0.1694 0.08467-0.0847 0.04233-0.0847v-0.0847l0.12699-0.2541v-0.127l0.04233-0.0847v-3.7677l-0.04233-0.0847v-0.0847l-0.04233-0.127-0.08466-0.1694v-0.0847l-0.04233-0.0847-0.08467-0.0847-0.04233-0.0847-0.04233-0.0423-0.04233-0.0847-0.08467-0.0847-0.04233-0.0423-0.08467-0.0847-0.08467-0.0423-0.04233-0.0847-0.59269-0.2961h-0.08467l-0.08467-0.0423h-0.08467l-0.127-0.0423h-0.381l-0.08467 0.0423h-0.08467l-0.127 0.0423h-0.08467l-0.50802 0.2538-0.04233 0.0423-0.08467 0.0847-0.08467 0.0423-0.04233 0.0847-0.08467 0.0423-0.04233 0.0847-0.08467 0.0847-0.04233 0.0423-0.25398 0.5082v0.127l-0.04233 0.0847v0.29633l-0.04233 0.0847v3.175" fill="#848382" fill-rule="evenodd"/>
  <path d="m50.419 201.99v0l0.04233 0.0847v0.29633l0.04233 0.127v0.0847l0.29631 0.5929 0.08467 0.0423 0.04233 0.0847 0.08467 0.0847 0.04233 0.0423 0.08467 0.0423 0.08467 0.0847 0.04233 0.0423 0.59269 0.2961h0.21167l0.08467 0.0423h0.381l0.127-0.0423h0.16933l0.67736-0.3384 0.04233-0.0847 0.16934-0.0846 0.04233-0.0847 0.08467-0.0847 0.04233-0.0423 0.08466-0.1694 0.08467-0.0847 0.04233-0.0847v-0.0847l0.12699-0.2541v-0.127l0.04233-0.0847v-3.7677l-0.04233-0.0847v-0.0847l-0.04233-0.127-0.08466-0.1694v-0.0847l-0.04233-0.0847-0.08467-0.0847-0.04233-0.0847-0.04233-0.0423-0.04233-0.0847-0.08467-0.0847-0.04233-0.0423-0.08467-0.0847-0.08467-0.0423-0.04233-0.0847-0.59269-0.2961h-0.08467l-0.08467-0.0423h-0.08467l-0.127-0.0423h-0.381l-0.08467 0.0423h-0.08467l-0.127 0.0423h-0.08467l-0.50802 0.2538-0.04233 0.0423-0.08467 0.0847-0.08467 0.0423-0.04233 0.0847-0.08467 0.0423-0.04233 0.0847-0.08467 0.0847-0.04233 0.0423-0.25398 0.5082v0.127l-0.04233 0.0847v0.29633l-0.04233 0.0847z" fill="none" stroke="#1f1a17" stroke-linecap="round" stroke-linejoin="round" stroke-miterlimit="10" stroke-width=".074676"/>
  <path d="m50.885 202.12v-0.0847l0.04233-0.0847v-0.21167l0.04233-0.0423v-0.0847l0.04233-0.0423 0.04233-0.0847v-0.0423l0.04233-0.0423 0.04233-0.0847 0.12699-0.1269 0.04233-0.0847 0.08466-0.0846 0.08467-0.0423 0.04233-0.0423h0.04233l0.08467-0.0423 0.04233-0.0423 0.08467-0.0423h0.04233l0.08467-0.0423h0.04233l0.08467-0.0423h0.55033l0.08467 0.0423h0.04233l0.08467 0.0423h0.04233l0.08467 0.0423 0.08466 0.0846h0.08467l0.12699 0.1269 0.08467 0.0423 0.04233 0.0847 0.12699 0.1269 0.04233 0.0847v0.0423l0.04233 0.0423 0.04233 0.0847v0.0423l0.04233 0.0847v0.0423l0.04233 0.0847v0.55033l-0.04233 0.0847v0.0423l-0.04233 0.0847v0.0423l-0.04233 0.0847-0.04233 0.0423v0.0847l-0.08466 0.0846-0.04233 0.0847-0.08466 0.0846-0.08467 0.0423-0.12699 0.1269-0.08467 0.0423-0.04233 0.0423h-0.04233l-0.08467 0.0423-0.04233 0.0423h-0.127l-0.08467 0.0423h-0.55033l-0.08467-0.0423h-0.127l-0.04233-0.0423-0.08467-0.0423h-0.04233l-0.08467-0.0423-0.08466-0.0846-0.08467-0.0423-0.16932-0.1692-0.04233-0.0847-0.08466-0.0846-0.04233-0.0847v-0.0423l-0.04233-0.0847-0.04233-0.0423v-0.0847l-0.04233-0.0423v-0.21167l-0.04233-0.0847v-0.0423" fill="#fff500" fill-rule="evenodd"/>
  <g stroke="#1f1a17" stroke-linecap="round" stroke-linejoin="round" stroke-miterlimit="10" stroke-width=".074676">
   <path d="m50.885 202.12v-0.0847l0.04233-0.0847v-0.21167l0.04233-0.0423v-0.0847l0.04233-0.0423 0.04233-0.0847v-0.0423l0.04233-0.0423 0.04233-0.0847 0.12699-0.1269 0.04233-0.0847 0.08466-0.0846 0.08467-0.0423 0.04233-0.0423h0.04233l0.08467-0.0423 0.04233-0.0423 0.08467-0.0423h0.04233l0.08467-0.0423h0.04233l0.08467-0.0423h0.55033l0.08467 0.0423h0.04233l0.08467 0.0423h0.04233l0.08467 0.0423 0.08466 0.0846h0.08467l0.12699 0.1269 0.08467 0.0423 0.04233 0.0847 0.12699 0.1269 0.04233 0.0847v0.0423l0.04233 0.0423 0.04233 0.0847v0.0423l0.04233 0.0847v0.0423l0.04233 0.0847v0.55033l-0.04233 0.0847v0.0423l-0.04233 0.0847v0.0423l-0.04233 0.0847-0.04233 0.0423v0.0847l-0.08466 0.0846-0.04233 0.0847-0.08466 0.0846-0.08467 0.0423-0.12699 0.1269-0.08467 0.0423-0.04233 0.0423h-0.04233l-0.08467 0.0423-0.04233 0.0423h-0.127l-0.08467 0.0423h-0.55033l-0.08467-0.0423h-0.127l-0.04233-0.0423-0.08467-0.0423h-0.04233l-0.08467-0.0423-0.08466-0.0846-0.08467-0.0423-0.16932-0.1692-0.04233-0.0847-0.08466-0.0846-0.04233-0.0847v-0.0423l-0.04233-0.0847-0.04233-0.0423v-0.0847l-0.04233-0.0423v-0.21167l-0.04233-0.0847z" fill="none"/>
   <path d="m50.885 198.86v-0.0847l0.04233-0.0423v-0.21167l0.04233-0.0847v-0.0423l0.04233-0.0847 0.04233-0.0423v-0.0847l0.04233-0.0423 0.04233-0.0847 0.21165-0.2115 0.04233-0.0847h0.08467l0.08466-0.0846 0.08467-0.0423 0.04233-0.0423h0.08467l0.04233-0.0423 0.08467-0.0423h0.127l0.04233-0.0423h0.42333l0.08467 0.0423h0.127l0.08467 0.0423 0.04233 0.0423h0.08467l0.08466 0.0846 0.08467 0.0423 0.04233 0.0423h0.04233l0.04233 0.0847 0.08467 0.0423 0.16932 0.1692 0.04233 0.0847v0.0423l0.04233 0.0847 0.04233 0.0423v0.0847l0.04233 0.0423v0.0847l0.04233 0.0423v0.59266l-0.04233 0.0423v0.0847l-0.04233 0.0423v0.0847l-0.04233 0.0423-0.04233 0.0847v0.0423l-0.04233 0.0423-0.04233 0.0847-0.12699 0.1269-0.08467 0.0423-0.12699 0.1269-0.08467 0.0423-0.08466 0.0846h-0.08467l-0.04233 0.0423h-0.08467l-0.04233 0.0423h-0.16933l-0.04233 0.0423h-0.29633l-0.08467-0.0423h-0.127l-0.04233-0.0423h-0.08467l-0.04233-0.0423h-0.08467l-0.04233-0.0423-0.08467-0.0423-0.08466-0.0846-0.08467-0.0423-0.21165-0.2115-0.04233-0.0847-0.08466-0.0846v-0.0847l-0.04233-0.0423-0.04233-0.0847v-0.0423l-0.04233-0.0847v-0.21167l-0.04233-0.0423z" fill="none"/>
   <path d="m56.684 194.8v0.16933l0.04233 0.127v0.0847l0.04233 0.0847v0.0847l0.04233 0.0847 0.04233 0.127 0.12699 0.2541 0.04233 0.0423 0.08466 0.1694 0.08467 0.0847 0.04233 0.0423 0.08467 0.0847 0.08467 0.0423 0.04233 0.0423 0.08467 0.0847 0.50802 0.2538h0.08467l0.08467 0.0423h0.21167l0.08467 0.0423h0.21167l0.08467-0.0423h0.16933l0.127-0.0423h0.08467l0.50802-0.2538 0.04233-0.0847 0.16934-0.0846 0.04233-0.0847 0.08467-0.0423 0.04233-0.0847 0.08467-0.0847 0.04233-0.0847 0.04233-0.0423 0.12699-0.2541 0.04233-0.127 0.04233-0.0847v-0.0847l0.04233-0.0847v-0.21167l0.04233-0.0847v-3.3867l-0.04233-0.0847v-0.21166l-0.04233-0.0847v-0.0847l-0.29631-0.5929-0.08467-0.0847-0.04233-0.0423-0.08467-0.0847-0.04233-0.0423-0.08467-0.0847-0.08467-0.0423-0.04233-0.0423-0.08467-0.0847-0.25401-0.1269h-0.08467l-0.16934-0.0846h-0.127l-0.08467-0.0423h-0.59267l-0.08467 0.0423h-0.08467l-0.16934 0.0846h-0.08467l-0.25401 0.1269-0.08467 0.0847-0.08467 0.0423-0.04233 0.0423-0.08467 0.0847-0.08467 0.0423-0.04233 0.0847-0.08467 0.0423-0.33864 0.6776v0.0847l-0.04233 0.0847v0.127l-0.04233 0.0847v3.3867" fill="#848382" fill-rule="evenodd"/>
   <path d="m57.15 194.88v-0.21167l0.04233-0.0423v-0.0847l0.04233-0.0423v-0.0847l0.04233-0.0847v-0.0423l0.04233-0.0423 0.04233-0.0847 0.08466-0.0846 0.04233-0.0847 0.21165-0.2115 0.08467-0.0423 0.08466-0.0846h0.08467l0.04233-0.0423 0.08467-0.0423h0.04233l0.08467-0.0423h0.21167l0.04233-0.0423h0.16933l0.04233 0.0423h0.21167l0.08467 0.0423h0.04233l0.08467 0.0423 0.04233 0.0423h0.08467l0.08466 0.0846 0.08467 0.0423 0.21165 0.2115 0.04233 0.0847 0.08466 0.0846 0.04233 0.0847 0.04233 0.0423v0.0423l0.04233 0.0847v0.0847l0.04233 0.0423v0.127l0.04233 0.0847v0.29633l-0.04233 0.0423v0.127l-0.04233 0.0847v0.0847l-0.04233 0.0423v0.0847l-0.08466 0.0846-0.04233 0.0847-0.12699 0.1269-0.04233 0.0847-0.12699 0.1269-0.08467 0.0423h-0.04233l-0.04233 0.0423-0.08467 0.0423-0.04233 0.0423h-0.08467l-0.04233 0.0423h-0.08467l-0.04233 0.0423h-0.59267l-0.04233-0.0423h-0.08467l-0.04233-0.0423h-0.08467l-0.04233-0.0423-0.08467-0.0423-0.04233-0.0423h-0.04233l-0.08467-0.0423-0.12699-0.1269-0.04233-0.0847-0.12699-0.1269-0.04233-0.0847-0.08466-0.0846v-0.0847l-0.04233-0.0423v-0.0847l-0.04233-0.0847v-0.0423l-0.04233-0.0847z" fill="none"/>
  </g>
  <path d="m57.15 191.66v-0.21167l0.04233-0.0847v-0.0847l0.04233-0.0423v-0.0847l0.04233-0.0423v-0.0847l0.04233-0.0423 0.04233-0.0847 0.12699-0.1269 0.04233-0.0847 0.16932-0.1692 0.08467-0.0423 0.04233-0.0423h0.04233l0.08467-0.0423 0.04233-0.0423h0.08467l0.04233-0.0423h0.08467l0.04233-0.0423h0.59267l0.04233 0.0423h0.08467l0.04233 0.0423h0.08467l0.04233 0.0423 0.08467 0.0423h0.04233l0.04233 0.0423 0.08467 0.0423 0.16932 0.1692 0.04233 0.0847 0.12699 0.1269 0.04233 0.0847 0.04233 0.0423v0.0847l0.04233 0.0423v0.0847l0.04233 0.0423v0.16933l0.04233 0.0423v0.29633l-0.04233 0.0847v0.127l-0.04233 0.0423v0.0847l-0.04233 0.0423v0.0847l-0.04233 0.0423-0.04233 0.0847-0.12699 0.1269-0.04233 0.0847-0.16932 0.1692-0.08467 0.0423-0.04233 0.0423h-0.04233l-0.08467 0.0423-0.04233 0.0423h-0.08467l-0.04233 0.0423h-0.08467l-0.04233 0.0423h-0.59267l-0.04233-0.0423h-0.08467l-0.04233-0.0423h-0.08467l-0.04233-0.0423-0.08467-0.0423h-0.04233l-0.04233-0.0423-0.08467-0.0423-0.16932-0.1692-0.04233-0.0847-0.12699-0.1269-0.04233-0.0847-0.04233-0.0423v-0.0847l-0.04233-0.0423v-0.0847l-0.04233-0.0423v-0.0847l-0.04233-0.0423v-0.21167" fill="#fff500" fill-rule="evenodd"/>
  <path d="m57.15 191.66v-0.21167l0.04233-0.0847v-0.0847l0.04233-0.0423v-0.0847l0.04233-0.0423v-0.0847l0.04233-0.0423 0.04233-0.0847 0.12699-0.1269 0.04233-0.0847 0.16932-0.1692 0.08467-0.0423 0.04233-0.0423h0.04233l0.08467-0.0423 0.04233-0.0423h0.08467l0.04233-0.0423h0.08467l0.04233-0.0423h0.59267l0.04233 0.0423h0.08467l0.04233 0.0423h0.08467l0.04233 0.0423 0.08467 0.0423h0.04233l0.04233 0.0423 0.08467 0.0423 0.16932 0.1692 0.04233 0.0847 0.12699 0.1269 0.04233 0.0847 0.04233 0.0423v0.0847l0.04233 0.0423v0.0847l0.04233 0.0423v0.16933l0.04233 0.0423v0.29633l-0.04233 0.0847v0.127l-0.04233 0.0423v0.0847l-0.04233 0.0423v0.0847l-0.04233 0.0423-0.04233 0.0847-0.12699 0.1269-0.04233 0.0847-0.16932 0.1692-0.08467 0.0423-0.04233 0.0423h-0.04233l-0.08467 0.0423-0.04233 0.0423h-0.08467l-0.04233 0.0423h-0.08467l-0.04233 0.0423h-0.59267l-0.04233-0.0423h-0.08467l-0.04233-0.0423h-0.08467l-0.04233-0.0423-0.08467-0.0423h-0.04233l-0.04233-0.0423-0.08467-0.0423-0.16932-0.1692-0.04233-0.0847-0.12699-0.1269-0.04233-0.0847-0.04233-0.0423v-0.0847l-0.04233-0.0423v-0.0847l-0.04233-0.0423v-0.0847l-0.04233-0.0423z" fill="none" stroke="#1f1a17" stroke-linecap="round" stroke-linejoin="round" stroke-miterlimit="10" stroke-width=".074676"/>
  <path d="m54.695 216.85h1.4393v-27.474h-1.4393z" fill="#848382" fill-rule="evenodd" stroke="#1f1a17" stroke-linecap="round" stroke-linejoin="round" stroke-miterlimit="10" stroke-width=".098679"/>
  <path d="m55.414 177.1 0.33867 0.0423h0.33867l0.29633 0.0423 0.33867 0.0423 0.59267 0.1694 0.33867 0.127 0.254 0.0847 0.29633 0.127 0.29633 0.16933 0.254 0.127 0.254 0.16934 0.29633 0.21166 0.21167 0.16934 0.254 0.21166 0.42333 0.42334 0.42333 0.508 0.33867 0.508 0.127 0.254 0.16933 0.29633 0.127 0.29633 0.127 0.29634 0.16934 0.59266 0.08467 0.29634 0.04233 0.33866 0.04233 0.33867 0.04233 0.29633v0.67734l-0.04233 0.33866-0.04233 0.33867-0.04233 0.29633-0.08467 0.33867-0.08467 0.29633-0.08467 0.29634-0.254 0.59266-0.16933 0.254-0.127 0.29634-0.33867 0.508-0.21167 0.254-0.21167 0.21166-0.21167 0.21167-0.21167 0.254-0.254 0.16933-0.21167 0.21167-0.29633 0.16933-0.254 0.16934-0.254 0.16933-0.59267 0.254-0.254 0.127-0.33867 0.0847-0.59267 0.1694-0.33867 0.0423-0.29633 0.0423-0.33867 0.0423h-0.67733l-0.33867-0.0423-0.29633-0.0423-0.33867-0.0423-0.29633-0.0847-0.33867-0.0847-0.29633-0.0847-0.29633-0.127-0.254-0.127-0.29633-0.127-0.254-0.16933-0.29633-0.16934-0.254-0.16933-0.21167-0.21167-0.254-0.16933-0.21167-0.254-0.21167-0.21167-0.21167-0.21166-0.21167-0.254-0.33867-0.508-0.16933-0.29634-0.127-0.254-0.254-0.59266-0.08467-0.29634-0.08467-0.29633-0.08467-0.33867-0.04233-0.29633-0.04233-0.33867-0.04233-0.33866v-0.67734l0.04233-0.29633 0.04233-0.33867 0.04233-0.33866 0.08467-0.29634 0.16934-0.59266 0.127-0.29634 0.254-0.59266 0.508-0.762 0.42333-0.508 0.42333-0.42334 0.254-0.21166 0.21167-0.16934 0.254-0.21166 0.29633-0.16934 0.254-0.127 0.29633-0.16933 0.254-0.127 0.29633-0.0847 0.29633-0.127 0.33867-0.0847 0.29633-0.0847 0.33867-0.0423 0.29633-0.0423h0.33867l0.33867-0.0423" fill="#848382" fill-rule="evenodd"/>
  <path d="m55.414 177.1 0.33867 0.0423h0.33867l0.29633 0.0423 0.33867 0.0423 0.59267 0.1694 0.33867 0.127 0.254 0.0847 0.29633 0.127 0.29633 0.16933 0.254 0.127 0.254 0.16934 0.29633 0.21166 0.21167 0.16934 0.254 0.21166 0.42333 0.42334 0.42333 0.508 0.33867 0.508 0.127 0.254 0.16933 0.29633 0.127 0.29633 0.127 0.29634 0.16934 0.59266 0.08467 0.29634 0.04233 0.33866 0.04233 0.33867 0.04233 0.29633v0.67734l-0.04233 0.33866-0.04233 0.33867-0.04233 0.29633-0.08467 0.33867-0.08467 0.29633-0.08467 0.29634-0.254 0.59266-0.16933 0.254-0.127 0.29634-0.33867 0.508-0.21167 0.254-0.21167 0.21166-0.21167 0.21167-0.21167 0.254-0.254 0.16933-0.21167 0.21167-0.29633 0.16933-0.254 0.16934-0.254 0.16933-0.59267 0.254-0.254 0.127-0.33867 0.0847-0.59267 0.1694-0.33867 0.0423-0.29633 0.0423-0.33867 0.0423h-0.67733l-0.33867-0.0423-0.29633-0.0423-0.33867-0.0423-0.29633-0.0847-0.33867-0.0847-0.29633-0.0847-0.29633-0.127-0.254-0.127-0.29633-0.127-0.254-0.16933-0.29633-0.16934-0.254-0.16933-0.21167-0.21167-0.254-0.16933-0.21167-0.254-0.21167-0.21167-0.21167-0.21166-0.21167-0.254-0.33867-0.508-0.16933-0.29634-0.127-0.254-0.254-0.59266-0.08467-0.29634-0.08467-0.29633-0.08467-0.33867-0.04233-0.29633-0.04233-0.33867-0.04233-0.33866v-0.67734l0.04233-0.29633 0.04233-0.33867 0.04233-0.33866 0.08467-0.29634 0.16934-0.59266 0.127-0.29634 0.254-0.59266 0.508-0.762 0.42333-0.508 0.42333-0.42334 0.254-0.21166 0.21167-0.16934 0.254-0.21166 0.29633-0.16934 0.254-0.127 0.29633-0.16933 0.254-0.127 0.29633-0.0847 0.29633-0.127 0.33867-0.0847 0.29633-0.0847 0.33867-0.0423 0.29633-0.0423h0.33867z" fill="none" stroke="#1f1a17" stroke-linecap="round" stroke-linejoin="round" stroke-miterlimit="10" stroke-width=".074676"/>
  <path d="m55.372 210.29 1.524-1.524v-17.018h-2.9633l0.04233 17.018 1.397 1.524" fill="#848382" fill-rule="evenodd" stroke="#1f1a17" stroke-linecap="round" stroke-linejoin="round" stroke-miterlimit="10" stroke-width=".074676"/>
 </g>
</svg>
