<?xml version="1.0" encoding="UTF-8"?>
<!-- Created with Inkscape (http://www.inkscape.org/) -->
<svg width="45.233mm" height="27.157mm" version="1.1" viewBox="0 0 45.233 27.157" xmlns="http://www.w3.org/2000/svg">
 <g transform="translate(-90.752 -167.48)">
  <g>
   <path d="m93.387 169.99-0.1905-0.16933-0.23283-0.10584c-0.65652-0.34431-1.6044 0.16863-1.6933 0.889v0.254l0.02117 0.21167c0.08326 0.61666 0.70026 0.91193 1.0372 1.3758l0.14817 0.127 0.1905 0.1905 1.7357-1.7145-1.016-1.0583" fill="#7e7e7e" fill-rule="evenodd" stroke="#000" stroke-miterlimit="10" stroke-width=".021167"/>
   <path d="m92.033 170.39 0.127-0.10583 0.127-0.0423 0.14817-0.0423h0.14817l0.14817 0.0212 0.127 0.0212 0.254 0.16934 0.10583 0.10583c0.07267 0.23707 0.18344 0.44521 0.02117 0.67733l-0.04233 0.16934-0.10583 0.0847-0.10583 0.10584c-0.59443 0.38205-1.3296-0.17251-1.1218-0.91017l0.0635-0.127 0.10583-0.127" fill="#fff" fill-rule="evenodd" stroke="#000" stroke-miterlimit="10" stroke-width=".021167"/>
   <path d="m95.927 194.33h1.397v-17.039h-1.397z" fill="#7e7e7e"/>
  </g>
  <path d="m97.324 177.29v17.039h-1.397v-17.039h1.397" fill="none" stroke="#000" stroke-miterlimit="10" stroke-width=".021167"/>
  <g>
   <g fill-rule="evenodd" stroke="#000" stroke-miterlimit="10" stroke-width=".021167">
    <path d="m95.779 179.41h-3.0692l-1.9473-1.9473v-3.0268l6.985-6.9427h3.048l1.9473 1.9473v3.0057l-6.9638 6.9638" fill="#7e7e7e"/>
    <path d="m92.689 174.96 0.23283 0.0423 0.1905 0.0423c1.0199 0.52422 0.87312 1.8256-0.1905 2.1167l-0.23283 0.0423-0.23283-0.0423c-1.0788-0.31326-1.1942-1.5617-0.21167-2.1167l0.21167-0.0423 0.23283-0.0423" fill="#ffff00"/>
    <path d="m96.287 174.96 0.23283 0.0423 0.21167 0.0423c0.95885 0.59055 0.85231 1.7709-0.21167 2.1167l-0.23283 0.0423-0.23283-0.0423c-1.0534-0.2861-1.2033-1.5924-0.1905-2.1167l0.1905-0.0423 0.23283-0.0423" fill="#7e7e7e"/>
    <path d="m97.049 169.78 0.23283 0.0423 0.21167 0.0423c0.99413 0.56127 0.87383 1.7985-0.21167 2.1167l-0.23283 0.0423-0.23283-0.0423c-1.0456-0.33196-1.1564-1.5942-0.16933-2.1167l0.16933-0.0423 0.23283-0.0423" fill="#ffff00"/>
    <path d="m100.67 169.78 0.42333 0.0847c1.0202 0.52916 0.86501 1.8486-0.21166 2.1167l-0.21167 0.0423-0.23283-0.0423c-1.0559-0.25858-1.2181-1.5861-0.21167-2.1167l0.21167-0.0423 0.23283-0.0423" fill="#7e7e7e"/>
    <path d="m109.75 170.24-0.1905-0.16933-0.23283-0.10584c-0.69074-0.34466-1.5603 0.16052-1.7145 0.889v0.254l0.0212 0.21167c0.15558 0.65722 0.66181 0.87171 1.0583 1.3758l0.14816 0.127 0.16934 0.1905 1.7568-1.7145-1.016-1.0583" fill="#7e7e7e"/>
    <path d="m108.37 170.65 0.127-0.10583 0.127-0.0423 0.14817-0.0423h0.16933l0.14817 0.0212 0.127 0.0212 0.254 0.16934 0.10583 0.10583c0.0716 0.2921 0.15804 0.38806 0.0212 0.67733l-0.0423 0.16934-0.10583 0.0847-0.10583 0.10584c-0.61807 0.39334-1.3473-0.21167-1.1218-0.91017l0.0635-0.127 0.0847-0.127" fill="#fff"/>
   </g>
   <path d="m112.29 194.59h1.397v-17.039h-1.397z" fill="#7e7e7e"/>
  </g>
  <g stroke="#000" stroke-miterlimit="10" stroke-width=".021167">
   <path d="m113.69 177.55v17.039h-1.397v-17.039h1.397" fill="none"/>
   <path d="m112.14 179.66h-3.0692l-1.9685-1.9473v-3.0268l6.985-6.9427h3.048l1.9685 1.9473v3.0057l-6.9638 6.9638" fill="#7e7e7e" fill-rule="evenodd"/>
   <path d="m109.03 175.22 0.23283 0.0423 0.21167 0.0423c1.0202 0.52916 0.86501 1.8486-0.21167 2.1167l-0.23283 0.0423-0.21167-0.0423c-1.0661-0.26282-1.2252-1.5871-0.21166-2.1167l0.42333-0.0847" fill="none"/>
   <path d="m112.65 175.22 0.23283 0.0423 0.1905 0.0423 0.14817 0.127 0.1905 0.127 0.127 0.16933 0.127 0.1905 0.0423 0.1905 0.0212 0.23283-0.0212 0.23284c-0.0374 0.36265-0.34748 0.60642-0.635 0.78316l-0.1905 0.0635-0.23283 0.0423-0.23283-0.0423c-1.0788-0.31326-1.1942-1.5614-0.21167-2.1167l0.21167-0.0423 0.23283-0.0423" fill="#7e7e7e" fill-rule="evenodd"/>
   <path d="m113.41 170.03 0.23283 0.0423 0.1905 0.0423c1.0199 0.52422 0.87313 1.8256-0.1905 2.1167l-0.23283 0.0423-0.23283-0.0423c-1.0682-0.34184-1.1673-1.5977-0.16934-2.1167l0.16934-0.0423 0.23283-0.0423" fill="none"/>
  </g>
  <g>
   <g fill-rule="evenodd">
    <path d="m117.01 170.03 0.23283 0.0423 0.21167 0.0423c0.99413 0.56127 0.87383 1.7988-0.21167 2.1167l-0.23283 0.0423-0.23283-0.0423c-1.0534-0.2861-1.2033-1.5924-0.1905-2.1167l0.1905-0.0423 0.23283-0.0423" fill="#7e7e7e" stroke="#000" stroke-miterlimit="10" stroke-width=".021167"/>
    <path d="m112.59 175.22 0.23283 0.0423 0.21167 0.0423c1.0202 0.52916 0.86501 1.8486-0.21167 2.1167l-0.23283 0.0423-0.21167-0.0423c-1.0661-0.26282-1.2252-1.5871-0.21166-2.1167l0.42333-0.0847" fill="#00923f"/>
    <path d="m117.07 170.03 0.42333 0.0847c1.0202 0.52916 0.86501 1.8486-0.21166 2.1167l-0.21167 0.0423-0.23283-0.0423c-1.0629-0.34572-1.1652-1.5596-0.1905-2.1167l0.1905-0.0423 0.23283-0.0423" fill="#00923f"/>
    <path d="m126.64 170.29-0.21167-0.16933-0.21166-0.10584c-0.75248-0.29809-1.5078 0.12206-1.7145 0.889v0.254l0.0212 0.23284c0.14923 0.63711 0.68157 0.86712 1.0372 1.3547l0.16933 0.127 0.16934 0.21167 1.7568-1.7145-1.016-1.0795" fill="#7e7e7e" stroke="#000" stroke-miterlimit="10" stroke-width=".021167"/>
    <path d="m125.26 170.69 0.127-0.0847 0.127-0.0635c0.73695-0.21096 1.2954 0.38629 0.91017 1.1218l-0.0847 0.10583-0.10583 0.0847-0.127 0.0847-0.14817 0.0212-0.127 0.0212-0.16933-0.0212-0.127-0.0423-0.14817-0.0635-0.10583-0.0847-0.0847-0.10583-0.0635-0.14817-0.0423-0.127-0.0212-0.14817 0.0212-0.127 0.0212-0.16933 0.0423-0.127 0.10583-0.127" fill="#fff" stroke="#000" stroke-miterlimit="10" stroke-width=".021167"/>
   </g>
   <path d="m129.18 194.63h1.397v-17.018h-1.397z" fill="#7e7e7e"/>
  </g>
  <path d="m130.58 177.61v17.018h-1.397v-17.018h1.397" fill="none" stroke="#000" stroke-miterlimit="10" stroke-width=".021167"/>
  <g fill-rule="evenodd" stroke="#000" stroke-miterlimit="10" stroke-width=".021167">
   <path d="m129.03 179.7h-3.0692l-1.9685-1.9473v-3.0057l6.985-6.9638h3.048l1.9473 1.9473v3.0057l-6.9427 6.9638" fill="#7e7e7e"/>
   <path d="m125.92 175.28 0.23283 0.0212 0.21167 0.0423c0.99801 0.5842 0.88547 1.7653-0.21167 2.1378l-0.23283 0.0212-0.21167-0.0212c-1.0911-0.30974-1.1998-1.6192-0.21166-2.1378l0.21166-0.0423 0.21167-0.0212" fill="#ffff00"/>
   <path d="m129.54 175.28 0.23283 0.0212 0.1905 0.0423c0.95921 0.58526 0.87489 1.7328-0.1905 2.1378l-0.23283 0.0212-0.23283-0.0212c-1.0862-0.38488-1.1956-1.5349-0.21167-2.1378l0.21167-0.0423 0.23283-0.0212" fill="#7e7e7e"/>
  </g>
  <path d="m130.3 170.1 0.21167 0.0212 0.21166 0.0423c0.98637 0.51929 0.90347 1.8087-0.21166 2.1378l-0.21167 0.0212-0.23283-0.0212c-1.0717-0.40992-1.1709-1.5723-0.16934-2.1378l0.16934-0.0423 0.23283-0.0212" fill="none" stroke="#000" stroke-miterlimit="10" stroke-width=".021167"/>
  <path d="m133.9 170.1 0.23283 0.0212 0.1905 0.0423c1.0164 0.5715 0.91193 1.7466-0.1905 2.1378l-0.23283 0.0212-0.23283-0.0212c-1.0915-0.38311-1.1987-1.5713-0.1905-2.1378l0.1905-0.0423 0.23283-0.0212" fill="#7e7e7e" fill-rule="evenodd" stroke="#000" stroke-miterlimit="10" stroke-width=".021167"/>
  <path d="m133.88 170.1 0.23283 0.0212 0.1905 0.0423c0.99096 0.5394 0.91088 1.7639-0.1905 2.1378l-0.23283 0.0212-0.23283-0.0212c-1.0717-0.40992-1.1709-1.5723-0.16934-2.1378l0.16934-0.0423 0.23283-0.0212" fill="#00923f" fill-rule="evenodd"/>
 </g>
</svg>
