<?xml version="1.0" encoding="UTF-8"?>
<!-- Created with Inkscape (http://www.inkscape.org/) -->
<svg width="11.927mm" height="33.106mm" version="1.1" viewBox="0 0 11.927 33.106" xmlns="http://www.w3.org/2000/svg">
 <g transform="translate(-67.998 -165.63)">
  <g fill-rule="evenodd">
   <path d="m73.157 198.69h1.397v-23.114h-1.397z" fill="#848382" stroke="#1f1a17" stroke-linecap="round" stroke-linejoin="round" stroke-miterlimit="10" stroke-width=".097494"/>
   <path d="m72.988 177.65h-4.953v-7.0273l6.9003-4.953h4.953v6.9427l-6.9003 5.0377" fill="#848382" stroke="#1f1a17" stroke-linecap="round" stroke-linejoin="round" stroke-miterlimit="10" stroke-width=".073618"/>
   <path d="m70.363 174.26h0.16933l0.04233 0.0423h0.08467l0.08467 0.0423h0.04233l0.04233 0.0423h0.04233l0.08466 0.0846h0.04233l0.25398 0.2538v0.0423l0.08466 0.0846v0.0423l0.04233 0.0423v0.0423l0.04233 0.0847v0.127l0.04233 0.0847v0.21167l-0.04233 0.0423v0.16933l-0.04233 0.0847v0.0423l-0.04233 0.0423v0.0423l-0.08466 0.0846v0.0423l-0.25398 0.2538h-0.04233l-0.08466 0.0846h-0.04233l-0.04233 0.0423h-0.04233l-0.08467 0.0423h-0.08467l-0.04233 0.0423h-0.33867l-0.08467-0.0423h-0.08467l-0.04233-0.0423h-0.04233l-0.08467-0.0423h-0.04233l-0.08466-0.0846h-0.04233l-0.16932-0.1692v-0.0423l-0.12699-0.1269v-0.0423l-0.04233-0.0423v-0.0423l-0.04233-0.0423v-0.127l-0.04233-0.0423v-0.46567l0.04233-0.0423v-0.127l0.04233-0.0423v-0.0423l0.04233-0.0423v-0.0423l0.12699-0.1269v-0.0423l0.16932-0.1692h0.04233l0.08466-0.0846h0.04233l0.08467-0.0423h0.04233l0.04233-0.0423h0.08467l0.08467-0.0423h0.16933" fill="#00923f"/>
  </g>
  <path d="m70.363 174.26h0.16933l0.04233 0.0423h0.08467l0.08467 0.0423h0.04233l0.04233 0.0423h0.04233l0.08466 0.0846h0.04233l0.25398 0.2538v0.0423l0.08466 0.0846v0.0423l0.04233 0.0423v0.0423l0.04233 0.0847v0.127l0.04233 0.0847v0.21167l-0.04233 0.0423v0.16933l-0.04233 0.0847v0.0423l-0.04233 0.0423v0.0423l-0.08466 0.0846v0.0423l-0.25398 0.2538h-0.04233l-0.08466 0.0846h-0.04233l-0.04233 0.0423h-0.04233l-0.08467 0.0423h-0.08467l-0.04233 0.0423h-0.33867l-0.08467-0.0423h-0.08467l-0.04233-0.0423h-0.04233l-0.08467-0.0423h-0.04233l-0.08466-0.0846h-0.04233l-0.16932-0.1692v-0.0423l-0.12699-0.1269v-0.0423l-0.04233-0.0423v-0.0423l-0.04233-0.0423v-0.127l-0.04233-0.0423v-0.46567l0.04233-0.0423v-0.127l0.04233-0.0423v-0.0423l0.04233-0.0423v-0.0423l0.12699-0.1269v-0.0423l0.16932-0.1692h0.04233l0.08466-0.0846h0.04233l0.08467-0.0423h0.04233l0.04233-0.0423h0.08467l0.08467-0.0423z" fill="none" stroke="#1f1a17" stroke-linecap="round" stroke-linejoin="round" stroke-miterlimit="10" stroke-width=".073618"/>
  <path d="m70.363 170.66h0.21167l0.04233 0.0423h0.04233l0.08467 0.0423h0.04233l0.04233 0.0423h0.04233l0.04233 0.0423h0.04233l0.29631 0.2961v0.0423l0.08466 0.0846v0.0423l0.04233 0.0423v0.0423l0.04233 0.0423v0.16933l0.04233 0.0847v0.21167l-0.04233 0.0423v0.16933l-0.04233 0.0423v0.0847l-0.04233 0.0423v0.0423l-0.08466 0.0846v0.0423l-0.25398 0.2538h-0.04233l-0.08466 0.0846h-0.04233l-0.04233 0.0423h-0.04233l-0.08467 0.0423h-0.127l-0.08467 0.0423h-0.21167l-0.04233-0.0423h-0.16933l-0.04233-0.0423h-0.04233l-0.08467-0.0423h-0.04233l-0.08466-0.0846h-0.04233l-0.16932-0.1692v-0.0423l-0.12699-0.1269v-0.0423l-0.04233-0.0423v-0.0423l-0.04233-0.0847v-0.0847l-0.04233-0.0423v-0.46567l0.04233-0.0423v-0.127l0.04233-0.0423v-0.0423l0.04233-0.0423v-0.0423l0.12699-0.1269v-0.0423l0.21165-0.2115h0.04233l0.04233-0.0423h0.04233l0.08467-0.0423h0.04233l0.04233-0.0423h0.04233l0.04233-0.0423h0.254" fill="#848382" fill-rule="evenodd"/>
  <path d="m70.363 170.66h0.21167l0.04233 0.0423h0.04233l0.08467 0.0423h0.04233l0.04233 0.0423h0.04233l0.04233 0.0423h0.04233l0.29631 0.2961v0.0423l0.08466 0.0846v0.0423l0.04233 0.0423v0.0423l0.04233 0.0423v0.16933l0.04233 0.0847v0.21167l-0.04233 0.0423v0.16933l-0.04233 0.0423v0.0847l-0.04233 0.0423v0.0423l-0.08466 0.0846v0.0423l-0.25398 0.2538h-0.04233l-0.08466 0.0846h-0.04233l-0.04233 0.0423h-0.04233l-0.08467 0.0423h-0.127l-0.08467 0.0423h-0.21167l-0.04233-0.0423h-0.16933l-0.04233-0.0423h-0.04233l-0.08467-0.0423h-0.04233l-0.08466-0.0846h-0.04233l-0.16932-0.1692v-0.0423l-0.12699-0.1269v-0.0423l-0.04233-0.0423v-0.0423l-0.04233-0.0847v-0.0847l-0.04233-0.0423v-0.46567l0.04233-0.0423v-0.127l0.04233-0.0423v-0.0423l0.04233-0.0423v-0.0423l0.12699-0.1269v-0.0423l0.21165-0.2115h0.04233l0.04233-0.0423h0.04233l0.08467-0.0423h0.04233l0.04233-0.0423h0.04233l0.04233-0.0423z" fill="none" stroke="#1f1a17" stroke-linecap="round" stroke-linejoin="round" stroke-miterlimit="10" stroke-width=".073618"/>
  <path d="m77.136 170.45h0.254l0.04233 0.0423h0.08467l0.04233 0.0423h0.04233l0.04233 0.0423h0.04233l0.12699 0.1269h0.04233l0.12699 0.1269v0.0423l0.12699 0.1269v0.0847l0.04233 0.0423v0.0423l0.04233 0.0423v0.16933l0.04233 0.0423v0.254l-0.04233 0.0423v0.16933l-0.04233 0.0423v0.0423l-0.04233 0.0423v0.0847l-0.12699 0.1269v0.0423l-0.08466 0.0846h-0.04233l-0.16932 0.1692h-0.04233l-0.04233 0.0423h-0.04233l-0.04233 0.0423h-0.127l-0.04233 0.0423h-0.46567l-0.04233-0.0423h-0.08467l-0.04233-0.0423h-0.08467l-0.04233-0.0423h-0.04233l-0.16932-0.1692h-0.04233l-0.04233-0.0423v-0.0423l-0.12699-0.1269v-0.0423l-0.04233-0.0847v-0.0423l-0.04233-0.0423v-0.0847l-0.04233-0.0847v-0.42333l0.04233-0.0847v-0.0847l0.04233-0.0423v-0.0423l0.04233-0.0847v-0.0423l0.12699-0.1269v-0.0423l0.08466-0.0846h0.04233l0.12699-0.1269h0.04233l0.04233-0.0423h0.08467l0.04233-0.0423h0.04233l0.04233-0.0423z" fill="none" stroke="#1f1a17" stroke-linecap="round" stroke-linejoin="round" stroke-miterlimit="10" stroke-width=".073618"/>
  <path d="m77.136 166.72h0.16933l0.04233 0.0423h0.08467l0.08467 0.0423h0.04233l0.04233 0.0423h0.04233l0.08466 0.0846h0.04233l0.21165 0.2115v0.0423l0.12699 0.1269v0.0423l0.04233 0.0423v0.0423l0.04233 0.0847v0.127l0.04233 0.0847v0.21167l-0.04233 0.0423v0.16933l-0.04233 0.0423v0.0847l-0.04233 0.0423v0.0423l-0.12699 0.1269v0.0423l-0.21165 0.2115h-0.04233l-0.08466 0.0846h-0.04233l-0.04233 0.0423h-0.04233l-0.08467 0.0423h-0.127l-0.08467 0.0423h-0.21167l-0.04233-0.0423h-0.16933l-0.04233-0.0423h-0.04233l-0.08467-0.0423h-0.04233l-0.08466-0.0846h-0.04233l-0.16932-0.1692v-0.0423l-0.12699-0.1269v-0.0423l-0.04233-0.0423v-0.0423l-0.04233-0.0847v-0.0847l-0.04233-0.0423v-0.46567l0.04233-0.0423v-0.127l0.04233-0.0423v-0.0423l0.04233-0.0423v-0.0423l0.12699-0.1269v-0.0423l0.16932-0.1692h0.04233l0.08466-0.0846h0.04233l0.08467-0.0423h0.04233l0.04233-0.0423h0.08467l0.08467-0.0423h0.16933" fill="#848382" fill-rule="evenodd"/>
  <path d="m77.136 166.72h0.16933l0.04233 0.0423h0.08467l0.08467 0.0423h0.04233l0.04233 0.0423h0.04233l0.08466 0.0846h0.04233l0.21165 0.2115v0.0423l0.12699 0.1269v0.0423l0.04233 0.0423v0.0423l0.04233 0.0847v0.127l0.04233 0.0847v0.21167l-0.04233 0.0423v0.16933l-0.04233 0.0423v0.0847l-0.04233 0.0423v0.0423l-0.12699 0.1269v0.0423l-0.21165 0.2115h-0.04233l-0.08466 0.0846h-0.04233l-0.04233 0.0423h-0.04233l-0.08467 0.0423h-0.127l-0.08467 0.0423h-0.21167l-0.04233-0.0423h-0.16933l-0.04233-0.0423h-0.04233l-0.08467-0.0423h-0.04233l-0.08466-0.0846h-0.04233l-0.16932-0.1692v-0.0423l-0.12699-0.1269v-0.0423l-0.04233-0.0423v-0.0423l-0.04233-0.0847v-0.0847l-0.04233-0.0423v-0.46567l0.04233-0.0423v-0.127l0.04233-0.0423v-0.0423l0.04233-0.0423v-0.0423l0.12699-0.1269v-0.0423l0.16932-0.1692h0.04233l0.08466-0.0846h0.04233l0.08467-0.0423h0.04233l0.04233-0.0423h0.08467l0.08467-0.0423z" fill="none" stroke="#1f1a17" stroke-linecap="round" stroke-linejoin="round" stroke-miterlimit="10" stroke-width=".073618"/>
 </g>
</svg>
