<?xml version="1.0" encoding="UTF-8"?>
<!-- Created with Inkscape (http://www.inkscape.org/) -->
<svg width="17.695mm" height="43.857mm" version="1.1" viewBox="0 0 17.695 43.857" xmlns="http://www.w3.org/2000/svg">
 <defs>
  <clipPath id="clipPath408">
   <path transform="translate(-.00020833 .00020833)" d="m2177 2327.7h418v-1036h-418z"/>
  </clipPath>
 </defs>
 <g transform="translate(-71.966 -149.49)">
  <g fill-rule="evenodd">
   <path transform="matrix(.042333 0 0 -.042333 -20.193 248.03)" d="m2177 1291.7h418v1036h-418z" clip-path="url(#clipPath408)" fill="#b6b5b4"/>
   <path d="m76.2 176.29v0.29633l0.04233 0.127v0.0847l0.08466 0.1694v0.0847l0.12699 0.2541 0.08467 0.0847 0.08466 0.1694 0.08467 0.0423 0.04233 0.0847 0.08467 0.0423 0.04233 0.0847 0.16934 0.0846 0.08467 0.0847 0.04233 0.0423 0.16934 0.0846 0.127 0.0423h0.08467l0.08467 0.0423h0.08467l0.08467 0.0423h0.59267l0.08467-0.0423h0.08467l0.127-0.0423h0.08467l0.33868-0.1692 0.04233-0.0847 0.16934-0.0846 0.04233-0.0847 0.08467-0.0423 0.08467-0.0847 0.04233-0.0423 0.04233-0.0847 0.08467-0.0847 0.21165-0.4235v-0.0847l0.08466-0.1694v-0.29633l0.04233-0.127v-3.175l-0.04233-0.0847v-0.29633l-0.08466-0.1694v-0.0847l-0.21165-0.4235-0.08467-0.0847-0.04233-0.0847-0.04233-0.0423-0.08467-0.0847-0.08467-0.0423-0.04233-0.0847-0.08467-0.0423-0.08467-0.0847-0.04233-0.0423-0.33868-0.1692h-0.08467l-0.127-0.0423h-0.08467l-0.08467-0.0423h-0.59267l-0.08467 0.0423h-0.08467l-0.08467 0.0423h-0.08467l-0.127 0.0423-0.16934 0.0846-0.04233 0.0423-0.08467 0.0423-0.08467 0.0847-0.08467 0.0423-0.04233 0.0847-0.08467 0.0423-0.04233 0.0847-0.08467 0.0423-0.08466 0.1694-0.08467 0.0847-0.12699 0.2541v0.0847l-0.08466 0.1694v0.0847l-0.04233 0.0847v3.4713" fill="#848382" stroke="#1f1a17" stroke-linecap="round" stroke-linejoin="round" stroke-miterlimit="10" stroke-width=".074676"/>
   <path d="m76.665 176.41v-0.21167l0.04233-0.0847v-0.127l0.04233-0.0423v-0.0847l0.04233-0.0423 0.04233-0.0847 0.04233-0.0423v-0.0423l0.04233-0.0847 0.08466-0.0846 0.08467-0.0423 0.16932-0.1692 0.08467-0.0423 0.08466-0.0846h0.08467l0.04233-0.0423h0.08467l0.08467-0.0423h0.127l0.04233-0.0423h0.29633l0.08467 0.0423h0.127l0.08467 0.0423h0.04233l0.08467 0.0423h0.04233l0.04233 0.0423 0.08467 0.0423 0.08466 0.0846 0.08467 0.0423 0.21165 0.2115 0.04233 0.0847 0.08466 0.0846v0.0847l0.04233 0.0423 0.04233 0.0847v0.0423l0.04233 0.0847v0.21167l0.04233 0.0423v0.16934l-0.04233 0.0423v0.21167l-0.04233 0.0847v0.0423l-0.04233 0.0847-0.04233 0.0423v0.0847l-0.08466 0.0846-0.04233 0.0847-0.21165 0.2115-0.08467 0.0423-0.08466 0.0846-0.08467 0.0423-0.04233 0.0423h-0.04233l-0.08467 0.0423h-0.04233l-0.08467 0.0423h-0.08467l-0.04233 0.0423h-0.4233l-0.08467-0.0423h-0.04233l-0.08467-0.0423h-0.08467l-0.04233-0.0423h-0.08467l-0.08466-0.0846-0.08467-0.0423-0.16932-0.1692-0.08467-0.0423-0.08466-0.0846-0.04233-0.0847v-0.0423l-0.04233-0.0423-0.04233-0.0847-0.04233-0.0423v-0.0847l-0.04233-0.0423v-0.127l-0.04233-0.0847v-0.21167" fill="#00923f"/>
  </g>
  <g stroke="#1f1a17" stroke-linecap="round" stroke-linejoin="round" stroke-miterlimit="10">
   <path d="m76.665 176.41v-0.21167l0.04233-0.0847v-0.127l0.04233-0.0423v-0.0847l0.04233-0.0423 0.04233-0.0847 0.04233-0.0423v-0.0423l0.04233-0.0847 0.08466-0.0846 0.08467-0.0423 0.16932-0.1692 0.08467-0.0423 0.08466-0.0846h0.08467l0.04233-0.0423h0.08467l0.08467-0.0423h0.127l0.04233-0.0423h0.29633l0.08467 0.0423h0.127l0.08467 0.0423h0.04233l0.08467 0.0423h0.04233l0.04233 0.0423 0.08467 0.0423 0.08466 0.0846 0.08467 0.0423 0.21165 0.2115 0.04233 0.0847 0.08466 0.0846v0.0847l0.04233 0.0423 0.04233 0.0847v0.0423l0.04233 0.0847v0.21167l0.04233 0.0423v0.16934l-0.04233 0.0423v0.21167l-0.04233 0.0847v0.0423l-0.04233 0.0847-0.04233 0.0423v0.0847l-0.08466 0.0846-0.04233 0.0847-0.21165 0.2115-0.08467 0.0423-0.08466 0.0846-0.08467 0.0423-0.04233 0.0423h-0.04233l-0.08467 0.0423h-0.04233l-0.08467 0.0423h-0.08467l-0.04233 0.0423h-0.4233l-0.08467-0.0423h-0.04233l-0.08467-0.0423h-0.08467l-0.04233-0.0423h-0.08467l-0.08466-0.0846-0.08467-0.0423-0.16932-0.1692-0.08467-0.0423-0.08466-0.0846-0.04233-0.0847v-0.0423l-0.04233-0.0423-0.04233-0.0847-0.04233-0.0423v-0.0847l-0.04233-0.0423v-0.127l-0.04233-0.0847z" fill="none" stroke-width=".074676"/>
   <path d="m76.665 173.15v-0.21167l0.04233-0.0423v-0.127l0.04233-0.0847v-0.0423l0.04233-0.0847 0.04233-0.0423 0.04233-0.0847v-0.0423l0.04233-0.0423 0.04233-0.0847 0.04233-0.0423 0.08467-0.0423 0.16932-0.1692 0.08467-0.0423 0.04233-0.0423h0.04233l0.08467-0.0423 0.04233-0.0423h0.16933l0.04233-0.0423h0.21167l0.08467-0.0423 0.04233 0.0423h0.21167l0.08467 0.0423h0.127l0.08467 0.0423 0.04233 0.0423h0.04233l0.08467 0.0423 0.08466 0.0846 0.08467 0.0423 0.16932 0.1692 0.04233 0.0847 0.08466 0.0846 0.04233 0.0847v0.0423l0.04233 0.0847 0.04233 0.0423v0.0847l0.04233 0.0423v0.21167l0.04233 0.0847v0.127l-0.04233 0.0847v0.21167l-0.04233 0.0423v0.0847l-0.04233 0.0423-0.04233 0.0847v0.0423l-0.04233 0.0423-0.04233 0.0847-0.12699 0.1269-0.04233 0.0847-0.08466 0.0846-0.08467 0.0423-0.04233 0.0423h-0.04233l-0.08467 0.0423-0.08466 0.0846h-0.08467l-0.04233 0.0423h-0.08467l-0.08467 0.0423h-0.55033l-0.04233-0.0423h-0.08467l-0.08467-0.0423h-0.04233l-0.08467-0.0423-0.08466-0.0846h-0.08467l-0.16932-0.1692-0.08467-0.0847-0.12699-0.1269v-0.0847l-0.08466-0.0846-0.04233-0.0847v-0.0423l-0.04233-0.0847v-0.127l-0.04233-0.0847z" fill="none" stroke-width=".074676"/>
   <path d="m80.475 191.15h1.397v-27.432h-1.397z" fill="#848382" fill-rule="evenodd" stroke-width=".098679"/>
  </g>
  <path d="m83.015 162.19-0.08467-0.0847-0.33868-0.1692-0.127-0.0423h-0.08467l-0.08467-0.0423h-0.16933l-0.127-0.0423h-0.254l-0.08467 0.0423h-0.21167l-0.08467 0.0423h-0.08467l-0.50802 0.2538-0.04233 0.0847-0.16934 0.0846-0.08467 0.0847-0.08466 0.1694-0.08467 0.0423-0.21165 0.4235-0.04233 0.127v0.0847l-0.04233 0.0847v0.0847l-0.04233 0.0847v0.381l0.04233 0.0847v0.16933l0.04233 0.127v0.0847l0.25398 0.5082 0.08467 0.0423 0.04233 0.0847 0.08467 0.0847 0.04233 0.0423 0.08467 0.0847 0.08467 0.0423 0.08467 0.0847 2.5823 1.8203 0.42335 0.2115 0.127 0.0423 0.08467 0.0423h0.16933l0.08467 0.0423h0.46567l0.08467-0.0423h0.21167l0.59269-0.2961 0.04233-0.0423 0.08467-0.0847 0.08467-0.0423 0.04233-0.0847 0.08467-0.0423 0.04233-0.0847 0.08467-0.0847 0.29631-0.5929v-0.21167l0.04233-0.0847v-0.46566l-0.04233-0.0847v-0.0847l-0.04233-0.0847v-0.0847l-0.25398-0.5082-0.08467-0.0847-0.04233-0.0847-0.08467-0.0423-0.04233-0.0847-0.08467-0.0423-0.08467-0.0847-0.08467-0.0423-2.5823-1.8203" fill="#848382" fill-rule="evenodd"/>
  <path d="m83.015 162.19v0l-0.08467-0.0847-0.33868-0.1692-0.127-0.0423h-0.08467l-0.08467-0.0423h-0.16933l-0.127-0.0423h-0.254l-0.08467 0.0423h-0.21167l-0.08467 0.0423h-0.08467l-0.50802 0.2538-0.04233 0.0847-0.16934 0.0846-0.08467 0.0847-0.08466 0.1694-0.08467 0.0423-0.21165 0.4235-0.04233 0.127v0.0847l-0.04233 0.0847v0.0847l-0.04233 0.0847v0.381l0.04233 0.0847v0.16933l0.04233 0.127v0.0847l0.25398 0.5082 0.08467 0.0423 0.04233 0.0847 0.08467 0.0847 0.04233 0.0423 0.08467 0.0847 0.08467 0.0423 0.08467 0.0847 2.5823 1.8203v0l0.42335 0.2115 0.127 0.0423 0.08467 0.0423h0.16933l0.08467 0.0423h0.46567l0.08467-0.0423h0.21167l0.59269-0.2961 0.04233-0.0423 0.08467-0.0847 0.08467-0.0423 0.04233-0.0847 0.08467-0.0423 0.04233-0.0847 0.08467-0.0847 0.29631-0.5929v-0.21167l0.04233-0.0847v-0.46566l-0.04233-0.0847v-0.0847l-0.04233-0.0847v-0.0847l-0.25398-0.5082-0.08467-0.0847-0.04233-0.0847-0.08467-0.0423-0.04233-0.0847-0.08467-0.0423-0.08467-0.0847-0.08467-0.0423z" fill="none" stroke="#1f1a17" stroke-linecap="round" stroke-linejoin="round" stroke-miterlimit="10" stroke-width=".074676"/>
  <path d="m82.634 162.49 0.08467 0.0423 0.12699 0.1269 0.04233 0.0847 0.08466 0.0846 0.04233 0.0847 0.08466 0.0846 0.04233 0.0847v0.0423l0.04233 0.0847v0.0423l0.04233 0.0847v0.59266l-0.04233 0.0847v0.0423l-0.04233 0.0847v0.0423l-0.04233 0.0847-0.04233 0.0423-0.04233 0.0847-0.08466 0.0846-0.04233 0.0847-0.16932 0.1692-0.08467 0.0423-0.08466 0.0846h-0.08467l-0.04233 0.0423-0.08467 0.0423h-0.04233l-0.08467 0.0423h-0.127l-0.04233 0.0423h-0.42333l-0.04233-0.0423h-0.08467l-0.08467-0.0423h-0.04233l-0.08467-0.0423h-0.04233l-0.08467-0.0423-0.08466-0.0846-0.08467-0.0423-0.12699-0.1269-0.08467-0.0847-0.08466-0.0846v-0.0423l-0.04233-0.0847-0.04233-0.0423-0.04233-0.0847v-0.0423l-0.04233-0.0847v-0.0423l-0.04233-0.0847v-0.59266l0.04233-0.0423v-0.0847l0.04233-0.0423v-0.0847l0.04233-0.0423 0.04233-0.0847 0.04233-0.0423v-0.0847l0.08467-0.0423 0.04233-0.0423 0.04233-0.0847 0.12699-0.1269 0.08467-0.0423 0.08466-0.0846h0.08467l0.04233-0.0423 0.08467-0.0423h0.04233l0.08467-0.0423h0.16933l0.08467-0.0423h0.254l0.08467 0.0423h0.127l0.04233 0.0423h0.08467l0.04233 0.0423 0.08467 0.0423h0.04233l0.08467 0.0423z" fill="none" stroke="#1f1a17" stroke-linecap="round" stroke-linejoin="round" stroke-miterlimit="10" stroke-width=".074676"/>
  <path d="m85.301 164.35 0.08467 0.0423 0.08466 0.0846 0.04233 0.0847 0.12699 0.1269 0.04233 0.0847 0.08466 0.0846v0.0847l0.04233 0.0423 0.04233 0.0847v0.127l0.04233 0.0423v0.55033l-0.04233 0.0847v0.0423l-0.04233 0.0847v0.0423l-0.04233 0.0847-0.04233 0.0423-0.04233 0.0847-0.08466 0.0846-0.04233 0.0847-0.12699 0.1269-0.08467 0.0423-0.08466 0.0846-0.08467 0.0423h-0.04233l-0.04233 0.0423-0.08467 0.0423h-0.04233l-0.08467 0.0423h-0.127l-0.04233 0.0423h-0.33867l-0.08467-0.0423h-0.127l-0.08467-0.0423h-0.04233l-0.08467-0.0423h-0.04233l-0.08467-0.0423-0.04233-0.0423-0.08467-0.0423-0.12699-0.1269-0.08467-0.0423-0.04233-0.0847-0.12699-0.1269v-0.0847l-0.04233-0.0423-0.04233-0.0847v-0.0423l-0.04233-0.0847v-0.0423l-0.04233-0.0847v-0.16933l-0.04233-0.0847v-0.127l0.04233-0.0847v-0.127l0.04233-0.0423v-0.127l0.04233-0.0847 0.04233-0.0423 0.04233-0.0847v-0.0423l0.04233-0.0847 0.08466-0.0846 0.08467-0.0847 0.16932-0.1692 0.08467-0.0423 0.04233-0.0423h0.08467l0.04233-0.0423 0.08467-0.0423h0.04233l0.08467-0.0423h0.127l0.04233-0.0423h0.33867l0.08467 0.0423h0.127l0.04233 0.0423h0.08467l0.04233 0.0423 0.08467 0.0423h0.04233l0.08467 0.0423 0.04233 0.0423" fill="#fff500" fill-rule="evenodd"/>
  <path d="m85.301 164.35 0.08467 0.0423 0.08466 0.0846 0.04233 0.0847 0.12699 0.1269 0.04233 0.0847 0.08466 0.0846v0.0847l0.04233 0.0423 0.04233 0.0847v0.127l0.04233 0.0423v0.55033l-0.04233 0.0847v0.0423l-0.04233 0.0847v0.0423l-0.04233 0.0847-0.04233 0.0423-0.04233 0.0847-0.08466 0.0846-0.04233 0.0847-0.12699 0.1269-0.08467 0.0423-0.08466 0.0846-0.08467 0.0423h-0.04233l-0.04233 0.0423-0.08467 0.0423h-0.04233l-0.08467 0.0423h-0.127l-0.04233 0.0423h-0.33867l-0.08467-0.0423h-0.127l-0.08467-0.0423h-0.04233l-0.08467-0.0423h-0.04233l-0.08467-0.0423-0.04233-0.0423-0.08467-0.0423-0.12699-0.1269-0.08467-0.0423-0.04233-0.0847-0.12699-0.1269v-0.0847l-0.04233-0.0423-0.04233-0.0847v-0.0423l-0.04233-0.0847v-0.0423l-0.04233-0.0847v-0.16933l-0.04233-0.0847v-0.127l0.04233-0.0847v-0.127l0.04233-0.0423v-0.127l0.04233-0.0847 0.04233-0.0423 0.04233-0.0847v-0.0423l0.04233-0.0847 0.08466-0.0846 0.08467-0.0847 0.16932-0.1692 0.08467-0.0423 0.04233-0.0423h0.08467l0.04233-0.0423 0.08467-0.0423h0.04233l0.08467-0.0423h0.127l0.04233-0.0423h0.33867l0.08467 0.0423h0.127l0.04233 0.0423h0.08467l0.04233 0.0423 0.08467 0.0423h0.04233l0.08467 0.0423z" fill="none" stroke="#1f1a17" stroke-linecap="round" stroke-linejoin="round" stroke-miterlimit="10" stroke-width=".074676"/>
  <path d="m81.153 151.44h0.33867l0.67733 0.0846 0.29633 0.0423 0.33867 0.0847 0.29633 0.0847 0.29633 0.127 0.29633 0.0847 0.29633 0.127 0.254 0.16933 0.29633 0.127 0.254 0.16934 0.254 0.21166 0.254 0.16934 0.21167 0.21166 0.254 0.21167 0.21167 0.21167 0.16933 0.254 0.21167 0.254 0.508 0.762 0.254 0.59266 0.127 0.29634 0.08467 0.29633 0.127 0.29633 0.04233 0.29634 0.08467 0.33866 0.04233 0.29634v1.3547l-0.04233 0.29634-0.08467 0.33866-0.04233 0.29634-0.127 0.33866-0.08467 0.29634-0.127 0.29633-0.127 0.254-0.127 0.29633-0.33867 0.508-0.16933 0.29634-0.21167 0.21166-0.16933 0.254-0.21167 0.21167-0.254 0.21167-0.21167 0.21166-0.254 0.21167-0.508 0.33867-0.29633 0.127-0.254 0.16933-0.59267 0.254-0.59267 0.1694-0.33867 0.0847-0.29633 0.0423-0.67733 0.0846h-0.67733l-0.29633-0.0423-0.33867-0.0423-0.29633-0.0423-0.33867-0.0847-0.59267-0.1694-0.59267-0.254-0.29633-0.16933-0.254-0.127-0.508-0.33867-0.508-0.42333-0.42333-0.42334-0.21167-0.254-0.16933-0.21166-0.21167-0.29634-0.16933-0.254-0.127-0.254-0.16933-0.29633-0.127-0.254-0.08467-0.29633-0.127-0.29634-0.08467-0.33866-0.08467-0.29634-0.04233-0.33866-0.04233-0.29634v-0.33866l-0.04233-0.33867 0.04233-0.33867v-0.33866l0.04233-0.29634 0.04233-0.33866 0.08467-0.29634 0.08467-0.29633 0.127-0.29633 0.08467-0.29634 0.127-0.29633 0.16933-0.29633 0.127-0.254 0.16933-0.254 0.21167-0.254 0.16933-0.254 0.21167-0.254 0.42333-0.42334 0.254-0.21166 0.254-0.16934 0.254-0.21166 0.254-0.16934 0.254-0.127 0.29633-0.16933 0.29633-0.127 0.29633-0.0847 0.29633-0.127 0.29633-0.0847 0.33867-0.0847 0.29633-0.0423 0.33867-0.0423 0.29633-0.0423h0.33867" fill="#848382" fill-rule="evenodd"/>
  <path d="m81.153 151.44h0.33867l0.67733 0.0846 0.29633 0.0423 0.33867 0.0847 0.29633 0.0847 0.29633 0.127 0.29633 0.0847 0.29633 0.127 0.254 0.16933 0.29633 0.127 0.254 0.16934 0.254 0.21166 0.254 0.16934 0.21167 0.21166 0.254 0.21167 0.21167 0.21167 0.16933 0.254 0.21167 0.254 0.508 0.762 0.254 0.59266 0.127 0.29634 0.08467 0.29633 0.127 0.29633 0.04233 0.29634 0.08467 0.33866 0.04233 0.29634v1.3547l-0.04233 0.29634-0.08467 0.33866-0.04233 0.29634-0.127 0.33866-0.08467 0.29634-0.127 0.29633-0.127 0.254-0.127 0.29633-0.33867 0.508-0.16933 0.29634-0.21167 0.21166-0.16933 0.254-0.21167 0.21167-0.254 0.21167-0.21167 0.21166-0.254 0.21167-0.508 0.33867-0.29633 0.127-0.254 0.16933-0.59267 0.254-0.59267 0.1694-0.33867 0.0847-0.29633 0.0423-0.67733 0.0846h-0.67733l-0.29633-0.0423-0.33867-0.0423-0.29633-0.0423-0.33867-0.0847-0.59267-0.1694-0.59267-0.254-0.29633-0.16933-0.254-0.127-0.508-0.33867-0.508-0.42333-0.42333-0.42334-0.21167-0.254-0.16933-0.21166-0.21167-0.29634-0.16933-0.254-0.127-0.254-0.16933-0.29633-0.127-0.254-0.08467-0.29633-0.127-0.29634-0.08467-0.33866-0.08467-0.29634-0.04233-0.33866-0.04233-0.29634v-0.33866l-0.04233-0.33867 0.04233-0.33867v-0.33866l0.04233-0.29634 0.04233-0.33866 0.08467-0.29634 0.08467-0.29633 0.127-0.29633 0.08467-0.29634 0.127-0.29633 0.16933-0.29633 0.127-0.254 0.16933-0.254 0.21167-0.254 0.16933-0.254 0.21167-0.254 0.42333-0.42334 0.254-0.21166 0.254-0.16934 0.254-0.21166 0.254-0.16934 0.254-0.127 0.29633-0.16933 0.29633-0.127 0.29633-0.0847 0.29633-0.127 0.29633-0.0847 0.33867-0.0847 0.29633-0.0423 0.33867-0.0423 0.29633-0.0423z" fill="none" stroke="#1f1a17" stroke-linecap="round" stroke-linejoin="round" stroke-miterlimit="10" stroke-width=".074676"/>
  <path d="m87.672 181.87v-2.159l-12.023-12.023-2.0743 2.1167 12.065 11.98 2.032 0.0847" fill="#848382" fill-rule="evenodd" stroke="#1f1a17" stroke-linecap="round" stroke-linejoin="round" stroke-miterlimit="10" stroke-width=".074676"/>
 </g>
</svg>
