<?xml version="1.0" encoding="UTF-8"?>
<!-- Created with Inkscape (http://www.inkscape.org/) -->
<svg width="8.7539mm" height="35.055mm" version="1.1" viewBox="0 0 8.7539 35.055" xmlns="http://www.w3.org/2000/svg">
 <g transform="translate(-87.577 -140.23)">
  <g fill-rule="evenodd">
   <path d="m91.51 175.23h1.397v-23.114h-1.397z" fill="#848382" stroke="#1f1a17" stroke-linecap="round" stroke-linejoin="round" stroke-miterlimit="10" stroke-width=".099314"/>
   <path d="m87.615 152.12h8.6783v-11.853h-8.6783z" fill="#848382" stroke="#1f1a17" stroke-linecap="round" stroke-linejoin="round" stroke-miterlimit="10" stroke-width=".075565"/>
   <path d="m89.139 149.2h0.21167l0.08467 0.0423h0.08467l0.04233 0.0423h0.04233l0.08467 0.0423 0.04233 0.0423h0.04233l0.16932 0.1692h0.04233v0.0423l0.08466 0.0846 0.04233 0.0847v0.0423l0.04233 0.0423v0.0423l0.04233 0.0423v0.127l0.04233 0.0423v0.46567l-0.04233 0.0423v0.0847l-0.04233 0.0423v0.0847l-0.04233 0.0423v0.0423l-0.12699 0.1269v0.0423l-0.12699 0.1269h-0.04233l-0.08466 0.0846h-0.04233l-0.08467 0.0423-0.04233 0.0423h-0.08467l-0.04233 0.0423h-0.16933l-0.04233 0.0423h-0.127l-0.08467-0.0423h-0.127l-0.08467-0.0423h-0.08467l-0.08466-0.0846h-0.04233l-0.08466-0.0846h-0.04233l-0.21165-0.2115v-0.0423l-0.08466-0.0846v-0.0423l-0.04233-0.0847v-0.0423l-0.04233-0.0423v-0.0847l-0.04233-0.0847v-0.33867l0.04233-0.0423v-0.127l0.04233-0.0423v-0.0423l0.04233-0.0423v-0.0423l0.04233-0.0423 0.04233-0.0847v-0.0423l0.08466-0.0846h0.04233l0.16932-0.1692h0.04233l0.08466-0.0846h0.04233l0.04233-0.0423h0.127l0.04233-0.0423h0.21167" fill="#fff500"/>
  </g>
  <path d="m89.139 149.2h0.21167l0.08467 0.0423h0.08467l0.04233 0.0423h0.04233l0.08467 0.0423 0.04233 0.0423h0.04233l0.16932 0.1692h0.04233v0.0423l0.08466 0.0846 0.04233 0.0847v0.0423l0.04233 0.0423v0.0423l0.04233 0.0423v0.127l0.04233 0.0423v0.46567l-0.04233 0.0423v0.0847l-0.04233 0.0423v0.0847l-0.04233 0.0423v0.0423l-0.12699 0.1269v0.0423l-0.12699 0.1269h-0.04233l-0.08466 0.0846h-0.04233l-0.08467 0.0423-0.04233 0.0423h-0.08467l-0.04233 0.0423h-0.16933l-0.04233 0.0423h-0.127l-0.08467-0.0423h-0.127l-0.08467-0.0423h-0.08467l-0.08466-0.0846h-0.04233l-0.08466-0.0846h-0.04233l-0.21165-0.2115v-0.0423l-0.08466-0.0846v-0.0423l-0.04233-0.0847v-0.0423l-0.04233-0.0423v-0.0847l-0.04233-0.0847v-0.33867l0.04233-0.0423v-0.127l0.04233-0.0423v-0.0423l0.04233-0.0423v-0.0423l0.04233-0.0423 0.04233-0.0847v-0.0423l0.08466-0.0846h0.04233l0.16932-0.1692h0.04233l0.08466-0.0846h0.04233l0.04233-0.0423h0.127l0.04233-0.0423z" fill="none" stroke="#1f1a17" stroke-linecap="round" stroke-linejoin="round" stroke-miterlimit="10" stroke-width=".075565"/>
  <path d="m89.181 146.62h0.21167l0.04233 0.0423h0.127l0.04233 0.0423h0.04233l0.08466 0.0846h0.04233l0.08467 0.0423 0.04233 0.0423v0.0423l0.08466 0.0846h0.04233l0.04233 0.0423 0.04233 0.0847v0.0423l0.04233 0.0423v0.0423l0.04233 0.0423v0.0423l0.04233 0.0423v0.0847l0.04233 0.0423v0.46567l-0.04233 0.0423v0.0423l-0.04233 0.0423v0.0847l-0.04233 0.0423v0.0423l-0.04233 0.0423v0.0423l-0.21165 0.2115v0.0423h-0.04233l-0.08467 0.0423-0.04233 0.0423h-0.04233l-0.08466 0.0846h-0.08467l-0.08467 0.0423h-0.127l-0.08467 0.0423h-0.08467l-0.08467-0.0423h-0.16933l-0.04233-0.0423h-0.08467l-0.04233-0.0423-0.08467-0.0423h-0.04233l-0.08466-0.0846h-0.04233l-0.08466-0.0846v-0.0423l-0.12699-0.1269v-0.0423l-0.08466-0.0846v-0.0423l-0.04233-0.0847v-0.0847l-0.04233-0.0423v-0.46567l0.04233-0.0423v-0.127l0.04233-0.0423v-0.0423l0.08466-0.0846v-0.0423l0.04233-0.0847 0.04233-0.0423h0.04233v-0.0423l0.16932-0.1692h0.04233l0.04233-0.0423 0.08467-0.0423h0.04233l0.04233-0.0423h0.08467l0.08467-0.0423h0.21167" fill="#848382" fill-rule="evenodd"/>
  <path d="m89.181 146.62h0.21167l0.04233 0.0423h0.127l0.04233 0.0423h0.04233l0.08466 0.0846h0.04233l0.08467 0.0423 0.04233 0.0423v0.0423l0.08466 0.0846h0.04233l0.04233 0.0423 0.04233 0.0847v0.0423l0.04233 0.0423v0.0423l0.04233 0.0423v0.0423l0.04233 0.0423v0.0847l0.04233 0.0423v0.46567l-0.04233 0.0423v0.0423l-0.04233 0.0423v0.0847l-0.04233 0.0423v0.0423l-0.04233 0.0423v0.0423l-0.21165 0.2115v0.0423h-0.04233l-0.08467 0.0423-0.04233 0.0423h-0.04233l-0.08466 0.0846h-0.08467l-0.08467 0.0423h-0.127l-0.08467 0.0423h-0.08467l-0.08467-0.0423h-0.16933l-0.04233-0.0423h-0.08467l-0.04233-0.0423-0.08467-0.0423h-0.04233l-0.08466-0.0846h-0.04233l-0.08466-0.0846v-0.0423l-0.12699-0.1269v-0.0423l-0.08466-0.0846v-0.0423l-0.04233-0.0847v-0.0847l-0.04233-0.0423v-0.46567l0.04233-0.0423v-0.127l0.04233-0.0423v-0.0423l0.08466-0.0846v-0.0423l0.04233-0.0847 0.04233-0.0423h0.04233v-0.0423l0.16932-0.1692h0.04233l0.04233-0.0423 0.08467-0.0423h0.04233l0.04233-0.0423h0.08467l0.08467-0.0423z" fill="none" stroke="#1f1a17" stroke-linecap="round" stroke-linejoin="round" stroke-miterlimit="10" stroke-width=".075565"/>
  <path d="m94.812 143.74h0.254l0.04233 0.0423h0.08467l0.08467 0.0423h0.04233l0.08466 0.0846h0.04233l0.12699 0.1269h0.04233l0.08466 0.0846v0.0423l0.08466 0.0846v0.0847l0.08466 0.0846v0.0847l0.04233 0.0847v0.127l0.04233 0.0847v0.0847l-0.04233 0.0847v0.16933l-0.04233 0.0423v0.0847l-0.04233 0.0847-0.04233 0.0423v0.0423l-0.08466 0.0846v0.0423l-0.12699 0.1269h-0.04233l-0.12699 0.1269h-0.04233l-0.04233 0.0423h-0.04233l-0.08467 0.0423h-0.04233l-0.04233 0.0423h-0.55033l-0.04233-0.0423h-0.08467l-0.04233-0.0423h-0.04233l-0.04233-0.0423h-0.04233l-0.12699-0.1269h-0.04233l-0.16932-0.1692v-0.0423l-0.08466-0.0846v-0.0423l-0.04233-0.0847v-0.0423l-0.04233-0.0423v-0.16933l-0.04233-0.0423v-0.254l0.04233-0.0423v-0.16933l0.04233-0.0423v-0.0423l0.04233-0.0423v-0.0423l0.04233-0.0847 0.04233-0.0423v-0.0423l0.12699-0.1269h0.04233l0.12699-0.1269h0.04233l0.08466-0.0846h0.04233l0.04233-0.0423h0.127l0.04233-0.0423h0.21167" fill="#fff500" fill-rule="evenodd"/>
  <path d="m94.812 143.74h0.254l0.04233 0.0423h0.08467l0.08467 0.0423h0.04233l0.08466 0.0846h0.04233l0.12699 0.1269h0.04233l0.08466 0.0846v0.0423l0.08466 0.0846v0.0847l0.08466 0.0846v0.0847l0.04233 0.0847v0.127l0.04233 0.0847v0.0847l-0.04233 0.0847v0.16933l-0.04233 0.0423v0.0847l-0.04233 0.0847-0.04233 0.0423v0.0423l-0.08466 0.0846v0.0423l-0.12699 0.1269h-0.04233l-0.12699 0.1269h-0.04233l-0.04233 0.0423h-0.04233l-0.08467 0.0423h-0.04233l-0.04233 0.0423h-0.55033l-0.04233-0.0423h-0.08467l-0.04233-0.0423h-0.04233l-0.04233-0.0423h-0.04233l-0.12699-0.1269h-0.04233l-0.16932-0.1692v-0.0423l-0.08466-0.0846v-0.0423l-0.04233-0.0847v-0.0423l-0.04233-0.0423v-0.16933l-0.04233-0.0423v-0.254l0.04233-0.0423v-0.16933l0.04233-0.0423v-0.0423l0.04233-0.0423v-0.0423l0.04233-0.0847 0.04233-0.0423v-0.0423l0.12699-0.1269h0.04233l0.12699-0.1269h0.04233l0.08466-0.0846h0.04233l0.04233-0.0423h0.127l0.04233-0.0423z" fill="none" stroke="#1f1a17" stroke-linecap="round" stroke-linejoin="round" stroke-miterlimit="10" stroke-width=".075565"/>
  <path d="m94.769 141.07h0.16933l0.04233 0.0423h0.127l0.04233 0.0423h0.04233l0.04233 0.0423h0.04233l0.08466 0.0846h0.08467v0.0423l0.25398 0.2538v0.0423l0.04233 0.0423v0.0423l0.04233 0.0423v0.0423l0.04233 0.0847v0.0423l0.04233 0.0423v0.46567l-0.04233 0.0423v0.0423l-0.04233 0.0847v0.0423l-0.04233 0.0423v0.0423l-0.04233 0.0423v0.0423l-0.25398 0.2538v0.0423h-0.08467l-0.08466 0.0846h-0.04233l-0.04233 0.0423h-0.04233l-0.04233 0.0423h-0.127l-0.04233 0.0423h-0.33867l-0.04233-0.0423h-0.127l-0.04233-0.0423h-0.04233l-0.04233-0.0423h-0.08467l-0.08466-0.0846h-0.04233l-0.12699-0.1269v-0.0423l-0.12699-0.1269v-0.0423l-0.08466-0.0846v-0.0423l-0.04233-0.0423v-0.127l-0.04233-0.0423v-0.46567l0.04233-0.0423v-0.127l0.04233-0.0423v-0.0423l0.08466-0.0846v-0.0423l0.12699-0.1269v-0.0423l0.12699-0.1269h0.04233l0.08466-0.0846h0.08467l0.04233-0.0423h0.04233l0.04233-0.0423h0.127l0.04233-0.0423h0.16933" fill="#848382" fill-rule="evenodd"/>
  <path d="m94.769 141.07h0.16933l0.04233 0.0423h0.127l0.04233 0.0423h0.04233l0.04233 0.0423h0.04233l0.08466 0.0846h0.08467v0.0423l0.25398 0.2538v0.0423l0.04233 0.0423v0.0423l0.04233 0.0423v0.0423l0.04233 0.0847v0.0423l0.04233 0.0423v0.46567l-0.04233 0.0423v0.0423l-0.04233 0.0847v0.0423l-0.04233 0.0423v0.0423l-0.04233 0.0423v0.0423l-0.25398 0.2538v0.0423h-0.08467l-0.08466 0.0846h-0.04233l-0.04233 0.0423h-0.04233l-0.04233 0.0423h-0.127l-0.04233 0.0423h-0.33867l-0.04233-0.0423h-0.127l-0.04233-0.0423h-0.04233l-0.04233-0.0423h-0.08467l-0.08466-0.0846h-0.04233l-0.12699-0.1269v-0.0423l-0.12699-0.1269v-0.0423l-0.08466-0.0846v-0.0423l-0.04233-0.0423v-0.127l-0.04233-0.0423v-0.46567l0.04233-0.0423v-0.127l0.04233-0.0423v-0.0423l0.08466-0.0846v-0.0423l0.12699-0.1269v-0.0423l0.12699-0.1269h0.04233l0.08466-0.0846h0.08467l0.04233-0.0423h0.04233l0.04233-0.0423h0.127l0.04233-0.0423z" fill="none" stroke="#1f1a17" stroke-linecap="round" stroke-linejoin="round" stroke-miterlimit="10" stroke-width=".075565"/>
 </g>
</svg>
