<?xml version="1.0" encoding="UTF-8"?>
<!-- Created with Inkscape (http://www.inkscape.org/) -->
<svg width="8.7539mm" height="35.055mm" version="1.1" viewBox="0 0 8.7539 35.055" xmlns="http://www.w3.org/2000/svg">
 <g transform="translate(-118.27 -164.04)">
  <g fill-rule="evenodd">
   <path d="m122.2 199.05h1.397v-23.114h-1.397z" fill="#848382" stroke="#1f1a17" stroke-linecap="round" stroke-linejoin="round" stroke-miterlimit="10" stroke-width=".099314"/>
   <path d="m118.31 175.93h8.6783v-11.853h-8.6783z" fill="#848382" stroke="#1f1a17" stroke-linecap="round" stroke-linejoin="round" stroke-miterlimit="10" stroke-width=".075565"/>
   <path d="m119.83 173.01h0.21167l0.0847 0.0423h0.0847l0.0423 0.0423h0.0423l0.0847 0.0423 0.0423 0.0423h0.0423l0.1692 0.1692h0.0423v0.0423l0.0846 0.0846 0.0423 0.0847v0.0423l0.0423 0.0423v0.0423l0.0423 0.0423v0.127l0.0423 0.0423v0.46567l-0.0423 0.0423v0.0847l-0.0423 0.0423v0.0847l-0.0423 0.0423v0.0423l-0.1269 0.1269v0.0423l-0.1269 0.1269h-0.0423l-0.0846 0.0846h-0.0423l-0.0847 0.0423-0.0423 0.0423h-0.0847l-0.0423 0.0423h-0.16933l-0.0423 0.0423h-0.127l-0.0847-0.0423h-0.127l-0.0847-0.0423h-0.0847l-0.0846-0.0846h-0.0423l-0.0846-0.0846h-0.0423l-0.2115-0.2115v-0.0423l-0.0846-0.0846v-0.0423l-0.0423-0.0847v-0.0423l-0.0423-0.0423v-0.0847l-0.0423-0.0847v-0.33867l0.0423-0.0423v-0.127l0.0423-0.0423v-0.0423l0.0423-0.0423v-0.0423l0.0423-0.0423 0.0423-0.0847v-0.0423l0.0846-0.0846h0.0423l0.1692-0.1692h0.0423l0.0846-0.0846h0.0423l0.0423-0.0423h0.127l0.0423-0.0423h0.21167" fill="#fff500"/>
  </g>
  <path d="m119.83 173.01h0.21167l0.0847 0.0423h0.0847l0.0423 0.0423h0.0423l0.0847 0.0423 0.0423 0.0423h0.0423l0.1692 0.1692h0.0423v0.0423l0.0846 0.0846 0.0423 0.0847v0.0423l0.0423 0.0423v0.0423l0.0423 0.0423v0.127l0.0423 0.0423v0.46567l-0.0423 0.0423v0.0847l-0.0423 0.0423v0.0847l-0.0423 0.0423v0.0423l-0.1269 0.1269v0.0423l-0.1269 0.1269h-0.0423l-0.0846 0.0846h-0.0423l-0.0847 0.0423-0.0423 0.0423h-0.0847l-0.0423 0.0423h-0.16933l-0.0423 0.0423h-0.127l-0.0847-0.0423h-0.127l-0.0847-0.0423h-0.0847l-0.0846-0.0846h-0.0423l-0.0846-0.0846h-0.0423l-0.2115-0.2115v-0.0423l-0.0846-0.0846v-0.0423l-0.0423-0.0847v-0.0423l-0.0423-0.0423v-0.0847l-0.0423-0.0847v-0.33867l0.0423-0.0423v-0.127l0.0423-0.0423v-0.0423l0.0423-0.0423v-0.0423l0.0423-0.0423 0.0423-0.0847v-0.0423l0.0846-0.0846h0.0423l0.1692-0.1692h0.0423l0.0846-0.0846h0.0423l0.0423-0.0423h0.127l0.0423-0.0423z" fill="none" stroke="#1f1a17" stroke-linecap="round" stroke-linejoin="round" stroke-miterlimit="10" stroke-width=".075565"/>
  <path d="m119.87 170.43h0.21167l0.0423 0.0423h0.127l0.0423 0.0423h0.0423l0.0846 0.0846h0.0423l0.0847 0.0423 0.0423 0.0423v0.0423l0.0846 0.0846h0.0423l0.0423 0.0423 0.0423 0.0847v0.0423l0.0423 0.0423v0.0423l0.0423 0.0423v0.0423l0.0423 0.0423v0.0847l0.0423 0.0423v0.46567l-0.0423 0.0423v0.0423l-0.0423 0.0423v0.0847l-0.0423 0.0423v0.0423l-0.0423 0.0423v0.0423l-0.2115 0.2115v0.0423h-0.0423l-0.0847 0.0423-0.0423 0.0423h-0.0423l-0.0846 0.0846h-0.0847l-0.0847 0.0423h-0.127l-0.0847 0.0423h-0.0847l-0.0847-0.0423h-0.16933l-0.0423-0.0423h-0.0847l-0.0423-0.0423-0.0847-0.0423h-0.0423l-0.0846-0.0846h-0.0423l-0.0846-0.0846v-0.0423l-0.1269-0.1269v-0.0423l-0.0846-0.0846v-0.0423l-0.0423-0.0847v-0.0847l-0.0423-0.0423v-0.46567l0.0423-0.0423v-0.127l0.0423-0.0423v-0.0423l0.0846-0.0846v-0.0423l0.0423-0.0847 0.0423-0.0423h0.0423v-0.0423l0.1692-0.1692h0.0423l0.0423-0.0423 0.0847-0.0423h0.0423l0.0423-0.0423h0.0847l0.0847-0.0423h0.21167" fill="#848382" fill-rule="evenodd"/>
  <path d="m119.87 170.43h0.21167l0.0423 0.0423h0.127l0.0423 0.0423h0.0423l0.0846 0.0846h0.0423l0.0847 0.0423 0.0423 0.0423v0.0423l0.0846 0.0846h0.0423l0.0423 0.0423 0.0423 0.0847v0.0423l0.0423 0.0423v0.0423l0.0423 0.0423v0.0423l0.0423 0.0423v0.0847l0.0423 0.0423v0.46567l-0.0423 0.0423v0.0423l-0.0423 0.0423v0.0847l-0.0423 0.0423v0.0423l-0.0423 0.0423v0.0423l-0.2115 0.2115v0.0423h-0.0423l-0.0847 0.0423-0.0423 0.0423h-0.0423l-0.0846 0.0846h-0.0847l-0.0847 0.0423h-0.127l-0.0847 0.0423h-0.0847l-0.0847-0.0423h-0.16933l-0.0423-0.0423h-0.0847l-0.0423-0.0423-0.0847-0.0423h-0.0423l-0.0846-0.0846h-0.0423l-0.0846-0.0846v-0.0423l-0.1269-0.1269v-0.0423l-0.0846-0.0846v-0.0423l-0.0423-0.0847v-0.0847l-0.0423-0.0423v-0.46567l0.0423-0.0423v-0.127l0.0423-0.0423v-0.0423l0.0846-0.0846v-0.0423l0.0423-0.0847 0.0423-0.0423h0.0423v-0.0423l0.1692-0.1692h0.0423l0.0423-0.0423 0.0847-0.0423h0.0423l0.0423-0.0423h0.0847l0.0847-0.0423z" fill="none" stroke="#1f1a17" stroke-linecap="round" stroke-linejoin="round" stroke-miterlimit="10" stroke-width=".075565"/>
  <path d="m125.5 167.55h0.254l0.0423 0.0423h0.0847l0.0847 0.0423h0.0423l0.0846 0.0846h0.0423l0.1269 0.1269h0.0423l0.0846 0.0846v0.0423l0.0846 0.0846v0.0847l0.0846 0.0846v0.0847l0.0423 0.0847v0.127l0.0423 0.0847v0.0847l-0.0423 0.0847v0.16933l-0.0423 0.0423v0.0847l-0.0423 0.0847-0.0423 0.0423v0.0423l-0.0846 0.0846v0.0423l-0.1269 0.1269h-0.0423l-0.1269 0.1269h-0.0423l-0.0423 0.0423h-0.0423l-0.0847 0.0423h-0.0423l-0.0423 0.0423h-0.55033l-0.0423-0.0423h-0.0847l-0.0423-0.0423h-0.0423l-0.0423-0.0423h-0.0423l-0.1269-0.1269h-0.0423l-0.1692-0.1692v-0.0423l-0.0846-0.0846v-0.0423l-0.0423-0.0847v-0.0423l-0.0423-0.0423v-0.16933l-0.0423-0.0423v-0.254l0.0423-0.0423v-0.16933l0.0423-0.0423v-0.0423l0.0423-0.0423v-0.0423l0.0423-0.0847 0.0423-0.0423v-0.0423l0.1269-0.1269h0.0423l0.1269-0.1269h0.0423l0.0846-0.0846h0.0423l0.0423-0.0423h0.127l0.0423-0.0423h0.21167" fill="#848382" fill-rule="evenodd"/>
  <path d="m125.5 167.55h0.254l0.0423 0.0423h0.0847l0.0847 0.0423h0.0423l0.0846 0.0846h0.0423l0.1269 0.1269h0.0423l0.0846 0.0846v0.0423l0.0846 0.0846v0.0847l0.0846 0.0846v0.0847l0.0423 0.0847v0.127l0.0423 0.0847v0.0847l-0.0423 0.0847v0.16933l-0.0423 0.0423v0.0847l-0.0423 0.0847-0.0423 0.0423v0.0423l-0.0846 0.0846v0.0423l-0.1269 0.1269h-0.0423l-0.1269 0.1269h-0.0423l-0.0423 0.0423h-0.0423l-0.0847 0.0423h-0.0423l-0.0423 0.0423h-0.55033l-0.0423-0.0423h-0.0847l-0.0423-0.0423h-0.0423l-0.0423-0.0423h-0.0423l-0.1269-0.1269h-0.0423l-0.1692-0.1692v-0.0423l-0.0846-0.0846v-0.0423l-0.0423-0.0847v-0.0423l-0.0423-0.0423v-0.16933l-0.0423-0.0423v-0.254l0.0423-0.0423v-0.16933l0.0423-0.0423v-0.0423l0.0423-0.0423v-0.0423l0.0423-0.0847 0.0423-0.0423v-0.0423l0.1269-0.1269h0.0423l0.1269-0.1269h0.0423l0.0846-0.0846h0.0423l0.0423-0.0423h0.127l0.0423-0.0423z" fill="none" stroke="#1f1a17" stroke-linecap="round" stroke-linejoin="round" stroke-miterlimit="10" stroke-width=".075565"/>
  <path d="m125.46 164.88h0.16933l0.0423 0.0423h0.127l0.0423 0.0423h0.0423l0.0423 0.0423h0.0423l0.0846 0.0846h0.0847v0.0423l0.2538 0.2538v0.0423l0.0423 0.0423v0.0423l0.0423 0.0423v0.0423l0.0423 0.0847v0.0423l0.0423 0.0423v0.46567l-0.0423 0.0423v0.0423l-0.0423 0.0847v0.0423l-0.0423 0.0423v0.0423l-0.0423 0.0423v0.0423l-0.2538 0.2538v0.0423h-0.0847l-0.0846 0.0846h-0.0423l-0.0423 0.0423h-0.0423l-0.0423 0.0423h-0.127l-0.0423 0.0423h-0.33866l-0.0423-0.0423h-0.127l-0.0423-0.0423h-0.0423l-0.0423-0.0423h-0.0847l-0.0846-0.0846h-0.0423l-0.1269-0.1269v-0.0423l-0.1269-0.1269v-0.0423l-0.0846-0.0846v-0.0423l-0.0423-0.0423v-0.127l-0.0423-0.0423v-0.46567l0.0423-0.0423v-0.127l0.0423-0.0423v-0.0423l0.0846-0.0846v-0.0423l0.1269-0.1269v-0.0423l0.1269-0.1269h0.0423l0.0846-0.0846h0.0847l0.0423-0.0423h0.0423l0.0423-0.0423h0.127l0.0423-0.0423h0.16933" fill="#85c225" fill-rule="evenodd"/>
  <path d="m125.46 164.88h0.16933l0.0423 0.0423h0.127l0.0423 0.0423h0.0423l0.0423 0.0423h0.0423l0.0846 0.0846h0.0847v0.0423l0.2538 0.2538v0.0423l0.0423 0.0423v0.0423l0.0423 0.0423v0.0423l0.0423 0.0847v0.0423l0.0423 0.0423v0.46567l-0.0423 0.0423v0.0423l-0.0423 0.0847v0.0423l-0.0423 0.0423v0.0423l-0.0423 0.0423v0.0423l-0.2538 0.2538v0.0423h-0.0847l-0.0846 0.0846h-0.0423l-0.0423 0.0423h-0.0423l-0.0423 0.0423h-0.127l-0.0423 0.0423h-0.33866l-0.0423-0.0423h-0.127l-0.0423-0.0423h-0.0423l-0.0423-0.0423h-0.0847l-0.0846-0.0846h-0.0423l-0.1269-0.1269v-0.0423l-0.1269-0.1269v-0.0423l-0.0846-0.0846v-0.0423l-0.0423-0.0423v-0.127l-0.0423-0.0423v-0.46567l0.0423-0.0423v-0.127l0.0423-0.0423v-0.0423l0.0846-0.0846v-0.0423l0.1269-0.1269v-0.0423l0.1269-0.1269h0.0423l0.0846-0.0846h0.0847l0.0423-0.0423h0.0423l0.0423-0.0423h0.127l0.0423-0.0423z" fill="none" stroke="#1f1a17" stroke-linecap="round" stroke-linejoin="round" stroke-miterlimit="10" stroke-width=".075565"/>
 </g>
</svg>
