<?xml version="1.0" encoding="UTF-8"?>
<!-- Created with Inkscape (http://www.inkscape.org/) -->
<svg width="13.035mm" height="39.802mm" version="1.1" viewBox="0 0 13.035 39.802" xmlns="http://www.w3.org/2000/svg">
 <defs>
  <clipPath id="clipPath151">
   <path transform="translate(-2386 -5240.7)" d="m2232 5240.7h308v-310h-308z"/>
  </clipPath>
 </defs>
 <g transform="translate(-62.971 -121.71)">
  <g stroke="#1f1a17" stroke-linecap="round" stroke-linejoin="round" stroke-miterlimit="10">
   <g stroke-width=".077428">
    <path d="m64.495 146.6v0.21167l0.04233 0.0847v0.21167l0.12699 0.2541v0.0847l0.04233 0.0847 0.08467 0.0847 0.08466 0.1694 0.04233 0.0423 0.08467 0.0847 0.04233 0.0847 0.08467 0.0423 0.04233 0.0423 0.08467 0.0847 0.67736 0.3384h0.16933l0.127 0.0423h0.381l0.08467-0.0423h0.21167l0.59269-0.2961 0.04233-0.0423 0.08467-0.0847 0.08467-0.0423 0.04233-0.0423 0.08467-0.0847 0.04233-0.0847 0.08467-0.0423 0.29631-0.5929v-0.0847l0.04233-0.127v-0.16933l0.04233-0.127v-3.3443l-0.04233-0.127v-0.16933l-0.04233-0.0847v-0.127l-0.25398-0.5082-0.04233-0.0423-0.08467-0.0847-0.04233-0.0847-0.08467-0.0423-0.04233-0.0847-0.08467-0.0423-0.08467-0.0847-0.04233-0.0423-0.50802-0.2538h-0.08467l-0.127-0.0423h-0.08467l-0.08467-0.0423h-0.381l-0.127 0.0423h-0.08467l-0.08467 0.0423h-0.08467l-0.59269 0.2961-0.08467 0.0847-0.04233 0.0423-0.08467 0.0847-0.04233 0.0423-0.08467 0.0847-0.04233 0.0847-0.04233 0.0423-0.04233 0.0847-0.08467 0.0847-0.04233 0.0847v0.0847l-0.08466 0.1694-0.04233 0.127v0.16934l-0.04233 0.0847v3.3867" fill="#848382" fill-rule="evenodd"/>
    <path d="m64.96 146.73v-0.21167l0.04233-0.0847v-0.127l0.04233-0.0847 0.04233-0.0423v-0.0847l0.08466-0.0846 0.04233-0.0847 0.04233-0.0423v-0.0423l0.08467-0.0423 0.04233-0.0847 0.16932-0.1692h0.08467l0.04233-0.0423 0.08467-0.0423 0.04233-0.0423h0.08467l0.04233-0.0423h0.08467l0.04233-0.0423h0.59267l0.04233 0.0423h0.08467l0.04233 0.0423h0.08467l0.04233 0.0423 0.08467 0.0423 0.04233 0.0423h0.04233l0.08467 0.0423 0.12699 0.1269 0.04233 0.0847 0.12699 0.1269 0.04233 0.0847 0.08466 0.0846v0.0847l0.04233 0.0423v0.0847l0.04233 0.0423v0.16933l0.04233 0.0423v0.29633l-0.04233 0.0847v0.127l-0.04233 0.0423v0.0847l-0.04233 0.0423v0.0847l-0.04233 0.0423-0.04233 0.0847-0.08466 0.0846-0.04233 0.0847-0.21165 0.2115-0.08467 0.0423-0.08466 0.0846h-0.08467l-0.04233 0.0423-0.08467 0.0423h-0.127l-0.04233 0.0423h-0.21167l-0.08467 0.0423-0.08467-0.0423h-0.21167l-0.04233-0.0423h-0.127l-0.08467-0.0423-0.04233-0.0423h-0.08467l-0.04233-0.0423-0.08467-0.0423-0.21165-0.2115-0.08467-0.0423v-0.0847l-0.08466-0.0846-0.04233-0.0847-0.04233-0.0423v-0.0847l-0.04233-0.0423-0.04233-0.0847v-0.127l-0.04233-0.0423z" fill="none"/>
    <path d="m64.96 143.47v-0.21167l0.04233-0.0847v-0.127l0.04233-0.0423 0.04233-0.0847v-0.0423l0.04233-0.0847 0.04233-0.0423 0.04233-0.0847 0.04233-0.0423v-0.0423l0.08467-0.0423 0.21165-0.2115 0.08467-0.0423 0.04233-0.0423 0.08467-0.0423h0.04233l0.08467-0.0423 0.04233-0.0423h0.127l0.08467-0.0423h0.42333l0.08467 0.0423h0.127l0.04233 0.0423 0.08467 0.0423h0.04233l0.08467 0.0423 0.08466 0.0846 0.08467 0.0423 0.29631 0.2961 0.04233 0.0847 0.04233 0.0423 0.04233 0.0847v0.0423l0.04233 0.0847v0.0423l0.04233 0.0847v0.127l0.04233 0.0847v0.254l-0.04233 0.0847v0.127l-0.04233 0.0847v0.0423l-0.04233 0.0847v0.0423l-0.04233 0.0847-0.08466 0.0846-0.04233 0.0847-0.25398 0.2538-0.08467 0.0423-0.08466 0.0846-0.08467 0.0423h-0.04233l-0.08467 0.0423h-0.04233l-0.08467 0.0423h-0.127l-0.08467 0.0423h-0.254l-0.08467-0.0423h-0.127l-0.08467-0.0423h-0.04233l-0.08467-0.0423h-0.04233l-0.08467-0.0423-0.04233-0.0423-0.08467-0.0423-0.21165-0.2115-0.08467-0.0423v-0.0423l-0.04233-0.0847-0.08466-0.0846-0.04233-0.0847v-0.0423l-0.04233-0.0847-0.04233-0.0423v-0.127l-0.04233-0.0847z" fill="none"/>
    <path d="m70.76 139.4v0.29633l0.04233 0.0847v0.0847l0.04233 0.0847v0.127l0.16932 0.3388 0.04233 0.0423 0.08467 0.0847 0.08466 0.1694 0.08467 0.0423 0.04233 0.0847 0.08467 0.0423 0.08467 0.0847 0.08467 0.0423 0.04233 0.0423 0.33868 0.1692 0.127 0.0423h0.08467l0.08467 0.0423h0.16933l0.127 0.0423h0.16933l0.127-0.0423h0.16933l0.08467-0.0423h0.08467l0.08467-0.0423 0.127-0.0423 0.08467-0.0423 0.04233-0.0423 0.25401-0.1269 0.08467-0.0847 0.04233-0.0423 0.08467-0.0847 0.04233-0.0423 0.08467-0.0847 0.04233-0.0847 0.08467-0.0847 0.04233-0.0423 0.16932-0.3388v-0.127l0.04233-0.0847v-0.0847l0.04233-0.0847v-3.7677l-0.04233-0.127v-0.0847l-0.04233-0.0847v-0.0847l-0.21165-0.4235-0.08467-0.0847-0.04233-0.0423-0.08467-0.0847-0.04233-0.0847-0.08467-0.0423-0.04233-0.0847-0.16934-0.0846-0.08467-0.0847-0.08467-0.0423-0.04233-0.0423-0.08467-0.0423h-0.127l-0.16934-0.0846h-0.08467l-0.08467-0.0423h-0.59267l-0.08467 0.0423h-0.08467l-0.08467 0.0423-0.127 0.0423h-0.08467l-0.25401 0.1269-0.04233 0.0847-0.16934 0.0846-0.08467 0.0847-0.04233 0.0423-0.08467 0.0847-0.04233 0.0847-0.04233 0.0423-0.08467 0.0847-0.21165 0.4235v0.0847l-0.04233 0.0847v0.0847l-0.04233 0.127v3.4713" fill="#848382" fill-rule="evenodd"/>
    <path d="m71.226 139.49v-0.254l0.04233-0.0847v-0.0423l0.04233-0.0847v-0.0423l0.04233-0.0847 0.04233-0.0423v-0.0847l0.08466-0.0846 0.04233-0.0847 0.12699-0.1269 0.08467-0.0423 0.12699-0.1269 0.08467-0.0423h0.04233l0.08467-0.0423 0.04233-0.0423h0.08467l0.04233-0.0423h0.21167l0.08467-0.0423h0.127l0.08467 0.0423h0.21167l0.04233 0.0423h0.08467l0.04233 0.0423 0.08467 0.0423h0.04233l0.08467 0.0423 0.08466 0.0846 0.08467 0.0423 0.16932 0.1692 0.04233 0.0847 0.08466 0.0846 0.04233 0.0847v0.0423l0.04233 0.0847v0.0423l0.04233 0.0847v0.0423l0.04233 0.0847v0.55033l-0.04233 0.0847v0.0423l-0.04233 0.0847v0.0423l-0.04233 0.0847v0.0423l-0.04233 0.0423-0.04233 0.0847-0.12699 0.1269-0.04233 0.0847-0.08466 0.0846-0.08467 0.0423-0.04233 0.0423h-0.04233l-0.08467 0.0423-0.04233 0.0423-0.08467 0.0423h-0.04233l-0.08467 0.0423h-0.04233l-0.08467 0.0423h-0.55033l-0.08467-0.0423h-0.04233l-0.08467-0.0423h-0.04233l-0.08467-0.0423-0.04233-0.0423-0.08467-0.0423h-0.04233l-0.08466-0.0846-0.08467-0.0423-0.04233-0.0423-0.04233-0.0847-0.12699-0.1269-0.04233-0.0847v-0.0423l-0.04233-0.0423-0.04233-0.0847v-0.0423l-0.04233-0.0847v-0.0423l-0.04233-0.0847z" fill="none"/>
    <path d="m71.226 136.27v-0.29633l0.04233-0.0847v-0.0423l0.04233-0.0847v-0.0423l0.04233-0.0847 0.04233-0.0423v-0.0423l0.04233-0.0847 0.08466-0.0846 0.04233-0.0847 0.08466-0.0846 0.08467-0.0423 0.12699-0.1269h0.08467l0.04233-0.0423 0.08467-0.0423h0.04233l0.08467-0.0423h0.04233l0.08467-0.0423h0.55033l0.08467 0.0423h0.04233l0.08467 0.0423h0.04233l0.08467 0.0423 0.04233 0.0423h0.08467l0.08466 0.0846 0.08467 0.0423 0.12699 0.1269 0.04233 0.0847 0.08466 0.0846 0.04233 0.0847 0.04233 0.0423v0.0423l0.04233 0.0847v0.0423l0.04233 0.0847v0.0423l0.04233 0.0847v0.55033l-0.04233 0.0847v0.0423l-0.04233 0.0847v0.0423l-0.04233 0.0847v0.0423l-0.04233 0.0847-0.08466 0.0846-0.04233 0.0847-0.16932 0.1692-0.08467 0.0423-0.08466 0.0846-0.08467 0.0423h-0.04233l-0.08467 0.0423h-0.04233l-0.08467 0.0423h-0.04233l-0.08467 0.0423h-0.55033l-0.08467-0.0423h-0.04233l-0.08467-0.0423h-0.04233l-0.08467-0.0423h-0.04233l-0.08467-0.0423-0.12699-0.1269-0.08467-0.0423-0.12699-0.1269-0.04233-0.0847-0.08466-0.0846v-0.0847l-0.04233-0.0423-0.04233-0.0847v-0.0423l-0.04233-0.0847v-0.0423l-0.04233-0.0847z" fill="none"/>
   </g>
   <path d="m68.77 161.46h1.397v-27.474h-1.397z" fill="#848382" fill-rule="evenodd" stroke-width=".1024"/>
  </g>
  <path d="m69.49 121.71 0.29633 0.0423h0.33867l0.33867 0.0423 0.29633 0.0847 0.33867 0.0423 0.29633 0.0847 0.29633 0.127 0.29633 0.0847 0.29633 0.16933 0.29633 0.127 0.762 0.508 0.254 0.16934 0.21167 0.21166 0.254 0.21167 0.21167 0.254 0.21167 0.21167 0.67733 1.016 0.16933 0.29633 0.127 0.29633 0.08467 0.29634 0.127 0.29633 0.08467 0.29633 0.08467 0.33867 0.04233 0.29633 0.04233 0.33867v0.33867l0.04233 0.29633-0.04233 0.33867v0.33866l-0.04233 0.33867-0.04233 0.29633-0.08467 0.33867-0.08467 0.29633-0.127 0.29634-0.08467 0.29633-0.127 0.29633-0.16933 0.254-0.16933 0.29634-0.16933 0.254-0.33867 0.508-0.21167 0.21166-0.21167 0.21167-0.254 0.254-0.21167 0.16933-0.254 0.21167-0.508 0.33867-0.254 0.16933-0.889 0.381-0.59267 0.1694-0.33867 0.0847-0.29633 0.0847-0.33867 0.0423h-1.3123l-0.33867-0.0423-0.29633-0.0847-0.33867-0.0847-0.59267-0.1694-0.59267-0.254-0.254-0.127-0.29633-0.16933-0.508-0.33867-0.254-0.21167-0.21167-0.16933-0.254-0.254-0.42333-0.42333-0.16933-0.254-0.33867-0.508-0.16933-0.29634-0.127-0.254-0.16933-0.29633-0.08467-0.29633-0.127-0.29634-0.08467-0.29633-0.04233-0.33867-0.08467-0.29633-0.04233-0.33867v-0.33866l-0.04233-0.33867 0.04233-0.29633v-0.33867l0.04233-0.33867 0.08467-0.29633 0.04233-0.33867 0.08467-0.29633 0.127-0.29633 0.08467-0.29634 0.16933-0.29633 0.127-0.29633 0.508-0.762 0.16933-0.254 0.21167-0.21167 0.21167-0.254 0.254-0.21167 0.21167-0.21166 0.254-0.16934 0.508-0.33866 0.29633-0.16934 0.254-0.127 0.29633-0.16933 0.29633-0.0847 0.29633-0.127 0.29633-0.0847 0.33867-0.0423 0.29633-0.0847 0.33867-0.0423h0.33867l0.33867-0.0423" fill="#fff" fill-rule="evenodd"/>
  <path transform="matrix(.042333 0 0 -.042333 69.49 121.71)" d="m0 0 7-1h8l8-1 7-2 8-1 7-2 7-3 7-2 7-4 7-3 24-16 5-5 6-5 5-6 5-5 16-24 4-7 3-7 2-7 3-7 2-7 2-8 1-7 1-8v-8l1-7-1-8v-8l-1-8-1-7-2-8-2-7-3-7-2-7-3-7-4-6-4-7-12-18-16-16-5-4-6-5-18-12-21-9-14-4-8-2-7-2-8-1h-31l-8 1-7 2-8 2-14 4-14 6-6 3-7 4-12 8-6 5-5 4-16 16-12 18-4 7-3 6-4 7-2 7-3 7-2 7-1 8-2 7-1 8v8l-1 8 1 7v8l1 8 2 7 1 8 2 7 3 7 2 7 4 7 3 7 16 24 5 5 5 6 6 5 5 5 18 12 7 4 6 3 7 4 7 2 7 3 7 2 8 1 7 2 8 1h8z" clip-path="url(#clipPath151)" fill="none" stroke="#1f1a17" stroke-linecap="round" stroke-linejoin="round" stroke-miterlimit="10" stroke-width="1.829"/>
  <g fill-rule="evenodd">
   <path d="m69.49 122.72h0.55033l0.254 0.0423 0.29633 0.0423 1.016 0.3388 0.254 0.127 0.21167 0.0847 0.254 0.16933 0.21167 0.127 0.21167 0.16934 0.21167 0.127 0.21167 0.16933 0.16933 0.21167 0.21167 0.16933 0.16933 0.21167 0.127 0.21166 0.16933 0.21167 0.127 0.21167 0.16933 0.254 0.08467 0.21166 0.127 0.254 0.33868 1.016 0.04233 0.29634 0.04233 0.254v1.143l-0.08466 0.508-0.08467 0.29633-0.25401 0.762-0.127 0.254-0.08467 0.21167-0.16933 0.254-0.127 0.21166-0.16933 0.21167-0.127 0.21167-0.381 0.381-0.16933 0.16933-0.42333 0.33867-0.21167 0.16933-0.21167 0.127-0.254 0.127-0.21167 0.127-0.254 0.127-0.762 0.2541-0.254 0.0423-0.29633 0.0423-0.254 0.0423-0.29633 0.0423h-0.55033l-0.29633-0.0423-0.254-0.0423-0.29633-0.0423-0.254-0.0423-0.762-0.2541-0.254-0.127-0.21167-0.127-0.254-0.127-0.21167-0.127-0.21167-0.16933-0.21167-0.16934-0.21167-0.16933-0.16933-0.16933-0.16933-0.21167-0.21167-0.16933-0.127-0.21167-0.16933-0.21167-0.127-0.21166-0.127-0.254-0.127-0.21167-0.127-0.254-0.25401-0.762-0.08467-0.29633-0.08466-0.508v-1.143l0.04233-0.254 0.04233-0.29634 0.33868-1.016 0.127-0.254 0.127-0.21166 0.127-0.254 0.127-0.21167 0.16933-0.21167 0.127-0.21166 0.21167-0.21167 0.16933-0.16933 0.16933-0.21167 0.21167-0.16933 0.21167-0.127 0.21167-0.16934 0.21167-0.127 0.254-0.16933 0.21167-0.0847 0.254-0.127 1.016-0.3388 0.29633-0.0423 0.254-0.0423h0.59267" fill="#1f1a17"/>
   <path d="m69.49 123.44h0.46567l0.254 0.0423 0.21167 0.0423 0.254 0.0423 0.21167 0.0847 0.21167 0.0423 0.21167 0.0847 0.21167 0.127 0.21167 0.0847 0.42333 0.254 0.33867 0.254 0.16933 0.16934 0.33867 0.33866 0.16933 0.16934 0.254 0.33866 0.254 0.42334 0.08467 0.16933 0.08467 0.21167 0.08467 0.254 0.08467 0.21166 0.08467 0.21167 0.04233 0.254 0.04233 0.21167 0.04233 0.254v0.97366l-0.04233 0.21167-0.04233 0.254-0.04233 0.21167-0.08467 0.254-0.08467 0.21166-0.16934 0.42334-0.08467 0.21166-0.127 0.21167-0.127 0.16933-0.127 0.21167-0.127 0.16933-0.16933 0.16934-0.33867 0.33866-0.16933 0.127-0.16933 0.16934-0.16933 0.127-0.21167 0.127-0.21167 0.0847-0.21167 0.127-0.635 0.2541-0.21167 0.0423-0.254 0.0847-0.21167 0.0423h-0.254l-0.254 0.0423h-0.46567l-0.254-0.0423h-0.254l-0.21167-0.0423-0.254-0.0847-0.21167-0.0423-0.635-0.2541-0.21167-0.127-0.21167-0.0847-0.21167-0.127-0.16933-0.127-0.16933-0.16934-0.16933-0.127-0.33867-0.33866-0.16933-0.16934-0.127-0.16933-0.127-0.21167-0.127-0.16933-0.127-0.21167-0.08467-0.21166-0.16934-0.42334-0.08467-0.21166-0.08467-0.254-0.04233-0.21167-0.04233-0.254-0.04233-0.21167v-0.97366l0.04233-0.254 0.04233-0.21167 0.04233-0.254 0.08467-0.21167 0.08467-0.21166 0.08467-0.254 0.08467-0.21167 0.08467-0.16933 0.254-0.42334 0.254-0.33866 0.16933-0.16934 0.33867-0.33866 0.16933-0.16934 0.33867-0.254 0.42333-0.254 0.21167-0.0847 0.21167-0.127 0.21167-0.0847 0.21167-0.0423 0.21167-0.0847 0.254-0.0423 0.21167-0.0423 0.254-0.0423h0.508" fill="#f8c300"/>
   <path d="m69.405 154.9 1.524-1.524v-17.018h-2.921v17.018l1.397 1.524" fill="#fff" stroke="#1f1a17" stroke-linecap="round" stroke-linejoin="round" stroke-miterlimit="10" stroke-width=".077428"/>
   <path d="m69.405 154.09 0.97367-1.0583v-15.875h-1.778l0.04233 15.917 0.762 1.016" fill="#f8c300" stroke="#1f1a17" stroke-linecap="round" stroke-linejoin="round" stroke-miterlimit="10" stroke-width=".30472"/>
  </g>
 </g>
</svg>
