<?xml version="1.0" encoding="UTF-8"?>
<!-- Created with Inkscape (http://www.inkscape.org/) -->
<svg width="17.695mm" height="43.857mm" version="1.1" viewBox="0 0 17.695 43.857" xmlns="http://www.w3.org/2000/svg">
 <defs>
  <clipPath id="clipPath510">
   <path transform="translate(.00020833 .00020833)" d="m2177 4125.7h418v-1036h-418z"/>
  </clipPath>
 </defs>
 <g transform="translate(-120.65 -160.87)">
  <path transform="matrix(.042333 0 0 -.042333 28.49 335.52)" d="m2177 3089.7h418v1036h-418z" clip-path="url(#clipPath510)" fill="#bfbfbf" fill-rule="evenodd"/>
  <path d="m128.86 202.52h1.4393v-35.348h-1.4393z" fill="#7e7e7e" fill-rule="evenodd"/>
  <path d="m130.3 167.17v35.348h-1.4393v-35.348h1.4393" fill="none" stroke="#000" stroke-miterlimit="10" stroke-width=".042333"/>
  <path d="m131.61 178.86 0.33867 0.16933 0.33866 0.127 0.381 0.0423 0.381-0.0423 0.29634-0.0847 0.381-0.16934 0.29633-0.21166 0.254-0.29634 0.16933-0.33866 0.127-0.33867 0.0423-0.381-0.0423-0.381-0.0847-0.33867-0.16934-0.33866-0.21166-0.29634-0.29634-0.254-2.6247-1.8203-0.33867-0.21167-0.33867-0.0847-0.381-0.0423h-0.381l-0.33866 0.127-0.33867 0.16934-0.29633 0.21166-0.254 0.29634-0.21167 0.33866-0.127 0.33867v0.762l0.127 0.33867 0.16933 0.33866 0.21167 0.29634 0.29633 0.254 2.6247 1.8203" fill="#7e7e7e" fill-rule="evenodd"/>
  <path d="m131.61 178.86 0.33867 0.16933 0.33866 0.127 0.381 0.0423 0.381-0.0423 0.29634-0.0847 0.381-0.16934 0.29633-0.21166 0.254-0.29634 0.16933-0.33866 0.127-0.33867 0.0423-0.381-0.0423-0.381-0.0847-0.33867-0.16934-0.33866-0.21166-0.29634-0.29634-0.254-2.6247-1.8203-0.33867-0.21167-0.33867-0.0847-0.381-0.0423h-0.381l-0.33866 0.127-0.33867 0.16934-0.29633 0.21166-0.254 0.29634-0.21167 0.33866-0.127 0.33867v0.762l0.127 0.33867 0.16933 0.33866 0.21167 0.29634 0.29633 0.254 2.6247 1.8203" fill="none" stroke="#000" stroke-miterlimit="10" stroke-width=".042333"/>
  <path d="m131.95 178.48-0.21167-0.16933-0.16933-0.21167-0.127-0.254-0.0846-0.508 0.0846-0.508 0.127-0.254 0.21167-0.21167 0.21166-0.16933 0.21167-0.127 0.29633-0.0423 0.254-0.0423 0.29634 0.0423 0.254 0.0847 0.254 0.127 0.16933 0.16934 0.21167 0.21166 0.1694 0.508v0.55034l-0.254 0.508-0.16933 0.21166-0.21167 0.16934-0.21167 0.0847-0.29633 0.0847h-0.508l-0.254-0.0847-0.254-0.16933" fill="#0f0" fill-rule="evenodd"/>
  <path d="m131.95 178.48-0.21167-0.16933-0.16933-0.21167-0.127-0.254-0.0846-0.508 0.0846-0.508 0.127-0.254 0.21167-0.21167 0.21166-0.16933 0.21167-0.127 0.29633-0.0423 0.254-0.0423 0.29634 0.0423 0.254 0.0847 0.254 0.127 0.16933 0.16934 0.21167 0.21166 0.1694 0.508v0.55034l-0.254 0.508-0.16933 0.21166-0.21167 0.16934-0.21167 0.0847-0.29633 0.0847h-0.508l-0.254-0.0847-0.254-0.16933" fill="none" stroke="#000" stroke-miterlimit="10" stroke-width=".042333"/>
  <path d="m129.29 176.66-0.21167-0.16933-0.16933-0.254-0.127-0.254-0.0847-0.254v-0.508l0.0847-0.254 0.127-0.254 0.21167-0.16934 0.21166-0.21166 0.21167-0.0847 0.29633-0.0847h0.55034l0.254 0.0847 0.21166 0.16933 0.21167 0.16934 0.16933 0.21166 0.127 0.254 0.0847 0.254v0.508l-0.0847 0.254-0.16933 0.254-0.16933 0.16934-0.21167 0.21166-0.508 0.1694h-0.508l-0.254-0.0847-0.254-0.127" fill="none" stroke="#000" stroke-miterlimit="10" stroke-width=".042333"/>
  <path d="m123.1 167.17h12.996v-0.889h-12.996z" fill="#7e7e7e" fill-rule="evenodd"/>
  <path d="m123.1 166.29h12.996v0.889h-12.996v-0.889" fill="none" stroke="#000" stroke-miterlimit="10" stroke-width=".042333"/>
  <path d="m128.02 191.18 0.381 0.21167 0.381 0.0847 0.33867 0.0423h0.381l0.381-0.127 0.33866-0.16934 0.29634-0.21166 0.254-0.29634 0.16933-0.33866 0.127-0.33867 0.0423-0.381-0.0423-0.33867-0.127-0.381-0.127-0.33866-0.254-0.29634-0.29633-0.254-2.5823-1.8203-0.381-0.16933-0.381-0.127-0.33866-0.0423-0.381 0.0423-0.33867 0.0847-0.33867 0.16934-0.254 0.21166-0.254 0.29634-0.21166 0.33866-0.127 0.381-0.0423 0.33867 0.0423 0.381 0.0847 0.33867 0.16934 0.33866 0.254 0.29634 0.29633 0.254 2.54 1.8203" fill="#7e7e7e" fill-rule="evenodd"/>
  <path d="m128.02 191.18 0.381 0.21167 0.381 0.0847 0.33867 0.0423h0.381l0.381-0.127 0.33866-0.16934 0.29634-0.21166 0.254-0.29634 0.16933-0.33866 0.127-0.33867 0.0423-0.381-0.0423-0.33867-0.127-0.381-0.127-0.33866-0.254-0.29634-0.29633-0.254-2.5823-1.8203-0.381-0.16933-0.381-0.127-0.33866-0.0423-0.381 0.0423-0.33867 0.0847-0.33867 0.16934-0.254 0.21166-0.254 0.29634-0.21166 0.33866-0.127 0.381-0.0423 0.33867 0.0423 0.381 0.0847 0.33867 0.16934 0.33866 0.254 0.29634 0.29633 0.254 2.54 1.8203" fill="none" stroke="#000" stroke-miterlimit="10" stroke-width=".042333"/>
  <path d="m128.4 190.84-0.21167-0.16933-0.16933-0.21167-0.127-0.254-0.0846-0.508 0.0423-0.254 0.0847-0.29633 0.16934-0.21167 0.16933-0.21167 0.21167-0.16933 0.21166-0.127 0.254-0.0847h0.55034l0.508 0.254 0.21166 0.16934 0.16934 0.21166 0.127 0.254 0.0847 0.254v0.254l-0.0423 0.29634-0.0423 0.254-0.16934 0.254-0.16933 0.21166-0.21167 0.127-0.254 0.127-0.254 0.0847h-0.55033l-0.508-0.254" fill="none" stroke="#000" stroke-miterlimit="10" stroke-width=".042333"/>
  <path d="m125.73 188.98-0.16933-0.16933-0.16934-0.21167-0.127-0.254-0.0846-0.508 0.0423-0.29633 0.0423-0.254 0.127-0.21167 0.16934-0.21167 0.21166-0.16933 0.254-0.127 0.508-0.0846 0.254 0.0423 0.29634 0.0423 0.21166 0.127 0.21167 0.21167 0.16933 0.21166 0.127 0.254 0.0847 0.29634 0.0423 0.254-0.0423 0.254-0.0847 0.254-0.127 0.254-0.381 0.381-0.508 0.1694h-0.29633l-0.254-0.0423-0.254-0.0847-0.254-0.127" fill="#0f0" fill-rule="evenodd"/>
  <path d="m125.73 188.98-0.16933-0.16933-0.16934-0.21167-0.127-0.254-0.0846-0.508 0.0423-0.29633 0.0423-0.254 0.127-0.21167 0.16934-0.21167 0.21166-0.16933 0.254-0.127 0.508-0.0846 0.254 0.0423 0.29634 0.0423 0.21166 0.127 0.21167 0.21167 0.16933 0.21166 0.127 0.254 0.0847 0.29634 0.0423 0.254-0.0423 0.254-0.0847 0.254-0.127 0.254-0.381 0.381-0.508 0.1694h-0.29633l-0.254-0.0423-0.254-0.0847-0.254-0.127" fill="none" stroke="#000" stroke-miterlimit="10" stroke-width=".042333"/>
 </g>
</svg>
