<?xml version="1.0" encoding="UTF-8"?>
<!-- Created with Inkscape (http://www.inkscape.org/) -->
<svg width="17.695mm" height="43.857mm" version="1.1" viewBox="0 0 17.695 43.857" xmlns="http://www.w3.org/2000/svg">
 <defs>
  <clipPath id="clipPath391">
   <path transform="translate(-.00020833 .00020833)" d="m2177 3780.7h418v-1036h-418z"/>
  </clipPath>
 </defs>
 <g transform="translate(-125.94 -159.28)">
  <g fill-rule="evenodd">
   <path transform="matrix(.042333 0 0 -.042333 33.782 319.33)" d="m2177 2744.7h418v1036h-418z" clip-path="url(#clipPath391)" fill="#b6b5b4"/>
   <path d="m130.17 186.08v0.29633l0.0423 0.127v0.0847l0.0846 0.1694v0.0847l0.1269 0.2541 0.0847 0.0847 0.0846 0.1694 0.0847 0.0423 0.0423 0.0847 0.0847 0.0423 0.0423 0.0847 0.1694 0.0846 0.127 0.127 0.1694 0.0846 0.127 0.0423h0.0847l0.0847 0.0423h0.0847l0.0847 0.0423h0.59266l0.0847-0.0423h0.0847l0.127-0.0423h0.0847l0.3388-0.1692 0.0423-0.0847 0.1694-0.0846 0.0423-0.0847 0.0847-0.0423 0.127-0.127 0.0423-0.0847 0.0847-0.0847 0.2115-0.4235v-0.0847l0.0846-0.1694v-0.29633l0.0423-0.127v-3.175l-0.0423-0.0847v-0.29633l-0.0846-0.1694v-0.0847l-0.2115-0.4235-0.0847-0.0847-0.0423-0.0847-0.127-0.127-0.0847-0.0423-0.0423-0.0847-0.0847-0.0423-0.127-0.127-0.3388-0.1692h-0.0847l-0.127-0.0423h-0.0847l-0.0847-0.0423h-0.59266l-0.0847 0.0423h-0.0847l-0.0847 0.0423h-0.0847l-0.127 0.0423-0.1694 0.0846-0.0423 0.0423-0.0847 0.0423-0.0847 0.0847-0.0847 0.0423-0.0423 0.0847-0.0847 0.0423-0.0423 0.0847-0.0847 0.0423-0.0846 0.1694-0.0847 0.0847-0.1269 0.2541v0.0847l-0.0846 0.1694v0.0847l-0.0423 0.0847v3.4713" fill="#848382" stroke="#1f1a17" stroke-linecap="round" stroke-linejoin="round" stroke-miterlimit="10" stroke-width=".074676"/>
   <path d="m130.64 186.2v-0.21167l0.0423-0.0847v-0.127l0.0423-0.0423v-0.0847l0.0423-0.0423 0.0423-0.0847 0.0423-0.0423v-0.0423l0.0423-0.0847 0.0846-0.0846 0.0847-0.0423 0.1692-0.1692 0.0847-0.0423 0.0846-0.0846h0.0847l0.0423-0.0423h0.0847l0.0847-0.0423h0.127l0.0423-0.0423h0.29633l0.0847 0.0423h0.127l0.0847 0.0423h0.0423l0.0847 0.0423h0.0423l0.0423 0.0423 0.0847 0.0423 0.0846 0.0846 0.0847 0.0423 0.2115 0.2115 0.0423 0.0847 0.0846 0.0846v0.0847l0.0423 0.0423 0.0423 0.0847v0.0423l0.0423 0.0847v0.21167l0.0423 0.0423v0.16934l-0.0423 0.0423v0.21167l-0.0423 0.0847v0.0423l-0.0423 0.0847-0.0423 0.0423v0.0847l-0.0846 0.0846-0.0423 0.0847-0.2115 0.2115-0.0847 0.0423-0.0846 0.0846-0.0847 0.0423-0.0423 0.0423h-0.0423l-0.0847 0.0423h-0.0423l-0.0847 0.0423h-0.0847l-0.0423 0.0423h-0.42334l-0.0847-0.0423h-0.0423l-0.0847-0.0423h-0.0847l-0.0423-0.0423h-0.0847l-0.0846-0.0846-0.0847-0.0423-0.1692-0.1692-0.0847-0.0423-0.0846-0.0846-0.0423-0.0847v-0.0423l-0.0423-0.0423-0.0423-0.0847-0.0423-0.0423v-0.0847l-0.0423-0.0423v-0.127l-0.0423-0.0847v-0.21167" fill="#fff500"/>
  </g>
  <g stroke="#1f1a17" stroke-linecap="round" stroke-linejoin="round" stroke-miterlimit="10">
   <path d="m130.64 186.2v-0.21167l0.0423-0.0847v-0.127l0.0423-0.0423v-0.0847l0.0423-0.0423 0.0423-0.0847 0.0423-0.0423v-0.0423l0.0423-0.0847 0.0846-0.0846 0.0847-0.0423 0.1692-0.1692 0.0847-0.0423 0.0846-0.0846h0.0847l0.0423-0.0423h0.0847l0.0847-0.0423h0.127l0.0423-0.0423h0.29633l0.0847 0.0423h0.127l0.0847 0.0423h0.0423l0.0847 0.0423h0.0423l0.0423 0.0423 0.0847 0.0423 0.0846 0.0846 0.0847 0.0423 0.2115 0.2115 0.0423 0.0847 0.0846 0.0846v0.0847l0.0423 0.0423 0.0423 0.0847v0.0423l0.0423 0.0847v0.21167l0.0423 0.0423v0.16934l-0.0423 0.0423v0.21167l-0.0423 0.0847v0.0423l-0.0423 0.0847-0.0423 0.0423v0.0847l-0.0846 0.0846-0.0423 0.0847-0.2115 0.2115-0.0847 0.0423-0.0846 0.0846-0.0847 0.0423-0.0423 0.0423h-0.0423l-0.0847 0.0423h-0.0423l-0.0847 0.0423h-0.0847l-0.0423 0.0423h-0.42334l-0.0847-0.0423h-0.0423l-0.0847-0.0423h-0.0847l-0.0423-0.0423h-0.0847l-0.0846-0.0846-0.0847-0.0423-0.1692-0.1692-0.0847-0.0423-0.0846-0.0846-0.0423-0.0847v-0.0423l-0.0423-0.0423-0.0423-0.0847-0.0423-0.0423v-0.0847l-0.0423-0.0423v-0.127l-0.0423-0.0847z" fill="none" stroke-width=".074676"/>
   <path d="m130.64 182.94v-0.21167l0.0423-0.0423v-0.127l0.0423-0.0847v-0.0423l0.0423-0.0847 0.0423-0.0423 0.0423-0.0847v-0.0423l0.0423-0.0423 0.0423-0.0847 0.0423-0.0423 0.0847-0.0423 0.1692-0.1692 0.0847-0.0423 0.0423-0.0423h0.0423l0.0847-0.0423 0.0423-0.0423h0.16933l0.0423-0.0423h0.21166l0.0847-0.0423 0.0423 0.0423h0.21167l0.0847 0.0423h0.127l0.0847 0.0423 0.0423 0.0423h0.0423l0.0847 0.0423 0.0846 0.0846 0.0847 0.0423 0.1692 0.1692 0.0423 0.0847 0.0846 0.0846 0.0423 0.0847v0.0423l0.0423 0.0847 0.0423 0.0423v0.0847l0.0423 0.0423v0.21167l0.0423 0.0847v0.127l-0.0423 0.0847v0.21167l-0.0423 0.0423v0.0847l-0.0423 0.0423-0.0423 0.0847v0.0423l-0.0423 0.0423-0.0423 0.0847-0.1269 0.1269-0.0423 0.0847-0.0846 0.0846-0.0847 0.0423-0.0423 0.0423h-0.0423l-0.0847 0.0423-0.0846 0.0846h-0.0847l-0.0423 0.0423h-0.0847l-0.0847 0.0423h-0.55033l-0.0423-0.0423h-0.0847l-0.0847-0.0423h-0.0423l-0.0847-0.0423-0.0846-0.0846h-0.0847l-0.3808-0.3808v-0.0847l-0.0846-0.0846-0.0423-0.0847v-0.0423l-0.0423-0.0847v-0.127l-0.0423-0.0847z" fill="none" stroke-width=".074676"/>
   <path d="m134.45 200.94h1.397v-27.432h-1.397z" fill="#848382" fill-rule="evenodd" stroke-width=".098679"/>
  </g>
  <path d="m136.99 171.98-0.0847-0.0847-0.3388-0.1692-0.127-0.0423h-0.0847l-0.0847-0.0423h-0.16933l-0.127-0.0423h-0.254l-0.0847 0.0423h-0.21166l-0.0847 0.0423h-0.0847l-0.5082 0.2538-0.0423 0.0847-0.1694 0.0846-0.0847 0.0847-0.0846 0.1694-0.0847 0.0423-0.2115 0.4235-0.0423 0.127v0.0847l-0.0423 0.0847v0.0847l-0.0423 0.0847v0.381l0.0423 0.0847v0.16933l0.0423 0.127v0.0847l0.2538 0.5082 0.0847 0.0423 0.0423 0.0847 0.2117 0.2117 0.0847 0.0423 0.0847 0.0847 2.5823 1.8203 0.4235 0.2115 0.127 0.0423 0.0847 0.0423h0.16933l0.0847 0.0423h0.46567l0.0847-0.0423h0.21167l0.5929-0.2961 0.127-0.127 0.0847-0.0423 0.0423-0.0847 0.0847-0.0423 0.0423-0.0847 0.0847-0.0847 0.2961-0.5929v-0.21167l0.0423-0.0847v-0.46566l-0.0423-0.0847v-0.0847l-0.0423-0.0847v-0.0847l-0.2538-0.5082-0.0847-0.0847-0.0423-0.0847-0.0847-0.0423-0.0423-0.0847-0.0847-0.0423-0.0847-0.0847-0.0847-0.0423-2.5823-1.8203" fill="#848382" fill-rule="evenodd"/>
  <path d="m136.99 171.98v0l-0.0847-0.0847-0.3388-0.1692-0.127-0.0423h-0.0847l-0.0847-0.0423h-0.16933l-0.127-0.0423h-0.254l-0.0847 0.0423h-0.21166l-0.0847 0.0423h-0.0847l-0.5082 0.2538-0.0423 0.0847-0.1694 0.0846-0.0847 0.0847-0.0846 0.1694-0.0847 0.0423-0.2115 0.4235-0.0423 0.127v0.0847l-0.0423 0.0847v0.0847l-0.0423 0.0847v0.381l0.0423 0.0847v0.16933l0.0423 0.127v0.0847l0.2538 0.5082 0.0847 0.0423 0.0423 0.0847 0.2117 0.2117 0.0847 0.0423 0.0847 0.0847 2.5823 1.8203v0l0.4235 0.2115 0.127 0.0423 0.0847 0.0423h0.16933l0.0847 0.0423h0.46567l0.0847-0.0423h0.21167l0.5929-0.2961 0.127-0.127 0.0847-0.0423 0.0423-0.0847 0.0847-0.0423 0.0423-0.0847 0.0847-0.0847 0.2961-0.5929v-0.21167l0.0423-0.0847v-0.46566l-0.0423-0.0847v-0.0847l-0.0423-0.0847v-0.0847l-0.2538-0.5082-0.0847-0.0847-0.0423-0.0847-0.0847-0.0423-0.0423-0.0847-0.0847-0.0423-0.0847-0.0847-0.0847-0.0423z" fill="none" stroke="#1f1a17" stroke-linecap="round" stroke-linejoin="round" stroke-miterlimit="10" stroke-width=".074676"/>
  <path d="m136.61 172.28 0.0847 0.0423 0.1269 0.1269 0.0423 0.0847 0.0846 0.0846 0.0423 0.0847 0.0846 0.0846 0.0423 0.0847v0.0423l0.0423 0.0847v0.0423l0.0423 0.0847v0.59266l-0.0423 0.0847v0.0423l-0.0423 0.0847v0.0423l-0.0423 0.0847-0.0423 0.0423-0.0423 0.0847-0.0846 0.0846-0.0423 0.0847-0.1692 0.1692-0.0847 0.0423-0.0846 0.0846h-0.0847l-0.0423 0.0423-0.0847 0.0423h-0.0423l-0.0847 0.0423h-0.127l-0.0423 0.0423h-0.42333l-0.0423-0.0423h-0.0847l-0.0847-0.0423h-0.0423l-0.0847-0.0423h-0.0423l-0.0847-0.0423-0.0846-0.0846-0.0847-0.0423-0.2962-0.2962v-0.0423l-0.0423-0.0847-0.0423-0.0423-0.0423-0.0847v-0.0423l-0.0423-0.0847v-0.0423l-0.0423-0.0847v-0.59266l0.0423-0.0423v-0.0847l0.0423-0.0423v-0.0847l0.0423-0.0423 0.0423-0.0847 0.0423-0.0423v-0.0847l0.0847-0.0423 0.0423-0.0423 0.0423-0.0847 0.1269-0.1269 0.0847-0.0423 0.0846-0.0846h0.0847l0.0423-0.0423 0.0847-0.0423h0.0423l0.0847-0.0423h0.16933l0.0847-0.0423h0.254l0.0847 0.0423h0.127l0.0423 0.0423h0.0847l0.0423 0.0423 0.0847 0.0423h0.0423l0.0847 0.0423z" fill="none" stroke="#1f1a17" stroke-linecap="round" stroke-linejoin="round" stroke-miterlimit="10" stroke-width=".074676"/>
  <path d="m139.28 174.14 0.0847 0.0423 0.0846 0.0846 0.0423 0.0847 0.1269 0.1269 0.0423 0.0847 0.0846 0.0846v0.0847l0.0423 0.0423 0.0423 0.0847v0.127l0.0423 0.0423v0.55033l-0.0423 0.0847v0.0423l-0.0423 0.0847v0.0423l-0.0423 0.0847-0.0423 0.0423-0.0423 0.0847-0.0846 0.0846-0.0423 0.0847-0.1269 0.1269-0.0847 0.0423-0.0846 0.0846-0.0847 0.0423h-0.0423l-0.0423 0.0423-0.0847 0.0423h-0.0423l-0.0847 0.0423h-0.127l-0.0423 0.0423h-0.33866l-0.0847-0.0423h-0.127l-0.0847-0.0423h-0.0423l-0.0847-0.0423h-0.0423l-0.0847-0.0423-0.0423-0.0423-0.0847-0.0423-0.1269-0.1269-0.0847-0.0423-0.0423-0.0847-0.1269-0.1269v-0.0847l-0.0423-0.0423-0.0423-0.0847v-0.0423l-0.0423-0.0847v-0.0423l-0.0423-0.0847v-0.16933l-0.0423-0.0847v-0.127l0.0423-0.0847v-0.127l0.0423-0.0423v-0.127l0.0423-0.0847 0.0423-0.0423 0.0423-0.0847v-0.0423l0.0423-0.0847 0.3385-0.3385 0.0847-0.0423 0.0423-0.0423h0.0847l0.0423-0.0423 0.0847-0.0423h0.0423l0.0847-0.0423h0.127l0.0423-0.0423h0.33867l0.0847 0.0423h0.127l0.0423 0.0423h0.0847l0.0423 0.0423 0.0847 0.0423h0.0423l0.0847 0.0423 0.0423 0.0423" fill="#00923f" fill-rule="evenodd"/>
  <path d="m139.28 174.14 0.0847 0.0423 0.0846 0.0846 0.0423 0.0847 0.1269 0.1269 0.0423 0.0847 0.0846 0.0846v0.0847l0.0423 0.0423 0.0423 0.0847v0.127l0.0423 0.0423v0.55033l-0.0423 0.0847v0.0423l-0.0423 0.0847v0.0423l-0.0423 0.0847-0.0423 0.0423-0.0423 0.0847-0.0846 0.0846-0.0423 0.0847-0.1269 0.1269-0.0847 0.0423-0.0846 0.0846-0.0847 0.0423h-0.0423l-0.0423 0.0423-0.0847 0.0423h-0.0423l-0.0847 0.0423h-0.127l-0.0423 0.0423h-0.33866l-0.0847-0.0423h-0.127l-0.0847-0.0423h-0.0423l-0.0847-0.0423h-0.0423l-0.0847-0.0423-0.0423-0.0423-0.0847-0.0423-0.1269-0.1269-0.0847-0.0423-0.0423-0.0847-0.1269-0.1269v-0.0847l-0.0423-0.0423-0.0423-0.0847v-0.0423l-0.0423-0.0847v-0.0423l-0.0423-0.0847v-0.16933l-0.0423-0.0847v-0.127l0.0423-0.0847v-0.127l0.0423-0.0423v-0.127l0.0423-0.0847 0.0423-0.0423 0.0423-0.0847v-0.0423l0.0423-0.0847 0.3385-0.3385 0.0847-0.0423 0.0423-0.0423h0.0847l0.0423-0.0423 0.0847-0.0423h0.0423l0.0847-0.0423h0.127l0.0423-0.0423h0.33867l0.0847 0.0423h0.127l0.0423 0.0423h0.0847l0.0423 0.0423 0.0847 0.0423h0.0423l0.0847 0.0423z" fill="none" stroke="#1f1a17" stroke-linecap="round" stroke-linejoin="round" stroke-miterlimit="10" stroke-width=".074676"/>
  <path d="m135.13 161.23h0.33867l0.67733 0.0846 0.29633 0.0423 0.33867 0.0847 0.29633 0.0847 0.29634 0.127 0.29633 0.0847 0.29633 0.127 0.254 0.16933 0.29634 0.127 0.254 0.16934 0.254 0.21166 0.254 0.16934 0.21166 0.21166 0.254 0.21167 0.21167 0.21167 0.16933 0.254 0.21167 0.254 0.16933 0.254 0.16934 0.254 0.16933 0.254 0.254 0.59266 0.127 0.29634 0.0847 0.29633 0.127 0.29633 0.0423 0.29634 0.0847 0.33866 0.0423 0.29634v1.3547l-0.0423 0.29634-0.0847 0.33866-0.0423 0.29634-0.127 0.33866-0.0847 0.29634-0.127 0.29633-0.127 0.254-0.127 0.29633-0.16933 0.254-0.16934 0.254-0.16933 0.29634-0.21167 0.21166-0.16933 0.254-0.21167 0.21167-0.254 0.21167-0.21166 0.21166-0.254 0.21167-0.508 0.33867-0.29634 0.127-0.254 0.16933-0.59266 0.254-0.59267 0.1694-0.33867 0.0847-0.29633 0.0423-0.67733 0.0846h-0.67734l-0.29633-0.0423-0.33867-0.0423-0.29633-0.0423-0.33867-0.0847-0.59266-0.1694-0.29634-0.127-0.29633-0.127-0.29633-0.16933-0.254-0.127-0.508-0.33867-0.508-0.42333-0.42334-0.42334-0.21166-0.254-0.16934-0.21166-0.21166-0.29634-0.16934-0.254-0.127-0.254-0.16933-0.29633-0.127-0.254-0.0847-0.29633-0.127-0.29634-0.0847-0.33866-0.0847-0.29634-0.0423-0.33866-0.0423-0.29634v-0.33866l-0.0423-0.33867 0.0423-0.33867v-0.33866l0.0423-0.29634 0.0423-0.33866 0.0847-0.29634 0.0847-0.29633 0.127-0.29633 0.0847-0.29634 0.127-0.29633 0.16933-0.29633 0.127-0.254 0.16934-0.254 0.21166-0.254 0.16934-0.254 0.21166-0.254 0.42334-0.42334 0.254-0.21166 0.254-0.16934 0.254-0.21166 0.254-0.16934 0.254-0.127 0.29633-0.16933 0.29633-0.127 0.29634-0.0847 0.29633-0.127 0.29633-0.0847 0.33867-0.0847 0.29633-0.0423 0.33867-0.0423 0.29633-0.0423h0.33867" fill="#848382" fill-rule="evenodd"/>
  <path d="m135.13 161.23h0.33867l0.67733 0.0846 0.29633 0.0423 0.33867 0.0847 0.29633 0.0847 0.29634 0.127 0.29633 0.0847 0.29633 0.127 0.254 0.16933 0.29634 0.127 0.254 0.16934 0.254 0.21166 0.254 0.16934 0.21166 0.21166 0.254 0.21167 0.21167 0.21167 0.16933 0.254 0.21167 0.254 0.16933 0.254 0.16934 0.254 0.16933 0.254 0.254 0.59266 0.127 0.29634 0.0847 0.29633 0.127 0.29633 0.0423 0.29634 0.0847 0.33866 0.0423 0.29634v1.3547l-0.0423 0.29634-0.0847 0.33866-0.0423 0.29634-0.127 0.33866-0.0847 0.29634-0.127 0.29633-0.127 0.254-0.127 0.29633-0.16933 0.254-0.16934 0.254-0.16933 0.29634-0.21167 0.21166-0.16933 0.254-0.21167 0.21167-0.254 0.21167-0.21166 0.21166-0.254 0.21167-0.508 0.33867-0.29634 0.127-0.254 0.16933-0.59266 0.254-0.59267 0.1694-0.33867 0.0847-0.29633 0.0423-0.67733 0.0846h-0.67734l-0.29633-0.0423-0.33867-0.0423-0.29633-0.0423-0.33867-0.0847-0.59266-0.1694-0.29634-0.127-0.29633-0.127-0.29633-0.16933-0.254-0.127-0.508-0.33867-0.508-0.42333-0.42334-0.42334-0.21166-0.254-0.16934-0.21166-0.21166-0.29634-0.16934-0.254-0.127-0.254-0.16933-0.29633-0.127-0.254-0.0847-0.29633-0.127-0.29634-0.0847-0.33866-0.0847-0.29634-0.0423-0.33866-0.0423-0.29634v-0.33866l-0.0423-0.33867 0.0423-0.33867v-0.33866l0.0423-0.29634 0.0423-0.33866 0.0847-0.29634 0.0847-0.29633 0.127-0.29633 0.0847-0.29634 0.127-0.29633 0.16933-0.29633 0.127-0.254 0.16934-0.254 0.21166-0.254 0.16934-0.254 0.21166-0.254 0.42334-0.42334 0.254-0.21166 0.254-0.16934 0.254-0.21166 0.254-0.16934 0.254-0.127 0.29633-0.16933 0.29633-0.127 0.29634-0.0847 0.29633-0.127 0.29633-0.0847 0.33867-0.0847 0.29633-0.0423 0.33867-0.0423 0.29633-0.0423z" fill="none" stroke="#1f1a17" stroke-linecap="round" stroke-linejoin="round" stroke-miterlimit="10" stroke-width=".074676"/>
  <path d="m141.65 191.66v-2.159l-12.023-12.023-2.0743 2.1167 12.065 11.98 2.032 0.0847" fill="#848382" fill-rule="evenodd" stroke="#1f1a17" stroke-linecap="round" stroke-linejoin="round" stroke-miterlimit="10" stroke-width=".074676"/>
 </g>
</svg>
