<?xml version="1.0" encoding="UTF-8"?>
<!-- Created with Inkscape (http://www.inkscape.org/) -->
<svg width="12.983mm" height="36.703mm" version="1.1" viewBox="0 0 12.983 36.703" xmlns="http://www.w3.org/2000/svg">
 <g transform="translate(-66.94 -110.33)">
  <path d="m71.759 135.64 0.50802 0.2538h0.08467l0.08467 0.0423h0.08467l0.127 0.0423h0.42333l0.127-0.0423h0.08467l0.08467-0.0423h0.08467l0.50802-0.2538 0.04233-0.0423 0.08467-0.0847 0.08467-0.0423 0.04233-0.0847 0.08467-0.0847 0.04233-0.0423 0.08467-0.0847 0.21165-0.4235 0.04233-0.127v-0.0847l0.04233-0.0847v-0.16934l0.04233-0.127v-0.254l-0.04233-0.0847v-0.21167l-0.08466-0.1694v-0.0847l-0.16932-0.3388-0.08467-0.0847-0.08466-0.1694-0.08467-0.0423-0.04233-0.0847-0.08467-0.0423-0.08467-0.0847-0.08467-0.0423-2.5823-1.8627-0.59269-0.2961h-0.08467l-0.08467-0.0423h-0.55033l-0.127 0.0423h-0.08467l-0.08467 0.0423h-0.08467l-0.50802 0.2538-0.04233 0.0423-0.08467 0.0847-0.08467 0.0423-0.04233 0.0847-0.08467 0.0423-0.04233 0.0847-0.08467 0.0847-0.25398 0.5082v0.127l-0.04233 0.0847v0.16933l-0.04233 0.0847v0.29633l0.04233 0.0847v0.21166l0.08466 0.1694v0.0847l0.16932 0.3388 0.08467 0.0847 0.04233 0.0847 0.04233 0.0423 0.08467 0.0847 0.04233 0.0847 0.08467 0.0423 0.08467 0.0847 0.08467 0.0423 2.5823 1.8627" fill="#848382" fill-rule="evenodd"/>
  <g fill="none" stroke="#1f1a17" stroke-linecap="round" stroke-linejoin="round" stroke-miterlimit="10" stroke-width=".071247">
   <path d="m71.759 135.64 0.50802 0.2538h0.08467l0.08467 0.0423h0.08467l0.127 0.0423h0.42333l0.127-0.0423h0.08467l0.08467-0.0423h0.08467l0.50802-0.2538 0.04233-0.0423 0.08467-0.0847 0.08467-0.0423 0.04233-0.0847 0.08467-0.0847 0.04233-0.0423 0.08467-0.0847 0.21165-0.4235 0.04233-0.127v-0.0847l0.04233-0.0847v-0.16934l0.04233-0.127v-0.254l-0.04233-0.0847v-0.21167l-0.08466-0.1694v-0.0847l-0.16932-0.3388-0.08467-0.0847-0.08466-0.1694-0.08467-0.0423-0.04233-0.0847-0.08467-0.0423-0.08467-0.0847-0.08467-0.0423-2.5823-1.8627-0.59269-0.2961h-0.08467l-0.08467-0.0423h-0.55033l-0.127 0.0423h-0.08467l-0.08467 0.0423h-0.08467l-0.50802 0.2538-0.04233 0.0423-0.08467 0.0847-0.08467 0.0423-0.04233 0.0847-0.08467 0.0423-0.04233 0.0847-0.08467 0.0847-0.25398 0.5082v0.127l-0.04233 0.0847v0.16933l-0.04233 0.0847v0.29633l0.04233 0.0847v0.21166l0.08466 0.1694v0.0847l0.16932 0.3388 0.08467 0.0847 0.04233 0.0847 0.04233 0.0423 0.08467 0.0847 0.04233 0.0847 0.08467 0.0423 0.08467 0.0847 0.08467 0.0423z"/>
   <path d="m72.097 135.3-0.04233-0.0423-0.08467-0.0423-0.08466-0.0846-0.04233-0.0847-0.08466-0.0846-0.04233-0.0847-0.04233-0.0423v-0.0423l-0.04233-0.0847-0.04233-0.0423v-0.0847l-0.04233-0.0423v-0.16933l-0.04233-0.0423v-0.33866l0.04233-0.0847v-0.127l0.04233-0.0423v-0.0847l0.04233-0.0423 0.04233-0.0847v-0.0423l0.04233-0.0847 0.04233-0.0423 0.04233-0.0847 0.12699-0.1269 0.08467-0.0423 0.04233-0.0847h0.04233l0.04233-0.0423 0.08467-0.0423 0.04233-0.0423 0.08467-0.0423h0.04233l0.08467-0.0423h0.04233l0.08467-0.0423h0.59267l0.04233 0.0423h0.08467l0.04233 0.0423h0.08467l0.04233 0.0423 0.08467 0.0423 0.08466 0.0846 0.08467 0.0423 0.12699 0.1269 0.08467 0.0423 0.04233 0.0423v0.0847l0.04233 0.0423 0.04233 0.0847 0.08466 0.0846v0.0847l0.04233 0.0423v0.0847l0.04233 0.0423v0.635l-0.04233 0.0423v0.0847l-0.04233 0.0423v0.0847l-0.04233 0.0423-0.04233 0.0847-0.04233 0.0423-0.04233 0.0847-0.08466 0.0846-0.04233 0.0847-0.12699 0.1269-0.08467 0.0423-0.08466 0.0846h-0.08467l-0.04233 0.0423-0.08467 0.0423h-0.04233l-0.08467 0.0423h-0.127l-0.04233 0.0423h-0.33867l-0.08467-0.0423h-0.127l-0.04233-0.0423h-0.08467l-0.04233-0.0423-0.08467-0.0423h-0.04233l-0.04233-0.0423z"/>
   <path d="m69.473 133.4h-0.08467l-0.04233-0.0847-0.16932-0.1692-0.04233-0.0847-0.08466-0.0846-0.04233-0.0847v-0.0423l-0.04233-0.0847v-0.0423l-0.04233-0.0847v-0.0423l-0.04233-0.0847v-0.46567l0.04233-0.0847v-0.127l0.04233-0.0423 0.04233-0.0847v-0.0423l0.04233-0.0847 0.04233-0.0423 0.04233-0.0847 0.08466-0.0846 0.04233-0.0847 0.08466-0.0846 0.08467-0.0423 0.08466-0.0846 0.08467-0.0423h0.04233l0.04233-0.0423 0.08467-0.0423h0.04233l0.08467-0.0423h0.127l0.04233-0.0423h0.33867l0.08467 0.0423h0.127l0.04233 0.0423h0.08467l0.04233 0.0423 0.08467 0.0423h0.04233l0.08467 0.0423 0.04233 0.0423 0.08467 0.0423 0.08466 0.0846 0.04233 0.0847 0.12699 0.1269 0.04233 0.0847 0.04233 0.0423 0.04233 0.0847v0.0423l0.04233 0.0423v0.0847l0.04233 0.0847v0.0423l0.04233 0.0847v0.46567l-0.04233 0.0423v0.127l-0.08466 0.1694v0.0423l-0.04233 0.0423-0.04233 0.0847-0.04233 0.0423-0.04233 0.0847-0.12699 0.1269-0.04233 0.0847-0.08467 0.0423-0.04233 0.0423h-0.04233l-0.08467 0.0423-0.08466 0.0846h-0.08467l-0.04233 0.0423h-0.08467l-0.04233 0.0423h-0.21167l-0.08467 0.0423h-0.04233l-0.08467-0.0423h-0.16933l-0.08467-0.0423h-0.04233l-0.08467-0.0423h-0.04233l-0.08467-0.0423-0.04233-0.0423-0.08467-0.0423z"/>
  </g>
  <g fill="#848382" fill-rule="evenodd">
   <path d="m72.732 146.99h1.397v-35.772h-1.397z" stroke="#1f1a17" stroke-linecap="round" stroke-linejoin="round" stroke-miterlimit="10" stroke-width=".097155"/>
   <path d="m66.975 111.3h12.912v-0.93133h-12.912z" stroke="#1f1a17" stroke-linecap="round" stroke-linejoin="round" stroke-miterlimit="10" stroke-width=".071247"/>
   <path d="m75.653 123.02 0.16934 0.0846 0.08467 0.0847 0.08467 0.0423h0.08467l0.16934 0.0846h0.127l0.08467 0.0423h0.635l0.08467-0.0423h0.08467l0.16934-0.0846h0.08467l0.25401-0.1269 0.08467-0.0847 0.08467-0.0423 0.04233-0.0423 0.16934-0.1694 0.04233-0.0423 0.08467-0.0847 0.08466-0.1694 0.08467-0.0847 0.04233-0.0847v-0.0847l0.12699-0.2541v-0.21167l0.04233-0.0847v-0.46566l-0.04233-0.0847v-0.0847l-0.04233-0.0847v-0.127l-0.21165-0.4235-0.04233-0.0423-0.08467-0.0847-0.08466-0.1694-0.08467-0.0423-0.08467-0.0847-0.08467-0.0423-0.04233-0.0847-2.5823-1.8203-0.08467-0.0847-0.33868-0.1692h-0.127l-0.16934-0.0846h-0.16933l-0.08467-0.0423h-0.29633l-0.08467 0.0423h-0.16933l-0.127 0.0423-0.08467 0.0423h-0.08467l-0.25401 0.1269-0.04233 0.0423-0.08467 0.0423-0.08467 0.0847-0.08467 0.0423-0.04233 0.0847-0.08467 0.0423-0.08467 0.0847-0.08466 0.1694-0.08467 0.0847-0.16932 0.3388v0.0847l-0.04233 0.0847v0.0847l-0.04233 0.0847v0.67734l0.04233 0.0847v0.0847l0.33864 0.6776 0.08467 0.0847 0.04233 0.0423 0.08467 0.0847 0.04233 0.0847 0.08467 0.0423 0.08467 0.0847 2.5823 1.8203"/>
  </g>
  <g fill="none" stroke="#1f1a17" stroke-linecap="round" stroke-linejoin="round" stroke-miterlimit="10" stroke-width=".071247">
   <path d="m75.653 123.02 0.16934 0.0846 0.08467 0.0847 0.08467 0.0423h0.08467l0.16934 0.0846h0.127l0.08467 0.0423h0.635l0.08467-0.0423h0.08467l0.16934-0.0846h0.08467l0.25401-0.1269 0.08467-0.0847 0.08467-0.0423 0.04233-0.0423 0.16934-0.1694 0.04233-0.0423 0.08467-0.0847 0.08466-0.1694 0.08467-0.0847 0.04233-0.0847v-0.0847l0.12699-0.2541v-0.21167l0.04233-0.0847v-0.46566l-0.04233-0.0847v-0.0847l-0.04233-0.0847v-0.127l-0.21165-0.4235-0.04233-0.0423-0.08467-0.0847-0.08466-0.1694-0.08467-0.0423-0.08467-0.0847-0.08467-0.0423-0.04233-0.0847-2.5823-1.8203-0.08467-0.0847-0.33868-0.1692h-0.127l-0.16934-0.0846h-0.16933l-0.08467-0.0423h-0.29633l-0.08467 0.0423h-0.16933l-0.127 0.0423-0.08467 0.0423h-0.08467l-0.25401 0.1269-0.04233 0.0423-0.08467 0.0423-0.08467 0.0847-0.08467 0.0423-0.04233 0.0847-0.08467 0.0423-0.08467 0.0847-0.08466 0.1694-0.08467 0.0847-0.16932 0.3388v0.0847l-0.04233 0.0847v0.0847l-0.04233 0.0847v0.67734l0.04233 0.0847v0.0847l0.33864 0.6776 0.08467 0.0847 0.04233 0.0423 0.08467 0.0847 0.04233 0.0847 0.08467 0.0423 0.08467 0.0847z"/>
   <path d="m75.823 122.69-0.08467-0.0423-0.12699-0.1269-0.04233-0.0847-0.08466-0.0846-0.04233-0.0847-0.08466-0.0846v-0.0847l-0.04233-0.0423-0.04233-0.0847v-0.127l-0.04233-0.0423v-0.55033l0.04233-0.0847v-0.0423l0.04233-0.0847v-0.0423l0.04233-0.0847 0.04233-0.0423 0.04233-0.0847 0.04233-0.0423 0.04233-0.0847 0.21165-0.2115 0.08467-0.0423 0.08466-0.0846 0.08467-0.0423 0.04233-0.0423h0.08467l0.04233-0.0423h0.08467l0.04233-0.0423h0.59267l0.08467 0.0423h0.04233l0.08467 0.0423h0.04233l0.08467 0.0423 0.04233 0.0423 0.08467 0.0423 0.08466 0.0846 0.08467 0.0423 0.16932 0.1692 0.04233 0.0847 0.04233 0.0423 0.04233 0.0847 0.04233 0.0423v0.0423l0.04233 0.0847v0.0423l0.04233 0.0847v0.127l0.04233 0.0847v0.381l-0.04233 0.0847v0.0423l-0.04233 0.0847v0.0423l-0.04233 0.0847v0.0423l-0.04233 0.0847-0.04233 0.0423-0.04233 0.0847-0.08466 0.0846-0.04233 0.0847-0.08466 0.0846-0.08467 0.0423-0.08466 0.0846-0.08467 0.0423h-0.04233l-0.08467 0.0423-0.04233 0.0423h-0.04233l-0.08467 0.0423h-0.127l-0.08467 0.0423h-0.381l-0.04233-0.0423h-0.08467l-0.08467-0.0423h-0.04233l-0.08467-0.0423-0.04233-0.0423h-0.04233l-0.08467-0.0423z"/>
   <path d="m73.156 120.82-0.04233-0.0423-0.04233-0.0847-0.04233-0.0423-0.08467-0.0423-0.08466-0.0846-0.04233-0.0847-0.04233-0.0423v-0.0423l-0.04233-0.0847-0.04233-0.0423v-0.0847l-0.04233-0.0423v-0.0847l-0.04233-0.0423v-0.635l0.04233-0.0423v-0.0847l0.04233-0.0423v-0.0847l0.04233-0.0423 0.04233-0.0847v-0.0423l0.04233-0.0847 0.08466-0.0846 0.08467-0.0847 0.16932-0.1692 0.08467-0.0423 0.04233-0.0423h0.08467l0.08466-0.0846h0.08467l0.04233-0.0423h0.127l0.08467-0.0423h0.33867l0.04233 0.0423h0.127l0.08467 0.0423h0.08467l0.04233 0.0423 0.08467 0.0423h0.04233l0.04233 0.0423 0.08467 0.0423 0.08466 0.0846 0.08467 0.0423 0.04233 0.0847 0.12699 0.1269 0.04233 0.0847 0.04233 0.0423v0.0847l0.04233 0.0423v0.0847l0.04233 0.0423 0.04233 0.0847v0.16933l0.04233 0.0847v0.21167l-0.04233 0.0423v0.21167l-0.04233 0.0423v0.0847l-0.04233 0.0847-0.04233 0.0423v0.0847l-0.08466 0.0846-0.04233 0.0847-0.08466 0.0846-0.08467 0.0423-0.04233 0.0847-0.08466 0.0846h-0.08467l-0.08466 0.0846-0.08467 0.0423h-0.04233l-0.08467 0.0423h-0.04233l-0.08467 0.0423h-0.16933l-0.08467 0.0423h-0.04233l-0.08467-0.0423h-0.21167l-0.04233-0.0423h-0.08467l-0.04233-0.0423h-0.08467l-0.04233-0.0423-0.08467-0.0423-0.04233-0.0423z"/>
  </g>
  <path d="m73.367 140.38 1.524-1.5663v-17.145h-2.921l0.04233 17.145 1.3547 1.5663" fill="#fff" fill-rule="evenodd" stroke="#1f1a17" stroke-linecap="round" stroke-linejoin="round" stroke-miterlimit="10" stroke-width=".071247"/>
  <path d="m73.325 139.49 0.97367-1.0583v-16.002h-1.7357v16.044l0.762 1.016" fill="#f8c300" fill-rule="evenodd" stroke="#1f1a17" stroke-linecap="round" stroke-linejoin="round" stroke-miterlimit="10" stroke-width=".28931"/>
 </g>
</svg>
