<?xml version="1.0" encoding="UTF-8"?>
<!-- Created with Inkscape (http://www.inkscape.org/) -->
<svg width="17.695mm" height="43.9mm" version="1.1" viewBox="0 0 17.695 43.9" xmlns="http://www.w3.org/2000/svg">
 <defs>
  <clipPath id="clipPath176">
   <path transform="translate(.00020833 .00020833)" d="m2177 2430.7h418v-1037h-418z"/>
  </clipPath>
 </defs>
 <g transform="translate(-97.102 -139.44)">
  <path transform="matrix(.042333 0 0 -.042333 4.9424 242.33)" d="m2177 1393.7h418v1037h-418z" clip-path="url(#clipPath176)" fill="#b6b5b4" fill-rule="evenodd"/>
  <path d="m107.22 159.08v0.16933l0.0423 0.127v0.0847l0.0423 0.0847v0.0847l0.0423 0.0847 0.0423 0.127 0.1269 0.2541 0.0423 0.0423 0.0846 0.1694 0.2117 0.2117 0.0847 0.0423 0.127 0.127 0.5082 0.2538h0.0847l0.0847 0.0423h0.21167l0.0847 0.0423h0.21167l0.0847-0.0423h0.16933l0.127-0.0423h0.0847l0.5082-0.2538 0.0423-0.0847 0.1694-0.0846 0.0423-0.0847 0.0847-0.0423 0.0423-0.0847 0.0847-0.0847 0.0423-0.0847 0.0423-0.0423 0.1269-0.2541 0.0423-0.127 0.0423-0.0847v-0.0847l0.0423-0.0847v-0.21167l0.0423-0.0847v-3.3867l-0.0423-0.0847v-0.21166l-0.0423-0.0847v-0.0847l-0.2961-0.5929-0.3387-0.3387-0.0847-0.0423-0.127-0.127-0.2541-0.1269h-0.0847l-0.1694-0.0846h-0.127l-0.0847-0.0423h-0.59266l-0.0847 0.0423h-0.0847l-0.1694 0.0846h-0.0847l-0.2541 0.1269-0.0847 0.0847-0.0847 0.0423-0.127 0.127-0.0847 0.0423-0.0423 0.0847-0.0847 0.0423-0.3384 0.6776v0.0847l-0.0423 0.0847v0.127l-0.0423 0.0847v3.3867" fill="#848382" fill-rule="evenodd" stroke="#1f1a17" stroke-linecap="round" stroke-linejoin="round" stroke-miterlimit="10" stroke-width=".074676"/>
  <path d="m107.69 159.16v-0.21167l0.0423-0.0423v-0.0847l0.0423-0.0423v-0.0847l0.0423-0.0847v-0.0423l0.0423-0.0423 0.0423-0.0847 0.0846-0.0846 0.0423-0.0847 0.2115-0.2115 0.0847-0.0423 0.0846-0.0846h0.0847l0.0423-0.0423 0.0847-0.0423h0.0423l0.0847-0.0423h0.21167l0.0423-0.0423h0.16934l0.0423 0.0423h0.21167l0.0847 0.0423h0.0423l0.0847 0.0423 0.0423 0.0423h0.0847l0.0846 0.0846 0.0847 0.0423 0.2115 0.2115 0.0423 0.0847 0.0846 0.0846 0.0423 0.0847 0.0423 0.0423v0.0423l0.0423 0.0847v0.0847l0.0423 0.0423v0.127l0.0423 0.0847v0.29633l-0.0423 0.0423v0.127l-0.0423 0.0847v0.0847l-0.0423 0.0423v0.0847l-0.0846 0.0846-0.0423 0.0847-0.1269 0.1269-0.0423 0.0847-0.1269 0.1269-0.0847 0.0423h-0.0423l-0.0423 0.0423-0.0847 0.0423-0.0423 0.0423h-0.0847l-0.0423 0.0423h-0.0847l-0.0423 0.0423h-0.59266l-0.0423-0.0423h-0.0847l-0.0423-0.0423h-0.0847l-0.0423-0.0423-0.0847-0.0423-0.0423-0.0423h-0.0423l-0.0847-0.0423-0.1269-0.1269-0.0423-0.0847-0.1269-0.1269-0.0423-0.0847-0.0846-0.0846v-0.0847l-0.0423-0.0423v-0.0847l-0.0423-0.0847v-0.0423l-0.0423-0.0847z" fill="none" stroke="#1f1a17" stroke-linecap="round" stroke-linejoin="round" stroke-miterlimit="10" stroke-width=".074676"/>
  <path d="m107.69 155.95v-0.21167l0.0423-0.0847v-0.0847l0.0423-0.0423v-0.0847l0.0423-0.0423v-0.0847l0.0423-0.0423 0.0423-0.0847 0.1269-0.1269 0.0423-0.0847 0.1692-0.1692 0.0847-0.0423 0.0423-0.0423h0.0423l0.0847-0.0423 0.0423-0.0423h0.0847l0.0423-0.0423h0.0847l0.0423-0.0423h0.59266l0.0423 0.0423h0.0847l0.0423 0.0423h0.0847l0.0423 0.0423 0.0847 0.0423h0.0423l0.0423 0.0423 0.0847 0.0423 0.1692 0.1692 0.0423 0.0847 0.1269 0.1269 0.0423 0.0847 0.0423 0.0423v0.0847l0.0423 0.0423v0.0847l0.0423 0.0423v0.16933l0.0423 0.0423v0.29633l-0.0423 0.0847v0.127l-0.0423 0.0423v0.0847l-0.0423 0.0423v0.0847l-0.0423 0.0423-0.0423 0.0847-0.1269 0.1269-0.0423 0.0847-0.1692 0.1692-0.0847 0.0423-0.0423 0.0423h-0.0423l-0.0847 0.0423-0.0423 0.0423h-0.0847l-0.0423 0.0423h-0.0847l-0.0423 0.0423h-0.59266l-0.0423-0.0423h-0.0847l-0.0423-0.0423h-0.0847l-0.0423-0.0423-0.0847-0.0423h-0.0423l-0.0423-0.0423-0.0847-0.0423-0.1692-0.1692-0.0423-0.0847-0.1269-0.1269-0.0423-0.0847-0.0423-0.0423v-0.0847l-0.0423-0.0423v-0.0847l-0.0423-0.0423v-0.0847l-0.0423-0.0423v-0.21167" fill="#fff500" fill-rule="evenodd"/>
  <path d="m107.69 155.95v-0.21167l0.0423-0.0847v-0.0847l0.0423-0.0423v-0.0847l0.0423-0.0423v-0.0847l0.0423-0.0423 0.0423-0.0847 0.1269-0.1269 0.0423-0.0847 0.1692-0.1692 0.0847-0.0423 0.0423-0.0423h0.0423l0.0847-0.0423 0.0423-0.0423h0.0847l0.0423-0.0423h0.0847l0.0423-0.0423h0.59266l0.0423 0.0423h0.0847l0.0423 0.0423h0.0847l0.0423 0.0423 0.0847 0.0423h0.0423l0.0423 0.0423 0.0847 0.0423 0.1692 0.1692 0.0423 0.0847 0.1269 0.1269 0.0423 0.0847 0.0423 0.0423v0.0847l0.0423 0.0423v0.0847l0.0423 0.0423v0.16933l0.0423 0.0423v0.29633l-0.0423 0.0847v0.127l-0.0423 0.0423v0.0847l-0.0423 0.0423v0.0847l-0.0423 0.0423-0.0423 0.0847-0.1269 0.1269-0.0423 0.0847-0.1692 0.1692-0.0847 0.0423-0.0423 0.0423h-0.0423l-0.0847 0.0423-0.0423 0.0423h-0.0847l-0.0423 0.0423h-0.0847l-0.0423 0.0423h-0.59266l-0.0423-0.0423h-0.0847l-0.0423-0.0423h-0.0847l-0.0423-0.0423-0.0847-0.0423h-0.0423l-0.0423-0.0423-0.0847-0.0423-0.1692-0.1692-0.0423-0.0847-0.1269-0.1269-0.0423-0.0847-0.0423-0.0423v-0.0847l-0.0423-0.0423v-0.0847l-0.0423-0.0423v-0.0847l-0.0423-0.0423z" fill="none" stroke="#1f1a17" stroke-linecap="round" stroke-linejoin="round" stroke-miterlimit="10" stroke-width=".074676"/>
  <path d="m105.23 181.13h1.4393v-27.474h-1.4393z" fill="#848382" fill-rule="evenodd" stroke="#1f1a17" stroke-linecap="round" stroke-linejoin="round" stroke-miterlimit="10" stroke-width=".098679"/>
  <path d="m105.95 141.38 0.33867 0.0423h0.33866l0.29634 0.0423 0.33866 0.0423 0.29634 0.0847 0.29633 0.0847 0.33867 0.127 0.254 0.0847 0.29633 0.127 0.29633 0.16933 0.254 0.127 0.254 0.16934 0.29634 0.21166 0.21166 0.16934 0.254 0.21166 0.42334 0.42334 0.21166 0.254 0.21167 0.254 0.16933 0.254 0.16934 0.254 0.127 0.254 0.16933 0.29633 0.127 0.29633 0.127 0.29634 0.1694 0.59266 0.0847 0.29634 0.0423 0.33866 0.0423 0.33867 0.0423 0.29633v0.67734l-0.0423 0.33866-0.0423 0.33867-0.0423 0.29633-0.0847 0.33867-0.0847 0.29633-0.0847 0.29634-0.254 0.59266-0.16933 0.254-0.127 0.29634-0.16934 0.254-0.16933 0.254-0.21167 0.254-0.42333 0.42333-0.21167 0.254-0.254 0.16933-0.21166 0.21167-0.29634 0.16933-0.254 0.16934-0.254 0.16933-0.59266 0.254-0.254 0.127-0.33867 0.0847-0.29633 0.0847-0.29634 0.0847-0.33866 0.0423-0.29634 0.0423-0.33866 0.0423h-0.67734l-0.33866-0.0423-0.29634-0.0423-0.33866-0.0423-0.29634-0.0847-0.33866-0.0847-0.29634-0.0847-0.29633-0.127-0.254-0.127-0.29633-0.127-0.254-0.16933-0.29634-0.16934-0.254-0.16933-0.21166-0.21167-0.254-0.16933-0.21167-0.254-0.42333-0.42333-0.21167-0.254-0.16933-0.254-0.16934-0.254-0.16933-0.29634-0.127-0.254-0.254-0.59266-0.08467-0.29634-0.08467-0.29633-0.08467-0.33867-0.04233-0.29633-0.04233-0.33867-0.04233-0.33866v-0.67734l0.04233-0.29633 0.04233-0.33867 0.04233-0.33866 0.08467-0.29634 0.16934-0.59266 0.127-0.29634 0.254-0.59266 0.16933-0.254 0.16934-0.254 0.16933-0.254 0.21167-0.254 0.21166-0.254 0.42334-0.42334 0.254-0.21166 0.21166-0.16934 0.254-0.21166 0.29634-0.16934 0.254-0.127 0.29633-0.16933 0.254-0.127 0.29633-0.0847 0.29634-0.127 0.33866-0.0847 0.29634-0.0847 0.33866-0.0423 0.29634-0.0423h0.33866l0.33867-0.0423" fill="#848382" fill-rule="evenodd"/>
  <path d="m105.95 141.38 0.33867 0.0423h0.33866l0.29634 0.0423 0.33866 0.0423 0.29634 0.0847 0.29633 0.0847 0.33867 0.127 0.254 0.0847 0.29633 0.127 0.29633 0.16933 0.254 0.127 0.254 0.16934 0.29634 0.21166 0.21166 0.16934 0.254 0.21166 0.42334 0.42334 0.21166 0.254 0.21167 0.254 0.16933 0.254 0.16934 0.254 0.127 0.254 0.16933 0.29633 0.127 0.29633 0.127 0.29634 0.1694 0.59266 0.0847 0.29634 0.0423 0.33866 0.0423 0.33867 0.0423 0.29633v0.67734l-0.0423 0.33866-0.0423 0.33867-0.0423 0.29633-0.0847 0.33867-0.0847 0.29633-0.0847 0.29634-0.254 0.59266-0.16933 0.254-0.127 0.29634-0.16934 0.254-0.16933 0.254-0.21167 0.254-0.42333 0.42333-0.21167 0.254-0.254 0.16933-0.21166 0.21167-0.29634 0.16933-0.254 0.16934-0.254 0.16933-0.59266 0.254-0.254 0.127-0.33867 0.0847-0.29633 0.0847-0.29634 0.0847-0.33866 0.0423-0.29634 0.0423-0.33866 0.0423h-0.67734l-0.33866-0.0423-0.29634-0.0423-0.33866-0.0423-0.29634-0.0847-0.33866-0.0847-0.29634-0.0847-0.29633-0.127-0.254-0.127-0.29633-0.127-0.254-0.16933-0.29634-0.16934-0.254-0.16933-0.21166-0.21167-0.254-0.16933-0.21167-0.254-0.42333-0.42333-0.21167-0.254-0.16933-0.254-0.16934-0.254-0.16933-0.29634-0.127-0.254-0.254-0.59266-0.08467-0.29634-0.08467-0.29633-0.08467-0.33867-0.04233-0.29633-0.04233-0.33867-0.04233-0.33866v-0.67734l0.04233-0.29633 0.04233-0.33867 0.04233-0.33866 0.08467-0.29634 0.16934-0.59266 0.127-0.29634 0.254-0.59266 0.16933-0.254 0.16934-0.254 0.16933-0.254 0.21167-0.254 0.21166-0.254 0.42334-0.42334 0.254-0.21166 0.21166-0.16934 0.254-0.21166 0.29634-0.16934 0.254-0.127 0.29633-0.16933 0.254-0.127 0.29633-0.0847 0.29634-0.127 0.33866-0.0847 0.29634-0.0847 0.33866-0.0423 0.29634-0.0423h0.33866z" fill="none" stroke="#1f1a17" stroke-linecap="round" stroke-linejoin="round" stroke-miterlimit="10" stroke-width=".074676"/>
  <path d="m105.91 174.57 1.524-1.524v-17.018h-2.9633l0.0423 17.018 1.397 1.524" fill="#848382" fill-rule="evenodd" stroke="#1f1a17" stroke-linecap="round" stroke-linejoin="round" stroke-miterlimit="10" stroke-width=".074676"/>
 </g>
</svg>
