<?xml version="1.0" encoding="UTF-8"?>
<!-- Created with Inkscape (http://www.inkscape.org/) -->
<svg width="10.106mm" height="46.031mm" version="1.1" viewBox="0 0 10.106 46.031" xmlns="http://www.w3.org/2000/svg">
 <g transform="translate(-109.27 -121.97)">
  <path d="m113.42 167.98h1.6933v-30.353h-1.6933z" fill="#7e7e7e" fill-rule="evenodd"/>
  <path d="m115.11 137.63v30.353h-1.6933v-30.353h1.6933" fill="none" stroke="#000" stroke-miterlimit="10" stroke-width=".042333"/>
  <path d="m109.31 123.03 1.016-1.016h8.001l1.016 1.016v14.478l-4.572 5.1223h-0.97367l-4.4873-5.1223v-14.478" fill="#848382" fill-rule="evenodd" stroke="#1f1a17" stroke-linecap="round" stroke-linejoin="round" stroke-miterlimit="10" stroke-width=".072644"/>
  <path d="m111.72 134.41h0.16933l0.0423 0.0423h0.16933l0.0423 0.0423h0.0847l0.0423 0.0423 0.0847 0.0423h0.0423l0.0847 0.0423 0.0846 0.0846 0.0847 0.0423 0.1269 0.1269 0.0423 0.0847 0.0846 0.0846 0.0423 0.0847 0.0423 0.0423 0.0423 0.0847v0.0423l0.0423 0.0847v0.0423l0.0423 0.0847v0.0423l0.0423 0.0847v0.42333l-0.0423 0.0847v0.0847l-0.0423 0.0423v0.0847l-0.0423 0.0423v0.0847l-0.0423 0.0423-0.0423 0.0847-0.0423 0.0423-0.0423 0.0847-0.2115 0.2115-0.0847 0.0423-0.0846 0.0846-0.0847 0.0423-0.0423 0.0423-0.0847 0.0423h-0.0423l-0.0847 0.0423h-0.127l-0.0847 0.0423h-0.42334l-0.0847-0.0423h-0.127l-0.0847-0.0423h-0.0423l-0.0847-0.0423-0.0846-0.0846-0.0847-0.0423-0.0846-0.0846-0.0847-0.0423-0.1692-0.1692-0.0423-0.0847-0.0423-0.0423-0.0423-0.0847v-0.0423l-0.0423-0.0847-0.0423-0.0423v-0.0847l-0.0423-0.0423v-0.16933l-0.0423-0.0423v-0.29634l0.0423-0.0847v-0.127l0.0423-0.0847v-0.0423l0.0423-0.0847 0.0423-0.0423v-0.0847l0.0423-0.0423 0.0423-0.0847 0.0846-0.0846 0.0423-0.0847 0.0846-0.0846 0.0847-0.0423 0.0846-0.0846 0.0847-0.0423 0.0423-0.0423h0.0423l0.0847-0.0423 0.0423-0.0423h0.0847l0.0847-0.0423h0.127l0.0847-0.0423h0.127" fill="#fff500" fill-rule="evenodd"/>
  <path d="m111.72 134.41h0.16933l0.0423 0.0423h0.16933l0.0423 0.0423h0.0847l0.0423 0.0423 0.0847 0.0423h0.0423l0.0847 0.0423 0.0846 0.0846 0.0847 0.0423 0.1269 0.1269 0.0423 0.0847 0.0846 0.0846 0.0423 0.0847 0.0423 0.0423 0.0423 0.0847v0.0423l0.0423 0.0847v0.0423l0.0423 0.0847v0.0423l0.0423 0.0847v0.42333l-0.0423 0.0847v0.0847l-0.0423 0.0423v0.0847l-0.0423 0.0423v0.0847l-0.0423 0.0423-0.0423 0.0847-0.0423 0.0423-0.0423 0.0847-0.2115 0.2115-0.0847 0.0423-0.0846 0.0846-0.0847 0.0423-0.0423 0.0423-0.0847 0.0423h-0.0423l-0.0847 0.0423h-0.127l-0.0847 0.0423h-0.42334l-0.0847-0.0423h-0.127l-0.0847-0.0423h-0.0423l-0.0847-0.0423-0.0846-0.0846-0.0847-0.0423-0.0846-0.0846-0.0847-0.0423-0.1692-0.1692-0.0423-0.0847-0.0423-0.0423-0.0423-0.0847v-0.0423l-0.0423-0.0847-0.0423-0.0423v-0.0847l-0.0423-0.0423v-0.16933l-0.0423-0.0423v-0.29634l0.0423-0.0847v-0.127l0.0423-0.0847v-0.0423l0.0423-0.0847 0.0423-0.0423v-0.0847l0.0423-0.0423 0.0423-0.0847 0.0846-0.0846 0.0423-0.0847 0.0846-0.0846 0.0847-0.0423 0.0846-0.0846 0.0847-0.0423 0.0423-0.0423h0.0423l0.0847-0.0423 0.0423-0.0423h0.0847l0.0847-0.0423h0.127l0.0847-0.0423z" fill="none" stroke="#1f1a17" stroke-linecap="round" stroke-linejoin="round" stroke-miterlimit="10" stroke-width=".072644"/>
  <path d="m116.84 134.46h0.21167l0.0847 0.0423h0.127l0.0847 0.0423 0.0423 0.0423h0.0847l0.0423 0.0423 0.0847 0.0423 0.0846 0.0846 0.0847 0.0423 0.1692 0.1692 0.0423 0.0847 0.0846 0.0846 0.0423 0.0847 0.0423 0.0423v0.0847l0.0423 0.0423v0.0847l0.0423 0.0423v0.0847l0.0423 0.0847v0.42333l-0.0423 0.0847v0.0423l-0.0423 0.0847v0.0423l-0.0423 0.0847v0.0847l-0.0846 0.0846-0.0423 0.0847-0.0846 0.0846-0.0423 0.0847-0.1269 0.1269-0.0847 0.0423-0.0846 0.0846-0.0847 0.0423h-0.0423l-0.0847 0.0423-0.0423 0.0423h-0.0847l-0.0423 0.0423h-0.16933l-0.0423 0.0423h-0.29633l-0.0847-0.0423h-0.127l-0.0847-0.0423h-0.0847l-0.0423-0.0423-0.0847-0.0423h-0.0423l-0.0847-0.0423-0.0846-0.0846-0.0847-0.0423-0.1269-0.1269-0.0423-0.0847-0.0846-0.0846-0.0423-0.0847-0.0423-0.0423v-0.0423l-0.0846-0.1694v-0.0423l-0.0423-0.0847v-0.127l-0.0423-0.0847v-0.29633l0.0423-0.0423v-0.16934l0.0423-0.0423v-0.0847l0.0423-0.0423 0.0423-0.0847v-0.0423l0.0423-0.0847 0.0846-0.0846 0.0423-0.0847 0.1692-0.1692 0.0847-0.0423 0.0846-0.0846 0.0847-0.0423 0.0423-0.0423h0.0847l0.0423-0.0423 0.0847-0.0423h0.127l0.0847-0.0423h0.21167" fill="#848382" fill-rule="evenodd"/>
  <path d="m116.84 134.46h0.21167l0.0847 0.0423h0.127l0.0847 0.0423 0.0423 0.0423h0.0847l0.0423 0.0423 0.0847 0.0423 0.0846 0.0846 0.0847 0.0423 0.1692 0.1692 0.0423 0.0847 0.0846 0.0846 0.0423 0.0847 0.0423 0.0423v0.0847l0.0423 0.0423v0.0847l0.0423 0.0423v0.0847l0.0423 0.0847v0.42333l-0.0423 0.0847v0.0423l-0.0423 0.0847v0.0423l-0.0423 0.0847v0.0847l-0.0846 0.0846-0.0423 0.0847-0.0846 0.0846-0.0423 0.0847-0.1269 0.1269-0.0847 0.0423-0.0846 0.0846-0.0847 0.0423h-0.0423l-0.0847 0.0423-0.0423 0.0423h-0.0847l-0.0423 0.0423h-0.16933l-0.0423 0.0423h-0.29633l-0.0847-0.0423h-0.127l-0.0847-0.0423h-0.0847l-0.0423-0.0423-0.0847-0.0423h-0.0423l-0.0847-0.0423-0.0846-0.0846-0.0847-0.0423-0.1269-0.1269-0.0423-0.0847-0.0846-0.0846-0.0423-0.0847-0.0423-0.0423v-0.0423l-0.0846-0.1694v-0.0423l-0.0423-0.0847v-0.127l-0.0423-0.0847v-0.29633l0.0423-0.0423v-0.16934l0.0423-0.0423v-0.0847l0.0423-0.0423 0.0423-0.0847v-0.0423l0.0423-0.0847 0.0846-0.0846 0.0423-0.0847 0.1692-0.1692 0.0847-0.0423 0.0846-0.0846 0.0847-0.0423 0.0423-0.0423h0.0847l0.0423-0.0423 0.0847-0.0423h0.127l0.0847-0.0423z" fill="none" stroke="#1f1a17" stroke-linecap="round" stroke-linejoin="round" stroke-miterlimit="10" stroke-width=".072644"/>
  <path d="m111.81 127.98h0.21167l0.0847 0.0423h0.0423l0.0847 0.0423h0.0423l0.0847 0.0423h0.0423l0.0847 0.0423 0.0423 0.0423 0.0847 0.0423 0.0846 0.0846 0.0847 0.0423 0.1269 0.1269 0.0423 0.0847 0.0846 0.0846 0.0423 0.0847v0.0423l0.0423 0.0847 0.0423 0.0423v0.0847l0.0423 0.0423v0.21167l0.0423 0.0847v0.16933l-0.0423 0.0423v0.21167l-0.0423 0.0847v0.0847l-0.0423 0.0423-0.0423 0.0847v0.0423l-0.0423 0.0423-0.0423 0.0847-0.0846 0.0846-0.0423 0.0847-0.0846 0.0846-0.0847 0.0423-0.0846 0.0846-0.0847 0.0423-0.0423 0.0423h-0.0847l-0.0423 0.0423-0.0847 0.0423h-0.0423l-0.0847 0.0423h-0.127l-0.0847 0.0423h-0.29633l-0.0423-0.0423h-0.16933l-0.0423-0.0423h-0.0847l-0.0423-0.0423-0.0847-0.0423h-0.0423l-0.0847-0.0423-0.0423-0.0423-0.0847-0.0423-0.1692-0.1692-0.0423-0.0847-0.0846-0.0846-0.0423-0.0847-0.0846-0.0846-0.0423-0.0847v-0.0423l-0.0423-0.0847v-0.127l-0.0423-0.0847v-0.42333l0.0423-0.0847v-0.127l0.0423-0.0847v-0.0423l0.0423-0.0847 0.0423-0.0423 0.0423-0.0847 0.0846-0.0846 0.0423-0.0847 0.2115-0.2115 0.0847-0.0423 0.0423-0.0423 0.0847-0.0423 0.0423-0.0423h0.0847l0.0423-0.0423h0.0847l0.0423-0.0423h0.0847l0.0847-0.0423h0.21167" fill="#00923f" fill-rule="evenodd"/>
  <path d="m111.81 127.98h0.21167l0.0847 0.0423h0.0423l0.0847 0.0423h0.0423l0.0847 0.0423h0.0423l0.0847 0.0423 0.0423 0.0423 0.0847 0.0423 0.0846 0.0846 0.0847 0.0423 0.1269 0.1269 0.0423 0.0847 0.0846 0.0846 0.0423 0.0847v0.0423l0.0423 0.0847 0.0423 0.0423v0.0847l0.0423 0.0423v0.21167l0.0423 0.0847v0.16933l-0.0423 0.0423v0.21167l-0.0423 0.0847v0.0847l-0.0423 0.0423-0.0423 0.0847v0.0423l-0.0423 0.0423-0.0423 0.0847-0.0846 0.0846-0.0423 0.0847-0.0846 0.0846-0.0847 0.0423-0.0846 0.0846-0.0847 0.0423-0.0423 0.0423h-0.0847l-0.0423 0.0423-0.0847 0.0423h-0.0423l-0.0847 0.0423h-0.127l-0.0847 0.0423h-0.29633l-0.0423-0.0423h-0.16933l-0.0423-0.0423h-0.0847l-0.0423-0.0423-0.0847-0.0423h-0.0423l-0.0847-0.0423-0.0423-0.0423-0.0847-0.0423-0.1692-0.1692-0.0423-0.0847-0.0846-0.0846-0.0423-0.0847-0.0846-0.0846-0.0423-0.0847v-0.0423l-0.0423-0.0847v-0.127l-0.0423-0.0847v-0.42333l0.0423-0.0847v-0.127l0.0423-0.0847v-0.0423l0.0423-0.0847 0.0423-0.0423 0.0423-0.0847 0.0846-0.0846 0.0423-0.0847 0.2115-0.2115 0.0847-0.0423 0.0423-0.0423 0.0847-0.0423 0.0423-0.0423h0.0847l0.0423-0.0423h0.0847l0.0423-0.0423h0.0847l0.0847-0.0423z" fill="none" stroke="#1f1a17" stroke-linecap="round" stroke-linejoin="round" stroke-miterlimit="10" stroke-width=".072644"/>
  <path d="m116.93 128.02h0.254l0.0847 0.0423h0.0847l0.0423 0.0423h0.0847l0.0423 0.0423 0.0847 0.0423h0.0423l0.0847 0.0423 0.3385 0.3385 0.0423 0.0847 0.0423 0.0423v0.0423l0.0423 0.0847 0.0423 0.0423v0.0847l0.0423 0.0423v0.0847l0.0423 0.0847v0.127l0.0423 0.0847v0.127l-0.0423 0.0847v0.127l-0.0423 0.0847v0.0847l-0.0423 0.0423v0.0847l-0.0423 0.0423-0.0423 0.0847v0.0423l-0.0423 0.0423-0.0423 0.0847-0.3385 0.3385h-0.0847l-0.0423 0.0423-0.0847 0.0423-0.0423 0.0423h-0.0847l-0.0423 0.0423h-0.0847l-0.0847 0.0423h-0.55033l-0.0847-0.0423h-0.0423l-0.0847-0.0423h-0.0847l-0.0423-0.0423-0.0847-0.0423-0.0423-0.0423h-0.0423l-0.0847-0.0423-0.0846-0.0846-0.0423-0.0847-0.0423-0.0423-0.0847-0.0423-0.0423-0.0423v-0.0847l-0.0846-0.0846-0.0423-0.0847-0.0423-0.0423v-0.0847l-0.0423-0.0423v-0.0847l-0.0423-0.0847v-0.55033l0.0423-0.0847v-0.0847l0.0423-0.0423v-0.0847l0.0423-0.0423 0.0423-0.0847 0.0846-0.0846v-0.0847l0.0423-0.0423 0.0847-0.0423 0.0423-0.0423 0.0423-0.0847 0.0846-0.0846 0.0847-0.0423 0.0423-0.0423h0.0423l0.0847-0.0423 0.0423-0.0423h0.0847l0.0847-0.0423h0.0423l0.0847-0.0423h0.29633" fill="#fff500" fill-rule="evenodd"/>
  <path d="m116.93 128.02h0.254l0.0847 0.0423h0.0847l0.0423 0.0423h0.0847l0.0423 0.0423 0.0847 0.0423h0.0423l0.0847 0.0423 0.3385 0.3385 0.0423 0.0847 0.0423 0.0423v0.0423l0.0423 0.0847 0.0423 0.0423v0.0847l0.0423 0.0423v0.0847l0.0423 0.0847v0.127l0.0423 0.0847v0.127l-0.0423 0.0847v0.127l-0.0423 0.0847v0.0847l-0.0423 0.0423v0.0847l-0.0423 0.0423-0.0423 0.0847v0.0423l-0.0423 0.0423-0.0423 0.0847-0.3385 0.3385h-0.0847l-0.0423 0.0423-0.0847 0.0423-0.0423 0.0423h-0.0847l-0.0423 0.0423h-0.0847l-0.0847 0.0423h-0.55033l-0.0847-0.0423h-0.0423l-0.0847-0.0423h-0.0847l-0.0423-0.0423-0.0847-0.0423-0.0423-0.0423h-0.0423l-0.0847-0.0423-0.0846-0.0846-0.0423-0.0847-0.0423-0.0423-0.0847-0.0423-0.0423-0.0423v-0.0847l-0.0846-0.0846-0.0423-0.0847-0.0423-0.0423v-0.0847l-0.0423-0.0423v-0.0847l-0.0423-0.0847v-0.55033l0.0423-0.0847v-0.0847l0.0423-0.0423v-0.0847l0.0423-0.0423 0.0423-0.0847 0.0846-0.0846v-0.0847l0.0423-0.0423 0.0847-0.0423 0.0423-0.0423 0.0423-0.0847 0.0846-0.0846 0.0847-0.0423 0.0423-0.0423h0.0423l0.0847-0.0423 0.0423-0.0423h0.0847l0.0847-0.0423h0.0423l0.0847-0.0423z" fill="none" stroke="#1f1a17" stroke-linecap="round" stroke-linejoin="round" stroke-miterlimit="10" stroke-width=".072644"/>
  <path d="m111.76 123.62h0.21167l0.0847 0.0423h0.127l0.0847 0.0423h0.0423l0.0847 0.0423 0.0846 0.0846 0.0847 0.0423 0.0846 0.0846 0.0847 0.0423 0.1692 0.1692 0.0423 0.0847 0.0423 0.0423 0.0423 0.0847v0.0423l0.0423 0.0847 0.0423 0.0423v0.0847l0.0423 0.0423v0.16934l0.0423 0.0423v0.29633l-0.0423 0.0847v0.127l-0.0423 0.0847v0.0423l-0.0423 0.0847-0.0423 0.0423v0.0847l-0.0423 0.0423-0.0423 0.0847-0.0846 0.0846-0.0423 0.0847-0.0846 0.0846-0.0847 0.0423-0.0846 0.0846-0.0847 0.0423-0.0423 0.0423h-0.0423l-0.0847 0.0423-0.0423 0.0423h-0.0847l-0.0847 0.0423h-0.21167l-0.0423 0.0423h-0.16934l-0.0847-0.0423h-0.21167l-0.0423-0.0423h-0.0847l-0.0423-0.0423-0.0847-0.0423h-0.0423l-0.0847-0.0423-0.0846-0.0846-0.0847-0.0423-0.1269-0.1269-0.0423-0.0847-0.0846-0.0846-0.0423-0.0847-0.0423-0.0423-0.0423-0.0847v-0.0423l-0.0423-0.0847v-0.0423l-0.0423-0.0847v-0.0423l-0.0423-0.0847v-0.42333l0.0423-0.0847v-0.0847l0.0423-0.0423v-0.0847l0.0423-0.0423v-0.0847l0.0423-0.0423 0.0423-0.0847 0.0423-0.0423 0.0423-0.0847 0.2115-0.2115 0.0847-0.0423 0.0846-0.0846 0.0847-0.0423 0.0423-0.0423 0.0847-0.0423h0.0423l0.0847-0.0423h0.127l0.0847-0.0423h0.21167" fill="#848382" fill-rule="evenodd"/>
  <path d="m111.76 123.62h0.21167l0.0847 0.0423h0.127l0.0847 0.0423h0.0423l0.0847 0.0423 0.0846 0.0846 0.0847 0.0423 0.0846 0.0846 0.0847 0.0423 0.1692 0.1692 0.0423 0.0847 0.0423 0.0423 0.0423 0.0847v0.0423l0.0423 0.0847 0.0423 0.0423v0.0847l0.0423 0.0423v0.16934l0.0423 0.0423v0.29633l-0.0423 0.0847v0.127l-0.0423 0.0847v0.0423l-0.0423 0.0847-0.0423 0.0423v0.0847l-0.0423 0.0423-0.0423 0.0847-0.0846 0.0846-0.0423 0.0847-0.0846 0.0846-0.0847 0.0423-0.0846 0.0846-0.0847 0.0423-0.0423 0.0423h-0.0423l-0.0847 0.0423-0.0423 0.0423h-0.0847l-0.0847 0.0423h-0.21167l-0.0423 0.0423h-0.16934l-0.0847-0.0423h-0.21167l-0.0423-0.0423h-0.0847l-0.0423-0.0423-0.0847-0.0423h-0.0423l-0.0847-0.0423-0.0846-0.0846-0.0847-0.0423-0.1269-0.1269-0.0423-0.0847-0.0846-0.0846-0.0423-0.0847-0.0423-0.0423-0.0423-0.0847v-0.0423l-0.0423-0.0847v-0.0423l-0.0423-0.0847v-0.0423l-0.0423-0.0847v-0.42333l0.0423-0.0847v-0.0847l0.0423-0.0423v-0.0847l0.0423-0.0423v-0.0847l0.0423-0.0423 0.0423-0.0847 0.0423-0.0423 0.0423-0.0847 0.2115-0.2115 0.0847-0.0423 0.0846-0.0846 0.0847-0.0423 0.0423-0.0423 0.0847-0.0423h0.0423l0.0847-0.0423h0.127l0.0847-0.0423z" fill="none" stroke="#1f1a17" stroke-linecap="round" stroke-linejoin="round" stroke-miterlimit="10" stroke-width=".072644"/>
  <path d="m116.89 123.62h0.0847l0.0423 0.0423h0.21167l0.0847 0.0423h0.0423l0.1694 0.0846 0.0423 0.0423h0.0423l0.0847 0.0423 0.0846 0.0846 0.0847 0.0423 0.0423 0.0423 0.0423 0.0847 0.1269 0.1269 0.0423 0.0847 0.0423 0.0423v0.0847l0.0423 0.0423 0.0423 0.0847v0.0423l0.0423 0.0847v0.127l0.0423 0.0847v0.29634l-0.0423 0.0847v0.127l-0.0423 0.0423v0.0847l-0.0423 0.0847-0.0423 0.0423v0.0847l-0.0846 0.0846-0.0423 0.0847-0.2962 0.2962h-0.0423l-0.0847 0.0423-0.0846 0.0846-0.0847 0.0423h-0.0847l-0.0423 0.0423h-0.0847l-0.0423 0.0423h-0.59266l-0.0847-0.0423h-0.0423l-0.0847-0.0423h-0.0423l-0.0847-0.0423-0.0423-0.0423-0.0847-0.0423-0.0423-0.0423h-0.0423l-0.0847-0.0423-0.0423-0.0847-0.1692-0.1692-0.0423-0.0847-0.0846-0.0846-0.0423-0.0847v-0.0423l-0.0846-0.1694v-0.127l-0.0423-0.0423v-0.46566l0.0423-0.0847v-0.127l0.0423-0.0423 0.0423-0.0847v-0.0423l0.0423-0.0847 0.0423-0.0423 0.0423-0.0847 0.1269-0.1269 0.0423-0.0847 0.0846-0.0846 0.0847-0.0423 0.0846-0.0846h0.0847l0.0423-0.0423 0.0847-0.0423 0.0423-0.0423h0.0847l0.0423-0.0423h0.21167l0.0847-0.0423h0.0847" fill="#848382" fill-rule="evenodd"/>
  <path d="m116.89 123.62h0.0847l0.0423 0.0423h0.21167l0.0847 0.0423h0.0423l0.1694 0.0846 0.0423 0.0423h0.0423l0.0847 0.0423 0.0846 0.0846 0.0847 0.0423 0.0423 0.0423 0.0423 0.0847 0.1269 0.1269 0.0423 0.0847 0.0423 0.0423v0.0847l0.0423 0.0423 0.0423 0.0847v0.0423l0.0423 0.0847v0.127l0.0423 0.0847v0.29634l-0.0423 0.0847v0.127l-0.0423 0.0423v0.0847l-0.0423 0.0847-0.0423 0.0423v0.0847l-0.0846 0.0846-0.0423 0.0847-0.2962 0.2962h-0.0423l-0.0847 0.0423-0.0846 0.0846-0.0847 0.0423h-0.0847l-0.0423 0.0423h-0.0847l-0.0423 0.0423h-0.59266l-0.0847-0.0423h-0.0423l-0.0847-0.0423h-0.0423l-0.0847-0.0423-0.0423-0.0423-0.0847-0.0423-0.0423-0.0423h-0.0423l-0.0847-0.0423-0.0423-0.0847-0.1692-0.1692-0.0423-0.0847-0.0846-0.0846-0.0423-0.0847v-0.0423l-0.0846-0.1694v-0.127l-0.0423-0.0423v-0.46566l0.0423-0.0847v-0.127l0.0423-0.0423 0.0423-0.0847v-0.0423l0.0423-0.0847 0.0423-0.0423 0.0423-0.0847 0.1269-0.1269 0.0423-0.0847 0.0846-0.0846 0.0847-0.0423 0.0846-0.0846h0.0847l0.0423-0.0423 0.0847-0.0423 0.0423-0.0423h0.0847l0.0423-0.0423h0.21167l0.0847-0.0423z" fill="none" stroke="#1f1a17" stroke-linecap="round" stroke-linejoin="round" stroke-miterlimit="10" stroke-width=".072644"/>
 </g>
</svg>
