<?xml version="1.0" encoding="UTF-8"?>
<!-- Created with Inkscape (http://www.inkscape.org/) -->
<svg width="10.106mm" height="46.031mm" version="1.1" viewBox="0 0 10.106 46.031" xmlns="http://www.w3.org/2000/svg">
 <g transform="translate(-82.285 -131.5)">
  <path d="m86.428 177.51h1.6933v-30.353h-1.6933z" fill="#7e7e7e" fill-rule="evenodd"/>
  <path d="m88.121 147.16v30.353h-1.6933v-30.353h1.6933" fill="none" stroke="#000" stroke-miterlimit="10" stroke-width=".042333"/>
  <path d="m82.322 132.55 1.016-1.016h8.001l1.016 1.016v14.478l-4.572 5.1223h-0.97367l-4.4873-5.1223v-14.478" fill="#848382" fill-rule="evenodd" stroke="#1f1a17" stroke-linecap="round" stroke-linejoin="round" stroke-miterlimit="10" stroke-width=".072644"/>
  <path d="m84.735 143.94h0.16933l0.04233 0.0423h0.16933l0.04233 0.0423h0.08467l0.04233 0.0423 0.08467 0.0423h0.04233l0.08467 0.0423 0.08466 0.0846 0.08467 0.0423 0.12699 0.1269 0.04233 0.0847 0.08466 0.0846 0.04233 0.0847 0.04233 0.0423 0.04233 0.0847v0.0423l0.04233 0.0847v0.0423l0.04233 0.0847v0.0423l0.04233 0.0847v0.42333l-0.04233 0.0847v0.0847l-0.04233 0.0423v0.0847l-0.04233 0.0423v0.0847l-0.04233 0.0423-0.04233 0.0847-0.04233 0.0423-0.04233 0.0847-0.21165 0.2115-0.08467 0.0423-0.08466 0.0846-0.08467 0.0423-0.04233 0.0423-0.08467 0.0423h-0.04233l-0.08467 0.0423h-0.127l-0.08467 0.0423h-0.42333l-0.08467-0.0423h-0.127l-0.08467-0.0423h-0.04233l-0.08467-0.0423-0.08466-0.0846-0.08467-0.0423-0.08466-0.0846-0.08467-0.0423-0.16932-0.1692-0.04233-0.0847-0.04233-0.0423-0.04233-0.0847v-0.0423l-0.04233-0.0847-0.04233-0.0423v-0.0847l-0.04233-0.0423v-0.16933l-0.04233-0.0423v-0.29634l0.04233-0.0847v-0.127l0.04233-0.0847v-0.0423l0.04233-0.0847 0.04233-0.0423v-0.0847l0.04233-0.0423 0.04233-0.0847 0.08466-0.0846 0.04233-0.0847 0.08466-0.0846 0.08467-0.0423 0.08466-0.0846 0.08467-0.0423 0.04233-0.0423h0.04233l0.08467-0.0423 0.04233-0.0423h0.08467l0.08467-0.0423h0.127l0.08467-0.0423h0.127" fill="#fff500" fill-rule="evenodd"/>
  <path d="m84.735 143.94h0.16933l0.04233 0.0423h0.16933l0.04233 0.0423h0.08467l0.04233 0.0423 0.08467 0.0423h0.04233l0.08467 0.0423 0.08466 0.0846 0.08467 0.0423 0.12699 0.1269 0.04233 0.0847 0.08466 0.0846 0.04233 0.0847 0.04233 0.0423 0.04233 0.0847v0.0423l0.04233 0.0847v0.0423l0.04233 0.0847v0.0423l0.04233 0.0847v0.42333l-0.04233 0.0847v0.0847l-0.04233 0.0423v0.0847l-0.04233 0.0423v0.0847l-0.04233 0.0423-0.04233 0.0847-0.04233 0.0423-0.04233 0.0847-0.21165 0.2115-0.08467 0.0423-0.08466 0.0846-0.08467 0.0423-0.04233 0.0423-0.08467 0.0423h-0.04233l-0.08467 0.0423h-0.127l-0.08467 0.0423h-0.42333l-0.08467-0.0423h-0.127l-0.08467-0.0423h-0.04233l-0.08467-0.0423-0.08466-0.0846-0.08467-0.0423-0.08466-0.0846-0.08467-0.0423-0.16932-0.1692-0.04233-0.0847-0.04233-0.0423-0.04233-0.0847v-0.0423l-0.04233-0.0847-0.04233-0.0423v-0.0847l-0.04233-0.0423v-0.16933l-0.04233-0.0423v-0.29634l0.04233-0.0847v-0.127l0.04233-0.0847v-0.0423l0.04233-0.0847 0.04233-0.0423v-0.0847l0.04233-0.0423 0.04233-0.0847 0.08466-0.0846 0.04233-0.0847 0.08466-0.0846 0.08467-0.0423 0.08466-0.0846 0.08467-0.0423 0.04233-0.0423h0.04233l0.08467-0.0423 0.04233-0.0423h0.08467l0.08467-0.0423h0.127l0.08467-0.0423z" fill="none" stroke="#1f1a17" stroke-linecap="round" stroke-linejoin="round" stroke-miterlimit="10" stroke-width=".072644"/>
  <path d="m89.857 143.98h0.21167l0.08467 0.0423h0.127l0.08467 0.0423 0.04233 0.0423h0.08467l0.04233 0.0423 0.08467 0.0423 0.08466 0.0846 0.08467 0.0423 0.16932 0.1692 0.04233 0.0847 0.08466 0.0846 0.04233 0.0847 0.04233 0.0423v0.0847l0.04233 0.0423v0.0847l0.04233 0.0423v0.0847l0.04233 0.0847v0.42333l-0.04233 0.0847v0.0423l-0.04233 0.0847v0.0423l-0.04233 0.0847v0.0847l-0.08466 0.0846-0.04233 0.0847-0.08466 0.0846-0.04233 0.0847-0.12699 0.1269-0.08467 0.0423-0.08466 0.0846-0.08467 0.0423h-0.04233l-0.08467 0.0423-0.04233 0.0423h-0.08467l-0.04233 0.0423h-0.16933l-0.04233 0.0423h-0.29633l-0.08467-0.0423h-0.127l-0.08467-0.0423h-0.08467l-0.04233-0.0423-0.08467-0.0423h-0.04233l-0.08467-0.0423-0.08466-0.0846-0.08467-0.0423-0.12699-0.1269-0.04233-0.0847-0.08466-0.0846-0.04233-0.0847-0.04233-0.0423v-0.0423l-0.08466-0.1694v-0.0423l-0.04233-0.0847v-0.127l-0.04233-0.0847v-0.29633l0.04233-0.0423v-0.16934l0.04233-0.0423v-0.0847l0.04233-0.0423 0.04233-0.0847v-0.0423l0.04233-0.0847 0.08466-0.0846 0.04233-0.0847 0.16932-0.1692 0.08467-0.0423 0.08466-0.0846 0.08467-0.0423 0.04233-0.0423h0.08467l0.04233-0.0423 0.08467-0.0423h0.127l0.08467-0.0423h0.21167" fill="#fff500" fill-rule="evenodd"/>
  <path d="m89.857 143.98h0.21167l0.08467 0.0423h0.127l0.08467 0.0423 0.04233 0.0423h0.08467l0.04233 0.0423 0.08467 0.0423 0.08466 0.0846 0.08467 0.0423 0.16932 0.1692 0.04233 0.0847 0.08466 0.0846 0.04233 0.0847 0.04233 0.0423v0.0847l0.04233 0.0423v0.0847l0.04233 0.0423v0.0847l0.04233 0.0847v0.42333l-0.04233 0.0847v0.0423l-0.04233 0.0847v0.0423l-0.04233 0.0847v0.0847l-0.08466 0.0846-0.04233 0.0847-0.08466 0.0846-0.04233 0.0847-0.12699 0.1269-0.08467 0.0423-0.08466 0.0846-0.08467 0.0423h-0.04233l-0.08467 0.0423-0.04233 0.0423h-0.08467l-0.04233 0.0423h-0.16933l-0.04233 0.0423h-0.29633l-0.08467-0.0423h-0.127l-0.08467-0.0423h-0.08467l-0.04233-0.0423-0.08467-0.0423h-0.04233l-0.08467-0.0423-0.08466-0.0846-0.08467-0.0423-0.12699-0.1269-0.04233-0.0847-0.08466-0.0846-0.04233-0.0847-0.04233-0.0423v-0.0423l-0.08466-0.1694v-0.0423l-0.04233-0.0847v-0.127l-0.04233-0.0847v-0.29633l0.04233-0.0423v-0.16934l0.04233-0.0423v-0.0847l0.04233-0.0423 0.04233-0.0847v-0.0423l0.04233-0.0847 0.08466-0.0846 0.04233-0.0847 0.16932-0.1692 0.08467-0.0423 0.08466-0.0846 0.08467-0.0423 0.04233-0.0423h0.08467l0.04233-0.0423 0.08467-0.0423h0.127l0.08467-0.0423z" fill="none" stroke="#1f1a17" stroke-linecap="round" stroke-linejoin="round" stroke-miterlimit="10" stroke-width=".072644"/>
  <path d="m84.819 137.5h0.21167l0.08467 0.0423h0.04233l0.08467 0.0423h0.04233l0.08467 0.0423h0.04233l0.08467 0.0423 0.04233 0.0423 0.08467 0.0423 0.08466 0.0846 0.08467 0.0423 0.12699 0.1269 0.04233 0.0847 0.08466 0.0846 0.04233 0.0847v0.0423l0.04233 0.0847 0.04233 0.0423v0.0847l0.04233 0.0423v0.21167l0.04233 0.0847v0.16933l-0.04233 0.0423v0.21167l-0.04233 0.0847v0.0847l-0.04233 0.0423-0.04233 0.0847v0.0423l-0.04233 0.0423-0.04233 0.0847-0.08466 0.0846-0.04233 0.0847-0.08466 0.0846-0.08467 0.0423-0.08466 0.0846-0.08467 0.0423-0.04233 0.0423h-0.08467l-0.04233 0.0423-0.08467 0.0423h-0.04233l-0.08467 0.0423h-0.127l-0.08467 0.0423h-0.29633l-0.04233-0.0423h-0.16933l-0.04233-0.0423h-0.08467l-0.04233-0.0423-0.08467-0.0423h-0.04233l-0.08467-0.0423-0.04233-0.0423-0.08467-0.0423-0.16932-0.1692-0.04233-0.0847-0.08466-0.0846-0.04233-0.0847-0.08466-0.0846-0.04233-0.0847v-0.0423l-0.04233-0.0847v-0.127l-0.04233-0.0847v-0.42333l0.04233-0.0847v-0.127l0.04233-0.0847v-0.0423l0.04233-0.0847 0.04233-0.0423 0.04233-0.0847 0.08466-0.0846 0.04233-0.0847 0.21165-0.2115 0.08467-0.0423 0.04233-0.0423 0.08467-0.0423 0.04233-0.0423h0.08467l0.04233-0.0423h0.08467l0.04233-0.0423h0.08467l0.08467-0.0423h0.21167" fill="#848382" fill-rule="evenodd"/>
  <path d="m84.819 137.5h0.21167l0.08467 0.0423h0.04233l0.08467 0.0423h0.04233l0.08467 0.0423h0.04233l0.08467 0.0423 0.04233 0.0423 0.08467 0.0423 0.08466 0.0846 0.08467 0.0423 0.12699 0.1269 0.04233 0.0847 0.08466 0.0846 0.04233 0.0847v0.0423l0.04233 0.0847 0.04233 0.0423v0.0847l0.04233 0.0423v0.21167l0.04233 0.0847v0.16933l-0.04233 0.0423v0.21167l-0.04233 0.0847v0.0847l-0.04233 0.0423-0.04233 0.0847v0.0423l-0.04233 0.0423-0.04233 0.0847-0.08466 0.0846-0.04233 0.0847-0.08466 0.0846-0.08467 0.0423-0.08466 0.0846-0.08467 0.0423-0.04233 0.0423h-0.08467l-0.04233 0.0423-0.08467 0.0423h-0.04233l-0.08467 0.0423h-0.127l-0.08467 0.0423h-0.29633l-0.04233-0.0423h-0.16933l-0.04233-0.0423h-0.08467l-0.04233-0.0423-0.08467-0.0423h-0.04233l-0.08467-0.0423-0.04233-0.0423-0.08467-0.0423-0.16932-0.1692-0.04233-0.0847-0.08466-0.0846-0.04233-0.0847-0.08466-0.0846-0.04233-0.0847v-0.0423l-0.04233-0.0847v-0.127l-0.04233-0.0847v-0.42333l0.04233-0.0847v-0.127l0.04233-0.0847v-0.0423l0.04233-0.0847 0.04233-0.0423 0.04233-0.0847 0.08466-0.0846 0.04233-0.0847 0.21165-0.2115 0.08467-0.0423 0.04233-0.0423 0.08467-0.0423 0.04233-0.0423h0.08467l0.04233-0.0423h0.08467l0.04233-0.0423h0.08467l0.08467-0.0423z" fill="none" stroke="#1f1a17" stroke-linecap="round" stroke-linejoin="round" stroke-miterlimit="10" stroke-width=".072644"/>
  <path d="m89.942 137.55h0.254l0.08467 0.0423h0.08467l0.04233 0.0423h0.08467l0.04233 0.0423 0.08467 0.0423h0.04233l0.08467 0.0423 0.12699 0.1269 0.08467 0.0847 0.12699 0.1269 0.04233 0.0847 0.04233 0.0423v0.0423l0.04233 0.0847 0.04233 0.0423v0.0847l0.04233 0.0423v0.0847l0.04233 0.0847v0.127l0.04233 0.0847v0.127l-0.04233 0.0847v0.127l-0.04233 0.0847v0.0847l-0.04233 0.0423v0.0847l-0.04233 0.0423-0.04233 0.0847v0.0423l-0.04233 0.0423-0.04233 0.0847-0.12699 0.1269-0.08467 0.0847-0.12699 0.1269h-0.08467l-0.04233 0.0423-0.08467 0.0423-0.04233 0.0423h-0.08467l-0.04233 0.0423h-0.08467l-0.08467 0.0423h-0.55033l-0.08467-0.0423h-0.04233l-0.08467-0.0423h-0.08467l-0.04233-0.0423-0.08467-0.0423-0.04233-0.0423h-0.04233l-0.08467-0.0423-0.08466-0.0846-0.04233-0.0847-0.04233-0.0423-0.08467-0.0423-0.04233-0.0423v-0.0847l-0.08466-0.0846-0.04233-0.0847-0.04233-0.0423v-0.0847l-0.04233-0.0423v-0.0847l-0.04233-0.0847v-0.55033l0.04233-0.0847v-0.0847l0.04233-0.0423v-0.0847l0.04233-0.0423 0.04233-0.0847 0.08466-0.0846v-0.0847l0.04233-0.0423 0.08467-0.0423 0.04233-0.0423 0.04233-0.0847 0.08466-0.0846 0.08467-0.0423 0.04233-0.0423h0.04233l0.08467-0.0423 0.04233-0.0423h0.08467l0.08467-0.0423h0.04233l0.08467-0.0423h0.29633" fill="#848382" fill-rule="evenodd"/>
  <path d="m89.942 137.55h0.254l0.08467 0.0423h0.08467l0.04233 0.0423h0.08467l0.04233 0.0423 0.08467 0.0423h0.04233l0.08467 0.0423 0.12699 0.1269 0.08467 0.0847 0.12699 0.1269 0.04233 0.0847 0.04233 0.0423v0.0423l0.04233 0.0847 0.04233 0.0423v0.0847l0.04233 0.0423v0.0847l0.04233 0.0847v0.127l0.04233 0.0847v0.127l-0.04233 0.0847v0.127l-0.04233 0.0847v0.0847l-0.04233 0.0423v0.0847l-0.04233 0.0423-0.04233 0.0847v0.0423l-0.04233 0.0423-0.04233 0.0847-0.12699 0.1269-0.08467 0.0847-0.12699 0.1269h-0.08467l-0.04233 0.0423-0.08467 0.0423-0.04233 0.0423h-0.08467l-0.04233 0.0423h-0.08467l-0.08467 0.0423h-0.55033l-0.08467-0.0423h-0.04233l-0.08467-0.0423h-0.08467l-0.04233-0.0423-0.08467-0.0423-0.04233-0.0423h-0.04233l-0.08467-0.0423-0.08466-0.0846-0.04233-0.0847-0.04233-0.0423-0.08467-0.0423-0.04233-0.0423v-0.0847l-0.08466-0.0846-0.04233-0.0847-0.04233-0.0423v-0.0847l-0.04233-0.0423v-0.0847l-0.04233-0.0847v-0.55033l0.04233-0.0847v-0.0847l0.04233-0.0423v-0.0847l0.04233-0.0423 0.04233-0.0847 0.08466-0.0846v-0.0847l0.04233-0.0423 0.08467-0.0423 0.04233-0.0423 0.04233-0.0847 0.08466-0.0846 0.08467-0.0423 0.04233-0.0423h0.04233l0.08467-0.0423 0.04233-0.0423h0.08467l0.08467-0.0423h0.04233l0.08467-0.0423z" fill="none" stroke="#1f1a17" stroke-linecap="round" stroke-linejoin="round" stroke-miterlimit="10" stroke-width=".072644"/>
  <path d="m84.777 133.14h0.21167l0.08467 0.0423h0.127l0.08467 0.0423h0.04233l0.08467 0.0423 0.08466 0.0846 0.08467 0.0423 0.08466 0.0846 0.08467 0.0423 0.16932 0.1692 0.04233 0.0847 0.04233 0.0423 0.04233 0.0847v0.0423l0.04233 0.0847 0.04233 0.0423v0.0847l0.04233 0.0423v0.16934l0.04233 0.0423v0.29633l-0.04233 0.0847v0.127l-0.04233 0.0847v0.0423l-0.04233 0.0847-0.04233 0.0423v0.0847l-0.04233 0.0423-0.04233 0.0847-0.08466 0.0846-0.04233 0.0847-0.08466 0.0846-0.08467 0.0423-0.08466 0.0846-0.08467 0.0423-0.04233 0.0423h-0.04233l-0.08467 0.0423-0.04233 0.0423h-0.08467l-0.08467 0.0423h-0.21167l-0.04233 0.0423h-0.16933l-0.08467-0.0423h-0.21167l-0.04233-0.0423h-0.08467l-0.04233-0.0423-0.08467-0.0423h-0.04233l-0.08467-0.0423-0.08466-0.0846-0.08467-0.0423-0.12699-0.1269-0.04233-0.0847-0.08466-0.0846-0.04233-0.0847-0.04233-0.0423-0.04233-0.0847v-0.0423l-0.04233-0.0847v-0.0423l-0.04233-0.0847v-0.0423l-0.04233-0.0847v-0.42333l0.04233-0.0847v-0.0847l0.04233-0.0423v-0.0847l0.04233-0.0423v-0.0847l0.04233-0.0423 0.04233-0.0847 0.04233-0.0423 0.04233-0.0847 0.21165-0.2115 0.08467-0.0423 0.08466-0.0846 0.08467-0.0423 0.04233-0.0423 0.08467-0.0423h0.04233l0.08467-0.0423h0.127l0.08467-0.0423h0.21167" fill="#848382" fill-rule="evenodd"/>
  <path d="m84.777 133.14h0.21167l0.08467 0.0423h0.127l0.08467 0.0423h0.04233l0.08467 0.0423 0.08466 0.0846 0.08467 0.0423 0.08466 0.0846 0.08467 0.0423 0.16932 0.1692 0.04233 0.0847 0.04233 0.0423 0.04233 0.0847v0.0423l0.04233 0.0847 0.04233 0.0423v0.0847l0.04233 0.0423v0.16934l0.04233 0.0423v0.29633l-0.04233 0.0847v0.127l-0.04233 0.0847v0.0423l-0.04233 0.0847-0.04233 0.0423v0.0847l-0.04233 0.0423-0.04233 0.0847-0.08466 0.0846-0.04233 0.0847-0.08466 0.0846-0.08467 0.0423-0.08466 0.0846-0.08467 0.0423-0.04233 0.0423h-0.04233l-0.08467 0.0423-0.04233 0.0423h-0.08467l-0.08467 0.0423h-0.21167l-0.04233 0.0423h-0.16933l-0.08467-0.0423h-0.21167l-0.04233-0.0423h-0.08467l-0.04233-0.0423-0.08467-0.0423h-0.04233l-0.08467-0.0423-0.08466-0.0846-0.08467-0.0423-0.12699-0.1269-0.04233-0.0847-0.08466-0.0846-0.04233-0.0847-0.04233-0.0423-0.04233-0.0847v-0.0423l-0.04233-0.0847v-0.0423l-0.04233-0.0847v-0.0423l-0.04233-0.0847v-0.42333l0.04233-0.0847v-0.0847l0.04233-0.0423v-0.0847l0.04233-0.0423v-0.0847l0.04233-0.0423 0.04233-0.0847 0.04233-0.0423 0.04233-0.0847 0.21165-0.2115 0.08467-0.0423 0.08466-0.0846 0.08467-0.0423 0.04233-0.0423 0.08467-0.0423h0.04233l0.08467-0.0423h0.127l0.08467-0.0423z" fill="none" stroke="#1f1a17" stroke-linecap="round" stroke-linejoin="round" stroke-miterlimit="10" stroke-width=".072644"/>
  <path d="m89.899 133.14h0.08467l0.04233 0.0423h0.21167l0.08467 0.0423h0.04233l0.16934 0.0846 0.04233 0.0423h0.04233l0.08467 0.0423 0.08466 0.0846 0.08467 0.0423 0.04233 0.0423 0.04233 0.0847 0.12699 0.1269 0.04233 0.0847 0.04233 0.0423v0.0847l0.04233 0.0423 0.04233 0.0847v0.0423l0.04233 0.0847v0.127l0.04233 0.0847v0.29634l-0.04233 0.0847v0.127l-0.04233 0.0423v0.0847l-0.04233 0.0847-0.04233 0.0423v0.0847l-0.08466 0.0846-0.04233 0.0847-0.16932 0.1692-0.08467 0.0847-0.04233 0.0423h-0.04233l-0.08467 0.0423-0.08466 0.0846-0.08467 0.0423h-0.08467l-0.04233 0.0423h-0.08467l-0.04233 0.0423h-0.59267l-0.08467-0.0423h-0.04233l-0.08467-0.0423h-0.04233l-0.08467-0.0423-0.04233-0.0423-0.08467-0.0423-0.04233-0.0423h-0.04233l-0.08467-0.0423-0.04233-0.0847-0.16932-0.1692-0.04233-0.0847-0.08466-0.0846-0.04233-0.0847v-0.0423l-0.08466-0.1694v-0.127l-0.04233-0.0423v-0.46566l0.04233-0.0847v-0.127l0.04233-0.0423 0.04233-0.0847v-0.0423l0.04233-0.0847 0.04233-0.0423 0.04233-0.0847 0.12699-0.1269 0.04233-0.0847 0.08466-0.0846 0.08467-0.0423 0.08466-0.0846h0.08467l0.04233-0.0423 0.08467-0.0423 0.04233-0.0423h0.08467l0.04233-0.0423h0.21167l0.08467-0.0423h0.08467" fill="#848382" fill-rule="evenodd"/>
  <path d="m89.899 133.14h0.08467l0.04233 0.0423h0.21167l0.08467 0.0423h0.04233l0.16934 0.0846 0.04233 0.0423h0.04233l0.08467 0.0423 0.08466 0.0846 0.08467 0.0423 0.04233 0.0423 0.04233 0.0847 0.12699 0.1269 0.04233 0.0847 0.04233 0.0423v0.0847l0.04233 0.0423 0.04233 0.0847v0.0423l0.04233 0.0847v0.127l0.04233 0.0847v0.29634l-0.04233 0.0847v0.127l-0.04233 0.0423v0.0847l-0.04233 0.0847-0.04233 0.0423v0.0847l-0.08466 0.0846-0.04233 0.0847-0.16932 0.1692-0.08467 0.0847-0.04233 0.0423h-0.04233l-0.08467 0.0423-0.08466 0.0846-0.08467 0.0423h-0.08467l-0.04233 0.0423h-0.08467l-0.04233 0.0423h-0.59267l-0.08467-0.0423h-0.04233l-0.08467-0.0423h-0.04233l-0.08467-0.0423-0.04233-0.0423-0.08467-0.0423-0.04233-0.0423h-0.04233l-0.08467-0.0423-0.04233-0.0847-0.16932-0.1692-0.04233-0.0847-0.08466-0.0846-0.04233-0.0847v-0.0423l-0.08466-0.1694v-0.127l-0.04233-0.0423v-0.46566l0.04233-0.0847v-0.127l0.04233-0.0423 0.04233-0.0847v-0.0423l0.04233-0.0847 0.04233-0.0423 0.04233-0.0847 0.12699-0.1269 0.04233-0.0847 0.08466-0.0846 0.08467-0.0423 0.08466-0.0846h0.08467l0.04233-0.0423 0.08467-0.0423 0.04233-0.0423h0.08467l0.04233-0.0423h0.21167l0.08467-0.0423z" fill="none" stroke="#1f1a17" stroke-linecap="round" stroke-linejoin="round" stroke-miterlimit="10" stroke-width=".072644"/>
 </g>
</svg>
