<?xml version="1.0" encoding="UTF-8"?>
<!-- Created with Inkscape (http://www.inkscape.org/) -->
<svg width="11.642mm" height="35.301mm" version="1.1" viewBox="0 0 11.642 35.301" xmlns="http://www.w3.org/2000/svg">
 <defs>
  <clipPath id="clipPath138-4">
   <path transform="translate(-264.24 -520.04)" d="m247.14 496.28h33v24.66h-33z"/>
  </clipPath>
 </defs>
 <g transform="translate(-49.296 -89.651)">
  <g>
   <rect transform="translate(-1.2917e-6)" x="49.621" y="98.343" width="10.967" height="17.181" fill="#fff" stroke-width=".26458"/>
   <path transform="translate(-1.2917e-6)" d="m55.104 90.098 5.4225 8.0424h-10.601z" fill="#fff" stroke-width=".26458"/>
   <g fill-rule="evenodd">
    <path d="m49.571 98.435 5.4822 8.5725 5.5457-8.5725h-11.028" fill="#1f1a17" stroke-linecap="round" stroke-linejoin="round" stroke-miterlimit="10" stroke-width=".075494"/>
    <path d="m49.571 115.69 5.4822-8.6783 5.5457 8.6783h-11.028" fill="#1f1a17" stroke-linecap="round" stroke-linejoin="round" stroke-miterlimit="10" stroke-width=".075494"/>
    <path d="m52.111 115.69 3.0057-5.1223 3.0692 5.1223h-6.0748" fill="#fff"/>
    <path d="m58.186 98.435-3.0268 5.1223-3.048-5.1223h6.0748" fill="#fff"/>
   </g>
   <path d="m49.571 98.181h11.049v0.508h-11.049zm11.049 0h0.25399v0.25399h-0.25399zm-0.254 0.254h0.508v17.251h-0.508zm0.508 0m-0.254 17.251h0.25399v0.254h-0.25399zm0.254 0m-0.254 0.254h-11.049v-0.508h11.049zm-11.049 0h-0.27517v-0.254h0.27517zm0.254-0.254h-0.52917v-17.251h0.52917zm-0.52917 0m0.27517-17.251h-0.27517v-0.25399h0.27517z" fill="#1f1a17"/>
   <path d="m54.08 124.91h2.032v-9.017h-2.032z" fill="#848382"/>
  </g>
  <path d="m54.08 115.9h2.032v9.017h-2.032z" fill="none" stroke="#1f1a17" stroke-linecap="round" stroke-linejoin="round" stroke-miterlimit="10" stroke-width=".075494"/>
  <g>
   <g fill-rule="evenodd">
    <path d="m49.571 98.435 5.4822 8.5725 5.5457-8.5725h-11.028" fill="#1f1a17" stroke-linecap="round" stroke-linejoin="round" stroke-miterlimit="10" stroke-width=".075494"/>
    <path d="m49.571 115.69 5.4822-8.6783 5.5457 8.6783h-11.028" fill="#1f1a17" stroke-linecap="round" stroke-linejoin="round" stroke-miterlimit="10" stroke-width=".075494"/>
    <path d="m52.111 115.69 3.0057-5.1223 3.0692 5.1223h-6.0748" fill="#fff"/>
    <path d="m58.186 98.435-3.0268 5.1223-3.048-5.1223h6.0748" fill="#fff"/>
   </g>
   <path d="m49.571 98.181h11.049v0.508h-11.049zm11.049 0h0.25399v0.25399h-0.25399zm-0.254 0.254h0.508v17.251h-0.508zm0.508 0m-0.254 17.251h0.25399v0.254h-0.25399zm0.254 0m-0.254 0.254h-11.049v-0.508h11.049zm-11.049 0h-0.27517v-0.254h0.27517zm0.254-0.254h-0.52917v-17.251h0.52917zm-0.52917 0m0.27517-17.251h-0.27517v-0.25399h0.27517z" fill="#1f1a17"/>
   <path d="m54.08 124.91h2.032v-9.017h-2.032z" fill="#848382"/>
  </g>
  <path d="m54.08 115.9h2.032v9.017h-2.032z" fill="none" stroke="#1f1a17" stroke-linecap="round" stroke-linejoin="round" stroke-miterlimit="10" stroke-width=".075494"/>
  <g>
   <g fill-rule="evenodd">
    <path d="m49.571 98.435 5.4822 8.5725 5.5457-8.5725h-11.028" fill="#1f1a17" stroke-linecap="round" stroke-linejoin="round" stroke-miterlimit="10" stroke-width=".075494"/>
    <path d="m49.571 115.69 5.4822-8.6783 5.5457 8.6783h-11.028" fill="#1f1a17" stroke-linecap="round" stroke-linejoin="round" stroke-miterlimit="10" stroke-width=".075494"/>
    <path d="m52.111 115.69 3.0057-5.1223 3.0692 5.1223h-6.0748" fill="#fff"/>
    <path d="m58.186 98.435-3.0268 5.1223-3.048-5.1223h6.0748" fill="#fff"/>
   </g>
   <path d="m49.571 98.181h11.049v0.508h-11.049zm11.049 0h0.25399v0.25399h-0.25399zm-0.254 0.254h0.508v17.251h-0.508zm0.508 0m-0.254 17.251h0.25399v0.254h-0.25399zm0.254 0m-0.254 0.254h-11.049v-0.508h11.049zm-11.049 0h-0.27517v-0.254h0.27517zm0.254-0.254h-0.52917v-17.251h0.52917zm-0.52917 0m0.27517-17.251h-0.27517v-0.25399h0.27517z" fill="#1f1a17"/>
   <path d="m54.08 124.91h2.032v-9.017h-2.032z" fill="#848382"/>
  </g>
  <path d="m54.08 115.9h2.032v9.017h-2.032z" fill="none" stroke="#1f1a17" stroke-linecap="round" stroke-linejoin="round" stroke-miterlimit="10" stroke-width=".075494"/>
  <g fill="#1f1a17">
   <path d="m55.096 93.672h0.14817l0.0635 0.02117c0.66851 0.05962 1.2439 0.69815 1.2488 1.3758l0.02117 0.08467-0.02117 0.0635c-0.01588 0.7306-0.58773 1.3243-1.3123 1.397h-0.23283c-1.8196-0.14429-1.8722-2.6963-0.0635-2.9422h0.14817" fill-rule="evenodd"/>
   <path d="m55.096 93.313h0.04233c0.41134 0.0056 0.89359 0.19544 1.1853 0.48683l0.0635 0.0635-0.508 0.48683-0.02117-0.04233c-0.20179-0.14358-0.44309-0.28152-0.6985-0.27517h-0.0635zm1.2912 0.55033-0.254 0.23283zm0 0 0.0635 0.04233c0.28469 0.32879 0.45896 0.75036 0.46567 1.1853v0.0635h-0.6985v-0.0635c-0.0381-0.32456-0.07867-0.44873-0.29633-0.6985l-0.04233-0.04233zm0.52917 1.2912v0.16933l-0.02117 0.10583-0.02117 0.08467v0.08467l-0.04233 0.08467-0.02117 0.08467c-0.11254 0.29986-0.13406 0.29563-0.29633 0.55033l-0.127 0.127-0.508-0.508 0.04233-0.04233c0.21308-0.2353 0.26352-0.38523 0.29633-0.6985v-0.04233zm-0.52917 1.2912-0.254-0.254zm0 0-0.0635 0.0635c-0.33408 0.29669-0.75071 0.45649-1.1853 0.46567h-0.04233v-0.6985h0.0635l0.04233-0.02117c0.16016 0.01799 0.17039-0.05009 0.27517-0.04233l0.04233-0.02117 0.0635-0.04233 0.08467-0.04233 0.0635-0.02117 0.04233-0.04233 0.04233-0.02117 0.02117-0.04233 0.04233-0.04233zm-1.2912 0.52917h-0.1905l-0.04233-0.02117h-0.08467l-0.0635-0.02117h-0.04233l-0.04233-0.02117h-0.04233l-0.04233-0.02117h-0.04233l-0.16933-0.08467h-0.04233l-0.04233-0.02117-0.02117-0.02117-0.08467-0.04233-0.04233-0.04233-0.04233-0.02117-0.0635-0.04233-0.0635-0.0635-0.0635-0.04233-0.0635-0.0635 0.48683-0.508 0.08467 0.08467c0.09137 0.04727 0.08855 0.08925 0.23283 0.127l0.04233 0.04233 0.0635 0.02117h0.04233l0.0635 0.02117 0.04233 0.02117h0.10583l0.0635 0.02117h0.0635zm-1.2912-0.52917 0.254-0.254zm0 0-0.0635-0.0635c-0.1457-0.12771-0.27234-0.39864-0.35983-0.5715v-0.04233l-0.04233-0.08467v-0.04233l-0.04233-0.08467v-0.08467l-0.02117-0.04233v-0.14817l-0.02117-0.04233v-0.08467h0.71967v0.04233c-0.0078 0.23777 0.11395 0.53799 0.29633 0.6985l0.02117 0.04233zm-0.55033-1.2912v-0.10583l0.02117-0.04233v-0.14817l0.02117-0.04233v-0.08467l0.04233-0.08467v-0.04233l0.04233-0.08467v-0.04233l0.10583-0.21167 0.02117-0.02117 0.02117-0.04233 0.04233-0.08467 0.04233-0.0635 0.0635-0.0635 0.0635-0.08467 0.0635-0.04233 0.48683 0.48683-0.02117 0.04233c-0.18768 0.17639-0.29633 0.44274-0.29633 0.6985v0.0635zm1.0372-0.80433-0.23283-0.254zm-0.48683-0.48683 0.0635-0.0635c0.30798-0.31115 0.75777-0.47343 1.1853-0.48683h0.04233v0.71967h-0.127c-0.0949 0.01023-0.18662 0.02399-0.27517 0.0635l-0.08467 0.04233-0.0635 0.02117-0.04233 0.02117-0.04233 0.04233-0.04233 0.02117-0.04233 0.04233-0.04233 0.02117-0.04233 0.04233-0.48683-0.48683"/>
   <path transform="matrix(.35278 0 0 -.35278 55.329 89.968)" d="m0 0 7.56-11.28-1.2-0.84-7.56 11.28zm7.56-11.28 7.56-11.22-1.26-0.84-7.5 11.22zm7.56-11.22 0.78-1.2h-1.38v0.78zm-0.6-1.2h-15.12v1.5h15.12zm-15.12 0h-15.12v1.5h15.12zm-15.12 0h-1.38l0.78 1.2 0.6-0.42zm-0.6 1.2 7.56 11.22 1.26-0.84-7.56-11.22zm7.56 11.22 7.56 11.28 1.2-0.84-7.5-11.28zm7.56 11.28 0.6 0.9 0.6-0.9-0.6-0.42-0.6 0.42" clip-path="url(#clipPath138-4)"/>
  </g>
 </g>
</svg>
