<?xml version="1.0" encoding="UTF-8"?>
<!-- Created with Inkscape (http://www.inkscape.org/) -->
<svg width="11.684mm" height="35.28mm" version="1.1" viewBox="0 0 11.684 35.28" xmlns="http://www.w3.org/2000/svg">
 <defs>
  <clipPath id="clipPath242-2">
   <path transform="translate(-265.68 -478.16)" d="m248.52 454.52h33.12v24.54h-33.12z"/>
  </clipPath>
 </defs>
 <g transform="translate(-58.779 -75.099)">
  <g>
   <rect transform="translate(-1.0833e-6)" x="59.022" y="83.791" width="10.967" height="17.181" fill="#fff" stroke-width=".26458"/>
   <path transform="translate(-1.0833e-6)" d="m59.327 83.385h10.54l-5.2397-7.7987z" fill="#fff" stroke-width=".26458"/>
   <path d="m63.457 110.34h2.0532v-8.9958h-2.0532z" fill="#848382"/>
  </g>
  <path d="m63.457 101.35h2.0532v8.9958h-2.0532z" fill="none" stroke="#1f1a17" stroke-linecap="round" stroke-linejoin="round" stroke-miterlimit="10" stroke-width=".075494"/>
  <path d="m63.457 110.34h2.0532v-8.9958h-2.0532z" fill="#848382"/>
  <path d="m63.457 101.35h2.0532v8.9958h-2.0532z" fill="none" stroke="#1f1a17" stroke-linecap="round" stroke-linejoin="round" stroke-miterlimit="10" stroke-width=".075494"/>
  <path d="m59.054 83.587h11.091v0.508h-11.091zm11.091 0h0.25399v0.254h-0.25399zm-0.254 0.254h0.508v17.208h-0.508zm0.508 0m-0.254 17.208h0.25399v0.254h-0.25399zm0.254 0m-0.254 0.254h-11.091v-0.508h11.091zm-11.091 0h-0.254v-0.254h0.254zm0.254-0.254h-0.508v-17.208h0.508zm-0.508 0m0.254-17.208h-0.254v-0.254h0.254z" fill="#1f1a17"/>
  <path d="m63.457 110.34h2.0532v-8.9958h-2.0532z" fill="#848382"/>
  <path d="m63.457 101.35h2.0532v8.9958h-2.0532z" fill="none" stroke="#1f1a17" stroke-linecap="round" stroke-linejoin="round" stroke-miterlimit="10" stroke-width=".075494"/>
  <g fill-rule="evenodd">
   <path d="m70.357 100.94-5.6303-6.985-5.461 6.985h11.091" fill="#1f1a17" stroke-linecap="round" stroke-linejoin="round" stroke-miterlimit="10" stroke-width=".075494"/>
   <path d="m61.594 100.82 3.2385-4.3815 3.1962 4.3815h-6.4347" fill="#fff"/>
   <path d="m59.266 84.116 5.6092 6.985 5.4822-6.985h-11.091" fill="#1f1a17" stroke-linecap="round" stroke-linejoin="round" stroke-miterlimit="10" stroke-width=".075494"/>
   <path d="m68.156 84.116-3.3655 4.5085-3.1962-4.3815 6.5617-0.127" fill="#fff"/>
   <path d="m64.832 88.963 0.16933 0.02117h0.14817c3.8142 0.59725 3.7052 6.4375-0.14817 6.8368h-0.33867c-3.8495-0.40923-3.9642-6.2258-0.14817-6.8368h0.14817l0.16933-0.02117" fill="#fff"/>
  </g>
  <g fill="#1f1a17">
   <path d="m64.832 88.264h0.10583c0.99166 0.03246 1.8644 0.4632 2.5612 1.1642l0.0635 0.08467-1.0372 0.93133-0.04233-0.04233c-0.40781-0.42333-0.99766-0.72037-1.5875-0.71967h-0.0635zm2.7305 1.2488 0.0635 0.0635c0.64735 0.70732 1.0382 1.7519 1.0372 2.7093v0.10583h-1.4182v-0.0635c-0.01376-0.71085-0.23883-1.2869-0.67733-1.8415l-0.04233-0.04233zm1.1007 2.8787v0.10583c0.0011 0.99871-0.38347 1.9808-1.0372 2.7305l-0.0635 0.0635-1.0372-0.93133 0.04233-0.0635c0.4325-0.4946 0.6671-1.1631 0.67733-1.8203v-0.08467zm-1.1007 2.8998-0.0635 0.08467-0.0635 0.0635c-0.30515 0.28399-0.63218 0.54857-1.016 0.71967l-0.16933 0.08467c-0.34678 0.15134-0.84737 0.28469-1.2277 0.27517l-0.08467 0.02117h-0.10583v-1.4182h0.0635c0.59866-0.01799 1.167-0.30127 1.5875-0.71967l0.04233-0.04233zm-2.7305 1.2488h-0.10583l-0.08467-0.02117c-0.39688 0.0088-0.86254-0.12347-1.2277-0.27517l-0.16933-0.08467c-0.38382-0.1711-0.71085-0.43568-1.016-0.71967l-0.0635-0.0635-0.0635-0.08467 1.0372-0.93133 0.04233 0.04233c0.43462 0.42263 0.97331 0.69603 1.5875 0.71967h0.0635zm-2.7305-1.2488-0.0635-0.0635c-0.64594-0.75142-1.0379-1.7328-1.0372-2.7305v-0.10583h1.4182v0.08467c0.01834 0.67839 0.23848 1.3056 0.67733 1.8203l0.04233 0.0635zm-1.1007-2.8998v-0.10583c0.0085-0.98566 0.38629-1.9741 1.0372-2.7093l0.0635-0.0635 1.0372 0.93133-0.04233 0.04233c-0.45438 0.59725-0.64629 1.0809-0.67733 1.8415v0.0635zm1.1007-2.8787 0.0635-0.08467c0.69321-0.69921 1.5734-1.1317 2.5612-1.1642h0.10583v1.4182h-0.0635c-0.60149 0.0032-1.1709 0.29528-1.5875 0.71967l-0.04233 0.04233-1.0372-0.93133"/>
   <path d="m64.473 79.205 0.08467 0.02117h0.08467c1.8157 0.24377 1.7244 2.8021-0.08467 2.921h-0.14817c-1.809-0.11889-1.9004-2.6772-0.08467-2.921h0.08467l0.0635-0.02117" fill-rule="evenodd"/>
   <path d="m64.473 78.866h0.1905l0.04233 0.02117h0.10583l0.04233 0.02117h0.08467l0.08467 0.04233c0.31503 0.09066 0.37677 0.15028 0.635 0.3175l0.127 0.127-0.508 0.508-0.04233-0.04233c-0.18803-0.19262-0.43744-0.27234-0.6985-0.29633h-0.0635zm1.3123 0.52917-0.254 0.254zm0 0 0.0635 0.0635c0.2854 0.32738 0.46778 0.74718 0.46567 1.1853v0.04233h-0.6985v-0.10583l-0.02117-0.0635v-0.0635l-0.02117-0.04233-0.02117-0.0635v-0.04233l-0.02117-0.0635-0.02117-0.04233-0.04233-0.04233-0.02117-0.04233-0.02117-0.0635-0.04233-0.04233-0.02117-0.04233-0.04233-0.04233-0.04233-0.02117zm0.52917 1.2912v0.1905l-0.04234 0.16934v0.10583l-0.04233 0.08467-0.02117 0.08467c-0.11148 0.2346-0.12488 0.31362-0.3175 0.52917l-0.04233 0.0635-0.0635 0.0635-0.508-0.508 0.04233-0.02117 0.04233-0.04233 0.02117-0.04233 0.04233-0.04233 0.02117-0.0635 0.02117-0.04233 0.04233-0.04233 0.02117-0.04233 0.02117-0.0635v-0.04233l0.02117-0.0635 0.02117-0.04233v-0.0635l0.02117-0.0635v-0.10583zm-0.52917 1.2912-0.254-0.254zm0 0-0.0635 0.0635c-0.35278 0.28928-0.73942 0.45438-1.1853 0.46567h-0.0635v-0.6985h0.0635c0.26106-0.02399 0.51047-0.10372 0.6985-0.29633l0.04233-0.04233zm-1.3123 0.52917h-0.16933l-0.0635-0.02117h-0.08467l-0.04233-0.02117h-0.04233l-0.04233-0.02117h-0.04233l-0.04233-0.02117h-0.04233l-0.16933-0.08467h-0.04233l-0.16933-0.08467-0.0635-0.0635-0.08467-0.04233-0.0635-0.0635-0.0635-0.04233-0.0635-0.0635 0.508-0.508 0.04233 0.04233c0.18803 0.19262 0.43744 0.27234 0.6985 0.29633h0.04233zm-1.2912-0.52917 0.254-0.254zm0 0-0.02117-0.04233-0.04233-0.02117-0.02117-0.04233-0.04233-0.02117-0.04233-0.0635-0.04233-0.08467-0.0635-0.0635-0.127-0.254v-0.02117l-0.04233-0.08467v-0.04233l-0.02117-0.0635-0.02117-0.02117v-0.0635l-0.02117-0.04233v-0.08467l-0.02117-0.04233v-0.23283h0.6985v0.0635l0.02117 0.04233v0.127l0.02117 0.04233 0.02117 0.0635v0.04233l0.02117 0.0635 0.02117 0.04233 0.04233 0.04233 0.02117 0.04233 0.02117 0.0635 0.04233 0.04233 0.02117 0.04233 0.04233 0.04233 0.04233 0.02117zm-0.52917-1.2912v-0.23283l0.02117-0.04233v-0.08467l0.02117-0.04233v-0.0635l0.04234-0.08466v-0.04233l0.04233-0.08467v-0.04233l0.04233-0.0635 0.08467-0.16933 0.0635-0.0635 0.04233-0.08467 0.0635-0.0635 0.04233-0.0635 0.0635-0.0635 0.508 0.508-0.04233 0.02117-0.04233 0.04233-0.02117 0.04233-0.04233 0.04233-0.02117 0.0635-0.02117 0.04233-0.04233 0.04233-0.02117 0.04233-0.02117 0.0635v0.04233l-0.02117 0.0635-0.02117 0.04233v0.127l-0.02117 0.04233v0.0635zm1.0372-0.78317-0.254-0.254zm-0.508-0.508 0.0635-0.0635c0.33196-0.28152 0.75212-0.46108 1.1853-0.46567h0.04233v0.6985h-0.04233c-0.26106 0.02399-0.51047 0.10372-0.6985 0.29633l-0.04233 0.04233-0.508-0.508"/>
   <path transform="matrix(.35278 0 0 -.35278 64.832 75.416)" d="m0 0 7.62-11.22-1.26-0.84-7.56 11.22zm7.62-11.22 7.56-11.22-1.26-0.84-7.56 11.22zm7.56-11.22 0.78-1.14h-1.38v0.72zm-0.6-1.14h-15.18v1.5h15.18zm-15.18 0h-15.12v1.5h15.12zm-15.12 0h-1.44l0.78 1.14 0.66-0.42zm-0.66 1.14 7.56 11.22 1.26-0.84-7.56-11.22zm7.56 11.22 7.62 11.22 1.2-0.84-7.56-11.22zm7.62 11.22 0.6 0.9 0.6-0.9-0.6-0.42-0.6 0.42" clip-path="url(#clipPath242-2)"/>
  </g>
 </g>
</svg>
