<?xml version="1.0" encoding="UTF-8"?>
<!-- Created with Inkscape (http://www.inkscape.org/) -->
<svg width="17.716mm" height="40.576mm" version="1.1" viewBox="0 0 17.716 40.576" xmlns="http://www.w3.org/2000/svg">
 <defs>
  <clipPath id="clipPath45-8">
   <path transform="translate(0 2.5e-5)" d="m285.96 210.98h5.1v84.36h-5.1z"/>
  </clipPath>
  <clipPath id="clipPath52-8">
   <path transform="translate(-277.92 -322.94)" d="m263.34 293.3h50.22v32.7h-50.22z"/>
  </clipPath>
 </defs>
 <g transform="translate(-35.273 -84.359)">
  <path transform="translate(3.75e-7)" d="m39.619 85.334h9.0172l3.4119 9.7484h-15.719z" fill="#fff" stroke-width=".26458"/>
  <path d="m43.316 124.91h1.651v-29.676h-1.651z" fill="#898989"/>
  <path transform="matrix(.35278 0 0 -.35278 -57.627 199.36)" d="m286.14 295.16h4.68v-84.12h-4.68z" clip-path="url(#clipPath45-8)" fill="none" stroke="#2b2a29" stroke-linecap="round" stroke-linejoin="round" stroke-miterlimit="10" stroke-width=".175"/>
  <path d="m43.126 119.96h2.0108v-23.897h-2.0108z" fill="#fefefe"/>
  <path d="m43.126 96.064h2.0108v23.897h-2.0108z" fill="none" stroke="#2b2a29" stroke-linecap="round" stroke-linejoin="round" stroke-miterlimit="10" stroke-width=".061736"/>
  <g fill="#2b2a29">
   <g fill-rule="evenodd" stroke="#2b2a29" stroke-linecap="round" stroke-linejoin="round" stroke-miterlimit="10" stroke-width=".061736">
    <path d="m45.137 105.99-2.0108 0.78317 0.02117 3.2808 1.9897-0.80433v-3.2597"/>
    <path d="m45.137 112.6-2.0108 0.762 0.02117 3.2808 1.9897-0.78316v-3.2597"/>
    <path d="m45.137 99.409-2.0108 0.78317 0.02117 3.2808 1.9897-0.80433v-3.2597"/>
   </g>
   <path transform="matrix(.35278 0 0 -.35278 40.417 85.439)" d="m0 0-9.18-28.02-4.38 1.5 9.18 27.96zm-11.34-29.58h-3.24l1.02 3.06 2.22-0.78zm0 4.62 43.8 0.06v-4.62l-43.8-0.06zm45.96-1.5 1.02-3.06h-3.18v2.34zm-4.38-1.5-9.18 27.96 4.38 1.44 9.18-27.9zm-7.02 31.02h1.68l0.54-1.62-2.22-0.72zm0-4.68h-25.38v4.68h25.38zm-27.6 3.06 0.54 1.62h1.68v-2.34l-2.22 0.72" clip-path="url(#clipPath52-8)"/>
  </g>
  <path d="m39.358 98.774h9.3133v-2.7093h-9.3133z" fill="#fdfcf9"/>
  <path d="m39.358 96.064h9.3133v2.7093h-9.3133z" fill="none" stroke="#2b2a29" stroke-linecap="round" stroke-linejoin="round" stroke-miterlimit="10" stroke-width=".16087"/>
  <g fill="#2b2a29">
   <path d="m40.649 98.096h-0.21167v-1.3123l-0.02117 0.04233-0.0635 0.02117-0.04233 0.04233-0.0635 0.04233-0.04233 0.02117-0.0635 0.04233-0.04233 0.02117-0.0635 0.02117v-0.21167l0.16933-0.08467 0.02117-0.02117 0.04233-0.02117 0.0635-0.0635 0.04233-0.02117c0.01129-0.02716 0.10442-0.1524 0.127-0.16933l0.02117-0.02117h0.127v1.6722"/>
   <path d="m42.216 97.885v0.21167h-1.0795v-0.08467l0.02117-0.02117v-0.04233l0.02117-0.02117v-0.04233l0.04233-0.04233 0.02117-0.04233v-0.02117l0.23283-0.23283 0.08467-0.0635 0.0635-0.0635 0.0635-0.04233 0.04233-0.0635 0.1905-0.1905c0.05962-0.09984 0.04198-0.0575 0.08467-0.16933v-0.1905l-0.14817-0.14817h-0.02117l-0.04233-0.02117h-0.1905l-0.02117 0.02117h-0.04233l-0.127 0.127v0.04233l-0.02117 0.02117v0.10583l-0.21167-0.02117v-0.04233l0.02117-0.0635v-0.04233c0.0695-0.18415 0.2092-0.30057 0.40217-0.3175h0.27517l0.127 0.0635 0.02117 0.02117h0.02117l0.04233 0.04233 0.02117 0.04233 0.04233 0.02117 0.04234 0.08466v0.04233l0.02117 0.04233v0.1905l-0.02117 0.04233-0.02117 0.0635v0.02117l-0.02117 0.02117v0.02117l-0.02117 0.02117c-0.15875 0.21978-0.45579 0.4445-0.65617 0.635l-0.02117 0.04233-0.04233 0.04233h0.80433"/>
   <path d="m42.449 97.652 0.1905-0.04233 0.02117 0.04233v0.04233l0.02117 0.04233v0.02117l0.02117 0.04233 0.10584 0.10584h0.02117l0.02117 0.02117h0.02117l0.04233 0.02117h0.127l0.02117-0.02117h0.04233l0.04233-0.04233 0.04233-0.02117 0.02117-0.02117c0.09102-0.07973 0.03951-0.07197 0.08467-0.14817v-0.0635l0.02117-0.04233-0.02117-0.02117v-0.0635l-0.02117-0.04233v-0.02117l-0.04234-0.04234-0.02117-0.04233-0.02117-0.02117h-0.02117l-0.02117-0.02117c-0.13723-0.05609-0.09031-0.04092-0.23283-0.04233l-0.04233 0.02117h-0.02117l0.02117-0.16933h0.08467l0.04233-0.02117h0.04233l0.04233-0.02117 0.02117-0.02117h0.02117l0.08467-0.08467v-0.04233l0.02117-0.02117v-0.14817l-0.02117-0.02117v-0.02117l-0.08467-0.08467v-0.02117h-0.04233l-0.02117-0.02117h-0.21167l-0.04233 0.04233h-0.02117l-0.0635 0.0635v0.02117l-0.02117 0.04233-0.02117 0.02117v0.0635l-0.02117 0.04233-0.1905-0.04233v-0.04233l0.02117-0.0635c0.13194-0.242 0.09066-0.18874 0.33867-0.3175h0.254l0.04233 0.02117h0.02117l0.02117 0.02117h0.04233l0.0635 0.0635 0.04233 0.02117v0.02117l0.08467 0.08467v0.02117l0.02117 0.04233v0.04233l0.02117 0.02117v0.127l-0.02117 0.02117v0.04233l-0.02117 0.02117v0.02117l-0.04233 0.04233v0.02117l-0.08467 0.08467h-0.04233l-0.02117 0.02117h0.04233l0.02117 0.02117 0.04233 0.02117h0.02117l0.02117 0.02117 0.04233 0.02117 0.02117 0.02117 0.02117 0.04233 0.02117 0.02117v0.02117l0.02117 0.04233 0.02117 0.02117v0.10583l0.02117 0.04233v0.04233l-0.02117 0.02117v0.10583l-0.02117 0.02117v0.02117l-0.02117 0.02117v0.02117l-0.04233 0.04233v0.02117l-0.08467 0.08467h-0.02117l-0.0635 0.0635h-0.02117l-0.02117 0.02117h-0.02117l-0.02117 0.02117h-0.08467l-0.0635 0.02117h-0.10583c-0.18309-0.02117-0.37394-0.14041-0.4445-0.3175v-0.0635l-0.02117-0.04233v-0.04233"/>
   <path d="m43.824 98.096v-0.23283h0.23283v0.3175l-0.02117 0.02117v0.04233l-0.02117 0.02117v0.02117l-0.02117 0.02117v0.02117l-0.04233 0.04233h-0.02117l-0.04233 0.04233h-0.02117l-0.0635-0.08467h0.02117l0.02117-0.02117h0.02117v-0.02117h0.02117v-0.02117h0.02117v-0.04233h0.02117v-0.127h-0.10583"/>
   <path d="m45.01 98.096v-0.40217h-0.71967v-0.1905l0.74083-1.0795h0.16933v1.0795h0.23283v0.1905h-0.23283v0.40217zm0-0.59267v-0.74083l-0.52917 0.74083h0.52917"/>
   <path d="m45.624 97.652 0.21167-0.02117 0.02117 0.04233v0.04233l0.02117 0.02117v0.04233l0.14817 0.14817h0.02117l0.02117 0.02117h0.08467c0.21131-0.0046 0.2346-0.08819 0.33867-0.23283v-0.04233l0.02117-0.04233v-0.08467c0.01199-0.13864-0.06385-0.27481-0.1905-0.33867l-0.02117-0.02117h-0.04233l-0.02117-0.02117h-0.14817l-0.02117 0.02117h-0.04233l-0.02117 0.02117h-0.02117l-0.02117 0.02117h-0.02117l-0.02117 0.02117v0.02117h-0.02117l-0.02117 0.02117v0.02117l-0.02117 0.02117-0.1905-0.04233 0.16933-0.84667h0.80433v0.1905h-0.65617l-0.08467 0.4445 0.08467-0.04233 0.02117-0.02117h0.04233l0.04233-0.02117h0.04233l0.04233-0.02117h0.04233l0.04233 0.02117h0.10583l0.02117 0.02117h0.02117l0.02117 0.02117h0.02117l0.02117 0.02117h0.02117l0.08467 0.08467h0.02117l0.02117 0.02117v0.02117l0.04234 0.04234v0.04233l0.02117 0.02117v0.02117l0.02117 0.02117v0.08467l0.02117 0.04233v0.10583l-0.02117 0.0635v0.0635l-0.06351 0.12699c-0.04233 0.07303-0.04163 0.11606-0.10583 0.16933l-0.02117 0.02117h-0.02117l-0.04233 0.02117-0.02117 0.02117h-0.02117l-0.02117 0.02117-0.04233 0.02117h-0.0635l-0.02117 0.02117h-0.0635c-0.12136-6e-3 -0.11959 0.02611-0.23283-0.04233l-0.04233-0.02117h-0.04233c-0.0702-0.07056-0.15593-0.11218-0.1905-0.21167l-0.04233-0.08467v-0.0635l-0.02117-0.04233"/>
   <path d="m47.952 96.826-0.1905 0.02117v-0.02117l-0.02117-0.04233v-0.02117l-0.02117-0.02117v-0.02117l-0.02117-0.02117v-0.02117h-0.02117l-0.0635-0.0635h-0.02117l-0.02117-0.02117h-0.21167l-0.04233 0.04233-0.04233 0.02117v0.02117l-0.04233 0.02117v0.02117l-0.02117 0.02117-0.02117 0.04233-0.02117 0.02117v0.04233l-0.02117 0.02117-0.02117 0.04233v0.10583l-0.02117 0.04233v0.16933l0.02117-0.02117 0.02117-0.04233 0.08467-0.08467h0.02117l0.02117-0.02117 0.04233-0.02117h0.02117l0.02117-0.02117h0.14817 0.127c0.16722 0.04904 0.34184 0.24941 0.33867 0.42333l0.02117 0.04233v0.10583l-0.02117 0.04233v0.0635l-0.02117 0.04233v0.02117l-0.02117 0.04233v0.04233l-0.02117 0.02117-0.02117 0.04233-0.04233 0.04233-0.02117 0.04233-0.04233 0.02117-0.04234 0.04234h-0.04233l-0.02117 0.02117-0.04233 0.02117h-0.0635l-0.02117 0.02117h-0.16933l-0.02117-0.02117h-0.0635l-0.02117-0.02117h-0.02117l-0.04233-0.02117-0.02117-0.02117h-0.02117l-0.14817-0.14817-0.02117-0.04233v-0.02117c-0.03704-0.05503-0.06209-0.12382-0.0635-0.1905l-0.02117-0.04233v-0.127l-0.02117-0.04233v-0.23283l0.02117-0.04233v-0.10583l0.02117-0.0635v-0.08467l0.04234-0.08466v-0.04233l0.02117-0.02117 0.04234-0.08466 0.1905-0.1905h0.02117l0.02117-0.02117h0.04233l0.02117-0.02117h0.29633l0.04233 0.02117 0.02117 0.02117h0.04233l0.0635 0.0635 0.04233 0.02117 0.02117 0.04233 0.02117 0.02117 0.04234 0.08466v0.04233l0.02117 0.04233zm-0.8255 0.71967v0.0635l0.02117 0.02117v0.04233l0.02117 0.02117v0.0635l0.04233 0.04233v0.02117l0.02117 0.02117h0.02117l0.02117 0.02117v0.02117l0.02117 0.02117h0.02117l0.02117 0.02117h0.04233l0.02117 0.02117h0.127l0.02117-0.02117h0.04233l0.0635-0.0635 0.04233-0.02117 0.02117-0.02117v-0.04233l0.02117-0.02117 0.02117-0.04233v-0.02117l0.02117-0.04233v-0.04233c0.01235-0.17956-0.02293-0.10971-0.02117-0.21167l-0.02117-0.02117v-0.04233c-0.07232-0.08396-0.07514-0.05468-0.127-0.10583l-0.02117-0.02117h-0.04233l-0.02117-0.02117h-0.127l-0.04233 0.02117h-0.02117l-0.02117 0.02117-0.04233 0.02117c-0.08043 0.07691-0.06491 0.06421-0.127 0.14817v0.0635l-0.02117 0.04233v0.04233"/>
  </g>
 </g>
</svg>
