<?xml version="1.0" encoding="UTF-8"?>
<!-- Created with Inkscape (http://www.inkscape.org/) -->
<svg width="12.7mm" height="34.555mm" version="1.1" viewBox="0 0 12.7 34.555" xmlns="http://www.w3.org/2000/svg">
 <defs>
  <clipPath id="clipPath577">
   <path transform="translate(-243.18 -324.08)" d="m238.02 249.92h5.22v74.16h-5.22z"/>
  </clipPath>
 </defs>
 <g transform="translate(-35.722 -61.906)">
  <g stroke="#000" stroke-linecap="round" stroke-linejoin="round" stroke-miterlimit="10" stroke-width=".021167">
   <path d="m39.014 61.917h6.0325l3.3655 3.2173v5.08h-12.679v-5.08l3.2808-3.2173" fill="#7e7e7e" fill-rule="evenodd"/>
   <path d="m38.972 65.113 0.16933 0.02117 0.14817 0.04233c0.69638 0.3362 0.63182 1.3201-0.14817 1.4605l-0.16933 0.02117-0.16933-0.02117c-0.7232-0.15734-0.75318-1.1688-0.10583-1.4605l0.10583-0.04233 0.16933-0.02117" fill="#848382" fill-rule="evenodd"/>
   <path d="m45.11 65.113 0.16933 0.02117 0.127 0.04233c0.65652 0.3242 0.6163 1.3021-0.127 1.4605l-0.16933 0.02117-0.16933-0.02117-0.14817-0.04233-0.10583-0.04233-0.127-0.10583-0.10583-0.10583-0.0635-0.127-0.04233-0.14817-0.02117-0.14817c0.06562-0.42933 0.05292-0.4191 0.35983-0.65617l0.10583-0.08467 0.14817-0.04233 0.16933-0.02117" fill="none"/>
  </g>
  <path d="m43.353 65.113 0.16933 0.02117 0.14817 0.04233c0.69286 0.29704 0.62794 1.3568-0.14817 1.4605l-0.16933 0.02117-0.14817-0.02117-0.14817-0.04233-0.127-0.04233-0.127-0.10583-0.10583-0.10583-0.0635-0.127-0.04233-0.14817-0.02117-0.14817c0.06562-0.42933 0.05292-0.4191 0.35983-0.65617l0.127-0.08467 0.14817-0.04233 0.14817-0.02117" fill="#7e7e7e" fill-rule="evenodd"/>
  <path d="m39.035 65.113 0.16933 0.02117 0.127 0.04233c0.6925 0.36548 0.63959 1.264-0.127 1.4605l-0.16933 0.02117-0.16933-0.02117-0.14817-0.04233-0.10583-0.04233-0.127-0.10583-0.08467-0.10583-0.0635-0.127-0.04233-0.14817-0.02117-0.14817c0.04092-0.32526 0.06738-0.46708 0.33867-0.65617l0.10583-0.08467 0.14817-0.04233 0.16933-0.02117" fill="#fff" fill-rule="evenodd" stroke="#1f1a17" stroke-linecap="round" stroke-linejoin="round" stroke-miterlimit="10" stroke-width=".094897"/>
  <path transform="matrix(.35278 0 0 -.35278 42.824 70.299)" d="m-5.16 0h5.16v-74.16h-5.16z" clip-path="url(#clipPath577)" fill="none" stroke="#000" stroke-linecap="round" stroke-linejoin="round" stroke-miterlimit="10" stroke-width=".06"/>
  <path d="m41.003 96.461h1.8203v-26.162h-1.8203z" fill="#7e7e7e"/>
  <path d="m40.368 92.545h3.048v-18.542h-3.048z" fill="#fff" stroke="#1f1a17" stroke-linecap="round" stroke-linejoin="round" stroke-miterlimit="10" stroke-width=".075494"/>
  <g fill="#e77844">
   <g fill-rule="evenodd">
    <path d="m40.369 91.487 3.048-1.4817v-3.0268l-3.048 1.5028v3.0057"/>
    <path d="m40.369 85.518 3.048-1.4817v-3.0268l-3.048 1.5028v3.0057"/>
    <path d="m40.369 79.549 3.048-1.5028v-3.0057l-3.048 1.5028v3.0057"/>
   </g>
   <path d="m36.05 70.384h12.065v-2.6882h-12.065z"/>
  </g>
  <path d="m36.05 67.695h12.065v2.6882h-12.065z" fill="none" stroke="#1f1a17" stroke-linecap="round" stroke-linejoin="round" stroke-miterlimit="10" stroke-width=".075494"/>
 </g>
</svg>
