<?xml version="1.0" encoding="UTF-8"?>
<!-- Created with Inkscape (http://www.inkscape.org/) -->
<svg width="11.62mm" height="26.814mm" version="1.1" viewBox="0 0 11.62 26.814" xmlns="http://www.w3.org/2000/svg">
 <g transform="translate(-66.675 -111.12)">
  <rect transform="translate(2.2917e-7)" x="67.077" y="111.46" width="10.857" height="17.06" fill="#fff" stroke-width=".26458"/>
  <path d="m71.353 137.89h2.0532v-8.9958h-2.0532z" fill="#848382"/>
  <path d="m71.353 128.9h2.0532v8.9958h-2.0532z" fill="none" stroke="#1f1a17" stroke-linecap="round" stroke-linejoin="round" stroke-miterlimit="10" stroke-width=".075847"/>
  <path d="m71.353 137.89h2.0532v-8.9958h-2.0532z" fill="#848382"/>
  <path d="m71.353 128.9h2.0532v8.9958h-2.0532z" fill="none" stroke="#1f1a17" stroke-linecap="round" stroke-linejoin="round" stroke-miterlimit="10" stroke-width=".075847"/>
  <path d="m66.929 111.12h11.112v0.508h-11.112zm11.112 0h0.254v0.25399h-0.254zm-0.254 0.254h0.508v17.208h-0.508zm0.508 0m-0.254 17.208h0.254v0.25399h-0.254zm0.254 0m-0.254 0.254h-11.112v-0.50797h11.112zm-11.112 0h-0.254v-0.25399h0.254zm0.254-0.254h-0.508v-17.208h0.508zm-0.508 0m0.254-17.208h-0.254v-0.25399h0.254z" fill="#1f1a17"/>
  <path d="m71.353 137.89h2.0532v-8.9958h-2.0532z" fill="#848382"/>
  <path d="m71.353 128.9h2.0532v8.9958h-2.0532z" fill="none" stroke="#1f1a17" stroke-linecap="round" stroke-linejoin="round" stroke-miterlimit="10" stroke-width=".075847"/>
  <g>
   <g fill-rule="evenodd">
    <path d="m78.232 128.48-5.6092-6.985-5.461 6.985h11.07" fill="#1f1a17" stroke-linecap="round" stroke-linejoin="round" stroke-miterlimit="10" stroke-width=".075847"/>
    <path d="m69.469 128.37 3.2597-4.4027 3.175 4.4027h-6.4347" fill="#fff"/>
    <path d="m67.162 111.65 5.6092 6.985 5.461-6.985h-11.07" fill="#1f1a17" stroke-linecap="round" stroke-linejoin="round" stroke-miterlimit="10" stroke-width=".075847"/>
    <path d="m76.031 111.65-3.3655 4.5085-3.175-4.4027 6.5405-0.10583" fill="#fff"/>
    <path d="m72.729 116.5 0.14817 0.0212h0.16933c3.8033 0.56268 3.6886 6.5158-0.16933 6.8368l-0.14817 0.0212-0.16933-0.0212c-3.8499-0.32703-3.9666-6.2664-0.16933-6.8368h0.16933l0.16933-0.0212" fill="#fff"/>
   </g>
   <path d="m72.729 115.8h0.08467c0.9779 0.0148 1.9039 0.47343 2.5823 1.1642l0.0635 0.0847-1.0583 0.93134-0.04233-0.0423c-0.37747-0.42192-1.0001-0.72319-1.5663-0.71966h-0.0635zm2.7305 1.2488 0.0635 0.0635c0.6544 0.74154 1.0012 1.724 1.0372 2.7093v0.10583h-1.4182v-0.127c-0.04198-0.30021-0.0695-0.60043-0.16933-0.889l-0.02117-0.0635-0.04233-0.0423c-0.04939-0.20285-0.27446-0.57503-0.42333-0.71967l-0.04233-0.0635-0.04233-0.0423zm1.1007 2.8787v0.10583c-0.02999 0.99272-0.37853 1.9837-1.0372 2.7305l-0.0635 0.0635-1.0583-0.93133 0.04233-0.0423 0.04233-0.0635c0.14887-0.14464 0.37394-0.51682 0.42333-0.71967l0.04233-0.0635 0.02117-0.0423c0.09984-0.28858 0.12735-0.58879 0.16933-0.889v-0.14817zm-1.1007 2.8998-0.0635 0.0847c-0.69638 0.69074-1.5914 1.1444-2.5823 1.1642h-0.08467v-1.4182h0.0635c0.55986 0 1.1924-0.29704 1.5663-0.71967l0.04233-0.0423zm-2.7305 1.2488h-0.10583c-1.0305-0.0349-1.8486-0.46179-2.5823-1.1642l-0.0635-0.0847 1.0583-0.93133 0.04233 0.0423c0.387 0.42298 1.0132 0.73131 1.5875 0.71967h0.0635zm-2.7517-1.2488-0.0635-0.0635c-0.6671-0.80504-0.98672-1.687-1.0372-2.7305v-0.10583h1.4182v0.0847l0.02117 0.0635c-0.01376 0.30727 0.06844 0.60042 0.16933 0.889l0.02117 0.0423 0.02117 0.0635c0.05821 0.20567 0.28081 0.56691 0.42333 0.71967l0.04233 0.0635 0.04233 0.0423zm-1.1007-2.8998v-0.10583l0.02117-0.0847c-0.0127-0.36971 0.10866-0.95285 0.254-1.2912l0.02117-0.10583 0.04233-0.0847c0.20602-0.48295 0.34537-0.66251 0.635-1.0795l0.127-0.127 1.0583 0.93134-0.04233 0.0423-0.04233 0.0635c-0.14252 0.15275-0.36512 0.514-0.42333 0.71967l-0.02117 0.0423-0.02117 0.0635c-0.10089 0.28857-0.18309 0.58173-0.16933 0.889l-0.02117 0.0635v0.0635zm1.1007-2.8787 0.0635-0.0847c0.75248-0.72214 1.5289-1.1197 2.5823-1.1642h0.10583v1.4182h-0.0635c-0.57432-0.0117-1.2005 0.29668-1.5875 0.71966l-0.04233 0.0423-1.0583-0.93134" fill="#1f1a17"/>
  </g>
 </g>
</svg>
