<?xml version="1.0" encoding="UTF-8"?>
<!-- Created with Inkscape (http://www.inkscape.org/) -->
<svg width="42.947mm" height="52.599mm" version="1.1" viewBox="0 0 42.947 52.599" xmlns="http://www.w3.org/2000/svg">
 <defs>
  <clipPath id="clipPath229">
   <path transform="translate(-2.5e-6 2.5e-5)" d="m250.26 473.06h121.74v149.1h-121.74z"/>
  </clipPath>
 </defs>
 <g transform="translate(-23.551 -165.36)">
  <path transform="matrix(.35278 0 0 -.35278 -64.736 384.85)" d="m250.26 473.06h121.74v149.1h-121.74z" clip-path="url(#clipPath229)" fill="#b6b5b4"/>
  <path d="m65.736 214.26-41.381-0.0212" fill="none" stroke="#1f1a17" stroke-linecap="round" stroke-linejoin="round" stroke-miterlimit="10" stroke-width=".19932"/>
  <path d="m37.902 209.86-0.55033 0.55033v3.8312c-0.09207 0.11289-0.14746 0.39017-0.254 0.46567l-0.04233 0.0212-0.04233-0.0423c-0.05327-0.0388-0.08573-0.13264-0.127-0.16933l-0.0635-0.14817-0.08467-0.127c-0.25894-0.19438-0.64558-0.34608-0.93133-0.52917l-0.16933-0.0847-0.14817-0.0635v-2.8363h-1.8415v-3.175l1.8415-0.0212v-2.8787l0.14817-0.0847c0.53516-0.3436 1.0989-0.41945 1.3335-0.9525l0.08467-0.127 0.08467 0.127 0.0635 0.127 0.08467 0.10584 0.0635 0.127v3.7888l0.55033 0.52917 14.901-0.0212 0.55033-0.5715v-3.7677l0.08467-0.127 0.0635-0.127 0.0635-0.10583 0.08467-0.127 0.08467 0.127 0.08467 0.10583 0.0635 0.127 0.08467 0.127 0.14817 0.0847 0.16933 0.0847 0.14817 0.0847 0.16933 0.0847 0.14817 0.0847 0.16933 0.0847 0.29633 0.16934v2.8787l1.8415 0.0212v3.175h-1.8415v2.8363l-0.14817 0.0635-0.14817 0.0847c-0.72002 0.43886-0.8703 0.25823-1.1853 0.93133l-0.02117 0.0212-0.04233 0.0423h-0.04233l-0.04233-0.0212-0.04234-0.0424-0.02117-0.0423v-0.0212l-0.04233-0.0847-0.02117-0.0635-0.04233-0.0635-0.02117-0.0847-0.04233-0.0635v-3.8312l-0.55033-0.508-14.901 0.0212" fill="#848382" stroke-linecap="round" stroke-linejoin="round" stroke-miterlimit="10" stroke-width=".074083"/>
  <g fill="none" stroke="#1f1a17" stroke-linecap="round" stroke-linejoin="round" stroke-miterlimit="10" stroke-width=".074083">
   <path d="m53.967 214.22v-10.266"/>
   <path d="m35.489 207.53v3.2173"/>
   <path d="m37.351 207.76v2.6247"/>
   <path d="m36.737 203.95v10.308"/>
  </g>
  <path d="m60.254 204.4 0.02117 0.46567 1.2912 0.0212-0.02117-27.686-0.40217-0.48683c-8.1763-10.598-24.148-10.842-32.258-0.0423l-0.40217 0.48683v27.728l1.3123-0.0212 0.02117-0.46567h30.438" fill="#848382" stroke-linecap="round" stroke-linejoin="round" stroke-miterlimit="10" stroke-width=".074083"/>
  <g fill="none" stroke="#1f1a17" stroke-linecap="round" stroke-linejoin="round" stroke-miterlimit="10">
   <g stroke-width=".099836">
    <path d="m50.961 177.2h10.604"/>
    <path d="m39.87 177.2h10.16"/>
    <path d="m28.482 177.2h10.435"/>
   </g>
   <g stroke-width=".074083">
    <path d="m30.768 176.2h8.1492"/>
    <path d="m39.807 176.2h10.266"/>
    <path d="m50.94 176.2h8.2973"/>
    <path d="m29.774 178.15h9.144"/>
    <path d="m39.807 178.15h10.266"/>
    <path d="m50.94 178.15h9.2922"/>
    <path d="m29.774 200.06h9.144"/>
    <path d="m39.828 200.06h10.245"/>
    <path d="m50.983 200.06h9.2498"/>
    <path d="m29.774 201.14h9.1863"/>
    <path d="m39.828 201.14h10.245"/>
    <path d="m50.961 201.14h9.271"/>
   </g>
   <g stroke-width=".099836">
    <path d="m38.918 170.93v33.464"/>
    <path d="m39.828 170.61v33.803"/>
    <path d="m50.961 170.91v33.507"/>
    <path d="m50.072 170.59v33.824"/>
    <path d="m29.795 204.4v-27.136l0.42333-0.46566c8.6879-9.3447 20.756-9.1616 29.57-0.0635l0.4445 0.4445v27.242"/>
   </g>
  </g>
  <path d="m43.468 203.59h3.2597v-1.6087h-3.2597z" fill="#848382"/>
  <path d="m43.468 201.98h3.2597v1.6087h-3.2597z" fill="none" stroke="#1f1a17" stroke-linecap="round" stroke-linejoin="round" stroke-miterlimit="10" stroke-width=".074083"/>
  <path d="m43.765 207.21h2.7305v-0.74084h-2.7305z" fill="#848382"/>
  <path d="m43.765 206.47h2.7305v0.74083h-2.7305z" fill="none" stroke="#1f1a17" stroke-linecap="round" stroke-linejoin="round" stroke-miterlimit="10" stroke-width=".074083"/>
  <path d="m44.802 203.57v-0.21167l0.02117-0.21166v-0.1905l0.02117-0.0847 0.02117-0.0635v-0.0847l0.02117-0.0635 0.02117-0.0212v-0.0212l0.04233-0.0423v-0.0212l0.02117-0.0212h0.02117l0.04234-0.0424h0.127l0.02117 0.0212h0.02117l0.02117 0.0212h0.02117l0.04234 0.0424v0.0212l0.02117 0.0212v0.0423l0.04233 0.0423 0.02117 0.0635 0.02117 0.0847v0.0847l0.04234 0.1694 0.04233 0.46567" fill="none" stroke="#1f1a17" stroke-linecap="round" stroke-linejoin="round" stroke-miterlimit="10" stroke-width=".074083"/>
  <g fill="#848382" stroke-linecap="round" stroke-linejoin="round" stroke-miterlimit="10" stroke-width=".074083">
   <path d="m44.823 202.94v3.5137l-0.4445-0.0212v-0.40217c0.01482-0.86642 0.02928-1.7134 0.02117-2.5823v-0.21167l0.02117-0.0423v-0.0212l0.02117-0.0212v-0.0212l0.04234-0.0424 0.04233-0.0212 0.04234-0.0424 0.08467-0.0423h0.04233l0.08467-0.0423h0.04233"/>
   <path d="m45.395 202.94v3.5137l0.46567-0.0212-0.02117-0.1905v-0.21167c0.0085-0.86712-0.03775-1.711-0.02117-2.5823v-0.21167c-0.01164-0.14605-0.19403-0.23424-0.3175-0.27516l-0.0635-0.0212h-0.04233"/>
   <path d="m55.406 200.5h-0.23283c-2.9101 0.39617-2.794 4.3099 0.127 4.5297h0.23283c2.9129-0.23001 3.0314-4.1212 0.127-4.5297h-0.254"/>
   <path d="m34.854 200.5h-0.23283c-2.9051 0.39405-2.8088 4.2834 0.10583 4.5297h0.254c2.9062-0.21731 3.0265-4.1335 0.127-4.5297h-0.254"/>
  </g>
  <g fill="none" stroke="#1f1a17" stroke-linecap="round" stroke-linejoin="round" stroke-miterlimit="10" stroke-width=".074083">
   <path d="m37.902 208.29v1.5663"/>
   <path d="m55.216 207.49v3.175"/>
   <path d="m52.782 208.29v1.5452"/>
   <path d="m53.353 207.68v2.7305"/>
  </g>
  <path d="m30.79 195.19h0.80433v-1.1007h-0.80433z" fill="#848382"/>
  <path d="m30.79 194.09h0.80433v1.1007h-0.80433z" fill="none" stroke="#1f1a17" stroke-linecap="round" stroke-linejoin="round" stroke-miterlimit="10" stroke-width=".074083"/>
  <path d="m30.98 200.01h0.46567v-0.93133h-0.46567z" fill="#848382"/>
  <path d="m30.98 199.08h0.46567v0.93133h-0.46567z" fill="none" stroke="#1f1a17" stroke-linecap="round" stroke-linejoin="round" stroke-miterlimit="10" stroke-width=".074083"/>
  <path d="m29.901 199.08h2.6247v-3.8312h-2.6247z" fill="#848382"/>
  <path d="m29.901 195.25h2.6247v3.8312h-2.6247z" fill="none" stroke="#1f1a17" stroke-linecap="round" stroke-linejoin="round" stroke-miterlimit="10" stroke-width=".074083"/>
  <path d="m30.514 199.82h1.2912v-0.74083h-1.2912z" fill="#848382"/>
  <path d="m30.514 199.08h1.2912v0.74083h-1.2912z" fill="none" stroke="#1f1a17" stroke-linecap="round" stroke-linejoin="round" stroke-miterlimit="10" stroke-width=".099836"/>
  <path d="m31.192 195.74h0.14817l0.04233 0.0212c0.14111 5e-3 0.34996 0.12417 0.4445 0.23283l0.04233 0.0212 0.02117 0.0423 0.02117 0.0212 0.02117 0.0423 0.04233 0.0212 0.02117 0.0423 0.04233 0.0847v0.0423l0.02117 0.0212v0.0423l0.02117 0.0423v0.0423l0.02117 0.0423v0.1905c-0.09384 0.25929-0.01658 0.21661-0.21167 0.4445l-0.02117 0.0423-0.04233 0.0212-0.0635 0.0635-0.02117 0.0212-0.08467 0.0423-0.02117 0.0212-0.127 0.0635h-0.04233l-0.04233 0.0212h-0.04233l-0.04233 0.0212h-0.27517l-0.04233-0.0212h-0.04233l-0.04233-0.0212h-0.04233l-0.127-0.0635-0.02117-0.0212-0.08467-0.0423-0.02117-0.0212-0.04233-0.0423-0.02117-0.0212-0.04233-0.0212-0.02117-0.0423-0.0635-0.0635-0.02117-0.0423-0.02117-0.0212-0.04233-0.0847v-0.0423l-0.02117-0.0423-0.02117-0.0212v-0.0847l-0.02117-0.0423v-0.1905l0.02117-0.0423v-0.0847l0.02117-0.0423 0.02117-0.0212v-0.0423l0.04233-0.0847 0.02117-0.0423 0.08467-0.0847 0.02117-0.0423c0.14887-0.10972 0.2854-0.23883 0.48683-0.254l0.04233-0.0212h0.127" fill="#da251d" stroke-linecap="round" stroke-linejoin="round" stroke-miterlimit="10" stroke-width=".074083"/>
  <path d="m58.454 195.19h0.80433v-1.1007h-0.80433z" fill="#848382"/>
  <path d="m58.454 194.09h0.80433v1.1007h-0.80433z" fill="none" stroke="#1f1a17" stroke-linecap="round" stroke-linejoin="round" stroke-miterlimit="10" stroke-width=".074083"/>
  <path d="m58.666 200.01h0.4445v-0.93133h-0.4445z" fill="#848382"/>
  <path d="m58.666 199.08h0.4445v0.93133h-0.4445z" fill="none" stroke="#1f1a17" stroke-linecap="round" stroke-linejoin="round" stroke-miterlimit="10" stroke-width=".074083"/>
  <path d="m57.565 199.08h2.6458v-3.8312h-2.6458z" fill="#848382"/>
  <path d="m57.565 195.25h2.6458v3.8312h-2.6458z" fill="none" stroke="#1f1a17" stroke-linecap="round" stroke-linejoin="round" stroke-miterlimit="10" stroke-width=".074083"/>
  <path d="m58.2 199.82h1.27v-0.74083h-1.27z" fill="#848382"/>
  <path d="m58.2 199.08h1.27v0.74083h-1.27z" fill="none" stroke="#1f1a17" stroke-linecap="round" stroke-linejoin="round" stroke-miterlimit="10" stroke-width=".099836"/>
  <path d="m58.878 195.74h0.127l0.04233 0.0212h0.04233l0.04233 0.0212h0.04233l0.21167 0.10584 0.02117 0.0212 0.04233 0.0212 0.02117 0.0423 0.04233 0.0212 0.02117 0.0212 0.02117 0.0423c0.09878 0.0395 0.21026 0.34219 0.21167 0.4445v0.23283l-0.02117 0.0423v0.0423l-0.02117 0.0212v0.0423l-0.0635 0.127-0.02117 0.0212-0.04233 0.0847-0.04233 0.0212-0.02117 0.0423-0.02117 0.0212-0.04233 0.0212-0.02117 0.0423-0.04233 0.0212-0.02117 0.0212-0.21167 0.10584h-0.04233l-0.04233 0.0212h-0.04233l-0.04233 0.0212h-0.254l-0.0635-0.0212h-0.04233l-0.04233-0.0212h-0.04233l-0.04233-0.0212-0.02117-0.0212-0.127-0.0635-0.02117-0.0212-0.04233-0.0212-0.14817-0.14817-0.04233-0.0847-0.02117-0.0212-0.06351-0.1269v-0.0423l-0.02117-0.0212-0.02117-0.0423v-0.35984l0.04233-0.0847v-0.0212l0.08468-0.1692 0.02117-0.0212 0.02117-0.0423 0.0635-0.0635c0.06914-0.0914 0.3556-0.26459 0.46567-0.254l0.0635-0.0212h0.127" fill="#da251d" stroke-linecap="round" stroke-linejoin="round" stroke-miterlimit="10" stroke-width=".074083"/>
 </g>
</svg>
