<?xml version="1.0" encoding="UTF-8"?>
<!-- Created with Inkscape (http://www.inkscape.org/) -->
<svg width="45.254mm" height="57.848mm" version="1.1" viewBox="0 0 45.254 57.848" xmlns="http://www.w3.org/2000/svg">
 <defs>
  <clipPath id="clipPath36">
   <path transform="translate(0 2.5e-5)" d="m222.24 355.82h128.28v163.98h-128.28z"/>
  </clipPath>
 </defs>
 <g transform="translate(-14.819 -155.57)">
  <path transform="matrix(.35278 0 0 -.35278 -63.582 338.95)" d="m222.24 355.82h128.28v163.98h-128.28z" clip-path="url(#clipPath36)" fill="#b6b5b4"/>
  <path d="m47.204 163.62h-0.46567l0.46567-0.35983v-0.1905h-0.67733l0.67733-0.48684v-0.0635h-0.86783l0.86783-0.635v-0.127h-0.14817v-1.2488h1.2065v1.2488h-0.14817v0.127l0.86783 0.635h-0.86783v0.0635l0.67733 0.48684h-0.67733v0.1905l0.46567 0.35983h-0.46567v0.381l-0.91017-0.0423v-0.33867" fill="#848382" stroke-linecap="round" stroke-linejoin="round" stroke-miterlimit="10" stroke-width=".074789"/>
  <g fill="none" stroke="#1f1a17" stroke-linecap="round" stroke-linejoin="round" stroke-miterlimit="10" stroke-width=".074789">
   <path d="m47.204 163.62h0.91017"/>
   <path d="m47.67 163.07h-0.46567"/>
   <path d="m47.204 162.52h0.46567"/>
   <path d="m48.115 161.76h-0.91017"/>
   <path d="m47.67 163.07h0.4445"/>
   <path d="m47.67 162.52h0.4445"/>
  </g>
  <path d="m27.773 163.6h0.46567l-0.46567-0.35983v-0.21167h0.65617l-0.65617-0.48683v-0.0635l0.86783 0.0212-0.86783-0.635v-0.127h0.14817v-1.2488h-1.2065v1.2488h0.14817v0.127l-0.86783 0.635h0.86783v0.0423l-0.67733 0.48683h0.67733v0.21167l-0.46567 0.35983h0.46567v0.381l0.91017-0.0635v-0.3175" fill="#848382" stroke-linecap="round" stroke-linejoin="round" stroke-miterlimit="10" stroke-width=".074789"/>
  <g fill="none" stroke="#1f1a17" stroke-linecap="round" stroke-linejoin="round" stroke-miterlimit="10">
   <g stroke-width=".074789">
    <path d="m27.773 163.6h-0.91017"/>
    <path d="m27.308 163.03h0.46567"/>
    <path d="m27.773 162.5h-0.46567"/>
    <path d="m26.863 161.73h0.91017"/>
    <path d="m27.308 163.03h-0.4445"/>
    <path d="m27.308 162.5h-0.4445"/>
   </g>
   <path d="m57.47 210.5h-20.024" stroke-width=".19897"/>
  </g>
  <g stroke="#1f1a17" stroke-linecap="round" stroke-linejoin="round" stroke-miterlimit="10">
   <path d="m46.273 210.52-0.04233 0.10583-0.02117 0.10584-0.02117 0.0423v0.0212l-0.04233 0.0423v0.0212l-0.02117 0.0212h-0.02117l-0.02117 0.0212-0.3175-0.381v-1.9897l1.7357-0.0423v1.5452l-1.2277 0.48683" fill="#848382" fill-rule="evenodd" stroke-width=".074789"/>
   <path d="m17.423 210.5h20.024" fill="none" stroke-width=".19897"/>
   <g stroke-width=".074789">
    <path d="m28.62 210.52-1.2277-0.48683 0.04233-1.5452h1.6722v2.032c-0.08996 0.09-0.0134 0.32526-0.21167 0.35983l-0.04233 0.0212-0.23283-0.381" fill="#848382" fill-rule="evenodd"/>
    <path d="m53.089 198.9-2.9422 1.651-1.7568 2.667 1.8203 5.2705h-6.5617l0.02117-0.381-6.2442 0.0212h-6.1807l-0.02117 0.35983h-6.5405l1.8203-5.2705-1.7568-2.667-2.9422-1.651h-2.7305v-26.628l4.953-8.255 13.42-0.381 13.398 0.381 4.9742 8.255v26.628h-2.7305" fill="#848382" fill-rule="evenodd"/>
    <path d="m36.981 170.22v9.0382" fill="none"/>
    <path d="m38.695 181.21v-0.127l-0.02117-0.0635c-0.10548-0.61807-0.54222-0.99871-1.1642-1.0583h-0.127c-0.62936 0.0536-1.1165 0.48824-1.1853 1.1218v0.254c0.05715 0.59372 0.52811 1.0647 1.1218 1.1218h0.127c0.6103 0.0289 1.1504-0.45896 1.2277-1.0583l0.02117-0.0635v-0.127" fill="#fff" fill-rule="evenodd"/>
    <path d="m27.964 190.9v-0.1905l-0.02117-0.0635c-0.03493-0.22401-0.17568-0.47484-0.33867-0.635l-0.08467-0.0847-0.0635-0.0212-0.08467-0.0847-0.0635-0.0212-0.04233-0.0212-0.127-0.0423-0.04233-0.0212-0.127-0.0423h-0.0635l-0.0635-0.0212h-0.254l-0.0635 0.0212h-0.0635l-0.127 0.0423-0.04233 0.0212-0.127 0.0423-0.04233 0.0212-0.0635 0.0212-0.08467 0.0847-0.0635 0.0212-0.08467 0.0847c-0.17039 0.1845-0.30727 0.44415-0.33867 0.6985l-0.02117 0.0635v0.1905c0.1524 1.5787 2.304 1.5674 2.4977 0.0635v-0.127" fill="#fff" fill-rule="evenodd"/>
   </g>
  </g>
  <g fill="none" stroke="#1f1a17" stroke-linecap="round" stroke-linejoin="round" stroke-miterlimit="10" stroke-width=".074789">
   <path d="m23.392 198.9v-3.8312"/>
   <path d="m24.302 194.18 13.144 0.0635"/>
   <path d="m23.117 169.5 0.93133-5.4822"/>
   <path d="m23.117 169.48-4.0428 2.7728"/>
   <path d="m37.447 169.18-14.33 0.29633"/>
   <path d="m19.137 187.71 18.309-0.0212"/>
   <path d="m20.153 170.86v16.849"/>
   <path d="m24.302 194.18-0.91017 0.889"/>
   <path d="m29.17 197.95v-0.254c-0.44873-3.1298-4.808-3.0194-5.08 0.127v0.27517c0.27305 3.1521 4.6313 3.2625 5.08 0.127z"/>
  </g>
  <path d="m35.563 160.93h0.99483l-2.8363-1.7568h-1.016l2.8575 1.7568" fill="#848382" stroke-linecap="round" stroke-linejoin="round" stroke-miterlimit="10" stroke-width=".074789"/>
  <g fill="none" stroke="#1f1a17" stroke-linecap="round" stroke-linejoin="round" stroke-miterlimit="10" stroke-width=".074789">
   <path d="m34.547 196.57h2.8998"/>
   <path d="m34.568 197.72h1.9685v0.65617h0.91017"/>
   <path d="m36.685 198.86h-0.508v1.9473h1.27"/>
   <path d="m36.685 198.86v1.6087"/>
   <path d="m37.15 197.53v1.8627"/>
   <path d="m26.503 203.2h4.5085"/>
   <path d="m31.245 208.49-0.23283-5.2917"/>
   <path d="m24.747 200.55h11.43"/>
   <path d="m29.467 203.2v-2.6458"/>
   <path d="m28.62 210.52v-2.032"/>
   <path d="m28.874 210.93-0.0635-0.0635"/>
   <path d="m29.763 162.01-0.9525-1.016"/>
  </g>
  <path d="m46.993 160.46-0.381-0.0423-0.508 0.52916-8.6572-0.0212-8.636 0.0212-0.52917-0.52916-0.381 0.0423 1.4182 1.5452 8.128 0.0212 8.1492-0.0212 1.397-1.5452" fill="#848382" stroke-linecap="round" stroke-linejoin="round" stroke-miterlimit="10" stroke-width=".074789"/>
  <g fill="none" stroke="#1f1a17" stroke-linecap="round" stroke-linejoin="round" stroke-miterlimit="10" stroke-width=".074789">
   <path d="m31.964 158.71v-0.254"/>
   <path d="m51.798 169.5-0.9525-5.4822"/>
   <path d="m23.117 169.48v29.422"/>
   <path d="m36.685 200.47h0.762"/>
   <path d="m34.568 199.24h1.6087"/>
   <path d="m34.568 199.24v-2.667"/>
   <path d="m37.447 197.29-0.29633 0.23283"/>
   <path d="m37.15 199.39 0.29633 0.23283"/>
   <path d="m24.26 170.5v8.5513l0.02117 0.0423v0.0212l0.08467 0.0847c0.0441 0.0529 0.10019 0.0713 0.16933 0.0635h12.912"/>
   <path d="m37.447 170.22h-12.912 0.02117-0.02117c-0.11218-7e-3 -0.29598 0.13264-0.27517 0.254v0.0212"/>
   <path d="m23.752 170.62v8.2762l0.02117 0.0423c-0.02434 0.20955 0.11289 0.37924 0.21167 0.55033l0.04233 0.0212 0.02117 0.0423 0.04233 0.0212c0.05468 0.0445 0.11465 0.0825 0.16933 0.127h0.04233l0.04233 0.0212c0.06597 0.037 0.1457 0.0265 0.21167 0.0635h12.89"/>
   <path d="m37.447 169.76h-12.975l-0.04233 0.0212h-0.04233l-0.08467 0.0423c-0.07197 0.042-0.10654 0.0688-0.1905 0.10583l-0.08467 0.0847-0.04233 0.0212c-0.03951 0.0949-0.06632 0.0956-0.10583 0.1905l-0.02117 0.0423-0.02117 0.0212-0.04233 0.0847v0.0423l-0.02117 0.0423v0.127l-0.02117 0.0423"/>
   <path d="m40.325 199.24v-2.667"/>
   <path d="m51.776 169.48v29.422"/>
   <path d="m50.824 197.95v-0.127l-0.02117-0.127c-0.39688-3.1253-4.8514-3.0222-5.1012 0.127l-0.02117 0.127 0.02117 0.14817c0.25647 3.1549 4.6962 3.2611 5.1012 0.127l0.02117-0.127z"/>
   <path d="m51.501 198.9v-3.8312"/>
   <path d="m50.147 200.55h-11.43"/>
   <path d="m43.754 205.7h-6.2865"/>
   <path d="m31.202 205.7h6.2653"/>
   <path d="m43.881 203.2-0.254 5.2917"/>
   <path d="m46.273 208.49v2.0108"/>
   <path d="m46.019 210.9 0.08467-0.0423"/>
   <path d="m48.39 203.2h-4.5085"/>
   <path d="m45.448 203.2v-2.6458"/>
   <path d="m37.447 199.62 0.29633-0.23283"/>
   <path d="m37.743 197.53-0.29633-0.23283"/>
   <path d="m38.209 200.47h-0.762"/>
   <path d="m38.717 200.81h-1.27"/>
   <path d="m38.357 198.37h-0.91017"/>
   <path d="m38.717 198.86v1.9473"/>
   <path d="m40.325 197.72h-1.9685"/>
   <path d="m40.325 199.24h-1.6087"/>
   <path d="m37.743 199.39v-1.8627"/>
   <path d="m38.209 198.86v1.6087"/>
   <path d="m38.357 197.72v0.65617"/>
   <path d="m38.209 198.86h0.508"/>
   <path d="m55.756 187.71-18.309-0.0212"/>
   <path d="m55.819 172.25-4.0428-2.7728"/>
   <path d="m54.74 170.86v16.849"/>
   <path d="m50.612 194.18-13.166 0.0635"/>
  </g>
  <path d="m49.427 190.9v-0.127l-0.02117-0.0635c-0.08819-0.60043-0.56938-1.0079-1.1642-1.0583h-0.127c-0.60078 0.025-1.1529 0.51576-1.1853 1.1218v0.3175l0.02117 0.0635v0.0635l0.02117 0.0635 0.02117 0.0423 0.04234 0.127 0.04233 0.0423 0.02117 0.0635 0.04233 0.0423 0.02117 0.0423 0.04233 0.0635 0.127 0.127c0.13617 0.13935 0.45332 0.30833 0.65617 0.29634l0.0635 0.0212h0.127c0.59972 0.0205 1.1504-0.46284 1.2277-1.0583l0.02117-0.0635v-0.127" fill="#fff" fill-rule="evenodd" stroke="#1f1a17" stroke-linecap="round" stroke-linejoin="round" stroke-miterlimit="10" stroke-width=".074789"/>
  <g fill="none" stroke="#1f1a17" stroke-linecap="round" stroke-linejoin="round" stroke-miterlimit="10">
   <g stroke-width=".074789">
    <path d="m51.501 195.07-0.889-0.889"/>
    <path d="m40.346 196.57h-2.8998"/>
    <path d="m51.776 169.48-14.33-0.29633"/>
    <path d="m37.447 169.76h12.975l0.04233 0.0212h0.04233l0.08467 0.0423c0.0949 0.0395 0.0956 0.0663 0.1905 0.10583l0.08467 0.0847 0.04233 0.0212c0.03951 0.0949 0.06632 0.0956 0.10583 0.1905l0.02117 0.0423 0.02117 0.0212c0.03704 0.066 0.02646 0.14569 0.0635 0.21166v8.4455c-0.0078 0.23566-0.09278 0.35772-0.21167 0.55034l-0.04233 0.0212-0.02117 0.0423-0.04233 0.0212-0.02117 0.0212-0.04233 0.0212-0.0635 0.0635-0.04233 0.0212h-0.04233l-0.04233 0.0212c-0.06597 0.037-0.1457 0.0265-0.21167 0.0635h-12.891"/>
    <path d="m37.447 170.22h12.912c0.14076 3e-3 0.25753 0.11783 0.27517 0.254v8.5514l-0.02117 0.0212v0.0423l-0.02117 0.0212v0.0212l-0.0635 0.0635c-0.03739 0.042-0.0896 0.0737-0.14817 0.0635h-12.933"/>
    <path d="m37.891 170.22v9.0382"/>
   </g>
   <path d="m42.929 158.71v-0.254" stroke-width=".30233"/>
   <path d="m25.509 162.31v-0.889l3.0057-2.5188 8.9323-0.8255 8.9323 0.8255 3.0057 2.5188v0.889" stroke-width=".30233"/>
   <path d="m45.109 162.01 0.99483-1.0583" stroke-width=".074789"/>
  </g>
  <g fill="#848382" stroke-linecap="round" stroke-linejoin="round" stroke-miterlimit="10" stroke-width=".074789">
   <path d="m36.198 163.66h2.5612v-1.6298h-2.5823l0.02117 1.6298"/>
   <path d="m39.33 160.93h-0.99483l2.8363-1.7568h1.016l-2.8575 1.7568"/>
   <path d="m32.578 158.71h9.7155v0.46567h-9.6943l-0.02117-0.46567"/>
  </g>
  <path d="m21.804 198.88h1.5875" fill="none" stroke="#1f1a17" stroke-linecap="round" stroke-linejoin="round" stroke-miterlimit="10" stroke-width=".099483"/>
  <path d="m53.11 198.88h-1.6087" fill="none" stroke="#1f1a17" stroke-linecap="round" stroke-linejoin="round" stroke-miterlimit="10" stroke-width=".099483"/>
 </g>
</svg>
