<?xml version="1.0" encoding="UTF-8"?>
<!-- Created with Inkscape (http://www.inkscape.org/) -->
<svg width="34.925mm" height="40.88mm" version="1.1" viewBox="0 0 34.925 40.88" xmlns="http://www.w3.org/2000/svg">
 <defs>
  <clipPath id="clipPath290">
   <path transform="translate(-221.94 -277.16)" d="m122.94 276.8h99v0.71997h-99z"/>
  </clipPath>
 </defs>
 <g transform="translate(-30.165 -108.48)">
  <path transform="matrix(.35278 0 0 -.35278 65.09 148.93)" d="m0 0-99 0.06" clip-path="url(#clipPath290)" fill="none" stroke="#2b2a29" stroke-linecap="round" stroke-linejoin="round" stroke-miterlimit="10" stroke-width=".456"/>
  <path d="m41.616 145.03-0.46567 0.48683v3.3867l-0.04233 0.0635-0.04234 0.127-0.04233 0.0635v0.0212l-0.02117 0.0212-0.02117 0.0423v0.0212c-0.06068 0.0497-0.03563 0.0702-0.10583 0.0635l-0.02117-0.0212-0.0635-0.0635c-0.03281-0.10901-0.0829-0.10196-0.10583-0.21167l-0.02117-0.0635-0.04233-0.0635c-0.18521-0.13794-0.47096-0.24306-0.65617-0.381l-0.14817-0.0635-0.127-0.0847-0.127-0.0635v-2.5188h-1.5452v-2.8152l1.5452-0.0212v-2.54l0.127-0.0847 0.127-0.0635c0.22331-0.13335 0.45861-0.24271 0.67733-0.381l0.127-0.0847 0.04233-0.0423 0.02117-0.0635 0.04233-0.0423 0.02117-0.0635 0.04233-0.0423 0.04233-0.0635 0.02117-0.0423 0.04233-0.0635 0.02117 0.0635c0.0949 0.1083 0.13794 0.25153 0.23283 0.35983v3.3655l0.46567 0.46567 12.552-0.0212 0.48683-0.48683v-3.3655c0.06456-0.0917 0.15804-0.30092 0.21167-0.35983l0.02117-0.0635 0.04233 0.0635 0.04233 0.0423c0.02893 0.10301 0.11924 0.17216 0.14817 0.27517l0.04233 0.0423 0.127 0.0847c0.2286 0.12312 0.44873 0.25788 0.67733 0.381l0.127 0.0635 0.127 0.0847v2.54l1.5452 0.0212v2.8152h-1.5452v2.5188l-0.127 0.0635-0.127 0.0847-0.14817 0.0635-0.127 0.0847-0.127 0.0635-0.127 0.0847-0.14817 0.0635-0.127 0.0847-0.04233 0.0635-0.04233 0.127-0.04233 0.0635v0.0212l-0.02117 0.0212-0.02117 0.0423-0.0635 0.0635c-0.03457 0.0483-0.07832 0.0152-0.10583-0.0212v-0.0212l-0.02117-0.0212c-0.03422-0.072-0.08749-0.12947-0.10583-0.21166l-0.04233-0.127v-3.3867l-0.48683-0.46567-12.552 0.0212" fill="#9d9e9e" stroke-linecap="round" stroke-linejoin="round" stroke-miterlimit="10" stroke-width=".059267"/>
  <g fill="none" stroke="#2b2a29" stroke-linecap="round" stroke-linejoin="round" stroke-miterlimit="10" stroke-width=".059267">
   <path d="m55.163 148.88v-9.1017"/>
   <path d="m39.563 142.96v2.8575"/>
   <path d="m41.151 143.17v2.3283"/>
   <path d="m40.622 139.78v9.144"/>
  </g>
  <path d="m60.476 140.18 0.02117 0.40217 1.0795 0.0212-0.02117-24.532-0.33867-0.4445c-6.973-9.3991-20.292-9.5804-27.241-0.0423l-0.3175 0.4445v24.574l1.1007-0.0212 0.02117-0.40217h25.696" fill="#9d9e9e" stroke-linecap="round" stroke-linejoin="round" stroke-miterlimit="10" stroke-width=".059267"/>
  <g fill="none" stroke="#2b2a29" stroke-linecap="round" stroke-linejoin="round" stroke-miterlimit="10">
   <g stroke-width=".079375">
    <path d="m52.623 116.07h8.9535"/>
    <path d="m43.267 116.07h8.5725"/>
    <path d="m33.658 116.07h8.8053"/>
   </g>
   <g stroke-width=".059267">
    <path d="m35.584 115.19h6.8792"/>
    <path d="m43.204 115.19h8.6572"/>
    <path d="m52.602 115.19h7.0062"/>
    <path d="m34.737 116.92h7.7258"/>
    <path d="m43.204 116.92h8.6572"/>
    <path d="m52.602 116.92h7.8528"/>
    <path d="m34.737 136.33h7.7258"/>
    <path d="m43.225 136.33h8.636"/>
    <path d="m52.644 136.33h7.8105"/>
    <path d="m34.737 137.3h7.747"/>
    <path d="m43.225 137.3h8.636"/>
    <path d="m52.623 137.3h7.8317"/>
   </g>
   <g stroke-width=".079375">
    <path d="m42.463 110.53v29.654"/>
    <path d="m43.225 110.23v29.972"/>
    <path d="m52.623 110.51v29.697"/>
    <path d="m51.861 110.21v29.993"/>
    <path d="m34.758 140.18v-24.045l0.35983-0.42334c7.3325-8.267 17.506-8.1379 24.955-0.0423l0.381 0.381v24.151"/>
   </g>
  </g>
  <path d="m46.315 139.49h2.7305v-1.4393h-2.7305z" fill="#9d9e9e"/>
  <path d="m46.315 138.05h2.7305v1.4393h-2.7305z" fill="none" stroke="#2b2a29" stroke-linecap="round" stroke-linejoin="round" stroke-miterlimit="10" stroke-width=".059267"/>
  <path d="m46.548 142.7h2.3072v-0.67734h-2.3072z" fill="#9d9e9e"/>
  <path d="m46.548 142.03h2.3072v0.67733h-2.3072z" fill="none" stroke="#2b2a29" stroke-linecap="round" stroke-linejoin="round" stroke-miterlimit="10" stroke-width=".059267"/>
  <path d="m47.437 139.46v-0.46567l0.02117-0.0847v-0.0635l0.02117-0.0847v-0.0635l0.02117-0.0423 0.02117-0.0212v-0.0212l0.02117-0.0212v-0.0212l0.02117-0.0212v-0.0212h0.02117l0.02117-0.0212h0.02117l0.02117-0.0212h0.0635l0.02117 0.0212h0.04233l0.02117 0.0212v0.0212h0.02117l0.02117 0.0212v0.0212l0.02117 0.0212v0.0212l0.02117 0.0423 0.04234 0.127 0.02117 0.0847v0.0635l0.02117 0.10583 0.02117 0.1905 0.02117 0.21167" fill="none" stroke="#2b2a29" stroke-linecap="round" stroke-linejoin="round" stroke-miterlimit="10" stroke-width=".059267"/>
  <g fill="#9d9e9e" stroke-linecap="round" stroke-linejoin="round" stroke-miterlimit="10" stroke-width=".059267">
   <path d="m47.458 138.89v3.1327l-0.40217-0.0423 0.02117-0.16933v-0.16933-2.286-0.1905l0.02117-0.0212v-0.0423l0.04234-0.0424v-0.0212l0.0635-0.0635h0.04233l0.04233-0.0423h0.04233l0.08467-0.0423h0.04233"/>
   <path d="m47.924 138.89v3.1327l0.381-0.0423v-0.33866c0.0088-0.76976-0.03775-1.512-0.02117-2.286v-0.23284l-0.02117-0.0212v-0.0212l-0.04233-0.0423v-0.0212l-0.04233-0.0423h-0.04233l-0.04233-0.0423h-0.04233l-0.08467-0.0423h-0.04233"/>
   <path d="m56.391 136.73h-0.21167c-2.4448 0.35454-2.3608 3.8019 0.10583 4.0217h0.21167c2.4656-0.22931 2.5294-3.6876 0.08467-4.0217h-0.1905"/>
   <path d="m39.034 136.73h-0.21167c-2.4409 0.36618-2.3488 3.7962 0.10583 4.0217h0.21167c2.4617-0.22402 2.5492-3.6604 0.10583-4.0217h-0.21167"/>
  </g>
  <g fill="none" stroke="#2b2a29" stroke-linecap="round" stroke-linejoin="round" stroke-miterlimit="10">
   <g stroke-width=".059267">
    <path d="m41.616 143.63v1.397"/>
    <path d="m56.221 142.91v2.8152"/>
    <path d="m54.147 143.63v1.3758"/>
    <path d="m54.655 143.1v2.413"/>
   </g>
   <path d="m35.838 131.29h0.254l0.02117 0.0212h0.04233l0.04233 0.0423h0.02117v0.0212l0.02117 0.0212v0.0212l0.02117 0.0212v0.0212l0.02117 0.0212v0.59267l-0.02117 0.0212v0.0212l-0.02117 0.0212v0.0212l-0.02117 0.0212v0.0212h-0.02117l-0.04234 0.0424h-0.04233l-0.02117 0.0212h-0.3175l-0.02117-0.0212h-0.04233l-0.02117-0.0212v-0.0212h-0.02117l-0.02117-0.0212v-0.0212l-0.02117-0.0212v-0.0212l-0.02117-0.0212v-0.635l0.02117-0.0212v-0.0212l0.02117-0.0212v-0.0212l0.02117-0.0212h0.02117v-0.0212l0.02117-0.0212h0.04233l0.02117-0.0212z" stroke-width=".16087"/>
  </g>
  <path d="m35.753 136.29h0.381v-0.8255h-0.381z" fill="#9d9e9e"/>
  <path d="m35.753 135.46h0.381v0.8255h-0.381z" fill="none" stroke="#2b2a29" stroke-linecap="round" stroke-linejoin="round" stroke-miterlimit="10" stroke-width=".059267"/>
  <path d="m34.822 135.46h2.2225v-3.3867h-2.2225z" fill="#fefefe"/>
  <path d="m34.822 132.08h2.2225v3.3867h-2.2225z" fill="none" stroke="#2b2a29" stroke-linecap="round" stroke-linejoin="round" stroke-miterlimit="10" stroke-width=".059267"/>
  <path d="m34.822 132.08 1.0583 1.651 1.1642-1.651h-2.2225" fill="#e31e24" fill-rule="evenodd"/>
  <path d="m35.351 136.14h1.0795v-0.67733h-1.0795z" fill="#9d9e9e"/>
  <path d="m35.351 135.46h1.0795v0.67733h-1.0795z" fill="none" stroke="#2b2a29" stroke-linecap="round" stroke-linejoin="round" stroke-miterlimit="10" stroke-width=".079375"/>
  <path d="m34.822 135.46 1.0583-1.7357 1.1642 1.7357h-2.2225" fill="#e31e24" fill-rule="evenodd"/>
  <path d="m59.164 131.29h0.27517l0.02117 0.0212h0.04233l0.02117 0.0212v0.0212h0.02117l0.04233 0.0423v0.0423l0.02117 0.0212v0.635l-0.02117 0.0212v0.0423l-0.04233 0.0423h-0.02117v0.0212l-0.02117 0.0212h-0.04233l-0.02117 0.0212h-0.3175l-0.02117-0.0212h-0.04233l-0.02117-0.0212-0.0635-0.0635v-0.0212l-0.02117-0.0212v-0.0423l-0.02117-0.0212v-0.55033l0.02117-0.0212v-0.0423l0.02117-0.0212v-0.0212l0.04234-0.0424 0.04233-0.0423h0.04233l0.02117-0.0212z" fill="none" stroke="#2b2a29" stroke-linecap="round" stroke-linejoin="round" stroke-miterlimit="10" stroke-width=".16087"/>
  <path d="m59.079 136.29h0.381v-0.8255h-0.381z" fill="#9d9e9e"/>
  <path d="m59.079 135.46h0.381v0.8255h-0.381z" fill="none" stroke="#2b2a29" stroke-linecap="round" stroke-linejoin="round" stroke-miterlimit="10" stroke-width=".059267"/>
  <path d="m58.169 135.46h2.2225v-3.3867h-2.2225z" fill="#fefefe"/>
  <path d="m58.169 132.08h2.2225v3.3867h-2.2225z" fill="none" stroke="#2b2a29" stroke-linecap="round" stroke-linejoin="round" stroke-miterlimit="10" stroke-width=".059267"/>
  <path d="m58.169 132.08 1.0583 1.651 1.1642-1.651h-2.2225" fill="#e31e24" fill-rule="evenodd"/>
  <path d="m58.698 136.14h1.0795v-0.67733h-1.0795z" fill="#9d9e9e"/>
  <path d="m58.698 135.46h1.0795v0.67733h-1.0795z" fill="none" stroke="#2b2a29" stroke-linecap="round" stroke-linejoin="round" stroke-miterlimit="10" stroke-width=".079375"/>
  <path d="m58.169 135.46 1.0583-1.7357 1.1642 1.7357h-2.2225" fill="#e31e24" fill-rule="evenodd"/>
 </g>
</svg>
