<?xml version="1.0" encoding="UTF-8"?>
<!-- Created with Inkscape (http://www.inkscape.org/) -->
<svg width="45.254mm" height="43.053mm" version="1.1" viewBox="0 0 45.254 43.053" xmlns="http://www.w3.org/2000/svg">
 <g transform="translate(-3.1777 -108.48)">
  <path d="m3.1777 151.53h45.254v-43.053h-45.254z" fill="#b6b5b4"/>
  <path d="m47.628 147.45-43.603-0.02117" fill="none" stroke="#1f1a17" stroke-linecap="round" stroke-linejoin="round" stroke-miterlimit="10" stroke-width=".20285"/>
  <path d="m18.312 142.64-0.59267 0.59267v4.191l-0.04233 0.0635-0.02117 0.0847-0.04233 0.0847-0.02117 0.0847-0.02117 0.0212-0.04233 0.0847-0.04233 0.0423-0.02117 0.0423-0.02117 0.0212h-0.0635l-0.02117-0.0212-0.02117-0.0423-0.04233-0.0423c-0.04586-0.0945-0.10407-0.16933-0.14817-0.27517l-0.02117-0.0847-0.04233-0.0635c-0.28963-0.14147-0.55704-0.32421-0.84667-0.46567l-0.14817-0.0847-0.16933-0.10583-0.16933-0.0847v-3.0903h-1.9262v-3.4925l1.9262-0.0212v-3.1538l0.33867-0.16933c0.20708-0.15628 0.57856-0.31962 0.8255-0.46567l0.16933-0.10583 0.04233-0.0635c0.05997-0.11501 0.12982-0.22296 0.1905-0.33867l0.04233-0.0635 0.0635-0.0635 0.02117 0.0635c0.09631 0.14252 0.18133 0.32914 0.27517 0.46567v4.1487l0.59267 0.59267 15.684-0.0423 0.59267-0.59267v-4.1487l0.04233-0.0635 0.02117-0.0635 0.04233-0.0847 0.127-0.1905 0.02117-0.0635 0.04233-0.0635 0.0635 0.0635 0.04233 0.0635c0.12206 0.15381 0.0822 0.19332 0.1905 0.33866l0.04233 0.0635 0.16933 0.0847c0.2734 0.15734 0.54257 0.32491 0.8255 0.46567l0.16933 0.10583 0.16933 0.0847v3.1538l1.9262 0.0212v3.4713h-1.9262v3.1115l-0.33867 0.16933c-0.17639 0.14958-0.96273 0.4826-1.0372 0.635l-0.04233 0.0847-0.02117 0.0635c-0.04057 0.0797-0.09948 0.21555-0.16933 0.27517l-0.02117 0.0212-0.04233 0.0212-0.02117-0.0212c-0.15663-0.13052-0.17039-0.34642-0.27517-0.508v-4.2122l-0.59267-0.55034-15.684 0.0212" fill="#848382" stroke-linecap="round" stroke-linejoin="round" stroke-miterlimit="10" stroke-width=".075847"/>
  <g fill="none" stroke="#1f1a17" stroke-linecap="round" stroke-linejoin="round" stroke-miterlimit="10" stroke-width=".075847">
   <path d="m35.224 147.4v-11.24"/>
   <path d="m15.751 140.08v3.5348"/>
   <path d="m17.719 140.33v2.8787"/>
   <path d="m17.084 136.16v11.282"/>
  </g>
  <path d="m8.4059 112.63-0.021167 24.045 1.397-0.0212h32.11l1.3335 0.0212-0.04233-24.045h-34.777" fill="#848382" stroke-linecap="round" stroke-linejoin="round" stroke-miterlimit="10" stroke-width=".075847"/>
  <g fill="none" stroke="#1f1a17" stroke-linecap="round" stroke-linejoin="round" stroke-miterlimit="10">
   <g stroke-width=".075847">
    <path d="m8.3847 131.89h23.664"/>
    <path d="m32.091 131.89h11.134"/>
    <path d="m8.3847 133.1h11.98"/>
    <path d="m20.323 133.1h11.79"/>
    <path d="m32.049 133.1h11.176"/>
   </g>
   <g stroke-width=".10125">
    <path d="m19.37 113.75v18.14"/>
    <path d="m20.323 113.75v18.119"/>
    <path d="m32.049 113.79v18.14"/>
    <path d="m31.118 113.77v18.119"/>
    <path d="m41.828 112.61v19.283"/>
    <path d="m9.7605 131.89v-19.283"/>
   </g>
  </g>
  <path d="m24.175 135.78h3.4078v-1.778h-3.4078z" fill="#848382"/>
  <path d="m24.175 134.01h3.4078v1.778h-3.4078z" fill="none" stroke="#1f1a17" stroke-linecap="round" stroke-linejoin="round" stroke-miterlimit="10" stroke-width=".075847"/>
  <path d="m24.471 139.74h2.8998v-0.80433h-2.8998z" fill="#848382"/>
  <path d="m24.471 138.94h2.8998v0.80433h-2.8998z" fill="none" stroke="#1f1a17" stroke-linecap="round" stroke-linejoin="round" stroke-miterlimit="10" stroke-width=".075847"/>
  <path d="m25.572 135.76v-0.254l0.02117-0.23283v-0.1905l0.02117-0.10584 0.02117-0.0847v-0.0635l0.02117-0.0423v-0.0212l0.02117-0.0423 0.02117-0.0212v-0.0212l0.04233-0.0423v-0.0212l0.04233-0.0423h0.04233l0.04233-0.0212h0.04233l0.02117 0.0212h0.04233l0.04233 0.0423h0.02117l0.04233 0.0423v0.0212l0.02117 0.0212 0.02117 0.0423 0.04233 0.127 0.04234 0.1694 0.02117 0.10584v0.10583l0.04233 0.23283 0.02117 0.27517" fill="none" stroke="#1f1a17" stroke-linecap="round" stroke-linejoin="round" stroke-miterlimit="10" stroke-width=".075847"/>
  <g fill="#848382" stroke-linecap="round" stroke-linejoin="round" stroke-miterlimit="10" stroke-width=".075847">
   <path d="m25.614 135.04v3.8735l-0.48683-0.0212v-0.4445c0.0014-0.94897 0.03563-1.8828 0.02117-2.8363v-0.27517l0.02117-0.0212 0.02117-0.0423v-0.0212l0.04233-0.0423 0.04233-0.0212c0.05009-0.043 0.10901-0.0773 0.16933-0.10584h0.04233l0.127-0.0423"/>
   <path d="m26.186 135.04v3.8735l0.48683-0.0212v-0.4445c-0.04057-0.94403-0.0134-1.8909-0.02117-2.8363v-0.254l-0.02117-0.0212v-0.0212l-0.02117-0.0423-0.10583-0.10583-0.08467-0.0423-0.02117-0.0212-0.04233-0.0212h-0.0635l-0.04233-0.0212-0.0635-0.0212"/>
   <path d="m36.748 132.38h-0.127l-0.127 0.0212c-3.0388 0.39334-2.9496 4.7082 0.127 4.953l0.127 0.0212 0.127-0.0212c3.0868-0.22649 3.1782-4.5784 0.127-4.953l-0.127-0.0212h-0.127"/>
   <path d="m15.095 132.38h-0.127l-0.127 0.0212c-3.0529 0.37959-2.9587 4.7233 0.127 4.953l0.127 0.0212 0.127-0.0212c3.0854-0.25295 3.1732-4.5526 0.127-4.953l-0.127-0.0212h-0.127"/>
  </g>
  <g fill="none" stroke="#1f1a17" stroke-linecap="round" stroke-linejoin="round" stroke-miterlimit="10" stroke-width=".075847">
   <path d="m18.312 140.93v1.7145"/>
   <path d="m36.558 140.04v3.4713"/>
   <path d="m33.975 140.93v1.6933"/>
   <path d="m34.589 140.25v2.9845"/>
   <path d="m9.8029 113.77h10.52"/>
   <path d="m20.344 113.77h21.505"/>
   <path d="m9.7394 118.81h9.6308"/>
   <path d="m20.302 118.81h10.816"/>
   <path d="m32.028 118.81h9.8002"/>
   <path d="m9.7605 125.26h9.6097"/>
   <path d="m20.302 125.26h10.816"/>
   <path d="m32.049 125.26h9.779"/>
   <path d="m13.571 130.32h3.048v1.5452h-3.048z"/>
   <path d="m35.224 130.32h3.0692v1.5452h-3.0692z"/>
  </g>
  <path d="m36.346 126.07h0.84667v-1.1853h-0.84667z" fill="#848382"/>
  <path d="m37.193 124.88h-0.84667v1.1853h0.84667z" fill="none" stroke="#1f1a17" stroke-linecap="round" stroke-linejoin="round" stroke-miterlimit="10" stroke-width=".075847"/>
  <path d="m36.515 131.28h0.48683v-1.016h-0.48683z" fill="#848382"/>
  <path d="m37.002 130.26h-0.48683v1.016h0.48683z" fill="none" stroke="#1f1a17" stroke-linecap="round" stroke-linejoin="round" stroke-miterlimit="10" stroke-width=".075847"/>
  <path d="m35.372 130.26h2.794v-4.191h-2.794z" fill="#848382"/>
  <path d="m38.166 126.07h-2.794v4.191h2.794z" fill="none" stroke="#1f1a17" stroke-linecap="round" stroke-linejoin="round" stroke-miterlimit="10" stroke-width=".075847"/>
  <path d="m36.769 126.68h-0.08467l-0.04233 0.0212h-0.10583l-0.127 0.0635h-0.04233l-0.08467 0.0423-0.02117 0.0423-0.08467 0.0423-0.127 0.127-0.02117 0.0423-0.0635 0.0635-0.02117 0.0423-0.04233 0.0847v0.0423l-0.04233 0.0847v0.0635l-0.02117 0.0423v0.27517l0.02117 0.0423v0.0635l0.04233 0.0847v0.0423l0.04233 0.0847 0.02117 0.0212 0.02117 0.0423 0.04233 0.0423 0.02117 0.0423 0.127 0.127 0.08467 0.0423 0.02117 0.0423 0.08467 0.0423h0.04233l0.08467 0.0423h0.04233l0.04233 0.0212h0.0635l0.04233 0.0212h0.1905l0.04233-0.0212h0.04233l0.0635-0.0212h0.04233l0.08467-0.0423h0.04233l0.08467-0.0423 0.02117-0.0423 0.08467-0.0423 0.02117-0.0423 0.04233-0.0212 0.0635-0.0635 0.04234-0.0846 0.0635-0.0635 0.04233-0.0847v-0.0423l0.04233-0.0847v-0.10583l0.02117-0.0423v-0.1905l-0.02117-0.0423v-0.10583l-0.04233-0.0847v-0.0423l-0.0635-0.127-0.04233-0.0212-0.04234-0.0846-0.0635-0.0635-0.04233-0.0212-0.02117-0.0423-0.08467-0.0423-0.02117-0.0423-0.04233-0.0212c-0.0949-0.0406-0.07937-7e-3 -0.21167-0.0847h-0.10583l-0.04233-0.0212h-0.10583" fill="#fff" fill-rule="evenodd" stroke="#1f1a17" stroke-linecap="round" stroke-linejoin="round" stroke-miterlimit="10" stroke-width=".075847"/>
  <path d="m14.65 126.09h0.84667v-1.1853h-0.84667z" fill="#848382"/>
  <path d="m15.497 124.9h-0.84667v1.1853h0.84667z" fill="none" stroke="#1f1a17" stroke-linecap="round" stroke-linejoin="round" stroke-miterlimit="10" stroke-width=".075847"/>
  <path d="m14.841 131.32h0.48683v-1.016h-0.48683z" fill="#848382"/>
  <path d="m15.327 130.3h-0.48683v1.016h0.48683z" fill="none" stroke="#1f1a17" stroke-linecap="round" stroke-linejoin="round" stroke-miterlimit="10" stroke-width=".075847"/>
  <path d="m13.698 130.3h2.7728v-4.2122h-2.7728z" fill="#848382"/>
  <path d="m16.47 126.09h-2.7728v4.2122h2.7728z" fill="none" stroke="#1f1a17" stroke-linecap="round" stroke-linejoin="round" stroke-miterlimit="10" stroke-width=".075847"/>
  <path d="m15.095 126.7h-0.10583l-0.04233 0.0212h-0.04233l-0.04233 0.0212h-0.04233l-0.29633 0.14817-0.0635 0.0635-0.04233 0.0212-0.02117 0.0423-0.02117 0.0212c-0.11571 0.14358-0.21802 0.31961-0.21167 0.508l-0.02117 0.0423v0.10583l0.02117 0.0423c-0.0194 0.14217 0.10513 0.41169 0.21167 0.508l0.02117 0.0212 0.02117 0.0423c0.22789 0.20179 0.25929 0.18238 0.52917 0.27516h0.29633l0.04233-0.0212h0.04233l0.08467-0.0423h0.04233l0.16933-0.0847 0.0635-0.0635 0.04233-0.0212 0.02117-0.0423 0.10583-0.10584 0.02117-0.0212 0.10583-0.21167v-0.0423l0.04233-0.0847v-0.1905c0.03351-0.46567-0.33655-0.86043-0.78317-0.93133l-0.04233-0.0212h-0.10583" fill="#fff" fill-rule="evenodd" stroke="#1f1a17" stroke-linecap="round" stroke-linejoin="round" stroke-miterlimit="10" stroke-width=".075847"/>
 </g>
</svg>
