<?xml version="1.0" encoding="UTF-8"?>
<!-- Created with Inkscape (http://www.inkscape.org/) -->
<svg width="25.146mm" height="25.04mm" version="1.1" viewBox="0 0 25.146 25.04" xmlns="http://www.w3.org/2000/svg">
 <defs>
  <clipPath id="clipPath349">
   <path transform="translate(-205.38 -502.58)" d="m205.38 467.12h71.28v70.98h-71.28z"/>
  </clipPath>
 </defs>
 <g transform="translate(-11.115 -99.483)">
  <path transform="matrix(.35278 0 0 -.35278 11.115 112.01)" d="M 0,0 35.76,-35.46 71.28,0 35.76,35.52 0,0" clip-path="url(#clipPath349)" fill="#fff" fill-rule="evenodd" stroke="#1f1a17" stroke-miterlimit="10" stroke-width=".06"/>
  <path d="m12.724 111.99 10.985 10.901 10.901-10.901-10.901-10.901-10.985 10.901" fill="#28166f" fill-rule="evenodd"/>
  <path d="m12.978 111.74 10.985 10.901-0.508 0.508-10.985-10.901zm10.985 11.409-0.254 0.254-0.254-0.254 0.254-0.254zm-0.508-0.508 10.901-10.901 0.508 0.508-10.901 10.901zm11.409-10.901 0.254 0.254-0.254 0.254-0.254-0.254zm-0.508 0.508-10.901-10.901 0.508-0.48684 10.901 10.88zm-10.901-11.388 0.254-0.254 0.254 0.254-0.254 0.23284zm0.508 0.48684-10.985 10.901-0.508-0.508 10.985-10.88zm-11.493 10.901-0.23283-0.254 0.23283-0.254 0.254 0.254-0.254 0.254" fill="#1f1a17"/>
  <path d="m22.63 105.43h4.8895l3.9582 3.937h-8.8477v-3.937" fill="#fff" fill-rule="evenodd"/>
  <path d="m24.577 118.34h-4.9107l-3.937-3.9582h8.8477v3.9582" fill="#fff" fill-rule="evenodd"/>
 </g>
</svg>
