<?xml version="1.0" encoding="UTF-8"?>
<!-- Created with Inkscape (http://www.inkscape.org/) -->
<svg width="22.881mm" height="22.796mm" version="1.1" viewBox="0 0 22.881 22.797" xmlns="http://www.w3.org/2000/svg">
 <g transform="translate(-28.842 -118.27)">
  <path d="m29.329 129.66 10.985 10.901 10.901-10.901-10.901-10.901-10.985 10.901" fill="#28166f" fill-rule="evenodd"/>
  <path d="m38.579 140.2h3.429v-21.103h-3.429z" fill="#fff"/>
  <path d="m29.583 129.4 10.985 10.901-0.508 0.508-10.985-10.901zm10.985 11.409-0.254 0.254-0.254-0.254 0.254-0.254zm-0.508-0.508 10.901-10.901 0.508 0.508-10.901 10.901zm11.409-10.901 0.254 0.254-0.254 0.254-0.254-0.254zm-0.508 0.508-10.901-10.901 0.508-0.48684 10.901 10.88zm-10.901-11.388 0.254-0.254 0.254 0.254-0.254 0.23284zm0.508 0.48684-10.985 10.901-0.508-0.508 10.985-10.88zm-11.493 10.901-0.23283-0.254 0.23283-0.254 0.254 0.254-0.254 0.254" fill="#1f1a17"/>
 </g>
</svg>
