<?xml version="1.0" encoding="UTF-8"?>
<!-- Created with Inkscape (http://www.inkscape.org/) -->
<svg width="25.168mm" height="25.07mm" version="1.1" viewBox="0 0 25.168 25.07" xmlns="http://www.w3.org/2000/svg">
 <g transform="translate(1.0556 -120.39)">
  <path d="m-1.0482 132.93 12.615 12.51 12.531-12.51-12.531-12.531-12.615 12.531" fill="#fff" fill-rule="evenodd" stroke="#1f1a17" stroke-miterlimit="10" stroke-width=".021167"/>
  <path d="m0.56048 132.91 10.985 10.901 10.901-10.901-10.901-10.901-10.985 10.901" fill="#28166f" fill-rule="evenodd"/>
  <path d="m0.68748 132.78 10.985 10.901-0.254 0.254-10.985-10.901zm10.985 11.155-0.127 0.127-0.127-0.127 0.127-0.127zm-0.254-0.254 10.901-10.901 0.254 0.254-10.901 10.901zm11.155-10.901 0.127 0.127-0.127 0.127-0.127-0.127zm-0.254 0.254-10.901-10.901 0.254-0.23284 10.901 10.88zm-10.901-11.155 0.127-0.10584 0.127 0.127-0.127 0.10584zm0.254 0.254-10.985 10.901-0.254-0.254 10.985-10.901zm-11.239 10.901-0.10583-0.127 0.10583-0.127 0.127 0.127-0.127 0.127" fill="#1f1a17"/>
  <g fill-rule="evenodd">
   <path d="m11.504 139.96-7.0697-7.0273 7.0697-7.0273 7.0908 7.0273-7.0908 7.0273" fill="#fff"/>
   <path d="m6.5506 132.89 4.953-4.9107 4.953 4.9107-4.953 4.9318-4.953-4.9318" fill="#28166f"/>
   <path d="m9.006 132.93 2.4977-2.4765 2.4765 2.4765-2.4765 2.4553-2.4977-2.4553" fill="#fff"/>
  </g>
 </g>
</svg>
