<?xml version="1.0" encoding="UTF-8"?>
<!-- Created with Inkscape (http://www.inkscape.org/) -->
<svg width="53.961mm" height="49.377mm" version="1.1" viewBox="0 0 53.961 49.377" xmlns="http://www.w3.org/2000/svg">
 <defs>
  <clipPath id="clipPath305">
   <path transform="translate(-286.8 -346.16)" d="m286.8 319.52h53.28v53.22h-53.28z"/>
  </clipPath>
  <clipPath id="clipPath309">
   <path transform="translate(-286.8 -399.32)" d="m286.8 372.68h53.28v53.28h-53.28z"/>
  </clipPath>
 </defs>
 <g transform="translate(-6.3528 -126.74)">
  <path d="m14.869 176.07h1.7992v-33.74h-1.7992z" fill="#7e7e7e"/>
  <path d="m14.869 142.34h1.7992v33.74h-1.7992z" fill="none" stroke="#1e1917" stroke-linecap="round" stroke-linejoin="round" stroke-miterlimit="10" stroke-width=".075847"/>
  <g>
   <path d="m6.3603 154.95 9.4403 9.398 9.3557-9.398-9.3557-9.3768-9.4403 9.3768" fill="#fff" fill-rule="evenodd" stroke="#1e1917" stroke-linecap="round" stroke-linejoin="round" stroke-miterlimit="10" stroke-width=".021167"/>
   <path d="m7.5668 154.95 8.2127 8.1703 8.1492-8.1703-8.1492-8.1703-8.2127 8.1703" fill="#282966" fill-rule="evenodd"/>
   <path d="m7.8208 154.7 8.2127 8.1703-0.508 0.508-8.2127-8.1703zm8.2127 8.6783-0.254 0.254-0.254-0.254 0.254-0.254zm-0.508-0.508 8.1492-8.1492 0.508 0.48683-8.1492 8.1703zm8.6572-8.1492 0.254 0.23283-0.254 0.254-0.254-0.254zm-0.508 0.48683-8.1492-8.1703 0.508-0.508 8.1492 8.1915zm-8.1492-8.6783 0.254-0.23284 0.254 0.23284-0.254 0.254zm0.508 0.508-8.2127 8.1703-0.508-0.508 8.2127-8.1703zm-8.7207 8.1703-0.254-0.254 0.254-0.254 0.254 0.254-0.254 0.254" fill="#1e1917"/>
   <path d="m6.3815 136.2 9.4192 9.3768 9.3557-9.3768-9.3557-9.3768-9.4192 9.3768" fill="#fff" fill-rule="evenodd" stroke="#1e1917" stroke-linecap="round" stroke-linejoin="round" stroke-miterlimit="10" stroke-width=".021167"/>
   <path d="m7.5668 136.2 8.2127 8.1703 8.1492-8.1703-8.1492-8.1915-8.2127 8.1915" fill="#282966" fill-rule="evenodd"/>
   <path d="m7.8208 135.94 8.2127 8.1703-0.508 0.48684-8.1915-8.1703zm8.2127 8.6572-0.254 0.254-0.254-0.254 0.254-0.23284zm-0.508-0.48684 8.1492-8.1703 0.508 0.48683-8.1492 8.1703zm8.6572-8.1703 0.254 0.254-0.254 0.23283-0.254-0.23283zm-0.508 0.48683-8.1492-8.1703 0.508-0.48683 8.1492 8.1703zm-8.1492-8.6572 0.254-0.254 0.254 0.254-0.254 0.23283zm0.508 0.48683-8.2127 8.1703-0.48683-0.48683 8.1915-8.1703zm-8.6995 8.1703-0.254-0.23283 0.254-0.254 0.23283 0.254-0.23283 0.23283" fill="#1e1917"/>
  </g>
  <g fill="#fff">
   <g>
    <path d="m12.181 136.13h1.8838v-3.3867h-1.8838z"/>
    <path d="m17.43 136.13h1.8838v-3.3867h-1.8838z"/>
    <path d="m12.16 137.89h7.1543v-1.8627h-7.1543z"/>
   </g>
   <path d="m11.864 158.15 0.08467-0.42333 0.04233-0.21167 0.04233-0.16933 0.0635-0.1905 0.04233-0.16934 0.04233-0.14816 0.0635-0.14817 0.04233-0.14817 0.0635-0.127 0.04233-0.10583 0.0635-0.127 0.04233-0.10583 0.1905-0.254 0.04233-0.0847 0.127-0.127 0.0635-0.0423 0.0635-0.0635 0.0635-0.0423 0.0635-0.0212 0.0635-0.0423 0.04233-0.0212 0.254-0.0847h0.29633l0.42333 0.0847 0.10583 0.0423 0.127 0.0635 0.21167 0.0847 0.127 0.0635 0.21167 0.127 0.127 0.0847 0.10583 0.0635 0.10583 0.0847 0.127 0.0635 0.23283 0.16933 0.635 0.4445 0.10583 0.0847 0.21167 0.127 0.08467 0.0635 0.10583 0.0635 0.08467 0.0423 0.10583 0.0423 0.08467 0.0423 0.10583 0.0635 0.10583 0.0212 0.10583 0.0423h0.10583l0.08467 0.0212 0.08467-0.0212h0.08467l0.0635-0.0212 0.127-0.0847 0.04233-0.0423 0.0635-0.0423 0.127-0.1905 0.04233-0.127 0.04233-0.0847 0.02117-0.0635v-0.0847l0.02117-0.0635 0.02117-0.0847v-0.0847l0.02117-0.0635v-0.14816l0.02117-0.127v-0.21167h0.97367l0.04233 0.14817v0.16933l0.02117 0.14817-0.02117 0.16933-0.02117 0.14817-0.02117 0.16933-0.04233 0.16933-0.04233 0.14817-0.0635 0.16933-0.0635 0.14817-0.0635 0.16933-0.08467 0.127-0.10583 0.14817-0.3175 0.381-0.127 0.10583-0.14817 0.0847-0.127 0.0847-0.29633 0.127-0.16933 0.0423h-0.16933l-0.16933 0.0212-0.16933-0.0212-0.381-0.0847-0.1905-0.0847-0.1905-0.10584-0.21167-0.127-0.21167-0.14816-0.1905-0.16934-0.29633-0.23283-0.27517-0.21167-0.14817-0.0847-0.10583-0.10584-0.127-0.0847-0.10583-0.0635-0.127-0.0635-0.21167-0.127-0.08467-0.0423-0.10583-0.0423-0.254-0.0635h-0.08467l-0.08467 0.0212-0.0635 0.0212-0.08467 0.0212-0.08467 0.0423-0.0635 0.0423-0.0635 0.0847-0.14817 0.14817-0.0635 0.10583-0.1905 0.381-0.127 0.33867-0.0635 0.1905h-0.99483" fill-rule="evenodd"/>
  </g>
  <text transform="scale(1.002 .99803)" x="13.192218" y="155.00217" font-size="4.225px" stroke-width=".35208" xml:space="preserve"><tspan x="13.192218 15.536475" y="155.00217" fill="#ffffff" font-family="Arial" font-size="4.2239px" stroke-width=".35208">15</tspan></text>
  <path d="m50.006 176.01h1.7992v-33.74h-1.7992z" fill="#7e7e7e"/>
  <path d="m50.006 142.27h1.7992v33.74h-1.7992z" fill="none" stroke="#1e1917" stroke-linecap="round" stroke-linejoin="round" stroke-miterlimit="10" stroke-width=".075847"/>
  <g>
   <path transform="matrix(.35278 0 0 -.35278 41.518 154.89)" d="M 0,0 26.7,-26.58 53.28,0 26.7,26.58 0,0" clip-path="url(#clipPath305)" fill="#fff" fill-rule="evenodd" stroke="#1e1917" stroke-linecap="round" stroke-linejoin="round" stroke-miterlimit="10" stroke-width=".06"/>
   <path d="m42.725 154.89 8.1915 8.1703 8.1492-8.1703-8.1492-8.1703-8.1915 8.1703" fill="#282966" fill-rule="evenodd"/>
   <path d="m42.957 154.63 8.2127 8.1703-0.48683 0.508-8.2127-8.1703zm8.2127 8.6783-0.254 0.254-0.23283-0.254 0.23283-0.254zm-0.48683-0.508 8.1492-8.1703 0.48683 0.508-8.1492 8.1703zm8.636-8.1703 0.254 0.254-0.254 0.254-0.254-0.254zm-0.48683 0.508-8.1492-8.1703 0.48683-0.508 8.1492 8.1703zm-8.1492-8.6783 0.23283-0.254 0.254 0.254-0.254 0.254zm0.48683 0.508-8.2127 8.1703-0.48683-0.508 8.2127-8.1703zm-8.6995 8.1703-0.254-0.254 0.254-0.254 0.254 0.254-0.254 0.254" fill="#1e1917"/>
   <path transform="matrix(.35278 0 0 -.35278 41.518 136.13)" d="M 0,0 26.7,-26.58 53.28,0 26.7,26.64 0,0" clip-path="url(#clipPath309)" fill="#fff" fill-rule="evenodd" stroke="#1e1917" stroke-linecap="round" stroke-linejoin="round" stroke-miterlimit="10" stroke-width=".06"/>
   <path d="m42.725 136.11 8.2127 8.1703 8.1492-8.1703-8.1492-8.1703-8.2127 8.1703" fill="#282966" fill-rule="evenodd"/>
   <path d="m42.979 135.86 8.2127 8.1915-0.508 0.48683-8.2127-8.1703zm8.2127 8.6783-0.254 0.254-0.254-0.254 0.254-0.254zm-0.508-0.48683 8.1492-8.1915 0.508 0.508-8.1492 8.1703zm8.6572-8.1915 0.23283 0.254-0.23283 0.254-0.254-0.254zm-0.508 0.508-8.1492-8.1703 0.508-0.48684 8.1492 8.1492zm-8.1492-8.6783 0.254-0.23284 0.254 0.254-0.254 0.23284zm0.508 0.508-8.2127 8.1703-0.508-0.508 8.2127-8.1703zm-8.7207 8.1703-0.254-0.254 0.254-0.254 0.254 0.254-0.254 0.254" fill="#1e1917"/>
  </g>
  <g fill="#fff">
   <path d="m47.318 136.07h1.8838v-3.3867h-1.8838z"/>
   <path d="m52.588 136.07h1.8838v-3.3867h-1.8838z"/>
   <path d="m47.297 137.81h7.1755v-1.8415h-7.1755z"/>
   <path d="m53.964 153.72h-5.7362v-1.27h5.7362zm0 3.3655h-5.7362v-1.27h5.7362z"/>
  </g>
 </g>
</svg>
