<?xml version="1.0" encoding="UTF-8"?>
<!-- Created with Inkscape (http://www.inkscape.org/) -->
<svg width="24.936mm" height="25.155mm" version="1.1" viewBox="0 0 24.936 25.155" xmlns="http://www.w3.org/2000/svg">
 <g transform="translate(-1.3227 -139.44)">
  <path d="m1.3302 152.02 12.509 12.552 12.404-12.552-12.404-12.573-12.509 12.573" fill="#fff" fill-rule="evenodd" stroke="#1e1917" stroke-miterlimit="10" stroke-width=".021167"/>
  <path d="m2.9388 152 10.88 10.943 10.795-10.943-10.795-10.922-10.88 10.922" fill="#282966" fill-rule="evenodd"/>
  <path d="m3.1928 151.77 10.88 10.922-0.508 0.508-10.88-10.943zm10.88 11.43-0.254 0.254-0.254-0.254 0.254-0.254zm-0.508-0.508 10.816-10.922 0.48683 0.48683-10.795 10.943zm11.303-10.922 0.254 0.23283-0.254 0.254-0.254-0.254zm-0.48683 0.48683-10.816-10.922 0.508-0.508 10.795 10.943zm-10.816-11.43 0.254-0.254 0.254 0.254-0.254 0.254zm0.508 0.508-10.88 10.922-0.508-0.48683 10.88-10.943zm-11.388 10.922-0.254-0.254 0.254-0.23283 0.254 0.23283-0.254 0.254" fill="#1e1917"/>
  <g fill="#fff">
   <path d="m9.0348 151.94h2.4977v-4.5508h-2.4977z"/>
   <path d="m15.999 151.94h2.5188v-4.5508h-2.5188z"/>
   <path d="m9.0137 154.29h9.4827v-2.4977h-9.4827z"/>
  </g>
 </g>
</svg>
