<?xml version="1.0" encoding="UTF-8"?>
<!-- Created with Inkscape (http://www.inkscape.org/) -->
<svg width="53.71mm" height="49.409mm" version="1.1" viewBox="0 0 53.71 49.409" xmlns="http://www.w3.org/2000/svg">
 <defs>
  <clipPath id="clipPath438">
   <path transform="translate(-286.38 -296.36)" d="m286.38 269.66h53.34v53.4h-53.34z"/>
  </clipPath>
 </defs>
 <g transform="translate(2.6431 -131.5)">
  <path d="m5.8765 180.87h1.7992v-33.803h-1.7992z" fill="#848382"/>
  <path d="m5.8765 147.07h1.7992v33.803h-1.7992z" fill="none" stroke="#1f1a17" stroke-linecap="round" stroke-linejoin="round" stroke-miterlimit="10" stroke-width=".075847"/>
  <g>
   <path d="m-2.4843 140.86 9.2922 9.2498 9.2287-9.2498-9.2287-9.2498-9.2922 9.2498" fill="#fff" fill-rule="evenodd" stroke="#1f1a17" stroke-linecap="round" stroke-linejoin="round" stroke-miterlimit="10" stroke-width=".021167"/>
   <path d="m-1.299 140.86 8.0857 8.0433 8.0433-8.0433-8.0433-8.0645-8.0857 8.0645" fill="#28166f" fill-rule="evenodd"/>
   <path d="m5.5167 148.65h2.5188v-15.621h-2.5188z" fill="#fff"/>
   <path d="m-1.045 140.61 8.0857 8.0645-0.508 0.48683-8.0857-8.0645zm8.0857 8.5513-0.254 0.254-0.254-0.254 0.254-0.254zm-0.508-0.48683 8.0433-8.0645 0.48683 0.48683-8.0222 8.0645zm8.5302-8.0645 0.254 0.254-0.254 0.23283-0.23283-0.23283zm-0.48683 0.48683-8.0433-8.0433 0.508-0.508 8.0222 8.0645zm-8.0433-8.5513 0.254-0.254 0.254 0.254-0.254 0.254zm0.508 0.508-8.0857 8.0433-0.508-0.48683 8.0857-8.0645zm-8.5937 8.0433-0.23283-0.23283 0.23283-0.254 0.254 0.254-0.254 0.23283" fill="#1f1a17"/>
   <path d="m-2.6325 159.7 9.4403 9.398 9.3768-9.398-9.3768-9.398-9.4403 9.398" fill="#fff" fill-rule="evenodd" stroke="#1f1a17" stroke-linecap="round" stroke-linejoin="round" stroke-miterlimit="10" stroke-width=".021167"/>
   <path d="m-1.426 159.7 8.2127 8.1915 8.1703-8.1915-8.1703-8.1915-8.2127 8.1915" fill="#28166f" fill-rule="evenodd"/>
   <path d="m-1.172 159.45 8.2127 8.1915-0.48683 0.508-8.2338-8.1915zm8.2127 8.6995-0.254 0.23283-0.23283-0.23283 0.23283-0.254zm-0.48683-0.508 8.1492-8.1915 0.508 0.508-8.1703 8.1915zm8.6572-8.1915 0.23283 0.254-0.23283 0.254-0.254-0.254zm-0.508 0.508-8.1492-8.1915 0.48683-0.508 8.1703 8.1915zm-8.1492-8.6995 0.23283-0.254 0.254 0.254-0.254 0.254zm0.48683 0.508-8.2127 8.1915-0.508-0.508 8.2338-8.1915zm-8.7207 8.1915-0.254-0.254 0.254-0.254 0.254 0.254-0.254 0.254" fill="#1f1a17"/>
   <path d="m2.4263 162.24 0.042333-0.23283c1.5042-7.0559 7.1699 2.8892 7.5142-2.0955v-0.0847h1.143l0.04233 0.14817v0.14816c0.08537 1.9558-1.9689 3.2956-3.683 2.159l-0.23283-0.14816-0.254-0.16934c-1.227-0.7366-2.4388-2.0595-3.2808-0.0847l-0.0635 0.16933-0.084667 0.1905h-1.143" fill="#fff" fill-rule="evenodd"/>
  </g>
  <text transform="scale(1.0012 .99884)" x="4.4108534" y="158.78612" font-size="4.2284px" stroke-width=".35237" xml:space="preserve"><tspan x="4.4108534 6.7569466" y="158.78612" fill="#ffffff" font-family="Arial" font-size="4.2302px" stroke-width=".35237">15</tspan></text>
  <path d="m40.759 180.78h1.7992v-33.824h-1.7992z" fill="#848382"/>
  <path d="m40.759 146.96h1.7992v33.824h-1.7992z" fill="none" stroke="#1f1a17" stroke-linecap="round" stroke-linejoin="round" stroke-miterlimit="10" stroke-width=".075847"/>
  <g>
   <path d="m32.398 140.78 9.2922 9.2498 9.2287-9.2498-9.2287-9.271-9.2922 9.271" fill="#fff" fill-rule="evenodd" stroke="#1f1a17" stroke-linecap="round" stroke-linejoin="round" stroke-miterlimit="10" stroke-width=".021167"/>
   <path d="m33.584 140.76 8.0857 8.0645 8.0222-8.0645-8.0222-8.0645-8.0857 8.0645" fill="#28166f" fill-rule="evenodd"/>
   <path d="m40.378 148.57h2.54v-15.621h-2.54z" fill="#fff"/>
   <path d="m33.838 140.53 8.0857 8.0433-0.508 0.508-8.0857-8.0645zm8.0857 8.5513-0.254 0.254-0.254-0.254 0.254-0.254zm-0.508-0.508 8.0433-8.0433 0.48683 0.48683-8.0222 8.0645zm8.5302-8.0433 0.254 0.23283-0.254 0.254-0.254-0.254zm-0.48683 0.48683-8.0433-8.0645 0.508-0.48683 8.0222 8.0645zm-8.0433-8.5513 0.254-0.254 0.254 0.254-0.254 0.23283zm0.508 0.48683-8.0857 8.0645-0.508-0.48683 8.0857-8.0645zm-8.5937 8.0645-0.254-0.254 0.254-0.23283 0.254 0.23283-0.254 0.254" fill="#1f1a17"/>
   <path transform="matrix(.35278 0 0 -.35278 32.25 159.62)" d="M 0,0 26.76,-26.64 53.34,0 26.76,26.7 0,0" clip-path="url(#clipPath438)" fill="#fff" fill-rule="evenodd" stroke="#1f1a17" stroke-linecap="round" stroke-linejoin="round" stroke-miterlimit="10" stroke-width=".06"/>
   <path d="m33.457 159.62 8.2127 8.1703 8.1703-8.1703-8.1703-8.2127-8.2127 8.2127" fill="#28166f" fill-rule="evenodd"/>
   <path d="m33.711 159.36 8.2127 8.1915-0.508 0.48683-8.2127-8.1915zm8.2127 8.6783-0.254 0.254-0.254-0.254 0.254-0.254zm-0.508-0.48683 8.1703-8.1915 0.508 0.48683-8.1703 8.1915zm8.6783-8.1915 0.23283 0.254-0.23283 0.23283-0.254-0.23283zm-0.508 0.48683-8.1703-8.1915 0.508-0.48683 8.1703 8.1915zm-8.1703-8.6783 0.254-0.254 0.254 0.254-0.254 0.23283zm0.508 0.48683-8.2127 8.1915-0.508-0.48683 8.2127-8.1915zm-8.7207 8.1915-0.254-0.23283 0.254-0.254 0.254 0.254-0.254 0.23283" fill="#1f1a17"/>
   <path d="m45.289 158.39h-7.1332v-1.4393h7.1332zm0 3.8312h-7.1332v-1.4393h7.1332z" fill="#fff"/>
  </g>
 </g>
</svg>
