<?xml version="1.0" encoding="UTF-8"?>
<!-- Created with Inkscape (http://www.inkscape.org/) -->
<svg width="25.205mm" height="25.099mm" version="1.1" viewBox="0 0 25.205 25.099" xmlns="http://www.w3.org/2000/svg">
 <g transform="translate(-43.656 -111.65)">
  <path d="m43.749 124.19 12.531 12.467 12.488-12.467-12.488-12.446-12.531 12.446" fill="#fff" fill-rule="evenodd" stroke="#1e1917" stroke-linecap="round" stroke-linejoin="round" stroke-miterlimit="10" stroke-width=".18591"/>
  <path d="m45.4 124.11 10.943 10.837 10.837-10.837-10.837-10.858-10.943 10.858" fill="#282966" fill-rule="evenodd"/>
  <g>
   <path d="m45.527 123.98 10.922 10.837-0.23283 0.254-10.943-10.837zm10.922 11.091-0.10583 0.127-0.127-0.127 0.127-0.127zm-0.23283-0.254 10.837-10.837 0.254 0.23283-10.858 10.858zm11.091-10.837 0.127 0.127-0.127 0.10583-0.127-0.10583zm-0.254 0.23283-10.837-10.837 0.23283-0.254 10.858 10.858zm-10.837-11.091 0.127-0.127 0.10583 0.127-0.10583 0.127zm0.23283 0.254-10.922 10.858-0.254-0.254 10.943-10.858zm-11.176 10.858-0.127-0.127 0.127-0.127 0.127 0.127-0.127 0.127" fill="#1e1917"/>
   <path d="m51.475 126.44h2.4977v-4.5085h-2.4977z" fill="#fff"/>
   <path d="m58.46 126.44h2.5188v-4.5085h-2.5188z" fill="#fff"/>
  </g>
 </g>
</svg>
