<?xml version="1.0" encoding="UTF-8"?>
<!-- Created with Inkscape (http://www.inkscape.org/) -->
<svg width="25.168mm" height="25.07mm" version="1.1" viewBox="0 0 25.168 25.07" xmlns="http://www.w3.org/2000/svg">
 <g transform="translate(-15.875 -90.752)">
  <path d="m15.882 103.3 12.615 12.51 12.531-12.51-12.531-12.531-12.615 12.531" fill="#fff" fill-rule="evenodd" stroke="#1e1917" stroke-miterlimit="10" stroke-width=".021167"/>
  <path d="m17.491 103.28 10.985 10.901 10.901-10.901-10.901-10.901-10.985 10.901" fill="#282966" fill-rule="evenodd"/>
  <path d="m17.745 103.02 10.985 10.901-0.508 0.508-10.985-10.901zm10.985 11.409-0.254 0.254-0.254-0.254 0.254-0.254zm-0.508-0.508 10.901-10.901 0.508 0.508-10.901 10.901zm11.409-10.901 0.254 0.254-0.254 0.254-0.254-0.254zm-0.508 0.508-10.901-10.901 0.508-0.48683 10.901 10.88zm-10.901-11.388 0.254-0.254 0.254 0.254-0.254 0.23283zm0.508 0.48683-10.985 10.901-0.508-0.508 10.985-10.88zm-11.493 10.901-0.23283-0.254 0.23283-0.254 0.254 0.254-0.254 0.254" fill="#1e1917"/>
  <g fill="#fff">
   <path d="m23.65 103.21h2.5188v-4.5297h-2.5188z"/>
   <path d="m30.678 103.21h2.54v-4.5297h-2.54z"/>
   <path d="m23.672 107.76h9.5462v-2.4765h-9.5462z"/>
  </g>
 </g>
</svg>
