<?xml version="1.0" encoding="UTF-8"?>
<!-- Created with Inkscape (http://www.inkscape.org/) -->
<svg width="25.176mm" height="25.063mm" version="1.1" viewBox="0 0 25.176 25.063" xmlns="http://www.w3.org/2000/svg">
 <g transform="translate(-29.107 -130.7)">
  <path d="m41.695 130.71-12.573 12.552 12.573 12.488 12.573-12.488-12.573-12.552" fill="#fff" fill-rule="evenodd" stroke="#1f1a17" stroke-miterlimit="10" stroke-width=".021167"/>
  <path d="m41.695 132.32-10.943 10.943 10.943 10.837 10.943-10.837-10.943-10.943" fill="#28166f" fill-rule="evenodd"/>
  <path d="m31.112 144.94h21.209v-3.4078h-21.209z" fill="#fff"/>
  <path d="m41.949 132.57-10.943 10.922-0.508-0.48683 10.943-10.943zm-11.451 10.922-0.254-0.23283 0.254-0.254 0.254 0.254zm0.508-0.48683 10.943 10.858-0.508 0.48683-10.943-10.858zm10.943 11.345-0.254 0.254-0.254-0.254 0.254-0.254zm-0.508-0.48683 10.964-10.858 0.48683 0.48683-10.943 10.858zm11.451-10.858 0.254 0.254-0.254 0.23283-0.254-0.23283zm-0.508 0.48683-10.943-10.922 0.508-0.508 10.943 10.943zm-10.943-11.43 0.254-0.254 0.254 0.254-0.254 0.254-0.254-0.254" fill="#1f1a17"/>
 </g>
</svg>
