<?xml version="1.0" encoding="UTF-8"?>
<!-- Created with Inkscape (http://www.inkscape.org/) -->
<svg width="35.174mm" height="3.5091mm" version="1.1" viewBox="0 0 35.174 3.5091" xmlns="http://www.w3.org/2000/svg">
 <defs>
  <clipPath id="clipPath609">
   <path transform="translate(-2212 -3480.7)" d="m2171 3480.7h85v-83h-85z"/>
  </clipPath>
  <clipPath id="clipPath612">
   <path transform="translate(-2761 -3480.7)" d="m2719 3480.7h83v-83h-83z"/>
  </clipPath>
  <clipPath id="clipPath615">
   <path transform="translate(-2011 -3480.7)" d="m1971 3480.7h84v-83h-84z"/>
  </clipPath>
 </defs>
 <g transform="translate(-33.866 -143.93)">
  <path d="m50.715 147.11h10.541v-2.8787h-10.541z" fill="#1f1a17"/>
  <path d="m44.069 143.93h0.08467l0.08467 0.0423h0.16933l0.08467 0.0423h0.08467l0.16934 0.0846h0.08467l0.04233 0.0423 0.16934 0.0846 0.04233 0.0847 0.08467 0.0423 0.04233 0.0423 0.08467 0.0423 0.04233 0.0847 0.04233 0.0423 0.04233 0.0847 0.04233 0.0423 0.08466 0.1694 0.04233 0.0423 0.08466 0.1694v0.0847l0.04233 0.0847v0.0847l0.04233 0.0847v0.508l-0.04233 0.0847v0.0847l-0.04233 0.0847v0.0847l-0.08466 0.1694-0.04233 0.0423-0.08466 0.1694-0.04233 0.0423-0.04233 0.0847-0.04233 0.0423-0.04233 0.0847-0.08467 0.0423-0.04233 0.0423-0.08467 0.0847-0.04233 0.0423-0.16934 0.0846-0.04233 0.0423h-0.08467l-0.16934 0.0846h-0.08467l-0.08467 0.0423h-0.16933l-0.08467 0.0423h-0.16933l-0.08467-0.0423h-0.16933l-0.08467-0.0423h-0.08467l-0.04233-0.0423-0.08467-0.0423h-0.08467l-0.08467-0.0423-0.04233-0.0423-0.16934-0.0846-0.04233-0.0847-0.04233-0.0423-0.08467-0.0423-0.04233-0.0847-0.04233-0.0423-0.08467-0.0847-0.04233-0.0423-0.08466-0.1694-0.04233-0.0423v-0.0847l-0.08466-0.1694v-0.0847l-0.04233-0.0847v-0.16933l-0.04233-0.0847v-0.16933l0.04233-0.0847v-0.16933l0.04233-0.0847v-0.0847l0.08466-0.1694v-0.0847l0.04233-0.0423 0.08466-0.1694 0.04233-0.0423 0.08467-0.0847 0.04233-0.0423 0.04233-0.0847 0.08467-0.0423 0.08466-0.0846 0.08467-0.0847 0.08467-0.0423 0.04233-0.0423 0.08467-0.0423h0.08467l0.08467-0.0423 0.04233-0.0423h0.08467l0.08467-0.0423h0.16933l0.08467-0.0423h0.08467" fill="#1f1a17" fill-rule="evenodd"/>
  <path transform="matrix(.042333 0 0 -.042333 44.069 143.93)" d="m0 0h2l2-1h4l2-1h2l4-2h2l1-1 4-2 1-2 2-1 1-1 2-1 1-2 1-1 1-2 1-1 2-4 1-1 2-4v-2l1-2v-2l1-2v-12l-1-2v-2l-1-2v-2l-2-4-1-1-2-4-1-1-1-2-1-1-1-2-2-1-4-4-4-2-1-1h-2l-4-2h-2l-2-1h-4l-2-1h-4l-2 1h-4l-2 1h-2l-1 1-2 1h-2l-2 1-1 1-4 2-1 2-1 1-2 1-1 2-4 4-2 4-1 1v2l-2 4v2l-1 2v4l-1 2v4l1 2v4l1 2v2l2 4v2l1 1 2 4 4 4 1 2 2 1 4 4 2 1 1 1 2 1h2l2 1 1 1h2l2 1h4l2 1z" clip-path="url(#clipPath609)" fill="none" stroke="#1f1a17" stroke-linecap="round" stroke-linejoin="round" stroke-miterlimit="10" stroke-width="1.785"/>
  <path d="m67.31 143.93h0.08467l0.08467 0.0423h0.16933l0.08467 0.0423h0.08467l0.04233 0.0423 0.08467 0.0423h0.08467l0.08467 0.0423 0.04233 0.0423 0.08467 0.0423 0.08467 0.0847 0.04233 0.0423 0.08467 0.0423 0.04233 0.0423 0.04233 0.0847 0.08467 0.0423 0.04233 0.0847 0.04233 0.0423 0.08466 0.1694 0.04233 0.0423v0.0847l0.08466 0.1694v0.0847l0.04233 0.0847v0.16933l0.04233 0.0847v0.16933l-0.04233 0.0847v0.16933l-0.04233 0.0847v0.0847l-0.08466 0.1694v0.0847l-0.04233 0.0423-0.08466 0.1694-0.04233 0.0423-0.04233 0.0847-0.08467 0.0423-0.04233 0.0847-0.04233 0.0423-0.08467 0.0423-0.04233 0.0847-0.16934 0.0846-0.04233 0.0423-0.08467 0.0423h-0.08467l-0.08467 0.0423-0.04233 0.0423h-0.08467l-0.08467 0.0423h-0.16933l-0.08467 0.0423h-0.16933l-0.08467-0.0423h-0.16933l-0.08467-0.0423h-0.08467l-0.16934-0.0846h-0.08467l-0.04233-0.0423-0.16934-0.0846-0.04233-0.0423-0.08467-0.0847-0.08466-0.0846-0.08467-0.0847-0.04233-0.0423-0.04233-0.0847-0.04233-0.0423-0.08466-0.1694-0.04233-0.0423-0.08466-0.1694v-0.0847l-0.04233-0.0847v-0.0847l-0.04233-0.0847v-0.508l0.04233-0.0847v-0.0847l0.04233-0.0847v-0.0847l0.08466-0.1694 0.04233-0.0423 0.08466-0.1694 0.04233-0.0423 0.04233-0.0847 0.04233-0.0423 0.08467-0.0847 0.08466-0.0846 0.08467-0.0423 0.04233-0.0847 0.16934-0.0846 0.04233-0.0423h0.08467l0.16934-0.0846h0.08467l0.08467-0.0423h0.16933l0.08467-0.0423h0.08467" fill="#1f1a17" fill-rule="evenodd"/>
  <path transform="matrix(.042333 0 0 -.042333 67.31 143.93)" d="m0 0h2l2-1h4l2-1h2l1-1 2-1h2l2-1 1-1 2-1 3-3 2-1 1-1 1-2 2-1 1-2 1-1 2-4 1-1v-2l2-4v-2l1-2v-4l1-2v-4l-1-2v-4l-1-2v-2l-2-4v-2l-1-1-2-4-1-1-1-2-2-1-1-2-1-1-2-1-1-2-4-2-1-1-2-1h-2l-2-1-1-1h-2l-2-1h-4l-2-1h-4l-2 1h-4l-2 1h-2l-4 2h-2l-1 1-4 2-8 8-1 2-1 1-2 4-1 1-2 4v2l-1 2v2l-1 2v12l1 2v2l1 2v2l2 4 1 1 2 4 1 1 1 2 5 5 2 1 1 2 4 2 1 1h2l4 2h2l2 1h4l2 1z" clip-path="url(#clipPath612)" fill="none" stroke="#1f1a17" stroke-linecap="round" stroke-linejoin="round" stroke-miterlimit="10" stroke-width="1.785"/>
  <path d="m35.56 143.93h0.08467l0.08467 0.0423h0.16933l0.08467 0.0423h0.08467l0.16934 0.0846h0.08467l0.04233 0.0423 0.16934 0.0846 0.04233 0.0847 0.08467 0.0423 0.04233 0.0423 0.08467 0.0423 0.04233 0.0847 0.04233 0.0423 0.04233 0.0847 0.04233 0.0423 0.08466 0.1694 0.04233 0.0423 0.08466 0.1694v0.0847l0.04233 0.0847v0.0847l0.04233 0.0847v0.508l-0.04233 0.0847v0.0847l-0.04233 0.0847v0.0847l-0.08466 0.1694-0.04233 0.0423-0.08466 0.1694-0.04233 0.0423-0.04233 0.0847-0.04233 0.0423-0.04233 0.0847-0.08467 0.0423-0.04233 0.0423-0.08467 0.0847-0.04233 0.0423-0.16934 0.0846-0.04233 0.0423h-0.08467l-0.16934 0.0846h-0.08467l-0.08467 0.0423h-0.16933l-0.08467 0.0423h-0.16933l-0.08467-0.0423h-0.16933l-0.08467-0.0423h-0.08467l-0.04233-0.0423-0.08467-0.0423h-0.08467l-0.08467-0.0423-0.04233-0.0423-0.16934-0.0846-0.04233-0.0847-0.04233-0.0423-0.08467-0.0423-0.04233-0.0847-0.04233-0.0423-0.08467-0.0847-0.04233-0.0423-0.08466-0.1694-0.04233-0.0423v-0.0847l-0.08466-0.1694v-0.0847l-0.04233-0.0847v-0.16933l-0.04233-0.0847v-0.16933l0.04233-0.0847v-0.16933l0.04233-0.0847v-0.0847l0.08466-0.1694v-0.0847l0.04233-0.0423 0.08466-0.1694 0.04233-0.0423 0.08467-0.0847 0.04233-0.0423 0.04233-0.0847 0.08467-0.0423 0.08466-0.0846 0.08467-0.0847 0.08467-0.0423 0.04233-0.0423 0.08467-0.0423h0.08467l0.08467-0.0423 0.04233-0.0423h0.08467l0.08467-0.0423h0.16933l0.08467-0.0423h0.08467" fill="#1f1a17" fill-rule="evenodd"/>
  <path transform="matrix(.042333 0 0 -.042333 35.56 143.93)" d="m0 0h2l2-1h4l2-1h2l4-2h2l1-1 4-2 1-2 2-1 1-1 2-1 1-2 1-1 1-2 1-1 2-4 1-1 2-4v-2l1-2v-2l1-2v-12l-1-2v-2l-1-2v-2l-2-4-1-1-2-4-1-1-1-2-1-1-1-2-2-1-4-4-4-2-1-1h-2l-4-2h-2l-2-1h-4l-2-1h-4l-2 1h-4l-2 1h-2l-1 1-2 1h-2l-2 1-1 1-4 2-1 2-1 1-2 1-1 2-4 4-2 4-1 1v2l-2 4v2l-1 2v4l-1 2v4l1 2v4l1 2v2l2 4v2l1 1 2 4 4 4 1 2 2 1 4 4 2 1 1 1 2 1h2l2 1 1 1h2l2 1h4l2 1z" clip-path="url(#clipPath615)" fill="none" stroke="#1f1a17" stroke-linecap="round" stroke-linejoin="round" stroke-miterlimit="10" stroke-width="1.785"/>
 </g>
</svg>
