<?xml version="1.0" encoding="UTF-8"?>
<!-- Created with Inkscape (http://www.inkscape.org/) -->
<svg width="32.004mm" height="3.5091mm" version="1.1" viewBox="0 0 32.004 3.5091" xmlns="http://www.w3.org/2000/svg">
 <defs>
  <clipPath id="clipPath596">
   <path transform="translate(0 .00020833)" d="m2515 5158.7h249v-70h-249z"/>
  </clipPath>
  <clipPath id="clipPath599">
   <path transform="translate(-2386 -5165.7)" d="m2344 5165.7h85v-83h-85z"/>
  </clipPath>
 </defs>
 <g transform="translate(-54.769 -160.87)">
  <g fill="#1f1a17">
   <path d="m54.769 164.04h10.499v-2.8787h-10.499z"/>
   <path transform="matrix(.042333 0 0 -.042333 -30.237 379.55)" d="m2515 5090.7h249v68h-249z" clip-path="url(#clipPath596)"/>
   <path d="m70.771 160.87h0.08467l0.08467 0.0423h0.16933l0.08467 0.0423h0.04233l0.16934 0.0846h0.08467l0.08467 0.0423 0.04233 0.0423 0.08467 0.0423 0.04233 0.0847 0.08467 0.0423 0.04233 0.0423 0.08467 0.0423 0.04233 0.0847 0.04233 0.0423 0.04233 0.0847 0.08467 0.0423 0.08466 0.1694v0.0423l0.12699 0.2541v0.0847l0.04233 0.0847v0.67733l-0.04233 0.0847v0.0847l-0.12699 0.2541v0.0423l-0.08466 0.1694-0.08467 0.0423-0.04233 0.0847-0.04233 0.0423-0.04233 0.0847-0.08467 0.0423-0.04233 0.0423-0.08467 0.0847-0.04233 0.0423-0.08467 0.0423-0.04233 0.0423-0.08467 0.0423h-0.08467l-0.16934 0.0846h-0.04233l-0.08467 0.0423h-0.16933l-0.08467 0.0423h-0.21167l-0.08467-0.0423h-0.16933l-0.04233-0.0423h-0.08467l-0.16934-0.0846h-0.08467l-0.04233-0.0423-0.16934-0.0846-0.04233-0.0423-0.08467-0.0847-0.04233-0.0423-0.08467-0.0423-0.04233-0.0847-0.04233-0.0423-0.04233-0.0847-0.08467-0.0423-0.08466-0.1694v-0.0423l-0.12699-0.2541v-0.0847l-0.04233-0.0847v-0.67733l0.04233-0.0847v-0.0847l0.12699-0.2541v-0.0423l0.08466-0.1694 0.08467-0.0423 0.04233-0.0847 0.04233-0.0423 0.04233-0.0847 0.08467-0.0423 0.04233-0.0423 0.08467-0.0423 0.04233-0.0847 0.16934-0.0846 0.04233-0.0423h0.08467l0.16934-0.0846h0.08467l0.04233-0.0423h0.16933l0.08467-0.0423h0.127" fill-rule="evenodd"/>
  </g>
  <path transform="matrix(.042333 0 0 -.042333 70.771 160.87)" d="m0 0h2l2-1h4l2-1h1l4-2h2l2-1 1-1 2-1 1-2 2-1 1-1 2-1 1-2 1-1 1-2 2-1 2-4v-1l3-6v-2l1-2v-16l-1-2v-2l-3-6v-1l-2-4-2-1-1-2-1-1-1-2-2-1-4-4-2-1-1-1-2-1h-2l-4-2h-1l-2-1h-4l-2-1h-5l-2 1h-4l-1 1h-2l-4 2h-2l-1 1-4 2-4 4-2 1-1 2-1 1-1 2-2 1-2 4v1l-3 6v2l-1 2v16l1 2v2l3 6v1l2 4 2 1 1 2 1 1 1 2 2 1 1 1 2 1 1 2 4 2 1 1h2l4 2h2l1 1h4l2 1z" clip-path="url(#clipPath599)" fill="none" stroke="#1f1a17" stroke-linecap="round" stroke-linejoin="round" stroke-miterlimit="10" stroke-width="1.786"/>
 </g>
</svg>
