<?xml version="1.0" encoding="UTF-8"?>
<!-- Created with Inkscape (http://www.inkscape.org/) -->
<svg width="3.4251mm" height="3.51mm" version="1.1" viewBox="0 0 3.4251 3.51" xmlns="http://www.w3.org/2000/svg">
 <g transform="translate(-74.612 -133.35)">
  <path d="m76.336 133.38h0.16933l0.16933 0.0423h0.0635l0.08467 0.0423 0.16933 0.0423 0.0635 0.0423 0.08467 0.0423 0.1905 0.127 0.0635 0.0635 0.0635 0.0423 0.127 0.127 0.08467 0.127 0.0635 0.0635 0.04233 0.0635 0.04233 0.0847 0.02117 0.0635 0.04233 0.0847 0.02117 0.0635 0.04233 0.0847 0.04233 0.16933v0.0847l0.02117 0.0847v0.35983l-0.02117 0.0847v0.0847l-0.04233 0.16934-0.04233 0.0847-0.02117 0.0635-0.04233 0.0847-0.02117 0.0635-0.04233 0.0847-0.04233 0.0635-0.0635 0.0635-0.08467 0.127-0.1905 0.1905-0.254 0.16933-0.08467 0.0423-0.0635 0.0423-0.08467 0.0212-0.08467 0.0423-0.08467 0.0212-0.0635 0.0212h-0.08467l-0.08467 0.0212h-0.35983l-0.08467-0.0212h-0.08467l-0.0635-0.0212-0.08467-0.0212-0.08467-0.0423-0.0635-0.0212-0.08467-0.0423-0.0635-0.0423-0.08467-0.0423-0.1905-0.127-0.127-0.127-0.04233-0.0635-0.0635-0.0635-0.04233-0.0635-0.0635-0.0635-0.04233-0.0635-0.04233-0.0847-0.02117-0.0635-0.04233-0.0847-0.02117-0.0635-0.04233-0.0847-0.04233-0.16934v-0.0847l-0.02117-0.0847v-0.35983l0.02117-0.0847v-0.0847l0.04233-0.16933 0.04233-0.0847 0.02117-0.0635 0.04233-0.0847 0.02117-0.0635 0.04233-0.0847 0.04233-0.0635 0.0635-0.0635 0.04233-0.0635 0.0635-0.0635 0.04233-0.0635 0.0635-0.0635 0.0635-0.0423 0.0635-0.0635 0.127-0.0847 0.08467-0.0423 0.0635-0.0423 0.08467-0.0423 0.0635-0.0212 0.08467-0.0212 0.08467-0.0423h0.0635l0.16933-0.0423h0.1905" fill="#1e1917" fill-rule="evenodd" stroke="#1e1917" stroke-linecap="round" stroke-linejoin="round" stroke-miterlimit="10" stroke-width=".059619"/>
 </g>
</svg>
