<?xml version="1.0" encoding="UTF-8"?>
<!-- Created with Inkscape (http://www.inkscape.org/) -->
<svg width="17.981mm" height="22.913mm" version="1.1" viewBox="0 0 17.981 22.913" xmlns="http://www.w3.org/2000/svg">
 <defs>
  <clipPath id="clipPath330">
   <path transform="translate(-2.5e-5 2.5e-5)" d="m215.52 317.12h51v64.98h-51z"/>
  </clipPath>
 </defs>
 <g transform="translate(-56.092 -151.08)">
  <path d="m56.129 173.95h17.907v-22.839h-17.907z" fill="#7e7e7e"/>
  <path transform="matrix(.35278 0 0 -.35278 -19.944 285.87)" d="m215.64 381.98h50.76v-64.74h-50.76z" clip-path="url(#clipPath330)" fill="none" stroke="#1e1917" stroke-linecap="round" stroke-linejoin="round" stroke-miterlimit="10" stroke-width=".21"/>
  <g fill="#74c02c">
   <path d="m65.421 154.69h-0.127l-0.04233-0.0212h-0.4445v0.5715h0.29633l0.04233 0.0212h0.23283"/>
   <path d="m66.606 154.9h-0.02117l-0.04233-0.0212h-0.04233l-0.04233-0.0212h-0.04233l-0.04233-0.0212h-0.04233l-0.04233-0.0212h-0.08467l-0.04233-0.0212h-0.04233l-0.04233-0.0212h-0.0635l-0.08467 0.5715h0.04233l0.04233 0.0212h0.08467l0.04233 0.0212h0.02117l0.04233 0.0212h0.04233l0.04233 0.0212h0.0635l0.04233 0.0212h0.04233l0.02117 0.0212"/>
   <path d="m67.749 155.33-0.04233-0.0212h-0.04233l-0.04233-0.0212-0.02117-0.0212-0.127-0.0635h-0.04233l-0.08467-0.0423-0.02117-0.0212h-0.04233l-0.08467-0.0423-0.21167 0.55033 0.04233 0.0212h0.04233l0.04233 0.0212 0.02117 0.0212h0.04233l0.04233 0.0212 0.02117 0.0212h0.04233l0.04233 0.0212 0.02117 0.0212 0.04233 0.0212h0.04233l0.02117 0.0212 0.04233 0.0212"/>
   <path d="m68.786 155.96-0.02117-0.0212-0.04233-0.0212-0.02117-0.0423-0.08467-0.0423-0.02117-0.0212-0.08467-0.0423-0.02117-0.0212-0.08467-0.0423-0.02117-0.0212-0.04233-0.0212-0.04233-0.0423-0.29633 0.508 0.04233 0.0212 0.02117 0.0212 0.04233 0.0212 0.02117 0.0212 0.04233 0.0212 0.02117 0.0212 0.04233 0.0212 0.02117 0.0212 0.04233 0.0212 0.02117 0.0212 0.04233 0.0212 0.02117 0.0212 0.04233 0.0212 0.02117 0.0212h0.02117"/>
   <path d="m69.718 156.74-0.02117-0.0212-0.04233-0.0212-0.02117-0.0423-0.04233-0.0212-0.02117-0.0212-0.02117-0.0423-0.04233-0.0212-0.14817-0.14817-0.04233-0.0212-0.02117-0.0423h-0.02117l-0.381 0.4445h0.02117l0.10583 0.10584 0.04233 0.0212 0.02117 0.0212 0.02117 0.0423 0.04233 0.0212 0.02117 0.0212 0.02117 0.0423 0.04233 0.0212 0.04234 0.0424 0.02117 0.0423"/>
   <path d="m70.48 157.7-0.02117-0.0212-0.02117-0.0423-0.02117-0.0212-0.04234-0.0846-0.02117-0.0212-0.02117-0.0423-0.0635-0.0635-0.02117-0.0423-0.08467-0.0847-0.02117-0.0423-0.02117-0.0212-0.4445 0.35983 0.02117 0.0212 0.02117 0.0423 0.02117 0.0212 0.02117 0.0423 0.02117 0.0212 0.02117 0.0423 0.02117 0.0212 0.02117 0.0423 0.04233 0.0212 0.02117 0.0212 0.02117 0.0423 0.02117 0.0212 0.04233 0.0847h0.02117"/>
   <path d="m71.072 158.76v-0.0423l-0.06351-0.1269-0.02117-0.0212-0.04233-0.0847-0.04234-0.0846-0.02117-0.0212-0.04233-0.0847v-0.0423l-0.02117-0.0423h-0.02117l-0.48683 0.29633 0.02117 0.0423v0.0212l0.02117 0.0423 0.02117 0.0212 0.04234 0.0846 0.02117 0.0212 0.02117 0.0423v0.0423l0.02117 0.0212 0.0635 0.127v0.0212h0.02117"/>
   <path d="m71.496 159.9-0.02117-0.0423v-0.0423l-0.02117-0.0423v-0.0423l-0.02117-0.0423v-0.0423l-0.04233-0.0847v-0.0423l-0.04234-0.0846v-0.0423l-0.04233-0.0847-0.52917 0.21167v0.0212l0.02117 0.0423v0.0423l0.02117 0.0423 0.02117 0.0212v0.0423l0.02117 0.0423v0.0423l0.02117 0.0423v0.0423l0.02117 0.0212v0.0423l0.02117 0.0423v0.0423"/>
   <path d="m71.707 161.08v-0.10583l-0.02117-0.0423v-0.127l-0.02117-0.0423v-0.0847l-0.02117-0.0423v-0.10583l-0.02117-0.0423-0.5715 0.10584 0.02117 0.0423v0.0847l0.02117 0.0423v0.127l0.02117 0.0212v0.127l0.02117 0.0423v0.0635"/>
   <path d="m71.157 161.8h0.59267v-0.10584h-0.59267z"/>
   <path d="m71.728 162.29v-0.16933l0.02117-0.0423v-0.27516h-0.59267v0.46566"/>
   <path d="m71.559 163.5v-0.0847l0.02117-0.0423v-0.0423l0.02117-0.0423v-0.0423l0.02117-0.0423v-0.0847l0.02117-0.0423v-0.10584l0.02117-0.0423v-0.0212l-0.5715-0.0847v0.0212l-0.02117 0.0423v0.0847l-0.02117 0.0423v0.0847l-0.02117 0.0212v0.0423l-0.02117 0.0423v0.0847l-0.02117 0.0423v0.0423"/>
   <path d="m71.178 164.64v-0.0212l0.04233-0.0847 0.02117-0.0423v-0.0423l0.02117-0.0423 0.02117-0.0212 0.02117-0.0423v-0.0423l0.04233-0.0847v-0.0423l0.04233-0.0847v-0.0212l-0.55033-0.16933-0.04233 0.0847v0.0423l-0.02117 0.0423-0.02117 0.0212v0.0423l-0.02117 0.0423v0.0423l-0.02117 0.0212-0.04233 0.0847v0.0423l-0.02117 0.0212-0.02117 0.0423"/>
   <path d="m70.607 165.72 0.02117-0.0423 0.02117-0.0212 0.06351-0.1269 0.0635-0.0635 0.04233-0.0847 0.02117-0.0212v-0.0423l0.04234-0.0846 0.04234-0.0424-0.52917-0.254-0.02117 0.0212-0.04234 0.0846v0.0212l-0.04234 0.0846-0.02117 0.0212-0.02117 0.0423-0.02117 0.0212-0.04234 0.0846-0.02117 0.0212-0.02117 0.0423-0.02117 0.0212"/>
   <path d="m69.866 166.69 0.02117-0.0212 0.0635-0.0635 0.02117-0.0423 0.04233-0.0212 0.04234-0.0846 0.08467-0.0847 0.02117-0.0423 0.10583-0.10584-0.46567-0.35983-0.04233 0.0423-0.02117 0.0423-0.02117 0.0212-0.02117 0.0423-0.04233 0.0212-0.02117 0.0212-0.02117 0.0423-0.02117 0.0212-0.02117 0.0423-0.04233 0.0212-0.02117 0.0212-0.02117 0.0423-0.04233 0.0423"/>
   <path d="m68.977 167.52 0.02117-0.0212 0.04233-0.0212 0.02117-0.0423 0.04233-0.0212 0.02117-0.0212 0.04233-0.0212 0.02117-0.0423 0.04233-0.0212 0.08467-0.0847 0.04233-0.0212 0.02117-0.0423 0.04233-0.0212 0.02117-0.0212-0.40217-0.42333-0.0635 0.0635-0.04233 0.0212-0.02117 0.0423-0.04233 0.0212-0.10583 0.10583-0.04233 0.0212-0.04233 0.0423-0.04233 0.0212-0.02117 0.0212"/>
   <path d="m67.961 168.17 0.04233-0.0423 0.127-0.0635 0.02117-0.0212 0.127-0.0635 0.02117-0.0212 0.08467-0.0423 0.02117-0.0212 0.08467-0.0423-0.3175-0.48683-0.04233 0.0212-0.02117 0.0212-0.04233 0.0212-0.02117 0.0212-0.04233 0.0212-0.02117 0.0212-0.08467 0.0423-0.02117 0.0212h-0.04233l-0.02117 0.0212-0.08467 0.0423-0.02117 0.0212h-0.02117"/>
   <path d="m66.839 168.64 0.08467-0.0423h0.04233l0.04233-0.0212 0.02117-0.0212h0.04233l0.08467-0.0423h0.04233l0.127-0.0635h0.02117l0.04233-0.0212h0.02117l-0.23283-0.55033v0.0212h-0.04233l-0.02117 0.0212-0.04233 0.0212h-0.04233l-0.04233 0.0212-0.02117 0.0212h-0.04233l-0.08467 0.0423h-0.02117l-0.04233 0.0212h-0.04233l-0.04233 0.0212h-0.02117"/>
   <path d="m65.654 168.89 0.04233-0.0212h0.127l0.04233-0.0212h0.08467l0.04233-0.0212h0.08467l0.04233-0.0212h0.04233l0.04233-0.0212h0.04233l-0.127-0.5715h-0.02117l-0.04233 0.0212h-0.04233l-0.04233 0.0212h-0.0635l-0.04233 0.0212h-0.127l-0.04233 0.0212h-0.10583l-0.02117 0.0212"/>
   <path d="m64.807 168.94h0.23283l-0.02117-0.5715h-0.21167"/>
   <path d="m64.426 168.94h0.381v-0.5715h-0.1905l-0.04233-0.0212h-0.10584"/>
   <path d="m63.219 168.75 0.02117 0.0212h0.08467l0.04233 0.0212h0.04233l0.04233 0.0212h0.04233l0.04233 0.0212h0.08467l0.04233 0.0212h0.08467l0.04233 0.0212h0.04233l0.08467-0.5715-0.02117-0.0212h-0.127l-0.04233-0.0212h-0.08467l-0.02117-0.0212h-0.04233l-0.04233-0.0212h-0.08467l-0.04233-0.0212h-0.04233"/>
   <path d="m62.076 168.36 0.04233 0.0212h0.04233l0.02117 0.0212 0.08467 0.0423h0.04233l0.127 0.0635h0.02117l0.08467 0.0423h0.04233l0.04233 0.0212h0.02117l0.1905-0.55034h-0.0635l-0.04233-0.0212-0.02117-0.0212h-0.04233l-0.04233-0.0212-0.02117-0.0212h-0.04233l-0.08467-0.0423h-0.02117l-0.08467-0.0423-0.02117-0.0212h-0.04233"/>
   <path d="m61.018 167.77 0.02117 0.0212 0.04233 0.0212 0.02117 0.0212 0.08467 0.0423 0.02117 0.0212 0.08467 0.0423 0.02117 0.0212 0.127 0.0635 0.02117 0.0212 0.04233 0.0212 0.02117 0.0212 0.29633-0.508-0.04233-0.0212h-0.02117l-0.04233-0.0212-0.02117-0.0212-0.08467-0.0423-0.02117-0.0212-0.04233-0.0212-0.02117-0.0212-0.04233-0.0212-0.02117-0.0212-0.04233-0.0212-0.02117-0.0212-0.04233-0.0212-0.02117-0.0212"/>
   <path d="m60.066 167.01 0.02117 0.0212 0.04233 0.0212 0.02117 0.0212 0.02117 0.0423 0.04233 0.0212 0.02117 0.0212 0.0635 0.0635 0.04233 0.0212 0.02117 0.0423 0.04233 0.0212 0.02117 0.0212 0.04233 0.0423 0.02117 0.0212 0.04233 0.0212 0.35983-0.4445-0.02117-0.0212-0.04233-0.0212-0.02117-0.0423-0.02117-0.0212-0.04233-0.0212-0.02117-0.0212-0.08467-0.0847-0.04233-0.0212-0.02117-0.0212-0.02117-0.0423-0.04233-0.0212-0.04233-0.0423"/>
   <path d="m59.282 166.1 0.02117 0.0423 0.0635 0.0635 0.02117 0.0423 0.02117 0.0212 0.02117 0.0423 0.08467 0.0847 0.02117 0.0423 0.04233 0.0212 0.04233 0.0847 0.02117 0.0212h0.02117l0.42333-0.381-0.02117-0.0212-0.02117-0.0423-0.02117-0.0212-0.08467-0.0847-0.02117-0.0423-0.02117-0.0212-0.02117-0.0423-0.04233-0.0212-0.02117-0.0423-0.02117-0.0212-0.02117-0.0423-0.02117-0.0212v-0.0212"/>
   <path d="m58.647 165.06v0.0212l0.0635 0.127 0.02117 0.0212 0.02117 0.0423 0.04233 0.0847 0.02117 0.0212 0.02117 0.0423 0.04233 0.0847 0.02117 0.0212 0.02117 0.0423 0.02117 0.0212 0.48683-0.3175-0.02117-0.0423-0.02117-0.0212-0.02117-0.0423-0.02117-0.0212-0.04233-0.0847-0.02117-0.0212-0.04233-0.0847v-0.0212l-0.04233-0.0847-0.02117-0.0212-0.02117-0.0423"/>
   <path d="m58.203 163.94v0.0212l0.02117 0.0423v0.0423l0.04233 0.0847v0.0423l0.04234 0.0846v0.0423l0.04233 0.0847v0.0212l0.04234 0.0846v0.0212l0.55033-0.23283h-0.02117v-0.0423l-0.02117-0.0212-0.02117-0.0423v-0.0423l-0.02117-0.0423v-0.0212l-0.04233-0.0847v-0.0423l-0.02117-0.0423-0.02117-0.0212v-0.0423l-0.02117-0.0423v-0.0423"/>
   <path d="m57.949 162.73v0.10583l0.02117 0.0423v0.0847l0.02117 0.0423v0.10583l0.02117 0.0423v0.0847l0.02117 0.0423v0.0635l0.5715-0.127v-0.0635l-0.02117-0.0423v-0.0635l-0.02117-0.0423v-0.0847l-0.02117-0.0423v-0.0847l-0.02117-0.0423v-0.0847"/>
   <path d="m57.885 161.8v0.33867l0.59267-0.0212v-0.0212l-0.02117-0.0423v-0.254"/>
   <path d="m57.885 161.53v0.27517h0.5715v-0.254"/>
   <path d="m58.034 160.32-0.02117 0.0423v0.0847l-0.02117 0.0423v0.0847l-0.02117 0.0635v0.0847l-0.02117 0.0423v0.0847l-0.02117 0.0423v0.0423l0.5715 0.0635 0.02117-0.0423v-0.10583l0.02117-0.0423v-0.0847l0.02117-0.0423v-0.0847l0.02117-0.0423v-0.0847l0.02117-0.0212"/>
   <path d="m58.372 159.16-0.02117 0.0212v0.0423l-0.04233 0.0847v0.0423l-0.04234 0.0846v0.0423l-0.04234 0.0846v0.0423l-0.04233 0.0847v0.0635l0.55033 0.14816 0.02117-0.0423v-0.0423l0.02117-0.0423v-0.0423l0.02117-0.0423 0.02117-0.0212v-0.0423l0.04234-0.0846v-0.0212l0.02117-0.0423v-0.0423l0.02117-0.0423 0.02117-0.0212"/>
   <path d="m58.901 158.08-0.02117 0.0212-0.04234 0.0846-0.02117 0.0212-0.08467 0.16933-0.02117 0.0212-0.06351 0.1269v0.0423l-0.04233 0.0423 0.52917 0.254v-0.0212l0.02117-0.0212 0.04234-0.0846 0.02117-0.0212 0.02117-0.0423v-0.0423l0.02117-0.0212 0.02117-0.0423 0.02117-0.0212 0.04233-0.0847 0.02117-0.0212 0.02117-0.0423 0.02117-0.0212"/>
   <path d="m59.6 157.08v0.0212l-0.08467 0.0847-0.02117 0.0423-0.0635 0.0635-0.02117 0.0423-0.02117 0.0212-0.02117 0.0423-0.04233 0.0212-0.04233 0.0847-0.02117 0.0212-0.02117 0.0423 0.46567 0.33867 0.02117-0.0423 0.04233-0.0423 0.02117-0.0423 0.02117-0.0212 0.02117-0.0423 0.04233-0.0212 0.02117-0.0423 0.02117-0.0212 0.02117-0.0423 0.10583-0.10583v-0.0212"/>
   <path d="m60.468 156.24-0.0635 0.0635-0.04233 0.0212-0.02117 0.0212-0.0635 0.0635-0.04233 0.0212-0.02117 0.0423-0.04233 0.0212-0.02117 0.0423-0.02117 0.0212-0.04233 0.0212-0.02117 0.0423-0.04233 0.0212 0.40217 0.42333 0.16933-0.16933 0.04233-0.0212 0.02117-0.0212 0.02117-0.0423 0.04233-0.0212 0.02117-0.0212 0.04233-0.0212 0.02117-0.0212 0.02117-0.0423h0.02117"/>
   <path d="m61.463 155.54-0.02117 0.0423-0.04233 0.0212h-0.04233l-0.04233 0.0212-0.02117 0.0423-0.08467 0.0423-0.02117 0.0212-0.08467 0.0423-0.02117 0.0212-0.08467 0.0423-0.04233 0.0423 0.33867 0.46566 0.04233-0.0212 0.02117-0.0212 0.04233-0.0212 0.02117-0.0212 0.04233-0.0212 0.02117-0.0212 0.04233-0.0212 0.02117-0.0212 0.04233-0.0212 0.02117-0.0212 0.08467-0.0423 0.02117-0.0212 0.04233-0.0212"/>
   <path d="m62.584 155.05h-0.04233l-0.04233 0.0212h-0.04233l-0.02117 0.0212-0.08467 0.0423h-0.04233l-0.127 0.0635h-0.02117l-0.127 0.0635h-0.02117l0.23283 0.52916h0.02117l0.08467-0.0423h0.02117l0.08467-0.0423h0.02117l0.08467-0.0423h0.04233l0.02117-0.0212 0.04233-0.0212h0.04233l0.02117-0.0212h0.04233"/>
   <path d="m63.749 154.75h-0.08467l-0.04233 0.0212h-0.08467l-0.04233 0.0212h-0.04233l-0.04233 0.0212h-0.08467l-0.04233 0.0212h-0.04233l-0.04233 0.0212h-0.04233l0.14817 0.5715h0.04233l0.04233-0.0212h0.02117l0.04233-0.0212h0.04233l0.04233-0.0212h0.08467l0.02117-0.0212h0.08467l0.04233-0.0212h0.08467"/>
   <path d="m64.807 154.67h-0.4445l0.04233 0.59267h0.08467l0.04233-0.0212h0.27517"/>
  </g>
 </g>
</svg>
