<?xml version="1.0" encoding="UTF-8"?>
<!-- Created with Inkscape (http://www.inkscape.org/) -->
<svg width="89.699mm" height="3.5294mm" version="1.1" viewBox="0 0 89.699 3.5294" xmlns="http://www.w3.org/2000/svg">
 <g transform="translate(-24.077 -123.56)" fill="#1e1917" fill-rule="evenodd" stroke="#1e1917" stroke-linecap="round" stroke-linejoin="round" stroke-miterlimit="10" stroke-width=".078669">
  <path d="m32.964 123.6h0.16933l0.10583 0.0212 0.08467 0.0212h0.0635l0.08467 0.0212 0.08467 0.0423 0.08467 0.0212 0.0635 0.0423 0.08467 0.0212 0.0635 0.0635 0.0635 0.0212 0.0635 0.0635 0.08467 0.0423 0.04233 0.0635 0.0635 0.0423 0.0635 0.0635 0.04233 0.0635 0.0635 0.0635 0.04233 0.0635 0.04233 0.0847 0.08467 0.127 0.04233 0.0847 0.02117 0.0847 0.02117 0.0635 0.02117 0.10584 0.02117 0.0635 0.02117 0.0847v0.0847l0.02117 0.10583v0.16934l-0.02117 0.0847v0.10584l-0.02117 0.0847-0.02117 0.0635-0.06351 0.2541-0.04233 0.0847-0.04233 0.0635-0.04233 0.0847-0.08467 0.127-0.0635 0.0635-0.04233 0.0635-0.16933 0.16933-0.08467 0.0635-0.1905 0.127-0.08467 0.0423-0.0635 0.0423-0.08467 0.0212-0.08467 0.0423-0.08467 0.0212-0.0635 0.0212h-0.08467l-0.10583 0.0212h-0.33867l-0.08467-0.0212h-0.08467l-0.0635-0.0212-0.08467-0.0212-0.08467-0.0423-0.0635-0.0212-0.08467-0.0423-0.0635-0.0423-0.08467-0.0423-0.127-0.0847-0.0635-0.0635-0.0635-0.0423-0.0635-0.0635-0.04233-0.0635-0.0635-0.0635-0.04233-0.0635-0.0635-0.0635-0.02117-0.0635-0.0635-0.0847-0.02117-0.0635-0.04233-0.0847-0.02117-0.0847-0.04233-0.0847-0.02117-0.0847v-0.0635l-0.02117-0.0847-0.02117-0.10584v-0.35983l0.04233-0.16933v-0.0635l0.02117-0.10584 0.04233-0.0635 0.02117-0.0847 0.04233-0.0847 0.02117-0.0635 0.0635-0.0635 0.02117-0.0847 0.0635-0.0635 0.04233-0.0635 0.0635-0.0635 0.04233-0.0635 0.0635-0.0423 0.0635-0.0635 0.0635-0.0423 0.0635-0.0635 0.0635-0.0212 0.08467-0.0635 0.0635-0.0212 0.08467-0.0423 0.0635-0.0212 0.08467-0.0423 0.08467-0.0212h0.0635l0.16933-0.0423h0.16933"/>
  <path d="m25.789 123.6h0.16933l0.10583 0.0212 0.08467 0.0212h0.0635l0.08467 0.0212 0.08467 0.0423 0.08467 0.0212 0.0635 0.0423 0.0635 0.0212 0.08467 0.0635 0.0635 0.0212 0.0635 0.0635 0.0635 0.0423 0.0635 0.0635 0.0635 0.0423 0.0635 0.0635 0.04233 0.0635 0.0635 0.0635 0.04233 0.0635 0.04233 0.0847 0.08467 0.127 0.04233 0.0847 0.02117 0.0847 0.02117 0.0635 0.02117 0.10584 0.02117 0.0635 0.02117 0.0847v0.0847l0.02117 0.10583v0.16934l-0.02117 0.0847v0.10584l-0.02117 0.0847-0.02117 0.0635-0.0635 0.254-0.04233 0.0847-0.04233 0.0635-0.04233 0.0847-0.08467 0.127-0.0635 0.0635-0.04233 0.0635-0.127 0.127-0.0635 0.0423-0.0635 0.0635-0.127 0.0847-0.08467 0.0423-0.127 0.0847-0.08467 0.0212-0.08467 0.0423-0.08467 0.0212-0.0635 0.0212h-0.08467l-0.10583 0.0212h-0.33867l-0.08467-0.0212h-0.08467l-0.08467-0.0212-0.0635-0.0212-0.08467-0.0423-0.0635-0.0212-0.16933-0.0847-0.1905-0.127-0.0635-0.0635-0.0635-0.0423-0.0635-0.0635-0.04233-0.0635-0.0635-0.0635-0.04233-0.0635-0.0635-0.0635-0.02117-0.0635-0.0635-0.0847-0.02117-0.0635-0.04233-0.0847-0.02117-0.0847-0.04233-0.0847-0.02117-0.0847-0.02117-0.0635v-0.0847l-0.02117-0.10584v-0.35983l0.02117-0.0847v-0.0847l0.02117-0.0635 0.02117-0.10584 0.04233-0.0635 0.02117-0.0847 0.04233-0.0847 0.02117-0.0635 0.0635-0.0635 0.02117-0.0847 0.0635-0.0635 0.04233-0.0635 0.0635-0.0635 0.04233-0.0635 0.0635-0.0423 0.0635-0.0635 0.0635-0.0423 0.0635-0.0635 0.0635-0.0212 0.0635-0.0635 0.08467-0.0212 0.08467-0.0423 0.0635-0.0212 0.08467-0.0423 0.0635-0.0212h0.08467l0.16933-0.0423h0.16933"/>
  <path d="m40.14 123.6h0.16933l0.16933 0.0423h0.08467l0.08467 0.0212 0.0635 0.0423 0.08467 0.0212 0.0635 0.0423 0.08467 0.0212 0.0635 0.0635 0.0635 0.0212 0.16933 0.16933 0.0635 0.0423 0.08467 0.127 0.0635 0.0635 0.02117 0.0635 0.04233 0.0847 0.08467 0.127 0.04234 0.1694 0.02117 0.0635 0.04233 0.10584v0.0635l0.02117 0.0847v0.0847l0.02117 0.10583v0.16934l-0.02117 0.0847v0.10584l-0.02117 0.0847v0.0635l-0.04233 0.0847-0.04233 0.16933-0.02117 0.0847-0.04233 0.0635-0.04233 0.0847-0.04233 0.0635-0.02117 0.0635-0.0635 0.0635-0.08467 0.127-0.0635 0.0635-0.0635 0.0423-0.04233 0.0635-0.1905 0.127-0.08467 0.0423-0.0635 0.0423-0.08467 0.0212-0.0635 0.0423-0.16933 0.0423h-0.08467l-0.08467 0.0212h-0.33867l-0.08467-0.0212h-0.0635l-0.16933-0.0423-0.08467-0.0423-0.0635-0.0212-0.08467-0.0423-0.0635-0.0423-0.08467-0.0423-0.127-0.0847-0.0635-0.0635-0.0635-0.0423-0.0635-0.0635-0.04233-0.0635-0.0635-0.0635-0.04233-0.0635-0.0635-0.0635-0.02117-0.0635-0.04233-0.0847-0.04233-0.0635-0.04233-0.0847-0.02117-0.0847-0.04233-0.0847-0.02117-0.0847v-0.0635l-0.02117-0.0847-0.02117-0.10584v-0.35983l0.04233-0.16933v-0.0635l0.02117-0.10584 0.04233-0.0635 0.02117-0.0847 0.04233-0.0847 0.08467-0.127 0.02117-0.0847 0.0635-0.0635 0.04233-0.0635 0.0635-0.0635 0.04233-0.0635 0.0635-0.0423 0.0635-0.0635 0.0635-0.0423 0.0635-0.0635 0.0635-0.0212 0.08467-0.0635 0.0635-0.0212 0.08467-0.0423 0.0635-0.0212 0.08467-0.0423 0.08467-0.0212h0.08467l0.0635-0.0212 0.08467-0.0212h0.16933"/>
  <path d="m69.117 123.6h0.1905l0.0635 0.0212 0.08467 0.0212h0.08467l0.08467 0.0212 0.08467 0.0423 0.08467 0.0212 0.0635 0.0423 0.08467 0.0212 0.0635 0.0635 0.0635 0.0212 0.08467 0.0635 0.0635 0.0423 0.23283 0.23283 0.08467 0.127 0.04233 0.0847 0.08467 0.127 0.02117 0.0847 0.04233 0.0847 0.02117 0.0635 0.02117 0.10584 0.02117 0.0635 0.04233 0.16933v0.35983l-0.02117 0.10584-0.02117 0.0847-0.02117 0.0635-0.04233 0.16934-0.04233 0.0847-0.02117 0.0847-0.04233 0.0635-0.04233 0.0847-0.127 0.1905-0.127 0.127-0.04233 0.0635-0.0635 0.0423-0.0635 0.0635-0.08467 0.0423-0.127 0.0847-0.08467 0.0423-0.0635 0.0423-0.08467 0.0212-0.08467 0.0423-0.16933 0.0423h-0.08467l-0.0635 0.0212h-0.35983l-0.08467-0.0212h-0.08467l-0.0635-0.0212-0.08467-0.0212-0.08467-0.0423-0.0635-0.0212-0.08467-0.0423-0.127-0.0847-0.08467-0.0423-0.0635-0.0423-0.0635-0.0635-0.0635-0.0423-0.0635-0.0635-0.04233-0.0635-0.0635-0.0635-0.08467-0.127-0.0635-0.0635-0.02117-0.0847-0.04233-0.0635-0.04233-0.0847-0.04234-0.1694-0.04233-0.0847v-0.0635l-0.02117-0.0847-0.02117-0.10584v-0.35983l0.04233-0.16933v-0.0635l0.04233-0.10584 0.02117-0.0635 0.02117-0.0847 0.04233-0.0847 0.04233-0.0635 0.02117-0.0635 0.0635-0.0847 0.08467-0.127 0.0635-0.0635 0.04233-0.0635 0.0635-0.0423 0.0635-0.0635 0.0635-0.0423 0.0635-0.0635 0.08467-0.0212 0.0635-0.0635 0.0635-0.0212 0.08467-0.0423 0.0635-0.0212 0.08467-0.0423 0.08467-0.0212h0.0635l0.16933-0.0423h0.16933"/>
  <path d="m61.941 123.6h0.16933l0.16933 0.0423h0.08467l0.08467 0.0212 0.08467 0.0423 0.08467 0.0212 0.0635 0.0423 0.08467 0.0212 0.0635 0.0635 0.0635 0.0212 0.0635 0.0635 0.08467 0.0423 0.23283 0.23283 0.08467 0.127 0.04233 0.0847 0.08467 0.127 0.02117 0.0847 0.04233 0.0847 0.02117 0.0635 0.02117 0.10584 0.02117 0.0635 0.04234 0.1694v0.35983l-0.02117 0.10584-0.02117 0.0847-0.02117 0.0635-0.04233 0.16934-0.04233 0.0847-0.02117 0.0847-0.04233 0.0635-0.04233 0.0847-0.127 0.1905-0.127 0.127-0.04233 0.0635-0.0635 0.0423-0.08467 0.0635-0.1905 0.127-0.08467 0.0423-0.0635 0.0423-0.08467 0.0212-0.08467 0.0423-0.16933 0.0423h-0.08467l-0.08467 0.0212h-0.33867l-0.08467-0.0212h-0.08467l-0.0635-0.0212-0.08467-0.0212-0.08467-0.0423-0.0635-0.0212-0.08467-0.0423-0.0635-0.0423-0.08467-0.0423-0.127-0.0847-0.0635-0.0635-0.0635-0.0423-0.0635-0.0635-0.04233-0.0635-0.0635-0.0635-0.08467-0.127-0.0635-0.0635-0.02117-0.0847-0.04233-0.0635-0.04233-0.0847-0.04233-0.16933-0.04233-0.0847v-0.0635l-0.02117-0.0847-0.02117-0.10584v-0.35983l0.04233-0.16933v-0.0635l0.04233-0.10584 0.02117-0.0635 0.02117-0.0847 0.04233-0.0847 0.04233-0.0635 0.02117-0.0635 0.0635-0.0847 0.08467-0.127 0.0635-0.0635 0.04233-0.0635 0.0635-0.0423 0.0635-0.0635 0.0635-0.0423 0.0635-0.0635 0.0635-0.0212 0.08467-0.0635 0.0635-0.0212 0.08467-0.0423 0.0635-0.0212 0.08467-0.0423 0.08467-0.0212h0.0635l0.16933-0.0423h0.16933"/>
  <path d="m76.292 123.6h0.1905l0.08467 0.0212 0.0635 0.0212h0.08467l0.08467 0.0212 0.0635 0.0423 0.08467 0.0212 0.0635 0.0423 0.08467 0.0212 0.0635 0.0635 0.0635 0.0212 0.0635 0.0635 0.0635 0.0423 0.04233 0.0635 0.0635 0.0423 0.08467 0.127 0.0635 0.0635 0.04233 0.0635 0.04233 0.0847 0.02117 0.0635 0.04233 0.0635 0.02117 0.0847 0.04233 0.0847 0.02117 0.0635 0.02117 0.10584 0.02117 0.0635v0.0847l0.02117 0.0847v0.35983l-0.02117 0.10584v0.0847l-0.02117 0.0635-0.04233 0.16934-0.04233 0.0847-0.02117 0.0847-0.04233 0.0635-0.02117 0.0847-0.08467 0.127-0.0635 0.0635-0.08467 0.127-0.16933 0.16933-0.1905 0.127-0.08467 0.0423-0.0635 0.0423-0.08467 0.0212-0.0635 0.0423-0.16933 0.0423h-0.0635l-0.08467 0.0212h-0.35983l-0.08467-0.0212h-0.08467l-0.0635-0.0212-0.08467-0.0212-0.08467-0.0423-0.0635-0.0212-0.08467-0.0423-0.127-0.0847-0.08467-0.0423-0.0635-0.0423-0.0635-0.0635-0.0635-0.0423-0.0635-0.0635-0.04233-0.0635-0.0635-0.0635-0.127-0.1905-0.04233-0.0847-0.04233-0.0635-0.04233-0.0847-0.04233-0.16933-0.02117-0.0847-0.02117-0.0635-0.02117-0.0847-0.02117-0.10584v-0.35983l0.04233-0.16933 0.02117-0.0635 0.02117-0.10584 0.02117-0.0635 0.02117-0.0847 0.04233-0.0847 0.08467-0.127 0.04233-0.0847 0.08467-0.127 0.0635-0.0635 0.04233-0.0635 0.0635-0.0423 0.0635-0.0635 0.0635-0.0423 0.0635-0.0635 0.08467-0.0212 0.0635-0.0635 0.0635-0.0212 0.08467-0.0423 0.0635-0.0212 0.08467-0.0423 0.08467-0.0212h0.0635l0.16933-0.0423h0.16933"/>
  <path d="m104.97 123.6h0.16933l0.16934 0.0423h0.0847l0.0847 0.0212 0.0635 0.0423 0.0847 0.0212 0.0847 0.0423 0.0635 0.0212 0.0635 0.0635 0.0847 0.0212 0.0635 0.0635 0.0635 0.0423 0.0635 0.0635 0.0635 0.0423 0.0423 0.0635 0.0635 0.0635 0.0847 0.127 0.0635 0.0847 0.0423 0.0635 0.0212 0.0635 0.0423 0.0847 0.0212 0.0847 0.0423 0.0635 0.0212 0.10584 0.0212 0.0635v0.0847l0.0212 0.0847v0.35983l-0.0212 0.10584v0.0847l-0.0212 0.0635-0.0212 0.0847-0.0423 0.0847-0.0212 0.0847-0.0423 0.0847-0.0212 0.0635-0.0423 0.0847-0.0635 0.0635-0.0847 0.127-0.0635 0.0635-0.0423 0.0635-0.0635 0.0635-0.0635 0.0423-0.0635 0.0635-0.0635 0.0423-0.0847 0.0423-0.127 0.0847-0.0847 0.0423-0.0847 0.0212-0.0635 0.0423-0.16933 0.0423h-0.0847l-0.0847 0.0212h-0.33866l-0.0847-0.0212h-0.0847l-0.16933-0.0423-0.0635-0.0423-0.0847-0.0212-0.0847-0.0423-0.254-0.16933-0.0635-0.0635-0.0635-0.0423-0.127-0.127-0.0423-0.0635-0.0635-0.0635-0.0847-0.127-0.0423-0.0847-0.0423-0.0635-0.0212-0.0847-0.0423-0.0847-0.0423-0.16934-0.0212-0.0635-0.0212-0.0847v-0.10584l-0.0212-0.0847v-0.16934l0.0212-0.10583v-0.0847l0.0212-0.0847 0.0212-0.0635 0.0212-0.10584 0.0212-0.0635 0.0423-0.0847 0.0212-0.0847 0.0847-0.127 0.0423-0.0847 0.0423-0.0635 0.0635-0.0635 0.0423-0.0635 0.0635-0.0635 0.0635-0.0423 0.0635-0.0635 0.0635-0.0423 0.0635-0.0635 0.0635-0.0212 0.0635-0.0635 0.0635-0.0212 0.0847-0.0423 0.0847-0.0212 0.0635-0.0423 0.0847-0.0212h0.0847l0.16934-0.0423h0.16933"/>
  <path d="m97.798 123.6h0.16933l0.16933 0.0423h0.08467l0.08467 0.0212 0.0635 0.0423 0.08467 0.0212 0.08467 0.0423 0.0635 0.0212 0.0635 0.0635 0.08467 0.0212 0.0635 0.0635 0.0635 0.0423 0.0635 0.0635 0.0635 0.0423 0.04233 0.0635 0.0635 0.0635 0.08467 0.127 0.04233 0.0847 0.0635 0.0635 0.02117 0.0635 0.04233 0.0847 0.02117 0.0847 0.04233 0.0635 0.02117 0.10584 0.02117 0.0635v0.0847l0.02117 0.0847v0.35983l-0.02117 0.10584v0.0847l-0.02117 0.0635-0.02117 0.0847-0.04233 0.0847-0.02117 0.0847-0.04233 0.0847-0.02117 0.0635-0.0635 0.0847-0.127 0.1905-0.0635 0.0635-0.04233 0.0635-0.0635 0.0635-0.0635 0.0423-0.0635 0.0635-0.0635 0.0423-0.08467 0.0423-0.127 0.0847-0.08467 0.0423-0.08467 0.0212-0.0635 0.0423-0.16933 0.0423h-0.08467l-0.08467 0.0212h-0.33867l-0.08467-0.0212h-0.08467l-0.16933-0.0423-0.0635-0.0423-0.08467-0.0212-0.08467-0.0423-0.1905-0.127-0.08467-0.0423-0.04233-0.0635-0.0635-0.0423-0.127-0.127-0.04233-0.0635-0.0635-0.0635-0.08467-0.127-0.04233-0.0847-0.04233-0.0635-0.02117-0.0847-0.04233-0.0847-0.04233-0.16934-0.02117-0.0635-0.02117-0.0847v-0.10584l-0.02117-0.0847v-0.16934l0.02117-0.10583v-0.0847l0.02117-0.0847 0.02117-0.0635 0.02117-0.10584 0.02117-0.0635 0.04233-0.0847 0.02117-0.0847 0.08467-0.127 0.04233-0.0847 0.04233-0.0635 0.0635-0.0635 0.04233-0.0635 0.0635-0.0635 0.0635-0.0423 0.10583-0.10583 0.08467-0.0635 0.0635-0.0212 0.0635-0.0635 0.0635-0.0212 0.08467-0.0423 0.08467-0.0212 0.0635-0.0423 0.08467-0.0212h0.08467l0.16933-0.0423h0.16933"/>
  <path d="m112.15 123.6h0.16933l0.16934 0.0423h0.0847l0.0635 0.0212 0.0847 0.0423 0.0635 0.0212 0.0847 0.0423 0.0635 0.0212 0.0635 0.0635 0.0635 0.0212 0.0635 0.0635 0.0635 0.0423 0.16933 0.16933 0.127 0.1905 0.0423 0.0847 0.0423 0.0635 0.0212 0.0635 0.0423 0.0847 0.0212 0.0847 0.0212 0.0635 0.0212 0.10584 0.0212 0.0635v0.0847l0.0212 0.0847v0.35983l-0.0212 0.10584v0.0847l-0.0212 0.0635-0.0635 0.254-0.0423 0.0847-0.0212 0.0635-0.0423 0.0847-0.16933 0.254-0.0635 0.0635-0.0423 0.0635-0.0635 0.0423-0.0635 0.0635-0.254 0.16933-0.0847 0.0423-0.0635 0.0212-0.0847 0.0423-0.0635 0.0212-0.0847 0.0212h-0.0847l-0.0847 0.0212h-0.33866l-0.0847-0.0212h-0.0847l-0.16933-0.0423-0.0635-0.0423-0.0847-0.0212-0.0635-0.0423-0.0847-0.0423-0.1905-0.127-0.0635-0.0635-0.0635-0.0423-0.127-0.127-0.0423-0.0635-0.0635-0.0635-0.0847-0.127-0.0423-0.0847-0.0423-0.0635-0.0212-0.0847-0.0423-0.0847-0.0423-0.16934-0.0212-0.0635-0.0212-0.0847v-0.10584l-0.0212-0.0847v-0.16934l0.0212-0.10583v-0.0847l0.0212-0.0847 0.0212-0.0635 0.0212-0.10584 0.0212-0.0635 0.0423-0.0847 0.0212-0.0847 0.0847-0.127 0.0423-0.0847 0.0423-0.0635 0.0635-0.0635 0.0423-0.0635 0.0635-0.0635 0.0635-0.0423 0.0635-0.0635 0.0635-0.0423 0.0635-0.0635 0.0635-0.0212 0.0635-0.0635 0.0847-0.0212 0.0635-0.0423 0.0847-0.0212 0.0635-0.0423 0.0847-0.0212h0.0847l0.16934-0.0423h0.16933"/>
 </g>
</svg>
