<?xml version="1.0" encoding="UTF-8"?>
<!-- Created with Inkscape (http://www.inkscape.org/) -->
<svg width="23.555mm" height="39.874mm" version="1.1" viewBox="0 0 23.555 39.874" xmlns="http://www.w3.org/2000/svg">
 <defs>
  <clipPath id="clipPath177">
   <path transform="translate(2.5e-5 2.5e-5)" d="m259.26 386.72h15.12v19.62h-15.12z"/>
  </clipPath>
 </defs>
 <g transform="translate(-65.881 -127)">
  <path d="m84.169 133.83h5.2282v-6.7945h-5.2282z" fill="#848382"/>
  <path transform="matrix(.35278 0 0 -.35278 -7.3555 270.34)" d="m259.44 406.22h14.82v-19.26h-14.82z" clip-path="url(#clipPath177)" fill="none" stroke="#1f1a17" stroke-linecap="round" stroke-linejoin="round" stroke-miterlimit="10" stroke-width=".218"/>
  <path d="m86.773 128.1h0.14817c1.8352 0.29245 1.7632 2.8307-0.08467 3.0057h-0.14817l-0.0635-0.0212c-0.69568-0.0183-1.2855-0.6537-1.3547-1.3335v-0.14817c-0.02822-0.70414 0.57468-1.4058 1.27-1.4817l0.08467-0.0212h0.14817" fill="#fff" fill-rule="evenodd" stroke="#1f1a17" stroke-linecap="round" stroke-linejoin="round" stroke-miterlimit="10" stroke-width=".076906"/>
  <g fill="#1f1a17">
   <path d="m84.423 145.11-0.0635 0.127c-0.53587 1.3116-1.0894 2.6395-1.651 3.937l-0.04233 0.127-0.0635-0.127c-0.66322-1.2996-1.2838-2.6282-1.9473-3.9158l-0.0635-0.127h0.127c1.1949 0.0155 2.3837-0.0247 3.5772-0.0212h0.127" fill-rule="evenodd"/>
   <path d="m65.881 149.2 1.7568-4.191 2.0743 4.1698-3.8312 0.0212" fill-rule="evenodd"/>
   <path d="m83.026 166.87-0.40217-0.0212c-4.0919-0.0963-7.8733-2.2204-10.477-5.3128l-0.27517-0.3175 0.55033-0.4445 0.254 0.29633c2.4881 2.9429 6.0445 4.9685 9.9483 5.08h0.40217zm-11.155-5.6515-0.254-0.33867c-2.7958-3.537-4.2549-8.2434-4.318-12.721v-0.48684h0.6985v0.46567c0.07232 4.3663 1.4668 8.8593 4.1698 12.319l0.254 0.3175zm-4.572-13.547v-0.99483c0.30868-8.4822 5.7954-17.507 14.922-18.182l0.80433-0.0212v0.6985l-0.78317 0.0212c-8.7037 0.65969-14.007 9.4534-14.224 17.526l-0.02117 0.9525zm15.727-19.198h0.04233v0.6985h-0.04233z"/>
   <path d="m83.09 129.05v6.6463c-0.02399 10.317 0.0381 20.673-0.127 30.988v0.0635l-0.65617-0.254v-0.0635c0.10407-10.249 0.05009-20.505 0.08467-30.755v-6.6252h0.6985"/>
  </g>
 </g>
</svg>
