<?xml version="1.0" encoding="UTF-8"?>
<!-- Created with Inkscape (http://www.inkscape.org/) -->
<svg width="15.082mm" height="19.04mm" version="1.1" viewBox="0 0 15.082 19.04" xmlns="http://www.w3.org/2000/svg">
 <defs>
  <clipPath id="clipPath375">
   <path transform="translate(-2.5e-5 2.5e-5)" d="m219.6 194.6h42.78v54h-42.78z"/>
  </clipPath>
 </defs>
 <g transform="translate(-39.158 -135.2)">
  <path d="m39.195 154.2h15.007v-18.965h-15.007z" fill="#7e7e7e"/>
  <path transform="matrix(.35278 0 0 -.35278 -38.317 222.9)" d="m219.72 248.48h42.54v-53.76h-42.54z" clip-path="url(#clipPath375)" fill="none" stroke="#1e1917" stroke-linecap="round" stroke-linejoin="round" stroke-miterlimit="10" stroke-width=".211"/>
  <g fill="#7e7e7e" fill-rule="evenodd" stroke="#1e1917" stroke-linecap="round" stroke-linejoin="round" stroke-miterlimit="10" stroke-width=".074436">
   <path d="m42.053 136.83h0.14817l0.04233 0.0212h0.0635l0.127 0.0635h0.04233l0.04233 0.0212 0.04233 0.0423 0.08467 0.0423 0.10583 0.10583 0.04233 0.0212 0.04233 0.0847 0.04233 0.0423 0.04234 0.0846 0.08467 0.16933v0.0423l0.02117 0.0635v0.0847l0.02117 0.0635v0.10583l-0.02117 0.0423v0.10583l-0.02117 0.0423v0.0423l-0.02117 0.0635-0.10583 0.21166-0.04233 0.0423-0.02117 0.0423-0.0635 0.0635-0.04233 0.0212-0.02117 0.0423-0.04233 0.0212-0.04233 0.0423-0.254 0.127h-0.04233l-0.0635 0.0212h-0.04233l-0.04233 0.0212h-0.21167l-0.04233-0.0212h-0.04233l-0.0635-0.0212h-0.04233l-0.254-0.127-0.04233-0.0423-0.04233-0.0212-0.02117-0.0423-0.04233-0.0212-0.0635-0.0635-0.02117-0.0423-0.04233-0.0423-0.10583-0.21166-0.02117-0.0635v-0.0423l-0.02117-0.0423v-0.10583l-0.02117-0.0423v-0.10583l0.02117-0.0635v-0.0847l0.02117-0.0635v-0.0423l0.127-0.254 0.04233-0.0423 0.04233-0.0847 0.04233-0.0212 0.10583-0.10583 0.08467-0.0423 0.04233-0.0423 0.04233-0.0212h0.04233l0.127-0.0635h0.0635l0.04233-0.0212h0.14817"/>
   <path d="m42.053 139.11h0.04233l0.0635 0.0212h0.08467l0.0635 0.0212 0.04233 0.0212h0.04233l0.21167 0.10583 0.04233 0.0423 0.04233 0.0212 0.02117 0.0423 0.04233 0.0212 0.04233 0.0423 0.02117 0.0423 0.0635 0.0635 0.04234 0.0846 0.04233 0.0847 0.02117 0.0635 0.02117 0.0423v0.0423l0.02117 0.0423v0.10584l0.02117 0.0423v0.10583l-0.02117 0.0635v0.0847l-0.02117 0.0635v0.0423l-0.0635 0.127-0.02117 0.0635-0.02117 0.0423-0.0635 0.0635-0.04233 0.0847-0.04233 0.0212-0.04233 0.0423-0.02117 0.0423-0.08467 0.0423-0.04233 0.0423-0.16933 0.0847h-0.04233l-0.04233 0.0212h-0.0635l-0.04233 0.0212h-0.29634l-0.04233-0.0212h-0.0635l-0.04233-0.0212h-0.04233l-0.16933-0.0847-0.04233-0.0423-0.08467-0.0423-0.02117-0.0423-0.04233-0.0423-0.04233-0.0212-0.04233-0.0847-0.0635-0.0635-0.02117-0.0423-0.02117-0.0635-0.0635-0.127v-0.0423l-0.02117-0.0635v-0.0847l-0.02117-0.0635v-0.10583l0.02117-0.0423v-0.10584l0.02117-0.0423v-0.0423l0.02117-0.0423 0.02117-0.0635 0.08467-0.16933 0.0635-0.0635 0.02117-0.0423 0.04233-0.0423 0.04233-0.0212 0.02117-0.0423 0.04233-0.0212 0.04233-0.0423 0.21167-0.10583h0.04233l0.04233-0.0212 0.0635-0.0212h0.08467l0.0635-0.0212h0.04233"/>
   <path d="m42.053 141.42h0.14817l0.04233 0.0212h0.0635l0.33867 0.16933 0.16933 0.16933 0.02117 0.0423 0.04233 0.0423 0.04234 0.0846 0.08467 0.16933v0.0635l0.02117 0.0423v0.10584l0.02117 0.0423v0.10583l-0.02117 0.0423v0.10583l-0.02117 0.0423v0.0635l-0.08467 0.16934-0.04234 0.0846-0.04233 0.0423-0.02117 0.0423-0.16933 0.16933-0.33867 0.16934h-0.10583l-0.04233 0.0212h-0.21167l-0.04233-0.0212h-0.10583l-0.33867-0.16934-0.16933-0.16933-0.02117-0.0423-0.04233-0.0423-0.127-0.254v-0.0635l-0.02117-0.0423v-0.10583l-0.02117-0.0423v-0.10583l0.02117-0.0423v-0.10584l0.02117-0.0423v-0.0635l0.127-0.254 0.04233-0.0423 0.02117-0.0423 0.16933-0.16933 0.33867-0.16933h0.0635l0.04233-0.0212h0.14817"/>
   <path d="m42.053 143.71 0.04233 0.0212h0.10583l0.04233 0.0212h0.0635l0.04233 0.0212h0.04233l0.16933 0.0847 0.04233 0.0423 0.08467 0.0423 0.02117 0.0423 0.04233 0.0212 0.04233 0.0423 0.04233 0.0847 0.04233 0.0212 0.06351 0.1269 0.02117 0.0635 0.04233 0.0847v0.0423l0.02117 0.0423v0.10584l0.02117 0.0635v0.10583l-0.02117 0.0423v0.10584l-0.02117 0.0423v0.0423l-0.02117 0.0423-0.02117 0.0635-0.04233 0.0847-0.04234 0.0846-0.04233 0.0212-0.04233 0.0847-0.04233 0.0423-0.04233 0.0212-0.02117 0.0423-0.04233 0.0212-0.04233 0.0423-0.21167 0.10583h-0.04233l-0.04233 0.0212-0.0635 0.0212h-0.08467l-0.0635 0.0212h-0.08467l-0.0635-0.0212h-0.08467l-0.0635-0.0212-0.04233-0.0212h-0.04233l-0.21167-0.10583-0.04233-0.0423-0.04233-0.0212-0.02117-0.0423-0.04233-0.0212-0.04233-0.0423-0.04233-0.0847-0.04233-0.0212-0.08467-0.16933-0.02117-0.0635-0.02117-0.0423v-0.0423l-0.02117-0.0423v-0.10584l-0.02117-0.0423v-0.10583l0.02117-0.0635v-0.10584l0.02117-0.0423v-0.0423l0.04233-0.0847 0.02117-0.0635 0.0635-0.127 0.04233-0.0212 0.04233-0.0847 0.04233-0.0423 0.04233-0.0212 0.02117-0.0423 0.08467-0.0423 0.04233-0.0423 0.16933-0.0847h0.04233l0.04233-0.0212h0.0635l0.04233-0.0212h0.10583l0.04233-0.0212"/>
   <path d="m42.053 146.01h0.10583l0.04233 0.0212h0.04233l0.0635 0.0212h0.04233l0.254 0.127 0.04233 0.0423 0.04233 0.0212 0.127 0.127 0.02117 0.0423 0.04233 0.0423 0.10583 0.21167 0.02117 0.0635v0.0423l0.02117 0.0423v0.10584l0.02117 0.0423v0.10583l-0.02117 0.0635v0.0847l-0.02117 0.0635v0.0423l-0.08467 0.16934-0.04234 0.0846-0.04233 0.0423-0.04233 0.0847-0.04233 0.0212-0.10583 0.10583-0.127 0.0635-0.04233 0.0423h-0.04233l-0.127 0.0635h-0.0635l-0.04233 0.0212h-0.29633l-0.04233-0.0212h-0.0635l-0.127-0.0635h-0.04233l-0.04233-0.0423-0.127-0.0635-0.10583-0.10583-0.04233-0.0212-0.04233-0.0847-0.04233-0.0423-0.127-0.254v-0.0423l-0.02117-0.0635v-0.0847l-0.02117-0.0635v-0.10583l0.02117-0.0423v-0.10584l0.02117-0.0423v-0.0423l0.02117-0.0635 0.10583-0.21167 0.04233-0.0423 0.02117-0.0423 0.127-0.127 0.04233-0.0212 0.04233-0.0423 0.254-0.127h0.04233l0.0635-0.0212h0.04233l0.04233-0.0212h0.10583"/>
   <path d="m42.053 148.32h0.14817l0.04233 0.0212h0.0635l0.08467 0.0423h0.04233l0.08467 0.0423 0.04233 0.0423 0.08467 0.0423 0.10583 0.10583 0.04233 0.0212 0.04233 0.0847 0.04233 0.0423 0.04234 0.0846 0.08467 0.16933v0.0423l0.02117 0.0635v0.0847l0.02117 0.0635v0.10583l-0.02117 0.0423v0.10583l-0.02117 0.0423v0.0423l-0.02117 0.0635-0.10583 0.21166-0.0635 0.0635-0.02117 0.0423-0.04233 0.0423-0.04233 0.0212-0.02117 0.0423-0.04233 0.0212-0.04233 0.0423-0.254 0.127h-0.04233l-0.0635 0.0212h-0.04233l-0.04233 0.0212h-0.21167l-0.04233-0.0212h-0.04233l-0.0635-0.0212h-0.04233l-0.254-0.127-0.04233-0.0423-0.04233-0.0212-0.02117-0.0423-0.04233-0.0212-0.04233-0.0423-0.02117-0.0423-0.0635-0.0635-0.10583-0.21166-0.02117-0.0635v-0.0423l-0.02117-0.0423v-0.10583l-0.02117-0.0423v-0.10583l0.02117-0.0635v-0.0847l0.02117-0.0635v-0.0423l0.127-0.254 0.04233-0.0423 0.04233-0.0847 0.04233-0.0212 0.10583-0.10583 0.08467-0.0423 0.04233-0.0423 0.08467-0.0423h0.04233l0.08467-0.0423h0.0635l0.04233-0.0212h0.14817"/>
   <path d="m42.053 150.61h0.04233l0.0635 0.0212h0.08467l0.0635 0.0212h0.04233l0.254 0.127 0.04233 0.0423 0.04233 0.0212 0.02117 0.0423 0.04233 0.0212 0.04233 0.0423 0.02117 0.0423 0.0635 0.0635 0.04234 0.0846 0.0635 0.127 0.02117 0.0635v0.0423l0.02117 0.0423v0.10584l0.02117 0.0423v0.10583l-0.02117 0.0635v0.0847l-0.02117 0.0635v0.0423l-0.08467 0.16934-0.04234 0.0846-0.04233 0.0423-0.04233 0.0847-0.04233 0.0212-0.04233 0.0423-0.02117 0.0423-0.127 0.0635-0.04233 0.0423-0.08467 0.0423h-0.04233l-0.08467 0.0423h-0.0635l-0.04233 0.0212h-0.29634l-0.04233-0.0212h-0.0635l-0.08467-0.0423h-0.04233l-0.08467-0.0423-0.04233-0.0423-0.127-0.0635-0.02117-0.0423-0.04233-0.0423-0.04233-0.0212-0.04233-0.0847-0.04233-0.0423-0.127-0.254v-0.0423l-0.02117-0.0635v-0.0847l-0.02117-0.0635v-0.10583l0.02117-0.0423v-0.10584l0.02117-0.0423v-0.0423l0.02117-0.0635 0.10583-0.21167 0.0635-0.0635 0.02117-0.0423 0.04233-0.0423 0.04233-0.0212 0.02117-0.0423 0.04233-0.0212 0.04233-0.0423 0.254-0.127h0.04233l0.0635-0.0212h0.08467l0.0635-0.0212h0.04233"/>
   <path d="m44.381 136.83h0.14817l0.04233 0.0212h0.04233l0.04233 0.0212 0.0635 0.0212 0.04233 0.0212h0.04233l0.04233 0.0212 0.04233 0.0423 0.04233 0.0212 0.0635 0.0635 0.04233 0.0212 0.10583 0.10583 0.04233 0.0847 0.02117 0.0423 0.04233 0.0423 0.04233 0.0847v0.0423l0.04234 0.0846v0.0635l0.02117 0.0423v0.3175l-0.02117 0.0423v0.0423l-0.02117 0.0423-0.02117 0.0635v0.0423l-0.04233 0.0847-0.04233 0.0423-0.02117 0.0423-0.04233 0.0847-0.04233 0.0212-0.02117 0.0423-0.04233 0.0212-0.04233 0.0423-0.04233 0.0212-0.02117 0.0423-0.21167 0.10583-0.0635 0.0212h-0.04233l-0.04233 0.0212h-0.04233l-0.0635 0.0212h-0.1905l-0.0635-0.0212h-0.04233l-0.04233-0.0212h-0.04233l-0.0635-0.0212-0.21167-0.10583-0.02117-0.0423-0.04233-0.0212-0.16933-0.16933-0.127-0.254-0.02117-0.0635-0.02117-0.0423v-0.0423l-0.02117-0.0423v-0.3175l0.02117-0.0423v-0.0635l0.04234-0.0846 0.127-0.254 0.04233-0.0423 0.02117-0.0423 0.04233-0.0212 0.02117-0.0423 0.04233-0.0212 0.0635-0.0635 0.04233-0.0212 0.04233-0.0423 0.04233-0.0212h0.04233l0.04233-0.0212 0.0635-0.0212 0.04233-0.0212h0.04233l0.04233-0.0212h0.16933"/>
   <path d="m44.381 139.11h0.04233l0.04233 0.0212h0.10583l0.08467 0.0423h0.0635l0.21167 0.10583 0.02117 0.0423 0.04233 0.0212 0.04233 0.0423 0.04233 0.0212 0.02117 0.0423 0.0635 0.0635 0.04234 0.0846 0.04233 0.0423 0.04233 0.0847v0.0635l0.04234 0.0846v0.0423l0.02117 0.0635v0.29634l-0.02117 0.0423v0.0635l-0.04233 0.0847v0.0423l-0.02117 0.0423-0.02117 0.0635-0.0635 0.0635-0.04233 0.0847-0.14817 0.14817-0.04233 0.0212-0.0635 0.0635-0.16933 0.0847h-0.0635l-0.04233 0.0212h-0.04233l-0.04233 0.0212h-0.3175l-0.04233-0.0212h-0.04233l-0.04233-0.0212h-0.0635l-0.16933-0.0847-0.0635-0.0635-0.04233-0.0212-0.04233-0.0423-0.02117-0.0423-0.04233-0.0212-0.02117-0.0423-0.04233-0.0423-0.02117-0.0423-0.02117-0.0212-0.02117-0.0423-0.02117-0.0635-0.08467-0.16933v-0.0635l-0.02117-0.0423v-0.29634l0.02117-0.0635v-0.0423l0.04234-0.0846 0.02117-0.0635 0.10583-0.21166 0.04233-0.0212 0.02117-0.0423 0.10583-0.10584 0.04233-0.0212 0.02117-0.0423 0.21167-0.10583h0.0635l0.08467-0.0423h0.10583l0.04233-0.0212h0.0635"/>
   <path d="m44.381 141.42h0.14817l0.04233 0.0212h0.04233l0.04233 0.0212 0.0635 0.0212 0.21167 0.10583 0.0635 0.0635 0.04233 0.0212 0.04233 0.0423 0.02117 0.0423 0.04233 0.0212 0.0635 0.127 0.04233 0.0423 0.04233 0.0847v0.0423l0.02117 0.0423 0.02117 0.0635v0.0423l0.02117 0.0423v0.3175l-0.02117 0.0423v0.0423l-0.02117 0.0635-0.02117 0.0423v0.0423l-0.04233 0.0847-0.04233 0.0423-0.0635 0.127-0.04233 0.0212-0.02117 0.0423-0.04233 0.0423-0.04233 0.0212-0.0635 0.0635-0.21167 0.10583-0.0635 0.0212-0.04233 0.0212h-0.08467l-0.0635 0.0212h-0.1905l-0.0635-0.0212h-0.08467l-0.04233-0.0212-0.0635-0.0212-0.21167-0.10583-0.0635-0.0635-0.04233-0.0212-0.02117-0.0423-0.10583-0.10583-0.127-0.254-0.02117-0.0423-0.02117-0.0635v-0.0423l-0.02117-0.0423v-0.3175l0.02117-0.0423v-0.0423l0.02117-0.0635 0.02117-0.0423 0.127-0.254 0.10583-0.10584 0.02117-0.0423 0.04233-0.0212 0.0635-0.0635 0.21167-0.10583 0.0635-0.0212 0.04233-0.0212h0.04233l0.04233-0.0212h0.16933"/>
   <path d="m44.381 143.71 0.04233 0.0212h0.10583l0.04233 0.0212h0.04233l0.04233 0.0212h0.0635l0.16933 0.0847 0.0635 0.0635 0.04233 0.0212 0.04233 0.0423 0.04233 0.0212 0.02117 0.0423 0.04233 0.0423 0.02117 0.0423 0.02117 0.0212 0.02117 0.0423 0.04233 0.0423 0.02117 0.0423 0.02117 0.0635v0.0423l0.04233 0.0847v0.0423l0.02117 0.0635v0.29634l-0.02117 0.0635v0.0423l-0.04234 0.0846v0.0635l-0.04233 0.0847-0.04233 0.0423-0.02117 0.0423-0.02117 0.0212-0.02117 0.0423-0.04233 0.0423-0.02117 0.0423-0.04233 0.0212-0.04233 0.0423-0.04233 0.0212-0.02117 0.0423-0.21167 0.10583h-0.0635l-0.08467 0.0423h-0.10583l-0.04233 0.0212h-0.10582l-0.04233-0.0212h-0.10583l-0.08467-0.0423h-0.0635l-0.21167-0.10583-0.02117-0.0423-0.04233-0.0212-0.10583-0.10584-0.02117-0.0423-0.0635-0.0635-0.08467-0.16933-0.02117-0.0635-0.04234-0.0846v-0.0423l-0.02117-0.0635v-0.29634l0.02117-0.0635v-0.0423l0.0635-0.127 0.02117-0.0635 0.0635-0.127 0.0635-0.0635 0.02117-0.0423 0.10583-0.10584 0.04233-0.0212 0.0635-0.0635 0.16933-0.0847h0.0635l0.04233-0.0212h0.04233l0.04233-0.0212h0.10583l0.0635-0.0212"/>
   <path d="m44.381 146.01h0.08467l0.0635 0.0212h0.04233l0.04233 0.0212h0.04233l0.0635 0.0212 0.21167 0.10583 0.02117 0.0423 0.08467 0.0423 0.04233 0.0423 0.02117 0.0423 0.04233 0.0212 0.04233 0.0847 0.02117 0.0423 0.04233 0.0423 0.04233 0.0847v0.0423l0.02117 0.0635 0.02117 0.0423v0.0423l0.02117 0.0423v0.3175l-0.02117 0.0423v0.0635l-0.04234 0.0846v0.0423l-0.04233 0.0847-0.04233 0.0423-0.0635 0.127-0.10583 0.10583-0.04233 0.0212-0.0635 0.0635-0.08467 0.0423-0.04233 0.0423h-0.04233l-0.04233 0.0212-0.0635 0.0212-0.04233 0.0212h-0.04233l-0.04233 0.0212h-0.3175l-0.04233-0.0212h-0.04233l-0.04233-0.0212-0.0635-0.0212-0.04233-0.0212h-0.04233l-0.04233-0.0423-0.08467-0.0423-0.0635-0.0635-0.04233-0.0212-0.02117-0.0423-0.04233-0.0212-0.02117-0.0423-0.04233-0.0423-0.127-0.254-0.04234-0.0846v-0.0635l-0.02117-0.0423v-0.3175l0.02117-0.0423v-0.0423l0.02117-0.0423 0.02117-0.0635 0.127-0.254 0.10583-0.10584 0.02117-0.0423 0.08467-0.0423 0.02117-0.0423 0.21167-0.10583 0.0635-0.0212h0.04233l0.04233-0.0212h0.04233l0.0635-0.0212h0.10583"/>
   <path d="m44.381 148.32h0.14817l0.04233 0.0212h0.04233l0.04233 0.0212 0.0635 0.0212h0.04233l0.08467 0.0423 0.04233 0.0423 0.04233 0.0212 0.0635 0.0635 0.04233 0.0212 0.10583 0.10583 0.0635 0.127 0.04233 0.0423 0.04233 0.0847v0.0423l0.04234 0.0846v0.0635l0.02117 0.0423v0.29633l-0.02117 0.0635v0.0423l-0.02117 0.0423-0.02117 0.0635v0.0423l-0.04233 0.0847-0.04233 0.0423-0.04234 0.0846-0.0635 0.0635-0.02117 0.0423-0.04233 0.0212-0.04233 0.0423-0.04233 0.0212-0.02117 0.0423-0.21167 0.10583-0.0635 0.0212h-0.04233l-0.04233 0.0212h-0.04233l-0.0635 0.0212h-0.1905l-0.0635-0.0212h-0.04233l-0.04233-0.0212h-0.04233l-0.0635-0.0212-0.21167-0.10583-0.02117-0.0423-0.04233-0.0212-0.10583-0.10583-0.02117-0.0423-0.04233-0.0212-0.127-0.254-0.02117-0.0635-0.02117-0.0423v-0.0423l-0.02117-0.0635v-0.29633l0.02117-0.0423v-0.0635l0.04234-0.0846 0.127-0.254 0.04233-0.0423 0.02117-0.0423 0.04233-0.0212 0.02117-0.0423 0.04233-0.0212 0.0635-0.0635 0.04233-0.0212 0.04233-0.0423 0.08467-0.0423h0.04233l0.0635-0.0212 0.04233-0.0212h0.04233l0.04233-0.0212h0.16933"/>
   <path d="m44.381 150.61h0.04233l0.04233 0.0212h0.10583l0.04233 0.0212h0.04233l0.0635 0.0212 0.21167 0.10583 0.02117 0.0423 0.04233 0.0212 0.04233 0.0423 0.04233 0.0212 0.02117 0.0423 0.0635 0.0635 0.04234 0.0846 0.04233 0.0423 0.04233 0.0847v0.0423l0.02117 0.0635 0.02117 0.0423v0.0423l0.02117 0.0635v0.29634l-0.02117 0.0423v0.0635l-0.04233 0.0847v0.0423l-0.04233 0.0847-0.04233 0.0423-0.02117 0.0423-0.04233 0.0847-0.14817 0.14817-0.04233 0.0212-0.02117 0.0212-0.04233 0.0212-0.04233 0.0423-0.08467 0.0423h-0.04233l-0.0635 0.0212-0.04233 0.0212h-0.04233l-0.04233 0.0212h-0.3175l-0.04233-0.0212h-0.04233l-0.04233-0.0212-0.0635-0.0212h-0.04233l-0.08467-0.0423-0.04233-0.0423-0.04233-0.0212-0.02117-0.0212-0.04233-0.0212-0.04233-0.0423-0.02117-0.0423-0.04233-0.0212-0.02117-0.0423-0.04233-0.0423-0.16933-0.33867v-0.0635l-0.02117-0.0423v-0.29634l0.02117-0.0635v-0.0423l0.02117-0.0423 0.02117-0.0635 0.127-0.254 0.04233-0.0212 0.02117-0.0423 0.10583-0.10584 0.04233-0.0212 0.02117-0.0423 0.21167-0.10583 0.0635-0.0212h0.04233l0.04233-0.0212h0.10583l0.04233-0.0212h0.0635"/>
   <path d="m46.688 136.83h0.14817l0.04233 0.0212h0.0635l0.127 0.0635h0.04233l0.04233 0.0212 0.04233 0.0423 0.08467 0.0423 0.10583 0.10583 0.04233 0.0212 0.04233 0.0847 0.04233 0.0423 0.127 0.254v0.0423l0.02117 0.0635v0.0847l0.02117 0.0635v0.10583l-0.02117 0.0423v0.10583l-0.02117 0.0423v0.0423l-0.02117 0.0635-0.04234 0.0846-0.0635 0.127-0.04233 0.0423-0.02117 0.0423-0.0635 0.0635-0.04233 0.0212-0.02117 0.0423-0.04233 0.0212-0.04233 0.0423-0.254 0.127h-0.04233l-0.0635 0.0212h-0.04233l-0.04233 0.0212h-0.21167l-0.04233-0.0212h-0.04233l-0.0635-0.0212h-0.04233l-0.254-0.127-0.04233-0.0423-0.04233-0.0212-0.02117-0.0423-0.04233-0.0212-0.0635-0.0635-0.02117-0.0423-0.04233-0.0423-0.10583-0.21166v-0.0635l-0.04233-0.0847v-0.10583l-0.02117-0.0423v-0.10583l0.02117-0.0635v-0.0847l0.02117-0.0635 0.02117-0.0423v-0.0423l0.0635-0.127 0.04234-0.0846 0.04233-0.0423 0.04233-0.0847 0.04233-0.0212 0.10583-0.10583 0.08467-0.0423 0.04233-0.0423 0.04233-0.0212h0.04233l0.127-0.0635h0.0635l0.04233-0.0212h0.14817"/>
  </g>
  <g fill="#2b8f3d" fill-rule="evenodd" stroke="#1e1917" stroke-linecap="round" stroke-linejoin="round" stroke-miterlimit="10" stroke-width=".074436">
   <path d="m46.688 139.11h0.04233l0.0635 0.0212h0.08467l0.0635 0.0212 0.04233 0.0212h0.04233l0.21167 0.10583 0.04233 0.0423 0.04233 0.0212 0.02117 0.0423 0.04233 0.0212 0.04233 0.0423 0.02117 0.0423 0.0635 0.0635 0.0635 0.127 0.02117 0.0423 0.02117 0.0635 0.02117 0.0423v0.0423l0.02117 0.0423v0.10584l0.02117 0.0423v0.10583l-0.02117 0.0635v0.0847l-0.02117 0.0635v0.0423l-0.04233 0.0847-0.02117 0.0423-0.02117 0.0635-0.02117 0.0423-0.0635 0.0635-0.04233 0.0847-0.04233 0.0212-0.04233 0.0423-0.02117 0.0423-0.08467 0.0423-0.04233 0.0423-0.16933 0.0847h-0.04233l-0.04233 0.0212h-0.0635l-0.04233 0.0212h-0.29634l-0.04233-0.0212h-0.0635l-0.04233-0.0212h-0.04233l-0.16933-0.0847-0.04233-0.0423-0.08467-0.0423-0.02117-0.0423-0.04233-0.0423-0.04233-0.0212-0.04233-0.0847-0.0635-0.0635-0.02117-0.0423-0.02117-0.0635-0.04233-0.0847v-0.0423l-0.02117-0.0423-0.02117-0.0635v-0.0847l-0.02117-0.0635v-0.10583l0.02117-0.0423v-0.10584l0.04233-0.0847v-0.0423l0.02117-0.0635 0.04233-0.0847 0.04234-0.0846 0.0635-0.0635 0.02117-0.0423 0.04233-0.0423 0.04233-0.0212 0.02117-0.0423 0.04233-0.0212 0.04233-0.0423 0.21167-0.10583h0.04233l0.04233-0.0212 0.0635-0.0212h0.08467l0.0635-0.0212h0.04233"/>
   <path d="m46.688 141.42h0.14817l0.04233 0.0212h0.0635l0.33867 0.16933 0.16933 0.16933 0.02117 0.0423 0.04233 0.0423 0.127 0.254v0.0635l0.02117 0.0423v0.10584l0.02117 0.0423v0.10583l-0.02117 0.0423v0.10583l-0.02117 0.0423v0.0635l-0.127 0.254-0.04233 0.0423-0.02117 0.0423-0.16933 0.16933-0.33867 0.16934h-0.10583l-0.04233 0.0212h-0.21167l-0.04233-0.0212h-0.10583l-0.33867-0.16934-0.16933-0.16933-0.02117-0.0423-0.04233-0.0423-0.04234-0.0846-0.0635-0.127v-0.0423l-0.02117-0.0635-0.02117-0.0423v-0.10583l-0.02117-0.0423v-0.10583l0.02117-0.0423v-0.10584l0.02117-0.0423 0.02117-0.0635v-0.0423l0.0635-0.127 0.04234-0.0846 0.04233-0.0423 0.02117-0.0423 0.16933-0.16933 0.33867-0.16933h0.0635l0.04233-0.0212h0.14817"/>
   <path d="m46.688 143.71 0.04233 0.0212h0.10583l0.04233 0.0212h0.0635l0.04233 0.0212h0.04233l0.16933 0.0847 0.04233 0.0423 0.08467 0.0423 0.02117 0.0423 0.04233 0.0212 0.04233 0.0423 0.04233 0.0847 0.04233 0.0212 0.0635 0.127 0.02117 0.0635 0.04233 0.0847v0.0423l0.02117 0.0423v0.10584l0.02117 0.0635v0.10583l-0.02117 0.0423v0.10584l-0.02117 0.0423v0.0423l-0.02117 0.0423-0.02117 0.0635-0.02117 0.0423-0.0635 0.127-0.04233 0.0212-0.04233 0.0847-0.04233 0.0423-0.04233 0.0212-0.02117 0.0423-0.04233 0.0212-0.04233 0.0423-0.21167 0.10583h-0.04233l-0.04233 0.0212-0.0635 0.0212h-0.08467l-0.0635 0.0212h-0.08467l-0.0635-0.0212h-0.08467l-0.0635-0.0212-0.04233-0.0212h-0.04233l-0.21167-0.10583-0.04233-0.0423-0.04233-0.0212-0.02117-0.0423-0.04233-0.0212-0.04233-0.0423-0.04233-0.0847-0.04233-0.0212-0.04234-0.0846-0.04233-0.0847-0.02117-0.0635v-0.0423l-0.04233-0.0847v-0.10584l-0.02117-0.0423v-0.10583l0.02117-0.0635v-0.10584l0.04234-0.0846v-0.0423l0.02117-0.0423 0.02117-0.0635 0.06351-0.1269 0.04233-0.0212 0.04233-0.0847 0.04233-0.0423 0.04233-0.0212 0.02117-0.0423 0.08467-0.0423 0.04233-0.0423 0.16933-0.0847h0.04233l0.04233-0.0212h0.0635l0.04233-0.0212h0.10583l0.04233-0.0212"/>
   <path d="m46.688 146.01h0.10583l0.04233 0.0212h0.04233l0.0635 0.0212h0.04233l0.254 0.127 0.04233 0.0423 0.04233 0.0212 0.127 0.127 0.02117 0.0423 0.04233 0.0423 0.0635 0.127 0.04234 0.0846 0.02117 0.0635v0.0423l0.02117 0.0423v0.10584l0.02117 0.0423v0.10583l-0.02117 0.0635v0.0847l-0.02117 0.0635v0.0423l-0.127 0.254-0.04233 0.0423-0.04233 0.0847-0.04233 0.0212-0.10583 0.10583-0.127 0.0635-0.04233 0.0423h-0.04233l-0.127 0.0635h-0.0635l-0.04233 0.0212h-0.29635l-0.04233-0.0212h-0.0635l-0.127-0.0635h-0.04233l-0.04233-0.0423-0.127-0.0635-0.10583-0.10583-0.04233-0.0212-0.04233-0.0847-0.04233-0.0423-0.04234-0.0846-0.0635-0.127v-0.0423l-0.02117-0.0423-0.02117-0.0635v-0.0847l-0.02117-0.0635v-0.10583l0.02117-0.0423v-0.10584l0.04233-0.0847v-0.0635l0.10583-0.21167 0.04233-0.0423 0.02117-0.0423 0.127-0.127 0.04233-0.0212 0.04233-0.0423 0.254-0.127h0.04233l0.0635-0.0212h0.04233l0.04233-0.0212h0.10583"/>
   <path d="m46.688 148.32h0.14817l0.04233 0.0212h0.0635l0.08467 0.0423h0.04233l0.08467 0.0423 0.04233 0.0423 0.08467 0.0423 0.10583 0.10583 0.04233 0.0212 0.04233 0.0847 0.04233 0.0423 0.127 0.254v0.0423l0.02117 0.0635v0.0847l0.02117 0.0635v0.10583l-0.02117 0.0423v0.10583l-0.02117 0.0423v0.0423l-0.02117 0.0635-0.04234 0.0846-0.0635 0.127-0.0635 0.0635-0.02117 0.0423-0.04233 0.0423-0.04233 0.0212-0.02117 0.0423-0.04233 0.0212-0.04233 0.0423-0.254 0.127h-0.04233l-0.0635 0.0212h-0.04233l-0.04233 0.0212h-0.21167l-0.04233-0.0212h-0.04233l-0.0635-0.0212h-0.04233l-0.254-0.127-0.04233-0.0423-0.04233-0.0212-0.02117-0.0423-0.04233-0.0212-0.04233-0.0423-0.02117-0.0423-0.0635-0.0635-0.10583-0.21166v-0.0635l-0.04233-0.0847v-0.10583l-0.02117-0.0423v-0.10583l0.02117-0.0635v-0.0847l0.02117-0.0635 0.02117-0.0423v-0.0423l0.0635-0.127 0.04234-0.0846 0.04233-0.0423 0.04233-0.0847 0.04233-0.0212 0.10583-0.10583 0.08467-0.0423 0.04233-0.0423 0.08467-0.0423h0.04233l0.08467-0.0423h0.0635l0.04233-0.0212h0.14817"/>
  </g>
  <g fill="#7e7e7e" fill-rule="evenodd" stroke="#1e1917" stroke-linecap="round" stroke-linejoin="round" stroke-miterlimit="10" stroke-width=".074436">
   <path d="m46.688 150.61h0.04233l0.0635 0.0212h0.08467l0.0635 0.0212h0.04233l0.254 0.127 0.04233 0.0423 0.04233 0.0212 0.02117 0.0423 0.04233 0.0212 0.04233 0.0423 0.02117 0.0423 0.0635 0.0635 0.0635 0.127 0.04234 0.0846 0.02117 0.0635v0.0423l0.02117 0.0423v0.10584l0.02117 0.0423v0.10583l-0.02117 0.0635v0.0847l-0.02117 0.0635v0.0423l-0.04233 0.0847-0.02117 0.0423-0.0635 0.127-0.04233 0.0423-0.04233 0.0847-0.04233 0.0212-0.04233 0.0423-0.02117 0.0423-0.127 0.0635-0.04233 0.0423-0.08467 0.0423h-0.04233l-0.08467 0.0423h-0.0635l-0.04233 0.0212h-0.29635l-0.04233-0.0212h-0.0635l-0.08467-0.0423h-0.04233l-0.08467-0.0423-0.04233-0.0423-0.127-0.0635-0.02117-0.0423-0.04233-0.0423-0.04233-0.0212-0.04233-0.0847-0.04233-0.0423-0.04234-0.0846-0.0635-0.127v-0.0423l-0.02117-0.0423-0.02117-0.0635v-0.0847l-0.02117-0.0635v-0.10583l0.02117-0.0423v-0.10584l0.04234-0.0846v-0.0635l0.0635-0.127 0.04234-0.0846 0.0635-0.0635 0.02117-0.0423 0.04233-0.0423 0.04233-0.0212 0.02117-0.0423 0.04233-0.0212 0.04233-0.0423 0.254-0.127h0.04233l0.0635-0.0212h0.08467l0.0635-0.0212h0.04233"/>
   <path d="m49.017 136.83h0.14817l0.04233 0.0212h0.04233l0.04233 0.0212 0.0635 0.0212 0.04233 0.0212h0.04233l0.04233 0.0212 0.04233 0.0423 0.08467 0.0423 0.02117 0.0423 0.04233 0.0212 0.10583 0.10583 0.04233 0.0847 0.02117 0.0423 0.04233 0.0423 0.04233 0.0847v0.0423l0.04233 0.0847v0.0635l0.02117 0.0423v0.3175l-0.02117 0.0423v0.0423l-0.02117 0.0423-0.02117 0.0635v0.0423l-0.04234 0.0846-0.04233 0.0423-0.02117 0.0423-0.04233 0.0847-0.04233 0.0212-0.02117 0.0423-0.04233 0.0212-0.10583 0.10583-0.21167 0.10583-0.0635 0.0212h-0.04233l-0.04233 0.0212h-0.04233l-0.0635 0.0212h-0.1905l-0.0635-0.0212h-0.04233l-0.04233-0.0212h-0.04233l-0.04233-0.0212-0.0635-0.0212-0.127-0.0635-0.0635-0.0635-0.04233-0.0212-0.16933-0.16933-0.02117-0.0423-0.0635-0.127-0.04234-0.0846-0.02117-0.0635-0.02117-0.0423v-0.0423l-0.02117-0.0423v-0.3175l0.02117-0.0423v-0.0635l0.16933-0.33866 0.04233-0.0423 0.02117-0.0423 0.04233-0.0212 0.02117-0.0423 0.04233-0.0212 0.04233-0.0423 0.04233-0.0212 0.0635-0.0635 0.04233-0.0212h0.04233l0.0635-0.0212 0.08467-0.0423h0.04233l0.04233-0.0212h0.16933"/>
   <path d="m49.017 139.11h0.04233l0.04233 0.0212h0.10583l0.08467 0.0423h0.0635l0.21167 0.10583 0.10583 0.10584 0.04233 0.0212 0.02117 0.0423 0.0635 0.0635 0.04234 0.0846 0.04233 0.0423 0.04234 0.0846v0.0635l0.04233 0.0847v0.0423l0.02117 0.0635v0.29634l-0.02117 0.0423v0.0635l-0.04233 0.0847v0.0423l-0.02117 0.0423-0.02117 0.0635-0.0635 0.0635-0.04233 0.0847-0.16933 0.16933-0.04233 0.0212-0.04233 0.0423-0.16933 0.0847h-0.0635l-0.04233 0.0212h-0.04233l-0.04233 0.0212h-0.3175l-0.04233-0.0212h-0.04233l-0.04233-0.0212h-0.04233l-0.0635-0.0212-0.127-0.0635-0.02117-0.0423-0.08467-0.0423-0.04233-0.0423-0.02117-0.0423-0.04233-0.0212-0.02117-0.0423-0.04233-0.0423-0.02117-0.0423-0.02117-0.0212-0.02117-0.0423-0.02117-0.0635-0.02117-0.0423-0.0635-0.127v-0.0635l-0.02117-0.0423v-0.29634l0.02117-0.0635v-0.0423l0.04233-0.0847 0.02117-0.0635 0.02117-0.0423 0.08467-0.16933 0.04233-0.0212 0.02117-0.0423 0.10583-0.10584 0.04233-0.0212 0.0635-0.0635 0.127-0.0635 0.0635-0.0212h0.04233l0.08467-0.0423h0.10583l0.04233-0.0212h0.0635"/>
   <path d="m49.017 141.42h0.14817l0.04233 0.0212h0.04233l0.04233 0.0212 0.0635 0.0212 0.254 0.127 0.02117 0.0423 0.04233 0.0212 0.04233 0.0423 0.02117 0.0423 0.04233 0.0212 0.0635 0.127 0.04233 0.0423 0.04233 0.0847v0.0423l0.02117 0.0423 0.02117 0.0635v0.0423l0.02117 0.0423v0.3175l-0.02117 0.0423v0.0423l-0.02117 0.0635-0.02117 0.0423v0.0423l-0.04233 0.0847-0.04233 0.0423-0.0635 0.127-0.04233 0.0212-0.02117 0.0423-0.04233 0.0423-0.04233 0.0212-0.02117 0.0423-0.254 0.127-0.0635 0.0212-0.04233 0.0212h-0.08467l-0.0635 0.0212h-0.1905l-0.0635-0.0212h-0.08467l-0.08467-0.0423-0.0635-0.0212-0.127-0.0635-0.02117-0.0212-0.04233-0.0212-0.04233-0.0423-0.04233-0.0212-0.02117-0.0423-0.10583-0.10583-0.02117-0.0423-0.127-0.254-0.02117-0.0635v-0.0423l-0.02117-0.0423v-0.3175l0.02117-0.0423v-0.0423l0.02117-0.0635 0.127-0.254 0.02117-0.0423 0.10583-0.10584 0.02117-0.0423 0.04233-0.0212 0.04233-0.0423 0.04233-0.0212 0.02117-0.0212 0.127-0.0635 0.0635-0.0212 0.08467-0.0423h0.04233l0.04233-0.0212h0.16933"/>
   <path d="m49.017 143.71 0.04233 0.0212h0.10583l0.04233 0.0212h0.04233l0.04233 0.0212h0.0635l0.16933 0.0847 0.04233 0.0423 0.04233 0.0212 0.0635 0.0635 0.04233 0.0212 0.02117 0.0423 0.04233 0.0423 0.02117 0.0423 0.02117 0.0212 0.02117 0.0423 0.04233 0.0423 0.02117 0.0423 0.02117 0.0635v0.0423l0.04233 0.0847v0.0423l0.02117 0.0635v0.29634l-0.02117 0.0635v0.0423l-0.04233 0.0847v0.0635l-0.04234 0.0846-0.04233 0.0423-0.02117 0.0423-0.02117 0.0212-0.02117 0.0423-0.04233 0.0423-0.02117 0.0423-0.04233 0.0212-0.10583 0.10584-0.21167 0.10583h-0.0635l-0.08467 0.0423h-0.10583l-0.04233 0.0212h-0.10581l-0.04233-0.0212h-0.10583l-0.08467-0.0423h-0.04233l-0.0635-0.0212-0.127-0.0635-0.0635-0.0635-0.04233-0.0212-0.10583-0.10584-0.02117-0.0423-0.0635-0.0635-0.0635-0.127-0.02117-0.0423-0.02117-0.0635-0.04233-0.0847v-0.0423l-0.02117-0.0635v-0.29634l0.02117-0.0635v-0.0423l0.0635-0.127 0.02117-0.0635 0.0635-0.127 0.0635-0.0635 0.02117-0.0423 0.10583-0.10584 0.08467-0.0423 0.02117-0.0423 0.127-0.0635 0.0635-0.0212h0.04233l0.04233-0.0212h0.04233l0.04233-0.0212h0.10583l0.0635-0.0212"/>
   <path d="m49.017 146.01h0.08467l0.0635 0.0212h0.04233l0.04233 0.0212h0.04233l0.0635 0.0212 0.21167 0.10583 0.0635 0.0635 0.04233 0.0212 0.04233 0.0423 0.02117 0.0423 0.04233 0.0212 0.04233 0.0847 0.02117 0.0423 0.04233 0.0423 0.04234 0.0846v0.0423l0.02117 0.0635 0.02117 0.0423v0.0423l0.02117 0.0423v0.3175l-0.02117 0.0423v0.0635l-0.04233 0.0847v0.0423l-0.04233 0.0847-0.04233 0.0423-0.0635 0.127-0.10583 0.10583-0.04233 0.0212-0.02117 0.0423-0.127 0.0635-0.04233 0.0423h-0.04233l-0.04233 0.0212-0.0635 0.0212-0.04233 0.0212h-0.04233l-0.04233 0.0212h-0.3175l-0.04233-0.0212h-0.04233l-0.08467-0.0423-0.0635-0.0212h-0.04233l-0.04233-0.0423-0.04233-0.0212-0.02117-0.0212-0.04233-0.0212-0.04233-0.0423-0.04233-0.0212-0.02117-0.0423-0.04233-0.0212-0.02117-0.0423-0.04233-0.0423-0.02117-0.0423-0.14817-0.29633v-0.0635l-0.02117-0.0423v-0.3175l0.02117-0.0423v-0.0423l0.02117-0.0423 0.02117-0.0635 0.04234-0.0846 0.0635-0.127 0.02117-0.0423 0.10583-0.10584 0.02117-0.0423 0.08467-0.0423 0.0635-0.0635 0.127-0.0635 0.0635-0.0212 0.04233-0.0212h0.04233l0.04233-0.0212h0.04233l0.0635-0.0212h0.10583"/>
   <path d="m49.017 148.32h0.14817l0.04233 0.0212h0.04233l0.04233 0.0212 0.0635 0.0212h0.04233l0.08467 0.0423 0.04233 0.0423 0.08467 0.0423 0.02117 0.0423 0.04233 0.0212 0.10583 0.10583 0.0635 0.127 0.04233 0.0423 0.04233 0.0847v0.0423l0.04233 0.0847v0.0635l0.02117 0.0423v0.29633l-0.02117 0.0635v0.0423l-0.02117 0.0423-0.02117 0.0635v0.0423l-0.04234 0.0846-0.04233 0.0423-0.04234 0.0846-0.0635 0.0635-0.02117 0.0423-0.04233 0.0212-0.10583 0.10583-0.21167 0.10583-0.0635 0.0212h-0.04233l-0.04233 0.0212h-0.04233l-0.0635 0.0212h-0.1905l-0.0635-0.0212h-0.04233l-0.04233-0.0212h-0.04233l-0.04233-0.0212-0.0635-0.0212-0.127-0.0635-0.0635-0.0635-0.04233-0.0212-0.10583-0.10583-0.02117-0.0423-0.04233-0.0212-0.02117-0.0423-0.0635-0.127-0.04234-0.0846-0.02117-0.0635-0.02117-0.0423v-0.0423l-0.02117-0.0635v-0.29633l0.02117-0.0423v-0.0635l0.14817-0.29633 0.02117-0.0423 0.04233-0.0423 0.02117-0.0423 0.04233-0.0212 0.02117-0.0423 0.04233-0.0212 0.04233-0.0423 0.04233-0.0212 0.0635-0.0635 0.08467-0.0423h0.0635l0.08467-0.0423h0.04233l0.04233-0.0212h0.16933"/>
   <path d="m49.017 150.61h0.04233l0.04233 0.0212h0.10583l0.04233 0.0212h0.04233l0.0635 0.0212 0.21167 0.10583 0.10583 0.10584 0.04233 0.0212 0.02117 0.0423 0.0635 0.0635 0.04234 0.0846 0.04233 0.0423 0.04234 0.0846v0.0423l0.02117 0.0635 0.02117 0.0423v0.0423l0.02117 0.0635v0.29634l-0.02117 0.0423v0.0635l-0.04233 0.0847v0.0423l-0.04234 0.0846-0.04233 0.0423-0.02117 0.0423-0.04233 0.0847-0.16933 0.16933-0.08467 0.0423-0.04233 0.0423-0.08467 0.0423h-0.04233l-0.0635 0.0212-0.04233 0.0212h-0.04233l-0.04233 0.0212h-0.3175l-0.04233-0.0212h-0.04233l-0.08467-0.0423h-0.0635l-0.08467-0.0423-0.0635-0.0635-0.08467-0.0423-0.04233-0.0423-0.02117-0.0423-0.04233-0.0212-0.02117-0.0423-0.04233-0.0423-0.08467-0.16934-0.02117-0.0423-0.0635-0.127v-0.0635l-0.02117-0.0423v-0.29634l0.02117-0.0635v-0.0423l0.02117-0.0423 0.02117-0.0635 0.04234-0.0846 0.08467-0.16933 0.04233-0.0212 0.02117-0.0423 0.10583-0.10584 0.04233-0.0212 0.0635-0.0635 0.127-0.0635 0.0635-0.0212 0.04233-0.0212h0.04233l0.04233-0.0212h0.10583l0.04233-0.0212h0.0635"/>
   <path d="m51.324 136.83h0.14817l0.0635 0.0212h0.04233l0.127 0.0635h0.04233l0.04233 0.0212 0.04233 0.0423 0.08467 0.0423 0.10583 0.10583 0.04233 0.0212 0.04233 0.0847 0.04233 0.0423 0.08467 0.16933 0.04234 0.0846v0.0423l0.02117 0.0635v0.0423l0.02117 0.0423v0.21167l-0.02117 0.0635v0.0423l-0.02117 0.0423v0.0423l-0.02117 0.0635-0.02117 0.0423-0.08467 0.16933-0.04233 0.0423-0.02117 0.0423-0.0635 0.0635-0.04233 0.0212-0.02117 0.0423-0.04233 0.0212-0.04233 0.0423-0.254 0.127h-0.04233l-0.04233 0.0212h-0.0635l-0.04233 0.0212h-0.21167l-0.04233-0.0212h-0.04233l-0.0635-0.0212h-0.04233l-0.254-0.127-0.04233-0.0423-0.04233-0.0212-0.02117-0.0423-0.04233-0.0212-0.02117-0.0423-0.04233-0.0212-0.02117-0.0423-0.04233-0.0423-0.04233-0.0847-0.02117-0.0423-0.04233-0.0847v-0.0635l-0.04233-0.0847v-0.14817l-0.02117-0.0635 0.02117-0.0423v-0.14817l0.02117-0.0635 0.02117-0.0423v-0.0423l0.04233-0.0847 0.02117-0.0423 0.04233-0.0847 0.04233-0.0423 0.02117-0.0423 0.16933-0.16933 0.08467-0.0423 0.04233-0.0423 0.04233-0.0212h0.04233l0.127-0.0635h0.0635l0.04233-0.0212h0.14817"/>
   <path d="m51.324 139.11h0.04233l0.0635 0.0212h0.10583l0.08467 0.0423h0.04233l0.21167 0.10583 0.04233 0.0423 0.04233 0.0212 0.02117 0.0423 0.04233 0.0212 0.04233 0.0423 0.02117 0.0423 0.0635 0.0635 0.08467 0.16933 0.02117 0.0635 0.02117 0.0423v0.0423l0.02117 0.0423v0.0635l0.02117 0.0423v0.21166l-0.02117 0.0423v0.0423l-0.02117 0.0635v0.0423l-0.06351 0.1269-0.02117 0.0635-0.02117 0.0423-0.0635 0.0635-0.04233 0.0847-0.04233 0.0212-0.04233 0.0423-0.02117 0.0423-0.08467 0.0423-0.04233 0.0423-0.16933 0.0847h-0.04233l-0.04233 0.0212h-0.04233l-0.0635 0.0212h-0.29633l-0.04233-0.0212h-0.0635l-0.04233-0.0212h-0.04233l-0.16933-0.0847-0.04233-0.0423-0.08467-0.0423-0.02117-0.0423-0.10583-0.10583-0.02117-0.0423-0.0635-0.0635-0.02117-0.0423-0.02117-0.0635-0.04233-0.0847v-0.0423l-0.02117-0.0423-0.02117-0.0635v-0.14817l-0.02117-0.0423 0.02117-0.0635v-0.14817l0.04233-0.0847v-0.0423l0.02117-0.0635 0.08467-0.16933 0.10583-0.10583 0.02117-0.0423 0.04233-0.0212 0.02117-0.0423 0.04233-0.0212 0.04233-0.0423 0.21167-0.10583h0.04233l0.04233-0.0212 0.0635-0.0212h0.08467l0.0635-0.0212h0.04233"/>
   <path d="m51.324 141.42h0.14817l0.0635 0.0212h0.04233l0.33867 0.16933 0.16933 0.16933 0.02117 0.0423 0.04233 0.0423 0.08467 0.16933 0.04234 0.0846v0.0635l0.02117 0.0423v0.0423l0.02117 0.0635v0.1905l-0.02117 0.0635v0.0423l-0.02117 0.0423v0.0635l-0.04234 0.0846-0.08467 0.16933-0.04233 0.0423-0.02117 0.0423-0.16933 0.16933-0.33867 0.16934h-0.10583l-0.04233 0.0212h-0.21167l-0.04233-0.0212h-0.10583l-0.33867-0.16934-0.10583-0.10583-0.02117-0.0423-0.04233-0.0212-0.02117-0.0423-0.04233-0.0423-0.04233-0.0847-0.02117-0.0423-0.04233-0.0847v-0.0423l-0.02117-0.0635-0.02117-0.0423v-0.14817l-0.02117-0.0635 0.02117-0.0423v-0.14817l0.02117-0.0423 0.02117-0.0635v-0.0423l0.04233-0.0847 0.02117-0.0423 0.04233-0.0847 0.04233-0.0423 0.02117-0.0423 0.04233-0.0212 0.02117-0.0423 0.10583-0.10583 0.33867-0.16933h0.0635l0.04233-0.0212h0.14817"/>
   <path d="m51.324 143.71 0.04233 0.0212h0.10583l0.0635 0.0212h0.04233l0.04233 0.0212h0.04233l0.16933 0.0847 0.04233 0.0423 0.08467 0.0423 0.02117 0.0423 0.04233 0.0212 0.04233 0.0423 0.04233 0.0847 0.04233 0.0212 0.0635 0.127 0.02117 0.0635 0.04234 0.0846v0.0423l0.02117 0.0423v0.0635l0.02117 0.0423v0.21166l-0.02117 0.0423v0.0635l-0.02117 0.0423v0.0423l-0.02117 0.0423-0.02117 0.0635-0.08467 0.16933-0.04233 0.0212-0.04233 0.0847-0.04233 0.0423-0.04233 0.0212-0.02117 0.0423-0.04233 0.0212-0.04233 0.0423-0.21167 0.10583h-0.04233l-0.08467 0.0423h-0.10583l-0.0635 0.0212h-0.08467l-0.0635-0.0212h-0.08467l-0.0635-0.0212-0.04233-0.0212h-0.04233l-0.21167-0.10583-0.04233-0.0423-0.04233-0.0212-0.02117-0.0423-0.04233-0.0212-0.02117-0.0423-0.04233-0.0423-0.02117-0.0423-0.04233-0.0212-0.08467-0.16933-0.02117-0.0635v-0.0423l-0.04233-0.0847v-0.14817l-0.02117-0.0635 0.02117-0.0423v-0.16934l0.04234-0.0846v-0.0423l0.02117-0.0423 0.02117-0.0635 0.0635-0.127 0.04233-0.0212 0.02117-0.0423 0.04233-0.0423 0.02117-0.0423 0.04233-0.0212 0.02117-0.0423 0.08467-0.0423 0.04233-0.0423 0.16933-0.0847h0.04233l0.04233-0.0212h0.0635l0.04233-0.0212h0.10583l0.04233-0.0212"/>
   <path d="m51.324 146.01h0.10583l0.04233 0.0212h0.0635l0.04233 0.0212h0.04233l0.254 0.127 0.04233 0.0423 0.04233 0.0212 0.127 0.127 0.02117 0.0423 0.04233 0.0423 0.08467 0.16933 0.02117 0.0423 0.02117 0.0635v0.0423l0.02117 0.0423v0.0423l0.02117 0.0635v0.21166l-0.02117 0.0423v0.0423l-0.02117 0.0635v0.0423l-0.04234 0.0846-0.08467 0.16933-0.04233 0.0423-0.04233 0.0847-0.04233 0.0212-0.10583 0.10583-0.127 0.0635-0.04233 0.0423h-0.04233l-0.127 0.0635h-0.04233l-0.0635 0.0212h-0.29634l-0.04233-0.0212h-0.0635l-0.127-0.0635h-0.04233l-0.04233-0.0423-0.127-0.0635-0.16933-0.16933-0.02117-0.0423-0.04233-0.0423-0.04233-0.0847-0.02117-0.0423-0.04233-0.0847v-0.0423l-0.02117-0.0423-0.02117-0.0635v-0.14817l-0.02117-0.0423 0.02117-0.0635v-0.14817l0.04233-0.0847v-0.0635l0.04233-0.0847 0.02117-0.0423 0.04233-0.0847 0.04233-0.0423 0.02117-0.0423 0.04233-0.0212 0.02117-0.0423 0.0635-0.0635 0.04233-0.0212 0.04233-0.0423 0.254-0.127h0.04233l0.0635-0.0212h0.04233l0.04233-0.0212h0.10583"/>
   <path d="m51.324 148.32h0.14817l0.0635 0.0212h0.04233l0.08467 0.0423h0.04233l0.08467 0.0423 0.04233 0.0423 0.08467 0.0423 0.10583 0.10583 0.04233 0.0212 0.04233 0.0847 0.04233 0.0423 0.08467 0.16933 0.04234 0.0846v0.0423l0.02117 0.0635v0.0423l0.02117 0.0423v0.21167l-0.02117 0.0423v0.0635l-0.02117 0.0423v0.0423l-0.02117 0.0635-0.02117 0.0423-0.08467 0.16933-0.0635 0.0635-0.02117 0.0423-0.04233 0.0423-0.04233 0.0212-0.02117 0.0423-0.04233 0.0212-0.04233 0.0423-0.254 0.127h-0.04233l-0.04233 0.0212h-0.0635l-0.04233 0.0212h-0.21167l-0.04233-0.0212h-0.04233l-0.0635-0.0212h-0.04233l-0.254-0.127-0.04233-0.0423-0.04233-0.0212-0.02117-0.0423-0.04233-0.0212-0.02117-0.0423-0.10583-0.10584-0.04233-0.0847-0.02117-0.0423-0.04233-0.0847v-0.0635l-0.04233-0.0847v-0.14817l-0.02117-0.0635 0.02117-0.0423v-0.14817l0.02117-0.0635 0.02117-0.0423v-0.0423l0.04233-0.0847 0.02117-0.0423 0.04233-0.0847 0.04233-0.0423 0.02117-0.0423 0.16933-0.16933 0.08467-0.0423 0.04233-0.0423 0.08467-0.0423h0.04233l0.08467-0.0423h0.0635l0.04233-0.0212h0.14817"/>
   <path d="m51.324 150.61h0.04233l0.0635 0.0212h0.10583l0.04233 0.0212h0.04233l0.254 0.127 0.04233 0.0423 0.04233 0.0212 0.02117 0.0423 0.04233 0.0212 0.04233 0.0423 0.02117 0.0423 0.0635 0.0635 0.08467 0.16933 0.02117 0.0423 0.02117 0.0635v0.0423l0.02117 0.0423v0.0635l0.02117 0.0423v0.21166l-0.02117 0.0423v0.0423l-0.02117 0.0635v0.0423l-0.04234 0.0846-0.08467 0.16933-0.04233 0.0423-0.04233 0.0847-0.04233 0.0212-0.04233 0.0423-0.02117 0.0423-0.127 0.0635-0.04233 0.0423-0.08467 0.0423h-0.04233l-0.08467 0.0423h-0.04233l-0.0635 0.0212h-0.29633l-0.04233-0.0212h-0.0635l-0.08467-0.0423h-0.04233l-0.08467-0.0423-0.04233-0.0423-0.127-0.0635-0.02117-0.0423-0.10583-0.10583-0.02117-0.0423-0.04233-0.0423-0.10583-0.21166v-0.0423l-0.02117-0.0423-0.02117-0.0635v-0.14817l-0.02117-0.0423 0.02117-0.0635v-0.14817l0.04234-0.0846v-0.0635l0.10583-0.21167 0.10583-0.10583 0.02117-0.0423 0.04233-0.0212 0.02117-0.0423 0.04233-0.0212 0.04233-0.0423 0.254-0.127h0.04233l0.0635-0.0212h0.08467l0.0635-0.0212h0.04233"/>
  </g>
 </g>
</svg>
