<?xml version="1.0" encoding="UTF-8"?>
<!-- Created with Inkscape (http://www.inkscape.org/) -->
<svg width="6.0762mm" height="7.7696mm" version="1.1" viewBox="0 0 6.0762 7.7696" xmlns="http://www.w3.org/2000/svg">
 <defs>
  <clipPath id="clipPath324">
   <path transform="translate(-2.5e-5 2.5e-5)" d="m232.38 437.66h17.28v22.08h-17.28z"/>
  </clipPath>
 </defs>
 <g transform="translate(-41.539 -152.93)">
  <path d="m41.572 160.67h6.0113v-7.7047h-6.0113z" fill="#7e7e7e"/>
  <path transform="matrix(.35278 0 0 -.35278 -40.449 315.11)" d="m232.5 459.62h17.04v-21.84h-17.04z" clip-path="url(#clipPath324)" fill="none" stroke="#1e1917" stroke-linecap="round" stroke-linejoin="round" stroke-miterlimit="10" stroke-width=".184"/>
  <path d="m44.556 154.17h0.16933l0.08467 0.0212h0.08467l0.16933 0.0423 0.08467 0.0423 0.08467 0.0212 0.0635 0.0423 0.08467 0.0423 0.0635 0.0212 0.08467 0.0635 0.127 0.0847 0.0635 0.0635 0.0635 0.0423 0.04233 0.0635 0.0635 0.0635 0.04233 0.0635 0.0635 0.0635 0.04233 0.0847 0.04233 0.0635 0.02117 0.0635 0.04233 0.0847 0.02117 0.0847 0.04233 0.0635 0.04234 0.1694v0.0847l0.02117 0.0847v0.33867l-0.02117 0.0847v0.0847l-0.04234 0.1694-0.04233 0.0847-0.02117 0.0847-0.04233 0.0635-0.02117 0.0847-0.08467 0.127-0.0635 0.0635-0.04233 0.0635-0.0635 0.0635-0.04233 0.0635-0.0635 0.0635-0.0635 0.0423-0.0635 0.0635-0.0635 0.0423-0.08467 0.0423-0.0635 0.0423-0.08467 0.0423-0.0635 0.0212-0.08467 0.0423-0.33867 0.0847h-0.08467l-0.08467 0.0212h-0.16933l-0.08467-0.0212h-0.08467l-0.33867-0.0847-0.08467-0.0423-0.0635-0.0212-0.08467-0.0423-0.0635-0.0423-0.08467-0.0423-0.0635-0.0423-0.0635-0.0635-0.0635-0.0423-0.0635-0.0635-0.04233-0.0635-0.0635-0.0635-0.04233-0.0635-0.0635-0.0635-0.08467-0.127-0.02117-0.0847-0.04233-0.0635-0.02117-0.0847-0.04233-0.0847-0.04233-0.16933v-0.0847l-0.02117-0.0847v-0.33867l0.02117-0.0847v-0.0847l0.04234-0.1694 0.04233-0.0635 0.02117-0.0847 0.04233-0.0847 0.02117-0.0635 0.04233-0.0635 0.04233-0.0847 0.0635-0.0635 0.04233-0.0635 0.0635-0.0635 0.04233-0.0635 0.0635-0.0423 0.0635-0.0635 0.127-0.0847 0.08467-0.0635 0.0635-0.0212 0.08467-0.0423 0.0635-0.0423 0.08467-0.0212 0.08467-0.0423 0.16933-0.0423h0.08467l0.08467-0.0212h0.16933" fill="#2b8f3d" fill-rule="evenodd" stroke="#1e1917" stroke-linecap="round" stroke-linejoin="round" stroke-miterlimit="10" stroke-width=".064911"/>
 </g>
</svg>
