<?xml version="1.0" encoding="UTF-8"?>
<!-- Created with Inkscape (http://www.inkscape.org/) -->
<svg width="9.7921mm" height="24.681mm" version="1.1" viewBox="0 0 9.7921 24.681" xmlns="http://www.w3.org/2000/svg">
 <g transform="translate(-52.387 -133.61)" stroke="#1e1917" stroke-linecap="round" stroke-linejoin="round" stroke-miterlimit="10">
  <g fill-rule="evenodd">
   <path d="m57.305 143.23h0.127l0.02117 0.0212h0.04233l0.02117 0.0212h0.02117l0.02117 0.0212h0.02117l0.02117 0.0212h0.02117l0.0635 0.0635 0.02117 0.0212v0.0212h0.02117l0.02117 0.0212v0.0212l0.02117 0.0212v0.0423l0.02117 0.0212v14.393l-0.02117 0.0212v0.0423l-0.02117 0.0212v0.0212l-0.02117 0.0212h-0.02117v0.0212l-0.08467 0.0847h-0.02117l-0.02117 0.0212h-0.02117l-0.02117 0.0212h-0.02117l-0.02117 0.0212h-0.04233l-0.02117 0.0212h-0.254l-0.02117-0.0212h-0.04233l-0.02117-0.0212h-0.02117l-0.02117-0.0212h-0.02117l-0.02117-0.0212h-0.02117l-0.02117-0.0212v-0.0212h-0.02117l-0.04233-0.0423v-0.0212h-0.02117v-0.0212l-0.02117-0.0212v-0.0212l-0.02117-0.0212v-0.0423l-0.02117-0.0212v-14.351l0.02117-0.0212v-0.0423l0.02117-0.0212v-0.0212l0.02117-0.0212v-0.0212h0.02117v-0.0212l0.04234-0.0424h0.02117v-0.0212l0.02117-0.0212h0.02117l0.02117-0.0212h0.02117l0.02117-0.0212h0.02117l0.02117-0.0212h0.04233l0.02117-0.0212h0.127" fill="#7e7e7e" stroke-width=".072672"/>
   <path d="m57.283 133.66 0.254 0.0212 0.23283 0.0212 0.254 0.0212 0.23283 0.0423 0.46567 0.127 0.23283 0.0847 0.21167 0.0847 0.635 0.3175 0.1905 0.14816 0.1905 0.127 0.16933 0.14817 0.1905 0.14817 0.16933 0.16933 0.14817 0.16933 0.4445 0.5715 0.127 0.21167 0.10583 0.1905 0.10583 0.23283 0.10583 0.21167 0.08467 0.23283 0.0635 0.21167 0.08467 0.254 0.04233 0.23283 0.04233 0.254 0.04233 0.23284v0.254l0.02117 0.254-0.02117 0.254v0.254l-0.08466 0.508-0.04233 0.23283-0.08467 0.23283-0.0635 0.23284-0.08467 0.23283-0.3175 0.635-0.127 0.21167-0.29633 0.381-0.29633 0.33866-0.16933 0.16934-0.1905 0.16933-0.16933 0.14817-0.381 0.254-0.21167 0.127-0.42333 0.21166-0.21167 0.0847-0.23283 0.0847-0.23283 0.0635-0.23283 0.0423-0.23283 0.0635-0.254 0.0212-0.23283 0.0212h-0.508l-0.23283-0.0212-0.254-0.0212-0.23283-0.0635-0.23283-0.0423-0.23283-0.0635-0.23283-0.0847-0.21167-0.0847-0.42333-0.21166-0.21167-0.127-0.381-0.254-0.16933-0.14817-0.1905-0.16933-0.16933-0.16934-0.29633-0.33866-0.29633-0.381-0.127-0.21167-0.3175-0.635-0.08467-0.23283-0.1905-0.6985-0.04233-0.254-0.02117-0.254-0.04233-0.508 0.04234-0.508 0.02117-0.23284 0.04233-0.254 0.0635-0.23283 0.0635-0.254 0.0635-0.21167 0.08467-0.23283 0.10583-0.21167 0.10583-0.23283 0.10583-0.1905 0.127-0.21167 0.4445-0.5715 0.14817-0.16933 0.16933-0.16933 0.1905-0.14817 0.16933-0.14817 0.1905-0.127 0.1905-0.14816 0.635-0.3175 0.21167-0.0847 0.23283-0.0847 0.46567-0.127 0.23283-0.0423 0.254-0.0212 0.23283-0.0212 0.254-0.0212" fill="#2b8f3d" stroke-width=".097719"/>
   <path d="m57.283 134.93h0.1905l0.16933 0.0212 0.1905 0.0212 0.33867 0.0847 0.1905 0.0423 0.16933 0.0635 0.14817 0.0635 0.16933 0.0635 0.14817 0.0847 0.14817 0.10583 0.14817 0.0847 0.14817 0.10583 0.127 0.10584 0.127 0.127 0.127 0.10583 0.127 0.14817 0.10583 0.127 0.10583 0.14816 0.10583 0.127 0.10583 0.16934 0.08467 0.14816 0.0635 0.14817 0.08467 0.16933 0.0635 0.16934 0.0635 0.16933 0.04233 0.1905 0.04233 0.16933 0.02117 0.1905 0.02117 0.16934 0.02117 0.1905v0.381l-0.06351 0.5715-0.08466 0.33866-0.127 0.33867-0.08467 0.16933-0.0635 0.16934-0.08467 0.14816-0.3175 0.4445-0.10583 0.127-0.254 0.254-0.127 0.10584-0.127 0.127-0.14817 0.0847-0.14817 0.10584-0.29633 0.16933-0.16933 0.0847-0.14817 0.0635-0.16933 0.0423-0.1905 0.0635-0.16933 0.0423-0.16933 0.0212-0.1905 0.0212-0.16933 0.0212h-0.381l-0.1905-0.0212-0.33867-0.0423-0.1905-0.0423-0.16933-0.0635-0.16933-0.0423-0.14817-0.0635-0.16933-0.0847-0.29633-0.16933-0.14817-0.10584-0.14817-0.0847-0.127-0.127-0.14817-0.10584-0.127-0.127-0.10583-0.127-0.127-0.127-0.10583-0.14816-0.08467-0.14817-0.10583-0.14817-0.08467-0.14816-0.08467-0.16934-0.1905-0.508-0.08466-0.33866-0.02117-0.1905-0.04233-0.1905v-0.762l0.04233-0.16934 0.02117-0.1905 0.04233-0.16933 0.04233-0.1905 0.0635-0.16933 0.127-0.33867 0.16933-0.29633 0.10583-0.16934 0.08467-0.127 0.10583-0.14816 0.127-0.127 0.10583-0.14817 0.127-0.10583 0.14817-0.127 0.127-0.10584 0.14817-0.10583 0.14817-0.0847 0.14817-0.10583 0.14817-0.0847 0.16933-0.0635 0.14817-0.0635 0.16933-0.0635 0.16933-0.0423 0.1905-0.0423 0.16933-0.0423 0.16933-0.0212 0.1905-0.0212h0.1905" fill="#fff" stroke-width=".097719"/>
  </g>
  <path d="m57.283 137.64h0.10583l0.04233 0.0212h0.04233l0.04233 0.0212h0.0635l0.29633 0.14817 0.02117 0.0423 0.04233 0.0212 0.04233 0.0423 0.02117 0.0423 0.02117 0.0212 0.04233 0.0423 0.04234 0.0846 0.04233 0.0847 0.02117 0.0423 0.04233 0.0847 0.02117 0.0635v0.0847l0.02117 0.0635v0.1905l-0.02117 0.0635v0.0847l-0.02117 0.0423-0.02117 0.0635-0.04234 0.0846-0.08467 0.16934-0.04233 0.0212-0.04234 0.0846-0.04233 0.0212-0.10583 0.10583-0.127 0.0635-0.08466 0.0424h-0.04233l-0.0635 0.0212-0.04233 0.0212h-0.14817l-0.04233 0.0212-0.04233-0.0212h-0.14817l-0.04233-0.0212-0.0635-0.0212h-0.04233l-0.08466-0.0424-0.127-0.0635-0.02117-0.0423-0.04233-0.0212-0.10583-0.10583-0.02117-0.0423-0.04233-0.0212-0.08467-0.16934-0.04234-0.0846-0.02117-0.0635v-0.0423l-0.02117-0.0423v-0.0423l-0.02117-0.0635v-0.1905l0.02117-0.0635v-0.0423l0.02117-0.0423v-0.0635l0.04233-0.0847 0.02117-0.0423 0.04233-0.0847 0.04234-0.0846 0.04233-0.0423 0.02117-0.0212 0.04233-0.0423 0.02117-0.0423 0.04233-0.0212 0.0635-0.0635 0.254-0.127h0.0635l0.04233-0.0212h0.04233l0.04233-0.0212z" fill="none" stroke-width=".097719"/>
 </g>
</svg>
