<?xml version="1.0" encoding="UTF-8"?>
<!-- Created with Inkscape (http://www.inkscape.org/) -->
<svg width="17.981mm" height="22.913mm" version="1.1" viewBox="0 0 17.981 22.913" xmlns="http://www.w3.org/2000/svg">
 <defs>
  <clipPath id="clipPath496">
   <path transform="translate(2.5e-5 2.5e-5)" d="m238.14 353.42h51v64.98h-51z"/>
  </clipPath>
 </defs>
 <g transform="translate(-45.508 -130.97)">
  <path d="m45.545 153.84h17.907v-22.839h-17.907z" fill="#7e7e7e"/>
  <path transform="matrix(.35278 0 0 -.35278 -38.508 278.57)" d="m238.26 418.28h50.76v-64.74h-50.76z" clip-path="url(#clipPath496)" fill="none" stroke="#1e1917" stroke-linecap="round" stroke-linejoin="round" stroke-miterlimit="10" stroke-width=".21"/>
  <g fill="#454139">
   <path d="m55.282 134.92h-0.0635l-0.0635-0.0212h-0.4445l-0.04233-0.0212v0.59266h0.33867l0.04233 0.0212h0.1905"/>
   <path d="m56.467 135.13h-0.02117l-0.04233-0.0212h-0.04233l-0.04233-0.0212h-0.04233l-0.04233-0.0212h-0.04233l-0.04233-0.0212h-0.04233l-0.04233-0.0212h-0.08467l-0.04233-0.0212h-0.0635l-0.08467 0.5715h0.04233l0.04233 0.0212h0.08467l0.04233 0.0212h0.0635l0.04233 0.0212h0.04233l0.04233 0.0212h0.02117l0.04233 0.0212h0.04233l0.02117 0.0212"/>
   <path d="m57.61 135.56-0.08467-0.0423h-0.04233l-0.02117-0.0212-0.16933-0.0847h-0.04233l-0.02117-0.0212-0.08467-0.0423h-0.04233l-0.04233-0.0212-0.21167 0.55033h0.04233l0.08467 0.0423h0.02117l0.08467 0.0423 0.02117 0.0212h0.04233l0.04233 0.0212 0.02117 0.0212 0.04233 0.0212h0.04233l0.02117 0.0212 0.04233 0.0212"/>
   <path d="m58.669 136.19-0.04233-0.0212-0.0635-0.0635-0.08467-0.0423-0.02117-0.0212-0.08467-0.0423-0.02117-0.0212-0.08467-0.0423-0.02117-0.0423-0.08467-0.0423-0.29633 0.508 0.04233 0.0212 0.02117 0.0212 0.04233 0.0212 0.02117 0.0212 0.04233 0.0212 0.02117 0.0212 0.04233 0.0212 0.02117 0.0212 0.08467 0.0423 0.04234 0.0424 0.04233 0.0212 0.02117 0.0212h0.02117"/>
   <path d="m59.579 136.97-0.02117-0.0212-0.04233-0.0212-0.02117-0.0423-0.04233-0.0212-0.02117-0.0423-0.02117-0.0212-0.04233-0.0212-0.02117-0.0423-0.04233-0.0212-0.08467-0.0847-0.04233-0.0212-0.02117-0.0423h-0.02117l-0.381 0.42334 0.04233 0.0423 0.04233 0.0212 0.02117 0.0423 0.02117 0.0212 0.04233 0.0212 0.02117 0.0212 0.02117 0.0423 0.04233 0.0212 0.14817 0.14817"/>
   <path d="m60.341 137.93v-0.0212l-0.04233-0.0423-0.02117-0.0423-0.02117-0.0212-0.02117-0.0423-0.02117-0.0212-0.02117-0.0423-0.04233-0.0423-0.02117-0.0212-0.02117-0.0423-0.0635-0.0635-0.02117-0.0423-0.04234-0.0424-0.4445 0.35983 0.02117 0.0212 0.02117 0.0423 0.04233 0.0423 0.02117 0.0423 0.02117 0.0212 0.02117 0.0423 0.04233 0.0212 0.02117 0.0423 0.02117 0.0212 0.02117 0.0423 0.02117 0.0212 0.02117 0.0423 0.04233 0.0423"/>
   <path d="m60.955 138.99-0.02117-0.0423-0.08467-0.16934-0.02117-0.0212-0.04234-0.0846-0.04233-0.0847v-0.0212l-0.04233-0.0847-0.02117-0.0423h-0.02117l-0.48683 0.29633 0.02117 0.0212 0.02117 0.0423v0.0423l0.02117 0.0212 0.04234 0.0846 0.02117 0.0212 0.04234 0.0846v0.0212l0.04233 0.0847 0.02117 0.0212 0.02117 0.0423"/>
   <path d="m61.357 140.11-0.02117-0.0212v-0.0423l-0.02117-0.0423v-0.0423l-0.02117-0.0423v-0.0423l-0.04233-0.0847v-0.0423l-0.04234-0.0846v-0.0423l-0.04233-0.0847-0.52917 0.1905v0.0423l0.02117 0.0423v0.0423l0.02117 0.0423 0.02117 0.0212v0.0423l0.02117 0.0423v0.0423l0.02117 0.0423v0.0212l0.02117 0.0423v0.0423l0.04234 0.0846"/>
   <path d="m61.568 141.31v-0.14817l-0.02117-0.0423v-0.0847l-0.02117-0.0423v-0.10583l-0.02117-0.0423v-0.0847l-0.02117-0.0423v-0.0212l-0.5715 0.10583v0.0212l0.02117 0.0423v0.0847l0.02117 0.0423v0.0635l0.02117 0.0423v0.127l0.02117 0.0423v0.10583"/>
   <path d="m61.611 142.03v-0.127l-0.59267 0.0212v0.10583"/>
   <path d="m61.59 142.52v-0.127l0.02117-0.0423v-0.3175h-0.59267v0.4445"/>
   <path d="m61.42 143.73v-0.0423l0.02117-0.0423v-0.0847l0.02117-0.0423v-0.0423l0.02117-0.0423v-0.10584l0.02117-0.0423v-0.0847l0.02117-0.0423v-0.0423l-0.5715-0.0635v0.0212l-0.02117 0.0423v0.0847l-0.02117 0.0423v0.0635l-0.02117 0.0423v0.0847l-0.02117 0.0423v0.0423l-0.02117 0.0423v0.0212"/>
   <path d="m61.039 144.87v-0.0212l0.06351-0.1269v-0.0423l0.0635-0.127v-0.0423l0.02117-0.0212 0.02117-0.0423v-0.0423l0.04233-0.0847v-0.0212l-0.55033-0.16933-0.04233 0.0847v0.0423l-0.02117 0.0212v0.0423l-0.04233 0.0847v0.0212l-0.04234 0.0846v0.0423l-0.02117 0.0212-0.02117 0.0423v0.0423"/>
   <path d="m60.468 145.95 0.04233-0.0847 0.02117-0.0212 0.02117-0.0423 0.04233-0.0423 0.02117-0.0423 0.02117-0.0212 0.0635-0.127 0.02117-0.0212 0.02117-0.0423v-0.0423l0.02117-0.0423h0.02117l-0.52917-0.27516v0.0212l-0.02117 0.0212-0.02117 0.0423v0.0212l-0.04234 0.0846-0.02117 0.0212-0.04233 0.0847-0.02117 0.0212-0.02117 0.0423-0.02117 0.0212-0.02117 0.0423-0.02117 0.0212-0.02117 0.0423"/>
   <path d="m59.727 146.9 0.02117-0.0212 0.04233-0.0212 0.02117-0.0423 0.08467-0.0847 0.02117-0.0423 0.08467-0.0847 0.02117-0.0423 0.0635-0.0635 0.02117-0.0423 0.02117-0.0212-0.46567-0.33866-0.04233 0.0423-0.02117 0.0423-0.04233 0.0423-0.02117 0.0423-0.04233 0.0212-0.02117 0.0423-0.04234 0.0424-0.02117 0.0423-0.04233 0.0212-0.02117 0.0423-0.04233 0.0423"/>
   <path d="m58.838 147.73h0.02117l0.04233-0.0423 0.02117-0.0212 0.04233-0.0212 0.08467-0.0847 0.04233-0.0212 0.08467-0.0847 0.04233-0.0212 0.02117-0.0423 0.04233-0.0212 0.02117-0.0212-0.40217-0.42333-0.0635 0.0635-0.04233 0.0212-0.02117 0.0423-0.02117 0.0212-0.04233 0.0212-0.02117 0.0212-0.04233 0.0212-0.02117 0.0212-0.08467 0.0847-0.04233 0.0212-0.02117 0.0212"/>
   <path d="m57.822 148.38h0.02117l0.02117-0.0212 0.127-0.0635 0.02117-0.0212 0.127-0.0635 0.02117-0.0212 0.08467-0.0423 0.02117-0.0212 0.08467-0.0423-0.3175-0.48684-0.04233 0.0212-0.02117 0.0212-0.04233 0.0212-0.02117 0.0212-0.04233 0.0212-0.02117 0.0212h-0.04233l-0.04233 0.0212-0.02117 0.0212-0.04233 0.0212-0.02117 0.0212-0.08467 0.0423-0.02117 0.0212h-0.02117"/>
   <path d="m56.7 148.85h0.04233l0.04233-0.0212h0.04233l0.08467-0.0423h0.02117l0.127-0.0635h0.04233l0.08467-0.0423h0.04233l0.02117-0.0212h0.02117l-0.23283-0.55033-0.04233 0.0212-0.02117 0.0212h-0.04233l-0.08467 0.0423h-0.02117l-0.08467 0.0423h-0.02117l-0.04233 0.0212h-0.04233l-0.08467 0.0423h-0.02117"/>
   <path d="m55.515 149.12 0.04233-0.0212h0.08467l0.04233-0.0212h0.08467l0.04233-0.0212h0.08467l0.04233-0.0212h0.08467l0.04233-0.0212h0.04233l-0.127-0.5715h-0.02117l-0.04233 0.0212h-0.08467l-0.04233 0.0212h-0.0635l-0.04233 0.0212h-0.08467l-0.04233 0.0212h-0.127"/>
   <path d="m54.668 149.17h0.23283l-0.02117-0.59267h-0.08467l-0.04233 0.0212h-0.08467"/>
   <path d="m54.287 149.17h0.381v-0.5715h-0.08467l-0.02117-0.0212h-0.23283"/>
   <path d="m53.081 148.98h0.02117l0.04233 0.0212h0.04233l0.04233 0.0212h0.04233l0.04233 0.0212h0.08467l0.04233 0.0212h0.08467l0.04233 0.0212h0.08467l0.04233 0.0212 0.08467-0.59267h-0.10583l-0.04233-0.0212h-0.08467l-0.04233-0.0212h-0.0635l-0.04233-0.0212h-0.04233l-0.04233-0.0212h-0.0635l-0.02117-0.0212"/>
   <path d="m51.938 148.6h0.04233l0.04233 0.0212 0.02117 0.0212 0.08467 0.0423h0.04233l0.08467 0.0423h0.04233l0.04233 0.0212 0.02117 0.0212 0.04233 0.0212h0.04233l0.04233 0.0212h0.02117l0.1905-0.55034h-0.02117l-0.04233-0.0212h-0.04233l-0.02117-0.0212-0.04233-0.0212h-0.04233l-0.02117-0.0212-0.04233-0.0212h-0.04233l-0.04233-0.0212-0.02117-0.0212h-0.04233l-0.04233-0.0212-0.02117-0.0212h-0.04233"/>
   <path d="m50.879 148 0.02117 0.0212 0.04233 0.0212 0.02117 0.0212 0.08467 0.0423 0.02117 0.0212 0.127 0.0635 0.02117 0.0212 0.08467 0.0423 0.02117 0.0212 0.04233 0.0212 0.02117 0.0212 0.29633-0.508-0.02117-0.0212-0.08467-0.0423h-0.02117l-0.04233-0.0212-0.02117-0.0212-0.08467-0.0423-0.02117-0.0212-0.04233-0.0212-0.02117-0.0212-0.04233-0.0212-0.02117-0.0212-0.04233-0.0212-0.02117-0.0212"/>
   <path d="m49.927 147.24 0.02117 0.0212 0.04233 0.0212 0.02117 0.0212 0.02117 0.0423 0.04233 0.0212 0.0635 0.0635 0.02117 0.0212 0.04233 0.0212 0.02117 0.0423 0.04233 0.0212 0.02117 0.0212 0.04233 0.0212 0.02117 0.0423 0.04233 0.0212 0.35983-0.46567-0.02117-0.0212-0.04233-0.0212-0.04233-0.0423-0.04233-0.0212-0.10583-0.10584-0.04233-0.0212-0.02117-0.0423-0.02117-0.0212-0.04233-0.0212-0.04233-0.0423"/>
   <path d="m49.144 146.33 0.02117 0.0423 0.02117 0.0212 0.0635 0.0635 0.04233 0.0847 0.04233 0.0212 0.02117 0.0423 0.02117 0.0212 0.02117 0.0423 0.04233 0.0212 0.02117 0.0423 0.02117 0.0212 0.02117 0.0423h0.02117l0.42333-0.381-0.02117-0.0423-0.10583-0.10583-0.02117-0.0423-0.04233-0.0423-0.02117-0.0423-0.02117-0.0212-0.0635-0.0635-0.02117-0.0423-0.02117-0.0212v-0.0212"/>
   <path d="m48.509 145.29v0.0212l0.04234 0.0846 0.02117 0.0212 0.02117 0.0423 0.04233 0.0847 0.02117 0.0212 0.02117 0.0423 0.04233 0.0847 0.02117 0.0212 0.04233 0.0847 0.02117 0.0212 0.48683-0.3175-0.04233-0.0847-0.02117-0.0212-0.02117-0.0423-0.02117-0.0212-0.04234-0.0846-0.02117-0.0212-0.02117-0.0423v-0.0212l-0.04233-0.0847-0.02117-0.0212-0.02117-0.0423"/>
   <path d="m48.064 144.15v0.0423l0.02117 0.0423v0.0423l0.04233 0.0847v0.0423l0.04233 0.0847v0.0212l0.04234 0.0846v0.0423l0.04233 0.0847 0.55033-0.21167h-0.02117v-0.0423l-0.02117-0.0423-0.02117-0.0212v-0.0423l-0.02117-0.0423v-0.0423l-0.02117-0.0212-0.02117-0.0423v-0.0423l-0.02117-0.0423v-0.0423l-0.02117-0.0212-0.02117-0.0423v-0.0423"/>
   <path d="m47.81 142.96v0.10583l0.02117 0.0423v0.0847l0.02117 0.0423v0.0847l0.02117 0.0423v0.10583l0.02117 0.0423v0.0635l0.5715-0.127v-0.0635l-0.02117-0.0423v-0.0635l-0.02117-0.0423v-0.0847l-0.02117-0.0423v-0.0847l-0.02117-0.0423v-0.0847"/>
   <path d="m47.747 142.03v0.33867l0.59267-0.0423v-0.0423l-0.02117-0.0423v-0.21167"/>
   <path d="m47.747 141.76v0.27517h0.5715v-0.21167l0.02117-0.0423"/>
   <path d="m47.895 140.55-0.02117 0.0423v0.0847l-0.02117 0.0423v0.0847l-0.02117 0.0423v0.0847l-0.02117 0.0635v0.0847l-0.02117 0.0423v0.0423l0.59267 0.0635v-0.16933l0.02117-0.0423v-0.0635l0.02117-0.0423v-0.0847l0.02117-0.0423v-0.0847l0.02117-0.0212"/>
   <path d="m48.233 139.39-0.02117 0.0212v0.0423l-0.04234 0.0846v0.0423l-0.04233 0.0847v0.0423l-0.04234 0.0846v0.0423l-0.02117 0.0423v0.0423l-0.02117 0.0423 0.55033 0.16933v-0.0212l0.02117-0.0212v-0.0423l0.04234-0.0846v-0.0423l0.02117-0.0212v-0.0423l0.04233-0.0847v-0.0423l0.02117-0.0212v-0.0423l0.02117-0.0423 0.02117-0.0212"/>
   <path d="m48.763 138.31-0.02117 0.0212-0.04233 0.0847-0.02117 0.0212-0.0635 0.127-0.02117 0.0212-0.08468 0.1692v0.0212l-0.02117 0.0423-0.02117 0.0212 0.52917 0.254v-0.0212l0.02117-0.0212 0.04234-0.0846 0.02117-0.0212 0.02117-0.0423v-0.0423l0.02117-0.0212 0.04233-0.0847 0.02117-0.0212 0.02117-0.0423 0.02117-0.0212 0.02117-0.0423 0.02117-0.0212"/>
   <path d="m49.461 137.31v0.0212l-0.08467 0.0847-0.02117 0.0423-0.0635 0.0635-0.02117 0.0423-0.02117 0.0212-0.02117 0.0423-0.04233 0.0212-0.04233 0.0847-0.02117 0.0212-0.02117 0.0423 0.46567 0.33867 0.02117-0.0423 0.02117-0.0212 0.02117-0.0423 0.02117-0.0212 0.02117-0.0423 0.04233-0.0212 0.02117-0.0423 0.04233-0.0423 0.02117-0.0423 0.02117-0.0212 0.02117-0.0423 0.04233-0.0212 0.02117-0.0212v-0.0212"/>
   <path d="m50.329 136.47-0.04233 0.0212-0.02117 0.0423-0.04233 0.0212-0.08467 0.0847-0.04233 0.0212-0.02117 0.0423-0.04233 0.0212-0.02117 0.0212-0.02117 0.0423-0.04233 0.0212-0.0635 0.0635 0.40217 0.42333 0.16933-0.16933 0.04233-0.0212 0.02117-0.0423 0.02117-0.0212 0.04233-0.0212 0.02117-0.0212 0.04233-0.0212 0.02117-0.0423 0.02117-0.0212h0.02117"/>
   <path d="m51.324 135.77-0.02117 0.0212-0.08467 0.0423-0.02117 0.0212-0.08467 0.0423-0.0635 0.0635-0.08467 0.0423-0.02117 0.0212-0.08467 0.0423-0.02117 0.0212h-0.02117l0.33867 0.48683 0.04233-0.0212 0.02117-0.0212 0.04233-0.0212 0.02117-0.0212 0.04233-0.0212 0.02117-0.0212 0.04233-0.0212 0.02117-0.0212 0.08467-0.0423 0.02117-0.0212 0.04233-0.0212 0.02117-0.0212 0.04233-0.0212"/>
   <path d="m52.446 135.26-0.08467 0.0423h-0.02117l-0.08467 0.0423h-0.04233l-0.127 0.0635h-0.04233l-0.02117 0.0212-0.127 0.0635h-0.02117l0.23283 0.52917h0.02117l0.08467-0.0423h0.02117l0.08467-0.0423 0.02117-0.0212h0.04233l0.08467-0.0423h0.02117l0.08467-0.0423h0.02117l0.04233-0.0212"/>
   <path d="m53.61 134.96-0.04233 0.0212h-0.08467l-0.04233 0.0212h-0.04233l-0.04233 0.0212h-0.08467l-0.04233 0.0212h-0.04233l-0.04233 0.0212h-0.04233l-0.04233 0.0212h-0.04233l0.14817 0.5715 0.04233-0.0212h0.04233l0.02117-0.0212h0.08467l0.04233-0.0212h0.08467l0.02117-0.0212h0.08467l0.04233-0.0212h0.08467"/>
   <path d="m54.668 134.88-0.04233 0.0212h-0.40217l0.04233 0.59266h0.04233l0.04233-0.0212h0.3175"/>
  </g>
  <g fill="#fff">
   <path d="m51.197 138.99h0.6985v-0.6985h-0.6985z"/>
   <path d="m52.615 138.99h0.6985v-0.6985h-0.6985z"/>
   <path d="m54.71 138.29h-0.6985v0.6985h0.6985z"/>
   <path d="m56.107 138.29h-0.6985v0.6985h0.6985z"/>
   <path d="m57.526 138.29h-0.71967v0.6985h0.71967z"/>
   <path d="m54.202 140.45h0.6985v-0.6985h-0.6985z"/>
   <path d="m54.202 141.84h0.6985v-0.6985h-0.6985z"/>
   <path d="m54.922 143.24v-0.35983l-0.02117-0.23284v-0.10583h-0.6985v0.10583l0.02117 0.23284v0.381"/>
   <path d="m54.943 144.64v-0.55033l-0.02117-0.14817-0.6985 0.0212 0.02117 0.127v0.5715"/>
   <path d="m55.028 146.03-0.02117-0.0212v-0.21166l-0.02117-0.0847v-0.381l-0.6985 0.0423v0.381l0.02117 0.0847v0.23283h0.02117"/>
  </g>
 </g>
</svg>
