<?xml version="1.0" encoding="UTF-8"?>
<!-- Created with Inkscape (http://www.inkscape.org/) -->
<svg width="15.082mm" height="19.04mm" version="1.1" viewBox="0 0 15.082 19.04" xmlns="http://www.w3.org/2000/svg">
 <defs>
  <clipPath id="clipPath455">
   <path transform="translate(2.5e-5 2.5e-5)" d="m242.22 468.32h42.78v54h-42.78z"/>
  </clipPath>
 </defs>
 <g transform="translate(-47.625 -154.78)">
  <path d="m47.662 173.78h15.007v-18.965h-15.007z" fill="#7e7e7e"/>
  <path transform="matrix(.35278 0 0 -.35278 -37.83 339.04)" d="m242.34 522.2h42.54v-53.76h-42.54z" clip-path="url(#clipPath455)" fill="none" stroke="#1e1917" stroke-linecap="round" stroke-linejoin="round" stroke-miterlimit="10" stroke-width=".211"/>
  <path d="m50.52 156.41h0.14817l0.04233 0.0212h0.0635l0.127 0.0635h0.04233l0.04233 0.0212 0.04233 0.0423 0.08467 0.0423 0.10583 0.10583 0.04233 0.0212 0.04233 0.0847 0.04233 0.0423 0.04234 0.0846 0.0635 0.127 0.02117 0.0423v0.0423l0.02117 0.0635v0.0847l0.02117 0.0635v0.10583l-0.02117 0.0423v0.10583l-0.02117 0.0423v0.0423l-0.02117 0.0635-0.10585 0.2115-0.04233 0.0423-0.02117 0.0423-0.0635 0.0635-0.04233 0.0212-0.02117 0.0423-0.04233 0.0212-0.04233 0.0423-0.08467 0.0423-0.16932 0.0848h-0.04233l-0.0635 0.0212h-0.04233l-0.04233 0.0212h-0.21167l-0.04233-0.0212h-0.04233l-0.0635-0.0212h-0.04233l-0.08467-0.0423-0.08466-0.0424-0.08467-0.0423-0.04233-0.0423-0.04233-0.0212-0.02117-0.0423-0.04233-0.0212-0.0635-0.0635-0.02117-0.0423-0.04233-0.0423-0.0635-0.127-0.04234-0.0846-0.02117-0.0635v-0.0423l-0.02117-0.0423v-0.10583l-0.02117-0.0423v-0.10583l0.02117-0.0635v-0.0847l0.02117-0.0635v-0.0423l0.04233-0.0847 0.02117-0.0423 0.0635-0.127 0.04233-0.0423 0.04233-0.0847 0.04233-0.0212 0.10583-0.10583 0.08467-0.0423 0.04233-0.0423 0.04233-0.0212h0.04233l0.127-0.0635h0.0635l0.04233-0.0212h0.14817" fill="#fff" fill-rule="evenodd" stroke="#1e1917" stroke-linecap="round" stroke-linejoin="round" stroke-miterlimit="10" stroke-width=".074436"/>
  <g fill="#7e7e7e" fill-rule="evenodd" stroke="#1e1917" stroke-linecap="round" stroke-linejoin="round" stroke-miterlimit="10" stroke-width=".074436">
   <path d="m50.52 158.69h0.04233l0.0635 0.0212h0.08467l0.0635 0.0212 0.04233 0.0212h0.04233l0.21167 0.10583 0.04233 0.0423 0.04233 0.0212 0.02117 0.0423 0.04233 0.0212 0.04233 0.0423 0.02117 0.0423 0.0635 0.0635 0.08468 0.1692 0.02117 0.0635 0.02117 0.0423v0.0423l0.02117 0.0423v0.10584l0.02117 0.0423v0.10583l-0.02117 0.0635v0.0847l-0.02117 0.0635v0.0423l-0.0635 0.127-0.02117 0.0635-0.02117 0.0423-0.0635 0.0635-0.04234 0.0846-0.04233 0.0212-0.04233 0.0423-0.02117 0.0423-0.08467 0.0423-0.04233 0.0423-0.16933 0.0847h-0.04233l-0.04233 0.0212h-0.0635l-0.04233 0.0212h-0.29633l-0.04233-0.0212h-0.0635l-0.04233-0.0212h-0.04233l-0.16933-0.0847-0.04233-0.0423-0.08467-0.0423-0.02117-0.0423-0.04233-0.0423-0.04233-0.0212-0.04234-0.0846-0.0635-0.0635-0.02117-0.0423-0.02117-0.0635-0.06351-0.1269v-0.0423l-0.02117-0.0635v-0.0847l-0.02117-0.0635v-0.10583l0.02117-0.0423v-0.10584l0.02117-0.0423v-0.0423l0.02117-0.0423 0.02117-0.0635 0.08467-0.16933 0.0635-0.0635 0.02117-0.0423 0.04233-0.0423 0.04233-0.0212 0.02117-0.0423 0.04233-0.0212 0.04233-0.0423 0.21167-0.10583h0.04233l0.04233-0.0212 0.0635-0.0212h0.08467l0.0635-0.0212h0.04233"/>
   <path d="m50.52 161h0.14817l0.04233 0.0212h0.0635l0.33867 0.16933 0.16933 0.16933 0.02117 0.0423 0.04233 0.0423 0.12702 0.2538v0.0635l0.02117 0.0423v0.10584l0.02117 0.0423v0.10583l-0.02117 0.0423v0.10583l-0.02117 0.0423v0.0635l-0.02117 0.0423-0.04233 0.0847-0.06351 0.1269-0.04233 0.0423-0.02117 0.0423-0.02117 0.0212-0.14817 0.14816-0.33867 0.16934h-0.10583l-0.04233 0.0212h-0.21167l-0.04233-0.0212h-0.10583l-0.33867-0.16934-0.14817-0.14816-0.02117-0.0212-0.02117-0.0423-0.04233-0.0423-0.04233-0.0847-0.04234-0.0846-0.04233-0.0847v-0.0635l-0.02117-0.0423v-0.10583l-0.02117-0.0423v-0.10583l0.02117-0.0423v-0.10584l0.02117-0.0423v-0.0635l0.127-0.254 0.04233-0.0423 0.02117-0.0423 0.16933-0.16933 0.33867-0.16933h0.0635l0.04233-0.0212h0.14817"/>
   <path d="m50.52 163.28 0.04233 0.0212h0.10583l0.04233 0.0212h0.0635l0.04233 0.0212h0.04233l0.16933 0.0847 0.04233 0.0423 0.08467 0.0423 0.02117 0.0423 0.04233 0.0212 0.04233 0.0423 0.04233 0.0847 0.04233 0.0212 0.06351 0.1269 0.02117 0.0635 0.04234 0.0846v0.0423l0.02117 0.0423v0.10584l0.02117 0.0635v0.10583l-0.02117 0.0423v0.10584l-0.02117 0.0423v0.0423l-0.02117 0.0423-0.02117 0.0635-0.08468 0.1692-0.04233 0.0212-0.04233 0.0847-0.04233 0.0423-0.04233 0.0212-0.02117 0.0423-0.04233 0.0212-0.04233 0.0423-0.21167 0.10583h-0.04233l-0.04233 0.0212-0.0635 0.0212h-0.08467l-0.0635 0.0212h-0.08467l-0.0635-0.0212h-0.08467l-0.0635-0.0212-0.04233-0.0212h-0.04233l-0.21167-0.10583-0.04233-0.0423-0.04233-0.0212-0.02117-0.0423-0.04233-0.0212-0.04233-0.0423-0.04233-0.0847-0.04233-0.0212-0.04233-0.0847-0.04234-0.0846-0.02117-0.0635-0.02117-0.0423v-0.0423l-0.02117-0.0423v-0.10584l-0.02117-0.0423v-0.10583l0.02117-0.0635v-0.10584l0.02117-0.0423v-0.0423l0.04233-0.0847 0.02117-0.0635 0.0635-0.127 0.04233-0.0212 0.04233-0.0847 0.04233-0.0423 0.04233-0.0212 0.02117-0.0423 0.08467-0.0423 0.04233-0.0423 0.16933-0.0847h0.04233l0.04233-0.0212h0.0635l0.04233-0.0212h0.10583l0.04233-0.0212"/>
   <path d="m50.52 165.59h0.10583l0.04233 0.0212h0.04233l0.0635 0.0212h0.04233l0.254 0.127 0.04233 0.0423 0.04233 0.0212 0.02117 0.0212 0.10583 0.10583 0.02117 0.0423 0.04233 0.0423 0.06351 0.1269 0.04233 0.0847 0.02117 0.0635v0.0423l0.02117 0.0423v0.10584l0.02117 0.0423v0.10583l-0.02117 0.0635v0.0847l-0.02117 0.0635v0.0423l-0.02117 0.0423-0.0635 0.127-0.04234 0.0846-0.04233 0.0423-0.04234 0.0846-0.04233 0.0212-0.10583 0.10583-0.127 0.0635-0.04233 0.0423h-0.04233l-0.127 0.0635h-0.0635l-0.04233 0.0212h-0.29633l-0.04233-0.0212h-0.0635l-0.127-0.0635h-0.04233l-0.04233-0.0423-0.127-0.0635-0.10583-0.10583-0.04233-0.0212-0.04234-0.0846-0.04233-0.0423-0.0635-0.127-0.02117-0.0423-0.04233-0.0847v-0.0423l-0.02117-0.0635v-0.0847l-0.02117-0.0635v-0.10583l0.02117-0.0423v-0.10584l0.02117-0.0423v-0.0423l0.02117-0.0635 0.06351-0.1269 0.04233-0.0847 0.04233-0.0423 0.02117-0.0423 0.127-0.127 0.04233-0.0212 0.04233-0.0423 0.254-0.127h0.04233l0.0635-0.0212h0.04233l0.04233-0.0212h0.10583"/>
   <path d="m50.52 167.9h0.14817l0.04233 0.0212h0.0635l0.08467 0.0423h0.04233l0.08467 0.0423 0.04233 0.0423 0.08467 0.0423 0.10583 0.10583 0.04233 0.0212 0.04234 0.0846 0.04233 0.0423 0.12702 0.2538v0.0423l0.02117 0.0635v0.0847l0.02117 0.0635v0.10583l-0.02117 0.0423v0.10583l-0.02117 0.0423v0.0423l-0.02117 0.0635-0.10585 0.2115-0.0635 0.0635-0.02117 0.0423-0.04233 0.0423-0.04233 0.0212-0.02117 0.0423-0.04233 0.0212-0.04233 0.0423-0.254 0.127h-0.04233l-0.0635 0.0212h-0.04233l-0.04233 0.0212h-0.21167l-0.04233-0.0212h-0.04233l-0.0635-0.0212h-0.04233l-0.254-0.127-0.04233-0.0423-0.04233-0.0212-0.02117-0.0423-0.04233-0.0212-0.04233-0.0423-0.02117-0.0423-0.0635-0.0635-0.10583-0.21166-0.02117-0.0635v-0.0423l-0.02117-0.0423v-0.10583l-0.02117-0.0423v-0.10583l0.02117-0.0635v-0.0847l0.02117-0.0635v-0.0423l0.127-0.254 0.04233-0.0423 0.04234-0.0846 0.04233-0.0212 0.10583-0.10583 0.08467-0.0423 0.04233-0.0423 0.08467-0.0423h0.04233l0.08467-0.0423h0.0635l0.04233-0.0212h0.14817"/>
   <path d="m50.52 170.19h0.04233l0.0635 0.0212h0.08467l0.0635 0.0212h0.04233l0.254 0.127 0.04233 0.0423 0.04233 0.0212 0.02117 0.0423 0.04233 0.0212 0.04233 0.0423 0.02117 0.0423 0.0635 0.0635 0.04234 0.0846 0.0635 0.127 0.02117 0.0635v0.0423l0.02117 0.0423v0.10584l0.02117 0.0423v0.10583l-0.02117 0.0635v0.0847l-0.02117 0.0635v0.0423l-0.02117 0.0423-0.04233 0.0847-0.06351 0.1269-0.04233 0.0423-0.04233 0.0847-0.04233 0.0212-0.04233 0.0423-0.02117 0.0423-0.127 0.0635-0.04233 0.0423-0.08467 0.0423h-0.04233l-0.08467 0.0423h-0.0635l-0.04233 0.0212h-0.29633l-0.04233-0.0212h-0.0635l-0.08467-0.0423h-0.04233l-0.08467-0.0423-0.04233-0.0423-0.127-0.0635-0.02117-0.0423-0.04233-0.0423-0.04233-0.0212-0.04233-0.0847-0.04233-0.0423-0.04233-0.0847-0.04234-0.0846-0.04233-0.0847v-0.0423l-0.02117-0.0635v-0.0847l-0.02117-0.0635v-0.10583l0.02117-0.0423v-0.10584l0.02117-0.0423v-0.0423l0.02117-0.0635 0.04234-0.0846 0.0635-0.127 0.0635-0.0635 0.02117-0.0423 0.04233-0.0423 0.04233-0.0212 0.02117-0.0423 0.04233-0.0212 0.04233-0.0423 0.254-0.127h0.04233l0.0635-0.0212h0.08467l0.0635-0.0212h0.04233"/>
  </g>
  <path d="m52.848 156.41h0.14817l0.04233 0.0212h0.04233l0.04233 0.0212 0.0635 0.0212 0.04233 0.0212h0.04233l0.04233 0.0212 0.04233 0.0423 0.04233 0.0212 0.0635 0.0635 0.04233 0.0212 0.04233 0.0423 0.02117 0.0212 0.04233 0.0423 0.0635 0.127 0.04233 0.0423 0.04233 0.0847v0.0423l0.04234 0.0846v0.0635l0.02117 0.0423v0.3175l-0.02117 0.0423v0.0423l-0.02117 0.0423-0.02117 0.0635v0.0423l-0.04234 0.0846-0.04233 0.0423-0.0635 0.127-0.04233 0.0212-0.02117 0.0423-0.04233 0.0212-0.04233 0.0423-0.04233 0.0212-0.02117 0.0423-0.08467 0.0423-0.12699 0.0636-0.0635 0.0212h-0.04233l-0.04233 0.0212h-0.04233l-0.0635 0.0212h-0.1905l-0.0635-0.0212h-0.04233l-0.04233-0.0212h-0.04233l-0.0635-0.0212-0.12699-0.0636-0.08467-0.0423-0.02117-0.0423-0.04233-0.0212-0.16933-0.16933-0.04233-0.0847-0.08468-0.1692-0.02117-0.0635-0.02117-0.0423v-0.0423l-0.02117-0.0423v-0.3175l0.02117-0.0423v-0.0635l0.04234-0.0846 0.0635-0.127 0.02117-0.0423 0.04233-0.0847 0.04233-0.0423 0.02117-0.0423 0.04233-0.0212 0.02117-0.0423 0.04233-0.0212 0.0635-0.0635 0.04233-0.0212 0.04233-0.0423 0.04233-0.0212h0.04233l0.04233-0.0212 0.0635-0.0212 0.04233-0.0212h0.04233l0.04233-0.0212h0.16933" fill="#fff" fill-rule="evenodd" stroke="#1e1917" stroke-linecap="round" stroke-linejoin="round" stroke-miterlimit="10" stroke-width=".074436"/>
  <g fill="#7e7e7e" fill-rule="evenodd" stroke="#1e1917" stroke-linecap="round" stroke-linejoin="round" stroke-miterlimit="10" stroke-width=".074436">
   <path d="m52.848 158.69h0.04233l0.04233 0.0212h0.10583l0.08467 0.0423h0.0635l0.21167 0.10583 0.02117 0.0423 0.04233 0.0212 0.04233 0.0423 0.04233 0.0212 0.02117 0.0423 0.0635 0.0635 0.04233 0.0847 0.04233 0.0423 0.04234 0.0846v0.0635l0.04234 0.0846v0.0423l0.02117 0.0635v0.29634l-0.02117 0.0423v0.0635l-0.04234 0.0846v0.0423l-0.02117 0.0423-0.02117 0.0635-0.0635 0.0635-0.04233 0.0847-0.04233 0.0423-0.02117 0.0212-0.08467 0.0847-0.04233 0.0212-0.0635 0.0635-0.16933 0.0847h-0.0635l-0.04233 0.0212h-0.04233l-0.04233 0.0212h-0.3175l-0.04233-0.0212h-0.04233l-0.04233-0.0212h-0.0635l-0.16933-0.0847-0.04233-0.0423-0.02117-0.0212-0.04233-0.0212-0.04233-0.0423-0.02117-0.0423-0.04233-0.0212-0.02117-0.0423-0.04233-0.0423-0.02117-0.0423-0.02117-0.0212-0.02117-0.0423-0.02117-0.0635-0.08467-0.16933v-0.0635l-0.02117-0.0423v-0.29634l0.02117-0.0635v-0.0423l0.04234-0.0846 0.02117-0.0635 0.06351-0.1269 0.04233-0.0847 0.04233-0.0212 0.02117-0.0423 0.10583-0.10584 0.04233-0.0212 0.02117-0.0423 0.21167-0.10583h0.0635l0.08467-0.0423h0.10583l0.04233-0.0212h0.0635"/>
   <path d="m52.848 161h0.14817l0.04233 0.0212h0.04233l0.04233 0.0212 0.0635 0.0212 0.21167 0.10583 0.0635 0.0635 0.04233 0.0212 0.04233 0.0423 0.02117 0.0423 0.04233 0.0212 0.06351 0.1269 0.04233 0.0423 0.04234 0.0846v0.0423l0.02117 0.0423 0.02117 0.0635v0.0423l0.02117 0.0423v0.3175l-0.02117 0.0423v0.0423l-0.02117 0.0635-0.02117 0.0423v0.0423l-0.04234 0.0846-0.04233 0.0423-0.0635 0.127-0.04233 0.0212-0.02117 0.0423-0.04233 0.0423-0.04233 0.0212-0.0635 0.0635-0.21167 0.10583-0.0635 0.0212-0.04233 0.0212h-0.08467l-0.0635 0.0212h-0.1905l-0.0635-0.0212h-0.08467l-0.04233-0.0212-0.0635-0.0212-0.21167-0.10583-0.0635-0.0635-0.04233-0.0212-0.02117-0.0423-0.04233-0.0423-0.02117-0.0212-0.04233-0.0423-0.04233-0.0847-0.04234-0.0846-0.04233-0.0847-0.02117-0.0423-0.02117-0.0635v-0.0423l-0.02117-0.0423v-0.3175l0.02117-0.0423v-0.0423l0.02117-0.0635 0.14819-0.2961 0.10583-0.10584 0.02117-0.0423 0.04233-0.0212 0.0635-0.0635 0.21167-0.10583 0.0635-0.0212 0.04233-0.0212h0.04233l0.04233-0.0212h0.16933"/>
   <path d="m52.848 163.28 0.04233 0.0212h0.10583l0.04233 0.0212h0.04233l0.04233 0.0212h0.0635l0.16933 0.0847 0.0635 0.0635 0.04233 0.0212 0.04233 0.0423 0.04233 0.0212 0.02117 0.0423 0.04233 0.0423 0.02117 0.0423 0.02117 0.0212 0.02117 0.0423 0.04233 0.0423 0.02117 0.0423 0.02117 0.0635v0.0423l0.04234 0.0846v0.0423l0.02117 0.0635v0.29634l-0.02117 0.0635v0.0423l-0.04234 0.0846v0.0635l-0.04234 0.0846-0.04233 0.0423-0.02117 0.0423-0.02117 0.0212-0.02117 0.0423-0.04233 0.0423-0.02117 0.0423-0.04233 0.0212-0.04233 0.0423-0.04233 0.0212-0.02117 0.0423-0.21167 0.10583h-0.0635l-0.08467 0.0423h-0.10583l-0.04233 0.0212h-0.10583l-0.04233-0.0212h-0.10583l-0.08467-0.0423h-0.0635l-0.21167-0.10583-0.02117-0.0423-0.04233-0.0212-0.10583-0.10584-0.02117-0.0423-0.0635-0.0635-0.08468-0.1692-0.02117-0.0635-0.04234-0.0846v-0.0423l-0.02117-0.0635v-0.29634l0.02117-0.0635v-0.0423l0.06351-0.1269 0.02117-0.0635 0.06351-0.1269 0.02117-0.0212 0.04233-0.0423 0.02117-0.0423 0.10583-0.10584 0.04233-0.0212 0.0635-0.0635 0.16933-0.0847h0.0635l0.04233-0.0212h0.04233l0.04233-0.0212h0.10583l0.0635-0.0212"/>
   <path d="m52.848 165.59h0.08467l0.0635 0.0212h0.04233l0.04233 0.0212h0.04233l0.0635 0.0212 0.21167 0.10583 0.02117 0.0423 0.08467 0.0423 0.04233 0.0423 0.02117 0.0423 0.04233 0.0212 0.0635 0.127 0.04233 0.0423 0.04234 0.0846v0.0423l0.02117 0.0635 0.02117 0.0423v0.0423l0.02117 0.0423v0.3175l-0.02117 0.0423v0.0635l-0.04234 0.0846v0.0423l-0.04233 0.0847-0.04233 0.0423-0.04233 0.0847-0.02117 0.0423-0.04233 0.0423-0.02117 0.0212-0.04233 0.0423-0.04233 0.0212-0.04233 0.0423-0.02117 0.0212-0.08467 0.0423-0.04233 0.0423h-0.04233l-0.04233 0.0212-0.0635 0.0212-0.04233 0.0212h-0.04233l-0.04233 0.0212h-0.3175l-0.04233-0.0212h-0.04233l-0.04233-0.0212-0.0635-0.0212-0.04233-0.0212h-0.04233l-0.04233-0.0423-0.08467-0.0423-0.0635-0.0635-0.04233-0.0212-0.02117-0.0423-0.04233-0.0212-0.02117-0.0423-0.04233-0.0423-0.04233-0.0847-0.02117-0.0423-0.0635-0.127-0.04234-0.0846v-0.0635l-0.02117-0.0423v-0.3175l0.02117-0.0423v-0.0423l0.02117-0.0423 0.02117-0.0635 0.04233-0.0847 0.04234-0.0846 0.04233-0.0847 0.10583-0.10584 0.02117-0.0423 0.08467-0.0423 0.02117-0.0423 0.21167-0.10583 0.0635-0.0212h0.04233l0.04233-0.0212h0.04233l0.0635-0.0212h0.10583"/>
   <path d="m52.848 167.9h0.14817l0.04233 0.0212h0.04233l0.04233 0.0212 0.0635 0.0212h0.04233l0.08467 0.0423 0.04233 0.0423 0.04233 0.0212 0.0635 0.0635 0.04233 0.0212 0.04233 0.0423 0.02117 0.0212 0.04233 0.0423 0.02117 0.0423 0.04233 0.0847 0.04233 0.0423 0.04234 0.0846v0.0423l0.04234 0.0846v0.0635l0.02117 0.0423v0.29633l-0.02117 0.0635v0.0423l-0.02117 0.0423-0.02117 0.0635v0.0423l-0.04234 0.0846-0.04233 0.0423-0.04233 0.0847-0.0635 0.0635-0.02117 0.0423-0.04233 0.0212-0.04233 0.0423-0.04233 0.0212-0.02117 0.0423-0.21167 0.10583-0.0635 0.0212h-0.04233l-0.04233 0.0212h-0.04233l-0.0635 0.0212h-0.1905l-0.0635-0.0212h-0.04233l-0.04233-0.0212h-0.04233l-0.0635-0.0212-0.21167-0.10583-0.02117-0.0423-0.04233-0.0212-0.10583-0.10583-0.02117-0.0423-0.04233-0.0212-0.04233-0.0847-0.08468-0.1692-0.02117-0.0635-0.02117-0.0423v-0.0423l-0.02117-0.0635v-0.29633l0.02117-0.0423v-0.0635l0.12702-0.2538 0.04233-0.0847 0.04233-0.0423 0.02117-0.0423 0.04233-0.0212 0.02117-0.0423 0.04233-0.0212 0.0635-0.0635 0.04233-0.0212 0.04233-0.0423 0.08467-0.0423h0.04233l0.0635-0.0212 0.04233-0.0212h0.04233l0.04233-0.0212h0.16933"/>
   <path d="m52.848 170.19h0.04233l0.04233 0.0212h0.10583l0.04233 0.0212h0.04233l0.0635 0.0212 0.21167 0.10583 0.02117 0.0423 0.04233 0.0212 0.04233 0.0423 0.04233 0.0212 0.02117 0.0423 0.0635 0.0635 0.04234 0.0846 0.04233 0.0423 0.04233 0.0847v0.0423l0.02117 0.0635 0.02117 0.0423v0.0423l0.02117 0.0635v0.29634l-0.02117 0.0423v0.0635l-0.04234 0.0846v0.0423l-0.04234 0.0846-0.04233 0.0423-0.0635 0.127-0.04233 0.0423-0.02117 0.0212-0.08467 0.0847-0.04233 0.0212-0.02117 0.0212-0.04233 0.0212-0.04233 0.0423-0.08467 0.0423h-0.04233l-0.0635 0.0212-0.04233 0.0212h-0.04233l-0.04233 0.0212h-0.3175l-0.04233-0.0212h-0.04233l-0.04233-0.0212-0.0635-0.0212h-0.04233l-0.08467-0.0423-0.04233-0.0423-0.04233-0.0212-0.02117-0.0212-0.04233-0.0212-0.04233-0.0423-0.02117-0.0423-0.04233-0.0212-0.02117-0.0423-0.04233-0.0423-0.04233-0.0847-0.04234-0.0846-0.04233-0.0847-0.04234-0.0846v-0.0635l-0.02117-0.0423v-0.29634l0.02117-0.0635v-0.0423l0.02117-0.0423 0.02117-0.0635 0.0635-0.127 0.06351-0.1269 0.04233-0.0212 0.02117-0.0423 0.10583-0.10584 0.04233-0.0212 0.02117-0.0423 0.21167-0.10583 0.0635-0.0212h0.04233l0.04233-0.0212h0.10583l0.04233-0.0212h0.0635"/>
  </g>
  <path d="m55.155 156.41h0.14817l0.04233 0.0212h0.0635l0.127 0.0635h0.04233l0.04233 0.0212 0.04233 0.0423 0.08467 0.0423 0.10583 0.10583 0.04233 0.0212 0.04234 0.0846 0.04233 0.0423 0.127 0.254v0.0423l0.02117 0.0635v0.0847l0.02117 0.0635v0.10583l-0.02117 0.0423v0.10583l-0.02117 0.0423v0.0423l-0.02117 0.0635-0.04234 0.0846-0.0635 0.127-0.04233 0.0423-0.02117 0.0423-0.02117 0.0212-0.04233 0.0423-0.04233 0.0212-0.02117 0.0423-0.04233 0.0212-0.04233 0.0423-0.08467 0.0423-0.16932 0.0848h-0.04233l-0.0635 0.0212h-0.04233l-0.04233 0.0212h-0.21167l-0.04233-0.0212h-0.04233l-0.0635-0.0212h-0.04233l-0.16932-0.0848-0.08467-0.0423-0.04233-0.0423-0.04233-0.0212-0.02117-0.0423-0.04233-0.0212-0.0635-0.0635-0.02117-0.0423-0.04233-0.0423-0.02117-0.0423-0.04233-0.0847-0.04234-0.0846v-0.0635l-0.04233-0.0847v-0.10583l-0.02117-0.0423v-0.10583l0.02117-0.0635v-0.0847l0.02117-0.0635 0.02117-0.0423v-0.0423l0.08467-0.16934 0.02117-0.0423 0.04233-0.0423 0.04233-0.0847 0.04233-0.0212 0.10583-0.10583 0.08467-0.0423 0.04233-0.0423 0.04233-0.0212h0.04233l0.127-0.0635h0.0635l0.04233-0.0212h0.14817" fill="#fff" fill-rule="evenodd" stroke="#1e1917" stroke-linecap="round" stroke-linejoin="round" stroke-miterlimit="10" stroke-width=".074436"/>
  <g fill="#7e7e7e" fill-rule="evenodd" stroke="#1e1917" stroke-linecap="round" stroke-linejoin="round" stroke-miterlimit="10" stroke-width=".074436">
   <path d="m55.155 158.69h0.04233l0.0635 0.0212h0.08467l0.0635 0.0212 0.04233 0.0212h0.04233l0.21167 0.10583 0.04233 0.0423 0.04233 0.0212 0.02117 0.0423 0.04233 0.0212 0.04233 0.0423 0.02117 0.0423 0.0635 0.0635 0.0635 0.127 0.02117 0.0423 0.02117 0.0635 0.02117 0.0423v0.0423l0.02117 0.0423v0.10584l0.02117 0.0423v0.10583l-0.02117 0.0635v0.0847l-0.02117 0.0635v0.0423l-0.02117 0.0423-0.04233 0.0847-0.02117 0.0635-0.02117 0.0423-0.0635 0.0635-0.04234 0.0846-0.04233 0.0212-0.04233 0.0423-0.02117 0.0423-0.08467 0.0423-0.04233 0.0423-0.16933 0.0847h-0.04233l-0.04233 0.0212h-0.0635l-0.04233 0.0212h-0.29633l-0.04233-0.0212h-0.0635l-0.04233-0.0212h-0.04233l-0.16933-0.0847-0.04233-0.0423-0.08467-0.0423-0.02117-0.0423-0.04233-0.0423-0.04233-0.0212-0.04234-0.0846-0.04233-0.0423-0.02117-0.0212-0.02117-0.0423-0.02117-0.0635-0.04233-0.0847v-0.0423l-0.02117-0.0423-0.02117-0.0635v-0.0847l-0.02117-0.0635v-0.10583l0.02117-0.0423v-0.10584l0.04234-0.0846v-0.0423l0.02117-0.0635 0.02117-0.0423 0.04233-0.0847 0.02117-0.0423 0.0635-0.0635 0.02117-0.0423 0.04233-0.0423 0.04233-0.0212 0.02117-0.0423 0.04233-0.0212 0.04233-0.0423 0.21167-0.10583h0.04233l0.04233-0.0212 0.0635-0.0212h0.08467l0.0635-0.0212h0.04233"/>
   <path d="m55.155 161h0.14817l0.04233 0.0212h0.0635l0.33867 0.16933 0.14817 0.14817 0.02117 0.0212 0.02117 0.0423 0.04233 0.0423 0.0635 0.127 0.02117 0.0423 0.04233 0.0847v0.0635l0.02117 0.0423v0.10584l0.02117 0.0423v0.10583l-0.02117 0.0423v0.10583l-0.02117 0.0423v0.0635l-0.0635 0.127-0.02117 0.0423-0.04233 0.0847-0.04233 0.0423-0.02117 0.0423-0.16933 0.16933-0.33867 0.16934h-0.10583l-0.04233 0.0212h-0.21167l-0.04233-0.0212h-0.10583l-0.33867-0.16934-0.14817-0.14816-0.02117-0.0212-0.02117-0.0423-0.04233-0.0423-0.06351-0.1269-0.04233-0.0847v-0.0423l-0.02117-0.0635-0.02117-0.0423v-0.10583l-0.02117-0.0423v-0.10583l0.02117-0.0423v-0.10584l0.02117-0.0423 0.02117-0.0635v-0.0423l0.04234-0.0846 0.04233-0.0847 0.02117-0.0423 0.04233-0.0423 0.02117-0.0423 0.16933-0.16933 0.33867-0.16933h0.0635l0.04233-0.0212h0.14817"/>
   <path d="m55.155 163.28 0.04233 0.0212h0.10583l0.04233 0.0212h0.0635l0.04233 0.0212h0.04233l0.16933 0.0847 0.04233 0.0423 0.08467 0.0423 0.02117 0.0423 0.04233 0.0212 0.04233 0.0423 0.04234 0.0846 0.04233 0.0212 0.0635 0.127 0.02117 0.0635 0.04233 0.0847v0.0423l0.02117 0.0423v0.10584l0.02117 0.0635v0.10583l-0.02117 0.0423v0.10584l-0.02117 0.0423v0.0423l-0.02117 0.0423-0.02117 0.0635-0.04234 0.0846-0.04233 0.0847-0.04233 0.0212-0.04234 0.0846-0.04233 0.0423-0.04233 0.0212-0.02117 0.0423-0.04233 0.0212-0.04233 0.0423-0.21167 0.10583h-0.04233l-0.04233 0.0212-0.0635 0.0212h-0.08467l-0.0635 0.0212h-0.08467l-0.0635-0.0212h-0.08467l-0.0635-0.0212-0.04233-0.0212h-0.04233l-0.21167-0.10583-0.04233-0.0423-0.04233-0.0212-0.02117-0.0423-0.04233-0.0212-0.04233-0.0423-0.04233-0.0847-0.04233-0.0212-0.08468-0.1692-0.02117-0.0635v-0.0423l-0.04234-0.0846v-0.10584l-0.02117-0.0423v-0.10583l0.02117-0.0635v-0.10584l0.04234-0.0846v-0.0423l0.02117-0.0423 0.02117-0.0635 0.04233-0.0847 0.02117-0.0423 0.04233-0.0212 0.04233-0.0847 0.04233-0.0423 0.04233-0.0212 0.02117-0.0423 0.08467-0.0423 0.04233-0.0423 0.16933-0.0847h0.04233l0.04233-0.0212h0.0635l0.04233-0.0212h0.10583l0.04233-0.0212"/>
   <path d="m55.155 165.59h0.10583l0.04233 0.0212h0.04233l0.0635 0.0212h0.04233l0.254 0.127 0.04233 0.0423 0.04233 0.0212 0.02117 0.0212 0.08467 0.0847 0.02117 0.0212 0.02117 0.0423 0.04233 0.0423 0.04233 0.0847 0.02117 0.0423 0.04233 0.0847 0.02117 0.0635v0.0423l0.02117 0.0423v0.10584l0.02117 0.0423v0.10583l-0.02117 0.0635v0.0847l-0.02117 0.0635v0.0423l-0.127 0.254-0.04233 0.0423-0.04234 0.0846-0.04233 0.0212-0.10583 0.10583-0.127 0.0635-0.04233 0.0423h-0.04233l-0.127 0.0635h-0.0635l-0.04233 0.0212h-0.29633l-0.04233-0.0212h-0.0635l-0.127-0.0635h-0.04233l-0.04233-0.0423-0.127-0.0635-0.10583-0.10583-0.04233-0.0212-0.04234-0.0846-0.04233-0.0423-0.02117-0.0423-0.08467-0.16933v-0.0423l-0.02117-0.0423-0.02117-0.0635v-0.0847l-0.02117-0.0635v-0.10583l0.02117-0.0423v-0.10584l0.04234-0.0846v-0.0635l0.04233-0.0847 0.06351-0.1269 0.04233-0.0423 0.02117-0.0423 0.10583-0.10583 0.02117-0.0212 0.04233-0.0212 0.04233-0.0423 0.254-0.127h0.04233l0.0635-0.0212h0.04233l0.04233-0.0212h0.10583"/>
   <path d="m55.155 167.9h0.14817l0.04233 0.0212h0.0635l0.08467 0.0423h0.04233l0.08467 0.0423 0.04233 0.0423 0.08467 0.0423 0.10583 0.10583 0.04233 0.0212 0.04234 0.0846 0.04233 0.0423 0.0635 0.127 0.02117 0.0423 0.04233 0.0847v0.0423l0.02117 0.0635v0.0847l0.02117 0.0635v0.10583l-0.02117 0.0423v0.10583l-0.02117 0.0423v0.0423l-0.02117 0.0635-0.04234 0.0846-0.0635 0.127-0.0635 0.0635-0.02117 0.0423-0.04233 0.0423-0.04233 0.0212-0.02117 0.0423-0.04233 0.0212-0.04233 0.0423-0.254 0.127h-0.04233l-0.0635 0.0212h-0.04233l-0.04233 0.0212h-0.21167l-0.04233-0.0212h-0.04233l-0.0635-0.0212h-0.04233l-0.254-0.127-0.04233-0.0423-0.04233-0.0212-0.02117-0.0423-0.04233-0.0212-0.04233-0.0423-0.02117-0.0423-0.0635-0.0635-0.02117-0.0423-0.04233-0.0847-0.04234-0.0846v-0.0635l-0.04233-0.0847v-0.10583l-0.02117-0.0423v-0.10583l0.02117-0.0635v-0.0847l0.02117-0.0635 0.02117-0.0423v-0.0423l0.04234-0.0846 0.04233-0.0847 0.02117-0.0423 0.04233-0.0423 0.04234-0.0846 0.04233-0.0212 0.10583-0.10583 0.08467-0.0423 0.04233-0.0423 0.08467-0.0423h0.04233l0.08467-0.0423h0.0635l0.04233-0.0212h0.14817"/>
   <path d="m55.155 170.19h0.04233l0.0635 0.0212h0.08467l0.0635 0.0212h0.04233l0.254 0.127 0.04233 0.0423 0.04233 0.0212 0.02117 0.0423 0.04233 0.0212 0.04233 0.0423 0.02117 0.0423 0.0635 0.0635 0.10583 0.21167 0.02117 0.0635v0.0423l0.02117 0.0423v0.10584l0.02117 0.0423v0.10583l-0.02117 0.0635v0.0847l-0.02117 0.0635v0.0423l-0.0635 0.127-0.02117 0.0423-0.04233 0.0847-0.04233 0.0423-0.04234 0.0846-0.04233 0.0212-0.04233 0.0423-0.02117 0.0423-0.127 0.0635-0.04233 0.0423-0.08467 0.0423h-0.04233l-0.08467 0.0423h-0.0635l-0.04233 0.0212h-0.29633l-0.04233-0.0212h-0.0635l-0.08467-0.0423h-0.04233l-0.08467-0.0423-0.04233-0.0423-0.127-0.0635-0.02117-0.0423-0.04233-0.0423-0.04233-0.0212-0.04233-0.0847-0.04233-0.0423-0.06351-0.1269-0.04233-0.0847v-0.0423l-0.02117-0.0423-0.02117-0.0635v-0.0847l-0.02117-0.0635v-0.10583l0.02117-0.0423v-0.10584l0.04233-0.0847v-0.0635l0.08467-0.16934 0.02117-0.0423 0.0635-0.0635 0.02117-0.0423 0.04233-0.0423 0.04233-0.0212 0.02117-0.0423 0.04233-0.0212 0.04233-0.0423 0.254-0.127h0.04233l0.0635-0.0212h0.08467l0.0635-0.0212h0.04233"/>
  </g>
  <path d="m57.483 156.41h0.14817l0.04233 0.0212h0.04233l0.04233 0.0212 0.0635 0.0212 0.04233 0.0212h0.04233l0.04233 0.0212 0.04233 0.0423 0.08467 0.0423 0.02117 0.0423 0.04233 0.0212 0.04233 0.0423 0.02117 0.0212 0.04233 0.0423 0.04233 0.0847 0.02117 0.0423 0.04233 0.0423 0.04233 0.0847v0.0423l0.04233 0.0847v0.0635l0.02117 0.0423v0.3175l-0.02117 0.0423v0.0423l-0.02117 0.0423-0.02117 0.0635v0.0423l-0.04234 0.0846-0.04233 0.0423-0.02117 0.0423-0.04233 0.0847-0.04233 0.0212-0.02117 0.0423-0.04233 0.0212-0.10583 0.10583-0.08467 0.0423-0.12699 0.0636-0.0635 0.0212h-0.04233l-0.04233 0.0212h-0.04233l-0.0635 0.0212h-0.1905l-0.0635-0.0212h-0.04233l-0.04233-0.0212h-0.04233l-0.04233-0.0212-0.0635-0.0212-0.12699-0.0636-0.0635-0.0635-0.04233-0.0212-0.16933-0.16933-0.08467-0.16934-0.04234-0.0846-0.02117-0.0635-0.02117-0.0423v-0.0423l-0.02117-0.0423v-0.3175l0.02117-0.0423v-0.0635l0.16933-0.33866 0.04233-0.0423 0.02117-0.0423 0.04233-0.0212 0.02117-0.0423 0.04233-0.0212 0.04233-0.0423 0.04233-0.0212 0.0635-0.0635 0.04233-0.0212h0.04233l0.0635-0.0212 0.08467-0.0423h0.04233l0.04233-0.0212h0.16933" fill="#fff" fill-rule="evenodd" stroke="#1e1917" stroke-linecap="round" stroke-linejoin="round" stroke-miterlimit="10" stroke-width=".074436"/>
  <g fill="#7e7e7e" fill-rule="evenodd" stroke="#1e1917" stroke-linecap="round" stroke-linejoin="round" stroke-miterlimit="10" stroke-width=".074436">
   <path d="m57.483 158.69h0.04233l0.04233 0.0212h0.10583l0.08467 0.0423h0.0635l0.21167 0.10583 0.10583 0.10584 0.04233 0.0212 0.02117 0.0423 0.0635 0.0635 0.04234 0.0846 0.04233 0.0423 0.04234 0.0846v0.0635l0.04233 0.0847v0.0423l0.02117 0.0635v0.29634l-0.02117 0.0423v0.0635l-0.04234 0.0846v0.0423l-0.02117 0.0423-0.02117 0.0635-0.04233 0.0423-0.02117 0.0212-0.04233 0.0847-0.16933 0.16933-0.04233 0.0212-0.04233 0.0423-0.16933 0.0847h-0.0635l-0.04233 0.0212h-0.04233l-0.04233 0.0212h-0.3175l-0.04233-0.0212h-0.04233l-0.04233-0.0212h-0.04233l-0.0635-0.0212-0.127-0.0635-0.02117-0.0423-0.08467-0.0423-0.04233-0.0423-0.02117-0.0423-0.04233-0.0212-0.02117-0.0423-0.04233-0.0423-0.02117-0.0423-0.02117-0.0212-0.02117-0.0423-0.02117-0.0635-0.04233-0.0847-0.04234-0.0846v-0.0635l-0.02117-0.0423v-0.29634l0.02117-0.0635v-0.0423l0.04233-0.0847 0.02117-0.0635 0.02117-0.0423 0.08467-0.16933 0.04233-0.0212 0.02117-0.0423 0.10583-0.10584 0.04233-0.0212 0.0635-0.0635 0.127-0.0635 0.0635-0.0212h0.04233l0.08467-0.0423h0.10583l0.04233-0.0212h0.0635"/>
   <path d="m57.483 161h0.14817l0.04233 0.0212h0.04233l0.04233 0.0212 0.0635 0.0212 0.254 0.127 0.02117 0.0423 0.04233 0.0212 0.04233 0.0423 0.02117 0.0423 0.04233 0.0212 0.06351 0.1269 0.04233 0.0423 0.04234 0.0846v0.0423l0.02117 0.0423 0.02117 0.0635v0.0423l0.02117 0.0423v0.3175l-0.02117 0.0423v0.0423l-0.02117 0.0635-0.02117 0.0423v0.0423l-0.04234 0.0846-0.04233 0.0423-0.02117 0.0423-0.04233 0.0847-0.04233 0.0212-0.02117 0.0423-0.04233 0.0423-0.04233 0.0212-0.02117 0.0423-0.254 0.127-0.0635 0.0212-0.04233 0.0212h-0.08467l-0.0635 0.0212h-0.1905l-0.0635-0.0212h-0.08467l-0.08467-0.0423-0.0635-0.0212-0.127-0.0635-0.02117-0.0212-0.04233-0.0212-0.04233-0.0423-0.04233-0.0212-0.02117-0.0423-0.04233-0.0423-0.02117-0.0212-0.04233-0.0423-0.0635-0.127-0.02117-0.0423-0.0635-0.127-0.02117-0.0635v-0.0423l-0.02117-0.0423v-0.3175l0.02117-0.0423v-0.0423l0.02117-0.0635 0.04233-0.0847 0.02117-0.0423 0.0635-0.127 0.02117-0.0423 0.10583-0.10584 0.02117-0.0423 0.04233-0.0212 0.04233-0.0423 0.04233-0.0212 0.02117-0.0212 0.127-0.0635 0.0635-0.0212 0.08467-0.0423h0.04233l0.04233-0.0212h0.16933"/>
   <path d="m57.483 163.28 0.04233 0.0212h0.10583l0.04233 0.0212h0.04233l0.04233 0.0212h0.0635l0.16933 0.0847 0.04233 0.0423 0.04233 0.0212 0.0635 0.0635 0.04233 0.0212 0.02117 0.0423 0.04233 0.0423 0.02117 0.0423 0.02117 0.0212 0.02117 0.0423 0.04233 0.0423 0.02117 0.0423 0.02117 0.0635v0.0423l0.04233 0.0847v0.0423l0.02117 0.0635v0.29634l-0.02117 0.0635v0.0423l-0.04234 0.0846v0.0635l-0.04234 0.0846-0.04233 0.0423-0.02117 0.0423-0.02117 0.0212-0.02117 0.0423-0.04233 0.0423-0.02117 0.0423-0.04233 0.0212-0.04233 0.0423-0.02117 0.0212-0.04233 0.0423-0.21167 0.10583h-0.0635l-0.08467 0.0423h-0.10583l-0.04233 0.0212h-0.10583l-0.04233-0.0212h-0.10583l-0.08467-0.0423h-0.04233l-0.0635-0.0212-0.127-0.0635-0.0635-0.0635-0.04233-0.0212-0.10583-0.10584-0.02117-0.0423-0.0635-0.0635-0.04233-0.0847-0.04234-0.0846-0.02117-0.0635-0.04234-0.0846v-0.0423l-0.02117-0.0635v-0.29634l0.02117-0.0635v-0.0423l0.0635-0.127 0.02117-0.0635 0.0635-0.127 0.02117-0.0212 0.04233-0.0423 0.02117-0.0423 0.10583-0.10584 0.08467-0.0423 0.02117-0.0423 0.127-0.0635 0.0635-0.0212h0.04233l0.04233-0.0212h0.04233l0.04233-0.0212h0.10583l0.0635-0.0212"/>
   <path d="m57.483 165.59h0.08467l0.0635 0.0212h0.04233l0.04233 0.0212h0.04233l0.0635 0.0212 0.21167 0.10583 0.0635 0.0635 0.04233 0.0212 0.04233 0.0423 0.02117 0.0423 0.04233 0.0212 0.04233 0.0847 0.02117 0.0423 0.04233 0.0423 0.04234 0.0846v0.0423l0.02117 0.0635 0.02117 0.0423v0.0423l0.02117 0.0423v0.3175l-0.02117 0.0423v0.0635l-0.04234 0.0846v0.0423l-0.04233 0.0847-0.04233 0.0423-0.06351 0.1269-0.10583 0.10583-0.04233 0.0212-0.02117 0.0423-0.127 0.0635-0.04233 0.0423h-0.04233l-0.04233 0.0212-0.0635 0.0212-0.04233 0.0212h-0.04233l-0.04233 0.0212h-0.3175l-0.04233-0.0212h-0.04233l-0.08467-0.0423-0.0635-0.0212h-0.04233l-0.04233-0.0423-0.04233-0.0212-0.02117-0.0212-0.04233-0.0212-0.04233-0.0423-0.04233-0.0212-0.02117-0.0423-0.04233-0.0212-0.02117-0.0423-0.04233-0.0423-0.14817-0.29634-0.02117-0.0423v-0.0635l-0.02117-0.0423v-0.3175l0.02117-0.0423v-0.0423l0.02117-0.0423 0.02117-0.0635 0.04233-0.0847 0.02117-0.0423 0.0635-0.127 0.10583-0.10584 0.02117-0.0423 0.08467-0.0423 0.0635-0.0635 0.127-0.0635 0.0635-0.0212 0.04233-0.0212h0.04233l0.04233-0.0212h0.04233l0.0635-0.0212h0.10583"/>
   <path d="m57.483 167.9h0.14817l0.04233 0.0212h0.04233l0.04233 0.0212 0.0635 0.0212h0.04233l0.08467 0.0423 0.04233 0.0423 0.08467 0.0423 0.02117 0.0423 0.04233 0.0212 0.10583 0.10583 0.06351 0.1269 0.04233 0.0423 0.04234 0.0846v0.0423l0.04233 0.0847v0.0635l0.02117 0.0423v0.29633l-0.02117 0.0635v0.0423l-0.02117 0.0423-0.02117 0.0635v0.0423l-0.04234 0.0846-0.04233 0.0423-0.04234 0.0846-0.0635 0.0635-0.02117 0.0423-0.04233 0.0212-0.10583 0.10583-0.21167 0.10583-0.0635 0.0212h-0.04233l-0.04233 0.0212h-0.04233l-0.0635 0.0212h-0.1905l-0.0635-0.0212h-0.04233l-0.04233-0.0212h-0.04233l-0.04233-0.0212-0.0635-0.0212-0.127-0.0635-0.0635-0.0635-0.04233-0.0212-0.10583-0.10583-0.02117-0.0423-0.04233-0.0212-0.08467-0.16934-0.04234-0.0846-0.02117-0.0635-0.02117-0.0423v-0.0423l-0.02117-0.0635v-0.29633l0.02117-0.0423v-0.0635l0.0635-0.127 0.02117-0.0423 0.08467-0.16933 0.04233-0.0423 0.02117-0.0423 0.04233-0.0212 0.02117-0.0423 0.04233-0.0212 0.04233-0.0423 0.04233-0.0212 0.0635-0.0635 0.08467-0.0423h0.0635l0.08467-0.0423h0.04233l0.04233-0.0212h0.16933"/>
   <path d="m57.483 170.19h0.04233l0.04233 0.0212h0.10583l0.04233 0.0212h0.04233l0.0635 0.0212 0.21167 0.10583 0.10583 0.10584 0.04233 0.0212 0.02117 0.0423 0.0635 0.0635 0.04234 0.0846 0.04233 0.0423 0.04233 0.0847v0.0423l0.02117 0.0635 0.02117 0.0423v0.0423l0.02117 0.0635v0.29634l-0.02117 0.0423v0.0635l-0.04233 0.0847v0.0423l-0.04234 0.0846-0.04233 0.0423-0.02117 0.0423-0.04233 0.0847-0.16933 0.16933-0.08467 0.0423-0.04233 0.0423-0.08467 0.0423h-0.04233l-0.0635 0.0212-0.04233 0.0212h-0.04233l-0.04233 0.0212h-0.3175l-0.04233-0.0212h-0.04233l-0.08467-0.0423h-0.0635l-0.08467-0.0423-0.0635-0.0635-0.08467-0.0423-0.04233-0.0423-0.02117-0.0423-0.04233-0.0212-0.02117-0.0423-0.04233-0.0423-0.0635-0.127-0.02117-0.0423-0.08467-0.16933v-0.0635l-0.02117-0.0423v-0.29634l0.02117-0.0635v-0.0423l0.02117-0.0423 0.02117-0.0635 0.10583-0.21167 0.02117-0.0423 0.04233-0.0212 0.02117-0.0423 0.10583-0.10584 0.04233-0.0212 0.0635-0.0635 0.127-0.0635 0.0635-0.0212 0.04233-0.0212h0.04233l0.04233-0.0212h0.10583l0.04233-0.0212h0.0635"/>
  </g>
  <path d="m59.791 156.41h0.14817l0.0635 0.0212h0.04233l0.127 0.0635h0.04233l0.04233 0.0212 0.04233 0.0423 0.08467 0.0423 0.10583 0.10583 0.04233 0.0212 0.04233 0.0847 0.04233 0.0423 0.04233 0.0847 0.02117 0.0423 0.0635 0.127v0.0423l0.02117 0.0635v0.0423l0.02117 0.0423v0.21167l-0.02117 0.0635v0.0423l-0.02117 0.0423v0.0423l-0.02117 0.0635-0.06351 0.1269-0.04233 0.0847-0.04233 0.0423-0.02117 0.0423-0.0635 0.0635-0.04233 0.0212-0.02117 0.0423-0.04233 0.0212-0.04233 0.0423-0.08467 0.0423-0.08466 0.0424-0.08467 0.0423h-0.04233l-0.04233 0.0212h-0.0635l-0.04233 0.0212h-0.21167l-0.04233-0.0212h-0.04233l-0.0635-0.0212h-0.04233l-0.12699-0.0636-0.127-0.0635-0.04233-0.0423-0.04233-0.0212-0.02117-0.0423-0.04233-0.0212-0.02117-0.0423-0.04233-0.0212-0.02117-0.0423-0.04233-0.0423-0.0635-0.127-0.04234-0.0846v-0.0635l-0.04234-0.0846v-0.14817l-0.02117-0.0635 0.02117-0.0423v-0.14817l0.02117-0.0635 0.02117-0.0423v-0.0423l0.10583-0.21167 0.04233-0.0423 0.02117-0.0423 0.04233-0.0423 0.02117-0.0212 0.10583-0.10583 0.08467-0.0423 0.04233-0.0423 0.04233-0.0212h0.04233l0.127-0.0635h0.0635l0.04233-0.0212h0.14817" fill="#fff" fill-rule="evenodd" stroke="#1e1917" stroke-linecap="round" stroke-linejoin="round" stroke-miterlimit="10" stroke-width=".074436"/>
  <g fill="#7e7e7e" fill-rule="evenodd" stroke="#1e1917" stroke-linecap="round" stroke-linejoin="round" stroke-miterlimit="10" stroke-width=".074436">
   <path d="m59.791 158.69h0.04233l0.0635 0.0212h0.10583l0.08467 0.0423h0.04233l0.21167 0.10583 0.04233 0.0423 0.04233 0.0212 0.02117 0.0423 0.04233 0.0212 0.04233 0.0423 0.02117 0.0423 0.0635 0.0635 0.04233 0.0847 0.04234 0.0846 0.02117 0.0635 0.02117 0.0423v0.0423l0.02117 0.0423v0.0635l0.02117 0.0423v0.21166l-0.02117 0.0423v0.0423l-0.02117 0.0635v0.0423l-0.02117 0.0423-0.04233 0.0847-0.02117 0.0635-0.02117 0.0423-0.0635 0.0635-0.04234 0.0846-0.04233 0.0212-0.04233 0.0423-0.02117 0.0423-0.08467 0.0423-0.04233 0.0423-0.16933 0.0847h-0.04233l-0.04233 0.0212h-0.04233l-0.0635 0.0212h-0.29633l-0.04233-0.0212h-0.0635l-0.04233-0.0212h-0.04233l-0.16933-0.0847-0.04233-0.0423-0.08467-0.0423-0.02117-0.0423-0.04233-0.0423-0.02117-0.0212-0.04233-0.0423-0.02117-0.0423-0.0635-0.0635-0.02117-0.0423-0.02117-0.0635-0.04233-0.0847v-0.0423l-0.02117-0.0423-0.02117-0.0635v-0.14817l-0.02117-0.0423 0.02117-0.0635v-0.14817l0.04234-0.0846v-0.0423l0.02117-0.0635 0.02117-0.0423 0.0635-0.127 0.10583-0.10583 0.02117-0.0423 0.04233-0.0212 0.02117-0.0423 0.04233-0.0212 0.04233-0.0423 0.21167-0.10583h0.04233l0.04233-0.0212 0.0635-0.0212h0.08467l0.0635-0.0212h0.04233"/>
   <path d="m59.791 161h0.14817l0.0635 0.0212h0.04233l0.33867 0.16933 0.16933 0.16933 0.02117 0.0423 0.04233 0.0423 0.04233 0.0847 0.04234 0.0846 0.04233 0.0847v0.0635l0.02117 0.0423v0.0423l0.02117 0.0635v0.1905l-0.02117 0.0635v0.0423l-0.02117 0.0423v0.0635l-0.0635 0.127-0.02117 0.0423-0.04233 0.0847-0.04233 0.0423-0.02117 0.0423-0.02117 0.0212-0.14817 0.14816-0.33867 0.16934h-0.10583l-0.04233 0.0212h-0.21167l-0.04233-0.0212h-0.10583l-0.33867-0.16934-0.10583-0.10583-0.02117-0.0423-0.04233-0.0212-0.02117-0.0423-0.04233-0.0423-0.04233-0.0847-0.02117-0.0423-0.04233-0.0847v-0.0423l-0.02117-0.0635-0.02117-0.0423v-0.14817l-0.02117-0.0635 0.02117-0.0423v-0.14817l0.02117-0.0423 0.02117-0.0635v-0.0423l0.04234-0.0846 0.0635-0.127 0.04233-0.0423 0.02117-0.0423 0.04233-0.0212 0.02117-0.0423 0.10583-0.10583 0.33867-0.16933h0.0635l0.04233-0.0212h0.14817"/>
   <path d="m59.791 163.28 0.04233 0.0212h0.10583l0.0635 0.0212h0.04233l0.04233 0.0212h0.04233l0.16933 0.0847 0.04233 0.0423 0.08467 0.0423 0.02117 0.0423 0.04233 0.0212 0.04233 0.0423 0.04233 0.0847 0.04233 0.0212 0.04233 0.0847 0.02117 0.0423 0.02117 0.0635 0.04233 0.0847v0.0423l0.02117 0.0423v0.0635l0.02117 0.0423v0.21166l-0.02117 0.0423v0.0635l-0.02117 0.0423v0.0423l-0.02117 0.0423-0.02117 0.0635-0.04234 0.0846-0.04233 0.0847-0.04233 0.0212-0.04233 0.0847-0.04233 0.0423-0.04233 0.0212-0.02117 0.0423-0.04233 0.0212-0.04233 0.0423-0.21167 0.10583h-0.04233l-0.08467 0.0423h-0.10583l-0.0635 0.0212h-0.08467l-0.0635-0.0212h-0.08467l-0.0635-0.0212-0.04233-0.0212h-0.04233l-0.21167-0.10583-0.04233-0.0423-0.04233-0.0212-0.02117-0.0423-0.04233-0.0212-0.02117-0.0423-0.04233-0.0423-0.02117-0.0423-0.04233-0.0212-0.04233-0.0847-0.04234-0.0846-0.02117-0.0635v-0.0423l-0.04234-0.0846v-0.14817l-0.02117-0.0635 0.02117-0.0423v-0.16934l0.04234-0.0846v-0.0423l0.02117-0.0423 0.02117-0.0635 0.0635-0.127 0.04233-0.0212 0.02117-0.0423 0.04233-0.0423 0.02117-0.0423 0.04233-0.0212 0.02117-0.0423 0.08467-0.0423 0.04233-0.0423 0.16933-0.0847h0.04233l0.04233-0.0212h0.0635l0.04233-0.0212h0.10583l0.04233-0.0212"/>
   <path d="m59.791 165.59h0.10583l0.04233 0.0212h0.0635l0.04233 0.0212h0.04233l0.254 0.127 0.04233 0.0423 0.04233 0.0212 0.02117 0.0212 0.10583 0.10583 0.02117 0.0423 0.04233 0.0423 0.04233 0.0847 0.02117 0.0423 0.04233 0.0847 0.02117 0.0635v0.0423l0.02117 0.0423v0.0423l0.02117 0.0635v0.21166l-0.02117 0.0423v0.0423l-0.02117 0.0635v0.0423l-0.0635 0.127-0.02117 0.0423-0.04233 0.0847-0.04233 0.0423-0.04234 0.0846-0.04233 0.0212-0.10583 0.10583-0.127 0.0635-0.04233 0.0423h-0.04233l-0.127 0.0635h-0.04233l-0.0635 0.0212h-0.29633l-0.04233-0.0212h-0.0635l-0.127-0.0635h-0.04233l-0.04233-0.0423-0.127-0.0635-0.10583-0.10583-0.02117-0.0212-0.04233-0.0423-0.02117-0.0423-0.04233-0.0423-0.10583-0.21166v-0.0423l-0.02117-0.0423-0.02117-0.0635v-0.14817l-0.02117-0.0423 0.02117-0.0635v-0.14817l0.04234-0.0846v-0.0635l0.04233-0.0847 0.02117-0.0423 0.04233-0.0847 0.04233-0.0423 0.02117-0.0423 0.04233-0.0212 0.02117-0.0423 0.04233-0.0423 0.02117-0.0212 0.04233-0.0212 0.04233-0.0423 0.254-0.127h0.04233l0.0635-0.0212h0.04233l0.04233-0.0212h0.10583"/>
   <path d="m59.791 167.9h0.14817l0.0635 0.0212h0.04233l0.08467 0.0423h0.04233l0.08467 0.0423 0.04233 0.0423 0.08467 0.0423 0.10583 0.10583 0.04233 0.0212 0.04234 0.0846 0.04233 0.0423 0.04233 0.0847 0.04234 0.0846 0.04233 0.0847v0.0423l0.02117 0.0635v0.0423l0.02117 0.0423v0.21167l-0.02117 0.0423v0.0635l-0.02117 0.0423v0.0423l-0.02117 0.0635-0.06351 0.1269-0.04233 0.0847-0.0635 0.0635-0.02117 0.0423-0.04233 0.0423-0.04233 0.0212-0.02117 0.0423-0.04233 0.0212-0.04233 0.0423-0.254 0.127h-0.04233l-0.04233 0.0212h-0.0635l-0.04233 0.0212h-0.21167l-0.04233-0.0212h-0.04233l-0.0635-0.0212h-0.04233l-0.254-0.127-0.04233-0.0423-0.04233-0.0212-0.02117-0.0423-0.04233-0.0212-0.02117-0.0423-0.10583-0.10584-0.0635-0.127-0.04234-0.0846v-0.0635l-0.04234-0.0846v-0.14817l-0.02117-0.0635 0.02117-0.0423v-0.14817l0.02117-0.0635 0.02117-0.0423v-0.0423l0.04234-0.0846 0.0635-0.127 0.04233-0.0423 0.02117-0.0423 0.04233-0.0423 0.02117-0.0212 0.10583-0.10583 0.08467-0.0423 0.04233-0.0423 0.08467-0.0423h0.04233l0.08467-0.0423h0.0635l0.04233-0.0212h0.14817"/>
   <path d="m59.791 170.19h0.04233l0.0635 0.0212h0.10583l0.04233 0.0212h0.04233l0.254 0.127 0.04233 0.0423 0.04233 0.0212 0.02117 0.0423 0.04233 0.0212 0.04233 0.0423 0.02117 0.0423 0.0635 0.0635 0.04233 0.0847 0.02117 0.0423 0.04233 0.0847 0.02117 0.0635v0.0423l0.02117 0.0423v0.0635l0.02117 0.0423v0.21166l-0.02117 0.0423v0.0423l-0.02117 0.0635v0.0423l-0.0635 0.127-0.02117 0.0423-0.04233 0.0847-0.04233 0.0423-0.04233 0.0847-0.04233 0.0212-0.04233 0.0423-0.02117 0.0423-0.127 0.0635-0.04233 0.0423-0.08467 0.0423h-0.04233l-0.08467 0.0423h-0.04233l-0.0635 0.0212h-0.29633l-0.04233-0.0212h-0.0635l-0.08467-0.0423h-0.04233l-0.08467-0.0423-0.04233-0.0423-0.127-0.0635-0.02117-0.0423-0.04233-0.0423-0.02117-0.0212-0.04233-0.0423-0.02117-0.0423-0.04233-0.0423-0.04233-0.0847-0.02117-0.0423-0.04233-0.0847v-0.0423l-0.02117-0.0423-0.02117-0.0635v-0.14817l-0.02117-0.0423 0.02117-0.0635v-0.14817l0.04234-0.0846v-0.0635l0.10583-0.21167 0.10583-0.10583 0.02117-0.0423 0.04233-0.0212 0.02117-0.0423 0.04233-0.0212 0.04233-0.0423 0.254-0.127h0.04233l0.0635-0.0212h0.08467l0.0635-0.0212h0.04233"/>
  </g>
 </g>
</svg>
