<?xml version="1.0" encoding="UTF-8"?>
<!-- Created with Inkscape (http://www.inkscape.org/) -->
<svg width="43.138mm" height="27.173mm" version="1.1" viewBox="0 0 43.138 27.173" xmlns="http://www.w3.org/2000/svg">
 <defs>
  <clipPath id="clipPath262">
   <path transform="translate(-271.02 -583.7)" d="m239.94 521.54h62.22v62.16h-62.22z"/>
  </clipPath>
  <clipPath id="clipPath264">
   <path transform="translate(-261.48 -530.3)" d="m245.16 519.86h16.38v17.1h-16.38z"/>
  </clipPath>
  <clipPath id="clipPath266">
   <path transform="translate(-220.02 -530.3)" d="m220.02 519.86h16.44v17.1h-16.44z"/>
  </clipPath>
 </defs>
 <g transform="translate(-38.629 -134.94)">
  <g fill="#1e1917">
   <path d="m46.461 142.26-5.7785 2.3495 2.0532-6.0325 3.7253 3.683" fill-rule="evenodd"/>
   <path d="m74.062 142.26 5.7785 2.3495-2.032-6.0325-3.7465 3.683" fill-rule="evenodd"/>
   <path d="m49.615 139.59 0.55033 0.0212 0.5715 0.0423 0.55033 0.0635 1.0583 0.21167 0.52917 0.14816 0.508 0.16934 0.97367 0.42333 0.48683 0.254 0.4445 0.254 0.889 0.59267 0.40217 0.3175 0.40217 0.35983 0.381 0.35983 0.71967 0.762 0.3175 0.42334 0.29633 0.42333 0.29633 0.4445 0.508 0.93133 0.21167 0.48684 0.21167 0.508 0.16933 0.508 0.14817 0.508 0.127 0.52916 0.08467 0.55034 0.0635 0.55033 0.04233 0.55033 0.02117 0.5715h-0.71967v-0.52916l-0.04233-0.52917-0.0635-0.508-0.08467-0.508-0.254-0.97367-0.16933-0.48683-0.1905-0.46567-0.1905-0.4445-0.23283-0.4445-0.508-0.84666-0.29633-0.40217-0.29633-0.381-0.3175-0.381-0.6985-0.6985-0.381-0.3175-0.381-0.29633-0.40217-0.29634-0.84667-0.508-0.4445-0.23283-0.93133-0.381-0.46567-0.16933-0.48683-0.127-0.508-0.127-0.508-0.0847-0.508-0.0635-0.508-0.0423h-0.52917zm10.964 10.964v0.27517l-0.02117 0.27517v0.27516l-0.04233 0.29634-0.02117 0.27516-0.04233 0.254-0.08467 0.55034-0.0635 0.27516-0.0635 0.254-0.08467 0.254-0.0635 0.27517-0.16933 0.508-0.10583 0.23283-0.21167 0.508-0.10583 0.23284-0.508 0.93133-0.14817 0.23283-0.4445 0.635-0.16933 0.21167-0.14817 0.21167-0.16933 0.1905-0.1905 0.21166-0.16933 0.1905-0.1905 0.1905-0.508-0.508 0.1905-0.16933 0.16933-0.1905 0.14817-0.1905 0.16933-0.1905 0.4445-0.5715 0.14817-0.21167 0.127-0.1905 0.254-0.42333 0.127-0.23283 0.10583-0.21167 0.127-0.23283 0.10583-0.21167 0.08467-0.23283 0.10583-0.23284 0.254-0.6985 0.0635-0.254 0.0635-0.23283 0.127-0.508 0.04233-0.254 0.08467-0.508 0.06351-0.762v-0.52917zm-3.2173 7.747-0.1905 0.16934-0.1905 0.1905-0.1905 0.16933-0.21167 0.16933-0.1905 0.16934-0.21167 0.14816-0.21167 0.16934-0.23283 0.14816-0.21167 0.14817-0.23283 0.127-0.21167 0.14817-0.46567 0.254-0.254 0.10583-0.23283 0.127-0.254 0.10583-0.23283 0.0847-0.254 0.10583-0.508 0.16934-0.27517 0.0847-0.508 0.127-0.27517 0.0635-0.27517 0.0423-0.254 0.0423-0.55033 0.0847-0.29633 0.0212-0.27517 0.0212h-0.55033v-0.6985h0.254l0.27517-0.0212 0.762-0.0635 0.762-0.127 0.508-0.127 0.23283-0.0635 0.254-0.0635 0.93133-0.33866 0.46567-0.21167 0.21167-0.10583 0.23283-0.127 0.21167-0.10584 0.21167-0.127 0.21167-0.14816 0.21167-0.127 0.1905-0.14817 0.21167-0.127 0.1905-0.16933 0.381-0.29634 0.1905-0.16933 0.33867-0.33867zm-7.747 3.1962h-0.5715l-0.55033-0.0423-0.29633-0.0423-0.254-0.0423-0.55033-0.0847-0.254-0.0635-0.27517-0.0635-0.254-0.0635-0.27517-0.0847-0.508-0.16934-0.254-0.10583-0.23283-0.0847-0.254-0.10583-0.23283-0.127-0.23283-0.10583-0.254-0.127-0.21167-0.127-0.23283-0.14817-0.23283-0.127-0.21167-0.14817-0.23283-0.14816-0.21167-0.16934-0.21167-0.14816-0.1905-0.16934-0.21167-0.16933-0.1905-0.16933-0.1905-0.1905-0.1905-0.16934 0.508-0.508 0.33867 0.33867 0.1905 0.16933 0.381 0.29634 0.1905 0.16933 0.21167 0.127 0.1905 0.14817 0.21167 0.127 0.21167 0.14816 0.21167 0.127 0.21167 0.10584 0.23283 0.127 0.21167 0.10583 0.46567 0.21167 0.93133 0.33866 0.254 0.0635 0.23283 0.0635 0.508 0.127 0.762 0.127 0.508 0.0423 0.27517 0.0212 0.254 0.0212h0.27517zm-7.7682-3.1962-0.1905-0.1905-0.16933-0.1905-0.16933-0.21166-0.1905-0.1905-0.14817-0.21167-0.16933-0.21167-0.4445-0.635-0.14817-0.23283-0.508-0.93133-0.10583-0.23284-0.21167-0.508-0.10583-0.23283-0.16933-0.508-0.0635-0.27517-0.08467-0.254-0.0635-0.254-0.04233-0.27516-0.0635-0.27517-0.04233-0.27517-0.04233-0.254-0.02117-0.27516-0.02117-0.29634-0.02117-0.27516-0.02117-0.27517v-0.27517h0.71967v0.52917l0.04233 0.508 0.02117 0.254 0.12699 0.762 0.127 0.508 0.0635 0.23283 0.0635 0.254 0.254 0.6985 0.10583 0.23284 0.08467 0.23283 0.10583 0.21167 0.127 0.23283 0.10583 0.21167 0.127 0.23283 0.254 0.42333 0.127 0.1905 0.14817 0.21167 0.4445 0.5715 0.508 0.5715 0.16933 0.16933zm-3.2173-7.747v-0.29633l0.02117-0.27517 0.02117-0.27516 0.04234-0.55034 0.04233-0.27516 0.04233-0.27517 0.0635-0.27517 0.04233-0.254 0.0635-0.27516 0.08467-0.254 0.0635-0.254 0.16933-0.508 0.21167-0.508 0.10583-0.23284 0.10583-0.254 0.508-0.93133 0.14817-0.21167 0.14817-0.23283 0.29633-0.42333 0.16933-0.21167 0.14817-0.21167 0.1905-0.1905 0.33867-0.381 0.1905-0.1905 0.508 0.48684-0.16933 0.1905-0.16933 0.16933-0.33867 0.381-0.4445 0.5715-0.14817 0.21167-0.508 0.84666-0.10583 0.21167-0.127 0.23283-0.10583 0.21167-0.08467 0.23283-0.10583 0.23284-0.16933 0.46566-0.08467 0.254-0.0635 0.23284-0.0635 0.254-0.0635 0.23283-0.0635 0.254-0.08467 0.508-0.04233 0.254-0.04234 0.508-0.02117 0.27517v0.52916zm3.2173-7.747 0.1905-0.1905 0.1905-0.16933 0.1905-0.1905 0.21167-0.16933 0.1905-0.14817 0.21167-0.16933 0.21167-0.14817 0.23283-0.14817 0.21167-0.14816 0.23283-0.14817 0.23283-0.127 0.21167-0.127 0.254-0.127 0.23283-0.127 0.23283-0.10583 0.254-0.10584 0.23283-0.10583 0.254-0.10583 0.508-0.16934 0.27517-0.0635 0.254-0.0847 0.27517-0.0635 0.254-0.0423 0.27517-0.0635 0.27517-0.0423 0.254-0.0423 0.29633-0.0212 0.8255-0.0635h0.29633v0.71967h-0.52917l-0.27517 0.0212-0.254 0.0212-0.254 0.0423-0.254 0.0212-0.508 0.0847-0.508 0.127-0.23283 0.0635-0.254 0.0635-0.6985 0.254-0.23283 0.10583-0.23283 0.0847-0.23283 0.10583-0.21167 0.127-0.23283 0.10583-0.84667 0.508-0.1905 0.14817-0.21167 0.14817-0.381 0.29633-0.1905 0.16933-0.1905 0.14817-0.33867 0.33867-0.508-0.48684"/>
   <path transform="matrix(.35278 0 0 -.35278 70.781 139.59)" d="m0 0h0.84l3.12-0.24 1.56-0.24 0.78-0.18 0.78-0.12 0.72-0.18 0.72-0.24 0.78-0.18 1.44-0.48 0.72-0.3 0.66-0.3 0.72-0.3 0.66-0.3 0.72-0.36 1.32-0.72 0.6-0.36 0.66-0.42 0.6-0.42 0.66-0.42 0.6-0.42 0.6-0.48 0.54-0.42 0.6-0.48 0.54-0.54 0.54-0.48 0.54-0.54-1.44-1.38-0.96 0.96-0.54 0.42-0.54 0.48-1.08 0.84-0.6 0.42-0.54 0.42-2.4 1.44-0.66 0.3-0.6 0.36-0.66 0.3-0.66 0.24-0.66 0.3-1.98 0.72-0.72 0.18-0.66 0.18-1.44 0.36-1.44 0.24-0.72 0.06-0.72 0.12-0.72 0.06-0.78 0.06h-1.5zm22.02-9.12 0.54-0.54 0.48-0.54 0.54-0.54 0.48-0.54 0.42-0.6 0.48-0.6 0.42-0.6 0.48-0.6 0.36-0.66 0.42-0.6 1.44-2.64 0.3-0.72 0.3-0.66 0.6-1.44 0.48-1.44 0.18-0.72 0.24-0.72 0.18-0.78 0.12-0.72 0.18-0.78 0.24-1.56 0.06-0.78 0.12-0.78v-0.78l0.06-0.78v-0.84h-2.04v1.5l-0.06 0.78-0.12 1.44-0.36 2.16-0.18 0.72-0.18 0.66-0.18 0.72-0.18 0.66-0.24 0.72-0.48 1.32-0.3 0.66-0.24 0.66-0.3 0.6-0.36 0.66-0.3 0.6-1.44 2.4-0.42 0.6-1.26 1.62-0.96 1.08-0.42 0.48-0.54 0.54zm9.12-21.96v-0.78l-0.06-0.78v-0.78l-0.12-0.84-0.06-0.78-0.12-0.72-0.12-0.78-0.18-0.78-0.12-0.78-0.18-0.72-0.24-0.72-0.18-0.78-0.48-1.44-0.3-0.66-0.6-1.44-0.3-0.66-1.44-2.64-0.42-0.66-0.36-0.6-0.48-0.6-0.42-0.6-0.48-0.6-0.42-0.6-0.48-0.54-0.54-0.6-0.48-0.54-0.54-0.54-1.44 1.44 0.54 0.48 0.42 0.54 0.96 1.08 1.26 1.62 0.42 0.6 0.36 0.54 0.72 1.2 0.36 0.66 0.3 0.6 0.36 0.66 0.3 0.6 0.24 0.66 0.3 0.66 0.72 1.98 0.18 0.72 0.18 0.66 0.36 1.44 0.36 2.16 0.18 2.16v1.5zm-9.12-21.96-0.54-0.48-0.54-0.54-0.54-0.48-0.6-0.48-0.54-0.48-0.6-0.42-0.6-0.48-0.66-0.42-0.6-0.42-0.66-0.36-0.6-0.42-1.32-0.72-0.72-0.3-0.66-0.36-0.72-0.3-0.66-0.24-0.72-0.3-1.44-0.48-0.78-0.24-1.44-0.36-0.78-0.18-3.12-0.48-1.56-0.12h-1.62v1.98h0.78l0.72 0.06 0.78 0.06 1.44 0.12 2.16 0.36 1.44 0.36 0.66 0.18 0.72 0.18 2.64 0.96 1.32 0.6 0.6 0.3 0.66 0.36 0.6 0.3 0.6 0.36 0.6 0.42 0.6 0.36 0.54 0.42 0.6 0.36 0.54 0.48 1.08 0.84 0.54 0.48 0.96 0.96zm-22.02-9.06h-1.56l-0.78 0.06-0.84 0.06-0.72 0.12-2.34 0.36-0.78 0.18-1.44 0.36-0.78 0.24-1.44 0.48-0.72 0.3-0.66 0.24-0.72 0.3-0.66 0.36-0.72 0.3-1.32 0.72-0.6 0.42-0.66 0.36-0.6 0.42-0.66 0.42-0.6 0.48-0.6 0.42-0.54 0.48-0.6 0.48-0.54 0.48-0.54 0.54-0.54 0.48 1.44 1.44 0.96-0.96 0.54-0.48 1.08-0.84 0.54-0.48 0.6-0.36 0.54-0.42 0.6-0.36 0.6-0.42 0.6-0.36 0.6-0.3 0.66-0.36 0.6-0.3 1.32-0.6 2.64-0.96 0.72-0.18 0.66-0.18 1.44-0.36 2.16-0.36 1.44-0.12 0.78-0.06 0.72-0.06h0.72zm-21.96 9.06-0.54 0.54-0.48 0.54-0.54 0.6-0.48 0.54-0.42 0.6-0.48 0.6-1.26 1.8-0.42 0.66-1.44 2.64-0.3 0.66-0.6 1.44-0.3 0.66-0.48 1.44-0.18 0.78-0.24 0.72-0.18 0.72-0.12 0.78-0.18 0.78-0.12 0.78-0.12 0.72-0.06 0.78-0.12 0.84v0.78l-0.06 0.78v0.78h2.04v-1.5l0.18-2.16 0.36-2.16 0.36-1.44 0.18-0.66 0.18-0.72 0.72-1.98 0.3-0.66 0.24-0.66 0.3-0.6 0.36-0.66 0.3-0.6 0.36-0.66 0.72-1.2 0.36-0.54 0.42-0.6 1.26-1.62 0.96-1.08 0.42-0.54 0.54-0.48zm-9.12 21.96v0.84l0.06 0.78v0.78l0.12 0.78 0.06 0.78 0.24 1.56 0.18 0.78 0.12 0.72 0.18 0.78 0.24 0.72 0.18 0.72 0.48 1.44 0.6 1.44 0.3 0.66 0.3 0.72 1.44 2.64 0.42 0.6 0.42 0.66 0.84 1.2 0.48 0.6 0.42 0.6 0.48 0.54 0.54 0.54 0.48 0.54 0.54 0.54 1.44-1.38-0.54-0.54-0.42-0.48-0.96-1.08-1.26-1.62-0.42-0.6-1.44-2.4-0.3-0.6-0.36-0.66-0.3-0.6-0.24-0.66-0.3-0.66-0.48-1.32-0.24-0.72-0.18-0.66-0.18-0.72-0.18-0.66-0.18-0.72-0.36-2.16-0.12-1.44-0.06-0.78v-1.5zm9.12 21.96 0.54 0.54 0.54 0.48 0.54 0.54 0.6 0.48 0.54 0.42 0.6 0.48 0.6 0.42 0.66 0.42 0.6 0.42 0.66 0.42 0.6 0.36 1.32 0.72 0.72 0.36 0.66 0.3 0.72 0.3 0.66 0.3 0.72 0.3 1.44 0.48 0.78 0.18 0.72 0.24 0.72 0.18 0.78 0.12 0.78 0.18 1.56 0.24 0.72 0.06 0.84 0.06 1.56 0.12h0.78v-2.04h-1.44l-0.78-0.06-0.72-0.06-0.72-0.12-0.72-0.06-1.44-0.24-1.44-0.36-0.66-0.18-0.72-0.18-1.98-0.72-0.66-0.3-0.66-0.24-0.66-0.3-0.6-0.36-0.66-0.3-2.4-1.44-0.54-0.42-0.6-0.42-1.08-0.84-0.54-0.48-0.54-0.42-0.96-0.96-1.44 1.38" clip-path="url(#clipPath262)"/>
   <path transform="matrix(.35278 0 0 -.35278 67.416 158.43)" d="m 0,0 -16.32,6.66 5.76,-17.1 L 0,0" clip-path="url(#clipPath264)" fill-rule="evenodd"/>
   <path transform="matrix(.35278 0 0 -.35278 52.79 158.43)" d="M 0,0 16.38,6.66 10.56,-10.44 0,0" clip-path="url(#clipPath266)" fill-rule="evenodd"/>
  </g>
  <path d="m47.392 141.75h5.2493v-6.7733h-5.2493z" fill="#7e7e7e"/>
  <path d="m47.392 134.97h5.2493v6.7733h-5.2493z" fill="none" stroke="#1e1917" stroke-linecap="round" stroke-linejoin="round" stroke-miterlimit="10" stroke-width=".074083"/>
  <path d="m49.996 136.03h0.14817l0.08467 0.0212h0.0635l0.08467 0.0212 0.0635 0.0212 0.08467 0.0212 0.0635 0.0423 0.0635 0.0212 0.0635 0.0423 0.0635 0.0212 0.127 0.0847 0.04233 0.0423 0.0635 0.0423 0.04233 0.0635 0.0635 0.0423 0.04233 0.0635 0.04233 0.0423 0.08467 0.127 0.02117 0.0635 0.08467 0.127 0.02117 0.0635 0.02117 0.0847 0.04233 0.127v0.0847l0.02117 0.0635v0.3175l-0.02117 0.0635v0.0847l-0.02117 0.0635-0.02117 0.0847-0.04233 0.127-0.08467 0.127-0.02117 0.0635-0.12699 0.1905-0.14817 0.14817-0.0635 0.0423-0.04233 0.0423-0.1905 0.127-0.0635 0.0212-0.0635 0.0423-0.0635 0.0212-0.08467 0.0212-0.0635 0.0212-0.08467 0.0212-0.0635 0.0212h-0.46567l-0.0635-0.0212-0.08467-0.0212-0.1905-0.0636-0.08467-0.0423-0.0635-0.0212-0.0635-0.0423-0.04233-0.0423-0.127-0.0847-0.04233-0.0423-0.0635-0.0423-0.04233-0.0635-0.10583-0.10584-0.04233-0.0635-0.02117-0.0635-0.08467-0.127-0.0635-0.1905-0.02117-0.0847-0.02117-0.0635-0.02117-0.0847v-0.0635l-0.02117-0.0847v-0.14816l0.02117-0.0847v-0.0635l0.02117-0.0847 0.04233-0.127 0.02117-0.0847 0.04233-0.127 0.08466-0.127 0.02117-0.0635 0.04233-0.0635 0.0635-0.0423 0.04233-0.0635 0.14817-0.14816 0.127-0.0847 0.04233-0.0423 0.0635-0.0212 0.0635-0.0423 0.08467-0.0212 0.0635-0.0423 0.127-0.0423 0.08467-0.0212h0.0635l0.08467-0.0212h0.14817" fill="#fff" fill-rule="evenodd" stroke="#1e1917" stroke-linecap="round" stroke-linejoin="round" stroke-miterlimit="10" stroke-width=".074083"/>
 </g>
</svg>
