<?xml version="1.0" encoding="UTF-8"?>
<!-- Created with Inkscape (http://www.inkscape.org/) -->
<svg width="37.063mm" height="9.8848mm" version="1.1" viewBox="0 0 37.063 9.8848" xmlns="http://www.w3.org/2000/svg">
 <g transform="translate(-61.912 -140.49)" fill="#1f1a17">
  <path d="m66.125 148.66-4.2122 1.7145 1.4817-4.4238 2.7305 2.7093" fill-rule="evenodd"/>
  <path d="m64.41 147.33 0.16933-0.1905c1.8143-1.8517 3.8837-3.478 6.2442-4.572l0.254-0.127 0.29633 0.65617-0.254 0.10583c-2.1833 1.0305-4.3762 2.6906-6.0325 4.445l-0.16933 0.16933zm6.6675-4.8895 0.23283-0.10583c2.7838-1.2735 5.8625-1.79 8.9112-1.8415h0.33867v0.71966h-0.33867c-3.012 0.0198-5.8498 0.55492-8.6148 1.7568l-0.23283 0.127zm9.4827-1.9473h0.35983c3.0138 0.0286 6.1059 0.50517 8.89 1.6933l0.254 0.10583-0.27517 0.65617-0.254-0.10583c-2.7047-1.1758-5.6822-1.5949-8.6148-1.6298h-0.35983zm9.5038 1.7992 0.254 0.10584c2.3809 1.1194 4.5297 2.745 6.2442 4.7413l0.1905 0.1905-0.52917 0.48683-0.1905-0.21166c-1.6729-1.8934-3.707-3.4982-6.0113-4.5508l-0.23283-0.10583 0.27517-0.65617"/>
  <path d="m94.763 148.52 4.2122 1.7145-1.4817-4.4238-2.7305 2.7093" fill-rule="evenodd"/>
 </g>
</svg>
