<?xml version="1.0" encoding="UTF-8"?>
<!-- Created with Inkscape (http://www.inkscape.org/) -->
<svg width="7.6835mm" height="20.108mm" version="1.1" viewBox="0 0 7.6835 20.108" xmlns="http://www.w3.org/2000/svg">
 <defs>
  <clipPath id="clipPath186">
   <path transform="translate(2.5e-5 2.5e-5)" d="m230.1 193.4h21.78v57h-21.78z"/>
  </clipPath>
 </defs>
 <g transform="translate(-63.765 -139.96)">
  <path d="m63.807 160.03h7.5988v-20.024h-7.5988z" fill="#848382"/>
  <g stroke="#1f1a17" stroke-linecap="round" stroke-linejoin="round" stroke-miterlimit="10">
   <path transform="matrix(.35278 0 0 -.35278 -17.41 228.3)" d="m230.22 250.28h21.54v-56.76h-21.54z" clip-path="url(#clipPath186)" fill="none" stroke-width=".287"/>
   <g stroke-width=".10125">
    <path d="m67.617 142.02 0.08467 0.0212h0.10583c2.4684 0.33337 2.377 3.7497-0.10583 3.9582h-0.1905c-2.4836-0.21061-2.5714-3.6248-0.10583-3.9582h0.10583l0.10583-0.0212" fill="#fff" fill-rule="evenodd"/>
    <path d="m67.617 148.03h0.08467l0.10583 0.0212c2.4687 0.31467 2.3753 3.7363-0.10583 3.9582h-0.1905c-2.4814-0.22295-2.5721-3.6445-0.10583-3.9582l0.10583-0.0212z" fill="none"/>
    <path d="m67.617 154.04h0.1905c2.4673 0.33196 2.371 3.7818-0.10583 3.9582h-0.1905c-2.474-0.17569-2.5735-3.6255-0.10583-3.9582z" fill="none"/>
   </g>
  </g>
 </g>
</svg>
