<?xml version="1.0" encoding="UTF-8"?>
<!-- Created with Inkscape (http://www.inkscape.org/) -->
<svg width="7.6835mm" height="20.108mm" version="1.1" viewBox="0 0 7.6835 20.108" xmlns="http://www.w3.org/2000/svg">
 <defs>
  <clipPath id="clipPath274">
   <path transform="translate(-2.5e-5 2.5e-5)" d="m230.1 406.16h21.78v57h-21.78z"/>
  </clipPath>
 </defs>
 <g transform="translate(-48.683 -167.75)">
  <path d="m48.726 187.81h7.5988v-20.024h-7.5988z" fill="#7e7e7e"/>
  <path transform="matrix(.35278 0 0 -.35278 -32.491 331.14)" d="m230.22 463.04h21.54v-56.76h-21.54z" clip-path="url(#clipPath274)" fill="none" stroke="#1e1917" stroke-linecap="round" stroke-linejoin="round" stroke-miterlimit="10" stroke-width=".287"/>
  <g fill="#fff" fill-rule="evenodd" stroke="#1e1917" stroke-linecap="round" stroke-linejoin="round" stroke-miterlimit="10" stroke-width=".10125">
   <path d="m52.536 169.8 0.08467 0.0212h0.21167l0.10583 0.0212 0.08467 0.0212 0.10583 0.0423 0.08467 0.0212 0.10583 0.0423 0.33867 0.16934 0.0635 0.0635 0.08467 0.0635 0.0635 0.0635 0.08467 0.0635 0.0635 0.0635 0.0635 0.0847 0.0635 0.0635 0.04233 0.0847 0.0635 0.0847 0.16933 0.33866 0.02117 0.0847 0.04233 0.10583 0.02117 0.0847v0.10583l0.02117 0.10584v0.0847l0.02117 0.10584-0.02117 0.10583v0.10583l-0.02117 0.0847v0.10583l-0.02117 0.10584-0.04233 0.0847-0.02117 0.0847-0.04233 0.10583-0.127 0.254-0.0635 0.0847-0.04233 0.0635-0.0635 0.0847-0.27517 0.27516-0.08467 0.0423-0.0635 0.0635-0.08467 0.0423-0.08467 0.0635-0.16933 0.0847-0.10583 0.0212-0.08467 0.0423-0.10583 0.0212-0.08467 0.0212-0.10583 0.0212h-0.10583l-0.10583 0.0212h-0.1905l-0.10583-0.0212h-0.10583l-0.10583-0.0212-0.08467-0.0212-0.10583-0.0212-0.08467-0.0423-0.08467-0.0212-0.10583-0.0423-0.08467-0.0423-0.08467-0.0635-0.08467-0.0423-0.0635-0.0635-0.08467-0.0423-0.27517-0.27516-0.0635-0.0847-0.04233-0.0635-0.0635-0.0847-0.127-0.254-0.04233-0.10583-0.02117-0.0847-0.04233-0.0847-0.02117-0.10584v-0.10583l-0.02117-0.0847v-0.40216l0.02117-0.10584v-0.10583l0.02117-0.0847 0.04233-0.10583 0.02117-0.0847 0.16933-0.33866 0.0635-0.0847 0.04233-0.0847 0.0635-0.0635 0.0635-0.0847 0.0635-0.0635 0.08467-0.0635 0.0635-0.0635 0.08467-0.0635 0.0635-0.0635 0.254-0.127 0.10583-0.0423 0.08467-0.0423 0.08467-0.0212 0.10583-0.0423 0.08467-0.0212 0.10583-0.0212h0.21167l0.10583-0.0212"/>
   <path d="m52.536 175.81h0.08467l0.10583 0.0212h0.10583l0.10583 0.0212 0.08467 0.0212 0.10583 0.0212 0.08467 0.0423 0.10583 0.0423 0.08467 0.0212 0.08467 0.0423 0.08467 0.0635 0.08467 0.0423 0.0635 0.0635 0.08467 0.0635 0.0635 0.0635 0.08467 0.0635 0.127 0.127 0.0635 0.0847 0.04233 0.0635 0.0635 0.0847 0.127 0.254 0.04233 0.10583 0.02117 0.0847 0.04233 0.0847 0.02117 0.10583v0.10583l0.02117 0.0847v0.10583l0.02117 0.10584-0.02117 0.10583v0.0847l-0.02117 0.10583v0.10583l-0.02117 0.0847-0.04233 0.10583-0.02117 0.0847-0.04233 0.0847-0.04233 0.10583-0.08467 0.16933-0.0635 0.0635-0.04233 0.0847-0.0635 0.0847-0.127 0.127-0.08467 0.0635-0.0635 0.0635-0.08467 0.0635-0.0635 0.0635-0.33867 0.16933-0.10583 0.0423-0.08467 0.0212-0.10583 0.0423-0.08467 0.0212-0.10583 0.0212h-0.10583l-0.10583 0.0212h-0.1905l-0.10583-0.0212h-0.10583l-0.10583-0.0212-0.08467-0.0212-0.10583-0.0423-0.08467-0.0212-0.08467-0.0423-0.10583-0.0423-0.254-0.127-0.0635-0.0635-0.08467-0.0635-0.0635-0.0635-0.08467-0.0635-0.127-0.127-0.0635-0.0847-0.04233-0.0847-0.0635-0.0635-0.08467-0.16933-0.04233-0.10583-0.04233-0.0847-0.02117-0.0847-0.04233-0.10583-0.02117-0.0847v-0.10583l-0.02117-0.10583v-0.40217l0.02117-0.0847v-0.10583l0.02117-0.10583 0.04233-0.0847 0.02117-0.0847 0.04233-0.10583 0.127-0.254 0.0635-0.0847 0.04233-0.0635 0.0635-0.0847 0.127-0.127 0.08467-0.0635 0.0635-0.0635 0.08467-0.0635 0.0635-0.0635 0.08467-0.0423 0.08467-0.0635 0.08467-0.0423 0.10583-0.0212 0.16933-0.0847 0.10583-0.0212 0.08467-0.0212 0.10583-0.0212h0.10583l0.10583-0.0212h0.10583"/>
   <path d="m52.536 181.82h0.1905l0.21167 0.0423 0.08467 0.0212 0.10583 0.0212 0.08467 0.0423 0.10583 0.0212 0.254 0.127 0.08467 0.0635 0.0635 0.0423 0.08467 0.0635 0.0635 0.0635 0.08467 0.0635 0.0635 0.0847 0.0635 0.0635 0.0635 0.0847 0.04233 0.0635 0.0635 0.0847 0.04233 0.0847 0.127 0.254 0.02117 0.10583 0.04233 0.0847 0.02117 0.10583v0.0847l0.02117 0.10583v0.10583l0.02117 0.10584-0.02117 0.0847v0.10584l-0.02117 0.10583v0.10583l-0.02117 0.0847-0.04233 0.10583-0.02117 0.0847-0.16933 0.33867-0.0635 0.0847-0.04233 0.0847-0.0635 0.0635-0.0635 0.0847-0.0635 0.0635-0.08467 0.0635-0.0635 0.0635-0.08467 0.0635-0.0635 0.0423-0.08467 0.0635-0.254 0.127-0.10583 0.0423-0.08467 0.0212-0.10583 0.0212-0.08467 0.0423h-0.10583l-0.10583 0.0212h-0.40217l-0.10583-0.0212h-0.10583l-0.08467-0.0423-0.10583-0.0212-0.08467-0.0212-0.08467-0.0423-0.10583-0.0423-0.16933-0.0847-0.08467-0.0635-0.0635-0.0423-0.08467-0.0635-0.0635-0.0635-0.08467-0.0635-0.0635-0.0635-0.0635-0.0847-0.0635-0.0635-0.04233-0.0847-0.0635-0.0847-0.04233-0.0847-0.127-0.254-0.02117-0.0847-0.04233-0.10583-0.02117-0.0847v-0.10583l-0.02117-0.10583v-0.40217l0.02117-0.10583v-0.0847l0.02117-0.10583 0.04233-0.0847 0.02117-0.10583 0.16933-0.33867 0.0635-0.0847 0.04233-0.0635 0.0635-0.0847 0.0635-0.0635 0.0635-0.0847 0.08467-0.0635 0.0635-0.0635 0.08467-0.0635 0.0635-0.0423 0.08467-0.0635 0.16933-0.0847 0.10583-0.0423 0.08467-0.0212 0.08467-0.0423 0.10583-0.0212 0.08467-0.0212 0.21167-0.0423h0.21167"/>
  </g>
 </g>
</svg>
