<?xml version="1.0" encoding="UTF-8"?>
<!-- Created with Inkscape (http://www.inkscape.org/) -->
<svg width="34.65mm" height="4.9318mm" version="1.1" viewBox="0 0 34.65 4.9318" xmlns="http://www.w3.org/2000/svg">
 <defs>
  <clipPath id="clipPath170">
   <path transform="translate(-255.96 -483.92)" d="m255.96 474.56h34.14v9.42h-34.14z"/>
  </clipPath>
 </defs>
 <g transform="translate(-56.092 -155.57)" fill="#1f1a17">
  <path transform="matrix(.35278 0 0 -.35278 78.698 157.2)" d="m0 0 0.78 0.06c6.249 0.057 12.777-0.045 18.9-1.38l0.54-0.06-0.42-2.1-0.54 0.12c-6.067 1.255-12.298 1.39-18.48 1.32l-0.72-0.06zm20.22-1.38 0.54-0.12c4.688-1.185 9.25-2.808 13.02-5.94l0.36-0.3-1.26-1.62-0.36 0.24c-3.007 2.685-8.324 4.751-12.24 5.52l-0.48 0.12 0.42 2.1" clip-path="url(#clipPath170)"/>
  <path d="m78.761 159.58-4.2122-1.8415 4.191-2.159 0.02117 4.0005" fill-rule="evenodd"/>
  <path d="m68.114 157.95-0.254-0.0212c-2.1809-0.0243-4.379 0.0219-6.5193 0.46567l-0.1905 0.0423-0.14817-0.74083 0.1905-0.0212c2.1632-0.4706 4.4602-0.50694 6.6675-0.48683l0.27517 0.0212zm-6.9638 0.48683-0.16933 0.0423c-1.3815 0.27128-3.2576 1.0001-4.318 1.9473l-0.127 0.0847-0.4445-0.5715 0.127-0.10584c1.3113-1.0957 2.9566-1.6842 4.5932-2.0955l0.1905-0.0423 0.14817 0.74083"/>
  <path d="m68.072 159.58 4.2122-1.8415-4.191-2.159-0.02117 4.0005" fill-rule="evenodd"/>
 </g>
</svg>
