<?xml version="1.0" encoding="UTF-8"?>
<!-- Created with Inkscape (http://www.inkscape.org/) -->
<svg width="37.063mm" height="14.113mm" version="1.1" viewBox="0 0 37.063 14.113" xmlns="http://www.w3.org/2000/svg">
 <g transform="translate(-52.652 -133.09)">
  <g fill="#1f1a17">
   <path d="m56.864 145.51-4.2122 1.6933 1.4817-4.3603 2.7305 2.667" fill-rule="evenodd"/>
   <path d="m55.15 144.19 0.16933-0.1905c1.8189-1.8274 3.894-3.4304 6.2442-4.5085l0.254-0.127 0.29633 0.635-0.254 0.127c-2.2377 1.0375-4.3275 2.6042-6.0325 4.3815l-0.16933 0.16933zm6.6675-4.826 0.23283-0.10583c2.7407-1.2114 5.9235-1.7999 8.9112-1.7992h0.33867v0.6985h-0.33867c-2.9968 0.019-5.8558 0.55739-8.6148 1.7357l-0.23283 0.10583zm9.4827-1.905h0.35983c3.0215 0.0141 6.0904 0.48966 8.89 1.651l0.254 0.10583-0.27517 0.65617-0.254-0.10583c-2.7146-1.1486-5.6815-1.584-8.6148-1.6087h-0.35983zm9.5038 1.7568 0.254 0.127c2.3693 1.0594 4.5353 2.7079 6.2442 4.6567l0.1905 0.1905-0.52917 0.46567-0.1905-0.1905c-1.6782-1.8874-3.7059-3.4445-6.0113-4.4873l-0.23283-0.10583 0.27517-0.65617"/>
   <path d="m85.503 145.36 4.2122 1.6933-1.4817-4.3603-2.7305 2.667" fill-rule="evenodd"/>
  </g>
  <path d="m68.569 139.83h5.2282v-6.7098h-5.2282z" fill="#848382"/>
  <path d="m68.569 133.12h5.2282v6.7098h-5.2282z" fill="none" stroke="#1f1a17" stroke-linecap="round" stroke-linejoin="round" stroke-miterlimit="10" stroke-width=".074789"/>
  <path d="m71.173 134.16 0.0635 0.0212h0.08467c1.8299 0.2413 1.7575 2.8113-0.08467 2.9422h-0.14817c-1.8362-0.14005-1.9184-2.6853-0.08467-2.9422h0.08467l0.08467-0.0212" fill="#fff" fill-rule="evenodd" stroke="#1f1a17" stroke-linecap="round" stroke-linejoin="round" stroke-miterlimit="10" stroke-width=".074789"/>
 </g>
</svg>
