<?xml version="1.0" encoding="UTF-8"?>
<!-- Created with Inkscape (http://www.inkscape.org/) -->
<svg width="17.178mm" height="51.621mm" version="1.1" viewBox="0 0 17.178 51.621" xmlns="http://www.w3.org/2000/svg">
 <g transform="translate(-96.572 -122.77)">
  <g fill-rule="evenodd">
   <path d="m99.278 174.37v-42.376l1.1007-0.80433 0.97367 0.80433v42.376h-2.0743" fill="#848382" stroke="#1f1a17" stroke-miterlimit="10" stroke-width=".042333"/>
   <path d="m111.13 126.95h0.0847l0.0423 0.0423h0.67733l0.0423-0.0423h0.127l0.0847-0.0423h0.0423l0.0847-0.0423h0.0423l0.0847-0.0423h0.0423l0.0847-0.0423 0.0846-0.0846h0.0847l0.1269-0.1269 0.0847-0.0423 0.2116-0.2116 0.0423-0.0847 0.0847-0.0847 0.0423-0.0847 0.0847-0.0847 0.0846-0.1694 0.0423-0.127 0.0846-0.1694v-0.0847l0.0423-0.127v-0.16933l0.0423-0.127v-0.16934l-0.0423-0.127v-0.21166l-0.0423-0.0847v-0.0847l-0.0423-0.0847-0.0423-0.127-0.1269-0.2541-0.0847-0.0847-0.0423-0.0847-0.0847-0.0847-0.0423-0.0847-0.1694-0.1694-0.0847-0.0423-0.0847-0.0847-0.0847-0.0423-0.0847-0.0847-0.2541-0.1269-0.127-0.0423h-0.0847l-0.0847-0.0423-0.127-0.0423h-0.29634l-0.0847-0.0423-0.0847 0.0423h-0.33867l-0.1694 0.0846h-0.0847l-0.127 0.0423-0.2541 0.1269-0.0847 0.0847-0.0847 0.0423-0.0847 0.0847-0.0847 0.0423-0.2116 0.2116-0.0423 0.0847-0.1269 0.1269-0.0423 0.0847-0.0423 0.0423v0.0423l-0.0423 0.0847-0.0423 0.0423v0.0847l-0.0423 0.0423v0.0847l-0.0423 0.0423v0.127l-0.0423 0.0847v0.16933l-0.0423 0.0847v0.29633l0.0423 0.0847v0.16933l-12.912 12.869 1.6087 1.651 12.912-12.912" fill="#da251d" stroke="#1f1a17" stroke-linecap="round" stroke-linejoin="round" stroke-miterlimit="10" stroke-width=".075184"/>
   <path d="m97.542 138.21 12.361-12.319 0.762 0.71967-12.361 12.319-0.762-0.71967" fill="#fff"/>
   <path d="m110.75 124.03 0.1692-0.1692 0.0847-0.0423 0.0423-0.0423h0.0423l0.0847-0.0423h0.0423l0.0423-0.0423h0.0847l0.0423-0.0423h0.508l0.0423 0.0423h0.0423l0.0847 0.0423h0.0423l0.0423 0.0423h0.0847l0.1269 0.1269 0.0847 0.0423 0.2538 0.2538 0.0423 0.0847v0.0423l0.0423 0.0423v0.0423l0.0423 0.0847v0.0423l0.0423 0.0847v0.0847l0.0423 0.0847v0.254l-0.0423 0.0423v0.127l-0.0423 0.0423v0.0847l-0.0423 0.0423v0.0423l-0.0423 0.0847v0.0423l-0.1269 0.1269-0.0423 0.0847-0.1269 0.1269-0.0847 0.0423-0.0423 0.0423h-0.0423l-0.0423 0.0423-0.0847 0.0423h-0.0423l-0.0423 0.0423h-0.0847l-0.0423 0.0423h-0.59266l-0.0847-0.0423h-0.0423l-0.0423-0.0423h-0.0847l-0.0846-0.0846h-0.0847l-0.2115-0.2115-0.0423-0.0847-0.1692-0.1692v-0.0847l-0.0423-0.0423v-0.0423l-0.0423-0.0847v-0.0423l-0.0423-0.0847v-0.46567l0.0423-0.0423v-0.0847l0.0423-0.0423v-0.0847l0.0423-0.0423v-0.0423l0.0423-0.0423 0.0423-0.0847 0.1692-0.1692" fill="#fff"/>
   <path d="m101.35 146.09 0.0847-0.0423 0.0846-0.0846 0.0847-0.0423 0.2961-0.2961 0.0423-0.0847 0.1269-0.1269v-0.0847l0.0423-0.0423 0.0423-0.0847 0.0423-0.0423v-0.0423l0.0423-0.0847v-0.0423l0.0423-0.0847v-0.127l0.0423-0.0423v-0.80433l-0.0423-0.127-0.0423-0.0847v-0.127l-0.1269-0.2541-0.0847-0.0847-0.0846-0.1694-0.0847-0.0847-0.0423-0.0847-0.0847-0.0423-0.2117-0.2117-0.0847-0.0423-0.0847-0.0847-0.0847-0.0423-0.127-0.0423-0.2541-0.1269h-0.127l-0.0847-0.0423h-0.127l-0.0847-0.0423h-0.42333l-0.127 0.0423h-0.08467l-0.127 0.0423h-0.08467l-0.16934 0.0846-0.127 0.0423-0.16934 0.0846-0.08467 0.0847-0.16934 0.0846-0.08467 0.0847-0.04233 0.0847-0.08467 0.0423-0.04233 0.0847-0.08467 0.0847-0.04233 0.0847-0.08467 0.0847-0.16932 0.3388-0.04233 0.127v0.0847l-0.04233 0.127v0.0847l-0.04233 0.0847v0.42334l0.04233 0.0847v0.16934l0.04233 0.0847v0.0423l0.04233 0.0847v0.0423l0.04233 0.0847v0.0423l0.04233 0.0423 0.04233 0.0847v0.0423l0.04233 0.0847 0.12699 0.1269 0.04233 0.0847 0.04233 0.0423v0.0423l0.04233 0.0423 0.08467 0.0423 0.21165 0.2115 0.08467 0.0423 0.04233 0.0423v18.203h2.286l-0.0423-18.203" fill="#da251d" stroke="#1f1a17" stroke-linecap="round" stroke-linejoin="round" stroke-miterlimit="10" stroke-width=".075184"/>
   <path d="m99.743 163.61h1.0583v-17.399h-1.0583z" fill="#fff"/>
   <path d="m98.981 144.31v-0.0847l0.04233-0.0423v-0.21167l0.04233-0.0423v-0.0847l0.04233-0.0423v-0.0423l0.04233-0.0423 0.04233-0.0847 0.04233-0.0423v-0.0423l0.25398-0.2538 0.08467-0.0423 0.04233-0.0423h0.04233l0.04233-0.0423 0.08467-0.0423h0.04233l0.04233-0.0423h0.127l0.08467-0.0423h0.381l0.0423 0.0423h0.127l0.0847 0.0423h0.0423l0.0423 0.0423 0.0847 0.0423h0.0423l0.423 0.423 0.0423 0.0847v0.0423l0.0423 0.0423v0.0423l0.0423 0.0847v0.0423l0.0423 0.0847v0.508l-0.0423 0.0423v0.0847l-0.0423 0.0423v0.0423l-0.0423 0.0847v0.0423l-0.0846 0.0846-0.0423 0.0847-0.2538 0.2538h-0.0423l-0.0846 0.0846-0.0847 0.0423h-0.0423l-0.0423 0.0423h-0.0847l-0.0423 0.0423h-0.254l-0.0847 0.0423-0.0423-0.0423h-0.254l-0.08467-0.0423h-0.04233l-0.04233-0.0423h-0.08467l-0.12699-0.1269h-0.08467l-0.25398-0.2538v-0.0847l-0.12699-0.1269v-0.0847l-0.04233-0.0423v-0.0423l-0.04233-0.0847v-0.16933l-0.04233-0.0847v-0.0423" fill="#fff"/>
   <path d="m103.05 140.63 0.0423 0.0423 0.0423 0.0847 0.2539 0.2539 0.0847 0.0423 0.0423 0.0847h0.0847l0.0423 0.0423 0.0847 0.0423 0.0423 0.0423 0.0847 0.0423h0.0423l0.0847 0.0423h0.127l0.0847 0.0423h0.381l0.0847-0.0423h0.127l0.0847-0.0423h0.0423l0.1694-0.0846 0.0423-0.0423 0.0847-0.0423 0.0423-0.0423 0.0847-0.0423 0.2539-0.2539 0.0423-0.0847 0.0423-0.0423 0.0423-0.0847v-0.0423l0.0423-0.0847 0.0423-0.0423v-0.0847l0.0423-0.0423v-0.16933l0.0423-0.0847v-0.33866l-0.0423-0.0847v-0.127l-0.0846-0.1694v-0.0423l-0.0846-0.1694-1.2277-2.159-0.0423-0.0423-0.0423-0.0847-0.0847-0.0423-0.0423-0.0423-0.0423-0.0847-0.0423-0.0423-0.0847-0.0423-0.0846-0.0846-0.0847-0.0423-0.0423-0.0423-0.0847-0.0423-0.0423-0.0423h-0.0847l-0.0847-0.0423h-0.0423l-0.0847-0.0423h-0.127l-0.0847-0.0423h-0.21166l-0.0847 0.0423h-0.127l-0.0847 0.0423h-0.0847l-0.0847 0.0423h-0.0423l-0.0847 0.0423-0.0423 0.0423-0.0847 0.0423-0.0423 0.0423-0.0847 0.0423-0.0423 0.0423-0.0847 0.0423-0.0423 0.0847-0.0846 0.0846-0.0423 0.0847-0.0423 0.0423-0.0423 0.0847-0.0423 0.0423v0.0847l-0.0423 0.0423v0.0847l-0.0423 0.0847v0.0423l-0.0423 0.0847v0.42333l0.0423 0.0847v0.16933l0.0423 0.0423v0.0847l0.0423 0.0847 0.0423 0.0423 0.0423 0.0847 1.2277 2.159" fill="#848382"/>
  </g>
  <g fill="none" stroke="#1f1a17" stroke-linecap="round" stroke-linejoin="round" stroke-miterlimit="10" stroke-width=".075184">
   <path d="m103.05 140.63 0.0423 0.0423 0.0423 0.0847 0.2539 0.2539 0.0847 0.0423 0.0423 0.0847h0.0847l0.0423 0.0423 0.0847 0.0423 0.0423 0.0423 0.0847 0.0423h0.0423l0.0847 0.0423h0.127l0.0847 0.0423h0.381l0.0847-0.0423h0.127l0.0847-0.0423h0.0423l0.1694-0.0846 0.0423-0.0423 0.0847-0.0423 0.0423-0.0423 0.0847-0.0423 0.2539-0.2539 0.0423-0.0847 0.0423-0.0423 0.0423-0.0847v-0.0423l0.0423-0.0847 0.0423-0.0423v-0.0847l0.0423-0.0423v-0.16933l0.0423-0.0847v-0.33866l-0.0423-0.0847v-0.127l-0.0846-0.1694v-0.0423l-0.0846-0.1694-1.2277-2.159-0.0423-0.0423-0.0423-0.0847-0.0847-0.0423-0.0423-0.0423-0.0423-0.0847-0.0423-0.0423-0.0847-0.0423-0.0846-0.0846-0.0847-0.0423-0.0423-0.0423-0.0847-0.0423-0.0423-0.0423h-0.0847l-0.0847-0.0423h-0.0423l-0.0847-0.0423h-0.127l-0.0847-0.0423h-0.21166l-0.0847 0.0423h-0.127l-0.0847 0.0423h-0.0847l-0.0847 0.0423h-0.0423l-0.0847 0.0423-0.0423 0.0423-0.0847 0.0423-0.0423 0.0423-0.0847 0.0423-0.0423 0.0423-0.0847 0.0423-0.0423 0.0847-0.0846 0.0846-0.0423 0.0847-0.0423 0.0423-0.0423 0.0847-0.0423 0.0423v0.0847l-0.0423 0.0423v0.0847l-0.0423 0.0847v0.0423l-0.0423 0.0847v0.42333l0.0423 0.0847v0.16933l0.0423 0.0423v0.0847l0.0423 0.0847 0.0423 0.0423 0.0423 0.0847z"/>
   <path d="m103.43 140.46-0.0423-0.0423v-0.0423l-0.0423-0.0423v-0.0847l-0.0423-0.0423v-0.0847l-0.0423-0.0847v-0.254l0.0423-0.0423v-0.0847l0.0423-0.0847v-0.0847l0.0423-0.0423v-0.0423l0.1269-0.1269v-0.0423l0.2115-0.2115h0.0423l0.0846-0.0846h0.0847l0.0423-0.0423h0.0423l0.0423-0.0423h0.21167l0.0423-0.0423h0.0847l0.0423 0.0423h0.21167l0.0423 0.0423h0.0423l0.0423 0.0423h0.0423l0.0847 0.0423h0.0423l0.0846 0.0846h0.0423l0.0846 0.0846v0.0423l0.1692 0.1692v0.0847l0.0423 0.0423v0.0423l0.0423 0.0423v0.127l0.0423 0.0423v0.381l-0.0423 0.0423v0.0847l-0.0423 0.0423v0.0423l-0.0423 0.0847v0.0423l-0.0423 0.0423v0.0423l-0.2115 0.2115h-0.0423l-0.1269 0.1269h-0.0423l-0.0423 0.0423h-0.0423l-0.0847 0.0423h-0.0847l-0.0423 0.0423h-0.381l-0.0423-0.0423h-0.127l-0.0423-0.0423h-0.0423l-0.0423-0.0423h-0.0423l-0.0846-0.0846h-0.0423l-0.2961-0.2961z"/>
   <path d="m102.11 138.3-0.0846-0.0846v-0.127l-0.0423-0.0423v-0.0847l-0.0423-0.0423v-0.29633l0.0423-0.0423v-0.16933l0.0423-0.0423v-0.0423l0.0423-0.0423v-0.0423l0.0846-0.0846v-0.0423l0.2538-0.2538h0.0423l0.0846-0.0846h0.0423l0.0847-0.0423h0.0847l0.0423-0.0423h0.508l0.0423 0.0423h0.0847l0.0423 0.0423h0.0423l0.0423 0.0423h0.0847l0.1269 0.1269h0.0423l0.0423 0.0423v0.0423l0.1269 0.1269v0.0423l0.0423 0.0847 0.0423 0.0423v0.0423l0.0423 0.0423v0.127l0.0423 0.0423v0.381l-0.0423 0.0423v0.0847l-0.0423 0.0423v0.0847l-0.0423 0.0423v0.0423l-0.0846 0.0846v0.0423l-0.1692 0.1692h-0.0423l-0.1269 0.1269h-0.0423l-0.0423 0.0423h-0.0847l-0.0423 0.0423h-0.0847l-0.0423 0.0423h-0.381l-0.0423-0.0423h-0.127l-0.0423-0.0423h-0.0847l-0.0846-0.0846h-0.0847l-0.0846-0.0846v-0.0423l-0.2115-0.2115z"/>
  </g>
  <path d="m101.73 164.76-0.0423 0.0423-0.0423 0.0847v0.0847l-0.0423 0.0423v0.0847l-0.0423 0.0847v0.0847l-0.0423 0.0423v0.381l0.0423 0.0847v0.127l0.0423 0.0847v0.0423l0.0423 0.0847 0.0423 0.0423v0.0847l0.0423 0.0423 0.0423 0.0847 0.0423 0.0423 0.0423 0.0847 0.0423 0.0423 0.0847 0.0423 0.0423 0.0423 0.0423 0.0847 0.0847 0.0423 0.0423 0.0423 0.0847 0.0423 0.0423 0.0423h0.0847l0.0847 0.0423 0.0423 0.0423h0.16934l0.0423 0.0423h0.55033l0.0423-0.0423h0.16933l0.0423-0.0423 0.0847-0.0423h0.0423l0.0847-0.0423 0.0423-0.0423 0.0847-0.0423 0.0423-0.0423 0.0847-0.0423 0.0423-0.0423 0.0423-0.0847 0.0423-0.0423 0.0847-0.0423 0.0423-0.0847 0.0423-0.0423 0.0423-0.0847 1.2277-2.159 0.0423-0.0423 0.0846-0.1694v-0.0423l0.0423-0.0847v-0.0847l0.0423-0.0423v-0.55033l-0.0423-0.0423v-0.0847l-0.0423-0.0847v-0.0423l-0.0423-0.0847-0.0423-0.0423v-0.0847l-0.0423-0.0423-0.0423-0.0847-0.0423-0.0423-0.0423-0.0847-0.0846-0.0846-0.0847-0.0423-0.1693-0.1693h-0.0847l-0.0423-0.0423-0.1694-0.0846h-0.0423l-0.0847-0.0423h-0.0847l-0.0423-0.0423h-0.508l-0.0847 0.0423h-0.0847l-0.0423 0.0423h-0.0847l-0.0847 0.0423-0.0423 0.0423h-0.0847l-0.0423 0.0423-0.0847 0.0423-0.0846 0.0846-0.0847 0.0423-0.0423 0.0847-0.0846 0.0846-0.0423 0.0847-0.0423 0.0423-0.0423 0.0847-1.27 2.159" fill="#848382" fill-rule="evenodd"/>
  <path d="m101.73 164.76v0l-0.0423 0.0423-0.0423 0.0847v0.0847l-0.0423 0.0423v0.0847l-0.0423 0.0847v0.0847l-0.0423 0.0423v0.381l0.0423 0.0847v0.127l0.0423 0.0847v0.0423l0.0423 0.0847 0.0423 0.0423v0.0847l0.0423 0.0423 0.0423 0.0847 0.0423 0.0423 0.0423 0.0847 0.0423 0.0423 0.0847 0.0423 0.0423 0.0423 0.0423 0.0847 0.0847 0.0423 0.0423 0.0423 0.0847 0.0423 0.0423 0.0423h0.0847l0.0847 0.0423 0.0423 0.0423h0.16934l0.0423 0.0423h0.55033l0.0423-0.0423h0.16933l0.0423-0.0423 0.0847-0.0423h0.0423l0.0847-0.0423 0.0423-0.0423 0.0847-0.0423 0.0423-0.0423 0.0847-0.0423 0.0423-0.0423 0.0423-0.0847 0.0423-0.0423 0.0847-0.0423 0.0423-0.0847 0.0423-0.0423 0.0423-0.0847 1.2277-2.159v0l0.0423-0.0423 0.0846-0.1694v-0.0423l0.0423-0.0847v-0.0847l0.0423-0.0423v-0.55033l-0.0423-0.0423v-0.0847l-0.0423-0.0847v-0.0423l-0.0423-0.0847-0.0423-0.0423v-0.0847l-0.0423-0.0423-0.0423-0.0847-0.0423-0.0423-0.0423-0.0847-0.0846-0.0846-0.0847-0.0423-0.1693-0.1693h-0.0847l-0.0423-0.0423-0.1694-0.0846h-0.0423l-0.0847-0.0423h-0.0847l-0.0423-0.0423h-0.508l-0.0847 0.0423h-0.0847l-0.0423 0.0423h-0.0847l-0.0847 0.0423-0.0423 0.0423h-0.0847l-0.0423 0.0423-0.0847 0.0423-0.0846 0.0846-0.0847 0.0423-0.0423 0.0847-0.0846 0.0846-0.0423 0.0847-0.0423 0.0423-0.0423 0.0847z" fill="none" stroke="#1f1a17" stroke-linecap="round" stroke-linejoin="round" stroke-miterlimit="10" stroke-width=".075184"/>
  <path d="m102.03 164.97 0.1269-0.1269v-0.0423l0.1269-0.1269h0.0423l0.1269-0.1269h0.0423l0.0847-0.0423h0.0847l0.0423-0.0423h0.127l0.0423-0.0423h0.254l0.0423 0.0423h0.127l0.0423 0.0423h0.0423l0.0423 0.0423h0.0847l0.0423 0.0423h0.0423l0.2538 0.2538v0.0423l0.0846 0.0846v0.0423l0.0846 0.0846v0.0847l0.0423 0.0423v0.127l0.0423 0.0423v0.254l-0.0423 0.0847v0.0847l-0.0423 0.0423v0.0423l-0.0423 0.0847v0.0423l-0.0423 0.0423v0.0423l-0.2961 0.2961h-0.0423l-0.0846 0.0846h-0.0423l-0.0423 0.0423h-0.0423l-0.0423 0.0423h-0.16933l-0.0423 0.0423h-0.254l-0.0847-0.0423h-0.0847l-0.0423-0.0423h-0.127l-0.0846-0.0846h-0.0423l-0.1692-0.1692h-0.0423l-0.1269-0.1269v-0.0423l-0.0423-0.0847v-0.0423l-0.0423-0.0423v-0.0423l-0.0423-0.0423v-0.0847l-0.0423-0.0847v-0.33867l0.0423-0.0847v-0.0847l0.0423-0.0423v-0.0423l0.0423-0.0847z" fill="none" stroke="#1f1a17" stroke-linecap="round" stroke-linejoin="round" stroke-miterlimit="10" stroke-width=".075184"/>
 </g>
</svg>
