<?xml version="1.0" encoding="UTF-8"?>
<!-- Created with Inkscape (http://www.inkscape.org/) -->
<svg width="24.596mm" height="55.033mm" version="1.1" viewBox="0 0 24.596 55.033" xmlns="http://www.w3.org/2000/svg">
 <defs>
  <clipPath id="clipPath43">
   <path d="m1151 1721.2h290.5v-650h-290.5z"/>
  </clipPath>
 </defs>
 <g transform="translate(-87.313 -127.79)">
  <path transform="matrix(.084667 0 0 -.084667 -10.139 273.52)" d="m1151 1071.2h290.5v650h-290.5z" clip-path="url(#clipPath43)" fill="#b6b5b4" fill-rule="evenodd"/>
  <g fill="#848382" fill-rule="evenodd">
   <path d="m93.747 181.09v-42.291l1.0583-0.80434 1.016 0.80434v42.291h-2.0743" stroke="#1f1a17" stroke-linecap="round" stroke-linejoin="round" stroke-miterlimit="10" stroke-width=".042333"/>
   <path d="m105.35 133.76 0.0847 0.0423h0.16933l0.0847 0.0423h0.254l0.0847-0.0423h0.21167l0.0847-0.0423h0.0423l0.0847-0.0423h0.0423l0.0847-0.0423h0.0423l0.0423-0.0423 0.0847-0.0423h0.0423l0.0423-0.0423 0.0847-0.0423 0.1269-0.1269 0.0847-0.0423 0.2116-0.2116 0.0423-0.0847 0.0847-0.0423 0.0423-0.0847 0.0847-0.127 0.1692-0.3388v-0.127l0.0423-0.0847v-0.0847l0.0423-0.127v-0.59266l-0.0423-0.0847v-0.0847l-0.0423-0.127v-0.0847l-0.0846-0.1694-0.0423-0.127-0.0423-0.0847-0.0847-0.0847-0.0423-0.0847-0.0847-0.0847-0.0423-0.0847-0.0847-0.0423-0.1694-0.1694-0.0847-0.0423-0.0847-0.0847-0.5082-0.2538-0.127-0.0423h-0.16933l-0.127-0.0423h-0.381l-0.0847 0.0423h-0.21166l-0.2541 0.1269-0.127 0.0423-0.2541 0.1269-0.0847 0.0847-0.0847 0.0423-0.3809 0.3809v0.0847l-0.0846 0.0846-0.0423 0.0847-0.0423 0.0423v0.0423l-0.0423 0.0847v0.0423l-0.0423 0.0847v0.0423l-0.0423 0.0847v0.0423l-0.0423 0.0847v0.16933l-0.0423 0.0847v0.381l0.0423 0.0423v0.21167l-12.615 12.827 1.5663 1.6087 12.615-12.869" stroke="#1f1a17" stroke-linecap="round" stroke-linejoin="round" stroke-miterlimit="10" stroke-width=".072644"/>
   <path d="m95.821 152.86h0.04233l0.04233-0.0423 0.08467-0.0423 0.21165-0.2115 0.04233-0.0847 0.16932-0.1692 0.04233-0.0847 0.04233-0.0423v-0.0423l0.04233-0.0847 0.04233-0.0423v-0.0847l0.04233-0.0423v-0.0423l0.04233-0.0847v-0.0423l0.04233-0.0847v-0.127l0.04233-0.0423v-0.67733l-0.04233-0.0847v-0.0847l-0.04233-0.127-0.12699-0.2541-0.04233-0.127-0.12699-0.2541-0.08467-0.0423-0.04233-0.0847-0.16934-0.1694-0.04233-0.0423-0.08467-0.0847-0.33868-0.1692-0.08467-0.0847h-0.127l-0.16934-0.0846h-0.08467l-0.127-0.0423h-0.635l-0.08467 0.0423h-0.08467l-0.127 0.0423-0.08467 0.0423h-0.08467l-0.08467 0.0847-0.33868 0.1692-0.08467 0.0847-0.08467 0.0423-0.08467 0.0847-0.04233 0.0847-0.08467 0.0847-0.04233 0.0423-0.04233 0.0847-0.08467 0.0847-0.04233 0.0847-0.04233 0.127-0.12699 0.2541v0.127l-0.04233 0.0847v0.0847l-0.04233 0.127v0.42333l0.04233 0.0423v0.21167l0.04233 0.0423v0.0847l0.04233 0.0423v0.0847l0.04233 0.0423v0.0423l0.04233 0.0847 0.04233 0.0423v0.0847l0.08466 0.0846 0.04233 0.0847v0.0423l0.12699 0.1269 0.04233 0.0847 0.16932 0.1692 0.08467 0.0423 0.08466 0.0846h0.04233v18.203h2.2437v-18.203"/>
  </g>
  <path d="m95.821 152.86h0.04233l0.04233-0.0423 0.08467-0.0423 0.21165-0.2115 0.04233-0.0847 0.16932-0.1692 0.04233-0.0847 0.04233-0.0423v-0.0423l0.04233-0.0847 0.04233-0.0423v-0.0847l0.04233-0.0423v-0.0423l0.04233-0.0847v-0.0423l0.04233-0.0847v-0.127l0.04233-0.0423v-0.67733l-0.04233-0.0847v-0.0847l-0.04233-0.127-0.12699-0.2541-0.04233-0.127-0.12699-0.2541-0.08467-0.0423-0.04233-0.0847-0.16934-0.1694-0.04233-0.0423-0.08467-0.0847-0.33868-0.1692-0.08467-0.0847h-0.127l-0.16934-0.0846h-0.08467l-0.127-0.0423h-0.635l-0.08467 0.0423h-0.08467l-0.127 0.0423-0.08467 0.0423h-0.08467l-0.08467 0.0847-0.33868 0.1692-0.08467 0.0847-0.08467 0.0423-0.08467 0.0847-0.04233 0.0847-0.08467 0.0847-0.04233 0.0423-0.04233 0.0847-0.08467 0.0847-0.04233 0.0847-0.04233 0.127-0.12699 0.2541v0.127l-0.04233 0.0847v0.0847l-0.04233 0.127v0.42333l0.04233 0.0423v0.21167l0.04233 0.0423v0.0847l0.04233 0.0423v0.0847l0.04233 0.0423v0.0423l0.04233 0.0847 0.04233 0.0423v0.0847l0.08466 0.0846 0.04233 0.0847v0.0423l0.12699 0.1269 0.04233 0.0847 0.16932 0.1692 0.08467 0.0423 0.08466 0.0846h0.04233v18.203h2.2437z" fill="none" stroke="#1f1a17" stroke-linecap="round" stroke-linejoin="round" stroke-miterlimit="10" stroke-width=".072644"/>
  <path d="m97.472 147.39 0.04233 0.0847 0.04233 0.0423 0.04233 0.0847 0.04233 0.0423 0.04233 0.0847 0.04233 0.0423 0.08467 0.0423 0.08466 0.0846 0.08467 0.0423 0.04233 0.0423 0.08467 0.0423h0.04233l0.08467 0.0423 0.04233 0.0423h0.08467l0.08467 0.0423h0.254l0.08467 0.0423 0.08467-0.0423h0.21167l0.04233-0.0423h0.08467l0.08467-0.0423 0.04233-0.0423h0.08467l0.08467-0.0423 0.08466-0.0846 0.08467-0.0423 0.04233-0.0423 0.04233-0.0847 0.08467-0.0423 0.04233-0.0423 0.04233-0.0847 0.08466-0.0846v-0.0847l0.0423-0.0423 0.0846-0.1694v-0.0423l0.0423-0.0847v-0.127l0.0423-0.0847v-0.29634l-0.0423-0.0847v-0.127l-0.0423-0.0847v-0.0423l-0.0423-0.0847v-0.0847l-0.0423-0.0423-0.0423-0.0847-1.2277-2.159-0.04233-0.0423-0.04233-0.0847-0.04233-0.0423-0.04233-0.0847-0.08466-0.0846-0.08467-0.0423-0.04233-0.0423-0.08467-0.0423-0.08466-0.0846-0.08467-0.0423-0.04233-0.0423h-0.08467l-0.08467-0.0423h-0.04233l-0.08467-0.0423h-0.127l-0.08467-0.0423h-0.29633l-0.04233 0.0423h-0.16933l-0.04233 0.0423-0.08467 0.0423h-0.04233l-0.16934 0.0846-0.04233 0.0423-0.08467 0.0423-0.08466 0.0846-0.08467 0.0423-0.04233 0.0847-0.08466 0.0846-0.04233 0.0847-0.04233 0.0423-0.04233 0.0847v0.0423l-0.04233 0.0847-0.04233 0.0423v0.0847l-0.04233 0.0847v0.127l-0.04233 0.0847v0.33867l0.04233 0.0847v0.127l0.08466 0.1694v0.0423l0.08466 0.1694 1.2277 2.1167" fill="#848382" fill-rule="evenodd"/>
  <g stroke="#1f1a17" stroke-linecap="round" stroke-linejoin="round" stroke-miterlimit="10" stroke-width=".072644">
   <path d="m97.472 147.39 0.04233 0.0847 0.04233 0.0423 0.04233 0.0847 0.04233 0.0423 0.04233 0.0847 0.04233 0.0423 0.08467 0.0423 0.08466 0.0846 0.08467 0.0423 0.04233 0.0423 0.08467 0.0423h0.04233l0.08467 0.0423 0.04233 0.0423h0.08467l0.08467 0.0423h0.254l0.08467 0.0423 0.08467-0.0423h0.21167l0.04233-0.0423h0.08467l0.08467-0.0423 0.04233-0.0423h0.08467l0.08467-0.0423 0.08466-0.0846 0.08467-0.0423 0.04233-0.0423 0.04233-0.0847 0.08467-0.0423 0.04233-0.0423 0.04233-0.0847 0.08466-0.0846v-0.0847l0.0423-0.0423 0.0846-0.1694v-0.0423l0.0423-0.0847v-0.127l0.0423-0.0847v-0.29634l-0.0423-0.0847v-0.127l-0.0423-0.0847v-0.0423l-0.0423-0.0847v-0.0847l-0.0423-0.0423-0.0423-0.0847-1.2277-2.159-0.04233-0.0423-0.04233-0.0847-0.04233-0.0423-0.04233-0.0847-0.08466-0.0846-0.08467-0.0423-0.04233-0.0423-0.08467-0.0423-0.08466-0.0846-0.08467-0.0423-0.04233-0.0423h-0.08467l-0.08467-0.0423h-0.04233l-0.08467-0.0423h-0.127l-0.08467-0.0423h-0.29633l-0.04233 0.0423h-0.16933l-0.04233 0.0423-0.08467 0.0423h-0.04233l-0.16934 0.0846-0.04233 0.0423-0.08467 0.0423-0.08466 0.0846-0.08467 0.0423-0.04233 0.0847-0.08466 0.0846-0.04233 0.0847-0.04233 0.0423-0.04233 0.0847v0.0423l-0.04233 0.0847-0.04233 0.0423v0.0847l-0.04233 0.0847v0.127l-0.04233 0.0847v0.33867l0.04233 0.0847v0.127l0.08466 0.1694v0.0423l0.08466 0.1694z" fill="none"/>
   <path d="m97.811 147.27-0.04233-0.0423v-0.0847l-0.04233-0.0423v-0.0423l-0.04233-0.0423v-0.59267l0.04233-0.0423v-0.0423l0.04233-0.0423v-0.0423l0.04233-0.0423v-0.0847l0.08466-0.0846v-0.0423h0.04233l0.21165-0.2115h0.04233l0.08466-0.0846h0.127l0.04233-0.0423h0.08467l0.08467-0.0423h0.254l0.04233 0.0423h0.16933l0.04233 0.0423h0.04233l0.04233 0.0423h0.04233l0.08466 0.0846h0.04233l0.21165 0.2115v0.0423l0.08466 0.0846v0.0423l0.04233 0.0423v0.0847l0.04233 0.0423v0.0847l0.04233 0.0847v0.33867l-0.04233 0.0423v0.127l-0.04233 0.0423v0.0423l-0.04233 0.0423v0.0423l-0.04233 0.0423v0.0423l-0.12699 0.1269v0.0423l-0.12699 0.1269h-0.04233l-0.08467 0.0423-0.04233 0.0423h-0.04233l-0.04233 0.0423h-0.04233l-0.04233 0.0423h-0.16933l-0.04233 0.0423h-0.16933l-0.04233-0.0423h-0.16933l-0.04233-0.0423h-0.08467l-0.08466-0.0846h-0.04233l-0.08466-0.0846h-0.04233l-0.21165-0.2115v-0.0423l-0.04233-0.0423" fill="#00923f" fill-rule="evenodd"/>
   <path d="m96.541 145.11-0.08466-0.0846v-0.0847l-0.04233-0.0423v-0.127l-0.04233-0.0847v-0.29634l0.04233-0.0423v-0.127l0.04233-0.0423v-0.0423l0.04233-0.0423v-0.0423l0.08466-0.0846v-0.0423l0.25398-0.2538h0.04233l0.08466-0.0846h0.04233l0.04233-0.0423h0.04233l0.08467-0.0423h0.21167l0.04233-0.0423h0.04233l0.04233 0.0423h0.21167l0.04233 0.0423h0.04233l0.04233 0.0423h0.08467l0.04233 0.0423h0.04233l0.08466 0.0846h0.04233l0.04233 0.0423v0.0423l0.16932 0.1692v0.0423l0.04233 0.0423v0.0847l0.04233 0.0423v0.0423l0.04233 0.0423v0.16934l0.04233 0.0423v0.16933l-0.04233 0.0423v0.21166l-0.04233 0.0423v0.0423l-0.04233 0.0423v0.0847l-0.08466 0.0846v0.0423l-0.08466 0.0846h-0.04233l-0.16932 0.1692h-0.04233l-0.08466 0.0846h-0.04233l-0.08467 0.0423h-0.127l-0.04233 0.0423h-0.29633l-0.04233-0.0423h-0.127l-0.04233-0.0423h-0.08467l-0.04233-0.0423h-0.04233l-0.08466-0.0846h-0.04233l-0.12699-0.1269v-0.0423l-0.12699-0.1269z" fill="none"/>
  </g>
  <path d="m96.16 171.48-0.04233 0.0847v0.0423l-0.08466 0.1694v0.0423l-0.04233 0.0847v0.16934l-0.04233 0.0423v0.21167l0.04233 0.0847v0.21167l0.04233 0.0847v0.0423l0.08466 0.1694v0.0423l0.04233 0.0847 0.08466 0.0846 0.04233 0.0847 0.04233 0.0423 0.08467 0.0423 0.04233 0.0847 0.04233 0.0423 0.08467 0.0423 0.04233 0.0423 0.08467 0.0423 0.04233 0.0423 0.08467 0.0423h0.04233l0.08467 0.0423h0.08467l0.04233 0.0423h0.635l0.08467-0.0423h0.08467l0.04233-0.0423h0.08467l0.04233-0.0423 0.08467-0.0423 0.04233-0.0423 0.08467-0.0423 0.04233-0.0423 0.08467-0.0423 0.08466-0.0846 0.04233-0.0847 0.08466-0.0846 0.08466-0.1694 1.2277-2.1167 0.08466-0.1694 0.0423-0.0423v-0.0847l0.0423-0.0847v-0.127l0.0423-0.0847v-0.42333l-0.0423-0.0847v-0.0423l-0.0423-0.0847v-0.0847l-0.0423-0.0423v-0.0847l-0.04233-0.0423-0.04233-0.0847-0.04233-0.0423-0.04233-0.0847-0.08466-0.0846-0.04233-0.0847-0.08467-0.0423-0.08466-0.0846-0.08467-0.0423-0.04233-0.0423-0.08467-0.0423-0.04233-0.0423h-0.08467l-0.08467-0.0423h-0.04233l-0.08467-0.0423h-0.08467l-0.04233-0.0423h-0.29633l-0.08467 0.0423h-0.127l-0.08467 0.0423h-0.04233l-0.08467 0.0423h-0.08467l-0.04233 0.0423-0.08467 0.0423-0.08466 0.0846-0.08467 0.0423-0.08466 0.0846-0.08467 0.0423-0.04233 0.0423-0.04233 0.0847-0.04233 0.0423-0.04233 0.0847-0.04233 0.0423-1.2277 2.159" fill="#848382" fill-rule="evenodd"/>
  <path d="m96.16 171.48v0l-0.04233 0.0847v0.0423l-0.08466 0.1694v0.0423l-0.04233 0.0847v0.16934l-0.04233 0.0423v0.21167l0.04233 0.0847v0.21167l0.04233 0.0847v0.0423l0.08466 0.1694v0.0423l0.04233 0.0847 0.08466 0.0846 0.04233 0.0847 0.04233 0.0423 0.08467 0.0423 0.04233 0.0847 0.04233 0.0423 0.08467 0.0423 0.04233 0.0423 0.08467 0.0423 0.04233 0.0423 0.08467 0.0423h0.04233l0.08467 0.0423h0.08467l0.04233 0.0423h0.635l0.08467-0.0423h0.08467l0.04233-0.0423h0.08467l0.04233-0.0423 0.08467-0.0423 0.04233-0.0423 0.08467-0.0423 0.04233-0.0423 0.08467-0.0423 0.08466-0.0846 0.04233-0.0847 0.08466-0.0846 0.08466-0.1694 1.2277-2.1167v0l0.08466-0.1694 0.0423-0.0423v-0.0847l0.0423-0.0847v-0.127l0.0423-0.0847v-0.42333l-0.0423-0.0847v-0.0423l-0.0423-0.0847v-0.0847l-0.0423-0.0423v-0.0847l-0.04233-0.0423-0.04233-0.0847-0.04233-0.0423-0.04233-0.0847-0.08466-0.0846-0.04233-0.0847-0.08467-0.0423-0.08466-0.0846-0.08467-0.0423-0.04233-0.0423-0.08467-0.0423-0.04233-0.0423h-0.08467l-0.08467-0.0423h-0.04233l-0.08467-0.0423h-0.08467l-0.04233-0.0423h-0.29633l-0.08467 0.0423h-0.127l-0.08467 0.0423h-0.04233l-0.08467 0.0423h-0.08467l-0.04233 0.0423-0.08467 0.0423-0.08466 0.0846-0.08467 0.0423-0.08466 0.0846-0.08467 0.0423-0.04233 0.0423-0.04233 0.0847-0.04233 0.0423-0.04233 0.0847-0.04233 0.0423z" fill="none" stroke="#1f1a17" stroke-linecap="round" stroke-linejoin="round" stroke-miterlimit="10" stroke-width=".072644"/>
  <path d="m96.456 171.74 0.04233-0.0847 0.04233-0.0423v-0.0423l0.12699-0.1269h0.04233l0.12699-0.1269h0.04233l0.04233-0.0423h0.04233l0.04233-0.0423h0.08467l0.04233-0.0423h0.508l0.04233 0.0423h0.08467l0.08467 0.0423h0.04233l0.12699 0.1269h0.04233l0.16932 0.1692v0.0423l0.08466 0.0846v0.0423l0.04233 0.0423v0.0423l0.04233 0.0423v0.0847l0.04233 0.0423v0.55033l-0.04233 0.0423v0.0847l-0.04233 0.0423v0.0423l-0.08466 0.0846v0.0423l-0.29631 0.2961h-0.04233l-0.04233 0.0423h-0.04233l-0.04233 0.0423h-0.04233l-0.04233 0.0423h-0.08467l-0.08467 0.0423h-0.33867l-0.04233-0.0423h-0.127l-0.04233-0.0423h-0.04233l-0.04233-0.0423h-0.04233l-0.08467-0.0423-0.08466-0.0846h-0.04233l-0.04233-0.0423v-0.0423l-0.12699-0.1269v-0.0423l-0.08466-0.0846v-0.127l-0.04233-0.0423v-0.0423l-0.04233-0.0423v-0.46567l0.04233-0.0847v-0.0423l0.04233-0.0423v-0.0423l0.04233-0.0423z" fill="none" stroke="#1f1a17" stroke-linecap="round" stroke-linejoin="round" stroke-miterlimit="10" stroke-width=".072644"/>
 </g>
</svg>
