<?xml version="1.0" encoding="UTF-8"?>
<!-- Created with Inkscape (http://www.inkscape.org/) -->
<svg width="24.596mm" height="55.033mm" version="1.1" viewBox="0 0 24.596 55.033" xmlns="http://www.w3.org/2000/svg">
 <defs>
  <clipPath id="clipPath139">
   <path transform="translate(.00010417)" d="m1151 2889.2h290.5v-650h-290.5z"/>
  </clipPath>
 </defs>
 <g transform="translate(-68.263 -88.371)">
  <path transform="matrix(.084667 0 0 -.084667 -29.189 332.99)" d="m1151 2239.2h290.5v650h-290.5z" clip-path="url(#clipPath139)" fill="#b6b5b4" fill-rule="evenodd"/>
  <g fill="#848382" fill-rule="evenodd">
   <g stroke="#1f1a17" stroke-miterlimit="10">
    <path d="m74.612 141.67v-42.291l1.1007-0.80433 0.97367 0.80433v42.291h-2.0743" stroke-width=".042333"/>
    <path d="m86.254 94.34 0.04233 0.04233h0.21167l0.04233 0.04233h0.254l0.08467-0.04233h0.254l0.04233-0.04233h0.08467l0.04233-0.04233h0.04233l0.08467-0.04233h0.04233l0.08467-0.04233 0.04233-0.04233h0.04233l0.08467-0.04233 0.12699-0.12699 0.08467-0.04233 0.46566-0.46566 0.04233-0.127 0.16932-0.33868v-0.127l0.08466-0.16934v-0.80435l-0.04233-0.08467-0.04233-0.127v-0.08467l-0.08466-0.16934-0.04233-0.127-0.08466-0.16934-0.08467-0.08467-0.04233-0.08467-0.08467-0.08467-0.08467-0.04233-0.08467-0.08467-0.04233-0.08467-0.08467-0.04233-0.08467-0.08467-0.16934-0.08466-0.127-0.04233-0.25401-0.12699-0.127-0.04233h-0.16933l-0.08467-0.04233h-0.42333l-0.08467 0.04233h-0.21167l-0.33868 0.16932-0.127 0.04233-0.16934 0.08466-0.08467 0.08467-0.08467 0.04233-0.08467 0.08467-0.04233 0.08467-0.21165 0.21165-0.04233 0.08467-0.08466 0.08466-0.04233 0.08467v0.04233l-0.04233 0.04233-0.04233 0.08467v0.04233l-0.04233 0.08467v0.04233l-0.04233 0.08467v0.127l-0.04233 0.04233v0.254l-0.04233 0.08467v0.127l0.04233 0.04233v0.254l0.04233 0.08467-12.658 12.827 1.5663 1.6087 12.658-12.869" stroke-linecap="round" stroke-linejoin="round" stroke-width=".072644"/>
    <path d="m86.339 118.47h0.21167l0.08467 0.0423h0.42333l0.08467-0.0423h0.127l0.04233-0.0423h0.127l0.04233-0.0423h0.08467l0.04233-0.0423 0.08467-0.0423h0.04233l0.04233-0.0423 0.08467-0.0423 0.08466-0.0846h0.04233l0.08467-0.0423 0.12699-0.1269 0.04233-0.0847 0.08467-0.0423 0.08467-0.0847 0.08466-0.1694 0.08467-0.0847 0.04233-0.0847 0.04233-0.127 0.08466-0.1694v-0.0847l0.04233-0.127 0.04233-0.0847v-0.80433l-0.08466-0.1694v-0.127l-0.16932-0.3388-0.08467-0.127-0.04233-0.0423-0.04233-0.127-0.08467-0.0423-0.25401-0.2541-0.04233-0.0423-0.08467-0.0847-0.08467-0.0423-0.127-0.0423-0.33868-0.1692h-0.127l-0.08467-0.0423h-0.16933l-0.127-0.0423h-0.16933l-0.127 0.0423h-0.16933l-0.127 0.0423h-0.08467l-0.16934 0.0846-0.127 0.0423-0.25401 0.1269-0.08467 0.0847-0.08467 0.0423-0.08467 0.0847-0.04233 0.0847-0.04233 0.0423-0.08467 0.0423v0.0423l-0.04233 0.0423-0.04233 0.0847-0.08466 0.0846-0.04233 0.0847-0.04233 0.0423v0.0423l-0.04233 0.0847-0.04233 0.0423v0.0423l-0.04233 0.0847v0.0423l-0.04233 0.0847v0.127l-0.04233 0.0423v0.254l-0.04233 0.0847v0.16934l0.04233 0.0847v0.254l-12.615 12.827 1.5663 1.6087 12.615-12.827" stroke-linecap="round" stroke-linejoin="round" stroke-width=".072644"/>
   </g>
   <path d="m78.253 107.93 0.04233 0.0423 0.04233 0.0847 0.04233 0.0423 0.04233 0.0847 0.08467 0.0423 0.12699 0.1269 0.08467 0.0423 0.04233 0.0423 0.08467 0.0423 0.04233 0.0423 0.08467 0.0423h0.04233l0.08467 0.0423h0.04233l0.08467 0.0423h0.127l0.08467 0.0423h0.21167l0.08467-0.0423h0.127l0.08467-0.0423h0.08467l0.04233-0.0423h0.08467l0.04233-0.0423 0.08467-0.0423 0.04233-0.0423 0.08467-0.0423 0.04233-0.0423 0.08467-0.0423 0.04233-0.0423 0.04233-0.0847 0.08466-0.0846 0.04233-0.0847 0.04233-0.0423 0.04233-0.0847 0.04233-0.0423v-0.0847l0.04233-0.0423 0.04233-0.0847v-0.127l0.04233-0.0847v-0.508l-0.04233-0.0847v-0.0423l-0.04233-0.0847v-0.0847l-0.04233-0.0423-0.08466-0.1694-1.1853-2.159-0.04233-0.0423-0.04233-0.0847-0.04233-0.0423-0.08467-0.0423-0.04233-0.0847-0.08466-0.0846-0.08467-0.0423-0.08466-0.0846-0.08467-0.0423-0.04233-0.0423-0.08467-0.0423h-0.08467l-0.04233-0.0423h-0.08467l-0.04233-0.0423h-0.21167l-0.08467-0.0423h-0.08467l-0.04233 0.0423h-0.254l-0.04233 0.0423h-0.08467l-0.04233 0.0423h-0.08467l-0.08467 0.0423-0.04233 0.0423-0.08467 0.0423-0.04233 0.0423-0.08467 0.0423-0.04233 0.0423-0.04233 0.0847-0.04233 0.0423-0.08467 0.0423-0.04233 0.0423-0.04233 0.0847v0.0423l-0.04233 0.0847-0.04233 0.0423-0.04233 0.0847v0.0423l-0.04233 0.0847v0.0847l-0.04233 0.0423v0.67734l0.04233 0.0847v0.0423l0.08466 0.1694v0.0423l0.04233 0.0847 1.2277 2.159"/>
  </g>
  <g stroke="#1f1a17" stroke-linecap="round" stroke-linejoin="round" stroke-miterlimit="10" stroke-width=".072644">
   <path d="m78.253 107.93 0.04233 0.0423 0.04233 0.0847 0.04233 0.0423 0.04233 0.0847 0.08467 0.0423 0.12699 0.1269 0.08467 0.0423 0.04233 0.0423 0.08467 0.0423 0.04233 0.0423 0.08467 0.0423h0.04233l0.08467 0.0423h0.04233l0.08467 0.0423h0.127l0.08467 0.0423h0.21167l0.08467-0.0423h0.127l0.08467-0.0423h0.08467l0.04233-0.0423h0.08467l0.04233-0.0423 0.08467-0.0423 0.04233-0.0423 0.08467-0.0423 0.04233-0.0423 0.08467-0.0423 0.04233-0.0423 0.04233-0.0847 0.08466-0.0846 0.04233-0.0847 0.04233-0.0423 0.04233-0.0847 0.04233-0.0423v-0.0847l0.04233-0.0423 0.04233-0.0847v-0.127l0.04233-0.0847v-0.508l-0.04233-0.0847v-0.0423l-0.04233-0.0847v-0.0847l-0.04233-0.0423-0.08466-0.1694-1.1853-2.159-0.04233-0.0423-0.04233-0.0847-0.04233-0.0423-0.08467-0.0423-0.04233-0.0847-0.08466-0.0846-0.08467-0.0423-0.08466-0.0846-0.08467-0.0423-0.04233-0.0423-0.08467-0.0423h-0.08467l-0.04233-0.0423h-0.08467l-0.04233-0.0423h-0.21167l-0.08467-0.0423h-0.08467l-0.04233 0.0423h-0.254l-0.04233 0.0423h-0.08467l-0.04233 0.0423h-0.08467l-0.08467 0.0423-0.04233 0.0423-0.08467 0.0423-0.04233 0.0423-0.08467 0.0423-0.04233 0.0423-0.04233 0.0847-0.04233 0.0423-0.08467 0.0423-0.04233 0.0423-0.04233 0.0847v0.0423l-0.04233 0.0847-0.04233 0.0423-0.04233 0.0847v0.0423l-0.04233 0.0847v0.0847l-0.04233 0.0423v0.67734l0.04233 0.0847v0.0423l0.08466 0.1694v0.0423l0.04233 0.0847z" fill="none"/>
   <path d="m78.592 107.76v-0.0423l-0.04233-0.0423v-0.0847l-0.04233-0.0423v-0.0847l-0.04233-0.0847v-0.33867l0.04233-0.0423v-0.127l0.04233-0.0423v-0.0423l0.04233-0.0423v-0.0423l0.04233-0.0423v-0.0423l0.16932-0.1692v-0.0423l0.08466-0.0846h0.08467l0.08466-0.0846h0.04233l0.04233-0.0423h0.04233l0.04233-0.0423h0.21167l0.08467-0.0423h0.08467l0.04233 0.0423h0.16933l0.04233 0.0423h0.08467l0.08466 0.0846h0.04233l0.04233 0.0423 0.08467 0.0423 0.21165 0.2115v0.0423l0.08466 0.0846v0.0847l0.04233 0.0423v0.0423l0.04233 0.0423v0.21167l0.04233 0.0423v0.0847l-0.04233 0.0423v0.21167l-0.04233 0.0423v0.0423l-0.04233 0.0423v0.0423l-0.04233 0.0423v0.0847l-0.08466 0.0846v0.0423h-0.04233l-0.21165 0.2115h-0.04233l-0.08466 0.0846h-0.127l-0.04233 0.0423h-0.08467l-0.08467 0.0423h-0.254l-0.04233-0.0423h-0.127l-0.08467-0.0423h-0.04233l-0.04233-0.0423h-0.04233l-0.08466-0.0846h-0.04233l-0.16932-0.1692v-0.0423l-0.12699-0.1269" fill="#00923f" fill-rule="evenodd"/>
   <path d="m77.322 105.6-0.04233-0.0423v-0.0423l-0.04233-0.0423v-0.127l-0.04233-0.0423v-0.46567l0.04233-0.0423v-0.127l0.04233-0.0423v-0.0423l0.04233-0.0423v-0.0423l0.08466-0.0846v-0.0423l0.16932-0.1692h0.04233l0.12699-0.1269h0.08467l0.04233-0.0423h0.08467l0.04233-0.0423h0.46567l0.04233 0.0423h0.127l0.04233 0.0423h0.04233l0.04233 0.0423h0.04233l0.12699 0.1269h0.04233l0.12699 0.1269v0.0423l0.08466 0.0846v0.0847l0.04233 0.0423v0.0423l0.04233 0.0423v0.0847l0.04233 0.0423v0.46567l-0.04233 0.0423v0.0847l-0.04233 0.0423v0.0847l-0.08466 0.0846v0.0423l-0.12699 0.1269v0.0423l-0.04233 0.0423h-0.04233l-0.12699 0.1269h-0.08467l-0.04233 0.0423h-0.04233l-0.04233 0.0423h-0.127l-0.04233 0.0423h-0.33867l-0.04233-0.0423h-0.127l-0.04233-0.0423h-0.04233l-0.04233-0.0423h-0.04233l-0.04233-0.0423h-0.04233l-0.29631-0.2961v-0.0423z" fill="none"/>
  </g>
  <path d="m78.295 132.14 0.04233 0.0847 0.04233 0.0423 0.04233 0.0847 0.08466 0.0846 0.04233 0.0847 0.08467 0.0423 0.08466 0.0846 0.08467 0.0423 0.04233 0.0423 0.08467 0.0423h0.04233l0.08467 0.0423 0.04233 0.0423h0.16933l0.04233 0.0423h0.508l0.08467-0.0423h0.127l0.08467-0.0423 0.04233-0.0423 0.16934-0.0846h0.04233l0.08467-0.0423 0.04233-0.0847 0.08466-0.0846 0.08467-0.0423 0.04233-0.0423 0.04233-0.0847 0.04233-0.0423 0.04233-0.0847 0.04233-0.0423v-0.0847l0.04233-0.0423 0.04233-0.0847v-0.0423l0.04233-0.0847v-0.127l0.04233-0.0847v-0.381l-0.04233-0.0423v-0.16933l-0.04233-0.0847-0.04233-0.0423v-0.0847l-0.04233-0.0847-0.04233-0.0423-1.2277-2.159-0.04233-0.0847-0.04233-0.0423-0.04233-0.0847-0.12699-0.1269-0.08467-0.0847-0.08466-0.0846-0.08467-0.0423h-0.04233l-0.08467-0.0423-0.04233-0.0423-0.08467-0.0423h-0.08467l-0.04233-0.0423h-0.127l-0.08467-0.0423h-0.42333l-0.08467 0.0423h-0.08467l-0.04233 0.0423h-0.08467l-0.04233 0.0423-0.16934 0.0846-0.04233 0.0423-0.08467 0.0423-0.08466 0.0846-0.08467 0.0423-0.04233 0.0423-0.04233 0.0847-0.08466 0.0846-0.04233 0.0847-0.04233 0.0423v0.0847l-0.04233 0.0423-0.04233 0.0847v0.0847l-0.04233 0.0423v0.16933l-0.04233 0.0423v0.381l0.04233 0.0847v0.127l0.04233 0.0847 0.04233 0.0423v0.0847l0.04233 0.0847 0.04233 0.0423 1.2277 2.159" fill="#848382" fill-rule="evenodd"/>
  <path d="m78.295 132.14v0l0.04233 0.0847 0.04233 0.0423 0.04233 0.0847 0.08466 0.0846 0.04233 0.0847 0.08467 0.0423 0.08466 0.0846 0.08467 0.0423 0.04233 0.0423 0.08467 0.0423h0.04233l0.08467 0.0423 0.04233 0.0423h0.16933l0.04233 0.0423h0.508l0.08467-0.0423h0.127l0.08467-0.0423 0.04233-0.0423 0.16934-0.0846h0.04233l0.08467-0.0423 0.04233-0.0847 0.08466-0.0846 0.08467-0.0423 0.04233-0.0423 0.04233-0.0847 0.04233-0.0423 0.04233-0.0847 0.04233-0.0423v-0.0847l0.04233-0.0423 0.04233-0.0847v-0.0423l0.04233-0.0847v-0.127l0.04233-0.0847v-0.381l-0.04233-0.0423v-0.16933l-0.04233-0.0847-0.04233-0.0423v-0.0847l-0.04233-0.0847-0.04233-0.0423-1.2277-2.159v0l-0.04233-0.0847-0.04233-0.0423-0.04233-0.0847-0.12699-0.1269-0.08467-0.0847-0.08466-0.0846-0.08467-0.0423h-0.04233l-0.08467-0.0423-0.04233-0.0423-0.08467-0.0423h-0.08467l-0.04233-0.0423h-0.127l-0.08467-0.0423h-0.42333l-0.08467 0.0423h-0.08467l-0.04233 0.0423h-0.08467l-0.04233 0.0423-0.16934 0.0846-0.04233 0.0423-0.08467 0.0423-0.08466 0.0846-0.08467 0.0423-0.04233 0.0423-0.04233 0.0847-0.08466 0.0846-0.04233 0.0847-0.04233 0.0423v0.0847l-0.04233 0.0423-0.04233 0.0847v0.0847l-0.04233 0.0423v0.16933l-0.04233 0.0423v0.381l0.04233 0.0847v0.127l0.04233 0.0847 0.04233 0.0423v0.0847l0.04233 0.0847 0.04233 0.0423z" fill="none" stroke="#1f1a17" stroke-linecap="round" stroke-linejoin="round" stroke-miterlimit="10" stroke-width=".072644"/>
  <path d="m78.634 132.02-0.04233-0.0847v-0.0423l-0.04233-0.0423v-0.0847l-0.04233-0.0847v-0.508l0.04233-0.0423v-0.0423l0.04233-0.0423v-0.0847l0.04233-0.0423v-0.0423l0.08466-0.0846v-0.0423l0.12699-0.1269h0.04233l0.12699-0.1269h0.04233l0.08467-0.0423h0.04233l0.04233-0.0423h0.08467l0.04233-0.0423h0.381l0.04233 0.0423h0.127l0.04233 0.0423h0.04233l0.04233 0.0423h0.04233l0.04233 0.0423h0.04233l0.25398 0.2538v0.0423l0.08466 0.0846v0.0423l0.04233 0.0423v0.0423l0.04233 0.0847v0.0423l0.04233 0.0423v0.46566l-0.04233 0.0423v0.0423l-0.04233 0.0847v0.0847l-0.08466 0.0846v0.0423l-0.12699 0.1269v0.0423l-0.08466 0.0846h-0.04233l-0.04233 0.0423-0.08467 0.0423-0.04233 0.0423h-0.04233l-0.04233 0.0423h-0.08467l-0.08467 0.0423h-0.46567l-0.04233-0.0423h-0.08467l-0.04233-0.0423h-0.04233l-0.04233-0.0423h-0.04233l-0.12699-0.1269h-0.04233l-0.16932-0.1692v-0.0423l-0.04233-0.0423" fill="#fff500" fill-rule="evenodd" stroke="#1f1a17" stroke-linecap="round" stroke-linejoin="round" stroke-miterlimit="10" stroke-width=".072644"/>
 </g>
</svg>
