<?xml version="1.0" encoding="UTF-8"?>
<!-- Created with Inkscape (http://www.inkscape.org/) -->
<svg width="26.458mm" height="62.407mm" version="1.1" viewBox="0 0 26.458 62.407" xmlns="http://www.w3.org/2000/svg">
 <g transform="translate(-104.78 -160.07)">
  <g fill-rule="evenodd">
   <path d="m108.52 222.46v-61.172l1.3123-1.1853 1.1853 1.1853v61.172h-2.4977" fill="#848382" stroke="#1f1a17" stroke-miterlimit="10" stroke-width=".042333"/>
   <path d="m126.6 167.34 0.0423 0.0847 0.0423 0.0423 0.0423 0.0847 0.0847 0.0423 0.0423 0.0847 0.0423 0.0423 0.0423 0.0847 0.0847 0.0423 0.2116 0.2116 0.0847 0.0423 0.0423 0.0423 0.0847 0.0423 0.0423 0.0423h0.0847l0.0847 0.0423 0.0423 0.0423 0.0847 0.0423h0.0847l0.0847 0.0423h0.0423l0.0847 0.0423h0.0847l0.0847 0.0423h0.127l0.0847 0.0423h0.508l0.127-0.0423h0.127l0.127-0.0423 0.0847-0.0423 0.381-0.1269 0.0847-0.0423 0.127-0.0847 0.0847-0.0423 0.0847-0.0847 0.127-0.0847 0.3388-0.3388 0.0423-0.0847 0.0847-0.0847 0.0847-0.127 0.0423-0.0847 0.0423-0.127 0.0423-0.0847 0.1692-0.508v-0.127l0.0423-0.0847v-0.55034l-0.0423-0.127v-0.127l-0.0423-0.0847-0.1269-0.381-0.0423-0.0847-0.0423-0.127-0.0423-0.0847-0.0847-0.127-0.0847-0.0847-0.0423-0.0847-0.0847-0.127-0.1694-0.1694-0.0847-0.0423-0.127-0.0847-0.0847-0.0847-0.0847-0.0423-0.127-0.0847-0.0847-0.0423-0.381-0.1269-0.0847-0.0423-0.127-0.0423h-0.127l-0.127-0.0423h-0.508l-0.0847 0.0423h-0.127l-0.0847 0.0423h-0.16933l-0.0423 0.0423-0.0847 0.0423h-0.0847l-0.0847 0.0423-0.0423 0.0423h-0.0847l-0.0847 0.0423-0.0423 0.0423-0.0847 0.0423-0.0423 0.0423-0.0847 0.0423-0.0423 0.0423-0.0847 0.0423-0.0423 0.0847-0.0423 0.0423-0.0847 0.0423-0.0423 0.0423-0.0423 0.0847-0.1693 0.1693-0.0423 0.0847-0.0423 0.0423h-21.802v2.7517l21.802-0.0423" fill="#da251d" stroke="#1f1a17" stroke-miterlimit="10" stroke-width=".042333"/>
   <path d="m105.6 166.66h20.87v-1.27h-20.87z" fill="#fff"/>
   <path d="m128.76 164.5h0.127l0.0847 0.0423h0.16933l0.0423 0.0423h0.0847l0.0847 0.0423 0.0423 0.0423 0.0847 0.0423h0.0423l0.0847 0.0423 0.0846 0.0846 0.0847 0.0423 0.0423 0.0847 0.0846 0.0846 0.0423 0.0847 0.0846 0.0846 0.0423 0.0847 0.0423 0.0423 0.0423 0.0847v0.0847l0.0423 0.0423v0.0847l0.0423 0.0847v0.59266l-0.0423 0.0847v0.0847l-0.0423 0.0423v0.0847l-0.0423 0.0423-0.0846 0.1694-0.0846 0.0846-0.0423 0.0847-0.2962 0.2962-0.0847 0.0423h-0.0423l-0.0847 0.0423-0.0423 0.0423-0.0847 0.0423h-0.0847l-0.0423 0.0423h-0.16933l-0.0847 0.0423h-0.29633l-0.0847-0.0423h-0.127l-0.0847-0.0423h-0.0423l-0.1694-0.0846-0.0423-0.0423h-0.0847l-0.0423-0.0423-0.0847-0.0423-0.0423-0.0423-0.0423-0.0847-0.0423-0.0423-0.0847-0.0423-0.0423-0.0423-0.0423-0.0847-0.0846-0.0846-0.0423-0.0847v-0.0847l-0.0423-0.0423-0.0423-0.0847v-0.0423l-0.0423-0.0847v-0.16933l-0.0423-0.0423v-0.33866l0.0423-0.0847v-0.127l0.0423-0.0847v-0.0423l0.0846-0.1694v-0.0423l0.0423-0.0847 0.0846-0.0846 0.0423-0.0847 0.0423-0.0423 0.0847-0.0423 0.0423-0.0847 0.0846-0.0846 0.0847-0.0423 0.0423-0.0423h0.0847l0.0423-0.0423 0.1694-0.0846h0.0423l0.0847-0.0423h0.127l0.0847-0.0423h0.16933" fill="#fff"/>
   <path d="m111.02 178.01 0.1694-0.0846 0.1693-0.1693 0.0847-0.0423 0.0423-0.0423 0.0423-0.0847 0.0423-0.0423 0.0847-0.0423 0.0423-0.0847 0.0423-0.0423 0.0423-0.0847 0.0423-0.0423 0.0846-0.1694 0.0423-0.0423v-0.0847l0.0423-0.0847 0.0423-0.0423 0.0423-0.0847v-0.0847l0.0423-0.0847v-0.0423l0.0423-0.0847v-0.16934l0.0423-0.0847v-0.55034l-0.0423-0.127v-0.127l-0.1269-0.381-0.0423-0.0847-0.0423-0.127-0.0423-0.0847-0.0847-0.127-0.0423-0.0847-0.0847-0.127-0.0847-0.0847-0.0423-0.0847-0.1694-0.1694-0.127-0.0847-0.0847-0.0847-0.0847-0.0423-0.0847-0.0847-0.127-0.0423-0.127-0.0847-0.0847-0.0423-0.254-0.0846-0.0847-0.0423h-0.127l-0.127-0.0423h-0.254l-0.127-0.0423-0.127 0.0423h-0.254l-0.127 0.0423h-0.127l-0.254 0.0846-0.0847 0.0423-0.127 0.0423-0.127 0.0847-0.0847 0.0423-0.0847 0.0847-0.127 0.0423-0.5082 0.5082-0.0423 0.127-0.0847 0.0847-0.0423 0.127-0.0847 0.0847-0.0423 0.127-0.0423 0.0847-0.0846 0.254v0.127l-0.0423 0.127v0.762l0.0423 0.0847v0.16933l0.0423 0.0423 0.0423 0.0847v0.0847l0.0423 0.0847 0.0423 0.0423v0.0847l0.0423 0.0847 0.0423 0.0423 0.0846 0.1694 0.0423 0.0423 0.0423 0.0847 0.0423 0.0423 0.0423 0.0847 0.2539 0.2539 0.0847 0.0423 0.0423 0.0847 0.0847 0.0423 0.0423 0.0423 0.0847 0.0423v21.886h2.7093l-0.0423-21.886" fill="#da251d" stroke="#1f1a17" stroke-miterlimit="10" stroke-width=".042333"/>
   <path d="m109.11 199.05h1.2277v-20.913h-1.2277z" fill="#fff"/>
   <path d="m108.23 175.85v-0.29633l0.0423-0.0847v-0.0847l0.0423-0.0423v-0.0847l0.0423-0.0847 0.0423-0.0423 0.0423-0.0847 0.0846-0.0846 0.0423-0.0847 0.0846-0.0846 0.0423-0.0847 0.0847-0.0423 0.0846-0.0846 0.0847-0.0423 0.0423-0.0423h0.0847l0.0423-0.0423 0.0847-0.0423h0.0847l0.0423-0.0423h0.16933l0.0847-0.0423h0.29633l0.0847 0.0423h0.127l0.0847 0.0423h0.0847l0.0423 0.0423 0.0847 0.0423h0.0423l0.0847 0.0423 0.0423 0.0423 0.0847 0.0423 0.2539 0.2539 0.0423 0.0847 0.0846 0.0846 0.0423 0.0847v0.0423l0.0846 0.1694v0.0423l0.0423 0.0847v0.0847l0.0423 0.0847v0.42334l-0.0423 0.0847v0.0847l-0.0423 0.0847v0.0423l-0.0423 0.0847-0.0423 0.0423v0.0847l-0.0423 0.0847-0.0846 0.0846-0.0423 0.0847-0.0846 0.0846-0.0847 0.0423-0.0423 0.0847-0.0423 0.0423-0.0847 0.0423-0.0423 0.0423h-0.0847l-0.0423 0.0423-0.0847 0.0423-0.0423 0.0423h-0.0847l-0.0847 0.0423h-0.127l-0.0847 0.0423h-0.29633l-0.0847-0.0423h-0.16933l-0.0423-0.0423h-0.0847l-0.0847-0.0423-0.0423-0.0423-0.0847-0.0423h-0.0423l-0.0847-0.0423-0.2962-0.2962-0.0423-0.0847-0.0846-0.0846-0.0846-0.1694-0.0423-0.0423v-0.0847l-0.0423-0.0423v-0.0847l-0.0423-0.0847v-0.29633" fill="#fff"/>
   <path d="m111.4 171.19-0.1269 0.2541v0.0847l-0.0846 0.1694v0.254l-0.0423 0.0847v0.21166l0.0423 0.0847v0.16933l0.0423 0.0847v0.0847l0.0846 0.1694 0.0423 0.0423 0.1269 0.2541 0.0423 0.0423 0.0846 0.1694 0.0847 0.0423 0.127 0.127 0.0847 0.0423 0.0847 0.0847 0.0847 0.0423 0.0423 0.0423 0.1694 0.0846h0.0847l0.0847 0.0423h0.0847l0.0847 0.0423h0.635l0.0847-0.0423h0.0847l0.0847-0.0423h0.0847l0.0847-0.0423 0.0423-0.0423 0.3388-0.1692 0.0423-0.0847 0.0847-0.0423 0.0423-0.0847 0.0847-0.0423 0.0846-0.1694 0.0847-0.0423 0.0423-0.0847 1.4817-2.6247 0.0423-0.0423 0.1269-0.2541v-0.0847l0.0423-0.127v-0.16934l0.0423-0.0847v-0.254l-0.0423-0.0847v-0.16933l-0.0423-0.0847v-0.0847l-0.0846-0.1694v-0.0847l-0.0846-0.1694-0.0847-0.0423-0.0846-0.1694-0.254-0.254-0.0847-0.0423-0.0423-0.0423-0.4235-0.2115h-0.0847l-0.0847-0.0423h-0.0847l-0.0847-0.0423h-0.46567l-0.0847 0.0423h-0.0847l-0.0847 0.0423h-0.0847l-0.0847 0.0423-0.0423 0.0423-0.3388 0.1692-0.0423 0.0423-0.0847 0.0423-0.0423 0.0847-0.0847 0.0423-0.0423 0.0847-0.0847 0.0423-0.0846 0.1694-0.0847 0.0847-1.4817 2.5823" fill="#848382"/>
  </g>
  <g fill="none" stroke="#1f1a17" stroke-miterlimit="10" stroke-width=".042333">
   <path d="m111.4 171.19-0.1269 0.2541v0.0847l-0.0846 0.1694v0.254l-0.0423 0.0847v0.21166l0.0423 0.0847v0.16933l0.0423 0.0847v0.0847l0.0846 0.1694 0.0423 0.0423 0.1269 0.2541 0.0423 0.0423 0.0846 0.1694 0.0847 0.0423 0.127 0.127 0.0847 0.0423 0.0847 0.0847 0.0847 0.0423 0.0423 0.0423 0.1694 0.0846h0.0847l0.0847 0.0423h0.0847l0.0847 0.0423h0.635l0.0847-0.0423h0.0847l0.0847-0.0423h0.0847l0.0847-0.0423 0.0423-0.0423 0.3388-0.1692 0.0423-0.0847 0.0847-0.0423 0.0423-0.0847 0.0847-0.0423 0.0846-0.1694 0.0847-0.0423 0.0423-0.0847 1.4817-2.6247 0.0423-0.0423 0.1269-0.2541v-0.0847l0.0423-0.127v-0.16934l0.0423-0.0847v-0.254l-0.0423-0.0847v-0.16933l-0.0423-0.0847v-0.0847l-0.0846-0.1694v-0.0847l-0.0846-0.1694-0.0847-0.0423-0.0846-0.1694-0.254-0.254-0.0847-0.0423-0.0423-0.0423-0.4235-0.2115h-0.0847l-0.0847-0.0423h-0.0847l-0.0847-0.0423h-0.46567l-0.0847 0.0423h-0.0847l-0.0847 0.0423h-0.0847l-0.0847 0.0423-0.0423 0.0423-0.3388 0.1692-0.0423 0.0423-0.0847 0.0423-0.0423 0.0847-0.0847 0.0423-0.0423 0.0847-0.0847 0.0423-0.0846 0.1694-0.0847 0.0847z"/>
   <path d="m111.78 171.49 0.0423-0.0847 0.0846-0.0846 0.0423-0.0847 0.2115-0.2115h0.0847l0.0846-0.0846h0.0847l0.0423-0.0423h0.0423l0.0847-0.0423h0.127l0.0423-0.0423h0.33866l0.0423 0.0423h0.127l0.0423 0.0423h0.0847l0.0423 0.0423h0.0847l0.0423 0.0423 0.0847 0.0423 0.2961 0.2961 0.0423 0.0847 0.0846 0.0846v0.0423l0.0423 0.0847 0.0423 0.0423v0.0847l0.0423 0.0423v0.16934l0.0423 0.0847v0.16934l-0.0423 0.0847v0.127l-0.0423 0.0423v0.127l-0.0423 0.0847-0.0846 0.0846v0.0847l-0.0846 0.0846-0.0423 0.0847-0.1269 0.1269-0.0847 0.0423-0.0423 0.0423h-0.0423l-0.0423 0.0423-0.0847 0.0423h-0.0423l-0.0423 0.0423h-0.0847l-0.0423 0.0423h-0.0847l-0.0423 0.0423h-0.46567l-0.0423-0.0423h-0.0423l-0.0847-0.0423h-0.0423l-0.0847-0.0423h-0.0423l-0.0847-0.0423-0.0846-0.0846-0.0847-0.0423-0.2115-0.2115-0.0423-0.0847-0.0423-0.0423v-0.0423l-0.0423-0.0423-0.0423-0.0847v-0.0423l-0.0423-0.0847v-0.0847l-0.0423-0.0847v-0.42334l0.0423-0.0847v-0.0423l0.0423-0.0847v-0.0423l0.0423-0.0847v-0.0423z"/>
   <path d="m113.22 168.82 0.0423-0.0847 0.2961-0.2961 0.0847-0.0423 0.1269-0.1269h0.0847l0.0423-0.0423h0.0847l0.0423-0.0423h0.16934l0.0847-0.0423h0.16934l0.0847 0.0423h0.16934l0.0847 0.0423h0.0423l0.0847 0.0423 0.0423 0.0423h0.0423l0.0847 0.0423 0.1269 0.1269 0.0847 0.0423 0.0846 0.0846 0.0423 0.0847v0.0423l0.0846 0.0846 0.0423 0.0847v0.0423l0.0423 0.0423v0.0847l0.0423 0.0423v0.127l0.0423 0.0847v0.29633l-0.0423 0.0847v0.127l-0.0423 0.0423v0.0847l-0.0846 0.0846v0.0847l-0.0846 0.0846-0.0423 0.0847-0.2115 0.2115-0.0847 0.0423-0.0423 0.0423h-0.0423l-0.0423 0.0423-0.0847 0.0423h-0.0423l-0.0847 0.0423h-0.0847l-0.0847 0.0423h-0.42334l-0.0847-0.0423h-0.127l-0.0423-0.0423-0.0847-0.0423h-0.0423l-0.0423-0.0423-0.0847-0.0423-0.0846-0.0846-0.0847-0.0423-0.1692-0.1692v-0.0423l-0.0423-0.0847-0.0846-0.0846v-0.0847l-0.0423-0.0423v-0.0423l-0.0423-0.0847v-0.127l-0.0423-0.0423v-0.33866l0.0423-0.0423v-0.127l0.0423-0.0423v-0.0847l0.0423-0.0423v-0.0847z"/>
  </g>
  <path d="m111.48 200.4-0.1692 0.3388v0.0847l-0.0846 0.1694v0.635l0.0423 0.0847v0.0847l0.0423 0.0847v0.0847l0.0846 0.1694 0.0423 0.0423 0.1269 0.2541 0.0847 0.0423 0.0423 0.0847 0.127 0.127 0.0847 0.0423 0.0423 0.0847 0.4235 0.2115h0.0847l0.1694 0.0846h0.254l0.0847 0.0423h0.0847l0.0847-0.0423h0.16933l0.0847-0.0423h0.0847l0.0847-0.0423h0.0847l0.2541-0.1269 0.0423-0.0423 0.1694-0.0846 0.127-0.127 0.0847-0.0423 0.0423-0.0847 0.127-0.127 0.0846-0.1694 1.4817-2.5823 0.0847-0.0847v-0.0847l0.1269-0.2541v-0.0847l0.0423-0.0847v-0.635l-0.0423-0.0847v-0.0847l-0.0423-0.0847v-0.0847l-0.1269-0.2541-0.0423-0.0423-0.0846-0.1694-0.0847-0.0423-0.0423-0.0847-0.254-0.254-0.5082-0.2538h-0.0847l-0.0847-0.0423h-0.16933l-0.0847-0.0423h-0.254l-0.0847 0.0423h-0.16933l-0.0847 0.0423h-0.0847l-0.3388 0.1692-0.0423 0.0423-0.1694 0.0846-0.0423 0.0847-0.1694 0.0846-0.0846 0.1694-0.0847 0.0423-0.0846 0.1694-1.4817 2.5823" fill="#848382" fill-rule="evenodd"/>
  <path d="m111.48 200.4-0.1692 0.3388v0.0847l-0.0846 0.1694v0.635l0.0423 0.0847v0.0847l0.0423 0.0847v0.0847l0.0846 0.1694 0.0423 0.0423 0.1269 0.2541 0.0847 0.0423 0.0423 0.0847 0.127 0.127 0.0847 0.0423 0.0423 0.0847 0.4235 0.2115h0.0847l0.1694 0.0846h0.254l0.0847 0.0423h0.0847l0.0847-0.0423h0.16933l0.0847-0.0423h0.0847l0.0847-0.0423h0.0847l0.2541-0.1269 0.0423-0.0423 0.1694-0.0846 0.127-0.127 0.0847-0.0423 0.0423-0.0847 0.127-0.127 0.0846-0.1694 1.4817-2.5823 0.0847-0.0847v-0.0847l0.1269-0.2541v-0.0847l0.0423-0.0847v-0.635l-0.0423-0.0847v-0.0847l-0.0423-0.0847v-0.0847l-0.1269-0.2541-0.0423-0.0423-0.0846-0.1694-0.0847-0.0423-0.0423-0.0847-0.254-0.254-0.5082-0.2538h-0.0847l-0.0847-0.0423h-0.16933l-0.0847-0.0423h-0.254l-0.0847 0.0423h-0.16933l-0.0847 0.0423h-0.0847l-0.3388 0.1692-0.0423 0.0423-0.1694 0.0846-0.0423 0.0847-0.1694 0.0846-0.0846 0.1694-0.0847 0.0423-0.0846 0.1694z" fill="none" stroke="#1f1a17" stroke-miterlimit="10" stroke-width=".042333"/>
  <path d="m111.82 200.7 0.0423-0.0847 0.1692-0.1692 0.0423-0.0847h0.0423l0.0847-0.0423 0.1269-0.1269 0.0847-0.0423h0.0423l0.0423-0.0423h0.0847l0.0423-0.0423h0.21167l0.0423-0.0423h0.21167l0.0423 0.0423h0.16934l0.0847 0.0423h0.0423l0.0847 0.0423 0.0423 0.0423h0.0847l0.0846 0.0846 0.0847 0.0423 0.1692 0.1692 0.0423 0.0847 0.0846 0.0846v0.0423l0.0423 0.0847 0.0423 0.0423v0.0423l0.0423 0.0847v0.127l0.0423 0.0423v0.46567l-0.0423 0.0423v0.0847l-0.0423 0.0423v0.0423l-0.0423 0.0847v0.0423l-0.0423 0.0847-0.0846 0.0846-0.0423 0.0847-0.2538 0.2538-0.0847 0.0423h-0.0423l-0.0423 0.0423-0.0847 0.0423h-0.0423l-0.0423 0.0423h-0.0847l-0.0423 0.0423h-0.508l-0.0847-0.0423h-0.127l-0.0846-0.0846h-0.0847l-0.0423-0.0423-0.0847-0.0423-0.1692-0.1692-0.0847-0.0423-0.0423-0.0423v-0.0423l-0.0423-0.0423-0.0423-0.0847-0.0846-0.0846v-0.0847l-0.0423-0.0423v-0.0423l-0.0423-0.0847v-0.16934l-0.0423-0.0847v-0.16934l0.0423-0.0847v-0.127l0.0423-0.0423v-0.127l0.0423-0.0423 0.0423-0.0847z" fill="none" stroke="#1f1a17" stroke-miterlimit="10" stroke-width=".042333"/>
 </g>
</svg>
