<?xml version="1.0" encoding="UTF-8"?>
<!-- Created with Inkscape (http://www.inkscape.org/) -->
<svg width="24.596mm" height="55.033mm" version="1.1" viewBox="0 0 24.596 55.033" xmlns="http://www.w3.org/2000/svg">
 <defs>
  <clipPath id="clipPath26">
   <path d="m1056.5 2994.7h290.5v-650h-290.5z"/>
  </clipPath>
 </defs>
 <g transform="translate(-114.04 -142.87)">
  <path transform="matrix(.084667 0 0 -.084667 24.585 396.42)" d="m1056.5 2344.7h290.5v650h-290.5z" clip-path="url(#clipPath26)" fill="#b6b5b4" fill-rule="evenodd"/>
  <g fill="#848382" fill-rule="evenodd">
   <g stroke="#1f1a17" stroke-miterlimit="10">
    <path d="m118.57 196.26v-50.842l1.0583-0.97366 0.97367 0.97366v50.842h-2.032" stroke-width=".042333"/>
    <path d="m133.38 150.45 0.0423 0.0847v0.0423l0.0423 0.0423 0.0423 0.0847 0.1692 0.1692 0.0847 0.0423 0.1692 0.1692 0.0847 0.0423 0.0423 0.0423h0.0423l0.0847 0.0423 0.0423 0.0423h0.0423l0.0847 0.0423h0.0423l0.0423 0.0423h0.0847l0.0423 0.0423h0.0847l0.0423 0.0423h0.71967l0.0847-0.0423h0.127l0.1694-0.0846h0.0847l0.127-0.0423 0.0847-0.0847 0.1694-0.0846 0.127-0.127 0.0847-0.0423 0.0847-0.0847 0.0423-0.0847 0.2117-0.2117 0.0846-0.1694 0.0423-0.127 0.1269-0.2541v-0.127l0.0423-0.0847v-0.0847l0.0423-0.127v-0.42333l-0.0423-0.0847v-0.127l-0.0423-0.0847v-0.127l-0.1692-0.3388-0.0423-0.127-0.0423-0.0847-0.0847-0.0423-0.0423-0.0847-0.0847-0.0847-0.0423-0.0847-0.0847-0.0423-0.0847-0.0847-0.0847-0.0423-0.0423-0.0847-0.2541-0.1269-0.127-0.0423-0.2541-0.1269h-0.127l-0.0847-0.0423h-0.635l-0.0847 0.0423h-0.127l-0.0423 0.0423h-0.0847l-0.0423 0.0423h-0.0423l-0.0847 0.0423h-0.0423l-0.0423 0.0423-0.0847 0.0423-0.0423 0.0423h-0.0423l-0.0847 0.0423-0.1692 0.1692-0.0847 0.0423-0.2115 0.2115-0.0423 0.0847v0.0423l-0.0423 0.0423h-17.907v2.286l17.907-0.0423" stroke-linecap="round" stroke-linejoin="round" stroke-width=".072644"/>
    <path d="m120.6 159.3 0.0847-0.0423h0.0423l0.0846-0.0846 0.0847-0.0423 0.0846-0.0846 0.0423-0.0847 0.2115-0.2115v-0.0847l0.0846-0.0846 0.0423-0.0847v-0.0423l0.0423-0.0847v-0.0423l0.0423-0.0423v-0.0847l0.0423-0.0423v-0.0847l0.0423-0.0423v-0.21167l0.0423-0.0423v-0.42333l-0.0423-0.127v-0.0847l-0.0423-0.0847v-0.127l-0.1269-0.2541-0.0423-0.127-0.0846-0.1694-0.2117-0.2117-0.0423-0.0847-0.0847-0.0847-0.0847-0.0423-0.0847-0.0847-0.1694-0.0846-0.0847-0.0847-0.1694-0.0846h-0.0847l-0.0847-0.0423-0.127-0.0423h-0.0847l-0.0847-0.0423h-0.635l-0.0847 0.0423h-0.127l-0.1694 0.0846h-0.127l-0.1694 0.0846-0.0847 0.0847-0.1694 0.0846-0.2964 0.2964-0.0423 0.0847-0.0847 0.0423-0.1269 0.2541-0.0423 0.127-0.1269 0.2541-0.0423 0.127v0.0847l-0.0423 0.0847v0.67733l0.0423 0.0423v0.127l0.0423 0.0847v0.0423l0.0423 0.0847v0.0423l0.0423 0.0423v0.0847l0.0423 0.0423 0.0423 0.0847 0.0423 0.0423v0.0423l0.0423 0.0847 0.2115 0.2115 0.0423 0.0847 0.2115 0.2115h0.0847l0.0423 0.0423v18.203h2.2437l-0.0423-18.203" stroke-linecap="round" stroke-linejoin="round" stroke-width=".072644"/>
   </g>
   <path d="m120.94 153.67-0.0423 0.0847-0.0423 0.0423-0.0423 0.0847v0.0423l-0.0423 0.0847v0.0847l-0.0423 0.0847v0.55033l0.0423 0.0847v0.0847l0.0423 0.0423v0.0847l0.0423 0.0423 0.0423 0.0847 0.0423 0.0423 0.0423 0.0847 0.0423 0.0423 0.0423 0.0847 0.2962 0.2962 0.0847 0.0423h0.0847l0.0423 0.0423 0.0847 0.0423h0.0423l0.0847 0.0423h0.0847l0.0423 0.0423h0.508l0.0847-0.0423h0.0423l0.0847-0.0423h0.0847l0.0423-0.0423h0.0847l0.0423-0.0423 0.0847-0.0423 0.0846-0.0846 0.0847-0.0423 0.0423-0.0423 0.0423-0.0847 0.0847-0.0423 0.0423-0.0423 0.0423-0.0847 0.0423-0.0423 0.0423-0.0847 1.2277-2.159 0.0423-0.0423v-0.0847l0.0423-0.0423 0.0423-0.0847v-0.16934l0.0423-0.0423v-0.59267l-0.0423-0.0847v-0.0423l-0.0423-0.0847v-0.0847l-0.0423-0.0423-0.0423-0.0847-0.0423-0.0423-0.0423-0.0847-0.0846-0.0846-0.0423-0.0847-0.0846-0.0846-0.0847-0.0423-0.0846-0.0846-0.1694-0.0846-0.0423-0.0423-0.0847-0.0423h-0.0423l-0.0847-0.0423h-0.0847l-0.0423-0.0423h-0.46567l-0.0423 0.0423h-0.127l-0.0847 0.0423h-0.0847l-0.0423 0.0423-0.0847 0.0423-0.0423 0.0423h-0.0847l-0.4655 0.4655-0.0423 0.0847-1.1853 2.159"/>
  </g>
  <g stroke="#1f1a17" stroke-linecap="round" stroke-linejoin="round" stroke-miterlimit="10" stroke-width=".072644">
   <path d="m120.94 153.67-0.0423 0.0847-0.0423 0.0423-0.0423 0.0847v0.0423l-0.0423 0.0847v0.0847l-0.0423 0.0847v0.55033l0.0423 0.0847v0.0847l0.0423 0.0423v0.0847l0.0423 0.0423 0.0423 0.0847 0.0423 0.0423 0.0423 0.0847 0.0423 0.0423 0.0423 0.0847 0.2962 0.2962 0.0847 0.0423h0.0847l0.0423 0.0423 0.0847 0.0423h0.0423l0.0847 0.0423h0.0847l0.0423 0.0423h0.508l0.0847-0.0423h0.0423l0.0847-0.0423h0.0847l0.0423-0.0423h0.0847l0.0423-0.0423 0.0847-0.0423 0.0846-0.0846 0.0847-0.0423 0.0423-0.0423 0.0423-0.0847 0.0847-0.0423 0.0423-0.0423 0.0423-0.0847 0.0423-0.0423 0.0423-0.0847 1.2277-2.159 0.0423-0.0423v-0.0847l0.0423-0.0423 0.0423-0.0847v-0.16934l0.0423-0.0423v-0.59267l-0.0423-0.0847v-0.0423l-0.0423-0.0847v-0.0847l-0.0423-0.0423-0.0423-0.0847-0.0423-0.0423-0.0423-0.0847-0.0846-0.0846-0.0423-0.0847-0.0846-0.0846-0.0847-0.0423-0.0846-0.0846-0.1694-0.0846-0.0423-0.0423-0.0847-0.0423h-0.0423l-0.0847-0.0423h-0.0847l-0.0423-0.0423h-0.46567l-0.0423 0.0423h-0.127l-0.0847 0.0423h-0.0847l-0.0423 0.0423-0.0847 0.0423-0.0423 0.0423h-0.0847l-0.4655 0.4655-0.0423 0.0847z" fill="none"/>
   <path d="m121.23 153.88v-0.0423l0.1692-0.1692v-0.0423l0.0423-0.0423h0.0423l0.0846-0.0846h0.0423l0.0423-0.0423 0.0847-0.0423h0.0847l0.0423-0.0423h0.16933l0.0423-0.0423h0.0847l0.0423 0.0423h0.21166l0.0847 0.0423h0.0423l0.0423 0.0423h0.0423l0.0846 0.0846h0.0423l0.2538 0.2538v0.0423l0.0846 0.0846v0.0423l0.0423 0.0423v0.0423l0.0423 0.0423v0.16933l0.0423 0.0423v0.254l-0.0423 0.0423v0.16933l-0.0423 0.0423v0.0847l-0.0846 0.0846v0.0423l-0.1269 0.1269v0.0423l-0.1269 0.1269h-0.0423l-0.0846 0.0846h-0.0423l-0.0423 0.0423h-0.0847l-0.0423 0.0423h-0.127l-0.0423 0.0423h-0.29633l-0.0423-0.0423h-0.0847l-0.0423-0.0423h-0.127l-0.0846-0.0846h-0.0423l-0.1692-0.1692h-0.0423l-0.0846-0.0846v-0.0423l-0.0423-0.0423-0.0423-0.0847v-0.0423l-0.0423-0.0423v-0.0423l-0.0423-0.0423v-0.16933l-0.0423-0.0423v-0.21166l0.0423-0.0423v-0.16933l0.0423-0.0423v-0.0423l0.0423-0.0423v-0.0847z" fill="none"/>
   <path d="m122.42 151.68v-0.0423l0.1692-0.1692v-0.0423l0.0846-0.0846h0.0423l0.0846-0.0846h0.0847l0.0423-0.0423h0.0423l0.0423-0.0423h0.21166l0.0423-0.0423h0.127l0.0847 0.0423h0.127l0.0847 0.0423h0.0423l0.0423 0.0423h0.0423l0.0423 0.0423h0.0423l0.2961 0.2961h0.0423v0.0847l0.0423 0.0423v0.0423l0.0423 0.0423v0.0423l0.0423 0.0423v0.127l0.0423 0.0423v0.33867l-0.0423 0.0847v0.0847l-0.0423 0.0423v0.0423l-0.0423 0.0847-0.0423 0.0423v0.0423l-0.0846 0.0846v0.0423l-0.1269 0.1269h-0.0423l-0.1269 0.1269h-0.0423l-0.0423 0.0423h-0.127l-0.0423 0.0423h-0.0847l-0.0423 0.0423h-0.29633l-0.0423-0.0423h-0.0847l-0.0423-0.0423h-0.0847l-0.0423-0.0423h-0.0423l-0.0423-0.0423h-0.0423l-0.2115-0.2115h-0.0423l-0.0423-0.0847v-0.0423l-0.0846-0.0846v-0.0423l-0.0423-0.0423v-0.0847l-0.0423-0.0423v-0.127l-0.0423-0.0423v-0.21166l0.0423-0.0423v-0.16933l0.0423-0.0423v-0.0423l0.0423-0.0847v-0.0423l0.0423-0.0423" fill="#da251d" fill-rule="evenodd"/>
  </g>
  <path d="m120.98 177.93-0.0423 0.0847-0.0423 0.0423-0.0423 0.0847v0.0847l-0.0423 0.0423v0.0847l-0.0423 0.0847v0.508l0.0423 0.0423v0.16934l0.0423 0.0423 0.0423 0.0847v0.0847l0.0423 0.0423 0.0423 0.0847 0.0846 0.0846 0.0423 0.0847 0.0846 0.0846 0.0423 0.0847 0.0847 0.0423 0.0423 0.0423 0.0847 0.0423 0.0423 0.0423 0.0847 0.0423h0.0423l0.1694 0.0846h0.0423l0.0847 0.0423h0.635l0.0847-0.0423h0.0423l0.0847-0.0423 0.0423-0.0423h0.0847l0.0423-0.0423 0.0847-0.0423 0.0423-0.0423 0.0847-0.0423 0.0846-0.0846 0.0847-0.0423 0.0423-0.0847 0.0846-0.0846 0.0846-0.1694 1.2277-2.1167 0.0423-0.0847v-0.0847l0.0423-0.0423 0.0423-0.0847v-0.0847l0.0423-0.0423v-0.254l0.0423-0.0423v-0.0847l-0.0423-0.0847v-0.21167l-0.0423-0.0847v-0.0423l-0.0423-0.0847v-0.0423l-0.0423-0.0847-0.0423-0.0423-0.0423-0.0847-0.0423-0.0423v-0.0847l-0.0847-0.0423-0.0423-0.0423-0.0423-0.0847-0.0846-0.0846-0.0847-0.0423-0.0423-0.0423-0.0847-0.0423-0.0423-0.0423-0.0847-0.0423h-0.0847l-0.0423-0.0423-0.0847-0.0423h-0.127l-0.0847-0.0423h-0.33867l-0.0847 0.0423h-0.0847l-0.0423 0.0423h-0.0847l-0.0423 0.0423h-0.0847l-0.0847 0.0423-0.0423 0.0423-0.0847 0.0423-0.0846 0.0846-0.0847 0.0423-0.1269 0.1269-0.0423 0.0847-0.0847 0.0423-0.0423 0.0847-0.0423 0.0423-1.1853 2.159" fill="#848382" fill-rule="evenodd"/>
  <path d="m120.98 177.93v0l-0.0423 0.0847-0.0423 0.0423-0.0423 0.0847v0.0847l-0.0423 0.0423v0.0847l-0.0423 0.0847v0.508l0.0423 0.0423v0.16934l0.0423 0.0423 0.0423 0.0847v0.0847l0.0423 0.0423 0.0423 0.0847 0.0846 0.0846 0.0423 0.0847 0.0846 0.0846 0.0423 0.0847 0.0847 0.0423 0.0423 0.0423 0.0847 0.0423 0.0423 0.0423 0.0847 0.0423h0.0423l0.1694 0.0846h0.0423l0.0847 0.0423h0.635l0.0847-0.0423h0.0423l0.0847-0.0423 0.0423-0.0423h0.0847l0.0423-0.0423 0.0847-0.0423 0.0423-0.0423 0.0847-0.0423 0.0846-0.0846 0.0847-0.0423 0.0423-0.0847 0.0846-0.0846 0.0846-0.1694 1.2277-2.1167v0l0.0423-0.0847v-0.0847l0.0423-0.0423 0.0423-0.0847v-0.0847l0.0423-0.0423v-0.254l0.0423-0.0423v-0.0847l-0.0423-0.0847v-0.21167l-0.0423-0.0847v-0.0423l-0.0423-0.0847v-0.0423l-0.0423-0.0847-0.0423-0.0423-0.0423-0.0847-0.0423-0.0423v-0.0847l-0.0847-0.0423-0.0423-0.0423-0.0423-0.0847-0.0846-0.0846-0.0847-0.0423-0.0423-0.0423-0.0847-0.0423-0.0423-0.0423-0.0847-0.0423h-0.0847l-0.0423-0.0423-0.0847-0.0423h-0.127l-0.0847-0.0423h-0.33867l-0.0847 0.0423h-0.0847l-0.0423 0.0423h-0.0847l-0.0423 0.0423h-0.0847l-0.0847 0.0423-0.0423 0.0423-0.0847 0.0423-0.0846 0.0846-0.0847 0.0423-0.1269 0.1269-0.0423 0.0847-0.0847 0.0423-0.0423 0.0847-0.0423 0.0423z" fill="none" stroke="#1f1a17" stroke-linecap="round" stroke-linejoin="round" stroke-miterlimit="10" stroke-width=".072644"/>
  <path d="m121.27 178.14 0.0423-0.0423v-0.0423l0.1692-0.1692v0l0.0846-0.0846 0.0847-0.0423h0.0423l0.0423-0.0423h0.0423l0.0423-0.0423h0.0423l0.0423-0.0423h0.508l0.0847 0.0423h0.0847l0.0423 0.0423h0.0423l0.0846 0.0846h0.0847l0.0846 0.0846v0.0423l0.1692 0.1692v0.0423l0.0423 0.0423v0.0423l0.0423 0.0423v0.0423l0.0423 0.0423v0.127l0.0423 0.0423v0.381l-0.0423 0.0423v0.0847l-0.0423 0.0847v0.0423l-0.0423 0.0423v0.0423l-0.1269 0.1269v0.0423l-0.2115 0.2115h-0.0423l-0.0423 0.0423h-0.0423l-0.0423 0.0423h-0.0423l-0.0847 0.0423h-0.0847l-0.0423 0.0423h-0.381l-0.0423-0.0423h-0.0847l-0.0423-0.0423h-0.0847l-0.0846-0.0846h-0.0423l-0.1269-0.1269h-0.0423l-0.0846-0.0846v-0.0423l-0.0846-0.0846v-0.0423l-0.0423-0.0423v-0.0847l-0.0423-0.0423v-0.0423l-0.0423-0.0423v-0.21167l-0.0423-0.0423v-0.0423l0.0423-0.0847v-0.21167l0.0423-0.0423v-0.0423l0.0423-0.0423v-0.0423z" fill="none" stroke="#1f1a17" stroke-linecap="round" stroke-linejoin="round" stroke-miterlimit="10" stroke-width=".072644"/>
 </g>
</svg>
