<?xml version="1.0" encoding="UTF-8"?>
<!-- Created with Inkscape (http://www.inkscape.org/) -->
<svg width="17.178mm" height="51.621mm" version="1.1" viewBox="0 0 17.178 51.621" xmlns="http://www.w3.org/2000/svg">
 <g transform="translate(-58.473 -109.54)">
  <g fill-rule="evenodd">
   <path d="m61.178 161.14v-42.376l1.1007-0.80433 0.97367 0.80433v42.376h-2.0743" fill="#848382" stroke="#1f1a17" stroke-linecap="round" stroke-linejoin="round" stroke-miterlimit="10" stroke-width=".042333"/>
   <path d="m73.031 113.72h0.08467l0.04233 0.0423h0.67733l0.04233-0.0423h0.127l0.08467-0.0423h0.04233l0.08467-0.0423h0.04233l0.04233-0.0423h0.08467l0.04233-0.0423 0.08467-0.0423 0.04233-0.0423h0.04233l0.04233-0.0423 0.08467-0.0423 0.12699-0.1269 0.08467-0.0423 0.04233-0.0423 0.04233-0.0847 0.16934-0.1694 0.08466-0.1694 0.08467-0.0847 0.04233-0.0847 0.04233-0.127v-0.0847l0.08466-0.1694v-0.127l0.04233-0.0847v-0.59266l-0.04233-0.127v-0.0847l-0.08466-0.1694v-0.127l-0.08466-0.1694-0.08467-0.0847-0.08466-0.1694-0.16934-0.1694-0.04233-0.0847-0.08467-0.0847-0.08467-0.0423-0.08467-0.0847-0.08467-0.0423-0.08467-0.0847-0.08467-0.0423-0.127-0.0423-0.16934-0.0846h-0.08467l-0.127-0.0423-0.08467-0.0423h-0.29633l-0.08467-0.0423-0.127 0.0423h-0.29633l-0.16934 0.0846h-0.127l-0.25401 0.1269-0.127 0.0423-0.08467 0.0847-0.08467 0.0423-0.08467 0.0847-0.08467 0.0423-0.04233 0.0847-0.08467 0.0423-0.08466 0.0846-0.04233 0.0847-0.04233 0.0423v0.0423l-0.04233 0.0423-0.04233 0.0847-0.08466 0.0846v0.0847l-0.04233 0.0423v0.0847l-0.04233 0.0423v0.0847l-0.04233 0.0423v0.0847l-0.04233 0.0423v0.127l-0.04233 0.0423v0.55033l0.04233 0.0423v0.127l-12.912 12.869 1.6087 1.651 12.912-12.912" fill="#da251d" stroke="#1f1a17" stroke-linecap="round" stroke-linejoin="round" stroke-miterlimit="10" stroke-width=".075184"/>
   <path d="m59.442 124.98 12.361-12.319 0.71967 0.71967-12.319 12.319-0.762-0.71967" fill="#fff"/>
   <path d="m72.608 110.8 0.08467-0.0423 0.16932-0.1692 0.08467-0.0423h0.04233l0.04233-0.0423h0.08467l0.04233-0.0423h0.04233l0.08467-0.0423h0.46567l0.08467 0.0423h0.04233l0.04233 0.0423h0.08467l0.04233 0.0423h0.04233l0.08467 0.0423 0.16932 0.1692 0.08467 0.0423 0.12699 0.1269v0.0423l0.04233 0.0847 0.08466 0.0846v0.0423l0.04233 0.0847v0.0423l0.04233 0.0847v0.59266l-0.04233 0.0423v0.0847l-0.04233 0.0423v0.0423l-0.04233 0.0847-0.08466 0.0846v0.0423l-0.04233 0.0423-0.04233 0.0847-0.04233 0.0423-0.08467 0.0423-0.12699 0.1269h-0.04233l-0.08467 0.0423-0.04233 0.0423h-0.04233l-0.08467 0.0423h-0.04233l-0.04233 0.0423h-0.635l-0.04233-0.0423h-0.04233l-0.08467-0.0423h-0.04233l-0.04233-0.0423-0.08467-0.0423h-0.04233l-0.12699-0.1269-0.08467-0.0423-0.04233-0.0423-0.04233-0.0847-0.04233-0.0423v-0.0423l-0.08466-0.0846-0.04233-0.0847v-0.0423l-0.04233-0.0423v-0.0847l-0.04233-0.0423v-0.59266l0.04233-0.0847v-0.0423l0.04233-0.0847v-0.0423l0.08466-0.0846 0.04233-0.0847v-0.0423l0.12699-0.1269" fill="#fff"/>
   <path d="m73.073 135.65 0.08467 0.0423h0.71967l0.04233-0.0423h0.127l0.08467-0.0423h0.04233l0.08467-0.0423h0.04233l0.04233-0.0423 0.08467-0.0423h0.04233l0.08467-0.0423 0.08466-0.0846h0.08467l0.21165-0.2115 0.08467-0.0847 0.04233-0.0423 0.08467-0.0847 0.04233-0.0847 0.08467-0.0847 0.04233-0.127 0.16932-0.3388 0.04233-0.127v-0.0847l0.04233-0.0847v-0.21167l0.04233-0.0847v-0.21167l-0.04233-0.0847v-0.21166l-0.04233-0.0847-0.04233-0.127v-0.0847l-0.08466-0.1694-0.04233-0.127-0.08467-0.0847-0.08466-0.1694-0.16934-0.1694-0.04233-0.0423-0.16934-0.1694-0.08467-0.0423-0.08467-0.0847-0.08467-0.0423-0.127-0.0423-0.25401-0.1269-0.127-0.0423h-0.08467l-0.08467-0.0423h-0.71967l-0.08467 0.0423h-0.127l-0.25401 0.1269-0.127 0.0423-0.25401 0.1269-0.08467 0.0847-0.08467 0.0423-0.16934 0.1694-0.16932 0.1692-0.04233 0.0847v0.0423l-0.04233 0.0423-0.04233 0.0847-0.04233 0.0423v0.0423l-0.04233 0.0847-0.04233 0.0423v0.0847l-0.04233 0.0423v0.0423l-0.04233 0.0847v0.127l-0.04233 0.0423v0.21167l-0.04233 0.0847v0.16934l0.04233 0.0847v0.254l0.04233 0.0423-12.742 13.081 1.651 1.6087 12.7-13.123" fill="#da251d" stroke="#1f1a17" stroke-linecap="round" stroke-linejoin="round" stroke-miterlimit="10" stroke-width=".075184"/>
   <path d="m59.654 147.12 12.192-12.531 0.71967 0.762-12.15 12.488-0.762-0.71967" fill="#fff"/>
   <path d="m72.608 132.73 0.08467-0.0423 0.16932-0.1692h0.08467l0.08466-0.0846h0.08467l0.04233-0.0423h0.127l0.04233-0.0423h0.381l0.04233 0.0423h0.127l0.04233 0.0423h0.08467l0.04233 0.0423h0.04233l0.08467 0.0423 0.08466 0.0846h0.04233l0.08467 0.0423 0.04233 0.0423 0.04233 0.0847 0.12699 0.1269v0.0423l0.04233 0.0847 0.04233 0.0423v0.0423l0.04233 0.0847v0.0423l0.04233 0.0423v0.127l0.04233 0.0847v0.29633l-0.04233 0.0423v0.127l-0.04233 0.0423v0.0847l-0.04233 0.0423v0.0423l-0.04233 0.0847-0.16932 0.1692-0.04233 0.0847-0.12699 0.1269h-0.04233l-0.08467 0.0423-0.08466 0.0846h-0.04233l-0.08467 0.0423h-0.04233l-0.08467 0.0423h-0.16932l-0.04233 0.0423h-0.21167l-0.04233-0.0423h-0.16933l-0.08467-0.0423h-0.04233l-0.04233-0.0423-0.08467-0.0423h-0.04233l-0.08466-0.0846-0.08467-0.0423-0.25398-0.2538-0.04233-0.0847v-0.0423l-0.04233-0.0423-0.04233-0.0847v-0.0423l-0.04233-0.0423v-0.127l-0.04233-0.0423v-0.42334l0.04233-0.0847v-0.127l0.08466-0.0846v-0.0847l0.08466-0.0846v-0.0423l0.04233-0.0847 0.08466-0.0846" fill="#fff"/>
   <path d="m64.945 127.4 0.04233 0.0423 0.04233 0.0847 0.04233 0.0423 0.04233 0.0847 0.08467 0.0423 0.08466 0.0846 0.08467 0.0423 0.04233 0.0847h0.04233l0.16934 0.0846 0.04233 0.0423 0.08467 0.0423h0.04233l0.08467 0.0423h0.127l0.08467 0.0423h0.381l0.04233-0.0423h0.16933l0.04233-0.0423h0.08467l0.08467-0.0423 0.04233-0.0423 0.16934-0.0846 0.08466-0.0846 0.08467-0.0423 0.08466-0.0846 0.04233-0.0847 0.08467-0.0423 0.04233-0.0847v-0.0423l0.04233-0.0847 0.04233-0.0423 0.04233-0.0847v-0.0423l0.04233-0.0847v-0.0423l0.04233-0.0847v-0.16934l0.04233-0.0423v-0.21167l-0.04233-0.0847v-0.16934l-0.04233-0.0423v-0.0847l-0.04233-0.0847v-0.0423l-0.08466-0.1694-1.27-2.159-0.04233-0.0423-0.04233-0.0847-0.08466-0.0846-0.04233-0.0847-0.04233-0.0423-0.08467-0.0423-0.08466-0.0846-0.08467-0.0423-0.04233-0.0423-0.16934-0.0846h-0.04233l-0.08467-0.0423h-0.04233l-0.08467-0.0423h-0.16933l-0.04233-0.0423h-0.21167l-0.08467 0.0423h-0.16933l-0.04233 0.0423h-0.08467l-0.08467 0.0423h-0.04233l-0.08467 0.0423-0.04233 0.0423-0.16934 0.0846-0.08466 0.0846-0.08467 0.0423-0.04233 0.0847-0.08466 0.0846-0.04233 0.0847-0.04233 0.0423-0.04233 0.0847-0.04233 0.0423v0.0847l-0.04233 0.0423-0.04233 0.0847v0.127l-0.04233 0.0847v0.508l0.04233 0.0847v0.0847l0.04233 0.0423v0.0847l0.04233 0.0847 0.04233 0.0423 0.04233 0.0847 1.2277 2.159" fill="#848382"/>
  </g>
  <g fill="none" stroke="#1f1a17" stroke-linecap="round" stroke-linejoin="round" stroke-miterlimit="10" stroke-width=".075184">
   <path d="m64.945 127.4 0.04233 0.0423 0.04233 0.0847 0.04233 0.0423 0.04233 0.0847 0.08467 0.0423 0.08466 0.0846 0.08467 0.0423 0.04233 0.0847h0.04233l0.16934 0.0846 0.04233 0.0423 0.08467 0.0423h0.04233l0.08467 0.0423h0.127l0.08467 0.0423h0.381l0.04233-0.0423h0.16933l0.04233-0.0423h0.08467l0.08467-0.0423 0.04233-0.0423 0.16934-0.0846 0.08466-0.0846 0.08467-0.0423 0.08466-0.0846 0.04233-0.0847 0.08467-0.0423 0.04233-0.0847v-0.0423l0.04233-0.0847 0.04233-0.0423 0.04233-0.0847v-0.0423l0.04233-0.0847v-0.0423l0.04233-0.0847v-0.16934l0.04233-0.0423v-0.21167l-0.04233-0.0847v-0.16934l-0.04233-0.0423v-0.0847l-0.04233-0.0847v-0.0423l-0.08466-0.1694-1.27-2.159-0.04233-0.0423-0.04233-0.0847-0.08466-0.0846-0.04233-0.0847-0.04233-0.0423-0.08467-0.0423-0.08466-0.0846-0.08467-0.0423-0.04233-0.0423-0.16934-0.0846h-0.04233l-0.08467-0.0423h-0.04233l-0.08467-0.0423h-0.16933l-0.04233-0.0423h-0.21167l-0.08467 0.0423h-0.16933l-0.04233 0.0423h-0.08467l-0.08467 0.0423h-0.04233l-0.08467 0.0423-0.04233 0.0423-0.16934 0.0846-0.08466 0.0846-0.08467 0.0423-0.04233 0.0847-0.08466 0.0846-0.04233 0.0847-0.04233 0.0423-0.04233 0.0847-0.04233 0.0423v0.0847l-0.04233 0.0423-0.04233 0.0847v0.127l-0.04233 0.0847v0.508l0.04233 0.0847v0.0847l0.04233 0.0423v0.0847l0.04233 0.0847 0.04233 0.0423 0.04233 0.0847z"/>
   <path d="m65.326 127.23-0.08466-0.0846v-0.0423l-0.04233-0.0847v-0.0847l-0.04233-0.0423v-0.381l0.04233-0.0423v-0.127l0.04233-0.0423v-0.0423l0.04233-0.0423v-0.0423l0.08466-0.0846v-0.0423l0.25398-0.2538h0.04233l0.08466-0.0846h0.04233l0.08467-0.0423h0.04233l0.04233-0.0423h0.21167l0.04233-0.0423h0.08467l0.04233 0.0423h0.21167l0.04233 0.0423h0.04233l0.04233 0.0423h0.04233l0.04233 0.0423h0.04233l0.08467 0.0423 0.04233 0.0423h0.04233v0.0423l0.21165 0.2115v0.0423l0.04233 0.0847 0.04233 0.0423v0.0847l0.04233 0.0423v0.127l0.04233 0.0423v0.254l-0.04233 0.0847v0.127l-0.04233 0.0423v0.0423l-0.04233 0.0847v0.0423l-0.08466 0.0846v0.0423l-0.16932 0.1692h-0.04233l-0.12699 0.1269h-0.04233l-0.04233 0.0423h-0.08467l-0.04233 0.0423h-0.08467l-0.08467 0.0423h-0.33867l-0.08467-0.0423h-0.08467l-0.04233-0.0423h-0.04233l-0.04233-0.0423h-0.04233l-0.08467-0.0423-0.04233-0.0423h-0.04233l-0.12699-0.1269v-0.0423l-0.12699-0.1269z"/>
   <path d="m64.014 125.07-0.08466-0.0846v-0.0423l-0.04233-0.0847v-0.0847l-0.04233-0.0423v-0.381l0.04233-0.0423v-0.127l0.04233-0.0423v-0.0423l0.04233-0.0423v-0.0423l0.08466-0.0846v-0.0423l0.25398-0.2538h0.04233l0.08466-0.0846h0.04233l0.08467-0.0423h0.08467l0.04233-0.0423h0.46567l0.08467 0.0423h0.08467l0.04233 0.0423h0.04233l0.04233 0.0423h0.04233l0.12699 0.1269h0.04233l0.21165 0.2115v0.0423l0.04233 0.0847 0.04233 0.0423v0.0847l0.04233 0.0423v0.127l0.04233 0.0423v0.254l-0.04233 0.0847v0.0847l-0.04233 0.0423v0.127l-0.04233 0.0423v0.0423l-0.08466 0.0846v0.0423l-0.16932 0.1692h-0.04233l-0.12699 0.1269h-0.04233l-0.04233 0.0423h-0.08467l-0.04233 0.0423h-0.08467l-0.08467 0.0423h-0.33863l-0.08467-0.0423h-0.08467l-0.04233-0.0423h-0.08467l-0.08467-0.0423-0.04233-0.0423h-0.04233l-0.16932-0.1692v-0.0423l-0.12699-0.1269z"/>
  </g>
  <path d="m65.072 149.33 0.04233 0.0847 0.04233 0.0423 0.04233 0.0847 0.04233 0.0423 0.08467 0.0423 0.04233 0.0847 0.04233 0.0423 0.08467 0.0423 0.08466 0.0846 0.08467 0.0423 0.04233 0.0423h0.08467l0.08467 0.0423 0.04233 0.0423h0.08467l0.04233 0.0423h0.67733l0.08467-0.0423h0.04233l0.16934-0.0846h0.04233l0.16934-0.0846 0.08466-0.0846 0.08467-0.0847 0.12699-0.1269 0.04233-0.0847 0.04233-0.0423 0.04233-0.0847 0.04233-0.0423 0.04233-0.0847 0.04233-0.0423v-0.0847l0.04233-0.0423v-0.0847l0.04233-0.0847v-0.127l0.04233-0.0847v-0.21167l-0.04233-0.0847v-0.127l-0.04233-0.0847v-0.0847l-0.04233-0.0423-0.04233-0.0847v-0.0847l-0.04233-0.0423-1.27-2.159-0.04233-0.0847-0.04233-0.0423-0.04233-0.0847-0.08466-0.0846-0.04233-0.0847-0.08467-0.0423-0.04233-0.0423-0.08467-0.0423-0.04233-0.0423-0.08467-0.0423h-0.04233l-0.08467-0.0423-0.04233-0.0423h-0.08467l-0.08467-0.0423h-0.04233l-0.08467-0.0423h-0.508l-0.08467 0.0423h-0.04233l-0.08467 0.0423h-0.08467l-0.04233 0.0423-0.08467 0.0423h-0.08467l-0.04233 0.0423-0.08467 0.0423-0.04233 0.0847-0.04233 0.0423-0.08467 0.0423-0.08466 0.0846-0.04233 0.0847-0.04233 0.0423-0.04233 0.0847-0.04233 0.0423-0.04233 0.0847v0.0423l-0.08466 0.1694v0.127l-0.04233 0.0847v0.508l0.04233 0.0423v0.0847l0.04233 0.0847v0.0423l0.08466 0.1694 0.04233 0.0423 1.2277 2.159" fill="#848382" fill-rule="evenodd"/>
  <g fill="none" stroke="#1f1a17" stroke-linecap="round" stroke-linejoin="round" stroke-miterlimit="10" stroke-width=".075184">
   <path d="m65.072 149.33 0.04233 0.0847 0.04233 0.0423 0.04233 0.0847 0.04233 0.0423 0.08467 0.0423 0.04233 0.0847 0.04233 0.0423 0.08467 0.0423 0.08466 0.0846 0.08467 0.0423 0.04233 0.0423h0.08467l0.08467 0.0423 0.04233 0.0423h0.08467l0.04233 0.0423h0.67733l0.08467-0.0423h0.04233l0.16934-0.0846h0.04233l0.16934-0.0846 0.08466-0.0846 0.08467-0.0847 0.12699-0.1269 0.04233-0.0847 0.04233-0.0423 0.04233-0.0847 0.04233-0.0423 0.04233-0.0847 0.04233-0.0423v-0.0847l0.04233-0.0423v-0.0847l0.04233-0.0847v-0.127l0.04233-0.0847v-0.21167l-0.04233-0.0847v-0.127l-0.04233-0.0847v-0.0847l-0.04233-0.0423-0.04233-0.0847v-0.0847l-0.04233-0.0423-1.27-2.159-0.04233-0.0847-0.04233-0.0423-0.04233-0.0847-0.08466-0.0846-0.04233-0.0847-0.08467-0.0423-0.04233-0.0423-0.08467-0.0423-0.04233-0.0423-0.08467-0.0423h-0.04233l-0.08467-0.0423-0.04233-0.0423h-0.08467l-0.08467-0.0423h-0.04233l-0.08467-0.0423h-0.508l-0.08467 0.0423h-0.04233l-0.08467 0.0423h-0.08467l-0.04233 0.0423-0.08467 0.0423h-0.08467l-0.04233 0.0423-0.08467 0.0423-0.04233 0.0847-0.04233 0.0423-0.08467 0.0423-0.08466 0.0846-0.04233 0.0847-0.04233 0.0423-0.04233 0.0847-0.04233 0.0423-0.04233 0.0847v0.0423l-0.08466 0.1694v0.127l-0.04233 0.0847v0.508l0.04233 0.0423v0.0847l0.04233 0.0847v0.0423l0.08466 0.1694 0.04233 0.0423z"/>
   <path d="m65.411 149.2v-0.0847l-0.04233-0.0423v-0.0423l-0.04233-0.0423v-0.127l-0.04233-0.0423v-0.381l0.04233-0.0423v-0.0847l0.04233-0.0423v-0.0423l0.04233-0.0847v-0.0423l0.04233-0.0423v-0.0423l0.21165-0.2115h0.04233l0.12699-0.1269h0.04233l0.04233-0.0423h0.04233l0.08467-0.0423h0.08467l0.04233-0.0423h0.381l0.04233 0.0423h0.127l0.04233 0.0423h0.04233l0.04233 0.0423h0.04233l0.04233 0.0423h0.04233l0.33864 0.3384v0.0423l0.04233 0.0423v0.0423l0.04233 0.0423v0.0847l0.04233 0.0423v0.0847l0.04233 0.0423v0.29634l-0.04233 0.0423v0.0847l-0.04233 0.0847v0.0847l-0.04233 0.0423v0.0423l-0.12699 0.1269v0.0423l-0.21165 0.2115h-0.04233l-0.08466 0.0846h-0.08467l-0.04233 0.0423h-0.04233l-0.04233 0.0423h-0.59267l-0.04233-0.0423h-0.04233l-0.04233-0.0423h-0.04233l-0.08467-0.0423h-0.04233l-0.08466-0.0846h-0.04233l-0.08466-0.0846v-0.0423l-0.12699-0.1269z"/>
   <path d="m64.099 147.04v-0.0423l-0.04233-0.0847v-0.0423l-0.04233-0.0423v-0.0847l-0.04233-0.0847v-0.33867l0.04233-0.0847v-0.0847l0.04233-0.0423v-0.0423l0.04233-0.0423v-0.0847l0.04233-0.0423v-0.0423l0.16932-0.1692h0.04233l0.12699-0.1269h0.04233l0.08466-0.0846h0.04233l0.08467-0.0423h0.127l0.08467-0.0423h0.29633l0.04233 0.0423h0.127l0.04233 0.0423h0.04233l0.04233 0.0423h0.04233l0.08466 0.0846h0.04233l0.25398 0.2538v0.0423l0.08466 0.0846v0.0423l0.04233 0.0847v0.0423l0.04233 0.0423v0.16934l0.04233 0.0423v0.16933l-0.04233 0.0423v0.16933l-0.04233 0.0423v0.0847l-0.08466 0.0846v0.0423l-0.08466 0.0846v0.0423l-0.21165 0.2115h-0.04233l-0.08466 0.0846h-0.08467l-0.04233 0.0423h-0.04233l-0.04233 0.0423h-0.16933l-0.04233 0.0423h-0.16933l-0.04233-0.0423h-0.16929l-0.04233-0.0423h-0.04233l-0.04233-0.0423h-0.08467l-0.04233-0.0423h-0.04233l-0.08466-0.0846h-0.04233l-0.08466-0.0846v-0.0423l-0.12699-0.1269z"/>
  </g>
 </g>
</svg>
