<?xml version="1.0" encoding="UTF-8"?>
<!-- Created with Inkscape (http://www.inkscape.org/) -->
<svg width="35.221mm" height="55.795mm" version="1.1" viewBox="0 0 35.221 55.795" xmlns="http://www.w3.org/2000/svg">
 <g transform="translate(-98.954 -147.9)">
  <path d="m128.48 203.68h1.6933v-36.449h-1.6933z" fill="#7e7e7e" fill-rule="evenodd"/>
  <g stroke="#000" stroke-linecap="round" stroke-linejoin="round" stroke-miterlimit="10" stroke-width=".042333">
   <path d="m130.18 167.23v36.449h-1.6933v-36.449h1.6933" fill="none"/>
   <path d="m132.97 147.92h-7.2813l-1.2277 1.27v18.246h9.6943v-18.246l-1.1853-1.27" fill="#7e7e7e" fill-rule="evenodd"/>
   <path d="m127 162.44 0.29633 0.0423 0.254 0.0423 0.42334 0.33866 0.16933 0.21167 0.127 0.21167 0.0847 0.254v0.55033l-0.0847 0.254-0.127 0.21167-0.16933 0.21166-0.21167 0.16934-0.21167 0.127-0.254 0.0847-0.29633 0.0423-0.29633-0.0423-0.21167-0.0847-0.254-0.127-0.21167-0.16934-0.127-0.21166-0.127-0.21167-0.127-0.254v-0.55033l0.127-0.254 0.254-0.42334 0.21167-0.16933 0.254-0.16933 0.21167-0.0423 0.29633-0.0423" fill="none"/>
  </g>
  <path d="m126.83 153.43 0.508 0.0846 0.21167 0.16933 0.254 0.127 0.127 0.254 0.16933 0.21167 0.0846 0.508-0.0423 0.29633-0.0423 0.254-0.16933 0.21167-0.127 0.21166-0.254 0.16934-0.21167 0.127-0.254 0.0847-0.254 0.0423-0.29633-0.0423-0.254-0.0847-0.21167-0.127-0.21167-0.16934-0.16933-0.21166-0.127-0.21167-0.0847-0.254-0.0423-0.29633 0.0423-0.254 0.0847-0.254 0.127-0.21167 0.16933-0.254 0.21167-0.127 0.21167-0.16933 0.254-0.0423 0.29633-0.0423" fill="#f00" fill-rule="evenodd"/>
  <path d="m126.83 149.62v0l0.254 0.0423 0.254 0.0847 0.21167 0.127 0.254 0.16933 0.127 0.21167 0.16933 0.21167 0.0423 0.254 0.0423 0.29633v0l-0.0846 0.508-0.16933 0.21167-0.127 0.254-0.254 0.127-0.21167 0.127-0.254 0.0847-0.254 0.0423v0l-0.29633-0.0423-0.254-0.0847-0.42334-0.254-0.16933-0.254-0.127-0.21167-0.0847-0.254-0.0423-0.254v0l0.0423-0.29633 0.0847-0.254 0.127-0.21167 0.16933-0.21167 0.21167-0.16933 0.21167-0.127 0.254-0.0847 0.29633-0.0423" fill="none" stroke="#000" stroke-linecap="round" stroke-linejoin="round" stroke-miterlimit="10" stroke-width=".042333"/>
  <path d="m126.83 153.38v0l0.508 0.0846 0.21167 0.16933 0.254 0.16933 0.127 0.21167 0.16933 0.21167 0.0423 0.254 0.0423 0.29633v0l-0.0846 0.508-0.16933 0.21167-0.127 0.21166-0.254 0.16934-0.21167 0.127-0.254 0.0847-0.254 0.0423v0l-0.29633-0.0423-0.254-0.0847-0.21167-0.127-0.21167-0.16934-0.16933-0.21166-0.127-0.21167-0.0847-0.254-0.0423-0.254v0l0.0423-0.29633 0.0847-0.254 0.127-0.21167 0.16933-0.21167 0.42334-0.33866 0.254-0.0423 0.29633-0.0423" fill="none" stroke="#000" stroke-linecap="round" stroke-linejoin="round" stroke-miterlimit="10" stroke-width=".042333"/>
  <path d="m131.19 153.38 0.29633 0.0423 0.254 0.0423 0.42334 0.33866 0.33866 0.42334 0.0423 0.254 0.0423 0.29633-0.0846 0.508-0.16933 0.21167-0.16933 0.21166-0.21167 0.16934-0.21167 0.127-0.254 0.0847-0.29633 0.0423-0.254-0.0423-0.254-0.0847-0.21167-0.127-0.21166-0.16934-0.16934-0.21166-0.127-0.21167-0.0847-0.254-0.0423-0.254 0.0423-0.29633 0.0847-0.254 0.127-0.21167 0.16934-0.21167 0.21166-0.16933 0.21167-0.16933 0.508-0.0846" fill="#7e7e7e" fill-rule="evenodd"/>
  <path d="m131.19 153.38v0l0.29633 0.0423 0.254 0.0423 0.42334 0.33866 0.33866 0.42334 0.0423 0.254 0.0423 0.29633v0l-0.0846 0.508-0.16933 0.21167-0.16933 0.21166-0.21167 0.16934-0.21167 0.127-0.254 0.0847-0.29633 0.0423v0l-0.254-0.0423-0.254-0.0847-0.21167-0.127-0.21166-0.16934-0.16934-0.21166-0.127-0.21167-0.0847-0.254-0.0423-0.254v0l0.0423-0.29633 0.0847-0.254 0.127-0.21167 0.16934-0.21167 0.21166-0.16933 0.21167-0.16933 0.508-0.0846" fill="none" stroke="#000" stroke-linecap="round" stroke-linejoin="round" stroke-miterlimit="10" stroke-width=".042333"/>
  <path d="m131.23 153.43 0.508 0.0846 0.21167 0.16933 0.21166 0.127 0.16934 0.254 0.16933 0.21167 0.0846 0.508-0.0423 0.29633-0.0423 0.254-0.16933 0.21167-0.16934 0.21166-0.21166 0.16934-0.21167 0.127-0.254 0.0847-0.254 0.0423-0.29633-0.0423-0.254-0.0847-0.21167-0.127-0.21167-0.16934-0.16933-0.21166-0.127-0.21167-0.0847-0.254-0.0423-0.29633 0.0423-0.254 0.0847-0.254 0.127-0.21167 0.16933-0.254 0.21167-0.127 0.21167-0.16933 0.254-0.0423 0.29633-0.0423" fill="#f00" fill-rule="evenodd"/>
  <path d="m103 203.68h1.6933v-36.407h-1.6933z" fill="#7e7e7e" fill-rule="evenodd"/>
  <g stroke="#000" stroke-linecap="round" stroke-linejoin="round" stroke-miterlimit="10" stroke-width=".042333">
   <path d="m104.69 167.27v36.407h-1.6933v-36.407h1.6933" fill="none"/>
   <path d="m107.48 147.92h-7.2813l-1.2277 1.3123v18.203h9.6943v-18.203l-1.1853-1.3123" fill="#7e7e7e" fill-rule="evenodd"/>
   <path d="m106.09 162.49h0.254l0.254 0.0847 0.21167 0.127 0.21166 0.16933 0.16934 0.21167 0.16933 0.21166 0.0423 0.254 0.0423 0.29634-0.0423 0.29633-0.0423 0.254-0.16933 0.21167-0.16934 0.21166-0.21166 0.16934-0.21167 0.0847-0.254 0.127h-0.55033l-0.254-0.127-0.21167-0.0847-0.21167-0.16934-0.16933-0.21166-0.127-0.21167-0.0847-0.254-0.0423-0.29633 0.0423-0.29634 0.0847-0.254 0.127-0.21166 0.16933-0.21167 0.21167-0.16933 0.21167-0.127 0.254-0.0847h0.29633" fill="none"/>
  </g>
  <path d="m103.93 156.01 0.29633 0.0423 0.21167 0.0423 0.254 0.16933 0.21167 0.16933 0.127 0.21167 0.16933 0.21167 0.0847 0.254v0.55033l-0.0847 0.254-0.16933 0.21167-0.127 0.21166-0.21167 0.16934-0.254 0.127-0.21167 0.0847-0.29633 0.0423-0.29633-0.0423-0.254-0.0847-0.21167-0.127-0.21167-0.16934-0.16933-0.21166-0.127-0.21167-0.0847-0.254v-0.55033l0.0847-0.254 0.127-0.21167 0.16933-0.21167 0.42334-0.33866 0.254-0.0423 0.29633-0.0423" fill="#f00" fill-rule="evenodd"/>
  <path d="m101.68 162.49h0.254l0.254 0.0847 0.254 0.127 0.21167 0.16933 0.127 0.21167 0.16933 0.21166 0.0423 0.254 0.0423 0.29634v0l-0.0423 0.29633-0.0423 0.254-0.16933 0.21167-0.127 0.21166-0.21167 0.16934-0.254 0.0847-0.254 0.127h-0.55033l-0.254-0.127-0.21167-0.0847-0.21167-0.16934-0.16933-0.21166-0.127-0.21167-0.0847-0.254v-0.59267l0.0847-0.254 0.127-0.21166 0.16933-0.21167 0.21167-0.16933 0.21167-0.127 0.254-0.0847h0.29633" fill="none" stroke="#000" stroke-linecap="round" stroke-linejoin="round" stroke-miterlimit="10" stroke-width=".042333"/>
  <path d="m101.52 149.87h0.254l0.254 0.0847 0.21167 0.16933 0.21166 0.127 0.16934 0.21167 0.16933 0.254 0.0846 0.508v0l-0.0423 0.29633-0.0423 0.254-0.16933 0.21167-0.16934 0.21166-0.21166 0.16934-0.21167 0.127-0.254 0.0847-0.254 0.0423v0l-0.29633-0.0423-0.254-0.0847-0.21167-0.127-0.21167-0.16934-0.16933-0.21166-0.127-0.21167-0.0847-0.254-0.0423-0.29633v0l0.0423-0.254 0.0847-0.254 0.127-0.254 0.16933-0.21167 0.21167-0.127 0.21167-0.16933 0.254-0.0847h0.29633" fill="none" stroke="#000" stroke-linecap="round" stroke-linejoin="round" stroke-miterlimit="10" stroke-width=".042333"/>
  <path d="m106.09 149.87 0.508 0.0846 0.21167 0.16933 0.21166 0.16933 0.16934 0.21167 0.16933 0.21167 0.0846 0.508-0.0423 0.29633-0.0423 0.254-0.16933 0.21167-0.16934 0.21166-0.21166 0.16934-0.21167 0.127-0.254 0.0847-0.254 0.0423-0.29633-0.0423-0.254-0.0847-0.21167-0.127-0.21167-0.16934-0.16933-0.21166-0.127-0.21167-0.0847-0.254-0.0423-0.29633 0.0423-0.254 0.0847-0.254 0.127-0.21167 0.16933-0.21167 0.42334-0.33866 0.254-0.0423 0.29633-0.0423" fill="#7e7e7e" fill-rule="evenodd"/>
  <path d="m106.09 149.87v0l0.508 0.0846 0.21167 0.16933 0.21166 0.16933 0.16934 0.21167 0.16933 0.21167 0.0846 0.508v0l-0.0423 0.29633-0.0423 0.254-0.16933 0.21167-0.16934 0.21166-0.21166 0.16934-0.21167 0.127-0.254 0.0847-0.254 0.0423v0l-0.29633-0.0423-0.254-0.0847-0.21167-0.127-0.21167-0.16934-0.16933-0.21166-0.127-0.21167-0.0847-0.254-0.0423-0.29633v0l0.0423-0.254 0.0847-0.254 0.127-0.21167 0.16933-0.21167 0.42334-0.33866 0.254-0.0423 0.29633-0.0423" fill="none" stroke="#000" stroke-linecap="round" stroke-linejoin="round" stroke-miterlimit="10" stroke-width=".042333"/>
  <path d="m103.93 156.01v0l0.29633 0.0423 0.21167 0.0847 0.254 0.127 0.21167 0.16933 0.127 0.21167 0.16933 0.21167 0.0847 0.254v0.55033l-0.0847 0.254-0.16933 0.21167-0.127 0.254-0.21167 0.127-0.254 0.127-0.21167 0.0847-0.29633 0.0423v0l-0.29633-0.0423-0.254-0.0847-0.42334-0.254-0.16933-0.254-0.127-0.21167-0.0847-0.254v-0.55033l0.0847-0.254 0.127-0.21167 0.16933-0.21167 0.21167-0.16933 0.21167-0.127 0.254-0.0847 0.29633-0.0423" fill="none" stroke="#000" stroke-linecap="round" stroke-linejoin="round" stroke-miterlimit="10" stroke-width=".042333"/>
 </g>
</svg>
