<?xml version="1.0" encoding="UTF-8"?>
<!-- Created with Inkscape (http://www.inkscape.org/) -->
<svg width="9.845mm" height="33.63mm" version="1.1" viewBox="0 0 9.845 33.63" xmlns="http://www.w3.org/2000/svg">
 <g transform="translate(-123.82 -99.483)" stroke="#1f1a17" stroke-linecap="round" stroke-linejoin="round" stroke-miterlimit="10">
  <path d="m127.9 133.07h1.6933v-14.224h-1.6933z" fill="#848382" fill-rule="evenodd" stroke-width=".095504"/>
  <path d="m132.39 99.58h-7.239l-1.2277 1.2277v18.246h9.652v-18.246l-1.1853-1.2277" fill="#848382" fill-rule="evenodd" stroke-width=".19296"/>
  <g stroke-width=".071628">
   <path d="m130.99 114.06h0.21167l0.0423 0.0423h0.127l0.0847 0.0423h0.0423l0.0847 0.0423 0.0846 0.0846h0.0847l0.2962 0.2962v0.0423l0.0846 0.0846 0.0423 0.0847 0.0423 0.0423v0.0847l0.0423 0.0423v0.0847l0.0423 0.0423v0.0847l0.0423 0.0423v0.42333l-0.0423 0.0847v0.0423l-0.0423 0.0847v0.0423l-0.0423 0.0847v0.0423l-0.0423 0.0847-0.1269 0.1269v0.0847l-0.0423 0.0423-0.0847 0.0423-0.1692 0.1692-0.0847 0.0423-0.0423 0.0423h-0.0423l-0.0847 0.0423-0.0423 0.0423h-0.127l-0.0847 0.0423h-0.55033l-0.0423-0.0423h-0.127l-0.0847-0.0423-0.0423-0.0423h-0.0847l-0.1269-0.1269-0.0847-0.0423-0.1692-0.1692-0.0423-0.0847-0.1269-0.1269v-0.0847l-0.0423-0.0423v-0.0847l-0.0423-0.0423v-0.0847l-0.0423-0.0423v-0.55033l0.0423-0.0847v-0.0423l0.0423-0.0847v-0.0423l0.0423-0.0847v-0.0423l0.0423-0.0847 0.1692-0.1692 0.0423-0.0847 0.0846-0.0846 0.0847-0.0423 0.0423-0.0423h0.0423l0.0423-0.0423 0.0847-0.0423 0.0423-0.0423h0.0847l0.0423-0.0423h0.127l0.0847-0.0423z" fill="none"/>
   <path d="m126.59 114.06h0.21167l0.0423 0.0423h0.16933l0.0423 0.0423h0.0847l0.0846 0.0846 0.0847 0.0423h0.0423l0.0846 0.0846 0.0847 0.0423 0.0423 0.0423 0.0423 0.0847 0.1269 0.1269v0.0423l0.0423 0.0847 0.0423 0.0423 0.0423 0.0847v0.0423l0.0423 0.0847v0.127l0.0423 0.0423v0.42333l-0.0423 0.0847v0.127l-0.0423 0.0423v0.0847l-0.0423 0.0423-0.0423 0.0847-0.0423 0.0423v0.0423l-0.0423 0.0423-0.0423 0.0847-0.1269 0.1269-0.0847 0.0423-0.1269 0.1269-0.0847 0.0423h-0.0423l-0.0423 0.0423-0.0847 0.0423h-0.127l-0.0847 0.0423h-0.508l-0.0847-0.0423h-0.127l-0.0423-0.0423-0.0847-0.0423h-0.0423l-0.0847-0.0423-0.1269-0.1269-0.0847-0.0423-0.1269-0.1269-0.0423-0.0847-0.0846-0.0846v-0.0423l-0.0423-0.0847-0.0423-0.0423v-0.0847l-0.0423-0.0423v-0.127l-0.0423-0.0847v-0.42333l0.0423-0.0423v-0.127l0.0423-0.0847v-0.0423l0.0423-0.0847 0.0423-0.0423v-0.0847l0.1692-0.1692 0.0423-0.0847 0.0423-0.0423 0.0847-0.0423 0.0846-0.0846h0.0423l0.0847-0.0423 0.0423-0.0423 0.0847-0.0423h0.0423l0.0423-0.0423h0.16933l0.0423-0.0423h0.21167" fill="#848382" fill-rule="evenodd"/>
   <path d="m126.59 101.48h0.254l0.0847 0.0423h0.0847l0.0423 0.0423h0.0847l0.0846 0.0846h0.0847l0.1269 0.1269 0.0847 0.0423 0.0846 0.0846 0.0423 0.0847 0.0846 0.0846v0.0423l0.0423 0.0847 0.0846 0.0846v0.0847l0.0423 0.0423v0.16934l0.0423 0.0423v0.42333l-0.0423 0.0847v0.127l-0.0423 0.0423v0.0847l-0.0846 0.0846-0.0423 0.0847v0.0423l-0.0423 0.0423-0.0423 0.0847-0.1269 0.1269-0.0847 0.0423-0.1269 0.1269h-0.0847l-0.0846 0.0846h-0.0847l-0.0423 0.0423h-0.0847l-0.0847 0.0423h-0.508l-0.0847-0.0423h-0.0847l-0.0423-0.0423h-0.0423l-0.0847-0.0423-0.0423-0.0423h-0.0847l-0.1269-0.1269-0.0847-0.0423-0.1269-0.1269-0.0423-0.0847-0.0846-0.0846v-0.0847l-0.0846-0.0846v-0.0847l-0.0423-0.0423v-0.127l-0.0423-0.0847v-0.42333l0.0423-0.0423v-0.16934l0.0423-0.0423v-0.0847l0.0846-0.0846v-0.0847l0.1269-0.1269 0.0423-0.0847 0.0846-0.0846 0.0847-0.0423 0.1269-0.1269h0.0847l0.0423-0.0423 0.0847-0.0423h0.0423l0.0423-0.0423h0.0847l0.0847-0.0423z" fill="none"/>
   <path d="m130.99 101.48h0.254l0.0847 0.0423h0.0423l0.0847 0.0423h0.0423l0.0847 0.0423 0.0423 0.0423h0.0423l0.0847 0.0423 0.1692 0.1692 0.0847 0.0423 0.0423 0.0847v0.0423l0.0846 0.0846 0.0423 0.0847 0.0423 0.0423v0.0423l0.0423 0.0847v0.0423l0.0423 0.0847v0.0847l0.0423 0.0423v0.42333l-0.0423 0.0847v0.0423l-0.0423 0.0847v0.0423l-0.0423 0.0847v0.0423l-0.0423 0.0423-0.0423 0.0847-0.0846 0.0846v0.0847l-0.0423 0.0423-0.0847 0.0423-0.1692 0.1692-0.0847 0.0423h-0.0423l-0.0423 0.0423-0.0847 0.0423h-0.0423l-0.0847 0.0423h-0.0423l-0.0847 0.0423h-0.55033l-0.0423-0.0423h-0.0847l-0.0423-0.0423h-0.0847l-0.0423-0.0423-0.0847-0.0423h-0.0423l-0.0846-0.0846-0.0847-0.0423-0.1692-0.1692-0.0423-0.0847-0.0846-0.0846-0.0423-0.0847v-0.0423l-0.0423-0.0423v-0.0847l-0.0423-0.0423v-0.0847l-0.0423-0.0423v-0.55033l0.0423-0.0847v-0.0847l0.0423-0.0423v-0.0847l0.0423-0.0423v-0.0423l0.0423-0.0847 0.1269-0.1269 0.0423-0.0847 0.1269-0.1269 0.0847-0.0423 0.0846-0.0846h0.0423l0.0847-0.0423 0.0423-0.0423h0.0847l0.0423-0.0423h0.0847l0.0423-0.0423h0.29633" fill="#00923f" fill-rule="evenodd"/>
  </g>
 </g>
</svg>
