<?xml version="1.0" encoding="UTF-8"?>
<!-- Created with Inkscape (http://www.inkscape.org/) -->
<svg width="10.395mm" height="33.63mm" version="1.1" viewBox="0 0 10.395 33.63" xmlns="http://www.w3.org/2000/svg">
 <g transform="translate(-65.087 -129.65)">
  <g fill-rule="evenodd">
   <g stroke="#1f1a17" stroke-linecap="round" stroke-linejoin="round" stroke-miterlimit="10">
    <path d="m69.375 163.23h1.8203v-14.182h-1.8203z" fill="#848382" stroke-width=".095504"/>
    <path d="m74.116 129.74h-7.6623l-1.27 1.2277v18.246h10.202v-18.246l-1.27-1.2277" fill="#848382" stroke-width=".19296"/>
    <path d="m72.635 144.22h0.08467l0.08467 0.0423h0.21167l0.04233 0.0423h0.08467l0.04233 0.0423 0.08467 0.0423h0.04233l0.08467 0.0423 0.04233 0.0423 0.08467 0.0423 0.25398 0.2538 0.04233 0.0847 0.08466 0.0846 0.04233 0.0847v0.0423l0.04233 0.0847 0.04233 0.0423v0.127l0.04233 0.0847v0.42334l-0.04233 0.0423v0.127l-0.04233 0.0847-0.04233 0.0423v0.0847l-0.04233 0.0423-0.04233 0.0847-0.16932 0.1692-0.04233 0.0847-0.12699 0.1269-0.08467 0.0423h-0.04233l-0.08467 0.0423-0.04233 0.0423-0.08467 0.0423h-0.04233l-0.08467 0.0423h-0.127l-0.08467 0.0423h-0.42333l-0.08467-0.0423h-0.127l-0.04233-0.0423h-0.08467l-0.08467-0.0423-0.08466-0.0846h-0.08467l-0.08466-0.0846-0.08467-0.0423-0.04233-0.0423-0.04233-0.0847-0.16932-0.1692-0.04233-0.0847v-0.0423l-0.04233-0.0847-0.04233-0.0423v-0.0847l-0.04233-0.0423v-0.127l-0.04233-0.0847v-0.29633l0.04233-0.0423v-0.127l0.04233-0.0847v-0.0423l0.04233-0.0847 0.04233-0.0423v-0.0847l0.08466-0.0846 0.04233-0.0847 0.16932-0.1692 0.08467-0.0423 0.08466-0.0846 0.08467-0.0423 0.04233-0.0423h0.04233l0.16934-0.0846h0.04233l0.08467-0.0423h0.21167l0.04233-0.0423h0.08467" fill="#fff500" stroke-width=".071628"/>
   </g>
   <path d="m68.02 144.22h0.04233l0.08467 0.0423h0.21167l0.08467 0.0423h0.04233l0.08467 0.0423 0.04233 0.0423h0.08467l0.04233 0.0423 0.08467 0.0423 0.12699 0.1269 0.08467 0.0423 0.12699 0.1269 0.04233 0.0847 0.04233 0.0423v0.0423l0.04233 0.0847 0.04233 0.0423 0.04233 0.0847v0.0423l0.04233 0.0847v0.16934l0.04233 0.0847v0.127l-0.04233 0.0847v0.21167l-0.04233 0.0423v0.0847l-0.04233 0.0423-0.04233 0.0847-0.04233 0.0423v0.0847l-0.16932 0.1692-0.04233 0.0847-0.08467 0.0423-0.12699 0.1269h-0.08467l-0.04233 0.0423-0.08467 0.0423-0.04233 0.0423h-0.08467l-0.04233 0.0423h-0.16933l-0.04233 0.0423h-0.46567l-0.04233-0.0423h-0.127l-0.08467-0.0423h-0.08467l-0.04233-0.0423-0.08467-0.0423-0.04233-0.0423h-0.04233l-0.08467-0.0423-0.12699-0.1269-0.04233-0.0847-0.08467-0.0423-0.08466-0.0846v-0.0423l-0.04233-0.0847-0.04233-0.0423-0.04233-0.0847v-0.0423l-0.04233-0.0847v-0.0423l-0.04233-0.0847v-0.55033l0.04233-0.0423v-0.0847l0.04233-0.0423v-0.0847l0.04233-0.0423 0.04233-0.0847 0.04233-0.0423v-0.0423l0.04233-0.0847 0.04233-0.0423 0.08467-0.0423 0.16932-0.1692 0.08467-0.0423 0.08466-0.0846h0.08467l0.04233-0.0423 0.08467-0.0423h0.08467l0.04233-0.0423h0.21167l0.08467-0.0423h0.08467" fill="#848382"/>
  </g>
  <g stroke="#1f1a17" stroke-linecap="round" stroke-linejoin="round" stroke-miterlimit="10" stroke-width=".071628">
   <path d="m68.02 144.22h0.04233l0.08467 0.0423h0.21167l0.08467 0.0423h0.04233l0.08467 0.0423 0.04233 0.0423h0.08467l0.04233 0.0423 0.08467 0.0423 0.12699 0.1269 0.08467 0.0423 0.12699 0.1269 0.04233 0.0847 0.04233 0.0423v0.0423l0.04233 0.0847 0.04233 0.0423 0.04233 0.0847v0.0423l0.04233 0.0847v0.16934l0.04233 0.0847v0.127l-0.04233 0.0847v0.21167l-0.04233 0.0423v0.0847l-0.04233 0.0423-0.04233 0.0847-0.04233 0.0423v0.0847l-0.16932 0.1692-0.04233 0.0847-0.08467 0.0423-0.12699 0.1269h-0.08467l-0.04233 0.0423-0.08467 0.0423-0.04233 0.0423h-0.08467l-0.04233 0.0423h-0.16933l-0.04233 0.0423h-0.46567l-0.04233-0.0423h-0.127l-0.08467-0.0423h-0.08467l-0.04233-0.0423-0.08467-0.0423-0.04233-0.0423h-0.04233l-0.08467-0.0423-0.12699-0.1269-0.04233-0.0847-0.08467-0.0423-0.08466-0.0846v-0.0423l-0.04233-0.0847-0.04233-0.0423-0.04233-0.0847v-0.0423l-0.04233-0.0847v-0.0423l-0.04233-0.0847v-0.55033l0.04233-0.0423v-0.0847l0.04233-0.0423v-0.0847l0.04233-0.0423 0.04233-0.0847 0.04233-0.0423v-0.0423l0.04233-0.0847 0.04233-0.0423 0.08467-0.0423 0.16932-0.1692 0.08467-0.0423 0.08466-0.0846h0.08467l0.04233-0.0423 0.08467-0.0423h0.08467l0.04233-0.0423h0.21167l0.08467-0.0423z" fill="none"/>
   <path d="m68.02 131.65h0.254l0.08467 0.0423h0.08467l0.04233 0.0423h0.08467l0.04233 0.0423 0.08467 0.0423 0.04233 0.0423h0.08467l0.12699 0.1269 0.08467 0.0423 0.04233 0.0423 0.04233 0.0847 0.12699 0.1269v0.0847l0.04233 0.0423 0.04233 0.0847 0.04233 0.0423v0.0847l0.04233 0.0423v0.21167l0.04233 0.0423v0.16933l-0.04233 0.0423v0.21166l-0.04233 0.0847v0.0423l-0.04233 0.0847-0.04233 0.0423-0.04233 0.0847v0.0423l-0.04233 0.0423-0.04233 0.0847-0.12699 0.1269-0.08467 0.0423-0.12699 0.1269-0.08467 0.0423-0.04233 0.0423h-0.08467l-0.04233 0.0423-0.08467 0.0423h-0.04233l-0.08467 0.0423h-0.71967l-0.04233-0.0423h-0.08467l-0.08467-0.0423-0.04233-0.0423h-0.08467l-0.08466-0.0846-0.08467-0.0423-0.16932-0.1692-0.08467-0.0423-0.04233-0.0423-0.04233-0.0847v-0.0423l-0.04233-0.0423-0.04233-0.0847-0.04233-0.0423v-0.0847l-0.04233-0.0423v-0.0847l-0.04233-0.0423v-0.55033l0.04233-0.0847v-0.0423l0.04233-0.0847v-0.0423l0.04233-0.0847 0.04233-0.0423 0.04233-0.0847v-0.0423l0.08466-0.0846 0.08467-0.0847 0.16932-0.1692 0.08467-0.0423h0.04233l0.04233-0.0423 0.08467-0.0423 0.04233-0.0423h0.08467l0.08467-0.0423h0.04233l0.08467-0.0423z" fill="none"/>
   <path d="m72.635 131.65h0.29633l0.08467 0.0423h0.04233l0.08467 0.0423h0.04233l0.08467 0.0423 0.04233 0.0423 0.08467 0.0423h0.04233l0.08467 0.0423 0.16932 0.1692 0.04233 0.0847 0.12699 0.1269 0.04233 0.0847 0.04233 0.0423v0.0847l0.04233 0.0423 0.04233 0.0847v0.127l0.04233 0.0423v0.42333l-0.04233 0.0847v0.127l-0.04233 0.0423-0.04233 0.0847v0.0423l-0.04233 0.0847-0.08466 0.0846-0.04233 0.0847-0.25398 0.2538-0.08467 0.0423-0.04233 0.0423-0.08467 0.0423h-0.04233l-0.08467 0.0423-0.04233 0.0423h-0.08467l-0.04233 0.0423h-0.71967l-0.08467-0.0423h-0.04233l-0.16934-0.0846h-0.04233l-0.04233-0.0423-0.08467-0.0423-0.08466-0.0846-0.08467-0.0423-0.16932-0.1692-0.04233-0.0847-0.08466-0.0846v-0.0847l-0.04233-0.0423-0.04233-0.0847v-0.0423l-0.04233-0.0847v-0.127l-0.04233-0.0847v-0.254l0.04233-0.0847v-0.127l0.04233-0.0423v-0.0847l0.04233-0.0423 0.04233-0.0847v-0.0423l0.04233-0.0847 0.12699-0.1269 0.04233-0.0847 0.08466-0.0846 0.08467-0.0423 0.08466-0.0846h0.08467l0.08466-0.0846 0.08467-0.0423h0.08467l0.04233-0.0423h0.08467l0.04233-0.0423h0.29633" fill="#00923f" fill-rule="evenodd"/>
  </g>
 </g>
</svg>
