<?xml version="1.0" encoding="UTF-8"?>
<!-- Created with Inkscape (http://www.inkscape.org/) -->
<svg width="40.777mm" height="33.085mm" version="1.1" viewBox="0 0 40.777 33.085" xmlns="http://www.w3.org/2000/svg">
 <g transform="translate(-43.962 -74.305)">
  <g fill-rule="evenodd">
   <path d="m48.084 107.34h1.7357v-13.589h-1.7357z" fill="#848382" stroke="#1f1a17" stroke-linecap="round" stroke-linejoin="round" stroke-miterlimit="10" stroke-width=".099907"/>
   <path d="m52.613 74.405h-7.3237l-1.2277 1.2277v18.288h9.779v-18.288l-1.2277-1.2277" fill="#848382" stroke="#1f1a17" stroke-linecap="round" stroke-linejoin="round" stroke-miterlimit="10" stroke-width=".19981"/>
   <path d="m51.174 81.686h0.21167l0.04233 0.04233h0.08467l0.04233 0.04233h0.08467l0.04233 0.04233h0.08467l0.08466 0.08466 0.08467 0.04233h0.04233l0.33865 0.33865v0.08467l0.08466 0.08466 0.04233 0.08467v0.04233l0.04233 0.08467v0.127l0.04233 0.04233v0.42333l-0.04233 0.08467v0.127l-0.04233 0.08467v0.04233l-0.04233 0.04233-0.04233 0.08467-0.04233 0.04233v0.08467l-0.16932 0.16932-0.08467 0.04233-0.12699 0.12699-0.08467 0.04233-0.08466 0.08466h-0.08467l-0.04233 0.04233h-0.08467l-0.04233 0.04233h-0.127l-0.08467 0.04233h-0.29633l-0.04233-0.04233h-0.16933l-0.04233-0.04233h-0.08467l-0.04233-0.04233h-0.08467l-0.08466-0.08466-0.08467-0.04233-0.16932-0.16932-0.08467-0.04233-0.04233-0.04233v-0.04233l-0.04233-0.04233-0.04233-0.08467-0.04233-0.04233-0.04233-0.08467v-0.04233l-0.04233-0.04233-0.04233-0.08467v-0.127l-0.04233-0.08467v-0.42329l0.04233-0.04233v-0.127l0.04233-0.08467 0.04233-0.04233v-0.08467l0.08466-0.08466 0.04233-0.08467 0.04233-0.04233v-0.04233l0.04233-0.04233 0.08467-0.04233 0.04233-0.08467 0.08466-0.08466h0.04233l0.08467-0.04233 0.08466-0.08466h0.08467l0.04233-0.04233h0.08467l0.04233-0.04233h0.08467l0.08467-0.04233h0.21167" fill="#00923f"/>
  </g>
  <path d="m51.174 81.686h0.21167l0.04233 0.04233h0.08467l0.04233 0.04233h0.08467l0.04233 0.04233h0.08467l0.08466 0.08466 0.08467 0.04233h0.04233l0.33865 0.33865v0.08467l0.08466 0.08466 0.04233 0.08467v0.04233l0.04233 0.08467v0.127l0.04233 0.04233v0.42333l-0.04233 0.08467v0.127l-0.04233 0.08467v0.04233l-0.04233 0.04233-0.04233 0.08467-0.04233 0.04233v0.08467l-0.16932 0.16932-0.08467 0.04233-0.12699 0.12699-0.08467 0.04233-0.08466 0.08466h-0.08467l-0.04233 0.04233h-0.08467l-0.04233 0.04233h-0.127l-0.08467 0.04233h-0.29633l-0.04233-0.04233h-0.16933l-0.04233-0.04233h-0.08467l-0.04233-0.04233h-0.08467l-0.08466-0.08466-0.08467-0.04233-0.16932-0.16932-0.08467-0.04233-0.04233-0.04233v-0.04233l-0.04233-0.04233-0.04233-0.08467-0.04233-0.04233-0.04233-0.08467v-0.04233l-0.04233-0.04233-0.04233-0.08467v-0.127l-0.04233-0.08467v-0.42329l0.04233-0.04233v-0.127l0.04233-0.08467 0.04233-0.04233v-0.08467l0.08466-0.08466 0.04233-0.08467 0.04233-0.04233v-0.04233l0.04233-0.04233 0.08467-0.04233 0.04233-0.08467 0.08466-0.08466h0.04233l0.08467-0.04233 0.08466-0.08466h0.08467l0.04233-0.04233h0.08467l0.04233-0.04233h0.08467l0.08467-0.04233z" fill="none" stroke="#1f1a17" stroke-linecap="round" stroke-linejoin="round" stroke-miterlimit="10" stroke-width=".07493"/>
  <g fill-rule="evenodd">
   <path d="m46.771 81.686h0.21167l0.08467 0.04233h0.04233l0.08467 0.04233h0.04233l0.08467 0.04233h0.04233l0.08467 0.04233 0.08466 0.08466h0.08467l0.08466 0.08466 0.04233 0.08467 0.16932 0.16932 0.04233 0.08467 0.08466 0.08466v0.08467l0.04233 0.04233v0.08467l0.04233 0.04233v0.127l0.04233 0.08467v0.29633l-0.04233 0.04233v0.16933l-0.04233 0.04233v0.08467l-0.04233 0.04233v0.04233l-0.04233 0.08467-0.04233 0.04233-0.04233 0.08467-0.29631 0.29631-0.08467 0.04233-0.08466 0.08466-0.08467 0.04233h-0.04233l-0.08467 0.04233h-0.04233l-0.08467 0.04233h-0.127l-0.04233 0.04233h-0.29633l-0.08467-0.04233h-0.127l-0.04233-0.04233h-0.08467l-0.04233-0.04233h-0.08467l-0.04233-0.04233-0.08467-0.04233-0.12699-0.12699-0.08467-0.04233-0.21165-0.21165-0.04233-0.08467v-0.04233l-0.04233-0.08467-0.04233-0.04233v-0.04233l-0.04233-0.08467v-0.04233l-0.04233-0.08467v-0.55033l0.04233-0.08467v-0.04233l0.04233-0.08467v-0.04233l0.04233-0.08467 0.04233-0.04233v-0.04233l0.04233-0.08467 0.16932-0.16932 0.04233-0.08467 0.08467-0.04233 0.04233-0.04233h0.04233l0.04233-0.04233 0.08467-0.04233 0.04233-0.04233h0.08467l0.04233-0.04233h0.08467l0.04233-0.04233h0.08467l0.04233-0.04233h0.21167" fill="#848382" stroke="#1f1a17" stroke-linecap="round" stroke-linejoin="round" stroke-miterlimit="10" stroke-width=".07493"/>
   <path d="m77.336 77.114h0.381l0.762 0.08466 0.33867 0.08467 0.381 0.04233 1.016 0.381 0.29633 0.127 0.33867 0.16933 0.59267 0.33867 0.29633 0.21167 0.254 0.21167 0.29633 0.254 0.508 0.508 0.42333 0.508 0.21167 0.29633 0.16933 0.29633 0.21167 0.29633 0.127 0.33867 0.16933 0.29633 0.254 0.67733 0.08467 0.33867 0.08467 0.381 0.08467 0.33867 0.04233 0.381v0.381l0.04233 0.381-0.04233 0.33867v0.381l-0.04233 0.381-0.08467 0.33867-0.08467 0.381-0.08467 0.33867-0.127 0.33867-0.127 0.33867-0.16933 0.29633-0.127 0.33867-0.21167 0.29633-0.16933 0.29633-0.21167 0.29633-0.21167 0.254-0.21167 0.29633-0.254 0.254-0.254 0.21167-0.29633 0.254-0.254 0.21167-0.29633 0.21167-0.59267 0.33867-0.33867 0.16933-0.29633 0.16933-0.33867 0.127-0.33867 0.08467-0.33867 0.127-0.381 0.08467-0.33867 0.04233-0.762 0.08466h-0.762l-0.381-0.04233-0.33867-0.04233-0.381-0.04233-0.33867-0.08467-0.33867-0.127-0.33867-0.08467-0.33867-0.127-0.67733-0.33867-0.59267-0.33867-0.29633-0.21167-0.254-0.21167-0.254-0.254-0.254-0.21167-0.254-0.254-0.254-0.29633-0.21167-0.254-0.21167-0.29633-0.16933-0.29633-0.16933-0.29633-0.16933-0.33867-0.16933-0.29633-0.127-0.33867-0.127-0.33867-0.08467-0.33867-0.08467-0.381-0.04233-0.33867-0.08466-0.762v-0.71967l0.08466-0.762 0.04233-0.33867 0.08467-0.381 0.08467-0.33867 0.254-0.67733 0.16933-0.29633 0.16933-0.33867 0.33867-0.59267 0.21167-0.29633 0.21167-0.254 1.016-1.016 0.254-0.21167 0.29633-0.21167 0.59267-0.33867 0.33867-0.16933 1.3547-0.508 0.33867-0.04233 0.381-0.08467 0.33867-0.04233 0.381-0.04233h0.381" fill="#969594" stroke="#1f1a17" stroke-linecap="round" stroke-linejoin="round" stroke-miterlimit="10" stroke-width=".07493"/>
   <path d="m79.622 83.125h0.21167l0.04233 0.04233h0.16933l0.04233 0.04233h0.08467l0.08466 0.08466 0.08467 0.04233h0.04233l0.04233 0.04233 0.08467 0.04233 0.08466 0.08466 0.04233 0.08467 0.16932 0.16932v0.08467l0.04233 0.04233 0.04233 0.08467v0.04233l0.04233 0.08467v0.04233l0.04233 0.08467v0.55033l-0.04233 0.04233v0.08467l-0.04233 0.04233v0.08467l-0.04233 0.04233-0.04233 0.08467v0.04233l-0.04233 0.04233-0.04233 0.08467-0.21165 0.21165-0.08467 0.04233-0.08466 0.08466-0.08467 0.04233h-0.04233l-0.04233 0.04233-0.08467 0.04233h-0.04233l-0.08467 0.04233h-0.21166l-0.04233 0.04233h-0.16933l-0.04233-0.04233h-0.21167l-0.08467-0.04233h-0.04233l-0.08467-0.04233-0.04233-0.04233h-0.08467l-0.08466-0.08466-0.08467-0.04233-0.25398-0.25398-0.04233-0.08467-0.08466-0.08466v-0.08467l-0.04233-0.04233-0.04233-0.08467v-0.04233l-0.04233-0.08467v-0.16933l-0.04233-0.08467v-0.127l0.04233-0.08467v-0.21167l0.04233-0.04233v-0.08467l0.04233-0.04233 0.04233-0.08467v-0.04233l0.04233-0.08467 0.16932-0.16932 0.04233-0.08467 0.12699-0.12699 0.08467-0.04233h0.04233l0.04233-0.04233 0.08467-0.04233 0.04233-0.04233h0.08467l0.04233-0.04233h0.127l0.08467-0.04233h0.21167" fill="#00923f"/>
  </g>
  <path d="m79.622 83.125h0.21167l0.04233 0.04233h0.16933l0.04233 0.04233h0.08467l0.08466 0.08466 0.08467 0.04233h0.04233l0.04233 0.04233 0.08467 0.04233 0.08466 0.08466 0.04233 0.08467 0.16932 0.16932v0.08467l0.04233 0.04233 0.04233 0.08467v0.04233l0.04233 0.08467v0.04233l0.04233 0.08467v0.55033l-0.04233 0.04233v0.08467l-0.04233 0.04233v0.08467l-0.04233 0.04233-0.04233 0.08467v0.04233l-0.04233 0.04233-0.04233 0.08467-0.21165 0.21165-0.08467 0.04233-0.08466 0.08466-0.08467 0.04233h-0.04233l-0.04233 0.04233-0.08467 0.04233h-0.04233l-0.08467 0.04233h-0.21166l-0.04233 0.04233h-0.16933l-0.04233-0.04233h-0.21167l-0.08467-0.04233h-0.04233l-0.08467-0.04233-0.04233-0.04233h-0.08467l-0.08466-0.08466-0.08467-0.04233-0.25398-0.25398-0.04233-0.08467-0.08466-0.08466v-0.08467l-0.04233-0.04233-0.04233-0.08467v-0.04233l-0.04233-0.08467v-0.16933l-0.04233-0.08467v-0.127l0.04233-0.08467v-0.21167l0.04233-0.04233v-0.08467l0.04233-0.04233 0.04233-0.08467v-0.04233l0.04233-0.08467 0.16932-0.16932 0.04233-0.08467 0.12699-0.12699 0.08467-0.04233h0.04233l0.04233-0.04233 0.08467-0.04233 0.04233-0.04233h0.08467l0.04233-0.04233h0.127l0.08467-0.04233z" fill="none" stroke="#1f1a17" stroke-linecap="round" stroke-linejoin="round" stroke-miterlimit="10" stroke-width=".07493"/>
  <path d="m75.346 82.998h0.21167l0.04233 0.04233h0.16933l0.04233 0.04233h0.08467l0.08466 0.08466 0.08467 0.04233h0.04233l0.04233 0.04233 0.08467 0.04233 0.12699 0.12699 0.04233 0.08467 0.12699 0.12699 0.04233 0.08467v0.04233l0.04233 0.08467v0.04233l0.04233 0.08467v0.04233l0.04233 0.08467v0.55033l-0.04233 0.04233v0.08467l-0.04233 0.04233v0.08467l-0.04233 0.04233v0.08467l-0.08466 0.08466-0.04233 0.08467-0.21165 0.21165-0.08467 0.04233-0.08466 0.08466-0.08467 0.04233h-0.04233l-0.04233 0.04233-0.08467 0.04233h-0.04233l-0.08467 0.04233h-0.21167l-0.04233 0.04233h-0.16933l-0.04233-0.04233h-0.21167l-0.08467-0.04233h-0.04233l-0.08467-0.04233-0.04233-0.04233h-0.08467l-0.08466-0.08466-0.08467-0.04233-0.25398-0.25398-0.04233-0.08467-0.08466-0.08466v-0.08467l-0.04233-0.04233-0.04233-0.08467v-0.04233l-0.04233-0.08467v-0.16933l-0.04233-0.08467v-0.127l0.04233-0.08467v-0.21167l0.04233-0.04233v-0.08467l0.04233-0.04233 0.04233-0.08467v-0.04233l0.04233-0.08467 0.12699-0.12699 0.04233-0.08467 0.16932-0.16932 0.08467-0.04233h0.04233l0.04233-0.04233 0.08467-0.04233 0.04233-0.04233h0.08467l0.04233-0.04233h0.127l0.08467-0.04233h0.21167" fill="#848382" fill-rule="evenodd"/>
  <path d="m75.346 82.998h0.21167l0.04233 0.04233h0.16933l0.04233 0.04233h0.08467l0.08466 0.08466 0.08467 0.04233h0.04233l0.04233 0.04233 0.08467 0.04233 0.12699 0.12699 0.04233 0.08467 0.12699 0.12699 0.04233 0.08467v0.04233l0.04233 0.08467v0.04233l0.04233 0.08467v0.04233l0.04233 0.08467v0.55033l-0.04233 0.04233v0.08467l-0.04233 0.04233v0.08467l-0.04233 0.04233v0.08467l-0.08466 0.08466-0.04233 0.08467-0.21165 0.21165-0.08467 0.04233-0.08466 0.08466-0.08467 0.04233h-0.04233l-0.04233 0.04233-0.08467 0.04233h-0.04233l-0.08467 0.04233h-0.21167l-0.04233 0.04233h-0.16933l-0.04233-0.04233h-0.21167l-0.08467-0.04233h-0.04233l-0.08467-0.04233-0.04233-0.04233h-0.08467l-0.08466-0.08466-0.08467-0.04233-0.25398-0.25398-0.04233-0.08467-0.08466-0.08466v-0.08467l-0.04233-0.04233-0.04233-0.08467v-0.04233l-0.04233-0.08467v-0.16933l-0.04233-0.08467v-0.127l0.04233-0.08467v-0.21167l0.04233-0.04233v-0.08467l0.04233-0.04233 0.04233-0.08467v-0.04233l0.04233-0.08467 0.12699-0.12699 0.04233-0.08467 0.16932-0.16932 0.08467-0.04233h0.04233l0.04233-0.04233 0.08467-0.04233 0.04233-0.04233h0.08467l0.04233-0.04233h0.127l0.08467-0.04233z" fill="none" stroke="#1f1a17" stroke-linecap="round" stroke-linejoin="round" stroke-miterlimit="10" stroke-width=".07493"/>
  <path d="m76.447 105.35h1.7357v-13.631h-1.7357z" fill="#848382" fill-rule="evenodd" stroke="#1f1a17" stroke-linecap="round" stroke-linejoin="round" stroke-miterlimit="10" stroke-width=".099907"/>
  <path d="m46.771 76.225h0.29633l0.04233 0.04233h0.08467l0.04233 0.04233h0.08467l0.04233 0.04233 0.08467 0.04233h0.04233l0.04233 0.04233 0.08467 0.04233 0.16932 0.16932 0.04233 0.08467 0.12699 0.12699 0.04233 0.08467 0.04233 0.04233v0.08467l0.04233 0.04233v0.08467l0.04233 0.04233v0.127l0.04233 0.08467v0.254l-0.04233 0.08467v0.127l-0.04233 0.08467v0.04233l-0.04233 0.08467v0.04233l-0.04233 0.08467-0.12699 0.12699-0.04233 0.08467-0.21165 0.21165-0.08467 0.04233-0.08466 0.08466h-0.08467l-0.04233 0.04233-0.08467 0.04233h-0.04233l-0.08467 0.04233h-0.254l-0.08467 0.04233-0.04233-0.04233h-0.29633l-0.04233-0.04233h-0.08467l-0.04233-0.04233-0.08467-0.04233h-0.04233l-0.08467-0.04233-0.12699-0.12699-0.08467-0.04233-0.12699-0.12699-0.04233-0.08467-0.08466-0.08466v-0.04233l-0.04233-0.08467-0.04233-0.04233v-0.08467l-0.04233-0.04233v-0.08467l-0.04233-0.04233v-0.55033l0.04233-0.08467v-0.04233l0.04233-0.08467v-0.04233l0.04233-0.08467 0.04233-0.04233v-0.08467l0.12699-0.12699 0.04233-0.08467 0.08466-0.08466 0.08467-0.04233 0.12699-0.12699h0.08467l0.04233-0.04233 0.08467-0.04233h0.04233l0.08467-0.04233h0.04233l0.08467-0.04233h0.254" fill="#848382" fill-rule="evenodd"/>
  <path d="m46.771 76.225h0.29633l0.04233 0.04233h0.08467l0.04233 0.04233h0.08467l0.04233 0.04233 0.08467 0.04233h0.04233l0.04233 0.04233 0.08467 0.04233 0.16932 0.16932 0.04233 0.08467 0.12699 0.12699 0.04233 0.08467 0.04233 0.04233v0.08467l0.04233 0.04233v0.08467l0.04233 0.04233v0.127l0.04233 0.08467v0.254l-0.04233 0.08467v0.127l-0.04233 0.08467v0.04233l-0.04233 0.08467v0.04233l-0.04233 0.08467-0.12699 0.12699-0.04233 0.08467-0.21165 0.21165-0.08467 0.04233-0.08466 0.08466h-0.08467l-0.04233 0.04233-0.08467 0.04233h-0.04233l-0.08467 0.04233h-0.254l-0.08467 0.04233-0.04233-0.04233h-0.29633l-0.04233-0.04233h-0.08467l-0.04233-0.04233-0.08467-0.04233h-0.04233l-0.08467-0.04233-0.12699-0.12699-0.08467-0.04233-0.12699-0.12699-0.04233-0.08467-0.08466-0.08466v-0.04233l-0.04233-0.08467-0.04233-0.04233v-0.08467l-0.04233-0.04233v-0.08467l-0.04233-0.04233v-0.55033l0.04233-0.08467v-0.04233l0.04233-0.08467v-0.04233l0.04233-0.08467 0.04233-0.04233v-0.08467l0.12699-0.12699 0.04233-0.08467 0.08466-0.08466 0.08467-0.04233 0.12699-0.12699h0.08467l0.04233-0.04233 0.08467-0.04233h0.04233l0.08467-0.04233h0.04233l0.08467-0.04233z" fill="none" stroke="#1f1a17" stroke-linecap="round" stroke-linejoin="round" stroke-miterlimit="10" stroke-width=".07493"/>
 </g>
</svg>
