<?xml version="1.0" encoding="UTF-8"?>
<!-- Created with Inkscape (http://www.inkscape.org/) -->
<svg width="40.777mm" height="33.085mm" version="1.1" viewBox="0 0 40.777 33.085" xmlns="http://www.w3.org/2000/svg">
 <g transform="translate(-34.437 -97.059)">
  <g fill="#848382" fill-rule="evenodd">
   <path d="m38.559 130.09h1.7357v-13.589h-1.7357z" stroke="#1f1a17" stroke-linecap="round" stroke-linejoin="round" stroke-miterlimit="10" stroke-width=".099907"/>
   <path d="m43.088 97.159h-7.3237l-1.2277 1.2277v18.288h9.779v-18.288l-1.2277-1.2277" stroke="#1f1a17" stroke-linecap="round" stroke-linejoin="round" stroke-miterlimit="10" stroke-width=".19981"/>
   <path d="m41.649 104.44h0.21167l0.04233 0.0423h0.08467l0.04233 0.0423h0.08467l0.04233 0.0423h0.08467l0.08466 0.0846 0.08467 0.0423h0.04233l0.08466 0.0846 0.08467 0.0847 0.16932 0.1692v0.0847l0.08466 0.0846 0.04233 0.0847v0.0423l0.04233 0.0847v0.127l0.04233 0.0423v0.42333l-0.04233 0.0847v0.127l-0.04233 0.0847v0.0423l-0.04233 0.0423-0.04233 0.0847-0.04233 0.0423v0.0847l-0.16932 0.1692-0.08467 0.0423-0.12699 0.1269-0.08467 0.0423-0.08466 0.0846h-0.08467l-0.04233 0.0423h-0.08467l-0.04233 0.0423h-0.127l-0.08467 0.0423h-0.29633l-0.04233-0.0423h-0.16933l-0.04233-0.0423h-0.08467l-0.04233-0.0423h-0.08467l-0.08466-0.0846-0.08467-0.0423-0.16932-0.1692-0.08467-0.0423-0.04233-0.0423v-0.0423l-0.04233-0.0423-0.04233-0.0847-0.04233-0.0423-0.04233-0.0847v-0.0423l-0.04233-0.0423-0.04233-0.0847v-0.127l-0.04233-0.0847v-0.42333l0.04233-0.0423v-0.127l0.04233-0.0847 0.04233-0.0423v-0.0847l0.08466-0.0846 0.04233-0.0847 0.04233-0.0423v-0.0423l0.04233-0.0423 0.08467-0.0423 0.04233-0.0847 0.08466-0.0846h0.04233l0.08467-0.0423 0.08466-0.0846h0.08467l0.04233-0.0423h0.08467l0.04233-0.0423h0.08467l0.08467-0.0423h0.21167"/>
  </g>
  <path d="m41.649 104.44h0.21167l0.04233 0.0423h0.08467l0.04233 0.0423h0.08467l0.04233 0.0423h0.08467l0.08466 0.0846 0.08467 0.0423h0.04233l0.08466 0.0846 0.08467 0.0847 0.16932 0.1692v0.0847l0.08466 0.0846 0.04233 0.0847v0.0423l0.04233 0.0847v0.127l0.04233 0.0423v0.42333l-0.04233 0.0847v0.127l-0.04233 0.0847v0.0423l-0.04233 0.0423-0.04233 0.0847-0.04233 0.0423v0.0847l-0.16932 0.1692-0.08467 0.0423-0.12699 0.1269-0.08467 0.0423-0.08466 0.0846h-0.08467l-0.04233 0.0423h-0.08467l-0.04233 0.0423h-0.127l-0.08467 0.0423h-0.29633l-0.04233-0.0423h-0.16933l-0.04233-0.0423h-0.08467l-0.04233-0.0423h-0.08467l-0.08466-0.0846-0.08467-0.0423-0.16932-0.1692-0.08467-0.0423-0.04233-0.0423v-0.0423l-0.04233-0.0423-0.04233-0.0847-0.04233-0.0423-0.04233-0.0847v-0.0423l-0.04233-0.0423-0.04233-0.0847v-0.127l-0.04233-0.0847v-0.42333l0.04233-0.0423v-0.127l0.04233-0.0847 0.04233-0.0423v-0.0847l0.08466-0.0846 0.04233-0.0847 0.04233-0.0423v-0.0423l0.04233-0.0423 0.08467-0.0423 0.04233-0.0847 0.08466-0.0846h0.04233l0.08467-0.0423 0.08466-0.0846h0.08467l0.04233-0.0423h0.08467l0.04233-0.0423h0.08467l0.08467-0.0423z" fill="none" stroke="#1f1a17" stroke-linecap="round" stroke-linejoin="round" stroke-miterlimit="10" stroke-width=".07493"/>
  <path d="m37.246 104.44h0.21167l0.04233 0.0423h0.08467l0.04233 0.0423h0.08467l0.04233 0.0423h0.08467l0.04233 0.0423 0.08467 0.0423 0.04233 0.0423h0.04233l0.04233 0.0423 0.08467 0.0423 0.04233 0.0847 0.16932 0.1692v0.0847l0.08466 0.0846 0.04233 0.0847v0.0423l0.04233 0.0847v0.0423l0.04233 0.0847v0.55033l-0.04233 0.0847v0.0423l-0.04233 0.0847v0.0423l-0.04233 0.0423-0.04233 0.0847-0.04233 0.0423v0.0847l-0.21165 0.2115-0.08467 0.0423-0.12699 0.1269-0.08467 0.0423-0.04233 0.0423h-0.08467l-0.04233 0.0423h-0.08467l-0.04233 0.0423h-0.127l-0.08467 0.0423h-0.29633l-0.04233-0.0423h-0.127l-0.08467-0.0423h-0.08467l-0.04233-0.0423h-0.04233l-0.08467-0.0423-0.04233-0.0423-0.08467-0.0423-0.33864-0.3384-0.04233-0.0847-0.04233-0.0423-0.04233-0.0847v-0.0423l-0.04233-0.0423v-0.0847l-0.04233-0.0423v-0.0847l-0.04233-0.0847v-0.42333l0.04233-0.0423v-0.0847l0.04233-0.0423v-0.0847l0.04233-0.0423v-0.0847l0.08466-0.0846 0.04233-0.0847 0.16932-0.1692 0.04233-0.0847 0.08466-0.0846h0.04233l0.08467-0.0423 0.04233-0.0423 0.08467-0.0423h0.04233l0.04233-0.0423h0.08467l0.08467-0.0423h0.04233l0.08467-0.0423h0.21167" fill="#fff500" fill-rule="evenodd"/>
  <path d="m37.246 104.44h0.21167l0.04233 0.0423h0.08467l0.04233 0.0423h0.08467l0.04233 0.0423h0.08467l0.04233 0.0423 0.08467 0.0423 0.04233 0.0423h0.04233l0.04233 0.0423 0.08467 0.0423 0.04233 0.0847 0.16932 0.1692v0.0847l0.08466 0.0846 0.04233 0.0847v0.0423l0.04233 0.0847v0.0423l0.04233 0.0847v0.55033l-0.04233 0.0847v0.0423l-0.04233 0.0847v0.0423l-0.04233 0.0423-0.04233 0.0847-0.04233 0.0423v0.0847l-0.21165 0.2115-0.08467 0.0423-0.12699 0.1269-0.08467 0.0423-0.04233 0.0423h-0.08467l-0.04233 0.0423h-0.08467l-0.04233 0.0423h-0.127l-0.08467 0.0423h-0.29633l-0.04233-0.0423h-0.127l-0.08467-0.0423h-0.08467l-0.04233-0.0423h-0.04233l-0.08467-0.0423-0.04233-0.0423-0.08467-0.0423-0.33864-0.3384-0.04233-0.0847-0.04233-0.0423-0.04233-0.0847v-0.0423l-0.04233-0.0423v-0.0847l-0.04233-0.0423v-0.0847l-0.04233-0.0847v-0.42333l0.04233-0.0423v-0.0847l0.04233-0.0423v-0.0847l0.04233-0.0423v-0.0847l0.08466-0.0846 0.04233-0.0847 0.16932-0.1692 0.04233-0.0847 0.08466-0.0846h0.04233l0.08467-0.0423 0.04233-0.0423 0.08467-0.0423h0.04233l0.04233-0.0423h0.08467l0.08467-0.0423h0.04233l0.08467-0.0423z" fill="none" stroke="#1f1a17" stroke-linecap="round" stroke-linejoin="round" stroke-miterlimit="10" stroke-width=".07493"/>
  <path d="m67.811 99.868h0.381l0.762 0.08466 0.33867 0.08467 0.381 0.0423 1.016 0.381 0.29633 0.127 0.33867 0.16933 0.59267 0.33867 0.29633 0.21167 0.254 0.21166 0.29633 0.254 0.508 0.508 0.42333 0.508 0.21167 0.29634 0.16933 0.29633 0.21167 0.29633 0.127 0.33867 0.16933 0.29633 0.254 0.67734 0.08467 0.33866 0.08467 0.381 0.08467 0.33867 0.04233 0.381v0.381l0.04233 0.381-0.04233 0.33867v0.381l-0.04233 0.381-0.08467 0.33866-0.08467 0.381-0.08467 0.33867-0.127 0.33867-0.127 0.33866-0.16933 0.29634-0.127 0.33866-0.21167 0.29634-0.16933 0.29633-0.21167 0.29633-0.21167 0.254-0.21167 0.29634-0.254 0.254-0.254 0.21166-0.29633 0.254-0.254 0.21167-0.29633 0.21167-0.59267 0.33866-0.33867 0.16934-0.29633 0.16933-0.33867 0.127-0.33867 0.0847-0.33867 0.127-0.381 0.0847-0.33867 0.0423-0.762 0.0846h-0.762l-0.381-0.0423-0.33867-0.0423-0.381-0.0423-0.33867-0.0847-0.33867-0.127-0.33867-0.0847-0.33867-0.127-0.33867-0.16933-0.33867-0.16934-0.59267-0.33866-0.29633-0.21167-0.254-0.21167-0.254-0.254-0.254-0.21166-0.254-0.254-0.254-0.29634-0.21167-0.254-0.21167-0.29633-0.16933-0.29633-0.16933-0.29634-0.16933-0.33866-0.16933-0.29634-0.127-0.33866-0.127-0.33867-0.08467-0.33867-0.08467-0.381-0.04233-0.33866-0.08466-0.762v-0.71967l0.08466-0.762 0.04233-0.33867 0.08467-0.381 0.08467-0.33866 0.254-0.67734 0.16933-0.29633 0.16933-0.33867 0.16933-0.29633 0.16933-0.29633 0.21167-0.29634 0.21167-0.254 1.016-1.016 0.254-0.21166 0.29633-0.21167 0.59267-0.33867 0.33867-0.16933 1.3547-0.508 0.33867-0.0423 0.381-0.08467 0.33867-0.04233 0.381-0.04233h0.381" fill="#969594" fill-rule="evenodd" stroke="#1f1a17" stroke-linecap="round" stroke-linejoin="round" stroke-miterlimit="10" stroke-width=".07493"/>
  <path d="m70.097 105.88h0.21167l0.04233 0.0423h0.16933l0.04233 0.0423h0.08467l0.08466 0.0846 0.08467 0.0423h0.04233l0.04233 0.0423 0.08467 0.0423 0.08466 0.0846 0.04233 0.0847 0.16932 0.1692v0.0847l0.04233 0.0423 0.04233 0.0847v0.0423l0.04233 0.0847v0.0423l0.04233 0.0847v0.55033l-0.04233 0.0423v0.0847l-0.04233 0.0423v0.0847l-0.04233 0.0423-0.04233 0.0847v0.0423l-0.04233 0.0423-0.04233 0.0847-0.21165 0.2115-0.08467 0.0423-0.08466 0.0846-0.08467 0.0423h-0.04233l-0.04233 0.0423-0.08467 0.0423h-0.04233l-0.08467 0.0423h-0.21166l-0.04233 0.0423h-0.16933l-0.04233-0.0423h-0.21167l-0.08467-0.0423h-0.04233l-0.08467-0.0423-0.04233-0.0423h-0.08467l-0.08466-0.0846-0.08467-0.0423-0.25398-0.2538-0.04233-0.0847-0.08466-0.0846v-0.0847l-0.04233-0.0423-0.04233-0.0847v-0.0423l-0.04233-0.0847v-0.16933l-0.04233-0.0847v-0.127l0.04233-0.0847v-0.21167l0.04233-0.0423v-0.0847l0.04233-0.0423 0.04233-0.0847v-0.0423l0.04233-0.0847 0.16932-0.1692 0.04233-0.0847 0.12699-0.1269 0.08467-0.0423h0.04233l0.04233-0.0423 0.08467-0.0423 0.04233-0.0423h0.08467l0.04233-0.0423h0.127l0.08467-0.0423h0.21167" fill="#848382" fill-rule="evenodd"/>
  <path d="m70.097 105.88h0.21167l0.04233 0.0423h0.16933l0.04233 0.0423h0.08467l0.08466 0.0846 0.08467 0.0423h0.04233l0.04233 0.0423 0.08467 0.0423 0.08466 0.0846 0.04233 0.0847 0.16932 0.1692v0.0847l0.04233 0.0423 0.04233 0.0847v0.0423l0.04233 0.0847v0.0423l0.04233 0.0847v0.55033l-0.04233 0.0423v0.0847l-0.04233 0.0423v0.0847l-0.04233 0.0423-0.04233 0.0847v0.0423l-0.04233 0.0423-0.04233 0.0847-0.21165 0.2115-0.08467 0.0423-0.08466 0.0846-0.08467 0.0423h-0.04233l-0.04233 0.0423-0.08467 0.0423h-0.04233l-0.08467 0.0423h-0.21166l-0.04233 0.0423h-0.16933l-0.04233-0.0423h-0.21167l-0.08467-0.0423h-0.04233l-0.08467-0.0423-0.04233-0.0423h-0.08467l-0.08466-0.0846-0.08467-0.0423-0.25398-0.2538-0.04233-0.0847-0.08466-0.0846v-0.0847l-0.04233-0.0423-0.04233-0.0847v-0.0423l-0.04233-0.0847v-0.16933l-0.04233-0.0847v-0.127l0.04233-0.0847v-0.21167l0.04233-0.0423v-0.0847l0.04233-0.0423 0.04233-0.0847v-0.0423l0.04233-0.0847 0.16932-0.1692 0.04233-0.0847 0.12699-0.1269 0.08467-0.0423h0.04233l0.04233-0.0423 0.08467-0.0423 0.04233-0.0423h0.08467l0.04233-0.0423h0.127l0.08467-0.0423z" fill="none" stroke="#1f1a17" stroke-linecap="round" stroke-linejoin="round" stroke-miterlimit="10" stroke-width=".07493"/>
  <path d="m65.821 105.75h0.21167l0.04233 0.0423h0.16933l0.04233 0.0423h0.08467l0.08466 0.0846 0.08467 0.0423h0.04233l0.04233 0.0423 0.08467 0.0423 0.12699 0.1269 0.04233 0.0847 0.12699 0.1269 0.04233 0.0847v0.0423l0.04233 0.0847v0.0423l0.04233 0.0847v0.0423l0.04233 0.0847v0.55033l-0.04233 0.0423v0.0847l-0.04233 0.0423v0.0847l-0.04233 0.0423v0.0847l-0.08466 0.0846-0.04233 0.0847-0.21165 0.2115-0.08467 0.0423-0.08466 0.0846-0.08467 0.0423h-0.04233l-0.04233 0.0423-0.08467 0.0423h-0.04233l-0.08467 0.0423h-0.21167l-0.04233 0.0423h-0.16933l-0.04233-0.0423h-0.21167l-0.08467-0.0423h-0.04233l-0.08467-0.0423-0.04233-0.0423h-0.08467l-0.08466-0.0846-0.08467-0.0423-0.25398-0.2538-0.04233-0.0847-0.08466-0.0846v-0.0847l-0.04233-0.0423-0.04233-0.0847v-0.0423l-0.04233-0.0847v-0.16933l-0.04233-0.0847v-0.127l0.04233-0.0847v-0.21167l0.04233-0.0423v-0.0847l0.04233-0.0423 0.04233-0.0847v-0.0423l0.04233-0.0847 0.12699-0.1269 0.04233-0.0847 0.16932-0.1692 0.08467-0.0423h0.04233l0.04233-0.0423 0.08467-0.0423 0.04233-0.0423h0.08467l0.04233-0.0423h0.127l0.08467-0.0423h0.21167" fill="#fff500" fill-rule="evenodd"/>
  <path d="m65.821 105.75h0.21167l0.04233 0.0423h0.16933l0.04233 0.0423h0.08467l0.08466 0.0846 0.08467 0.0423h0.04233l0.04233 0.0423 0.08467 0.0423 0.12699 0.1269 0.04233 0.0847 0.12699 0.1269 0.04233 0.0847v0.0423l0.04233 0.0847v0.0423l0.04233 0.0847v0.0423l0.04233 0.0847v0.55033l-0.04233 0.0423v0.0847l-0.04233 0.0423v0.0847l-0.04233 0.0423v0.0847l-0.08466 0.0846-0.04233 0.0847-0.21165 0.2115-0.08467 0.0423-0.08466 0.0846-0.08467 0.0423h-0.04233l-0.04233 0.0423-0.08467 0.0423h-0.04233l-0.08467 0.0423h-0.21167l-0.04233 0.0423h-0.16933l-0.04233-0.0423h-0.21167l-0.08467-0.0423h-0.04233l-0.08467-0.0423-0.04233-0.0423h-0.08467l-0.08466-0.0846-0.08467-0.0423-0.25398-0.2538-0.04233-0.0847-0.08466-0.0846v-0.0847l-0.04233-0.0423-0.04233-0.0847v-0.0423l-0.04233-0.0847v-0.16933l-0.04233-0.0847v-0.127l0.04233-0.0847v-0.21167l0.04233-0.0423v-0.0847l0.04233-0.0423 0.04233-0.0847v-0.0423l0.04233-0.0847 0.12699-0.1269 0.04233-0.0847 0.16932-0.1692 0.08467-0.0423h0.04233l0.04233-0.0423 0.08467-0.0423 0.04233-0.0423h0.08467l0.04233-0.0423h0.127l0.08467-0.0423z" fill="none" stroke="#1f1a17" stroke-linecap="round" stroke-linejoin="round" stroke-miterlimit="10" stroke-width=".07493"/>
  <path d="m66.922 128.1h1.7357v-13.631h-1.7357z" fill="#848382" fill-rule="evenodd" stroke="#1f1a17" stroke-linecap="round" stroke-linejoin="round" stroke-miterlimit="10" stroke-width=".099907"/>
  <path d="m37.246 98.979h0.29633l0.04233 0.04233h0.08467l0.04233 0.04233h0.08467l0.04233 0.04233 0.08467 0.04233h0.04233l0.04233 0.04233 0.08467 0.04233 0.16932 0.16932 0.04233 0.08467 0.12699 0.12699 0.04233 0.08467 0.04233 0.04233v0.08467l0.04233 0.04233v0.08467l0.04233 0.04233v0.127l0.04233 0.0847v0.254l-0.04233 0.0847v0.127l-0.04233 0.0847v0.0423l-0.04233 0.0847v0.0423l-0.04233 0.0847-0.12699 0.1269-0.04233 0.0847-0.21165 0.2115-0.08467 0.0423-0.08466 0.0846h-0.08467l-0.04233 0.0423-0.08467 0.0423h-0.04233l-0.08467 0.0423h-0.254l-0.08467 0.0423-0.04233-0.0423h-0.29633l-0.04233-0.0423h-0.08467l-0.04233-0.0423-0.08467-0.0423h-0.04233l-0.08467-0.0423-0.12699-0.1269-0.08467-0.0423-0.12699-0.1269-0.04233-0.0847-0.08466-0.0846v-0.0423l-0.04233-0.0847-0.04233-0.0423v-0.0847l-0.04233-0.0423v-0.0847l-0.04233-0.0423v-0.55033l0.04233-0.08467v-0.04233l0.04233-0.08467v-0.04233l0.04233-0.08467 0.04233-0.04233v-0.08467l0.12699-0.12699 0.04233-0.08467 0.08466-0.08466 0.08467-0.04233 0.12699-0.12699h0.08467l0.04233-0.04233 0.08467-0.04233h0.04233l0.08467-0.04233h0.04233l0.08467-0.04233h0.254" fill="#848382" fill-rule="evenodd"/>
  <path d="m37.246 98.979h0.29633l0.04233 0.04233h0.08467l0.04233 0.04233h0.08467l0.04233 0.04233 0.08467 0.04233h0.04233l0.04233 0.04233 0.08467 0.04233 0.16932 0.16932 0.04233 0.08467 0.12699 0.12699 0.04233 0.08467 0.04233 0.04233v0.08467l0.04233 0.04233v0.08467l0.04233 0.04233v0.127l0.04233 0.0847v0.254l-0.04233 0.0847v0.127l-0.04233 0.0847v0.0423l-0.04233 0.0847v0.0423l-0.04233 0.0847-0.12699 0.1269-0.04233 0.0847-0.21165 0.2115-0.08467 0.0423-0.08466 0.0846h-0.08467l-0.04233 0.0423-0.08467 0.0423h-0.04233l-0.08467 0.0423h-0.254l-0.08467 0.0423-0.04233-0.0423h-0.29633l-0.04233-0.0423h-0.08467l-0.04233-0.0423-0.08467-0.0423h-0.04233l-0.08467-0.0423-0.12699-0.1269-0.08467-0.0423-0.12699-0.1269-0.04233-0.0847-0.08466-0.0846v-0.0423l-0.04233-0.0847-0.04233-0.0423v-0.0847l-0.04233-0.0423v-0.0847l-0.04233-0.0423v-0.55033l0.04233-0.08467v-0.04233l0.04233-0.08467v-0.04233l0.04233-0.08467 0.04233-0.04233v-0.08467l0.12699-0.12699 0.04233-0.08467 0.08466-0.08466 0.08467-0.04233 0.12699-0.12699h0.08467l0.04233-0.04233 0.08467-0.04233h0.04233l0.08467-0.04233h0.04233l0.08467-0.04233z" fill="none" stroke="#1f1a17" stroke-linecap="round" stroke-linejoin="round" stroke-miterlimit="10" stroke-width=".07493"/>
 </g>
</svg>
