<?xml version="1.0" encoding="UTF-8"?>
<!-- Created with Inkscape (http://www.inkscape.org/) -->
<svg width="20.784mm" height="34.856mm" version="1.1" viewBox="0 0 20.784 34.856" xmlns="http://www.w3.org/2000/svg">
 <g transform="translate(-42.069 -156.1)">
  <path d="m51.614 190.92h2.0955v-20.786h-2.0955z" fill="#7e7e7e"/>
  <path d="m51.614 170.14h2.0955v20.786h-2.0955z" fill="none" stroke="#1e1917" stroke-linecap="round" stroke-linejoin="round" stroke-miterlimit="10" stroke-width=".075494"/>
  <path d="m42.131 170.58h20.659l-0.0635-2.8787v-0.6985l-0.04233-0.67733-0.0635-0.65617-0.08467-0.61383-0.127-0.61383-0.127-0.59267-0.16933-0.5715-0.1905-0.55033-0.1905-0.52917-0.23283-0.48683-0.254-0.48684-0.254-0.46566-0.29633-0.4445-0.29633-0.42334-0.33867-0.40216-0.67733-0.71967-0.381-0.33867-0.381-0.29633-0.40217-0.29633-0.84667-0.508-0.4445-0.21167-0.46567-0.21167-0.46567-0.16933-0.48683-0.14817-0.48683-0.127-0.48683-0.10583-0.508-0.0847-0.508-0.0635-1.0583-0.0423-1.0583 0.0423-0.508 0.0635-0.508 0.0847-0.508 0.127-0.48683 0.127-0.46567 0.14817-0.48683 0.1905-0.4445 0.1905-0.889 0.46566-0.40217 0.27517-0.40217 0.29633-0.40217 0.3175-0.381 0.33867-0.35983 0.35983-0.33867 0.35984-0.3175 0.40216-0.3175 0.42334-0.27517 0.4445-0.27517 0.46566-0.254 0.48684-0.23283 0.508-0.1905 0.508-0.1905 0.55033-0.16933 0.5715-0.127 0.5715-0.127 0.61383-0.08467 0.61384-0.0635 0.635-0.04233 0.67733-0.02117 0.67733v2.8787" fill="#fff" fill-rule="evenodd" stroke="#1e1917" stroke-linecap="round" stroke-linejoin="round" stroke-miterlimit="10" stroke-width=".12524"/>
 </g>
</svg>
