<?xml version="1.0" encoding="UTF-8"?>
<!-- Created with Inkscape (http://www.inkscape.org/) -->
<svg width="38.121mm" height="40.889mm" version="1.1" viewBox="0 0 38.121 40.889" xmlns="http://www.w3.org/2000/svg">
 <defs>
  <clipPath id="clipPath276">
   <path transform="translate(-365.16 -368.6)" d="m354.3 368.54h10.86v12h-10.86z"/>
  </clipPath>
  <clipPath id="clipPath279">
   <path transform="translate(-305.76 -316.64)" d="m305.76 316.64h11.94v10.92h-11.94z"/>
  </clipPath>
 </defs>
 <g transform="translate(-27.517 -119.33)">
  <g fill="#1e1917">
   <path d="m46.63 123.81h-0.42333l-0.4445 0.0212-0.4445 0.0423-0.42333 0.0212-0.4445 0.0635-0.84667 0.127-0.42333 0.0847-0.40217 0.0847-0.42333 0.10583-0.40217 0.10584-0.80433 0.254-0.40217 0.14816-0.381 0.14817-0.40217 0.14817-0.381 0.16933-0.35983 0.1905-0.381 0.16933-0.35983 0.21167-0.35983 0.1905-0.35983 0.21167-0.35983 0.23283-0.33867 0.21167-0.33867 0.254-0.33867 0.23283-0.635 0.508-0.635 0.55033-0.29633 0.27517-0.29633 0.29633-0.508-0.508 0.9525-0.889 0.3175-0.27516 0.33867-0.254 0.33867-0.27517 0.33867-0.254 0.35983-0.254 0.71967-0.46567 1.143-0.635 0.381-0.1905 0.40217-0.1905 0.381-0.16933 0.40217-0.16933 0.42333-0.14817 0.40217-0.14817 1.27-0.381 0.42333-0.10583 0.4445-0.0847 0.42333-0.0847 0.4445-0.0847 0.4445-0.0635 0.4445-0.0423 0.46567-0.0423 0.4445-0.0423h0.46567l0.4445-0.0212zm-12.107 5.0588-0.27517 0.29634-0.29633 0.29633-0.27517 0.3175-0.508 0.635-0.254 0.33867-0.254 0.3175-0.23283 0.35983-0.21167 0.33867-0.23283 0.35983-0.21167 0.35983-0.381 0.71967-0.1905 0.381-0.508 1.143-0.14817 0.40217-0.127 0.40216-0.14817 0.40217-0.10583 0.40217-0.127 0.42333-0.08467 0.40217-0.10583 0.42333-0.0635 0.42333-0.08467 0.42334-0.04233 0.42333-0.0635 0.4445-0.04233 0.42333-0.04233 0.889v0.4445h-0.71967l0.02117-0.46566 0.02117-0.4445 0.02117-0.46567 0.04233-0.46567 0.04233-0.4445 0.0635-0.4445 0.16933-0.889 0.08467-0.42333 0.10583-0.4445 0.10583-0.42333 0.127-0.42334 0.29633-0.84666 0.14817-0.40217 0.33867-0.80433 0.1905-0.40217 0.381-0.762 0.42333-0.762 0.46567-0.71967 0.508-0.71966 0.254-0.33867 0.27517-0.33867 0.27517-0.3175 0.27517-0.33866 0.29633-0.29634 0.29633-0.3175zm-5.0165 12.192v0.4445l0.04233 0.889 0.04233 0.4445 0.0635 0.42334 0.04233 0.42333 0.08467 0.42333 0.0635 0.42334 0.10583 0.42333 0.08467 0.42333 0.127 0.40217 0.10583 0.42333 0.14817 0.40217 0.127 0.381 0.14817 0.40217 0.16933 0.381 0.16933 0.40216 0.16933 0.381 0.1905 0.35984 0.1905 0.381 0.1905 0.35983 0.21167 0.35983 0.23283 0.35984 0.21167 0.33866 0.23283 0.33867 0.254 0.33867 0.254 0.3175 0.254 0.33866 0.254 0.3175 0.27517 0.29634 0.29633 0.29633 0.27517 0.29633-0.508 0.508-0.29633-0.29633-0.29633-0.3175-0.27517-0.3175-0.55033-0.67733-0.508-0.67734-0.254-0.35983-0.23283-0.35983-0.23283-0.381-0.21167-0.35984-0.21167-0.381-0.1905-0.381-0.381-0.80433-0.16933-0.381-0.16933-0.42333-0.14817-0.40217-0.14817-0.42333-0.14817-0.40217-0.127-0.42333-0.10583-0.4445-0.10583-0.42334-0.254-1.3335-0.0635-0.4445-0.04233-0.4445-0.04233-0.46566-0.02117-0.4445-0.04234-0.93134zm5.0165 12.192 0.59267 0.59267 0.3175 0.254 0.3175 0.27517 0.635 0.508 0.33867 0.254 0.67733 0.46566 1.0795 0.635 0.35983 0.1905 0.381 0.1905 0.35983 0.16934 0.381 0.16933 0.40217 0.16933 0.381 0.14817 0.40217 0.127 0.40217 0.14816 0.40217 0.10584 0.40217 0.127 0.42333 0.0847 0.40217 0.10584 0.42333 0.0847 0.84667 0.127 0.4445 0.0423 0.42333 0.0423 0.889 0.0423h0.42333v0.71967h-0.4445l-0.46567-0.0212-0.4445-0.0212-0.46567-0.0423-1.3335-0.1905-0.42333-0.0847-0.4445-0.10584-0.84667-0.21166-0.42333-0.127-0.42333-0.14817-0.40217-0.127-0.42333-0.16933-0.40217-0.16934-0.381-0.16933-0.40217-0.1905-0.762-0.381-0.381-0.21166-0.381-0.23284-0.71967-0.46566-0.35983-0.254-0.67733-0.508-0.33867-0.27517-0.635-0.55033-0.3175-0.29634-0.3175-0.3175zm12.107 5.0588h0.4445l0.889-0.0423 0.42333-0.0423 0.4445-0.0423 0.84667-0.127 0.42333-0.0847 0.40217-0.10584 0.42333-0.0847 0.40217-0.127 0.40217-0.10584 0.40217-0.14816 0.40217-0.127 0.381-0.14817 0.40217-0.16933 0.762-0.33867 0.71967-0.381 1.0795-0.635 0.67733-0.46566 0.33867-0.254 0.635-0.508 0.3175-0.27517 0.3175-0.254 0.59267-0.59267 0.508 0.508-0.3175 0.3175-0.3175 0.29634-0.635 0.55033-0.33867 0.27517-0.67733 0.508-0.35983 0.254-0.71967 0.46566-0.381 0.23284-0.381 0.21166-0.762 0.381-0.40217 0.1905-0.381 0.16933-0.40217 0.16934-0.42333 0.16933-0.40217 0.127-0.42333 0.14817-0.42333 0.127-0.84667 0.21166-0.4445 0.10584-0.42333 0.0847-1.3335 0.1905-0.46567 0.0423-0.4445 0.0212-0.46567 0.0212h-0.46567zm12.128-5.0588 0.27517-0.29633 0.29633-0.29633 0.27517-0.29634 0.254-0.3175 0.254-0.33866 0.254-0.3175 0.254-0.33867 0.46567-0.67733 0.42333-0.71967 0.1905-0.35983 0.1905-0.381 0.1905-0.35984 0.1905-0.381 0.14817-0.40216 0.16933-0.381 0.14817-0.40217 0.14817-0.381 0.127-0.40217 0.10583-0.42333 0.127-0.40217 0.08467-0.42333 0.10583-0.42333 0.0635-0.42334 0.08467-0.42333 0.0635-0.42333 0.04233-0.42334 0.04233-0.4445 0.04233-0.889v-0.4445h0.71967l-0.02117 0.46567v0.46567l-0.04233 0.4445-0.04233 0.46566-0.04233 0.4445-0.0635 0.4445-0.25401 1.3335-0.10583 0.42334-0.10583 0.4445-0.127 0.42333-0.14817 0.40217-0.14817 0.42333-0.14817 0.40217-0.16933 0.42333-0.16933 0.381-0.381 0.80433-0.1905 0.381-0.21167 0.381-0.23283 0.35984-0.21167 0.381-0.23283 0.35983-0.254 0.35983-0.508 0.67734-0.55033 0.67733-0.27517 0.3175-0.29633 0.3175-0.29633 0.29633zm5.0165-12.192v-0.4445l-0.04233-0.889-0.04233-0.42333-0.04233-0.4445-0.0635-0.42333-0.08467-0.42334-0.0635-0.42333-0.10583-0.42333-0.08467-0.40217-0.127-0.42333-0.10583-0.40217-0.127-0.40217-0.29633-0.80433-0.16933-0.381-0.14817-0.381-0.381-0.762-0.381-0.71967-0.42333-0.71966-0.23283-0.33867-0.23283-0.35983-0.254-0.3175-0.254-0.33867-0.508-0.635-0.27517-0.3175-0.29633-0.29633-0.27517-0.29634 0.508-0.508 0.29633 0.3175 0.29633 0.29634 0.27517 0.33866 0.27517 0.3175 0.27517 0.33867 0.254 0.33867 0.508 0.71966 0.23283 0.35984 0.21167 0.35983 0.23283 0.381 0.21167 0.381 0.381 0.762 0.1905 0.40217 0.33867 0.80433 0.14817 0.40217 0.29633 0.84666 0.127 0.42334 0.10583 0.42333 0.10583 0.4445 0.08467 0.42333 0.16934 0.889 0.0635 0.4445 0.04233 0.4445 0.08467 0.93134v0.4445l0.02117 0.46566zm-5.0165-12.192-0.29633-0.29633-0.29633-0.27517-0.635-0.55033-0.635-0.508-0.33867-0.23283-0.33867-0.254-0.33867-0.21167-0.35983-0.23283-0.35983-0.21167-0.35983-0.1905-0.35983-0.21167-0.35983-0.16933-0.381-0.1905-0.381-0.16933-0.40217-0.14817-0.381-0.14817-0.40217-0.14816-0.80433-0.254-0.40217-0.10584-0.42333-0.10583-0.40217-0.0847-0.42333-0.0847-0.84667-0.127-0.4445-0.0635-0.42333-0.0212-0.4445-0.0423-0.4445-0.0212h-0.4445v-0.71967l0.46567 0.0212h0.46567l0.4445 0.0423 0.46567 0.0423 0.4445 0.0423 0.4445 0.0635 0.4445 0.0847 0.42333 0.0847 0.4445 0.0847 0.42333 0.10583 1.27 0.381 0.40217 0.14817 0.42333 0.14817 0.40217 0.16933 0.381 0.16933 0.40217 0.1905 0.381 0.1905 1.143 0.635 0.71967 0.46567 0.35983 0.254 0.33867 0.254 0.33867 0.27517 0.33867 0.254 0.3175 0.27516 0.9525 0.889-0.508 0.508"/>
   <g fill-rule="evenodd">
    <path transform="matrix(.35278 0 0 -.35278 65.638 141.89)" d="M 0,0 -4.92,11.94 -10.86,0.12 0,0" clip-path="url(#clipPath276)"/>
    <path d="m27.517 139.43 1.7568 4.2122 2.0743-4.191-3.8312-0.0212"/>
    <path transform="matrix(.35278 0 0 -.35278 44.683 160.22)" d="M 0,0 11.88,4.98 0.12,10.92 0,0" clip-path="url(#clipPath279)"/>
    <path d="m49.488 121.63-4.191 1.7568 4.1487 2.0955 0.04233-3.8523"/>
   </g>
  </g>
  <path d="m54.779 126.6h5.5457v-7.239h-5.5457z" fill="#7e7e7e"/>
  <path d="m54.779 119.36h5.5457v7.239h-5.5457z" fill="none" stroke="#1e1917" stroke-linecap="round" stroke-linejoin="round" stroke-miterlimit="10" stroke-width=".074436"/>
  <path d="m57.531 120.49h0.08467l0.08467 0.0212h0.08467l0.0635 0.0212 0.16933 0.0423 0.127 0.0423 0.08467 0.0423 0.0635 0.0212 0.254 0.16933 0.16933 0.16934 0.254 0.381 0.02117 0.0635 0.04233 0.0847 0.02117 0.0635 0.02117 0.0847 0.02117 0.0635v0.0847l0.02117 0.0847v0.3175l-0.02117 0.0847v0.0847l-0.02117 0.0847-0.02117 0.0635-0.02117 0.0847-0.04233 0.0635-0.02117 0.0635-0.04233 0.0847-0.16933 0.254-0.21167 0.21166-0.3175 0.21167-0.08467 0.0212-0.0635 0.0423-0.0635 0.0212-0.16933 0.0423h-0.0635l-0.08467 0.0212h-0.3175l-0.08467-0.0212h-0.08467l-0.0635-0.0212-0.16933-0.0423-0.0635-0.0423-0.0635-0.0212-0.08467-0.0423-0.1905-0.127-0.10583-0.10584-0.0635-0.0423-0.04233-0.0635-0.0635-0.0423-0.16934-0.254-0.02117-0.0847-0.04233-0.0635-0.02117-0.0635-0.02117-0.0847-0.02117-0.0635-0.04233-0.16933v-0.0847l-0.02117-0.0635v-0.16933l0.02117-0.0847v-0.0847l0.02117-0.0847 0.02117-0.0635 0.02117-0.0847 0.02117-0.0635 0.02117-0.0847 0.04233-0.0635 0.02117-0.0635 0.16933-0.254 0.0635-0.0635 0.04233-0.0635 0.0635-0.0423 0.10583-0.10583 0.1905-0.127 0.08467-0.0212 0.0635-0.0423 0.0635-0.0212 0.16933-0.0423 0.0635-0.0212 0.08467-0.0212h0.08467l0.0635-0.0212h0.08467" fill="#fff" fill-rule="evenodd" stroke="#1e1917" stroke-linecap="round" stroke-linejoin="round" stroke-miterlimit="10" stroke-width=".074436"/>
 </g>
</svg>
