<?xml version="1.0" encoding="UTF-8"?>
<!-- Created with Inkscape (http://www.inkscape.org/) -->
<svg width="38.121mm" height="38.439mm" version="1.1" viewBox="0 0 38.121 38.439" xmlns="http://www.w3.org/2000/svg">
 <defs>
  <clipPath id="clipPath267">
   <path transform="translate(-365.16 -521.66)" d="m354.3 521.6h10.86v11.94h-10.86z"/>
  </clipPath>
  <clipPath id="clipPath270">
   <path transform="translate(-305.76 -469.88)" d="m305.76 469.88h11.94v10.86h-11.94z"/>
  </clipPath>
 </defs>
 <g transform="translate(-44.714 -159.54)" fill="#1e1917">
  <path d="m63.849 161.72h-0.4445l-0.889 0.0423-0.42333 0.0423-0.4445 0.0423-0.84667 0.127-0.42333 0.0847-0.40217 0.10583-0.42333 0.0847-0.40217 0.127-0.40217 0.10583-0.40217 0.127-0.40217 0.14817-0.381 0.14816-0.40217 0.16934-0.381 0.14816-0.35983 0.1905-0.381 0.1905-0.71967 0.381-0.35983 0.21167-0.35983 0.23283-0.33867 0.21167-0.33867 0.254-0.33867 0.23283-0.635 0.508-0.635 0.55034-0.29633 0.27516-0.29633 0.29634-0.508-0.508 0.9525-0.889 0.3175-0.27517 0.33867-0.27517 0.67733-0.508 0.35983-0.23283 0.35983-0.254 0.35983-0.21167 0.381-0.23283 0.381-0.21167 0.381-0.1905 0.381-0.21166 0.40217-0.16934 0.381-0.16933 0.40217-0.16933 0.42333-0.16934 0.40217-0.127 0.42333-0.14816 0.42333-0.127 0.84667-0.21167 0.4445-0.10583 0.42333-0.0847 1.3335-0.1905 0.46567-0.0212 0.4445-0.0423 0.46567-0.0212h0.46567zm-12.128 5.0377-0.27517 0.27516-0.29633 0.3175-0.27517 0.29634-0.508 0.635-0.508 0.67733-0.23283 0.33867-0.21167 0.33866-0.23283 0.35984-0.21167 0.35983-0.381 0.71967-0.381 0.762-0.14817 0.381-0.16933 0.381-0.14817 0.40216-0.127 0.381-0.14817 0.40217-0.10583 0.40217-0.10583 0.42333-0.10583 0.40217-0.10583 0.42333-0.0635 0.42333-0.08467 0.42334-0.04233 0.42333-0.0635 0.4445-0.04233 0.42333-0.04233 0.889v0.4445h-0.71967l0.02117-0.46566v-0.46567l0.04233-0.4445 0.04233-0.46567 0.04233-0.4445 0.0635-0.4445 0.16933-0.889 0.08467-0.42333 0.10583-0.4445 0.10583-0.42333 0.127-0.42334 0.14817-0.42333 0.29633-0.80433 0.33867-0.80434 0.1905-0.40216 0.381-0.762 0.42333-0.762 0.46567-0.71967 0.254-0.35983 0.508-0.67734 0.55033-0.67733 0.27517-0.3175 0.29633-0.3175 0.29633-0.29633zm-5.0165 12.15v0.4445l0.02117 0.42334 0.02117 0.4445 0.04233 0.4445 0.0635 0.42333 0.04233 0.42333 0.08467 0.42334 0.0635 0.42333 0.21167 0.84667 0.21167 0.80433 0.14817 0.40217 0.127 0.40216 0.14817 0.381 0.16933 0.40217 0.14817 0.381 0.1905 0.381 0.1905 0.35983 0.1905 0.381 0.1905 0.35984 0.21167 0.35983 0.23283 0.33867 0.21167 0.35983 0.23283 0.33867 0.254 0.3175 0.254 0.33866 0.508 0.635 0.27517 0.3175 0.29633 0.29634 0.27517 0.29633-0.508 0.508-0.59267-0.635-0.27517-0.3175-0.27517-0.33867-0.27517-0.3175-0.254-0.33866-0.508-0.71967-0.46567-0.71967-0.21167-0.35983-0.21167-0.381-0.1905-0.381-0.1905-0.40217-0.1905-0.381-0.33867-0.80433-0.14817-0.42333-0.14817-0.40217-0.14817-0.42333-0.127-0.42334-0.21167-0.84666-0.254-1.3335-0.0635-0.4445-0.08467-0.889-0.04233-0.46567v-0.4445l-0.02117-0.46567zm5.0165 12.15 0.29633 0.27517 0.29633 0.29633 0.3175 0.27517 0.9525 0.762 0.33867 0.254 0.67733 0.46566 1.0795 0.635 0.35983 0.1905 0.381 0.16934 0.35983 0.1905 0.381 0.16933 0.40217 0.14816 0.381 0.14817 0.40217 0.14817 0.80433 0.254 0.40217 0.10583 0.42333 0.10583 0.40217 0.0847 0.42333 0.0847 0.84667 0.127 0.4445 0.0423 0.42333 0.0423 0.4445 0.0423h0.4445l0.4445 0.0212v0.6985h-0.46567l-0.46567-0.0212-0.4445-0.0212-0.46567-0.0423-0.4445-0.0635-0.4445-0.0423-0.4445-0.0847-0.42333-0.0847-0.4445-0.0847-0.42333-0.10583-1.27-0.381-0.40217-0.14817-0.42333-0.14816-0.40217-0.16934-0.381-0.16933-0.40217-0.1905-0.381-0.1905-1.143-0.635-0.71967-0.46566-0.35983-0.254-0.67733-0.508-0.33867-0.27517-0.635-0.55033-0.635-0.59267zm12.128 5.0377 0.42333-0.0212h0.4445l0.4445-0.0423 0.42333-0.0423 0.4445-0.0423 0.84667-0.127 0.42333-0.0847 0.40217-0.0847 0.42333-0.10583 0.40217-0.10583 0.80433-0.254 0.40217-0.14817 0.381-0.14817 0.40217-0.14816 0.381-0.16933 0.35983-0.1905 0.381-0.16934 0.35983-0.1905 1.0795-0.635 0.67733-0.46566 0.33867-0.254 0.9525-0.762 0.3175-0.27517 0.29633-0.29633 0.29633-0.27517 0.508 0.508-0.635 0.59267-0.635 0.55033-0.33867 0.27517-0.33867 0.254-0.35983 0.254-0.33867 0.254-0.71967 0.46566-1.143 0.635-0.381 0.1905-0.40217 0.1905-0.381 0.16933-0.40217 0.16934-0.42333 0.14816-0.40217 0.14817-1.27 0.381-0.42333 0.10583-0.4445 0.0847-0.42333 0.0847-0.4445 0.0847-0.4445 0.0423-0.4445 0.0635-0.46567 0.0423-0.4445 0.0212-0.46567 0.0212h-0.4445zm12.107-5.0377 0.27517-0.29633 0.29633-0.29634 0.27517-0.3175 0.508-0.635 0.254-0.33866 0.254-0.3175 0.23283-0.33867 0.21167-0.35983 0.23283-0.33867 0.21167-0.35983 0.1905-0.35984 0.1905-0.381 0.1905-0.35983 0.33867-0.762 0.16933-0.40217 0.14817-0.381 0.127-0.40216 0.14817-0.40217 0.10583-0.40217 0.127-0.40216 0.08467-0.42334 0.10583-0.42333 0.0635-0.42333 0.08467-0.42334 0.0635-0.42333 0.04233-0.42333 0.04233-0.4445 0.02117-0.4445 0.02117-0.42334v-0.4445h0.71967l-0.02117 0.46567-0.02117 0.4445-0.02117 0.46567-0.08466 0.889-0.0635 0.4445-0.08467 0.4445-0.0635 0.4445-0.10583 0.4445-0.21167 0.84666-0.127 0.42334-0.14817 0.42333-0.14817 0.40217-0.14817 0.42333-0.33867 0.80433-0.1905 0.381-0.1905 0.40217-0.1905 0.381-0.21167 0.381-0.23283 0.35983-0.21167 0.35984-0.23283 0.35983-0.508 0.71967-0.254 0.33866-0.27517 0.3175-0.27517 0.33867-0.27517 0.3175-0.59267 0.635zm5.0165-12.15v-0.4445l-0.04233-0.889-0.04233-0.42333-0.04233-0.4445-0.0635-0.42333-0.08467-0.42334-0.0635-0.42333-0.10583-0.42333-0.08467-0.40217-0.127-0.42333-0.10583-0.40217-0.14817-0.40217-0.127-0.381-0.14817-0.40216-0.508-1.143-0.1905-0.381-0.381-0.71967-0.21167-0.35983-0.23283-0.35984-0.21167-0.33866-0.23283-0.33867-0.508-0.67733-0.508-0.635-0.27517-0.29634-0.29633-0.3175-0.27517-0.27516 0.508-0.508 0.29633 0.29633 0.29633 0.3175 0.27517 0.3175 0.55033 0.67733 0.508 0.67734 0.254 0.35983 0.23283 0.35983 0.21167 0.35984 0.23283 0.381 0.21167 0.381 0.381 0.762 0.1905 0.40216 0.33867 0.80434 0.29633 0.80433 0.14817 0.42333 0.127 0.42334 0.10583 0.42333 0.10583 0.4445 0.10583 0.42333 0.0635 0.4445 0.08467 0.4445 0.0635 0.4445 0.04233 0.4445 0.04233 0.46567 0.02117 0.4445 0.04233 0.93133zm-5.0165-12.15-0.29633-0.29634-0.29633-0.27516-0.635-0.55034-0.635-0.508-0.33867-0.23283-0.33867-0.254-0.33867-0.21167-0.35983-0.23283-0.35983-0.21167-0.71967-0.381-0.381-0.1905-0.35983-0.1905-0.381-0.14816-0.40217-0.16934-0.381-0.14816-0.40217-0.14817-0.40217-0.127-0.40217-0.10583-0.40217-0.127-0.42333-0.0847-0.40217-0.10583-0.42333-0.0847-0.84667-0.127-0.4445-0.0423-0.42333-0.0423-0.889-0.0423h-0.42333v-0.71967h0.4445l0.46567 0.0212 0.4445 0.0423 0.46567 0.0212 1.3335 0.1905 0.42333 0.0847 0.4445 0.10583 0.84667 0.21167 0.42333 0.127 0.42333 0.14816 0.40217 0.127 0.42333 0.16934 0.40217 0.16933 0.381 0.16933 0.40217 0.16934 0.381 0.21166 0.381 0.1905 0.381 0.21167 0.381 0.23283 0.35983 0.21167 0.35983 0.254 0.33867 0.23283 0.35983 0.254 0.33867 0.254 0.33867 0.27517 0.3175 0.27517 0.9525 0.889-0.508 0.508"/>
  <g fill-rule="evenodd">
   <path transform="matrix(.35278 0 0 -.35278 82.836 179.72)" d="M 0,0 -4.92,11.88 -10.86,0.06 0,0" clip-path="url(#clipPath267)"/>
   <path d="m44.714 177.26 1.7568 4.2122 2.0743-4.1698-3.8312-0.0423"/>
   <path transform="matrix(.35278 0 0 -.35278 61.881 197.98)" d="M 0,0 11.88,4.98 0.12,10.86 0,0" clip-path="url(#clipPath270)"/>
   <path d="m66.685 159.54-4.191 1.7568 4.1487 2.0955 0.04233-3.8523"/>
  </g>
 </g>
</svg>
