<?xml version="1.0" encoding="UTF-8"?>
<!-- Created with Inkscape (http://www.inkscape.org/) -->
<svg width="9.2361mm" height="14.111mm" version="1.1" viewBox="0 0 9.2361 14.111" xmlns="http://www.w3.org/2000/svg">
 <defs>
  <clipPath id="clipPath672">
   <path transform="translate(-228 -581.42)" d="m227.88 581.3h26.22v40.02h-26.22z"/>
  </clipPath>
 </defs>
 <g transform="translate(-45.773 -142.08)">
  <path transform="matrix(.35278 0 0 -.35278 45.808 156.16)" d="m0 0h25.98v32.16l-0.6 0.96-0.66 0.84-1.44 1.56-0.78 0.66-1.56 1.2-0.84 0.48-0.9 0.48-0.84 0.36-0.9 0.36-1.8 0.48-0.9 0.12-0.96 0.12h-1.8l-0.9-0.12-0.96-0.12-1.8-0.48-0.84-0.3-0.9-0.42-0.84-0.42-0.78-0.54-0.84-0.54-0.78-0.6-1.44-1.44-1.32-1.68-0.6-0.96z" clip-path="url(#clipPath672)" fill="#fff" stroke="#1e1917" stroke-linecap="round" stroke-linejoin="round" stroke-miterlimit="10" stroke-width=".201"/>
  <path d="m47.332 156.16h6.1172v-11.345l-0.127-0.33867-0.14817-0.3175-0.29633-0.55033-0.33867-0.46567-0.1905-0.1905-0.16933-0.1905-0.21167-0.14817-0.1905-0.14816-0.42333-0.21167-0.42333-0.127-0.42333-0.0423-0.23283 0.0212-0.21167 0.0423-0.23283 0.0423-0.42333 0.16933-0.42333 0.254-0.21167 0.16934-0.1905 0.16933-0.21167 0.21167-0.1905 0.21166-0.1905 0.254-0.16933 0.254-0.33867 0.59267-0.14817 0.33867v11.345" fill="#d02425" fill-rule="evenodd"/>
 </g>
</svg>
