<?xml version="1.0" encoding="UTF-8"?>
<!-- Created with Inkscape (http://www.inkscape.org/) -->
<svg width="11.605mm" height="33.479mm" version="1.1" viewBox="0 0 11.605 33.479" xmlns="http://www.w3.org/2000/svg">
 <defs>
  <clipPath id="clipPath461">
   <path transform="translate(-2386 -5301.7)" d="m2249 5303.7h275v-276h-275z"/>
  </clipPath>
 </defs>
 <g transform="translate(-84.137 -165.89)">
  <path d="m89.175 199.34h1.5663v-16.552h-1.5663z" fill="#848382" fill-rule="evenodd" stroke="#1f1a17" stroke-linecap="round" stroke-linejoin="round" stroke-miterlimit="10" stroke-width=".071628"/>
  <path d="m89.937 171.99h0.29633l0.889 0.1269 0.254 0.0423 0.29633 0.0847 0.254 0.0847 0.254 0.127 0.254 0.0847 0.508 0.254 0.21167 0.16934 0.254 0.16933 0.21167 0.16933 0.21167 0.16934 0.16933 0.16933 0.21167 0.21167 0.16933 0.21166 0.33867 0.42334 0.16933 0.254 0.127 0.254 0.127 0.21166 0.127 0.254 0.08467 0.254 0.08467 0.29634 0.08467 0.254 0.08467 0.29633 0.04233 0.254 0.04233 0.29633v1.1853l-0.04233 0.254-0.04233 0.29633-0.08467 0.29633-0.25401 0.762-0.381 0.762-0.16933 0.21167-0.16933 0.254-0.16933 0.21167-0.16933 0.21166-0.21167 0.16934-0.16933 0.21166-0.21167 0.16934-0.21167 0.16933-0.254 0.16933-0.21167 0.127-0.254 0.16934-0.254 0.0847-0.508 0.254-0.254 0.0847-0.29633 0.0847-0.254 0.0423-0.889 0.1269h-0.59267l-0.59267-0.0846-0.254-0.0423-0.29633-0.0423-0.254-0.0847-0.29633-0.0847-0.508-0.254-0.254-0.0847-0.254-0.16934-0.21167-0.127-0.254-0.16933-0.21167-0.16933-0.21167-0.16934-0.16933-0.21166-0.21167-0.16934-0.16933-0.21166-0.16933-0.21167-0.16933-0.254-0.16933-0.21167-0.381-0.762-0.25401-0.762-0.04233-0.29633-0.08467-0.29633-0.04233-0.254v-1.1853l0.04233-0.29633 0.08467-0.254 0.04233-0.29633 0.08467-0.254 0.08467-0.29634 0.08467-0.254 0.127-0.254 0.127-0.21166 0.127-0.254 0.16933-0.254 0.33867-0.42334 0.16933-0.21166 0.21167-0.21167 0.16933-0.16933 0.21167-0.16934 0.21167-0.16933 0.254-0.16933 0.21167-0.16934 0.508-0.254 0.254-0.0847 0.254-0.127 0.29633-0.0847 0.254-0.0847 0.29633-0.0423 0.254-0.0423 0.59267-0.0846h0.29633" fill="#fff" fill-rule="evenodd"/>
  <path transform="matrix(.042333 0 0 -.042333 89.937 171.99)" d="m0 0h7l21-3 6-1 7-2 6-2 6-3 6-2 12-6 5-4 6-4 10-8 9-9 12-15 4-6 3-6 3-5 3-6 2-6 2-7 2-6 2-7 1-6 1-7v-28l-1-6-1-7-2-7-6-18-9-18-4-5-4-6-8-10-5-4-4-5-10-8-6-4-5-3-6-4-6-2-12-6-6-2-7-2-6-1-21-3h-14l-14 2-6 1-7 1-6 2-7 2-12 6-6 2-6 4-5 3-6 4-10 8-4 5-5 4-8 10-4 6-4 5-9 18-6 18-1 7-2 7-1 6v28l1 7 2 6 1 7 2 6 2 7 2 6 3 6 3 5 3 6 4 6 12 15 9 9 10 8 6 4 5 4 12 6 6 2 6 3 7 2 6 2 7 1 6 1 14 2z" clip-path="url(#clipPath461)" fill="none" stroke="#1f1a17" stroke-linecap="round" stroke-linejoin="round" stroke-miterlimit="10" stroke-width="2.256"/>
  <path d="m89.937 172.71h0.254l1.016 0.1692 0.21167 0.0847 0.254 0.0423 0.21167 0.0847 0.254 0.127 0.21167 0.0847 0.21167 0.127 0.16933 0.127 0.21167 0.16933 0.21167 0.127 0.16933 0.16933 0.16933 0.16934 0.33867 0.33866 0.127 0.21167 0.16933 0.16933 0.127 0.21167 0.08467 0.21167 0.127 0.21166 0.127 0.21167 0.08467 0.21167 0.08467 0.254 0.04233 0.21166 0.16932 1.016v0.508l-0.12699 0.762-0.04233 0.21167-0.04233 0.254-0.08467 0.21167-0.08467 0.254-0.127 0.21166-0.127 0.21167-0.08467 0.21167-0.127 0.21166-0.16933 0.16934-0.127 0.21166-0.16933 0.16934-0.16933 0.16933-0.16933 0.16933-0.16933 0.16934-0.42333 0.254-0.16933 0.127-0.42333 0.254-0.254 0.0847-0.21167 0.0847-0.254 0.0847-0.21167 0.0847-0.762 0.1269h-1.016l-0.762-0.1269-0.21167-0.0847-0.254-0.0847-0.42333-0.1694-0.254-0.127-0.21167-0.127-0.16933-0.127-0.42333-0.254-0.16933-0.16934-0.16933-0.16933-0.16933-0.16933-0.16933-0.16934-0.127-0.21166-0.127-0.16934-0.16933-0.21166-0.08467-0.21167-0.127-0.21167-0.08467-0.21166-0.127-0.254-0.04233-0.21167-0.08467-0.254-0.04233-0.21167-0.12699-0.762v-0.508l0.16932-1.016 0.08467-0.21166 0.04233-0.254 0.127-0.21167 0.08467-0.21167 0.127-0.21166 0.08467-0.21167 0.16933-0.21167 0.127-0.16933 0.127-0.21167 0.33867-0.33866 0.16933-0.16934 0.16933-0.16933 0.21167-0.127 0.21167-0.16933 0.16933-0.127 0.21167-0.127 0.254-0.0847 0.21167-0.127 0.21167-0.0847 0.254-0.0423 0.21167-0.0847 1.016-0.1692h0.254" fill="#1f1a17" fill-rule="evenodd"/>
  <path d="m89.937 172.71h0.254l1.016 0.1692 0.21167 0.0847 0.254 0.0423 0.21167 0.0847 0.254 0.127 0.21167 0.0847 0.21167 0.127 0.16933 0.127 0.21167 0.16933 0.21167 0.127 0.16933 0.16933 0.16933 0.16934 0.33867 0.33866 0.127 0.21167 0.16933 0.16933 0.127 0.21167 0.08467 0.21167 0.127 0.21166 0.127 0.21167 0.08467 0.21167 0.08467 0.254 0.04233 0.21166 0.16932 1.016v0.508l-0.12699 0.762-0.04233 0.21167-0.04233 0.254-0.08467 0.21167-0.08467 0.254-0.127 0.21166-0.127 0.21167-0.08467 0.21167-0.127 0.21166-0.16933 0.16934-0.127 0.21166-0.16933 0.16934-0.16933 0.16933-0.16933 0.16933-0.16933 0.16934-0.42333 0.254-0.16933 0.127-0.42333 0.254-0.254 0.0847-0.21167 0.0847-0.254 0.0847-0.21167 0.0847-0.762 0.1269h-1.016l-0.762-0.1269-0.21167-0.0847-0.254-0.0847-0.42333-0.1694-0.254-0.127-0.21167-0.127-0.16933-0.127-0.42333-0.254-0.16933-0.16934-0.16933-0.16933-0.16933-0.16933-0.16933-0.16934-0.127-0.21166-0.127-0.16934-0.16933-0.21166-0.08467-0.21167-0.127-0.21167-0.08467-0.21166-0.127-0.254-0.04233-0.21167-0.08467-0.254-0.04233-0.21167-0.12699-0.762v-0.508l0.16932-1.016 0.08467-0.21166 0.04233-0.254 0.127-0.21167 0.08467-0.21167 0.127-0.21166 0.08467-0.21167 0.16933-0.21167 0.127-0.16933 0.127-0.21167 0.33867-0.33866 0.16933-0.16934 0.16933-0.16933 0.21167-0.127 0.21167-0.16933 0.16933-0.127 0.21167-0.127 0.254-0.0847 0.21167-0.127 0.21167-0.0847 0.254-0.0423 0.21167-0.0847 1.016-0.1692z" fill="none" stroke="#1f1a17" stroke-linecap="round" stroke-linejoin="round" stroke-miterlimit="10" stroke-width=".095504"/>
  <g fill="#fff">
   <path d="m88.413 188.92h3.048v-22.437h-3.048z" fill-rule="evenodd"/>
   <path d="m87.82 188.92v-22.437h1.2277v22.437zm0-22.437v-0.59267h0.59267v0.59267zm0.59267-0.59267h3.048v1.1853h-3.048zm3.048 0h0.59267v0.59267h-0.59267zm0.59267 0.59267v22.437h-1.2277v-22.437zm0 22.437v0.59267h-0.59267v-0.59267zm-0.59267 0.59267h-3.048v-1.1853h3.048zm-3.048 0h-0.59267v-0.59267h0.59267v0.59267"/>
   <path d="m88.413 188.92h3.048v-22.437h-3.048z" fill-rule="evenodd"/>
  </g>
  <path d="m87.947 188.92v-22.437h0.97367v22.437zm0-22.437v-0.508h0.46567v0.508zm0.46567-0.508h3.048v0.97366h-3.048zm3.048 0h0.46567v0.508h-0.46567zm0.46567 0.508v22.437h-0.97367v-22.437zm0 22.437v0.508h-0.46567v-0.508zm-0.46567 0.508h-3.048v-0.97367h3.048zm-3.048 0h-0.46567v-0.508h0.46567v0.508" fill="#1f1a17"/>
 </g>
</svg>
