<?xml version="1.0" encoding="UTF-8"?>
<!-- Created with Inkscape (http://www.inkscape.org/) -->
<svg width="20.784mm" height="34.856mm" version="1.1" viewBox="0 0 20.784 34.856" xmlns="http://www.w3.org/2000/svg">
 <g transform="translate(-62.706 -150.55)">
  <path d="m72.251 185.37h2.0955v-20.786h-2.0955z" fill="#7e7e7e"/>
  <path d="m72.251 164.58h2.0955v20.786h-2.0955z" fill="none" stroke="#1e1917" stroke-linecap="round" stroke-linejoin="round" stroke-miterlimit="10" stroke-width=".075494"/>
  <path d="m62.769 165.02h20.659l-0.0635-2.8787v-0.6985l-0.04233-0.67733-0.0635-0.65617-0.08467-0.61383-0.127-0.61383-0.127-0.59267-0.16933-0.5715-0.1905-0.55033-0.1905-0.52917-0.23283-0.48683-0.254-0.48684-0.254-0.46566-0.29633-0.4445-0.29633-0.42334-0.33867-0.40216-0.67733-0.71967-0.381-0.33867-0.381-0.29633-0.40217-0.29633-0.84667-0.508-0.4445-0.21167-0.46567-0.21167-0.46567-0.16933-0.48683-0.14817-0.48683-0.127-0.48683-0.10583-0.508-0.0847-0.508-0.0635-1.0583-0.0423-1.0583 0.0423-0.508 0.0635-0.508 0.0847-0.508 0.127-0.48683 0.127-0.46567 0.14817-0.48683 0.1905-0.4445 0.1905-0.889 0.46566-0.40217 0.27517-0.40217 0.29633-0.40217 0.3175-0.381 0.33867-0.35983 0.35983-0.33867 0.35984-0.3175 0.40216-0.3175 0.42334-0.27517 0.4445-0.27517 0.46566-0.254 0.48684-0.23283 0.508-0.1905 0.508-0.1905 0.55033-0.16933 0.5715-0.127 0.5715-0.127 0.61383-0.08467 0.61384-0.0635 0.635-0.04233 0.67733-0.02117 0.67733v2.8787" fill="#fff" fill-rule="evenodd" stroke="#1e1917" stroke-linecap="round" stroke-linejoin="round" stroke-miterlimit="10" stroke-width=".12524"/>
  <text transform="scale(.99898 1.001)" x="68.151337" y="156.1013" font-size="4.2377px" stroke-width=".35314" xml:space="preserve"><tspan x="68.151337 71.70359 74.43924 75.531822" y="156.1013" fill="#1e1917" font-family="Arial" font-size="4.9193px" stroke-width=".35314">Halt</tspan></text>
  <text transform="scale(.99891 1.0011)" x="71.143631" y="159.47388" fill="#000000" font-family="Arial" font-size="2.8105px" stroke-width=".35316" xml:space="preserve"><tspan x="71.143631 71.929176 73.496056" y="159.47388">für</tspan><tspan x="63.853081 65.865707 67.431465 68.997215 70.562973 71.175949 72.741707 73.68071 74.465134 76.030884 77.596642 78.535637 79.297577 80.866142" y="162.96176">Rangierfahrten</tspan></text>
 </g>
</svg>
