<?xml version="1.0" encoding="UTF-8"?>
<!-- Created with Inkscape (http://www.inkscape.org/) -->
<svg width="28.823mm" height="7.7565mm" version="1.1" viewBox="0 0 28.823 7.7565" xmlns="http://www.w3.org/2000/svg">
 <defs>
  <clipPath id="clipPath122">
   <path transform="translate(-340.14 -504.8)" d="m340.14 493.88h11.82v10.92h-11.82z"/>
  </clipPath>
 </defs>
 <g transform="translate(-38.1 -170.92)">
  <g fill="#1e1917">
   <path d="m49.334 175.13h13.547v-0.6985h-13.547z"/>
   <path d="m49.461 176.71-4.1698-1.7357 4.1487-2.0955 0.02117 3.8312" fill-rule="evenodd"/>
   <path transform="matrix(.35278 0 0 -.35278 62.753 172.86)" d="M 0,0 11.82,-4.98 0.06,-10.86 0,0" clip-path="url(#clipPath122)" fill-rule="evenodd"/>
  </g>
  <path d="m38.136 178.64h5.9267v-7.6835h-5.9267z" fill="#7e7e7e"/>
  <path d="m38.136 170.96h5.9267v7.6835h-5.9267z" fill="none" stroke="#1e1917" stroke-linecap="round" stroke-linejoin="round" stroke-miterlimit="10" stroke-width=".073025"/>
  <path d="m41.079 172.16h0.16933l0.08467 0.0212h0.08467l0.16933 0.0423 0.0635 0.0423 0.08467 0.0212 0.0635 0.0423 0.08467 0.0212 0.0635 0.0423 0.08467 0.0423 0.0635 0.0635 0.0635 0.0423 0.23283 0.23283 0.127 0.1905 0.04233 0.0847 0.04233 0.0635 0.04233 0.0847 0.02117 0.0635 0.06351 0.2541 0.04233 0.16933v0.33867l-0.02117 0.0847-0.0635 0.254-0.02117 0.0635-0.02117 0.0847-0.04233 0.0847-0.08467 0.127-0.04233 0.0847-0.08467 0.127-0.23283 0.23284-0.127 0.0847-0.08467 0.0423-0.0635 0.0423-0.08467 0.0423-0.0635 0.0423-0.08467 0.0212-0.0635 0.0212-0.08467 0.0423h-0.08467l-0.16933 0.0423h-0.33867l-0.16933-0.0423h-0.08467l-0.08467-0.0423-0.08467-0.0212-0.0635-0.0212-0.08467-0.0423-0.0635-0.0423-0.08467-0.0423-0.1905-0.127-0.0635-0.0635-0.0635-0.0423-0.0635-0.0635-0.08467-0.127-0.0635-0.0635-0.04233-0.0847-0.04233-0.0635-0.02117-0.0635-0.08467-0.16934-0.02117-0.0635-0.04234-0.1694v-0.0847l-0.02117-0.0847v-0.33867l0.02117-0.0847v-0.0847l0.06351-0.2541 0.04233-0.0635 0.04233-0.0847 0.02117-0.0635 0.04233-0.0847 0.04233-0.0635 0.0635-0.0635 0.08467-0.127 0.0635-0.0635 0.0635-0.0423 0.0635-0.0635 0.0635-0.0423 0.0635-0.0635 0.0635-0.0423 0.08467-0.0423 0.0635-0.0212 0.08467-0.0423 0.0635-0.0212 0.08467-0.0423 0.16933-0.0423h0.08467l0.08467-0.0212h0.16933" fill="#fff" fill-rule="evenodd" stroke="#1e1917" stroke-linecap="round" stroke-linejoin="round" stroke-miterlimit="10" stroke-width=".073025"/>
 </g>
</svg>
