<?xml version="1.0" encoding="UTF-8"?>
<!-- Created with Inkscape (http://www.inkscape.org/) -->
<svg width="19.02mm" height="27.517mm" version="1.1" viewBox="0 0 19.02 27.517" xmlns="http://www.w3.org/2000/svg">
 <g transform="translate(-63.235 -150.81)">
  <g fill-rule="evenodd">
   <path d="m71.962 178.29h1.5663v-9.017h-1.5663z" fill="#848382" stroke="#1f1a17" stroke-linecap="round" stroke-linejoin="round" stroke-miterlimit="10" stroke-width=".072644"/>
   <path d="m68.279 150.86-4.9953 4.9953v8.9747l4.9953 4.953h8.9747l4.953-4.953v-8.9747l-4.953-4.9953h-8.9747" fill="#848382" stroke="#1f1a17" stroke-linecap="round" stroke-linejoin="round" stroke-miterlimit="10" stroke-width=".097409"/>
   <path d="m65.739 159.33h0.08467l0.04233 0.0423h0.127l0.04233 0.0423h0.08467l0.04233 0.0423h0.04233v0.0423h0.04233l0.08466 0.0846h0.04233l0.08466 0.0846v0.0423l0.04233 0.0423h0.04233v0.0423l0.04233 0.0423v0.0423l0.04233 0.0423v0.0423l0.04233 0.0423v0.16934l0.04233 0.0423v0.21167l-0.04233 0.0423v0.127l-0.04233 0.0423v0.0423l-0.04233 0.0423v0.0423l-0.04233 0.0423v0.0423l-0.08466 0.0846v0.0423l-0.04233 0.0423h-0.04233l-0.08466 0.0846h-0.04233l-0.04233 0.0423v0.0423h-0.04233l-0.04233 0.0423h-0.127l-0.04233 0.0423h-0.46567l-0.04233-0.0423h-0.08467l-0.04233-0.0423h-0.04233l-0.08466-0.0846h-0.04233l-0.08466-0.0846h-0.04233l-0.04233-0.0423v-0.0423l-0.08466-0.0846v-0.0423l-0.04233-0.0423v-0.0423l-0.04233-0.0423v-0.0423l-0.04233-0.0423v-0.254l-0.04233-0.0423 0.04233-0.0423v-0.254l0.04233-0.0423v-0.0423l0.04233-0.0423v-0.0423l0.04233-0.0423v-0.0423h0.04233l0.04233-0.0423v-0.0423l0.08466-0.0846h0.04233l0.08466-0.0846h0.04233l0.04233-0.0423h0.04233l0.04233-0.0423h0.04233l0.04233-0.0423h0.127l0.04233-0.0423h0.127" fill="#fff"/>
  </g>
  <path d="m65.739 159.33h0.08467l0.04233 0.0423h0.127l0.04233 0.0423h0.08467l0.04233 0.0423h0.04233v0.0423h0.04233l0.08466 0.0846h0.04233l0.08466 0.0846v0.0423l0.04233 0.0423h0.04233v0.0423l0.04233 0.0423v0.0423l0.04233 0.0423v0.0423l0.04233 0.0423v0.16934l0.04233 0.0423v0.21167l-0.04233 0.0423v0.127l-0.04233 0.0423v0.0423l-0.04233 0.0423v0.0423l-0.04233 0.0423v0.0423l-0.08466 0.0846v0.0423l-0.04233 0.0423h-0.04233l-0.08466 0.0846h-0.04233l-0.04233 0.0423v0.0423h-0.04233l-0.04233 0.0423h-0.127l-0.04233 0.0423h-0.46567l-0.04233-0.0423h-0.08467l-0.04233-0.0423h-0.04233l-0.08466-0.0846h-0.04233l-0.08466-0.0846h-0.04233l-0.04233-0.0423v-0.0423l-0.08466-0.0846v-0.0423l-0.04233-0.0423v-0.0423l-0.04233-0.0423v-0.0423l-0.04233-0.0423v-0.254l-0.04233-0.0423 0.04233-0.0423v-0.254l0.04233-0.0423v-0.0423l0.04233-0.0423v-0.0423l0.04233-0.0423v-0.0423h0.04233l0.04233-0.0423v-0.0423l0.08466-0.0846h0.04233l0.08466-0.0846h0.04233l0.04233-0.0423h0.04233l0.04233-0.0423h0.04233l0.04233-0.0423h0.127l0.04233-0.0423z" fill="none" stroke="#1f1a17" stroke-linecap="round" stroke-linejoin="round" stroke-miterlimit="10" stroke-width=".097409"/>
  <path d="m69.211 159.33h0.127l0.04233 0.0423h0.127l0.04233 0.0423h0.04233l0.04233 0.0423h0.04233l0.04233 0.0423h0.04233l0.08466 0.0846h0.04233l0.04233 0.0423v0.0423l0.16932 0.1692v0.0847l0.04233 0.0423v0.0423l0.04233 0.0847v0.46567l-0.04233 0.0423v0.0423l-0.04233 0.0423v0.0847l-0.08466 0.0846v0.0423l-0.08466 0.0846v0.0423h-0.04233l-0.08466 0.0846h-0.04233l-0.08466 0.0846h-0.04233l-0.04233 0.0423h-0.08467l-0.04233 0.0423h-0.508l-0.04233-0.0423h-0.08467l-0.04233-0.0423h-0.04233l-0.08466-0.0846h-0.04233v-0.0423l-0.04233-0.0423h-0.04233l-0.08466-0.0846v-0.0423l-0.08466-0.0846v-0.0423l-0.04233-0.0423v-0.0847l-0.04233-0.0423v-0.0847l-0.04233-0.0423v-0.29633l0.04233-0.0423v-0.127l0.04233-0.0423v-0.0847l0.04233-0.0423v-0.0423l0.04233-0.0423h0.04233v-0.0423l0.12699-0.1269h0.04233v-0.0423l0.04233-0.0423h0.04233l0.04233-0.0423h0.04233l0.04233-0.0423h0.04233l0.04233-0.0423h0.16933l0.04233-0.0423h0.08467" fill="#fff" fill-rule="evenodd"/>
  <path d="m69.211 159.33h0.127l0.04233 0.0423h0.127l0.04233 0.0423h0.04233l0.04233 0.0423h0.04233l0.04233 0.0423h0.04233l0.08466 0.0846h0.04233l0.04233 0.0423v0.0423l0.08466 0.0846v0l0.08466 0.0846v0.0847l0.04233 0.0423v0.0423l0.04233 0.0847v0.46567l-0.04233 0.0423v0.0423l-0.04233 0.0423v0.0847l-0.08466 0.0846v0.0423l-0.08466 0.0846v0.0423h-0.04233l-0.08466 0.0846h-0.04233l-0.08466 0.0846h-0.04233l-0.04233 0.0423h-0.08467l-0.04233 0.0423h-0.508l-0.04233-0.0423h-0.08467l-0.04233-0.0423h-0.04233l-0.08466-0.0846h-0.04233v-0.0423l-0.04233-0.0423h-0.04233l-0.08466-0.0846v-0.0423l-0.08466-0.0846v-0.0423l-0.04233-0.0423v-0.0847l-0.04233-0.0423v-0.0847l-0.04233-0.0423v-0.29633l0.04233-0.0423v-0.127l0.04233-0.0423v-0.0847l0.04233-0.0423v-0.0423l0.04233-0.0423h0.04233v-0.0423l0.12699-0.1269h0.04233v-0.0423l0.04233-0.0423h0.04233l0.04233-0.0423h0.04233l0.04233-0.0423h0.04233l0.04233-0.0423h0.16933l0.04233-0.0423z" fill="none" stroke="#1f1a17" stroke-linecap="round" stroke-linejoin="round" stroke-miterlimit="10" stroke-width=".097409"/>
  <path d="m72.724 159.33h0.08467l0.04233 0.0423h0.16933l0.04233 0.0423h0.04233l0.04233 0.0423h0.04233l0.04233 0.0423h0.04233l0.21165 0.2115v0.0423h0.04233l0.04233 0.0423v0.0423l0.04233 0.0423v0.0423l0.04233 0.0423v0.127l0.04233 0.0423v0.381l-0.04233 0.0423v0.0847l-0.04233 0.0423v0.0423l-0.04233 0.0423v0.0423l-0.08466 0.0846v0.0423l-0.08466 0.0846h-0.04233v0.0423l-0.04233 0.0423h-0.04233l-0.08466 0.0846h-0.04233l-0.04233 0.0423h-0.08467l-0.04233 0.0423h-0.508l-0.04233-0.0423h-0.08467l-0.04233-0.0423h-0.04233l-0.08466-0.0846h-0.04233l-0.21165-0.2115v-0.0423l-0.04233-0.0423v-0.0423l-0.04233-0.0423v-0.0423l-0.04233-0.0423v-0.0847l-0.04233-0.0423v-0.381l0.04233-0.0423v-0.127l0.04233-0.0423v-0.0423l0.04233-0.0423v-0.0423l0.16932-0.1692v-0.0423h0.04233l0.08466-0.0846h0.04233l0.04233-0.0423h0.04233l0.04233-0.0423h0.04233l0.04233-0.0423h0.127l0.08467-0.0423h0.08467" fill="#fff" fill-rule="evenodd"/>
  <path d="m72.724 159.33h0.08467l0.04233 0.0423h0.16933l0.04233 0.0423h0.04233l0.04233 0.0423h0.04233l0.04233 0.0423h0.04233l0.08466 0.0846v0l0.12699 0.1269v0.0423h0.04233l0.04233 0.0423v0.0423l0.04233 0.0423v0.0423l0.04233 0.0423v0.127l0.04233 0.0423v0.381l-0.04233 0.0423v0.0847l-0.04233 0.0423v0.0423l-0.04233 0.0423v0.0423l-0.08466 0.0846v0.0423l-0.08466 0.0846h-0.04233v0.0423l-0.04233 0.0423h-0.04233l-0.08466 0.0846h-0.04233l-0.04233 0.0423h-0.08467l-0.04233 0.0423h-0.508l-0.04233-0.0423h-0.08467l-0.04233-0.0423h-0.04233l-0.08466-0.0846h-0.04233l-0.08466-0.0846v0l-0.12699-0.1269v-0.0423l-0.04233-0.0423v-0.0423l-0.04233-0.0423v-0.0423l-0.04233-0.0423v-0.0847l-0.04233-0.0423v-0.381l0.04233-0.0423v-0.127l0.04233-0.0423v-0.0423l0.04233-0.0423v-0.0423l0.04233-0.0423v0l0.12699-0.1269v-0.0423h0.04233l0.08466-0.0846h0.04233l0.04233-0.0423h0.04233l0.04233-0.0423h0.04233l0.04233-0.0423h0.127l0.08467-0.0423z" fill="none" stroke="#1f1a17" stroke-linecap="round" stroke-linejoin="round" stroke-miterlimit="10" stroke-width=".097409"/>
  <path d="m76.238 159.33h0.08467l0.04233 0.0423h0.127l0.08467 0.0423h0.04233l0.04233 0.0423h0.04233l0.04233 0.0423h0.04233v0.0423l0.04233 0.0423h0.04233l0.08466 0.0846v0.0423l0.04233 0.0423h0.04233v0.0423l0.04233 0.0423v0.0423l0.04233 0.0423v0.0423l0.04233 0.0423v0.16934l0.04233 0.0423v0.21167l-0.04233 0.0423v0.127l-0.04233 0.0423v0.0423l-0.04233 0.0423v0.0423l-0.04233 0.0423v0.0423l-0.08466 0.0846v0.0423l-0.04233 0.0423h-0.04233l-0.16932 0.1692h-0.04233l-0.04233 0.0423h-0.127l-0.04233 0.0423h-0.46567l-0.04233-0.0423h-0.08467l-0.04233-0.0423h-0.04233l-0.08466-0.0846h-0.04233l-0.08466-0.0846h-0.04233v-0.0423l-0.12699-0.1269v-0.0423l-0.04233-0.0423v-0.0423l-0.04233-0.0423v-0.0847l-0.04233-0.0423v-0.46567l0.04233-0.0847v-0.0847l0.04233-0.0423v-0.0423l0.04233-0.0423v-0.0423h0.04233l0.08466-0.0846v-0.0423l0.04233-0.0423h0.04233l0.08466-0.0846h0.04233l0.04233-0.0423h0.04233l0.04233-0.0423h0.04233l0.04233-0.0423h0.127l0.04233-0.0423h0.127" fill="#fff" fill-rule="evenodd"/>
  <path d="m76.238 159.33h0.08467l0.04233 0.0423h0.127l0.08467 0.0423h0.04233l0.04233 0.0423h0.04233l0.04233 0.0423h0.04233v0.0423l0.04233 0.0423h0.04233l0.08466 0.0846v0.0423l0.04233 0.0423h0.04233v0.0423l0.04233 0.0423v0.0423l0.04233 0.0423v0.0423l0.04233 0.0423v0.16934l0.04233 0.0423v0.21167l-0.04233 0.0423v0.127l-0.04233 0.0423v0.0423l-0.04233 0.0423v0.0423l-0.04233 0.0423v0.0423l-0.08466 0.0846v0.0423l-0.04233 0.0423h-0.04233l-0.08466 0.0846v0l-0.08466 0.0846h-0.04233l-0.04233 0.0423h-0.127l-0.04233 0.0423h-0.46567l-0.04233-0.0423h-0.08467l-0.04233-0.0423h-0.04233l-0.08466-0.0846h-0.04233l-0.08466-0.0846h-0.04233v-0.0423l-0.12699-0.1269v-0.0423l-0.04233-0.0423v-0.0423l-0.04233-0.0423v-0.0847l-0.04233-0.0423v-0.46567l0.04233-0.0847v-0.0847l0.04233-0.0423v-0.0423l0.04233-0.0423v-0.0423h0.04233l0.08466-0.0846v-0.0423l0.04233-0.0423h0.04233l0.08466-0.0846h0.04233l0.04233-0.0423h0.04233l0.04233-0.0423h0.04233l0.04233-0.0423h0.127l0.04233-0.0423z" fill="none" stroke="#1f1a17" stroke-linecap="round" stroke-linejoin="round" stroke-miterlimit="10" stroke-width=".097409"/>
  <path d="m79.709 159.33h0.127l0.04233 0.0423h0.127l0.04233 0.0423h0.04233l0.04233 0.0423h0.04233l0.04233 0.0423h0.04233l0.08466 0.0846h0.04233l0.04233 0.0423v0.0423l0.16932 0.1692v0.0423l0.04233 0.0423v0.0847l0.04233 0.0847v0.46567l-0.04233 0.0423v0.0847l-0.04233 0.0423v0.0423l-0.08466 0.0846v0.0423l-0.08466 0.0846v0.0423h-0.04233l-0.08466 0.0846h-0.04233l-0.08466 0.0846h-0.04233l-0.04233 0.0423h-0.08467l-0.04233 0.0423h-0.46567l-0.08467-0.0423h-0.08467l-0.04233-0.0423h-0.04233l-0.16932-0.1692h-0.04233l-0.08466-0.0846v-0.0423l-0.04233-0.0423v-0.0423l-0.04233-0.0423v-0.0423l-0.04233-0.0423v-0.0423l-0.04233-0.0423v-0.0847l-0.04233-0.0423v-0.29633l0.04233-0.0423v-0.127l0.04233-0.0423v-0.0423l0.04233-0.0423v-0.0423l0.04233-0.0423v-0.0423h0.04233v-0.0423l0.12699-0.1269h0.04233l0.04233-0.0423v-0.0423h0.04233l0.04233-0.0423h0.04233l0.04233-0.0423h0.04233l0.04233-0.0423h0.16933l0.04233-0.0423h0.08467" fill="#fff" fill-rule="evenodd"/>
  <g fill="none" stroke="#1f1a17" stroke-linecap="round" stroke-linejoin="round" stroke-miterlimit="10" stroke-width=".097409">
   <path d="m79.709 159.33h0.127l0.04233 0.0423h0.127l0.04233 0.0423h0.04233l0.04233 0.0423h0.04233l0.04233 0.0423h0.04233l0.08466 0.0846h0.04233l0.04233 0.0423v0.0423l0.16932 0.1692v0.0423l0.04233 0.0423v0.0847l0.04233 0.0847v0.46567l-0.04233 0.0423v0.0847l-0.04233 0.0423v0.0423l-0.08466 0.0846v0.0423l-0.08466 0.0846v0.0423h-0.04233l-0.08466 0.0846h-0.04233l-0.08466 0.0846h-0.04233l-0.04233 0.0423h-0.08467l-0.04233 0.0423h-0.46567l-0.08467-0.0423h-0.08467l-0.04233-0.0423h-0.04233l-0.16932-0.1692h-0.04233l-0.08466-0.0846v-0.0423l-0.04233-0.0423v-0.0423l-0.04233-0.0423v-0.0423l-0.04233-0.0423v-0.0423l-0.04233-0.0423v-0.0847l-0.04233-0.0423v-0.29633l0.04233-0.0423v-0.127l0.04233-0.0423v-0.0423l0.04233-0.0423v-0.0423l0.04233-0.0423v-0.0423h0.04233v-0.0423l0.12699-0.1269h0.04233l0.04233-0.0423v-0.0423h0.04233l0.04233-0.0423h0.04233l0.04233-0.0423h0.04233l0.04233-0.0423h0.16933l0.04233-0.0423z"/>
   <path d="m71.751 167.33v-0.0847l0.04233-0.0423v-0.16933l0.04233-0.0423v-0.0423l0.04233-0.0423v-0.0423l0.04233-0.0423v-0.0423l0.08466-0.0846v-0.0423l0.08466-0.0846h0.04233l0.08466-0.0846h0.04233l0.04233-0.0423h0.04233l0.04233-0.0423h0.08467l0.04233-0.0423h0.127l0.04233-0.0423h0.127l0.04233 0.0423h0.127l0.04233 0.0423h0.127l0.04233 0.0423h0.04233v0.0423h0.04233l0.08466 0.0846h0.04233l0.08466 0.0846v0.0423l0.08466 0.0846v0.0423l0.04233 0.0423v0.0423l0.04233 0.0423v0.0423l0.04233 0.0423v0.16933l0.04233 0.0423v0.127l-0.04233 0.0423v0.16933l-0.04233 0.0423v0.0847l-0.08466 0.0846v0.0423l-0.08466 0.0846v0.0423l-0.08466 0.0846h-0.04233l-0.08466 0.0846h-0.04233v0.0423h-0.04233l-0.04233 0.0423h-0.08467l-0.04233 0.0423h-0.16933l-0.04233 0.0423h-0.127l-0.04233-0.0423h-0.16933l-0.04233-0.0423h-0.04233l-0.04233-0.0423h-0.04233l-0.04233-0.0423h-0.04233l-0.08466-0.0846h-0.04233l-0.08466-0.0846v-0.0423l-0.08466-0.0846v-0.0423l-0.08466-0.0846v-0.0847l-0.04233-0.0423v-0.16933l-0.04233-0.0423z"/>
   <path d="m71.751 163.81v-0.0423l0.04233-0.0423v-0.21166l0.04233-0.0423v-0.0423l0.04233-0.0423v-0.0423l0.04233-0.0423v-0.0423l0.08466-0.0846v-0.0423h0.04233l0.12699-0.1269h0.04233l0.04233-0.0423h0.04233l0.04233-0.0423h0.04233l0.04233-0.0423h0.08467l0.04233-0.0423h0.381l0.04233 0.0423h0.08467l0.08467 0.0423h0.04233l0.08466 0.0846h0.04233l0.12699 0.1269h0.04233v0.0423l0.08466 0.0846v0.0423l0.04233 0.0423v0.0423l0.04233 0.0423v0.0423l0.04233 0.0423v0.21166l0.04233 0.0423v0.0847l-0.04233 0.0423v0.21166l-0.04233 0.0423v0.0423l-0.04233 0.0423v0.0423l-0.04233 0.0423v0.0423l-0.21165 0.2115h-0.04233l-0.12699 0.1269h-0.04233l-0.08467 0.0423h-0.127l-0.04233 0.0423h-0.29633l-0.04233-0.0423h-0.127l-0.04233-0.0423h-0.04233l-0.04233-0.0423h-0.04233l-0.08466-0.0846h-0.04233l-0.21165-0.2115v-0.0423l-0.04233-0.0423v-0.0423l-0.04233-0.0423v-0.0423l-0.04233-0.0423v-0.21166l-0.04233-0.0423z"/>
   <path d="m71.751 156.83v-0.0847l0.04233-0.0423v-0.16933l0.04233-0.0423v-0.0423l0.04233-0.0423v-0.0423l0.04233-0.0423v-0.0423l0.08466-0.0846v-0.0423l0.04233-0.0423h0.04233l0.08466-0.0846h0.04233l0.08466-0.0846h0.04233l0.04233-0.0423h0.08467l0.04233-0.0423h0.46567l0.04233 0.0423h0.127l0.04233 0.0423h0.04233v0.0423l0.04233 0.0423h0.04233l0.08466 0.0846h0.04233l0.04233 0.0423v0.0423l0.08466 0.0846v0.0423l0.04233 0.0423v0.0423l0.04233 0.0423v0.0423l0.04233 0.0423v0.16933l0.04233 0.0423v0.127l-0.04233 0.0423v0.21166l-0.04233 0.0423v0.0423l-0.04233 0.0423v0.0423l-0.04233 0.0423v0.0423h-0.04233l-0.04233 0.0423v0.0423l-0.08466 0.0846h-0.04233l-0.08466 0.0846h-0.04233v0.0423h-0.04233l-0.04233 0.0423h-0.08467l-0.04233 0.0423h-0.127l-0.04233 0.0423h-0.21167l-0.04233-0.0423h-0.127l-0.04233-0.0423h-0.04233l-0.04233-0.0423h-0.04233l-0.04233-0.0423h-0.04233l-0.08466-0.0846h-0.04233l-0.08466-0.0846v-0.0423l-0.04233-0.0423h-0.04233v-0.0423l-0.04233-0.0423v-0.0423l-0.04233-0.0423v-0.0423l-0.04233-0.0423v-0.21166l-0.04233-0.0423z"/>
   <path d="m71.751 153.32v-0.0423l0.04233-0.0423v-0.21166l0.04233-0.0423v-0.0423l0.04233-0.0423v-0.0423l0.04233-0.0423v-0.0423l0.21165-0.2115h0.04233l0.08466-0.0846h0.04233l0.04233-0.0423h0.04233l0.04233-0.0423h0.08467l0.04233-0.0423h0.381l0.04233 0.0423h0.08467l0.08467 0.0423h0.04233l0.12699 0.1269h0.04233l0.21165 0.2115v0.0423l0.04233 0.0423v0.0423l0.04233 0.0423v0.0423l0.04233 0.0423v0.21166l0.04233 0.0423v0.0847l-0.04233 0.0423v0.21166l-0.04233 0.0423v0.0423l-0.04233 0.0423v0.0423l-0.04233 0.0423v0.0423l-0.08466 0.0846v0.0423h-0.04233l-0.12699 0.1269h-0.04233l-0.08466 0.0846h-0.04233l-0.08467 0.0423h-0.08467l-0.04233 0.0423h-0.381l-0.04233-0.0423h-0.08467l-0.04233-0.0423h-0.04233l-0.04233-0.0423h-0.04233l-0.04233-0.0423h-0.04233l-0.12699-0.1269h-0.04233v-0.0423l-0.08466-0.0846v-0.0423l-0.04233-0.0423v-0.0423l-0.04233-0.0423v-0.0423l-0.04233-0.0423v-0.21166l-0.04233-0.0423z"/>
   <path d="m67.094 164.58 0.16932-0.1692h0.04233l0.04233-0.0423h0.04233l0.04233-0.0423h0.127l0.04233-0.0423h0.381l0.04233 0.0423h0.08467l0.04233 0.0423h0.04233l0.04233 0.0423h0.04233l0.04233 0.0423h0.04233l0.08466 0.0846v0.0423l0.04233 0.0423h0.04233l0.04233 0.0423v0.0423l0.08466 0.0846v0.0423l0.04233 0.0423v0.0847l0.04233 0.0423v0.46567l-0.04233 0.0847v0.0847l-0.04233 0.0423v0.0423l-0.08466 0.0846v0.0423l-0.04233 0.0423h-0.04233l-0.04233 0.0423v0.0423l-0.08466 0.0846h-0.04233l-0.04233 0.0423h-0.04233l-0.04233 0.0423h-0.04233l-0.04233 0.0423h-0.08467l-0.04233 0.0423h-0.381l-0.04233-0.0423h-0.127l-0.04233-0.0423h-0.04233l-0.04233-0.0423h-0.04233l-0.21165-0.2115h-0.04233v-0.0423l-0.08466-0.0846v-0.0423l-0.04233-0.0423v-0.0423l-0.04233-0.0423v-0.127l-0.04233-0.0423v-0.33867l0.04233-0.0847v-0.0847l0.04233-0.0423v-0.0423l0.04233-0.0423v-0.0423l0.08466-0.0846v-0.0423h0.04233z"/>
   <path d="m69.549 162.08 0.04233-0.0423h0.04233l0.08466-0.0846h0.04233l0.04233-0.0423h0.04233l0.04233-0.0423h0.04233l0.04233-0.0423h0.55033l0.04233 0.0423h0.04233l0.04233 0.0423h0.04233l0.04233 0.0423h0.04233l0.08466 0.0846h0.04233l0.12699 0.1269v0.0423l0.04233 0.0423v0.0423l0.08466 0.0846v0.0847l0.04233 0.0423v0.127l0.04233 0.0423v0.21166l-0.04233 0.0423v0.127l-0.04233 0.0423v0.0847l-0.08466 0.0846v0.0423l-0.04233 0.0423v0.0423l-0.12699 0.1269h-0.04233l-0.08466 0.0846h-0.04233l-0.04233 0.0423h-0.04233l-0.04233 0.0423h-0.04233l-0.04233 0.0423h-0.127l-0.04233 0.0423h-0.21167l-0.04233-0.0423h-0.127l-0.04233-0.0423h-0.04233l-0.04233-0.0423h-0.04233l-0.04233-0.0423h-0.04233l-0.08466-0.0846h-0.04233l-0.08466-0.0846v-0.0423l-0.08466-0.0846v-0.0423l-0.04233-0.0423v-0.0423l-0.04233-0.0423v-0.0423l-0.04233-0.0423v-0.55034l0.04233-0.0423v-0.0423l0.04233-0.0423v-0.0423l0.04233-0.0423v-0.0423l0.08466-0.0846v-0.0423z"/>
   <path d="m74.502 157.13h0.04233l0.08466-0.0846h0.04233l0.08466-0.0846h0.04233l0.04233-0.0423h0.08467l0.04233-0.0423h0.46567l0.04233 0.0423h0.08467l0.04233 0.0423h0.04233l0.08466 0.0846h0.04233l0.08466 0.0846h0.04233l0.04233 0.0423v0.0423l0.08466 0.0846v0.0423l0.04233 0.0423v0.0423l0.04233 0.0423v0.0423l0.04233 0.0423v0.21167l0.04233 0.0423v0.0847l-0.04233 0.0423v0.16934l-0.04233 0.0423v0.0423l-0.04233 0.0423v0.0423l-0.04233 0.0423v0.0423l-0.08466 0.0846v0.0423l-0.12699 0.1269h-0.04233l-0.08466 0.0846h-0.04233l-0.04233 0.0423h-0.04233l-0.04233 0.0423h-0.127l-0.04233 0.0423h-0.29633l-0.04233-0.0423h-0.127l-0.04233-0.0423h-0.04233l-0.04233-0.0423h-0.04233l-0.08466-0.0846h-0.04233l-0.12699-0.1269v-0.0423l-0.08466-0.0846v-0.0423l-0.04233-0.0423v-0.0423l-0.04233-0.0423v-0.0423l-0.04233-0.0423v-0.21167l-0.04233-0.0423 0.04233-0.0423v-0.254l0.04233-0.0423v-0.0423l0.04233-0.0423v-0.0423l0.04233-0.0423v-0.0423l0.08466-0.0846v-0.0423z"/>
   <path d="m77 154.67 0.04233-0.0423v-0.0423h0.04233l0.08466-0.0846h0.04233l0.04233-0.0423h0.08467l0.04233-0.0423h0.16933l0.04233-0.0423h0.16933l0.04233 0.0423h0.16933l0.04233 0.0423h0.08467l0.04233 0.0423h0.04233l0.08466 0.0846h0.04233v0.0423l0.16932 0.1692v0.0423l0.04233 0.0423v0.0423l0.04233 0.0423v0.0423l0.04233 0.0423v0.0847l0.04233 0.0423v0.381l-0.04233 0.0423v0.0847l-0.04233 0.0423v0.0423l-0.04233 0.0423v0.0423l-0.04233 0.0423v0.0423l-0.12699 0.1269h-0.04233v0.0423l-0.08466 0.0846h-0.04233l-0.04233 0.0423h-0.04233l-0.04233 0.0423h-0.08467l-0.08467 0.0423h-0.42333l-0.08467-0.0423h-0.08467l-0.04233-0.0423h-0.04233l-0.04233-0.0423h-0.04233l-0.08466-0.0846v-0.0423h-0.04233l-0.12699-0.1269v-0.0423l-0.04233-0.0423v-0.0423l-0.04233-0.0423v-0.0423l-0.04233-0.0423v-0.0847l-0.04233-0.0423v-0.381l0.04233-0.0423v-0.0847l0.04233-0.0423v-0.0423l0.04233-0.0423v-0.0423l0.04233-0.0423v-0.0423l0.08466-0.0846z"/>
  </g>
 </g>
</svg>
