<?xml version="1.0" encoding="UTF-8"?>
<!-- Created with Inkscape (http://www.inkscape.org/) -->
<svg width="24.088mm" height="27.511mm" version="1.1" viewBox="0 0 24.088 27.511" xmlns="http://www.w3.org/2000/svg">
 <defs>
  <clipPath id="clipPath366">
   <path transform="translate(-2574 -5474.7)" d="m2434 5475.7h282v-276h-282z"/>
  </clipPath>
  <clipPath id="clipPath371">
   <path transform="translate(-2304 -5388.7)" d="m2290 5388.7h569v-100h-569z"/>
  </clipPath>
 </defs>
 <g transform="translate(-85.196 -182.56)">
  <path d="m96.456 210.04h1.5663v-16.595h-1.5663z" fill="#848382" fill-rule="evenodd" stroke="#1f1a17" stroke-linecap="round" stroke-linejoin="round" stroke-miterlimit="10" stroke-width=".072644"/>
  <path d="m97.218 182.6h0.59267l0.59267 0.0846 0.254 0.0847 0.29633 0.0847 0.254 0.0847 0.29633 0.0847 0.508 0.254 0.21167 0.127 0.254 0.16934 0.21167 0.16933 0.21166 0.16933 0.42334 0.33867 0.21166 0.21167 0.33867 0.42333 0.16933 0.21167 0.16933 0.254 0.127 0.254 0.127 0.21166 0.127 0.254 0.0847 0.29634 0.1694 0.508 0.0847 0.29633 0.0423 0.29633 0.0423 0.254v1.1853l-0.0423 0.29633-0.0423 0.254-0.0847 0.29633-0.0847 0.254-0.0847 0.29634-0.0847 0.254-0.254 0.508-0.127 0.21166-0.16933 0.254-0.16933 0.21167-0.33867 0.42333-0.21166 0.21167-0.21167 0.16933-0.21167 0.21167-0.21166 0.16933-0.21167 0.127-0.254 0.16934-0.21167 0.127-0.508 0.254-0.29633 0.0847-0.254 0.0847-0.29633 0.0847-0.254 0.0847-0.59267 0.0846h-1.1853l-0.59267-0.0846-0.254-0.0847-0.29633-0.0847-0.508-0.1694-0.29633-0.127-0.21167-0.127-0.254-0.127-0.254-0.16934-0.21167-0.127-0.21167-0.16933-0.21167-0.21167-0.21167-0.16933-0.21167-0.21167-0.16933-0.21166-0.33867-0.42334-0.127-0.254-0.16933-0.21166-0.254-0.508-0.08467-0.254-0.08467-0.29634-0.08467-0.254-0.08467-0.29633-0.04233-0.254-0.04233-0.29633v-1.1853l0.04233-0.254 0.04233-0.29633 0.08467-0.29633 0.16934-0.508 0.08467-0.29634 0.127-0.254 0.127-0.21166 0.16933-0.254 0.127-0.254 0.33867-0.42334 0.16933-0.21166 0.21167-0.21167 0.21167-0.16933 0.21167-0.16934 0.42333-0.33866 0.254-0.16934 0.254-0.127 0.21167-0.127 0.29633-0.127 0.508-0.1694 0.29633-0.0847 0.254-0.0847 0.59267-0.0846h0.59267" fill="#fff" fill-rule="evenodd"/>
  <path transform="matrix(.042333 0 0 -.042333 97.218 182.6)" d="m0 0h14l14-2 6-2 7-2 6-2 7-2 12-6 5-3 6-4 20-16 5-5 12-15 4-6 3-6 3-5 3-6 2-7 4-12 2-7 1-7 1-6v-28l-1-7-1-6-2-7-2-6-2-7-2-6-6-12-3-5-4-6-12-15-5-5-5-4-5-5-5-4-5-3-6-4-5-3-12-6-7-2-6-2-7-2-6-2-14-2h-28l-14 2-6 2-7 2-12 4-7 3-5 3-6 3-6 4-5 3-5 4-5 5-5 4-5 5-12 15-3 6-4 5-6 12-2 6-2 7-2 6-2 7-1 6-1 7v28l1 6 1 7 2 7 4 12 2 7 3 6 3 5 4 6 3 6 12 15 5 5 20 16 6 4 6 3 5 3 7 3 12 4 7 2 6 2 14 2z" clip-path="url(#clipPath366)" fill="none" stroke="#1f1a17" stroke-linecap="round" stroke-linejoin="round" stroke-miterlimit="10" stroke-width="2.301"/>
  <path d="m97.218 183.32h0.254l0.254 0.0423h0.254l0.254 0.0423 0.254 0.0847 0.254 0.0423 0.21167 0.0847 0.254 0.0847 0.21167 0.127 0.21167 0.0847 0.42334 0.254 0.21166 0.16933 0.16934 0.127 0.21166 0.16933 0.33867 0.33867 0.127 0.16933 0.16933 0.21167 0.127 0.16933 0.254 0.42334 0.127 0.21166 0.0847 0.21167 0.127 0.254 0.0423 0.21167 0.0847 0.254 0.0423 0.21166 0.1269 0.762v0.508l-0.1692 1.016-0.0847 0.21167-0.0423 0.254-0.127 0.21167-0.0847 0.21166-0.254 0.42334-0.127 0.21166-0.127 0.21167-0.16933 0.16933-0.127 0.16934-0.16933 0.21166-0.16934 0.127-0.21166 0.16934-0.16934 0.16933-0.21166 0.127-0.42334 0.254-0.21167 0.0847-0.21167 0.127-0.254 0.0847-0.21167 0.0847-0.254 0.0423-0.254 0.0847-0.508 0.0846h-1.016l-0.508-0.0846-0.254-0.0847-0.254-0.0423-0.21167-0.0847-0.254-0.0847-0.21167-0.127-0.21167-0.0847-0.635-0.381-0.16933-0.16933-0.16933-0.16934-0.21167-0.127-0.16933-0.21166-0.127-0.16934-0.16933-0.16933-0.127-0.21167-0.127-0.21166-0.254-0.42334-0.08467-0.21166-0.08467-0.21167-0.08467-0.254-0.08467-0.21167-0.16932-1.016v-0.508l0.12699-0.762 0.04233-0.21166 0.08467-0.254 0.08467-0.21167 0.08467-0.254 0.08467-0.21167 0.127-0.21166 0.254-0.42334 0.127-0.16933 0.16933-0.21167 0.127-0.16933 0.16933-0.16933 0.21167-0.16934 0.16933-0.16933 0.16933-0.127 0.21167-0.16933 0.42333-0.254 0.21167-0.0847 0.21167-0.127 0.254-0.0847 0.21167-0.0847 0.254-0.0423 0.254-0.0847 0.254-0.0423h0.254l0.254-0.0423h0.254" fill="#1f1a17" fill-rule="evenodd"/>
  <path d="m97.218 183.32h0.254l0.254 0.0423h0.254l0.254 0.0423 0.254 0.0847 0.254 0.0423 0.21167 0.0847 0.254 0.0847 0.21167 0.127 0.21167 0.0847 0.42334 0.254 0.21166 0.16933 0.16934 0.127 0.21166 0.16933 0.33867 0.33867 0.127 0.16933 0.16933 0.21167 0.127 0.16933 0.254 0.42334 0.127 0.21166 0.0847 0.21167 0.127 0.254 0.0423 0.21167 0.0847 0.254 0.0423 0.21166 0.1269 0.762v0.508l-0.1692 1.016-0.0847 0.21167-0.0423 0.254-0.127 0.21167-0.0847 0.21166-0.254 0.42334-0.127 0.21166-0.127 0.21167-0.16933 0.16933-0.127 0.16934-0.16933 0.21166-0.16934 0.127-0.21166 0.16934-0.16934 0.16933-0.21166 0.127-0.42334 0.254-0.21167 0.0847-0.21167 0.127-0.254 0.0847-0.21167 0.0847-0.254 0.0423-0.254 0.0847-0.508 0.0846h-1.016l-0.508-0.0846-0.254-0.0847-0.254-0.0423-0.21167-0.0847-0.254-0.0847-0.21167-0.127-0.21167-0.0847-0.635-0.381-0.16933-0.16933-0.16933-0.16934-0.21167-0.127-0.16933-0.21166-0.127-0.16934-0.16933-0.16933-0.127-0.21167-0.127-0.21166-0.254-0.42334-0.08467-0.21166-0.08467-0.21167-0.08467-0.254-0.08467-0.21167-0.16932-1.016v-0.508l0.12699-0.762 0.04233-0.21166 0.08467-0.254 0.08467-0.21167 0.08467-0.254 0.08467-0.21167 0.127-0.21166 0.254-0.42334 0.127-0.16933 0.16933-0.21167 0.127-0.16933 0.16933-0.16933 0.21167-0.16934 0.16933-0.16933 0.16933-0.127 0.21167-0.16933 0.42333-0.254 0.21167-0.0847 0.21167-0.127 0.254-0.0847 0.21167-0.0847 0.254-0.0423 0.254-0.0847 0.254-0.0423h0.254l0.254-0.0423z" fill="none" stroke="#1f1a17" stroke-linecap="round" stroke-linejoin="round" stroke-miterlimit="10" stroke-width=".097409"/>
  <g fill="#fff">
   <path d="m85.788 189.8h22.86v-2.9633h-22.86z" fill-rule="evenodd"/>
   <path transform="matrix(.042333 0 0 -.042333 85.788 186.25)" d="m0 0h540v-28h-540zm540 0h15v-14h-15zm15-14v-70h-29v70zm0-70v-15h-15v15zm-15-15h-540v29h540zm-540 0h-14v15h14zm-14 15v70h28v-70zm0 70v14h14v-14h-14" clip-path="url(#clipPath371)"/>
   <path d="m85.788 189.8h22.86v-2.9633h-22.86z" fill-rule="evenodd"/>
  </g>
  <path d="m85.788 186.33h22.86v0.97367h-22.86zm22.86 0h0.508v0.508h-0.508zm0.508 0.508v2.9633h-1.016v-2.9633zm0 2.9633v0.508h-0.508v-0.508zm-0.508 0.508h-22.86v-0.97366h22.86zm-22.86 0h-0.508v-0.508h0.508zm-0.508-0.508v-2.9633h1.016v2.9633zm0-2.9633v-0.508h0.508v0.508h-0.508" fill="#1f1a17"/>
 </g>
</svg>
