<?xml version="1.0" encoding="UTF-8"?>
<!-- Created with Inkscape (http://www.inkscape.org/) -->
<svg width="17.727mm" height="3.5251mm" version="1.1" viewBox="0 0 17.727 3.5251" xmlns="http://www.w3.org/2000/svg">
 <g transform="translate(-63.764 -148.96)" fill="#1e1917" fill-rule="evenodd" stroke="#1e1917" stroke-linecap="round" stroke-linejoin="round" stroke-miterlimit="10" stroke-width=".074436">
  <path d="m72.628 149h0.16933l0.16933 0.0423h0.08467l0.08467 0.0423 0.0635 0.0212 0.08467 0.0212 0.08467 0.0423 0.127 0.0847 0.08467 0.0423 0.0635 0.0423 0.0635 0.0635 0.0635 0.0423 0.04233 0.0635 0.0635 0.0635 0.04233 0.0635 0.0635 0.0635 0.08467 0.127 0.04233 0.0847 0.04233 0.0635 0.02117 0.0847 0.04233 0.0635 0.04234 0.1694 0.04233 0.16933v0.0847l0.02117 0.0847v0.1905l-0.02117 0.0847v0.0847l-0.04234 0.1694-0.04233 0.16933-0.04233 0.0635-0.02117 0.0847-0.04233 0.0635-0.04233 0.0847-0.08466 0.127-0.0635 0.0847-0.10583 0.10584-0.04233 0.0635-0.0635 0.0635-0.127 0.0847-0.08467 0.0423-0.127 0.0847-0.08467 0.0423-0.08467 0.0212-0.0635 0.0212-0.08467 0.0423-0.08467 0.0212h-0.08467l-0.08467 0.0212h-0.33867l-0.08467-0.0212h-0.08467l-0.08467-0.0212-0.08467-0.0423-0.0635-0.0212-0.08467-0.0212-0.0635-0.0423-0.08467-0.0423-0.127-0.0847-0.08467-0.0423-0.0635-0.0423-0.04233-0.0635-0.16933-0.16934-0.0635-0.0847-0.08466-0.127-0.04233-0.0847-0.04233-0.0635-0.02117-0.0847-0.04233-0.0635-0.04233-0.16933-0.04234-0.1694v-0.16934l-0.02117-0.0847 0.02117-0.10584v-0.16933l0.04233-0.16933 0.04234-0.1694 0.04233-0.0635 0.02117-0.0847 0.04233-0.0635 0.04233-0.0847 0.08467-0.127 0.0635-0.0635 0.04233-0.0635 0.23283-0.23283 0.08467-0.0423 0.127-0.0847 0.08467-0.0423 0.0635-0.0423 0.08467-0.0212 0.0635-0.0212 0.08467-0.0423h0.08467l0.16933-0.0423h0.16933"/>
  <path d="m65.474 149h0.1905l0.08467 0.0212 0.0635 0.0212h0.08467l0.08467 0.0423 0.08467 0.0212 0.0635 0.0212 0.08467 0.0423 0.0635 0.0423 0.08467 0.0423 0.127 0.0847 0.0635 0.0635 0.0635 0.0423 0.0635 0.0635 0.04233 0.0635 0.0635 0.0635 0.08466 0.127 0.0635 0.0635 0.02117 0.0847 0.04233 0.0635 0.04233 0.0847 0.02117 0.0635 0.02117 0.0847 0.04233 0.0847v0.0847l0.04233 0.16934v0.35983l-0.04233 0.16933v0.0847l-0.04233 0.0847-0.02117 0.0847-0.02117 0.0635-0.04233 0.0847-0.04233 0.0635-0.02117 0.0847-0.0635 0.0635-0.04233 0.0635-0.04233 0.0847-0.0635 0.0423-0.04233 0.0635-0.127 0.127-0.1905 0.127-0.08467 0.0423-0.0635 0.0423-0.08467 0.0423-0.0635 0.0212-0.08467 0.0212-0.08467 0.0423-0.08467 0.0212h-0.0635l-0.08467 0.0212h-0.35983l-0.08467-0.0212h-0.08467l-0.0635-0.0212-0.08467-0.0423-0.16933-0.0423-0.127-0.0847-0.08467-0.0423-0.1905-0.127-0.127-0.127-0.04233-0.0635-0.0635-0.0423-0.04233-0.0847-0.0635-0.0635-0.04233-0.0635-0.04233-0.0847-0.02117-0.0635-0.04233-0.0847-0.02117-0.0635-0.04233-0.0847-0.04234-0.1694v-0.0847l-0.02117-0.0847v-0.35983l0.02117-0.0847v-0.0847l0.04234-0.1694 0.04233-0.0847 0.02117-0.0635 0.04233-0.0847 0.02117-0.0635 0.04233-0.0847 0.04233-0.0635 0.0635-0.0635 0.04233-0.0635 0.0635-0.0635 0.04233-0.0635 0.0635-0.0635 0.0635-0.0423 0.0635-0.0635 0.127-0.0847 0.08467-0.0423 0.127-0.0847 0.16933-0.0423 0.08467-0.0423h0.0635l0.16933-0.0423h0.16933"/>
  <path d="m79.783 149h0.16933l0.16933 0.0423h0.0635l0.08467 0.0423 0.16933 0.0423 0.0635 0.0423 0.08467 0.0423 0.1905 0.127 0.0635 0.0635 0.0635 0.0423 0.127 0.127 0.08466 0.127 0.0635 0.0635 0.04233 0.0635 0.04233 0.0847 0.02117 0.0635 0.04233 0.0847 0.02117 0.0635 0.04233 0.0847 0.04234 0.1694v0.0847l0.02117 0.0847v0.35983l-0.02117 0.0847v0.0847l-0.04234 0.1694-0.04233 0.0847-0.02117 0.0635-0.04233 0.0847-0.02117 0.0635-0.04233 0.0847-0.04233 0.0635-0.0635 0.0635-0.04233 0.0847-0.23283 0.23284-0.254 0.16933-0.08467 0.0423-0.0635 0.0423-0.16933 0.0423-0.08467 0.0423-0.0635 0.0212h-0.08467l-0.08467 0.0212h-0.35983l-0.08467-0.0212h-0.0635l-0.08467-0.0212-0.08467-0.0423-0.08467-0.0212-0.0635-0.0212-0.08467-0.0423-0.0635-0.0423-0.08467-0.0423-0.1905-0.127-0.127-0.127-0.04233-0.0635-0.0635-0.0423-0.04233-0.0847-0.08466-0.127-0.04233-0.0847-0.04233-0.0635-0.04233-0.0847-0.02117-0.0635-0.02117-0.0847-0.04233-0.0847v-0.0847l-0.04233-0.16933v-0.35983l0.04233-0.16934v-0.0847l0.04233-0.0847 0.02117-0.0847 0.02117-0.0635 0.04233-0.0847 0.04233-0.0635 0.04233-0.0847 0.08467-0.127 0.04233-0.0635 0.0635-0.0635 0.04233-0.0635 0.0635-0.0635 0.0635-0.0423 0.0635-0.0635 0.127-0.0847 0.08467-0.0423 0.0635-0.0423 0.08467-0.0423 0.0635-0.0212 0.08467-0.0212 0.08467-0.0423h0.08467l0.0635-0.0212 0.08467-0.0212h0.1905"/>
 </g>
</svg>
