<?xml version="1.0" encoding="UTF-8"?>
<!-- Created with Inkscape (http://www.inkscape.org/) -->
<svg width="19.854mm" height="31.746mm" version="1.1" viewBox="0 0 19.854 31.746" xmlns="http://www.w3.org/2000/svg">
 <defs>
  <clipPath id="clipPath407">
   <path transform="translate(-2350 -2620.7)" d="m2340 3008.7h469v-470h-469z"/>
  </clipPath>
 </defs>
 <g transform="translate(-76.2 -192.62)">
  <path d="m85.344 224.32h1.5663v-16.679h-1.5663z" fill="#848382" fill-rule="evenodd" stroke="#1f1a17" stroke-linecap="round" stroke-linejoin="round" stroke-miterlimit="10" stroke-width=".077597"/>
  <path d="m86.106 196.76h0.59267l0.29633 0.0423 0.254 0.0423 0.29633 0.0847 0.254 0.0847 0.29633 0.0847 0.254 0.0847 0.762 0.381 0.42333 0.33867 0.254 0.16933 0.21167 0.16934 0.16933 0.21166 0.21167 0.16934 0.16933 0.21166 0.16933 0.21167 0.16933 0.254 0.127 0.21167 0.16933 0.254 0.127 0.254 0.08467 0.254 0.127 0.254 0.08467 0.254 0.08467 0.29633 0.04233 0.254 0.08467 0.29633v0.29634l0.04233 0.29633v0.59267l-0.04233 0.29633v0.254l-0.08467 0.29633-0.04233 0.29634-0.16934 0.508-0.127 0.29633-0.08467 0.254-0.127 0.254-0.16933 0.21167-0.127 0.254-0.16933 0.21166-0.16933 0.21167-0.16933 0.21167-0.21167 0.21166-0.16933 0.16934-0.21167 0.21166-0.254 0.16934-0.21167 0.16933-0.21167 0.127-0.762 0.381-0.254 0.0847-0.29633 0.127-0.254 0.0423-0.29633 0.0847-0.254 0.0423-0.59267 0.0846h-0.59267l-0.59267-0.0846-0.254-0.0423-0.29633-0.0847-0.254-0.0423-0.29633-0.127-0.254-0.0847-0.762-0.381-0.21167-0.127-0.21167-0.16933-0.254-0.16934-0.21167-0.21166-0.16933-0.16934-0.21167-0.21166-0.16933-0.21167-0.16933-0.21167-0.16933-0.21166-0.127-0.254-0.16933-0.21167-0.127-0.254-0.08467-0.254-0.127-0.29633-0.16934-0.508-0.04233-0.29634-0.08467-0.29633v-0.254l-0.04233-0.29633v-0.59267l0.04233-0.29633v-0.29634l0.08467-0.29633 0.04233-0.254 0.08467-0.29633 0.08467-0.254 0.127-0.254 0.08467-0.254 0.127-0.254 0.16933-0.254 0.127-0.21167 0.16933-0.254 0.16933-0.21167 0.16933-0.21166 0.21167-0.16934 0.16933-0.21166 0.21167-0.16934 0.254-0.16933 0.42333-0.33867 0.762-0.381 0.254-0.0847 0.29633-0.0847 0.254-0.0847 0.29633-0.0847 0.254-0.0423 0.29633-0.0423h0.59267" fill="#fff" fill-rule="evenodd"/>
  <path d="m86.106 196.76h0.59267l0.29633 0.0423 0.254 0.0423 0.29633 0.0847 0.254 0.0847 0.29633 0.0847 0.254 0.0847 0.762 0.381 0.42333 0.33867 0.254 0.16933 0.21167 0.16934 0.16933 0.21166 0.21167 0.16934 0.16933 0.21166 0.16933 0.21167 0.16933 0.254 0.127 0.21167 0.16933 0.254 0.127 0.254 0.08467 0.254 0.127 0.254 0.08467 0.254 0.08467 0.29633 0.04233 0.254 0.08467 0.29633v0.29634l0.04233 0.29633v0.59267l-0.04233 0.29633v0.254l-0.08467 0.29633-0.04233 0.29634-0.16934 0.508-0.127 0.29633-0.08467 0.254-0.127 0.254-0.16933 0.21167-0.127 0.254-0.16933 0.21166-0.16933 0.21167-0.16933 0.21167-0.21167 0.21166-0.16933 0.16934-0.21167 0.21166-0.254 0.16934-0.21167 0.16933-0.21167 0.127-0.762 0.381-0.254 0.0847-0.29633 0.127-0.254 0.0423-0.29633 0.0847-0.254 0.0423-0.59267 0.0846h-0.59267l-0.59267-0.0846-0.254-0.0423-0.29633-0.0847-0.254-0.0423-0.29633-0.127-0.254-0.0847-0.762-0.381-0.21167-0.127-0.21167-0.16933-0.254-0.16934-0.21167-0.21166-0.16933-0.16934-0.21167-0.21166-0.16933-0.21167-0.16933-0.21167-0.16933-0.21166-0.127-0.254-0.16933-0.21167-0.127-0.254-0.08467-0.254-0.127-0.29633-0.16934-0.508-0.04233-0.29634-0.08467-0.29633v-0.254l-0.04233-0.29633v-0.59267l0.04233-0.29633v-0.29634l0.08467-0.29633 0.04233-0.254 0.08467-0.29633 0.08467-0.254 0.127-0.254 0.08467-0.254 0.127-0.254 0.16933-0.254 0.127-0.21167 0.16933-0.254 0.16933-0.21167 0.16933-0.21166 0.21167-0.16934 0.16933-0.21166 0.21167-0.16934 0.254-0.16933 0.42333-0.33867 0.762-0.381 0.254-0.0847 0.29633-0.0847 0.254-0.0847 0.29633-0.0847 0.254-0.0423 0.29633-0.0423z" fill="none" stroke="#1f1a17" stroke-linecap="round" stroke-linejoin="round" stroke-miterlimit="10" stroke-width=".10147"/>
  <path d="m86.106 197.48h0.254l0.254 0.0423h0.254l0.254 0.0847 0.254 0.0423 0.21167 0.0423 0.254 0.0847 0.21167 0.0847 0.21167 0.127 0.254 0.0847 0.21167 0.127 0.16933 0.127 0.21167 0.16933 0.16933 0.127 0.21167 0.16933 0.16933 0.16934 0.33867 0.33866 0.127 0.21167 0.127 0.16933 0.16933 0.21167 0.08467 0.21167 0.127 0.21166 0.08467 0.254 0.16934 0.42334 0.08467 0.254 0.16932 1.016v0.508l-0.12699 0.762-0.04233 0.21166-0.08467 0.254-0.08467 0.21167-0.08467 0.254-0.08467 0.21167-0.127 0.21166-0.08467 0.21167-0.16933 0.21167-0.127 0.21166-0.127 0.16934-0.16933 0.16933-0.16933 0.21167-0.16933 0.127-0.21167 0.16933-0.16933 0.16933-0.21167 0.127-0.16933 0.127-0.21167 0.127-0.254 0.127-0.42333 0.1694-0.254 0.0847-0.21167 0.0847-0.762 0.1269h-1.016l-0.762-0.1269-0.21167-0.0847-0.254-0.0847-0.42333-0.1694-0.254-0.127-0.21167-0.127-0.16933-0.127-0.21167-0.127-0.16933-0.16933-0.21167-0.16933-0.16933-0.127-0.16933-0.21167-0.16933-0.16933-0.127-0.16934-0.127-0.21166-0.16933-0.21167-0.08467-0.21167-0.127-0.21166-0.08467-0.21167-0.08467-0.254-0.08467-0.21167-0.08467-0.254-0.04233-0.21166-0.12699-0.762v-0.508l0.16932-1.016 0.08467-0.254 0.16934-0.42334 0.08467-0.254 0.127-0.21166 0.08467-0.21167 0.16933-0.21167 0.127-0.16933 0.127-0.21167 0.33867-0.33866 0.16933-0.16934 0.21167-0.16933 0.16933-0.127 0.21167-0.16933 0.16933-0.127 0.21167-0.127 0.254-0.0847 0.21167-0.127 0.21167-0.0847 0.254-0.0847 0.21167-0.0423 0.254-0.0423 0.254-0.0847h0.254l0.254-0.0423h0.254" fill="#1f1a17" fill-rule="evenodd"/>
  <path d="m86.106 197.48h0.254l0.254 0.0423h0.254l0.254 0.0847 0.254 0.0423 0.21167 0.0423 0.254 0.0847 0.21167 0.0847 0.21167 0.127 0.254 0.0847 0.21167 0.127 0.16933 0.127 0.21167 0.16933 0.16933 0.127 0.21167 0.16933 0.16933 0.16934 0.33867 0.33866 0.127 0.21167 0.127 0.16933 0.16933 0.21167 0.08467 0.21167 0.127 0.21166 0.08467 0.254 0.16934 0.42334 0.08467 0.254 0.16932 1.016v0.508l-0.12699 0.762-0.04233 0.21166-0.08467 0.254-0.08467 0.21167-0.08467 0.254-0.08467 0.21167-0.127 0.21166-0.08467 0.21167-0.16933 0.21167-0.127 0.21166-0.127 0.16934-0.16933 0.16933-0.16933 0.21167-0.16933 0.127-0.21167 0.16933-0.16933 0.16933-0.21167 0.127-0.16933 0.127-0.21167 0.127-0.254 0.127-0.42333 0.1694-0.254 0.0847-0.21167 0.0847-0.762 0.1269h-1.016l-0.762-0.1269-0.21167-0.0847-0.254-0.0847-0.42333-0.1694-0.254-0.127-0.21167-0.127-0.16933-0.127-0.21167-0.127-0.16933-0.16933-0.21167-0.16933-0.16933-0.127-0.16933-0.21167-0.16933-0.16933-0.127-0.16934-0.127-0.21166-0.16933-0.21167-0.08467-0.21167-0.127-0.21166-0.08467-0.21167-0.08467-0.254-0.08467-0.21167-0.08467-0.254-0.04233-0.21166-0.12699-0.762v-0.508l0.16932-1.016 0.08467-0.254 0.16934-0.42334 0.08467-0.254 0.127-0.21166 0.08467-0.21167 0.16933-0.21167 0.127-0.16933 0.127-0.21167 0.33867-0.33866 0.16933-0.16934 0.21167-0.16933 0.16933-0.127 0.21167-0.16933 0.16933-0.127 0.21167-0.127 0.254-0.0847 0.21167-0.127 0.21167-0.0847 0.254-0.0847 0.21167-0.0423 0.254-0.0423 0.254-0.0847h0.254l0.254-0.0423z" fill="none" stroke="#1f1a17" stroke-linecap="round" stroke-linejoin="round" stroke-miterlimit="10" stroke-width=".10147"/>
  <g fill="#fff">
   <path d="m77.047 209.46 16.002-16.002 2.1167 2.1167-16.002 16.002-2.1167-2.1167" fill-rule="evenodd"/>
   <path transform="matrix(.042333 0 0 -.042333 76.623 209.04)" d="m0 0 378 378 20-20-378-378zm378 378 10 10 10-10-10-10zm20 0 51-50-21-20-50 50zm51-50 10-10-10-10-11 10zm0-20-379-378-20 20 378 378zm-379-378-10-10-10 10 10 10zm-20 0-50 50 20 20 50-50zm-50 50-10 10 10 10 10-10-10-10" clip-path="url(#clipPath407)"/>
   <path d="m77.047 209.46 16.002-16.002 2.1167 2.1167-16.002 16.002-2.1167-2.1167" fill-rule="evenodd"/>
  </g>
  <path d="m76.666 209.08 16.044-16.002 0.71967 0.71967-16.044 16.002zm16.044-16.002 0.33867-0.33867 0.381 0.33867-0.381 0.381zm0.71967 0 2.1167 2.1167-0.71967 0.71966-2.1167-2.1167zm2.1167 2.1167 0.33867 0.381-0.33867 0.33866-0.381-0.33866zm0 0.71966-16.044 16.002-0.67733-0.67733 16.002-16.044zm-16.044 16.002-0.33867 0.381-0.33867-0.381 0.33867-0.33866zm-0.67733 0-2.159-2.1167 0.71967-0.71967 2.1167 2.159zm-2.159-2.1167-0.33867-0.33867 0.33867-0.381 0.381 0.381-0.381 0.33867" fill="#1f1a17"/>
 </g>
</svg>
