<?xml version="1.0" encoding="UTF-8"?>
<!-- Created with Inkscape (http://www.inkscape.org/) -->
<svg width="14.807mm" height="14.807mm" version="1.1" viewBox="0 0 14.807 14.807" xmlns="http://www.w3.org/2000/svg">
 <defs>
  <clipPath id="clipPath685">
   <path transform="translate(-241.02 -416.96)" d="m220.02 375.08h42v42h-42z"/>
  </clipPath>
 </defs>
 <g transform="translate(-36.777 -142.61)">
  <path transform="matrix(.35278 0 0 -.35278 44.18 142.65)" d="m0 0h1.08l1.08-0.12 1.02-0.12 1.02-0.18 2.04-0.48 1.92-0.72 0.9-0.42 1.8-0.96 0.84-0.54 1.56-1.2 0.78-0.66 1.44-1.44 0.66-0.78 1.2-1.56 0.54-0.84 0.96-1.8 0.42-0.9 0.36-0.96 0.36-1.02 0.24-0.96 0.24-1.02 0.18-1.02 0.12-1.02 0.12-1.08v-2.16l-0.12-1.08-0.12-1.02-0.18-1.02-0.48-2.04-0.72-1.92-0.42-0.9-0.96-1.8-0.54-0.84-0.6-0.78-0.6-0.84-0.66-0.72-1.44-1.44-0.78-0.66-1.56-1.2-0.84-0.54-1.8-0.96-0.9-0.42-1.92-0.72-2.04-0.48-1.02-0.18-1.02-0.12-1.08-0.12h-2.16l-1.08 0.12-1.02 0.12-1.02 0.18-2.04 0.48-1.92 0.72-0.9 0.42-1.8 0.96-0.84 0.54-1.56 1.2-0.78 0.66-1.44 1.44-0.66 0.72-0.6 0.84-0.6 0.78-0.54 0.84-0.96 1.8-0.42 0.9-0.72 1.92-0.48 2.04-0.18 1.02-0.12 1.02-0.12 1.08v2.16l0.12 1.08 0.12 1.02 0.18 1.02 0.24 1.02 0.24 0.96 0.36 1.02 0.36 0.96 0.42 0.9 0.96 1.8 0.54 0.84 1.2 1.56 0.66 0.78 1.44 1.44 0.78 0.66 1.56 1.2 0.84 0.54 1.8 0.96 0.9 0.42 1.92 0.72 2.04 0.48 1.02 0.18 1.02 0.12 1.08 0.12z" clip-path="url(#clipPath685)" fill="#fff" stroke="#1e1917" stroke-linecap="round" stroke-linejoin="round" stroke-miterlimit="10" stroke-width=".212"/>
  <path d="m37.216 148.87h5.1647v-5.334l8.7418 6.4982-8.7418 6.5193v-5.1647h-5.1647v-2.5188" fill="#282966" fill-rule="evenodd"/>
 </g>
</svg>
