<?xml version="1.0" encoding="UTF-8"?>
<!-- Created with Inkscape (http://www.inkscape.org/) -->
<svg width="20.377mm" height="38.771mm" version="1.1" viewBox="0 0 20.377 38.771" xmlns="http://www.w3.org/2000/svg">
 <defs>
  <clipPath id="clipPath219">
   <path transform="translate(-300.24 -270.92)" d="m289.56 259.04h10.74v11.88h-10.74z"/>
  </clipPath>
  <clipPath id="clipPath227">
   <path transform="translate(2.5e-5 2.5e-5)" d="m300.54 346.76h16.86v22.2h-16.86z"/>
  </clipPath>
 </defs>
 <g transform="translate(-26.723 -129.65)">
  <g fill="#1e1917">
   <path transform="matrix(.35278 0 0 -.35278 41.053 164.23)" d="M 0,0 -4.86,-11.88 -10.68,-0.12 0,0" clip-path="url(#clipPath219)" fill-rule="evenodd"/>
   <path d="m30.85 158.93-4.1275-1.7357 4.0852-2.0743 0.04233 3.81" fill-rule="evenodd"/>
   <path d="m30.829 157.39h14.69v-0.6985h-14.69z"/>
   <path d="m30.85 149.43-4.1275-1.7357 4.0852-2.0743 0.04233 3.81" fill-rule="evenodd"/>
   <path d="m30.829 147.89h14.69v-0.71966h-14.69z"/>
   <path d="m38.809 164.65h0.6985v-34.988h-0.6985z"/>
  </g>
  <path d="m41.222 137.39h5.842v-7.7047h-5.842z" fill="#7e7e7e"/>
  <path transform="matrix(.35278 0 0 -.35278 -64.865 259.8)" d="m300.72 368.84h16.56v-21.84h-16.56z" clip-path="url(#clipPath227)" fill="none" stroke="#1e1917" stroke-linecap="round" stroke-linejoin="round" stroke-miterlimit="10" stroke-width=".206"/>
  <path d="m44.122 130.89h0.16933l0.08467 0.0212h0.08467l0.16933 0.0423 0.0635 0.0423 0.08467 0.0212 0.0635 0.0423 0.08467 0.0212 0.127 0.0847 0.0635 0.0635 0.0635 0.0423 0.0635 0.0635 0.0635 0.0423 0.0635 0.0635 0.08467 0.127 0.0635 0.0635 0.04233 0.0635 0.04233 0.0847 0.02117 0.0635 0.04233 0.0847 0.02117 0.0635 0.04233 0.0847 0.04234 0.1694v0.0847l0.02117 0.0847v0.33867l-0.02117 0.0847v0.0847l-0.04233 0.16933-0.04233 0.0847-0.02117 0.0635-0.04233 0.0847-0.02117 0.0635-0.04233 0.0847-0.04233 0.0635-0.0635 0.0635-0.08467 0.127-0.0635 0.0635-0.0635 0.0423-0.0635 0.0635-0.0635 0.0423-0.0635 0.0635-0.127 0.0847-0.08467 0.0212-0.0635 0.0423-0.08467 0.0212-0.0635 0.0423-0.16933 0.0423h-0.08467l-0.08467 0.0212h-0.33867l-0.08467-0.0212h-0.08467l-0.08467-0.0212-0.0635-0.0212-0.08467-0.0423-0.08467-0.0212-0.0635-0.0423-0.08467-0.0212-0.127-0.0847-0.0635-0.0635-0.0635-0.0423-0.0635-0.0635-0.0635-0.0423-0.04233-0.0635-0.0635-0.0635-0.04233-0.0635-0.0635-0.0635-0.04233-0.0635-0.04233-0.0847-0.02117-0.0635-0.04233-0.0847-0.02117-0.0635-0.02117-0.0847-0.04233-0.0847v-0.0847l-0.04234-0.1694v-0.33867l0.04234-0.1694v-0.0847l0.04233-0.0847 0.02117-0.0847 0.02117-0.0635 0.04233-0.0847 0.02117-0.0635 0.04233-0.0847 0.04233-0.0635 0.0635-0.0635 0.04233-0.0635 0.0635-0.0635 0.04233-0.0635 0.0635-0.0423 0.0635-0.0635 0.0635-0.0423 0.0635-0.0635 0.127-0.0847 0.08467-0.0212 0.0635-0.0423 0.08467-0.0212 0.08467-0.0423 0.0635-0.0212 0.08467-0.0212h0.08467l0.08467-0.0212h0.16933" fill="#fff" fill-rule="evenodd" stroke="#1e1917" stroke-linecap="round" stroke-linejoin="round" stroke-miterlimit="10" stroke-width=".072672"/>
 </g>
</svg>
