<?xml version="1.0" encoding="UTF-8"?>
<!-- Created with Inkscape (http://www.inkscape.org/) -->
<svg width="11.362mm" height="21.881mm" version="1.1" viewBox="0 0 11.362 21.881" xmlns="http://www.w3.org/2000/svg">
 <defs>
  <clipPath id="clipPath62">
   <path transform="translate(0 2.5e-5)" d="m287.7 203.84h16.92v22.32h-16.92z"/>
  </clipPath>
  <clipPath id="clipPath67">
   <path transform="translate(-283.2 -176.06)" d="m272.46 164.12h10.8v11.94h-10.8z"/>
  </clipPath>
 </defs>
 <g transform="translate(-52.917 -159.28)">
  <path d="m58.378 167.06h5.8632v-7.747h-5.8632z" fill="#7e7e7e"/>
  <path transform="matrix(.35278 0 0 -.35278 -43.18 239.06)" d="m287.88 226.04h16.62v-21.96h-16.62z" clip-path="url(#clipPath62)" fill="none" stroke="#1e1917" stroke-linecap="round" stroke-linejoin="round" stroke-miterlimit="10" stroke-width=".212"/>
  <path d="m61.299 160.52h0.08467l0.08467 0.0212h0.08467l0.08467 0.0212 0.0635 0.0212 0.16933 0.0423 0.0635 0.0423 0.08467 0.0212 0.0635 0.0423 0.08467 0.0423 0.127 0.0847 0.0635 0.0635 0.0635 0.0423 0.0635 0.0635 0.04233 0.0635 0.0635 0.0635 0.127 0.1905 0.04233 0.0847 0.04233 0.0635 0.04233 0.0847 0.02117 0.0635 0.08467 0.33867v0.0847l0.02117 0.0847v0.16934l-0.02117 0.0847v0.0847l-0.10583 0.42333-0.04233 0.0635-0.04233 0.0847-0.127 0.1905-0.04233 0.0847-0.0635 0.0423-0.04233 0.0635-0.127 0.127-0.1905 0.127-0.08467 0.0423-0.0635 0.0423-0.08467 0.0423-0.0635 0.0212-0.16933 0.0423-0.0635 0.0212-0.16933 0.0423h-0.35983l-0.08467-0.0212-0.0635-0.0212-0.254-0.0635-0.0635-0.0212-0.08467-0.0423-0.0635-0.0423-0.08467-0.0423-0.1905-0.127-0.127-0.127-0.04233-0.0635-0.0635-0.0423-0.04233-0.0847-0.127-0.1905-0.04233-0.0847-0.04233-0.0635-0.10583-0.42333v-0.0847l-0.02117-0.0847v-0.16934l0.02117-0.0847v-0.0847l0.08467-0.33867 0.02117-0.0635 0.04233-0.0847 0.04233-0.0635 0.04233-0.0847 0.127-0.1905 0.0635-0.0635 0.04233-0.0635 0.0635-0.0635 0.0635-0.0423 0.0635-0.0635 0.127-0.0847 0.08467-0.0423 0.0635-0.0423 0.08467-0.0212 0.0635-0.0423 0.254-0.0635 0.0635-0.0212h0.08467l0.08467-0.0212h0.10583" fill="#fff" fill-rule="evenodd" stroke="#1e1917" stroke-linecap="round" stroke-linejoin="round" stroke-miterlimit="10" stroke-width=".074789"/>
  <g fill="#1e1917">
   <path d="m54.483 177.08h0.6985v-13.674h-0.6985z"/>
   <path d="m52.917 163.53 1.7357-4.2122 2.0532 4.191-3.7888 0.0212" fill-rule="evenodd"/>
   <path transform="matrix(.35278 0 0 -.35278 56.727 176.95)" d="M 0,0 -4.92,-11.94 -10.74,-0.06 0,0" clip-path="url(#clipPath67)" fill-rule="evenodd"/>
  </g>
 </g>
</svg>
