<?xml version="1.0" encoding="UTF-8"?>
<!-- Created with Inkscape (http://www.inkscape.org/) -->
<svg width="44.423mm" height="7.7784mm" version="1.1" viewBox="0 0 44.423 7.7784" xmlns="http://www.w3.org/2000/svg">
 <defs>
  <clipPath id="clipPath166">
   <path transform="translate(-362.22 -167.42)" d="m362.22 156.5h11.88v10.92h-11.88z"/>
  </clipPath>
 </defs>
 <g transform="translate(-30.427 -219.07)">
  <g fill="#1e1917">
   <path d="m38.063 223.32h13.547v-0.6985h-13.547z"/>
   <path d="m51.461 221.04 4.191 1.7357-4.1487 2.0955-0.04233-3.8312" fill-rule="evenodd"/>
   <path d="m60.33 223.32h13.568v-0.6985h-13.568z"/>
   <path d="m60.457 224.89-4.1698-1.7568 4.1487-2.0743 0.02117 3.8312" fill-rule="evenodd"/>
  </g>
  <path d="m30.464 226.82h5.9267v-7.7047h-5.9267z" fill="#7e7e7e"/>
  <path d="m30.464 219.11h5.9267v7.7047h-5.9267z" fill="none" stroke="#1e1917" stroke-linecap="round" stroke-linejoin="round" stroke-miterlimit="10" stroke-width=".073731"/>
  <g fill-rule="evenodd">
   <path d="m33.406 220.32h0.16933l0.08467 0.0212h0.08467l0.16933 0.0423 0.0635 0.0423 0.08467 0.0212 0.08467 0.0423 0.0635 0.0423 0.08467 0.0212 0.0635 0.0635 0.127 0.0847 0.0635 0.0635 0.0635 0.0423 0.04233 0.0635 0.0635 0.0635 0.08466 0.127 0.04233 0.0847 0.08467 0.127 0.04233 0.0847 0.02117 0.0847 0.02117 0.0635 0.04233 0.0847v0.0847l0.04233 0.16933v0.35983l-0.02117 0.0635-0.02117 0.0847v0.0847l-0.04233 0.0847-0.04233 0.16934-0.04233 0.0635-0.04233 0.0847-0.16933 0.254-0.0635 0.0635-0.04233 0.0635-0.0635 0.0635-0.0635 0.0423-0.0635 0.0635-0.127 0.0847-0.08467 0.0423-0.0635 0.0423-0.08467 0.0212-0.08467 0.0423-0.0635 0.0212-0.254 0.0635h-0.16933l-0.08467 0.0212-0.08467-0.0212h-0.16933l-0.33867-0.0847-0.0635-0.0423-0.08467-0.0212-0.0635-0.0423-0.08467-0.0423-0.127-0.0847-0.0635-0.0635-0.0635-0.0423-0.127-0.127-0.08467-0.127-0.0635-0.0635-0.08467-0.127-0.02117-0.0847-0.04233-0.0635-0.04233-0.0847-0.06351-0.2541v-0.0847l-0.02117-0.0635v-0.35983l0.02117-0.0847v-0.0847l0.04233-0.16934 0.02117-0.0635 0.08467-0.16933 0.02117-0.0635 0.04233-0.0635 0.04233-0.0847 0.0635-0.0635 0.08467-0.127 0.0635-0.0635 0.0635-0.0423 0.0635-0.0635 0.127-0.0847 0.0635-0.0635 0.08467-0.0212 0.0635-0.0423 0.08467-0.0423 0.0635-0.0212 0.08467-0.0423 0.16933-0.0423h0.08467l0.08467-0.0212h0.16933" fill="#fff" stroke="#1e1917" stroke-linecap="round" stroke-linejoin="round" stroke-miterlimit="10" stroke-width=".073731"/>
   <path transform="matrix(.35278 0 0 -.35278 70.659 221.12)" d="M 0,0 11.88,-4.92 0.12,-10.86 0,0" clip-path="url(#clipPath166)" fill="#1e1917"/>
   <path d="m41.259 224.81-4.1698-1.7568 4.1487-2.0743 0.02117 3.8312" fill="#1e1917"/>
  </g>
 </g>
</svg>
