<?xml version="1.0" encoding="UTF-8"?>
<!-- Created with Inkscape (http://www.inkscape.org/) -->
<svg width="31.999mm" height="3.5261mm" version="1.1" viewBox="0 0 31.999 3.5261" xmlns="http://www.w3.org/2000/svg">
 <g transform="translate(-41.275 -157.16)" fill="#1e1917">
  <path d="m71.564 157.2h0.16933l0.16933 0.0423h0.08467l0.0635 0.0423 0.16934 0.0424 0.0635 0.0423 0.08467 0.0423 0.1905 0.127 0.0635 0.0635 0.0635 0.0423 0.127 0.127 0.08466 0.127 0.0635 0.0635 0.04233 0.0635 0.04233 0.0847 0.02117 0.0635 0.04233 0.0847 0.02117 0.0635 0.04233 0.0847 0.04234 0.1694v0.0847l0.02117 0.0847v0.35983l-0.02117 0.0847v0.0847l-0.04234 0.1694-0.04233 0.0847-0.02117 0.0635-0.04233 0.0847-0.02117 0.0635-0.04233 0.0847-0.04233 0.0635-0.0635 0.0635-0.08466 0.127-0.1905 0.1905-0.254 0.16933-0.08467 0.0423-0.0635 0.0423-0.08467 0.0212-0.08467 0.0423-0.0635 0.0212-0.08467 0.0212h-0.08467l-0.08467 0.0212h-0.33867l-0.08467-0.0212h-0.08467l-0.16933-0.0423-0.08467-0.0423-0.0635-0.0212-0.08467-0.0423-0.0635-0.0423-0.08467-0.0423-0.1905-0.127-0.127-0.127-0.04233-0.0635-0.0635-0.0635-0.12699-0.1905-0.04233-0.0847-0.04233-0.0635-0.04233-0.0847-0.02117-0.0635-0.04233-0.16933-0.04234-0.1694v-0.0847l-0.02117-0.0847v-0.1905l0.02117-0.0847v-0.0847l0.04233-0.16933 0.04234-0.1694 0.02117-0.0635 0.04233-0.0847 0.04233-0.0635 0.04233-0.0847 0.08467-0.127 0.04233-0.0635 0.0635-0.0635 0.04233-0.0635 0.0635-0.0635 0.0635-0.0423 0.0635-0.0635 0.127-0.0847 0.08467-0.0423 0.0635-0.0423 0.08467-0.0423 0.0635-0.0212 0.08467-0.0212 0.08467-0.0423h0.08467l0.16933-0.0423h0.16933" fill-rule="evenodd" stroke="#1e1917" stroke-linecap="round" stroke-linejoin="round" stroke-miterlimit="10" stroke-width=".075494"/>
  <path d="m55.605 160.37h10.499v-2.8998h-10.499z"/>
  <path d="m41.275 160.37h10.499v-2.8998h-10.499z"/>
 </g>
</svg>
