<?xml version="1.0" encoding="UTF-8"?>
<!-- Created with Inkscape (http://www.inkscape.org/) -->
<svg width="7.6708mm" height="18.371mm" version="1.1" viewBox="0 0 7.6708 18.371" xmlns="http://www.w3.org/2000/svg">
 <g transform="translate(-116.68 -99.219)">
  <path d="m120.02 117.54h1.016v-6.7522h-1.016z" fill="#807d7d"/>
  <path d="m120.02 110.79h1.016v6.7522h-1.016z" fill="none" stroke="#2b2625" stroke-linecap="round" stroke-linejoin="round" stroke-miterlimit="10" stroke-width=".094897"/>
  <path d="m121.03 110.79z" fill="none" stroke="#2b2625" stroke-linecap="round" stroke-linejoin="round" stroke-miterlimit="10" stroke-width=".094897"/>
  <g>
   <path d="m117.29 99.254h6.5617l0.0423 0.02117h0.0212l0.0212 0.02117h0.0423l0.0212 0.02117h0.0212l0.0423 0.04233h0.0212l0.0423 0.04233 0.106 0.10585v0.02117l0.0212 0.04233 0.0212 0.02117v0.02117l0.0212 0.02117v0.0635l0.0212 0.02117v11.049l-0.0212 0.0212v0.0635l-0.0212 0.0212v0.0423l-0.0423 0.0423v0.0212l-0.1696 0.1696h-0.0212l-0.0423 0.0423h-0.0212l-0.0423 0.0212h-0.0212l-0.0212 0.0212h-6.7522l-0.0212-0.0212h-0.0212l-0.0423-0.0212h-0.0212l-0.0423-0.0423h-0.0212l-0.1696-0.1696v-0.0212l-0.0423-0.0423v-0.0423l-0.0212-0.0212v-0.0635l-0.0212-0.0212v-11.049l0.0212-0.02117v-0.0635l0.0212-0.02117v-0.02117l0.0212-0.02117 0.0212-0.04233v-0.02117l0.106-0.10585 0.0423-0.04233h0.0212l0.0423-0.04233h0.0212l0.0212-0.02117h0.0423l0.0212-0.02117h0.0212l0.0423-0.02117h0.10583" fill="#fff" fill-rule="evenodd" stroke="#2b2625" stroke-linecap="round" stroke-linejoin="round" stroke-miterlimit="10" stroke-width=".071261"/>
   <path d="m117.75 99.868h5.6092l0.0212 0.02117h0.0635l0.0212 0.02117h0.0635l0.0212 0.02117h0.0212l0.0848 0.08468 0.0635 0.0635v0.0212l0.0423 0.0423v0.0212l0.0212 0.0212v0.0212l0.0212 0.0212v0.0847l0.0212 0.0212v9.9272l-0.0212 0.0212v0.0847l-0.0212 0.0212v0.0212l-0.0212 0.0212v0.0212l-0.0424 0.0424v0.0212l-0.0636 0.0636h-0.0212l-0.0212 0.0212v0.0212h-0.0212l-0.0423 0.0423h-0.0212l-0.0423 0.0212h-0.0423l-0.0212 0.0212h-5.7785l-0.0212-0.0212h-0.0423l-0.0212-0.0212h-0.0212l-0.0423-0.0423h-0.0212l-0.0424-0.0424h-0.0212v-0.0212l-0.0636-0.0636v-0.0212l-0.0423-0.0423v-0.0212l-0.0212-0.0212v-0.0635l-0.0212-0.0212v-10.033l0.0212-0.0212v-0.0423l0.0212-0.0212v-0.0212l0.0423-0.0423v-0.0212l0.0635-0.0635v-0.0212l0.0424-0.04234h0.0212l0.0424-0.04234h0.0212l0.0212-0.02117h0.0423l0.0212-0.02117h0.0847l0.0212-0.02117h0.0212" fill="#eeee28" fill-rule="evenodd"/>
   <path d="m117.71 109.9 2.286-9.3133h0.84667l2.413 9.3133h-0.889l-0.6985-2.8152h-2.4765l-0.635 2.8152zm1.7145-3.81h2.0108l-0.61383-2.5823-0.0847-0.29634-0.0212-0.14816-0.0423-0.127-0.0423-0.254-0.0423-0.127-0.0423-0.254-0.0212-0.10584-0.0212-0.10583-0.0212-0.127-0.0212-0.10583-0.0212-0.0847-0.0212-0.10583-0.0212-0.10584-0.0212 0.127v0.10584l-0.0424 0.21166-0.0212 0.127-0.0212 0.10584-0.0212 0.10583-0.0212 0.127-0.0212 0.10583v0.10584l-0.0423 0.10583-0.0212 0.10583-0.0212 0.127-0.0212 0.10584-0.0423 0.21166-0.65617 2.7517" fill="#2b2625"/>
  </g>
 </g>
</svg>
