<?xml version="1.0" encoding="UTF-8"?>
<!-- Created with Inkscape (http://www.inkscape.org/) -->
<svg width="15.071mm" height="32.808mm" version="1.1" viewBox="0 0 15.071 32.808" xmlns="http://www.w3.org/2000/svg">
 <defs>
  <clipPath id="clipPath716">
   <path transform="translate(2.5e-5 2.5e-5)" d="m287.64 622.22h42.54v14.76h-42.54z"/>
  </clipPath>
  <clipPath id="clipPath721">
   <path transform="translate(-311.16 -591.02)" d="m306.96 543.98h4.5v47.28h-4.5z"/>
  </clipPath>
  <clipPath id="clipPath723">
   <path transform="translate(-311.16 -591.02)" d="m306.96 543.98h4.5v47.28h-4.5z"/>
  </clipPath>
  <clipPath id="clipPath726">
   <path transform="translate(-308.76 -586.76)" d="m288.06 585.62h42.3v36.48h-42.3z"/>
  </clipPath>
 </defs>
 <g transform="translate(-101.6 -51.329)">
  <path d="m101.64 56.43h14.859v-5.0588h-14.859z" fill="#1f1a17"/>
  <path transform="matrix(.35278 0 0 -.35278 .12634 276.04)" d="m329.88 622.52h-42.12v14.34h42.12z" clip-path="url(#clipPath716)" fill="none" stroke="#1f1a17" stroke-linecap="round" stroke-linejoin="round" stroke-miterlimit="10" stroke-width=".282"/>
  <g>
   <path d="m102.21 54.906h12.128v-1.6087h-12.128z" fill="#fff"/>
   <path d="m116.27 54.144-2.6882 1.905v-3.9582l2.6882 2.0532" fill="#fff" fill-rule="evenodd" stroke="#fff" stroke-linecap="round" stroke-linejoin="round" stroke-miterlimit="10" stroke-width=".099483"/>
   <path d="m108.5 84.095h1.397v-16.552h-1.397z" fill="#848382"/>
  </g>
  <path transform="matrix(.35278 0 0 -.35278 109.9 67.542)" d="m-3.96 0h3.96v-46.92h-3.96z" clip-path="url(#clipPath721)" fill="none" stroke="#1f1a17" stroke-linecap="round" stroke-linejoin="round" stroke-miterlimit="10" stroke-width=".282"/>
  <path transform="matrix(.35278 0 0 -.35278 109.9 67.542)" d="m0 0z" clip-path="url(#clipPath723)" fill="none" stroke="#1f1a17" stroke-linecap="round" stroke-linejoin="round" stroke-miterlimit="10" stroke-width=".282"/>
  <path d="m109.26 68.918-7.0697-12.086h14.034l-6.9638 12.086" fill="#fff" fill-rule="evenodd"/>
  <path transform="matrix(.35278 0 0 -.35278 109.05 69.045)" d="m0 0-20.1 34.26 1.26 0.72 20.04-34.26zm-20.1 34.26-0.6 1.08h1.26v-0.72zm0.66 1.08h39.78v-1.4401h-39.78zm39.78 0h1.26l-0.6-1.08-0.66 0.36zm0.66-1.08-19.8-34.26-1.26 0.72 19.8 34.26zm-19.8-34.26-0.6-1.08-0.6 1.08 0.6 0.36 0.6-0.36" clip-path="url(#clipPath726)" fill="#1f1a17"/>
  <text transform="scale(.99981 1.0002)" x="105.78924" y="62.937096" font-size="4.2341px" stroke-width=".35284" xml:space="preserve"><tspan x="105.78924 109.40834" y="62.937096" fill="#1f1a17" font-family="Arial" font-size="6.5092px" stroke-width=".35284">60</tspan></text>
 </g>
</svg>
