<?xml version="1.0" encoding="UTF-8"?>
<!-- Created with Inkscape (http://www.inkscape.org/) -->
<svg width="9.271mm" height="23.968mm" version="1.1" viewBox="0 0 9.271 23.968" xmlns="http://www.w3.org/2000/svg">
 <defs>
  <clipPath id="clipPath632">
   <path transform="translate(-2471 -5080.7)" d="m2465 5080.7h219v-269h-219z"/>
  </clipPath>
 </defs>
 <g transform="translate(-102.92 -69.32)">
  <path d="m107.03 93.239h1.016v-13.335h-1.016z" fill="#848382" fill-rule="evenodd" stroke="#1f1a17" stroke-linecap="round" stroke-linejoin="round" stroke-miterlimit="10" stroke-width=".099272"/>
  <path d="m103.18 80.412h8.7207v-10.88h-8.7207z" fill="#fff" fill-rule="evenodd"/>
  <path transform="matrix(.042333 0 0 -.042333 103.18 69.32)" d="m0 0h206v-11h-206zm206 0h7v-5h-7zm7-5v-257h-13v257zm0-257v-5h-7v5zm-7-5h-206v11h206zm-206 0h-6v5h6zm-6 5v257h12v-257zm0 257v5h6v-5h-6" clip-path="url(#clipPath632)" fill="#1f1a17"/>
  <path d="m108.43 70.421 0.46567 0.42333-1.5663 3.3867 0.0423-0.04233h0.0847l0.0423-0.04233h0.0847l0.0423-0.04233h0.127l0.0423-0.04233h0.2963l0.0423 0.04233h0.16933l0.0423 0.04233h0.0423l0.0423 0.04233h0.0423l0.0423 0.04233h0.0423l0.0423 0.04233h0.0423l0.0423 0.04233v0.04233h0.0423l0.2538 0.25398v0.04233l0.1269 0.12699v0.04233l0.0846 0.08466v0.04233l0.0423 0.04233v0.04233l0.0423 0.08467 0.0423 0.04233v0.04233l0.0423 0.04233v0.127l0.0423 0.04233v0.04233l0.0423 0.04233v0.127l0.0423 0.04233v0.127l0.0423 0.04233v0.254l0.0423 0.04233v0.71967l-0.0423 0.08467v0.254l-0.0423 0.08467v0.08467l-0.0423 0.08467v0.08467l-0.0423 0.04233v0.08467l-0.0846 0.16934v0.04233l-0.0423 0.08467-0.0423 0.04233-0.0423 0.08467v0.04233l-0.0423 0.08467-0.0423 0.04233-0.0423 0.08467-0.0846 0.08466-0.0423 0.08467-0.0846 0.08466-0.0847 0.04233-0.1269 0.12699-0.0847 0.04233-0.0846 0.08466h-0.0847l-0.0846 0.08466h-0.0423l-0.0847 0.04233h-0.127l-0.0423 0.04233h-0.46567l-0.0847-0.04233h-0.0847l-0.0423-0.04233h-0.0847l-0.0846-0.08466h-0.0847l-0.1692-0.16932-0.0847-0.04233-0.2115-0.21165-0.0423-0.08467-0.0846-0.08466-0.0423-0.08467-0.0423-0.04233-0.0423-0.08467v-0.04233l-0.0846-0.16934v-0.04233l-0.0846-0.16934v-0.08467l-0.0423-0.08467v-0.04233l-0.0423-0.08467v-0.08467l-0.0423-0.08467v-0.254l-0.0423-0.08467v-0.635l0.0423-0.08467v-0.254l0.0423-0.04233v-0.16933l0.0423-0.04233v-0.16933l0.0423-0.04233v-0.08467l0.0423-0.08467v-0.04233l0.0846-0.16934v-0.08467l0.1692-0.33868v-0.08467l0.0423-0.08467 0.0423-0.127 0.0423-0.08467 0.0847-0.08467zm-0.635 4.3603h-0.127l-0.0423 0.04233h-0.127l-0.0423 0.04233h-0.0423l-0.0423 0.04233h-0.0423l-0.0423 0.04233h-0.0423l-0.2538 0.25398v0.04233h-0.0423v0.04233l-0.0423 0.04233v0.04233l-0.0846 0.08466v0.04233l-0.0423 0.04233v0.04233l-0.0423 0.04233v0.08467l-0.0423 0.04233v0.08467h-0.0423v0.127l-0.0423 0.04233v0.254l-0.0423 0.08467v0.33867l0.0423 0.08467v0.254l0.0423 0.04233v0.127l0.0423 0.04233v0.08467l0.0423 0.04233v0.04233l0.0423 0.04233v0.08467l0.0846 0.08466v0.04233l0.0846 0.08466v0.04233l0.0846 0.08466v0.04233h0.0423v0.04233h0.0423l0.0423 0.04233v0.04233h0.0423l0.0423 0.04233h0.0423v0.04233h0.0423l0.0423 0.04233h0.0423l0.0423 0.04233h0.0846l0.0423 0.04233h0.4234l0.0423-0.04233h0.0847v-0.04233h0.0847l0.0846-0.08466h0.0423v-0.04233h0.0847v-0.04233l0.1269-0.12699v-0.04233h0.0423l0.0423-0.04233v-0.04233l0.0846-0.08466v-0.04233l0.0423-0.04233v-0.04233l0.0423-0.04233v-0.08467l0.0423-0.04233 0.0423-0.08467v-0.08467l0.0423-0.08467v-0.08467l0.0423-0.08467v-0.84667l-0.0423-0.08467v-0.08467l-0.0423-0.08467v-0.04233l-0.0846-0.16934v-0.04233l-0.0846-0.16934-0.0423-0.04233-0.0423-0.08467v-0.04233h-0.0423l-0.0423-0.04233v-0.04233h-0.0423v-0.04233h-0.0423v-0.04233l-0.0846-0.08466h-0.0423v-0.04233h-0.0847v-0.04233h-0.0423l-0.0423-0.04233h-0.0423l-0.0423-0.04233h-0.1693v-0.04233h-0.127" fill="#1f1a17"/>
 </g>
</svg>
