<?xml version="1.0" encoding="UTF-8"?>
<!-- Created with Inkscape (http://www.inkscape.org/) -->
<svg width="17.187mm" height="31.068mm" version="1.1" viewBox="0 0 17.187 31.068" xmlns="http://www.w3.org/2000/svg">
 <defs>
  <clipPath id="clipPath52">
   <path transform="translate(-243.84 -385.34)" d="m216.66 345.38h48.72v48.36h-48.72z"/>
  </clipPath>
 </defs>
 <path d="m2.9466 8.4658 5.3671-5.3671 5.6477 5.6477-5.1566 5.1566z" fill="#fff" stroke-width=".26458"/>
 <path d="m7.5565 31.03h2.032v-15.663h-2.032z" fill="#7e7e7e"/>
 <path d="m7.5565 15.367h2.032v15.663h-2.032z" fill="none" stroke="#1e1917" stroke-linecap="round" stroke-linejoin="round" stroke-miterlimit="10" stroke-width=".074436"/>
 <path transform="matrix(.35278 0 0 -.35278 9.5885 2.9633)" d="m0 0-18.66-18.54-5.7 5.58 18.72 18.54zm-24.36-18.54-2.82 2.82 2.82 2.76 2.82-2.76zm5.7 5.58 18.66-18.54-5.64-5.58-18.72 18.54zm18.66-24.12-2.82-2.82-2.82 2.82 2.82 2.82zm-5.64 5.58 18.66 18.54 5.7-5.58-18.72-18.54zm24.36 18.54 2.82-2.76-2.82-2.82-2.82 2.82zm-5.7-5.58-18.66 18.54 5.64 5.58 18.72-18.54zm-18.66 24.12 2.82 2.82 2.82-2.82-2.82-2.82-2.82 2.82" clip-path="url(#clipPath52)" fill="#1e1917"/>
</svg>
