<?xml version="1.0" encoding="UTF-8"?>
<!-- Created with Inkscape (http://www.inkscape.org/) -->
<svg width="17.187mm" height="31.068mm" version="1.1" viewBox="0 0 17.187 31.068" xmlns="http://www.w3.org/2000/svg">
 <path d="m2.7362 8.2319 5.6828-5.6828 5.8582 5.8582-5.8231 5.8231z" fill="#fff" stroke-width=".26458"/>
 <path d="m7.5565 31.03h2.032v-15.663h-2.032z" fill="#7e7e7e"/>
 <path d="m7.5565 15.367h2.032v15.663h-2.032z" fill="none" stroke="#1e1917" stroke-linecap="round" stroke-linejoin="round" stroke-miterlimit="10" stroke-width=".074436"/>
 <path d="m9.5885 2.9633-6.5828 6.5405-2.0108-1.9685 6.604-6.5405zm-8.5937 6.5405-0.99483-0.99483 0.99483-0.97367 0.99483 0.97367zm2.0108-1.9685 6.5828 6.5405-1.9897 1.9685-6.604-6.5405zm6.5828 8.509-0.99483 0.99483-0.99483-0.99483 0.99483-0.99483zm-1.9897-1.9685 6.5828-6.5405 2.0108 1.9685-6.604 6.5405zm8.5937-6.5405 0.99483 0.97367-0.99483 0.99483-0.99483-0.99483zm-2.0108 1.9685-6.5828-6.5405 1.9897-1.9685 6.604 6.5405zm-6.5828-8.509 0.99483-0.99483 0.99483 0.99483-0.99483 0.99483-0.99483-0.99483" fill="#1e1917"/>
 <path d="m4.0852 11.028 6.8368-6.7733 1.9897 1.9685-6.8368 6.7733-1.9897-1.9685" fill="#1e1917"/>
</svg>
