<?xml version="1.0" encoding="UTF-8"?>
<!-- Created with Inkscape (http://www.inkscape.org/) -->
<svg width="18.264mm" height="29.282mm" version="1.1" viewBox="0 0 18.264 29.282" xmlns="http://www.w3.org/2000/svg">
 <g transform="translate(-144.46 -76.994)">
  <path d="m152.88 106.23h1.4129v-23.751h-1.4129z" fill="#787979"/>
  <path d="m154.3 106.23h-1.4129v-23.751h1.4129z" fill="none" stroke="#15110e" stroke-linecap="square" stroke-miterlimit="10" stroke-width=".10125"/>
  <path d="m144.53 82.021h18.13l-9.0643 15.068" fill="#fff"/>
  <path d="m153.6 97.089-9.066-15.068h18.13z" fill="none" stroke="#15110e" stroke-linecap="square" stroke-miterlimit="10" stroke-width=".075494"/>
  <g>
   <path d="m146.09 82.749h15.042l-7.4828 12.877" fill="#f3ef05"/>
   <path d="m153.82 91.234h-0.0667l-0.0667-0.0018-0.0649-0.0021-0.0649-0.0053-0.0646-0.0035-0.0631-0.0074-0.12206-0.01482-0.061-0.01094-0.0614-0.01094-0.0593-0.01094-0.0572-0.01305-0.115-0.02893-0.0554-0.01658-0.0557-0.01834-0.0536-0.01834-0.0536-0.02011-0.0536-0.02187-0.0519-0.02223-0.0519-0.02187-0.0501-0.0254-0.10019-0.05151-0.048-0.02928-0.0462-0.02752-0.0462-0.03104-0.0466-0.03105-0.0462-0.03281-0.0427-0.03316-0.0445-0.03457-0.0423-0.03669-0.0427-0.03669-0.0388-0.03634-0.0409-0.03845-0.037-0.03845-0.037-0.04057-0.0349-0.04022-0.0353-0.04198-0.0335-0.04198-0.0314-0.04233-0.0314-0.04375-0.0296-0.0441-0.0279-0.04375-0.0279-0.04586-0.0258-0.04586-0.024-0.04727-0.0243-0.04762-0.0222-0.04939-0.0201-0.04974-0.0205-0.04939-0.0183-0.05115-0.0169-0.05115-0.0166-0.05115-0.0148-0.05327-0.013-0.05292-0.0127-0.05503-0.0113-0.05503-9e-3 -0.05644-9e-3 -0.0568-7e-3 -0.0568-0.012-0.11712-4e-3 -0.05856h1.0164v0.06773l6e-3 0.06773 7e-3 0.06773 9e-3 0.06597 0.0148 0.06385 0.0148 0.06209 0.0205 0.06244 0.0222 0.06033 0.0257 0.05856 0.0279 0.05856 0.0314 0.0568 0.0335 0.0568 0.037 0.05292 0.0406 0.05327 0.0427 0.05292 0.0462 0.04939 0.0243 0.02575 0.024 0.02364 0.0257 0.02399 0.0261 0.02187 0.0258 0.02187 0.0557 0.04022 0.0889 0.05503 0.0296 0.01658 0.0314 0.01623 0.0314 0.01658 0.0335 0.01482 0.0332 0.0127 0.0335 0.0127 0.0332 0.01305 0.0353 0.01094 0.037 0.01094 0.0353 0.0092 0.0367 0.0092 0.037 0.0092 0.0392 0.0071 0.0388 0.0074 0.0797 0.01094 0.0815 0.0074 0.085 0.0056h0.0871l0.085-0.0021 0.0832-0.0035 0.0409-0.0035 0.0388-0.0056 0.0409-0.0053 0.0388-0.0074 0.037-0.0074 0.0388-0.0074 0.0741-0.01834 0.0353-0.01094 0.037-0.01094 0.0349-0.0127 0.0335-0.01305 0.0353-0.01446 0.0332-0.01446 0.0335-0.01658 0.0314-0.01658 0.0628-0.03669 0.0318-0.01834 0.0296-0.02011 0.0296-0.02187 0.0293-0.02011 0.0279-0.02364 0.0279-0.02399 0.0279-0.02364 0.0275-0.02575 0.0261-0.02575 0.0258-0.02716 0.0243-0.02752 0.0257-0.02752 0.0222-0.02928 0.024-0.02928 0.0205-0.02928 0.0222-0.03104 0.0205-0.02928 0.0183-0.03104 0.0205-0.03316 0.0166-0.03105 0.0187-0.03281 0.0148-0.03316 0.0166-0.03281 0.0148-0.03493 0.0131-0.03457 0.013-0.03493 0.0127-0.03669 0.0113-0.03634 0.0109-0.03669 0.0113-0.03669 0.0166-0.0769 0.0148-0.07691 0.0109-0.08043 7e-3 -0.0822 6e-3 -0.08255 2e-3 -0.08608-2e-3 -0.08784-6e-3 -0.08608-7e-3 -0.0822-0.0127-0.07867-6e-3 -0.04022-9e-3 -0.03845-7e-3 -0.03669-0.0113-0.03669-9e-3 -0.03634-0.0113-0.03669-0.0127-0.03493-0.013-0.03457-0.013-0.03316-0.0148-0.03457-0.0148-0.0314-0.0166-0.03281-0.0166-0.03104-0.0187-0.03104-0.0183-0.02928-0.0187-0.02928-0.0201-0.02928-0.0222-0.02752-0.0445-0.05503-0.0243-0.0254-0.024-0.02575-0.0258-0.02575-0.0261-0.02364-0.0258-0.02399-0.0279-0.02187-0.0296-0.02364-0.0279-0.02011-0.0314-0.02223-0.0296-0.02011-0.0314-0.01835-0.0335-0.01799-0.0314-0.01834-0.0353-0.01658-0.0332-0.01658-0.0353-0.01446-0.037-0.01482-0.037-0.01446-0.037-0.01305-0.0388-0.0127-0.0388-0.01094-0.0392-0.01094-0.0406-0.01094-0.0406-0.0092-0.0854-0.01658-0.0889-0.0127-0.0907-0.01094-0.0945-0.0074-0.0963-0.0056h-0.4759v-0.75741h0.31115l0.0854-0.0039 0.0833-0.0074 0.0794-0.0092 0.0762-0.01094 0.0741-0.0127 0.0702-0.01658 0.0684-0.02011 0.0667-0.02187 0.0631-0.02364 0.0593-0.02575 0.0571-0.02928 0.054-0.03281 0.0518-0.03316 0.048-0.03669 0.0462-0.04022 0.0445-0.04198 0.0409-0.0441 0.037-0.04727 0.0353-0.04974 0.0314-0.05115 0.0296-0.05468 0.0257-0.0568 0.024-0.06033 0.0205-0.06244 0.0187-0.06385 0.0148-0.06773 0.0127-0.06985 0.0113-0.07303 6e-3 -0.07514 5e-3 -0.07691v-0.14993l-4e-3 -0.06773-7e-3 -0.06597-7e-3 -0.06385-0.0113-0.06244-0.0148-0.06033-0.0148-0.0568-0.0183-0.0568-0.0205-0.05292-0.024-0.05115-0.0261-0.04939-0.0275-0.04763-0.0296-0.04586-0.0335-0.0441-0.0349-0.04198-0.0392-0.03845-0.0388-0.03669-0.0427-0.03457-0.0444-0.03105-0.0462-0.0314-0.048-0.0254-0.0501-0.02575-0.0519-0.02187-0.0536-0.02187-0.0557-0.01658-0.0593-0.01658-0.0593-0.0127-0.061-0.01094-0.0649-0.0074-0.0667-0.0074-0.0663-0.0035h-0.14288l-0.0702 0.0035-0.13335 0.01482-0.0649 0.01094-0.061 0.0127-0.0593 0.01482-0.0593 0.01834-0.0554 0.02011-0.054 0.02187-0.0519 0.02364-0.0497 0.02752-0.0466 0.02928-0.0462 0.03316-0.0444 0.03281-0.0406 0.03669-0.0409 0.03845-0.037 0.04198-0.0349 0.04198-0.0353 0.04586-0.0314 0.04939-0.0296 0.04939-0.0279 0.05327-0.024 0.05468-0.0243 0.0568-0.0222 0.06032-0.0183 0.06244-0.0187 0.06385-0.0148 0.06773-0.0127 0.0695-0.0113 0.07161-9e-3 0.07303h-1.0128l0.014-0.11712 9e-3 -0.05856 0.0113-0.0568 0.0109-0.05468 0.013-0.05503 0.0127-0.05468 0.0148-0.05327 0.0148-0.05292 0.0169-0.05151 0.0183-0.04939 0.0187-0.04939 0.0183-0.04939 0.0222-0.04762 0.0205-0.04763 0.0222-0.04551 0.024-0.04586 0.0261-0.0441 0.024-0.04375 0.0279-0.04198 0.0275-0.04233 0.0279-0.04022 0.0296-0.04022 0.0314-0.03845 0.0318-0.03845 0.0332-0.03669 0.0332-0.03634 0.0353-0.03669 0.0353-0.03493 0.037-0.03281 0.0388-0.03281 0.0388-0.0314 0.0392-0.03105 0.0406-0.03104 0.0409-0.02752 0.0406-0.02928 0.0427-0.02575 0.0423-0.0254 0.0427-0.02575 0.0444-0.02364 0.0445-0.02399 0.0445-0.02187 0.0462-0.02011 0.0466-0.02011 0.0462-0.02011 0.0462-0.01834 0.0483-0.01658 0.048-0.01623 0.048-0.01482 0.0501-0.01446 0.0501-0.01305 0.0501-0.0127 0.0519-0.01094 0.0519-0.0092 0.0519-0.01094 0.0519-0.0074 0.10725-0.01482 0.0554-0.0053 0.054-0.0035 0.0554-0.0039 0.0575-0.0018 0.0554-0.0018h0.12065l0.12559 0.0035 0.0614 0.0039 0.0593 0.0053 0.0593 0.0056 0.0593 0.0071 0.0572 0.0092 0.0575 0.0092 0.0554 0.0092 0.0557 0.01094 0.0536 0.01305 0.0536 0.0127 0.054 0.01482 0.0519 0.01623 0.0519 0.01658 0.0497 0.01658 0.0501 0.02011 0.048 0.02011 0.0483 0.02011 0.0462 0.02187 0.0483 0.02187 0.0444 0.02575 0.0445 0.02364 0.0444 0.02752 0.0423 0.02752 0.0427 0.02752 0.0409 0.02928 0.0811 0.06209 0.0392 0.03316 0.037 0.03457 0.037 0.03316 0.037 0.03634 0.0349 0.03493 0.0335 0.03669 0.0314 0.03634 0.0314 0.03845 0.0317 0.03845 0.0275 0.03845 0.0279 0.04022 0.0279 0.04057 0.024 0.04022 0.048 0.08396 0.0222 0.04233 0.0205 0.04374 0.0187 0.0441 0.0183 0.04375 0.0166 0.0441 0.0169 0.04762 0.0148 0.04551 0.0127 0.04762 0.013 0.04586 0.0113 0.04939 0.0109 0.04762 7e-3 0.04939 7e-3 0.05115 7e-3 0.04939 6e-3 0.05327 4e-3 0.05115 4e-3 0.05292 2e-3 0.05327v0.05292l-2e-3 0.06068-2e-3 0.06032-6e-3 0.05856-7e-3 0.06033-9e-3 0.05856-0.0113 0.0568-0.0131 0.05856-0.0166 0.0568-0.0166 0.05644-0.041 0.1136-0.024 0.05503-0.0258 0.05468-0.0279 0.05503-0.0296 0.05503-0.0314 0.05468-0.0353 0.05327-0.0353 0.05115-0.0388 0.04939-0.0388 0.04762-0.0427 0.04763-0.0462 0.04375-0.0462 0.0441-0.0501 0.04198-0.0501 0.04022-0.0536 0.03845-0.0554 0.03669-0.0593 0.03669-0.0593 0.03281-0.0631 0.03316-0.0649 0.03105-0.0667 0.02928 0.0871 0.02364 0.0833 0.02575 0.0815 0.02928 0.078 0.03281 0.0759 0.03316 0.0741 0.03845 0.0702 0.03845 0.0688 0.04374 0.0332 0.02187 0.0335 0.02222 0.0628 0.04727 0.0314 0.02575 0.0296 0.02575 0.0296 0.0254 0.0296 0.02752 0.0558 0.05504 0.0275 0.02928 0.0261 0.02928 0.0501 0.06032 0.0497 0.06421 0.0445 0.06562 0.0427 0.06773 0.0409 0.06773 0.0367 0.0695 0.0335 0.07161 0.0314 0.07303 0.0279 0.07514 0.024 0.07514 0.0222 0.07691 0.0205 0.07867 0.0296 0.16086 9e-3 0.08255 7e-3 0.08396 6e-3 0.08608v0.15205l-2e-3 0.06385-4e-3 0.06244-6e-3 0.06385-5e-3 0.06068-7e-3 0.06209-0.01 0.06033-0.0109 0.06032-0.013 0.05856-0.0131 0.0568-0.0148 0.05856-0.0166 0.0568-0.0166 0.05503-0.0205 0.05468-0.0205 0.05503-0.0201 0.05292-0.0243 0.05327-0.024 0.05115-0.0275 0.05115-0.0261 0.05151-0.0296 0.04939-0.0314 0.04939-0.0314 0.04762-0.0335 0.04763-0.0332 0.04551-0.074 0.09172-0.0392 0.04374-0.0406 0.0441-0.0409 0.04375-0.0444 0.04022-0.0441 0.04233-0.0444 0.04022-0.0466 0.03845-0.048 0.03845-0.0483 0.03669-0.048 0.03457-0.0483 0.03281-0.0497 0.03316-0.0501 0.03105-0.0519 0.03104-0.10372 0.05503-0.0536 0.02752-0.0536 0.02364-0.054 0.02399-0.0554 0.02364-0.0557 0.02011-0.0572 0.02011-0.0575 0.01834-0.0575 0.01658-0.0593 0.01623-0.0593 0.01482-0.0593 0.0127-0.061 0.01305-0.061 0.01094-0.061 0.0092-0.0632 0.0092-0.0628 0.0071-0.0649 0.0056-0.0649 0.0035-0.0646 0.0039-0.0667 0.0018" fill="#15110e"/>
   <path d="m145.98 82.041h14.888v-4.9964h-14.888z" fill="#15110e"/>
  </g>
  <path d="m160.86 82.041h-14.888v-4.9964h14.888z" fill="none" stroke="#15110e" stroke-linecap="square" stroke-miterlimit="10" stroke-width=".10125"/>
  <path d="m146.52 80.363h12.166v-1.5903h-12.166z" fill="#f3ef05"/>
  <path d="m157.93 77.574 2.698 2.0443-2.698 1.8941" fill="#f3ef05"/>
  <path d="m160.63 79.618-2.698 1.8941v-3.9384z" fill="none" stroke="#f3ef05" stroke-linecap="square" stroke-miterlimit="10" stroke-width=".10125"/>
  <path d="m151.57 99.995-0.0646-0.0056-0.0631-0.0074-0.061-0.01094-0.061-0.0127-0.11853-0.03669-0.0575-0.02187-0.0554-0.02575-0.054-0.02716-0.0519-0.02928-0.0519-0.03316-0.048-0.03457-0.0483-0.03669-0.0462-0.03845-0.085-0.08431-0.0388-0.04551-0.037-0.04762-0.0353-0.04762-0.0335-0.05151-0.0296-0.05115-0.0275-0.05468-0.0261-0.05503-0.0222-0.05503-0.0205-0.05856-0.0166-0.05856-0.0131-0.06032-0.0109-0.06033-9e-3 -0.06244-4e-3 -0.06385-2e-3 -0.06421 2e-3 -0.06385 4e-3 -0.06244 9e-3 -0.06209 0.0109-0.06209 0.0131-0.05856 0.0166-0.06068 0.0205-0.05645 0.0222-0.0568 0.0261-0.05503 0.0275-0.05292 0.0296-0.05327 0.0335-0.04939 0.0353-0.04939 0.037-0.04586 0.0388-0.04551 0.0427-0.0441 0.0423-0.04022 0.0462-0.03845 0.0483-0.03845 0.048-0.03281 0.0519-0.03316 0.0519-0.02928 0.054-0.02752 0.0554-0.0254 0.0575-0.02187 0.0593-0.02046 0.0593-0.01623 0.061-0.01482 0.061-0.01094 0.0631-0.0074 0.0646-0.0053h0.12982l0.0628 0.0053 0.0631 0.0074 0.061 0.01094 0.061 0.01482 0.0593 0.01623 0.0593 0.02046 0.0575 0.02187 0.0554 0.0254 0.0536 0.02752 0.0519 0.02928 0.0519 0.03316 0.0501 0.03281 0.0462 0.03845 0.0466 0.03845 0.0423 0.04022 0.0427 0.0441 0.0388 0.04551 0.037 0.04586 0.0353 0.04939 0.0332 0.04939 0.0296 0.05327 0.0279 0.05292 0.0261 0.05503 0.0222 0.0568 0.0201 0.05645 0.0169 0.06068 0.0127 0.05856 0.0113 0.06209 9e-3 0.06209 4e-3 0.06244 2e-3 0.06385-2e-3 0.06421-4e-3 0.06385-9e-3 0.06244-0.0113 0.06033-0.0127 0.06032-0.0169 0.05856-0.0201 0.05856-0.0222 0.05503-0.0261 0.05503-0.0279 0.05468-0.0296 0.05115-0.0332 0.05151-0.0353 0.04762-0.037 0.04762-0.0388 0.04551-0.085 0.08431-0.0466 0.03845-0.0462 0.03669-0.0501 0.03457-0.0519 0.03316-0.0519 0.02928-0.0536 0.02716-0.0554 0.02575-0.0575 0.02187-0.11854 0.03669-0.061 0.0127-0.061 0.01094-0.0631 0.0074-0.0628 0.0056-0.0649 0.0018" fill="#c0bdbc"/>
  <path d="m151.63 97.514h0.0649l0.0628 0.0053 0.0631 0.0074 0.061 0.01094 0.061 0.01482 0.0593 0.01623 0.0593 0.02046 0.0575 0.02187 0.0554 0.0254 0.0536 0.02752 0.0519 0.02928 0.0519 0.03316 0.0501 0.03281 0.0462 0.03845 0.0466 0.03845 0.0423 0.04022 0.0427 0.0441 0.0388 0.04551 0.037 0.04586 0.0353 0.04939 0.0332 0.04939 0.0296 0.05327 0.0279 0.05292 0.0261 0.05503 0.0222 0.05644 0.0201 0.0568 0.0169 0.06032 0.0127 0.05891 0.0113 0.06209 9e-3 0.06209 4e-3 0.06244 2e-3 0.06385-2e-3 0.06421-4e-3 0.06385-9e-3 0.06244-0.0113 0.06033-0.0127 0.06032-0.0169 0.05856-0.0201 0.05856-0.0222 0.05503-0.0261 0.05503-0.0279 0.05468-0.0296 0.05115-0.0332 0.05151-0.0353 0.04762-0.037 0.04727-0.0388 0.04586-0.085 0.08431-0.0466 0.03845-0.0462 0.03669-0.0501 0.03457-0.0519 0.03281-0.0519 0.02928-0.0536 0.02752-0.0554 0.02575-0.0575 0.02187-0.11854 0.03669-0.061 0.0127-0.061 0.01094-0.0631 0.0074-0.0628 0.0056-0.0649 0.0018-0.0649-0.0018-0.0646-0.0056-0.0631-0.0074-0.061-0.01094-0.061-0.0127-0.11853-0.03669-0.0575-0.02187-0.0554-0.02575-0.054-0.02752-0.0519-0.02928-0.0519-0.03281-0.048-0.03457-0.0483-0.03669-0.0462-0.03845-0.085-0.08431-0.0388-0.04586-0.037-0.04727-0.0353-0.04762-0.0335-0.05151-0.0296-0.05115-0.0275-0.05468-0.0261-0.05503-0.0222-0.05503-0.0205-0.05856-0.0166-0.05856-0.0131-0.06032-0.0109-0.06033-9e-3 -0.06244-4e-3 -0.06385-2e-3 -0.06421 2e-3 -0.06385 4e-3 -0.06244 9e-3 -0.06209 0.0109-0.06209 0.0131-0.05891 0.0166-0.06032 0.0205-0.0568 0.0222-0.05644 0.0261-0.05503 0.0275-0.05292 0.0296-0.05327 0.0335-0.04939 0.0353-0.04939 0.037-0.04586 0.0388-0.04551 0.0427-0.0441 0.0423-0.04022 0.0462-0.03845 0.0483-0.03845 0.048-0.03281 0.0519-0.03316 0.0519-0.02928 0.054-0.02752 0.0554-0.0254 0.0575-0.02187 0.0593-0.02046 0.0593-0.01623 0.061-0.01482 0.061-0.01094 0.0631-0.0074 0.0646-0.0053z" fill="none" stroke="#15110e" stroke-linecap="square" stroke-miterlimit="10" stroke-width=".075494"/>
  <path d="m155.69 104.9h-0.0649l-0.0631-5e-3 -0.0628-7e-3 -0.0628-0.0109-0.0593-0.0148-0.0614-0.0162-0.0572-0.0201-0.0575-0.0222-0.0557-0.0236-0.0536-0.0275-0.0536-0.031-0.0501-0.0311-0.0497-0.0349-0.0483-0.0384-0.0445-0.0385-0.0444-0.0402-0.0406-0.0437-0.0409-0.0441-0.037-0.0476-0.0353-0.0494-0.0314-0.0494-0.0314-0.0529-0.0279-0.0533-0.024-0.0547-0.0222-0.0568-0.0205-0.0568-0.0166-0.0603-0.0148-0.0586-0.0109-0.0624-7e-3 -0.0621-6e-3 -0.0621-2e-3 -0.0642 2e-3 -0.0642 6e-3 -0.0639 7e-3 -0.0603 0.0109-0.0624 0.0148-0.0603 0.0166-0.0586 0.0205-0.0568 0.0222-0.0568 0.024-0.0547 0.0279-0.055 0.0314-0.0511 0.0314-0.0515 0.0353-0.0473 0.037-0.0476 0.0409-0.0441 0.0406-0.0438 0.0444-0.0402 0.0445-0.0406 0.0483-0.0363 0.0497-0.0349 0.0501-0.0328 0.0536-0.0293 0.0536-0.0275 0.0557-0.024 0.0575-0.0236 0.0572-0.0183 0.0614-0.0166 0.0593-0.0145 0.0628-0.0109 0.0628-7e-3 0.0631-6e-3 0.0649-2e-3 0.0646 2e-3 0.0631 6e-3 0.0628 7e-3 0.0632 0.0109 0.061 0.0145 0.0593 0.0166 0.0575 0.0183 0.0572 0.0236 0.0557 0.024 0.0554 0.0275 0.0519 0.0293 0.0501 0.0328 0.0501 0.0349 0.048 0.0363 0.0445 0.0406 0.0444 0.0402 0.0409 0.0438 0.0406 0.0441 0.037 0.0476 0.0353 0.0473 0.0314 0.0515 0.0314 0.0511 0.0279 0.055 0.024 0.0547 0.0222 0.0568 0.0205 0.0568 0.0166 0.0586 0.0148 0.0603 0.0113 0.0624 7e-3 0.0603 5e-3 0.0639 2e-3 0.0642-2e-3 0.0642-5e-3 0.0621-7e-3 0.0621-0.0113 0.0624-0.0148 0.0586-0.0166 0.0603-0.0205 0.0568-0.0222 0.0568-0.024 0.0547-0.0279 0.0533-0.0314 0.0529-0.0314 0.0494-0.0353 0.0494-0.037 0.0476-0.0406 0.0441-0.0409 0.0437-0.0444 0.0402-0.0445 0.0385-0.048 0.0384-0.0501 0.0349-0.0501 0.0311-0.0519 0.031-0.0554 0.0275-0.0557 0.0236-0.0572 0.0222-0.0575 0.0201-0.0593 0.0162-0.061 0.0148-0.0632 0.0109-0.0628 7e-3 -0.0631 5e-3" fill="#c0bdbc"/>
  <path d="m155.69 102.41 0.0646 2e-3 0.0631 6e-3 0.0628 7e-3 0.0632 0.0109 0.061 0.0145 0.0593 0.0166 0.0575 0.0183 0.0572 0.0236 0.0557 0.024 0.0554 0.0275 0.0519 0.0293 0.0501 0.0328 0.0501 0.0349 0.048 0.0363 0.0445 0.0406 0.0444 0.0402 0.0409 0.0437 0.0406 0.0441 0.037 0.0476 0.0353 0.0473 0.0314 0.0515 0.0314 0.0512 0.0279 0.055 0.024 0.0547 0.0222 0.0568 0.0205 0.0568 0.0166 0.0586 0.0148 0.0603 0.0113 0.0624 7e-3 0.0603 5e-3 0.0639 2e-3 0.0642-2e-3 0.0639-5e-3 0.0624-7e-3 0.0621-0.0113 0.0624-0.0148 0.0586-0.0166 0.0603-0.0205 0.0568-0.0222 0.0568-0.024 0.0547-0.0279 0.0533-0.0314 0.0529-0.0314 0.0494-0.0353 0.0494-0.037 0.0476-0.0406 0.0441-0.0409 0.0437-0.0444 0.0402-0.0445 0.0384-0.048 0.0385-0.0501 0.0349-0.0501 0.031-0.0519 0.0311-0.0554 0.0275-0.0557 0.0236-0.0572 0.0222-0.0575 0.0201-0.0593 0.0162-0.061 0.0148-0.0632 0.0109-0.0628 7e-3 -0.0631 5e-3h-0.12947l-0.0631-5e-3 -0.0628-7e-3 -0.0628-0.0109-0.0593-0.0148-0.0614-0.0162-0.0572-0.0201-0.0575-0.0222-0.0557-0.0236-0.0536-0.0275-0.0536-0.0311-0.0501-0.031-0.0497-0.0349-0.0483-0.0385-0.0445-0.0384-0.0444-0.0402-0.0406-0.0437-0.0409-0.0441-0.037-0.0476-0.0353-0.0494-0.0314-0.0494-0.0314-0.0529-0.0279-0.0533-0.024-0.0547-0.0222-0.0568-0.0205-0.0568-0.0166-0.0603-0.0148-0.0586-0.0109-0.0624-7e-3 -0.0621-6e-3 -0.0624-2e-3 -0.0639 2e-3 -0.0642 6e-3 -0.0639 7e-3 -0.0603 0.0109-0.0624 0.0148-0.0603 0.0166-0.0586 0.0205-0.0568 0.0222-0.0568 0.024-0.0547 0.0279-0.055 0.0314-0.0512 0.0314-0.0515 0.0353-0.0473 0.037-0.0476 0.0409-0.0441 0.0406-0.0437 0.0444-0.0402 0.0445-0.0406 0.0483-0.0363 0.0497-0.0349 0.0501-0.0328 0.0536-0.0293 0.0536-0.0275 0.0557-0.024 0.0575-0.0236 0.0572-0.0183 0.0614-0.0166 0.0593-0.0145 0.0628-0.0109 0.0628-7e-3 0.0631-6e-3z" fill="none" stroke="#15110e" stroke-linecap="square" stroke-miterlimit="10" stroke-width=".075494"/>
 </g>
</svg>
