<?xml version="1.0" encoding="UTF-8"?>
<!-- Created with Inkscape (http://www.inkscape.org/) -->
<svg width="7.6705mm" height="18.371mm" version="1.1" viewBox="0 0 7.6705 18.371" xmlns="http://www.w3.org/2000/svg">
 <g transform="translate(-113.77 -100.54)">
  <path d="m117.11 118.87h0.99483v-6.7733h-0.99483z" fill="#807d7d"/>
  <g stroke="#2b2625" stroke-linecap="round" stroke-linejoin="round" stroke-miterlimit="10">
   <path d="m117.11 112.09h0.99483v6.7733h-0.99483z" fill="none" stroke-width=".094897"/>
   <path d="m118.1 112.09" fill="none" stroke-width=".094897"/>
   <path d="m114.38 100.58h6.5617l0.0423 0.0212h0.0212l0.0212 0.0212h0.0423l0.0212 0.0212h0.0212l0.0423 0.0423h0.0212l0.1482 0.1482v0.0212l0.0212 0.0423 0.0212 0.0212v0.0212l0.0212 0.0212v0.0635l0.0212 0.0212v11.07l-0.0212 0.0212v0.0635l-0.0212 0.0212v0.0212l-0.0212 0.0423-0.0212 0.0212v0.0212l-0.0635 0.0635-0.10584 0.10583h-0.0212l-0.0423 0.0423h-0.0212l-0.0423 0.0212h-0.0212l-0.0212 0.0212h-6.7522l-0.0212-0.0212h-0.0212l-0.0423-0.0212h-0.0212l-0.0423-0.0423h-0.0212l-0.16933-0.16933v-0.0212l-0.0212-0.0212-0.0212-0.0423v-0.0212l-0.0212-0.0212v-0.0635l-0.0212-0.0212v-11.07l0.0212-0.0212v-0.0635l0.0212-0.0212v-0.0212l0.0212-0.0212 0.0212-0.0423v-0.0212l0.14816-0.14817h0.0212l0.0423-0.0423h0.0212l0.0212-0.0212h0.0423l0.0212-0.0212h0.0212l0.0423-0.0212h0.10583" fill="#fff" fill-rule="evenodd" stroke-width=".071261"/>
  </g>
  <path d="m115.48 111.22v-9.3345h4.2757v1.1007h-3.4925v2.8575h3.2808v1.1007h-3.2808v3.175h3.6407v1.1007h-4.4238" fill="#2b2625"/>
 </g>
</svg>
