<?xml version="1.0" encoding="UTF-8"?>
<!-- Created with Inkscape (http://www.inkscape.org/) -->
<svg width="77.649mm" height="27.158mm" version="1.1" viewBox="0 0 77.649 27.158" xmlns="http://www.w3.org/2000/svg">
 <g transform="translate(-20.373 -110.33)">
  <path d="m28.75 137.44h1.4182v-12.954h-1.4182z" fill="#7e7e7e"/>
  <path d="m28.75 124.49h1.4182v12.954h-1.4182z" fill="none" stroke="#1e1917" stroke-linecap="round" stroke-linejoin="round" stroke-miterlimit="10" stroke-width=".097367"/>
  <path d="m30.168 124.49z" fill="none" stroke="#1e1917" stroke-linecap="round" stroke-linejoin="round" stroke-miterlimit="10" stroke-width=".097367"/>
  <g>
   <g stroke="#1e1917" stroke-linecap="round" stroke-linejoin="round" stroke-miterlimit="10" stroke-width=".074436">
    <path d="m29.469 125.42-9.0593-15.05h18.119l-9.0593 15.05" fill="#fff" fill-rule="evenodd"/>
    <path d="m29.512 123.96-7.5353-12.869h15.028l-7.493 12.869" fill="#edee20" fill-rule="evenodd"/>
    <path d="m30.845 115.05 0.08467 0.0212 0.0635 0.0423 0.16933 0.0423 0.08467 0.0423 0.127 0.0847 0.08467 0.0423 0.1905 0.127 0.04233 0.0635 0.0635 0.0635 0.0635 0.0423 0.12699 0.1905 0.0635 0.0635 0.02117 0.0847 0.08467 0.127 0.02117 0.0847 0.02117 0.0635 0.04233 0.0847 0.02117 0.0847 0.02117 0.0635v0.0847l0.02117 0.0847v0.0847l0.02117 0.0847v0.42334l-0.02117 0.0635v0.127l-0.02117 0.0423-0.02117 0.0635v0.0635l-0.02117 0.0635-0.02117 0.0423-0.02117 0.0635v0.0423l-0.04234 0.127-0.04233 0.0423-0.02117 0.0635-0.04233 0.0847-0.04233 0.0635-0.02117 0.0423-0.04233 0.0423-0.02117 0.0423-0.04233 0.0635-0.02117 0.0423-0.33867 0.33867-0.0635 0.0423-0.04233 0.0212-0.08467 0.0847-0.0635 0.0212-0.04233 0.0423-0.0635 0.0212-0.04233 0.0212-0.0635 0.0423-0.04233 0.0212-0.0635 0.0212-0.04233 0.0212-0.0635 0.0212-0.04233 0.0212-0.127 0.0423-0.04233 0.0212-0.0635 0.0212h-0.0635l-0.127 0.0423h-0.0635l-0.0635 0.0212h-0.16933l-0.08467 0.0212h-0.4445l-0.0635-0.0212h-0.127l-0.0635-0.0212h-0.0635l-0.0635-0.0212h-0.0635l-0.04233-0.0212-0.0635-0.0212h-0.0635l-0.04233-0.0212-0.127-0.0423-0.04233-0.0212-0.0635-0.0212-0.04233-0.0212-0.0635-0.0212-0.08467-0.0423-0.0635-0.0212-0.04233-0.0423-0.04233-0.0212-0.04233-0.0423-0.04233-0.0212-0.0635-0.0423-0.04233-0.0212-0.04233-0.0423-0.04233-0.0212-0.127-0.127-0.02117-0.0423-0.04233-0.0423-0.04233-0.0212-0.02117-0.0423-0.04233-0.0423-0.02117-0.0423-0.04233-0.0423-0.02117-0.0423-0.04233-0.0635-0.02117-0.0423-0.04233-0.0847-0.02117-0.0423-0.02117-0.0635-0.04233-0.0847-0.02117-0.0635-0.02117-0.0423-0.02117-0.0635v-0.0423l-0.02117-0.0635-0.02117-0.0423v-0.0635l-0.02117-0.0635v-0.10584l-0.02117-0.0635v-0.10583h1.016v0.1905l0.02117 0.0423v0.10584l0.02117 0.0423 0.04234 0.127 0.02117 0.0423v0.0212l0.02117 0.0212 0.02117 0.0423v0.0212l0.02117 0.0212 0.02117 0.0423 0.02117 0.0212 0.04233 0.0635 0.02117 0.0423 0.1905 0.1905 0.04233 0.0212 0.04234 0.0424 0.04233 0.0212 0.04234 0.0424 0.04233 0.0212 0.02117 0.0212h0.04233l0.02117 0.0212 0.04233 0.0212h0.04233l0.02117 0.0212h0.04233l0.02117 0.0212h0.04233l0.04233 0.0212h0.08467l0.02117 0.0212h0.08467l0.04233 0.0212h0.42333l0.04233-0.0212h0.08467l0.02117-0.0212h0.08467l0.04233-0.0212h0.02117l0.08467-0.0423h0.02117l0.04233-0.0212 0.02117-0.0212h0.04233l0.04233-0.0212 0.02117-0.0212 0.04233-0.0212 0.04234-0.0424 0.04233-0.0212 0.02117-0.0212 0.04233-0.0212 0.0635-0.0635 0.04233-0.0212 0.02117-0.0423 0.04233-0.0423 0.02117-0.0423 0.04233-0.0423 0.02117-0.0423 0.02117-0.0212 0.02117-0.0423 0.02117-0.0212 0.02117-0.0423 0.02117-0.0212 0.02117-0.0423v-0.0212l0.04234-0.0846v-0.0212l0.02117-0.0423v-0.0423l0.02117-0.0423v-0.0212l0.04234-0.1694v-0.0635l0.02117-0.0847v-0.381l-0.02117-0.0423v-0.127l-0.02117-0.0423v-0.0212l-0.02117-0.0423v-0.0423l-0.02117-0.0423v-0.0212l-0.02117-0.0423v-0.0423l-0.02117-0.0212-0.02117-0.0423-0.02117-0.0212v-0.0423l-0.04234-0.0424-0.02117-0.0423-0.04233-0.0423-0.02117-0.0423-0.04233-0.0423-0.02117-0.0423-0.04233-0.0212-0.0635-0.0635-0.04233-0.0212-0.02117-0.0212-0.04233-0.0212-0.02117-0.0212-0.04233-0.0212-0.02117-0.0212-0.04233-0.0212h-0.02117l-0.04233-0.0212-0.02117-0.0212-0.04233-0.0212h-0.04233l-0.04233-0.0212-0.02117-0.0212-0.16933-0.0423h-0.08467l-0.08467-0.0212h-0.10583l-0.08467-0.0212h-0.5715v-0.762h0.48683l0.0635-0.0212h0.08467l0.0635-0.0212 0.08467-0.0212 0.3175-0.106 0.04233-0.0423 0.0635-0.0212 0.21167-0.21166 0.02117-0.0635 0.04233-0.0423 0.02117-0.0635 0.04233-0.0423 0.06351-0.1905v-0.0635l0.02117-0.0847v-0.0635l0.02117-0.0847v-0.29634l-0.02117-0.0635v-0.127l-0.02117-0.0635-0.02117-0.0423-0.02117-0.0635-0.02117-0.0423-0.02117-0.0635-0.04234-0.0846-0.04233-0.0635-0.02117-0.0423-0.04233-0.0423-0.04233-0.0212-0.08466-0.0846-0.04233-0.0212-0.04233-0.0423-0.04233-0.0212-0.0635-0.0212-0.04233-0.0212-0.0635-0.0212-0.04233-0.0212-0.0635-0.0212h-0.0635l-0.0635-0.0212h-0.0635l-0.0635-0.0212h-0.27527l-0.0635 0.0212h-0.0635l-0.0635 0.0212h-0.0635l-0.127 0.0423-0.04233 0.0212-0.0635 0.0212-0.04233 0.0212-0.0635 0.0212-0.04233 0.0423-0.04233 0.0212-0.04233 0.0423-0.04233 0.0212-0.127 0.127-0.02117 0.0423-0.04233 0.0635-0.02117 0.0423-0.02117 0.0635-0.04233 0.0423-0.06351 0.1905v0.0635l-0.04233 0.127v0.0635l-0.02117 0.0847h-1.016l0.02117-0.0635v-0.0635l0.02117-0.0423v-0.0635l0.02117-0.0635v-0.0423l0.02117-0.0635 0.02117-0.0423v-0.0635l0.02117-0.0423 0.02117-0.0635 0.04233-0.0847 0.02117-0.0635 0.0635-0.127 0.02117-0.0423 0.04233-0.0847 0.04233-0.0423 0.02117-0.0423 0.04233-0.0423 0.02117-0.0423 0.10583-0.10583 0.02117-0.0423 0.04233-0.0212 0.04233-0.0423 0.02117-0.0423 0.04233-0.0212 0.04233-0.0423 0.08466-0.0424 0.04233-0.0423 0.16933-0.0847 0.04233-0.0423 0.08467-0.0423 0.0635-0.0212h0.04233l0.08467-0.0423 0.0635-0.0212 0.04233-0.0212h0.04233l0.0635-0.0212h0.04233l0.04233-0.0212h0.0635l0.04233-0.0212h0.0635l0.04233-0.0212h0.16933l0.0635-0.0212h0.33867l0.0635 0.0212h0.1905l0.0635 0.0212h0.04233l0.0635 0.0212h0.04233l0.0635 0.0212h0.0635l0.04233 0.0212 0.0635 0.0212 0.08467 0.0423h0.0635l0.127 0.0635 0.0635 0.0423 0.16933 0.0847 0.04233 0.0423 0.08466 0.0424 0.14817 0.14816 0.04233 0.0212 0.02117 0.0423 0.14817 0.14817 0.06351 0.1269 0.04233 0.0423 0.08467 0.16934 0.04234 0.0846v0.0423l0.04234 0.0846 0.02117 0.0635v0.0423l0.02117 0.0423v0.0423l0.02117 0.0635v0.14817l0.02117 0.0423v0.29634l-0.02117 0.0423v0.127l-0.02117 0.0635v0.0423l-0.0635 0.1905-0.02117 0.0423-0.02117 0.0635-0.02117 0.0423-0.04233 0.0635-0.02117 0.0635-0.04233 0.0423-0.02117 0.0635-0.08467 0.0847-0.02117 0.0635-0.0635 0.0423-0.127 0.127-0.0635 0.0423-0.04233 0.0423-0.0635 0.0212-0.04233 0.0423-0.0635 0.0423-0.0635 0.0212-0.0635 0.0423-0.0635 0.0212" fill="#1e1917"/>
    <path d="m27.374 127.03h0.0635l0.0635 0.0212h0.127l0.1905 0.0635 0.04233 0.0212 0.127 0.0423 0.04233 0.0423 0.0635 0.0212 0.08467 0.0847 0.04233 0.0212 0.08466 0.0846 0.04233 0.0635 0.08467 0.0847 0.02117 0.0423 0.04233 0.0635 0.02117 0.0635 0.02117 0.0423 0.02117 0.0635 0.02117 0.0423 0.02117 0.0635v0.0635l0.02117 0.0635v0.0635l0.02117 0.0635v0.127l-0.02117 0.0635v0.0635l-0.02117 0.0635v0.0635l-0.02117 0.0423-0.04234 0.127-0.02117 0.0423-0.02117 0.0635-0.04233 0.0423-0.02117 0.0635-0.33867 0.33867-0.0635 0.0212-0.04233 0.0212-0.0635 0.0423-0.0635 0.0212-0.04233 0.0212-0.127 0.0423h-0.0635l-0.0635 0.0212h-0.127l-0.0635 0.0212-0.0635-0.0212h-0.127l-0.0635-0.0212h-0.04233l-0.1905-0.0635-0.04233-0.0212-0.0635-0.0423-0.04233-0.0212-0.0635-0.0212-0.08467-0.0847-0.0635-0.0423-0.08467-0.0847-0.02117-0.0423-0.08467-0.0847-0.02117-0.0635-0.04233-0.0423-0.02117-0.0635-0.02117-0.0423-0.04234-0.127-0.02117-0.0423-0.02117-0.0635v-0.0635l-0.02117-0.0635v-0.254l0.02117-0.0635v-0.0635l0.04234-0.127 0.02117-0.0423 0.02117-0.0635 0.02117-0.0423 0.02117-0.0635 0.04233-0.0635 0.02117-0.0423 0.08466-0.0846 0.02117-0.0635 0.08466-0.0846 0.0635-0.0212 0.08467-0.0847 0.0635-0.0212 0.04233-0.0423 0.0635-0.0212 0.04233-0.0212 0.1905-0.0635 0.04233-0.0212h0.127l0.0635-0.0212h0.0635" fill="#a7a6a5" fill-rule="evenodd"/>
    <path d="m31.607 130.71h0.127l0.0635 0.0212h0.0635l0.0635 0.0212h0.0635l0.04233 0.0212 0.0635 0.0212 0.0635 0.0423 0.04233 0.0212 0.0635 0.0212 0.08467 0.0847 0.0635 0.0212 0.16933 0.16933 0.02117 0.0423 0.04233 0.0635 0.04233 0.0423 0.02117 0.0635 0.02117 0.0423 0.04233 0.0635 0.02117 0.0423 0.02117 0.0635v0.0635l0.02117 0.0635v0.0635l0.02117 0.0635v0.254l-0.02117 0.0423v0.0635l-0.02117 0.0635v0.0635l-0.02117 0.0635-0.02117 0.0423-0.04233 0.0635-0.02117 0.0635-0.02117 0.0423-0.04233 0.0423-0.04233 0.0635-0.02117 0.0423-0.04233 0.0423-0.127 0.127-0.0635 0.0423-0.04233 0.0212-0.04233 0.0423-0.0635 0.0212-0.04233 0.0212-0.0635 0.0423-0.0635 0.0212-0.04233 0.0212h-0.0635l-0.127 0.0423h-0.381l-0.127-0.0423h-0.0635l-0.04233-0.0212-0.0635-0.0212-0.0635-0.0423-0.04233-0.0212-0.0635-0.0212-0.04233-0.0423-0.0635-0.0212-0.16933-0.16934-0.08466-0.0846-0.02117-0.0635-0.04233-0.0423-0.02117-0.0423-0.04233-0.0635-0.02117-0.0635-0.02117-0.0423-0.04234-0.127v-0.0635l-0.02117-0.0635v-0.35984l0.02117-0.0635v-0.0635l0.04234-0.127 0.02117-0.0423 0.02117-0.0635 0.04233-0.0423 0.02117-0.0635 0.04233-0.0423 0.02117-0.0635 0.04233-0.0423 0.16933-0.16933 0.04233-0.0212 0.0635-0.0423 0.04233-0.0423 0.0635-0.0212 0.04233-0.0212 0.0635-0.0423 0.0635-0.0212 0.04233-0.0212h0.0635l0.0635-0.0212h0.0635l0.0635-0.0212h0.127" fill="#a7a6a5" fill-rule="evenodd"/>
   </g>
   <path d="m81.73 135.26h1.397v-5.5033h-1.397z" fill="#7e7e7e"/>
  </g>
  <path d="m81.73 129.76h1.397v5.5033h-1.397z" fill="none" stroke="#1e1917" stroke-linecap="round" stroke-linejoin="round" stroke-miterlimit="10" stroke-width=".072672"/>
  <path d="m83.127 129.76z" fill="none" stroke="#1e1917" stroke-linecap="round" stroke-linejoin="round" stroke-miterlimit="10" stroke-width=".072672"/>
  <g>
   <g stroke="#1e1917" stroke-linecap="round" stroke-linejoin="round" stroke-miterlimit="10" stroke-width=".072672">
    <path d="m82.428 114.86 8.9535 15.24h-17.907l8.9535-15.24" fill="#fff" fill-rule="evenodd"/>
    <path d="m82.386 116.32 7.4718 13.039h-14.859l7.3872-13.039" fill="#edee20" fill-rule="evenodd"/>
    <path d="m83.635 124.21h0.04233l0.08466 0.0424h0.04233l0.08466 0.0424h0.02117l0.04233 0.0212 0.127 0.0635 0.02117 0.0212h0.04233l0.04233 0.0212 0.02117 0.0212 0.04233 0.0212 0.02117 0.0423 0.04233 0.0212 0.02117 0.0212 0.04233 0.0212 0.02117 0.0212 0.04233 0.0212 0.02117 0.0423 0.02117 0.0212 0.04233 0.0212 0.02117 0.0212 0.02117 0.0423 0.04233 0.0212 0.02117 0.0423 0.02117 0.0212 0.02117 0.0423 0.02117 0.0212 0.02117 0.0423 0.02117 0.0212 0.04234 0.0846 0.02117 0.0212 0.02117 0.0423 0.02117 0.0212 0.04233 0.0847v0.0423l0.02117 0.0212 0.04233 0.0847v0.0423l0.02117 0.0212v0.0423l0.02117 0.0423v0.0423l0.02117 0.0423v0.0423l0.02117 0.0423v0.0635l0.02117 0.0423v0.16933l0.02117 0.0423v0.27516l-0.02117 0.0635v0.1905l-0.02117 0.0635v0.0423l-0.02117 0.0635v0.0635l-0.02117 0.0635-0.02117 0.0423-0.04234 0.127-0.02117 0.0423-0.02117 0.0635-0.02117 0.0423-0.02117 0.0635-0.02117 0.0423-0.02117 0.0635-0.04233 0.0423-0.02117 0.0423-0.04233 0.0635-0.02117 0.0423-0.08467 0.0847-0.02117 0.0635-0.21167 0.21166-0.08466 0.0846-0.04233 0.0212-0.0635 0.0423-0.04233 0.0423-0.04233 0.0212-0.0635 0.0423-0.04233 0.0212-0.04233 0.0423-0.0635 0.0212-0.04233 0.0423-0.0635 0.0212-0.04233 0.0212-0.0635 0.0212-0.04233 0.0212-0.127 0.0423-0.04233 0.0212-0.127 0.0423h-0.04233l-0.127 0.0424h-0.0635l-0.0635 0.0212h-0.1905l-0.0635 0.0212h-0.4445l-0.0635-0.0212h-0.127l-0.0635-0.0212h-0.0635l-0.0635-0.0212h-0.04233l-0.127-0.0424h-0.04233l-0.127-0.0423-0.04233-0.0212-0.0635-0.0212-0.04233-0.0212-0.0635-0.0212-0.08467-0.0423-0.0635-0.0212-0.04233-0.0423-0.08467-0.0423-0.0635-0.0423-0.04233-0.0212-0.04233-0.0423-0.04233-0.0212-0.127-0.127-0.04233-0.0212-0.04233-0.0423-0.02117-0.0423-0.08467-0.0847-0.02117-0.0423-0.04233-0.0423-0.02117-0.0423-0.04233-0.0423-0.02117-0.0423-0.04233-0.0423-0.02117-0.0423-0.02117-0.0635-0.0635-0.127-0.02117-0.0635-0.02117-0.0423-0.02117-0.0635-0.02117-0.0423-0.02117-0.0635v-0.0423l-0.02117-0.0635-0.02117-0.0423v-0.0635l-0.02117-0.0635v-0.10583l-0.02117-0.0635v-0.10583h0.99483v0.0635l0.02117 0.0423v0.127l0.02117 0.0212v0.0847l0.02117 0.0212v0.0635l0.02117 0.0212v0.0423l0.02117 0.0212v0.0423l0.02117 0.0212 0.02117 0.0423v0.0212l0.02117 0.0212 0.02117 0.0423 0.02117 0.0212v0.0212l0.02117 0.0423 0.0635 0.0635 0.02117 0.0423 0.0635 0.0635 0.02117 0.0423 0.02117 0.0212 0.04233 0.0212 0.06351 0.0636 0.04233 0.0212 0.04233 0.0423 0.04233 0.0212h0.02117l0.04233 0.0212 0.02117 0.0212h0.04233l0.02117 0.0212 0.04233 0.0212h0.02117l0.04233 0.0212h0.04233l0.02117 0.0212h0.04233l0.04233 0.0212h0.0635l0.04233 0.0212h0.16933l0.04233 0.0212h0.16933l0.04233-0.0212h0.14817l0.04233-0.0212h0.08467l0.04233-0.0212h0.02117l0.04233-0.0212h0.04233l0.02117-0.0212 0.04233-0.0212h0.02117l0.08467-0.0423 0.02117-0.0212h0.04233l0.04233-0.0423 0.04233-0.0212 0.02117-0.0212 0.04233-0.0212 0.04234-0.0424 0.04233-0.0423 0.02117-0.0212 0.04233-0.0423 0.02117-0.0423 0.04233-0.0212 0.02117-0.0212 0.02117-0.0423 0.02117-0.0212 0.02117-0.0423 0.02117-0.0212 0.02117-0.0423 0.02117-0.0212v-0.0423l0.02117-0.0212 0.02117-0.0423 0.02117-0.0212v-0.0423l0.02117-0.0423 0.02117-0.0212v-0.0423l0.02117-0.0423v-0.0212l0.02117-0.0423v-0.0423l0.02117-0.0423v-0.127l0.02117-0.0212v-0.52917l-0.02117-0.0423v-0.0635l-0.02117-0.0423v-0.0847l-0.02117-0.0212v-0.0423l-0.02117-0.0423-0.02117-0.0212v-0.0423l-0.02117-0.0423-0.02117-0.0212v-0.0423l-0.02117-0.0212-0.02117-0.0423-0.02117-0.0212-0.02117-0.0423-0.04234-0.0424-0.02117-0.0423-0.0635-0.0635-0.02117-0.0423-0.02117-0.0212-0.04233-0.0212-0.04233-0.0423-0.04233-0.0212-0.02117-0.0212-0.04233-0.0212-0.02117-0.0212-0.04233-0.0212-0.02117-0.0212h-0.04233l-0.02117-0.0212-0.08466-0.0424h-0.02117l-0.08466-0.0424h-0.04233l-0.04233-0.0212h-0.02117l-0.04233-0.0212h-0.08467l-0.04233-0.0212h-0.10583l-0.04233-0.0212h-0.65617v-0.762h0.40217l0.08467-0.0212h0.0635l0.08467-0.0212h0.0635l0.08467-0.0212 0.1905-0.0635 0.0635-0.0423 0.04233-0.0212 0.0635-0.0212 0.04233-0.0423 0.0635-0.0423 0.127-0.127 0.02117-0.0423 0.04233-0.0423 0.02117-0.0635 0.04233-0.0635 0.02117-0.0423 0.02117-0.0635 0.0635-0.1905v-0.0847l0.02117-0.0635v-0.4445l-0.02117-0.0635v-0.0635l-0.02117-0.0635v-0.0635l-0.02117-0.0423-0.02117-0.0635-0.04233-0.0847-0.02117-0.0212v-0.0212l-0.02117-0.0212-0.02117-0.0423-0.08467-0.0847v-0.0212l-0.02117-0.0212-0.08466-0.0846-0.04233-0.0212-0.04233-0.0423-0.0635-0.0212-0.08467-0.0423-0.0635-0.0212-0.04233-0.0212-0.0635-0.0212h-0.0635l-0.0635-0.0212h-0.0635l-0.0635-0.0212h-0.27517l-0.0635 0.0212h-0.0635l-0.0635 0.0212h-0.0635l-0.127 0.0423-0.04233 0.0212-0.0635 0.0212-0.08466 0.0424-0.0635 0.0423-0.04233 0.0212-0.08466 0.0846-0.04233 0.0212-0.02117 0.0423-0.04233 0.0635-0.04233 0.0423-0.02117 0.0423-0.04233 0.0423-0.04234 0.127-0.02117 0.0423-0.04234 0.127-0.04233 0.127v0.0847l-0.02117 0.0635v0.0847h-0.9949v-0.127l0.02117-0.0635v-0.0423l0.02117-0.0635v-0.0635l0.02117-0.0423 0.02117-0.0635v-0.0423l0.02117-0.0635 0.02117-0.0423 0.02117-0.0635 0.0635-0.127 0.02117-0.0635 0.06351-0.1269 0.04233-0.0423 0.04233-0.0847 0.04233-0.0423 0.04233-0.0847 0.04233-0.0212 0.04233-0.0423 0.02117-0.0423 0.04233-0.0212 0.04233-0.0423 0.02117-0.0423 0.04233-0.0212 0.04233-0.0423 0.08466-0.0424 0.04233-0.0423 0.127-0.0635 0.04233-0.0423 0.21167-0.10583 0.0635-0.0212h0.04233l0.08467-0.0423 0.0635-0.0212h0.04233l0.04233-0.0212h0.0635l0.04233-0.0212h0.0635l0.04233-0.0212h0.16933l0.04233-0.0212h0.46567l0.0635 0.0212h0.127l0.04233 0.0212h0.127l0.04233 0.0212 0.0635 0.0212h0.04233l0.0635 0.0212 0.04233 0.0212h0.04233l0.0635 0.0212 0.08467 0.0423 0.0635 0.0212 0.127 0.0635 0.04233 0.0423 0.08467 0.0423 0.04233 0.0423 0.08466 0.0424 0.04233 0.0423 0.04233 0.0212 0.04233 0.0423 0.02117 0.0423 0.04233 0.0212 0.04233 0.0423 0.02117 0.0423 0.10583 0.10584 0.04233 0.0847 0.02117 0.0423 0.04233 0.0423 0.0635 0.127 0.02117 0.0423 0.04233 0.0847v0.0423l0.02117 0.0635 0.02117 0.0423v0.0423l0.02117 0.0423 0.02117 0.0635v0.0847l0.02117 0.0635v0.10583l0.02117 0.0423v0.27516l-0.02117 0.0635v0.127l-0.02117 0.0635-0.02117 0.0423v0.0635l-0.04234 0.127-0.02117 0.0423-0.04234 0.127-0.04233 0.0423-0.02117 0.0635-0.04233 0.0423-0.02117 0.0635-0.04233 0.0423-0.04233 0.0635-0.02117 0.0423-0.04233 0.0423-0.0635 0.0423-0.127 0.127-0.0635 0.0423-0.04233 0.0423-0.0635 0.0423-0.0635 0.0212-0.0635 0.0423-0.0635 0.0212-0.0635 0.0423" fill="#1e1917"/>
   </g>
   <path d="m94.028 136.62h1.397v-8.0433h-1.397z" fill="#7e7e7e"/>
  </g>
  <g stroke="#1e1917" stroke-linecap="round" stroke-linejoin="round" stroke-miterlimit="10" stroke-width=".072672">
   <path d="m94.028 128.57h1.397v8.0433h-1.397z" fill="none"/>
   <path d="m95.425 128.57" fill="none"/>
   <path d="m92.8 129.57h0.0635l0.0635 0.0212h0.0635l0.0635 0.0212h0.0635l0.0635 0.0212 0.04233 0.0212 0.127 0.0423 0.04233 0.0212 0.0635 0.0423 0.04233 0.0212 0.04233 0.0423 0.0635 0.0423 0.127 0.127 0.02117 0.0423 0.04233 0.0423 0.04233 0.0635 0.02117 0.0423 0.04233 0.0423 0.04233 0.127 0.02117 0.0423 0.0635 0.1905v0.0635l0.02117 0.0635v0.254l-0.02117 0.0635v0.0635l-0.02117 0.0423-0.0635 0.1905-0.02117 0.0423-0.02117 0.0635-0.04233 0.0423-0.02117 0.0635-0.08466 0.0846-0.02117 0.0635-0.08467 0.0847-0.04233 0.0212-0.0635 0.0423-0.04233 0.0423-0.04233 0.0212-0.0635 0.0423-0.04233 0.0212-0.127 0.0423-0.04233 0.0212-0.127 0.0423h-0.0635l-0.0635 0.0212h-0.254l-0.0635-0.0212h-0.0635l-0.04233-0.0212-0.1905-0.0635-0.04233-0.0212-0.0635-0.0212-0.04233-0.0423-0.0635-0.0212-0.08467-0.0847-0.04233-0.0212-0.08467-0.0847-0.04233-0.0635-0.04233-0.0423-0.02117-0.0423-0.04233-0.0635-0.02117-0.0423-0.04233-0.0635-0.02117-0.0423-0.06351-0.1905v-0.0423l-0.02117-0.0635v-0.381l0.02117-0.0635v-0.0635l0.04234-0.127 0.02117-0.0423 0.02117-0.0635 0.04233-0.0635 0.02117-0.0423 0.04233-0.0423 0.02117-0.0635 0.08466-0.0846 0.21167-0.21166 0.0635-0.0212 0.04233-0.0423 0.0635-0.0212 0.04233-0.0212 0.1905-0.0635h0.04233l0.0635-0.0212h0.0635l0.0635-0.0212h0.0635" fill="#c1bfbe" fill-rule="evenodd"/>
   <path d="m96.758 133.16h0.16933l0.127 0.0423h0.0635l0.0635 0.0212 0.04233 0.0212 0.0635 0.0423 0.0635 0.0212 0.04233 0.0212 0.04233 0.0423 0.0635 0.0212 0.21167 0.21167 0.04233 0.0635 0.02117 0.0423 0.04233 0.0423 0.02117 0.0635 0.02117 0.0423 0.04233 0.0635 0.02117 0.0635 0.02117 0.0423v0.0635l0.04234 0.127v0.381l-0.04234 0.127v0.0635l-0.02117 0.0423-0.02117 0.0635-0.04233 0.0635-0.02117 0.0423-0.02117 0.0635-0.04233 0.0423-0.02117 0.0635-0.21167 0.21167-0.04233 0.0423-0.0635 0.0212-0.04233 0.0423-0.04233 0.0212-0.0635 0.0423-0.0635 0.0212-0.04233 0.0212-0.0635 0.0212h-0.0635l-0.127 0.0423h-0.35983l-0.127-0.0423h-0.0635l-0.0635-0.0212-0.04233-0.0212-0.0635-0.0212-0.04233-0.0423-0.0635-0.0212-0.04233-0.0423-0.0635-0.0212-0.04233-0.0423-0.16933-0.16933-0.02117-0.0423-0.04233-0.0635-0.04233-0.0423-0.02117-0.0635-0.02117-0.0423-0.02117-0.0635-0.04233-0.0635v-0.0423l-0.04234-0.127v-0.0635l-0.02117-0.0635v-0.254l0.02117-0.0635v-0.0635l0.04233-0.127v-0.0423l0.04233-0.0635 0.02117-0.0635 0.02117-0.0423 0.02117-0.0635 0.08467-0.0847 0.02117-0.0635 0.21167-0.21167 0.0635-0.0212 0.04233-0.0423 0.0635-0.0212 0.04233-0.0212 0.0635-0.0423 0.04233-0.0212 0.0635-0.0212h0.0635l0.127-0.0423h0.1905" fill="#c1bfbe" fill-rule="evenodd"/>
  </g>
 </g>
</svg>
