<?xml version="1.0" encoding="UTF-8"?>
<!-- Created with Inkscape (http://www.inkscape.org/) -->
<svg width="7.124mm" height="23.977mm" version="1.1" viewBox="0 0 7.124 23.977" xmlns="http://www.w3.org/2000/svg">
 <defs>
  <clipPath id="clipPath476">
   <path transform="translate(-242.52 -256.88)" d="m239.22 215.9h3.6v41.22h-3.6z"/>
  </clipPath>
  <clipPath id="clipPath478">
   <path transform="translate(-242.52 -256.88)" d="m239.22 215.9h3.6v41.22h-3.6z"/>
  </clipPath>
  <clipPath id="clipPath481">
   <path transform="translate(-2.5e-5 2.5e-5)" d="m230.88 255.26h20.22v28.62h-20.22z"/>
  </clipPath>
 </defs>
 <g transform="translate(-96.043 -95.514)">
  <path d="m99.065 119.45h1.0795v-14.414h-1.0795z" fill="#7e7e7e"/>
  <path transform="matrix(.35278 0 0 -.35278 100.14 105.03)" d="m-3.06 0h3.06v-40.86h-3.06z" clip-path="url(#clipPath476)" fill="none" stroke="#1e1917" stroke-linecap="round" stroke-linejoin="round" stroke-miterlimit="10" stroke-width=".286"/>
  <path transform="matrix(.35278 0 0 -.35278 100.14 105.03)" d="m0 0z" clip-path="url(#clipPath478)" fill="none" stroke="#1e1917" stroke-linecap="round" stroke-linejoin="round" stroke-miterlimit="10" stroke-width=".286"/>
  <path d="m96.081 105.52h7.0485v-9.9695h-7.0485z" fill="#fff"/>
  <path transform="matrix(.35278 0 0 -.35278 14.589 195.66)" d="m231 283.76h19.98v-28.26h-19.98z" clip-path="url(#clipPath481)" fill="none" stroke="#1e1917" stroke-linecap="round" stroke-linejoin="round" stroke-miterlimit="10" stroke-width=".214"/>
  <path d="m102.05 104.38h-0.762l-0.61383-2.3072h-2.1167l-0.5715 2.3072h-0.71967l1.9685-7.5777h0.71967zm-1.5663-3.1115-0.0847-0.29633-0.0635-0.27517-0.0847-0.254-0.0635-0.254-0.0423-0.23283-0.0635-0.21167-0.0423-0.21167-0.0635-0.16933-0.04233-0.16933-0.02117-0.14817-0.04233-0.14817-0.04234-0.21167-0.02117-0.08467-0.02117-0.0635-0.02117-0.04233-0.02117-0.08467-0.04234-0.21167-0.04234-0.21167-0.02117-0.127-0.04233-0.254h-0.02117l-0.02117 0.08467v0.10583l-0.02117 0.08467v0.08467l-0.02117 0.10583-0.04234 0.16934v0.08467l-0.02117 0.10583-0.08468 0.33868v0.08467l-0.02117 0.08467-0.02117 0.0635-0.5715 2.2648h1.7357" fill="#1e1917"/>
 </g>
</svg>
