<?xml version="1.0" encoding="UTF-8"?>
<!-- Created with Inkscape (http://www.inkscape.org/) -->
<svg width="40.449mm" height="20.803mm" version="1.1" viewBox="0 0 40.449 20.803" xmlns="http://www.w3.org/2000/svg">
 <defs>
  <clipPath id="clipPath423">
   <path transform="translate(-301.02 -143.36)" d="m280.2 110.06h40.74v34.08h-40.74z"/>
  </clipPath>
 </defs>
 <g transform="translate(-92.074 -110.6)">
  <path d="m98.721 131.34h1.0583v-9.8213h-1.0583z" fill="#807d7d"/>
  <path d="m98.721 121.52h1.0583v9.8213h-1.0583z" fill="none" stroke="#2b2625" stroke-linecap="round" stroke-linejoin="round" stroke-miterlimit="10" stroke-width=".076906"/>
  <g>
   <path d="m99.25 122.23-6.8368-11.43h13.695l-6.858 11.43" fill="#fff" fill-rule="evenodd"/>
   <g>
    <path d="m99.102 122.32-6.858-11.451 0.3175-0.1905 6.858 11.451zm-6.858-11.451-0.16933-0.27516h0.33867v0.1905zm0.16933-0.27516h13.695v0.381h-13.695zm13.695 0h0.33867l-0.16934 0.27516-0.16933-0.0847zm0.16933 0.27516-6.858 11.451-0.3175-0.1905 6.8368-11.451zm-6.858 11.451-0.16933 0.27517-0.14817-0.27517 0.14817-0.0847 0.16933 0.0847" fill="#2b2625"/>
    <path d="m100.22 111.6 0.47956 0.31006-1.5627 2.3523c0.20877-0.0682 0.40514-0.10336 0.58704-0.10336 0.45992 0 0.84956 0.16537 1.17 0.4961 0.32246 0.32866 0.48369 0.7338 0.48369 1.2154 0 0.33383-0.0785 0.63458-0.23564 0.90123-0.15503 0.26769-0.37517 0.47956-0.66146 0.63666-0.28422 0.15709-0.59014 0.23564-0.91777 0.23564-0.31729 0-0.61185-0.0765-0.8847-0.22737-0.27078-0.154-0.48369-0.36897-0.64079-0.64493-0.15503-0.27491-0.23151-0.57154-0.23151-0.88883 0-0.23358 0.04754-0.48059 0.14469-0.74001 0.09612-0.25838 0.26872-0.57154 0.51676-0.93844zm-0.63252 3.0634c-0.33693 0-0.62322 0.11885-0.8599 0.35553-0.23771 0.23461-0.35553 0.51986-0.35553 0.85576 0 0.33383 0.11782 0.61908 0.35553 0.85576 0.23668 0.23771 0.52296 0.35554 0.8599 0.35554 0.3359 0 0.62219-0.11783 0.8599-0.35554 0.23668-0.23668 0.35553-0.52193 0.35553-0.85576 0-0.3359-0.11885-0.62115-0.35553-0.85576-0.23771-0.23668-0.524-0.35553-0.8599-0.35553z" fill="#2b2625" aria-label="6"/>
    <path d="m124.8 131.36h1.0795v-4.1275h-1.0795z" fill="#807d7d"/>
   </g>
  </g>
  <path d="m124.8 127.23h1.0795v4.1275h-1.0795z" fill="none" stroke="#2b2625" stroke-linecap="round" stroke-linejoin="round" stroke-miterlimit="10" stroke-width=".076906"/>
  <path d="m125.88 127.23z" fill="none" stroke="#2b2625" stroke-linecap="round" stroke-linejoin="round" stroke-miterlimit="10" stroke-width=".076906"/>
  <g>
   <path d="m125.35 116.04 6.8368 11.43h-13.695l6.858-11.43" fill="#fff" fill-rule="evenodd"/>
   <path transform="matrix(.35278 0 0 -.35278 125.5 115.93)" d="m0 0 19.44-32.46-0.9-0.54-19.44 32.46zm19.44-32.46 0.48-0.78h-0.96v0.54zm-0.48-0.78h-38.82v1.02h38.82zm-38.82 0h-0.96l0.54 0.78 0.42-0.24zm-0.42 0.78 19.38 32.46 0.9-0.54-19.38-32.46zm19.38 32.46 0.48 0.78 0.42-0.78-0.42-0.3-0.48 0.3" clip-path="url(#clipPath423)" fill="#2b2625"/>
   <path d="m126.17 120.32 0.47956 0.31006-1.5627 2.3523c0.20878-0.0682 0.40515-0.10335 0.58705-0.10335 0.45992 0 0.84956 0.16536 1.17 0.49609 0.32246 0.32866 0.48369 0.73381 0.48369 1.2154 0 0.33383-0.0785 0.63459-0.23564 0.90124-0.15503 0.26768-0.37517 0.47956-0.66146 0.63665-0.28422 0.1571-0.59014 0.23565-0.91777 0.23565-0.3173 0-0.61185-0.0765-0.8847-0.22738-0.27079-0.154-0.4837-0.36897-0.64079-0.64492-0.15503-0.27492-0.23151-0.57154-0.23151-0.88884 0-0.23357 0.0475-0.48059 0.14469-0.74 0.0961-0.25838 0.26872-0.57154 0.51677-0.93845zm-0.63252 3.0634c-0.33693 0-0.62322 0.11886-0.85989 0.35553-0.23772 0.23461-0.35554 0.51987-0.35554 0.85577 0 0.33383 0.11782 0.61908 0.35554 0.85576 0.23667 0.23771 0.52296 0.35553 0.85989 0.35553 0.3359 0 0.62219-0.11782 0.8599-0.35553 0.23668-0.23668 0.35553-0.52193 0.35553-0.85576 0-0.3359-0.11885-0.62116-0.35553-0.85577-0.23771-0.23667-0.524-0.35553-0.8599-0.35553z" aria-label="6"/>
  </g>
 </g>
</svg>
