<?xml version="1.0" encoding="UTF-8"?>
<!-- Created with Inkscape (http://www.inkscape.org/) -->
<svg width="53.721mm" height="27.538mm" version="1.1" viewBox="0 0 53.721 27.538" xmlns="http://www.w3.org/2000/svg">
 <defs>
  <clipPath id="clipPath517">
   <path transform="translate(-216.9 -612.44)" d="m212.64 575.48h4.56v37.2h-4.56z"/>
  </clipPath>
  <clipPath id="clipPath519">
   <path transform="translate(-216.9 -612.44)" d="m212.64 575.48h4.56v37.2h-4.56z"/>
  </clipPath>
  <clipPath id="clipPath531">
   <path transform="translate(-313.26 -633.56)" d="m285 589.22h54.78v45.84h-54.78z"/>
  </clipPath>
 </defs>
 <g transform="translate(-88.635 -108.48)">
  <path d="m97.588 135.97h1.4182v-12.996h-1.4182z" fill="#7e7e7e"/>
  <path transform="matrix(.35278 0 0 -.35278 99.007 122.98)" d="m-4.02 0h4.02v-36.84h-4.02z" clip-path="url(#clipPath517)" fill="none" stroke="#1e1917" stroke-linecap="round" stroke-linejoin="round" stroke-miterlimit="10" stroke-width=".281"/>
  <path transform="matrix(.35278 0 0 -.35278 99.007 122.98)" d="m0 0z" clip-path="url(#clipPath519)" fill="none" stroke="#1e1917" stroke-linecap="round" stroke-linejoin="round" stroke-miterlimit="10" stroke-width=".281"/>
  <g>
   <path d="m98.308 123.93-9.0382-15.092h18.076l-9.0382 15.092" fill="#fff" fill-rule="evenodd"/>
   <path d="m97.991 124.1-9.0382-15.092 0.61383-0.35984 9.0382 15.092zm-9.0382-15.092-0.3175-0.52917h0.635v0.35983zm0.3175-0.52917h18.076v0.6985h-18.076zm18.076 0h0.61383l-0.3175 0.52917-0.29633-0.16934zm0.29633 0.52917-9.0382 15.092-0.61383-0.35983 9.0382-15.092zm-9.0382 15.092-0.29633 0.52917-0.3175-0.52917 0.3175-0.16933 0.29633 0.16933" fill="#1e1917"/>
   <path d="m98.35 122.47-7.5353-12.912h14.986l-7.4507 12.912" fill="#edee20" fill-rule="evenodd" stroke="#fff" stroke-linecap="round" stroke-linejoin="round" stroke-miterlimit="10" stroke-width=".075847"/>
   <path d="m99.557 109.9 0.635 0.40217-2.0743 3.1115 0.10583-0.0212 0.10583-0.0423 0.08467-0.0212 0.10583-0.0212h0.10583l0.08467-0.0212h0.40217l0.52917 0.10583 0.08467 0.0423 0.10583 0.0423 0.08467 0.0635 0.10584 0.0423 0.254 0.1905 0.3175 0.3175 0.0635 0.0847 0.0635 0.10583 0.0423 0.0847 0.0635 0.10583 0.0423 0.0847 0.0847 0.21166 0.0212 0.10584 0.0423 0.10583 0.0423 0.21167v0.10583l0.0212 0.127v0.1905l-0.0212 0.0847v0.14816l-0.0212 0.0847v0.0847l-0.0212 0.0635-0.0212 0.0847-0.0212 0.0635-0.0212 0.0847-0.0212 0.0635-0.0423 0.0635-0.0212 0.0847-0.0212 0.0635-0.0847 0.127-0.0423 0.0847-0.0423 0.0635-0.0423 0.0423-0.1269 0.1905-0.0635 0.0423-0.0423 0.0635-0.0635 0.0423-0.0635 0.0635-0.0635 0.0423-0.0423 0.0423-0.127 0.0847-0.08468 0.0423-0.127 0.0847-0.08467 0.0423-0.0635 0.0212-0.08467 0.0423-0.0635 0.0212-0.08467 0.0212-0.0635 0.0212-0.08467 0.0212-0.0635 0.0212-0.08467 0.0212h-0.0635l-0.08467 0.0212h-0.08467l-0.08467 0.0212h-0.3175l-0.0635-0.0212h-0.14817l-0.08467-0.0212-0.0635-0.0212-0.08467-0.0212-0.0635-0.0212-0.08467-0.0212-0.127-0.0423-0.08467-0.0423-0.0635-0.0212-0.0635-0.0423-0.0635-0.0212-0.08467-0.0423-0.127-0.0847-0.04233-0.0423-0.0635-0.0423-0.0635-0.0635-0.0635-0.0423-0.04233-0.0635-0.14817-0.14817-0.04233-0.0635-0.0635-0.0635-0.02117-0.0635-0.04233-0.0635-0.04233-0.0847-0.08467-0.127-0.02117-0.0635-0.04233-0.0847-0.04234-0.127-0.02117-0.0847-0.02117-0.0635-0.02117-0.0847-0.02117-0.0635v-0.0847l-0.02117-0.0635v-0.14817l-0.02117-0.0847v-0.1905l0.02117-0.127v-0.127l0.04233-0.10584 0.04233-0.254 0.08466-0.254 0.0635-0.127 0.127-0.29633 0.16933-0.29633 0.21167-0.33867 0.10583-0.1905zm-0.84667 4.0428h-0.14817l-0.08467 0.0212h-0.08467l-0.0635 0.0212-0.08467 0.0212-0.0635 0.0212-0.08467 0.0423-0.0635 0.0212-0.0635 0.0423-0.08467 0.0423-0.0635 0.0212-0.0635 0.0635-0.127 0.0847-0.04233 0.0635-0.127 0.127-0.16933 0.254-0.04233 0.0635-0.02117 0.0635-0.02117 0.0847-0.04233 0.0635-0.02117 0.0847v0.0847l-0.02117 0.0635v0.0847l-0.02117 0.0847v0.16934l0.02117 0.0635v0.0847l0.02117 0.0847v0.0635l0.02117 0.0847 0.04233 0.0635 0.02117 0.0847 0.02117 0.0635 0.127 0.1905 0.08466 0.127 0.127 0.127 0.04233 0.0635 0.127 0.0847 0.0635 0.0635 0.0635 0.0423 0.08467 0.0212 0.0635 0.0423 0.0635 0.0212 0.08467 0.0423 0.0635 0.0212 0.08467 0.0212 0.0635 0.0212h0.08467l0.08467 0.0212h0.3175l0.08467-0.0212h0.0635l0.16933-0.0423 0.0635-0.0212 0.0635-0.0423 0.08467-0.0212 0.0635-0.0423 0.0635-0.0212 0.0635-0.0423 0.0635-0.0635 0.127-0.0847 0.127-0.127 0.08466-0.127 0.0635-0.0635 0.0423-0.0635 0.0212-0.0635 0.0423-0.0635 0.0212-0.0635 0.0423-0.0847 0.0212-0.0635 0.0212-0.0847 0.0212-0.0635v-0.0847l0.0212-0.0847v-0.3175l-0.0212-0.0847v-0.0635l-0.0424-0.1694-0.0212-0.0635-0.0423-0.0847-0.0212-0.0635-0.0423-0.0635-0.0212-0.0635-0.0423-0.0635-0.0635-0.0635-0.08467-0.127-0.127-0.127-0.127-0.0847-0.0635-0.0635-0.0635-0.0212-0.127-0.0847-0.08467-0.0212-0.0635-0.0423-0.0635-0.0212-0.16933-0.0423h-0.0635l-0.08467-0.0212h-0.16933" fill="#1e1917"/>
  </g>
  <path d="m99.557 109.9 0.635 0.40217-2.0743 3.1115 0.10583-0.0212 0.10583-0.0423 0.08467-0.0212 0.10583-0.0212h0.10583l0.08467-0.0212h0.40217l0.52917 0.10583 0.08467 0.0423 0.10583 0.0423 0.08467 0.0635 0.10584 0.0423 0.254 0.1905 0.3175 0.3175 0.0635 0.0847 0.0635 0.10583 0.0423 0.0847 0.0635 0.10583 0.0423 0.0847 0.0847 0.21166 0.0212 0.10584 0.0423 0.10583 0.0423 0.21167v0.10583l0.0212 0.127v0.1905l-0.0212 0.0847v0.14816l-0.0212 0.0847v0.0847l-0.0212 0.0635-0.0212 0.0847-0.0212 0.0635-0.0212 0.0847-0.0212 0.0635-0.0423 0.0635-0.0212 0.0847-0.0212 0.0635-0.0847 0.127-0.0423 0.0847-0.0423 0.0635-0.0423 0.0423-0.1269 0.1905-0.0635 0.0423-0.0423 0.0635-0.0635 0.0423-0.0635 0.0635-0.0635 0.0423-0.0423 0.0423-0.127 0.0847-0.08468 0.0423-0.127 0.0847-0.08467 0.0423-0.0635 0.0212-0.08467 0.0423-0.0635 0.0212-0.08467 0.0212-0.0635 0.0212-0.08467 0.0212-0.0635 0.0212-0.08467 0.0212h-0.0635l-0.08467 0.0212h-0.08467l-0.08467 0.0212h-0.3175l-0.0635-0.0212h-0.14817l-0.08467-0.0212-0.0635-0.0212-0.08467-0.0212-0.0635-0.0212-0.08467-0.0212-0.127-0.0423-0.08467-0.0423-0.0635-0.0212-0.0635-0.0423-0.0635-0.0212-0.08467-0.0423-0.127-0.0847-0.04233-0.0423-0.0635-0.0423-0.0635-0.0635-0.0635-0.0423-0.04233-0.0635-0.14817-0.14817-0.04233-0.0635-0.0635-0.0635-0.02117-0.0635-0.04233-0.0635-0.04233-0.0847-0.08467-0.127-0.02117-0.0635-0.04233-0.0847-0.04234-0.127-0.02117-0.0847-0.02117-0.0635-0.02117-0.0847-0.02117-0.0635v-0.0847l-0.02117-0.0635v-0.14817l-0.02117-0.0847v-0.1905l0.02117-0.127v-0.127l0.04233-0.10584 0.04233-0.254 0.08466-0.254 0.0635-0.127 0.127-0.29633 0.16933-0.29633 0.21167-0.33867 0.10583-0.1905z" fill="none" stroke="#1e1917" stroke-linecap="round" stroke-linejoin="round" stroke-miterlimit="10" stroke-width=".075847"/>
  <path d="m98.71 113.94h-0.14817l-0.08467 0.0212h-0.08467l-0.0635 0.0212-0.08467 0.0212-0.0635 0.0212-0.08467 0.0423-0.0635 0.0212-0.0635 0.0423-0.08467 0.0423-0.0635 0.0212-0.0635 0.0635-0.127 0.0847-0.04233 0.0635-0.127 0.127-0.16933 0.254-0.04233 0.0635-0.02117 0.0635-0.02117 0.0847-0.04233 0.0635-0.02117 0.0847v0.0847l-0.02117 0.0635v0.0847l-0.02117 0.0847v0.16933l0.02117 0.0635v0.0847l0.02117 0.0847v0.0635l0.02117 0.0847 0.04233 0.0635 0.02117 0.0847 0.02117 0.0635 0.127 0.1905 0.08466 0.127 0.127 0.127 0.04233 0.0635 0.127 0.0847 0.0635 0.0635 0.0635 0.0423 0.08467 0.0212 0.0635 0.0423 0.0635 0.0212 0.08467 0.0423 0.0635 0.0212 0.08467 0.0212 0.0635 0.0212h0.08467l0.08467 0.0212h0.3175l0.08467-0.0212h0.0635l0.16933-0.0423 0.0635-0.0212 0.0635-0.0423 0.08467-0.0212 0.0635-0.0423 0.0635-0.0212 0.0635-0.0423 0.0635-0.0635 0.127-0.0847 0.127-0.127 0.08466-0.127 0.0635-0.0635 0.0423-0.0635 0.0212-0.0635 0.0423-0.0635 0.0212-0.0635 0.0423-0.0847 0.0212-0.0635 0.0212-0.0847 0.0212-0.0635v-0.0847l0.0212-0.0847v-0.3175l-0.0212-0.0847v-0.0635l-0.0424-0.1694-0.0212-0.0635-0.0423-0.0847-0.0212-0.0635-0.0423-0.0635-0.0212-0.0635-0.0423-0.0635-0.0635-0.0635-0.08466-0.127-0.127-0.127-0.127-0.0847-0.0635-0.0635-0.0635-0.0212-0.127-0.0847-0.08467-0.0212-0.0635-0.0423-0.0635-0.0212-0.16933-0.0423h-0.0635l-0.08467-0.0212z" fill="none" stroke="#1e1917" stroke-linecap="round" stroke-linejoin="round" stroke-miterlimit="10" stroke-width=".075847"/>
  <path d="m131.98 135.93h1.4182v-5.461h-1.4182z" fill="#7e7e7e"/>
  <path d="m131.98 130.47h1.4182v5.461h-1.4182z" fill="none" stroke="#1e1917" stroke-linecap="round" stroke-linejoin="round" stroke-miterlimit="10" stroke-width=".09913"/>
  <path d="m133.4 130.47z" fill="none" stroke="#1e1917" stroke-linecap="round" stroke-linejoin="round" stroke-miterlimit="10" stroke-width=".09913"/>
  <g>
   <path d="m132.7 115.7 9.0382 15.092h-18.098l9.0593-15.092" fill="#fff" fill-rule="evenodd"/>
   <path transform="matrix(.35278 0 0 -.35278 133 115.53)" d="m0 0 25.62-42.78-1.74-1.02-25.62 42.78zm25.62-42.78 0.9-1.5h-1.74v1.02zm-0.84-1.5h-51.3v1.98h51.3zm-51.3 0h-1.74l0.9 1.5 0.84-0.48zm-0.84 1.5 25.62 42.78 1.74-1.02-25.62-42.78zm25.62 42.78 0.9 1.5 0.84-1.5-0.84-0.48-0.9 0.48" clip-path="url(#clipPath531)" fill="#1e1917"/>
   <path d="m132.64 117.16 7.5353 12.912h-14.986l7.4507-12.912" fill="#edee20" fill-rule="evenodd"/>
  </g>
  <text transform="scale(1.0034 .99659)" x="129.44536" y="129.55827" font-size="4.2189px" stroke-width=".35157" xml:space="preserve"><tspan x="129.44536" y="129.55827" fill="#000000" font-family="'Century Gothic'" font-size="10.606px" stroke-width=".35157">6</tspan></text>
 </g>
</svg>
