<?xml version="1.0" encoding="UTF-8"?>
<!-- Created with Inkscape (http://www.inkscape.org/) -->
<svg width="8.2075mm" height="18.354mm" version="1.1" viewBox="0 0 8.2075 18.354" xmlns="http://www.w3.org/2000/svg">
 <defs>
  <clipPath id="clipPath355">
   <path transform="translate(0 2.5e-5)" d="m270.78 350.84h23.28v12.24h-23.28z"/>
  </clipPath>
 </defs>
 <g transform="translate(-131.23 -103.72)">
  <path d="m134.81 122.02h1.0795v-6.7522h-1.0795z" fill="#807d7d"/>
  <path d="m134.81 115.27h1.0795v6.7522h-1.0795z" fill="none" stroke="#2b2625" stroke-linecap="round" stroke-linejoin="round" stroke-miterlimit="10" stroke-width=".098778"/>
  <path d="m135.89 115.27z" fill="none" stroke="#2b2625" stroke-linecap="round" stroke-linejoin="round" stroke-miterlimit="10" stroke-width=".098778"/>
  <g>
   <path d="m131.91 103.75h7.0062l0.0212 0.0212h0.0423l0.0212 0.0212h0.0212l0.0423 0.0212h0.0212l0.0423 0.0423h0.0212l0.0423 0.0212 0.0847 0.0847v0.0212l0.0423 0.0423 0.0212 0.0423v0.0212l0.0212 0.0212v0.0212l0.0212 0.0423v0.0212l0.0212 0.0212v11.049l-0.0212 0.0423v0.0212l-0.0212 0.0212v0.0423l-0.0212 0.0212v0.0212l-0.0635 0.0635v0.0423l-0.0423 0.0423h-0.0212l-0.0212 0.0212-0.0423 0.0212-0.0423 0.0423h-0.0212l-0.0212 0.0212-0.0423 0.0212h-0.0423l-0.0423 0.0212h-0.0635l-0.0212 0.0212h-7.0062l-0.0423-0.0212h-0.0635l-0.0212-0.0212h-0.0635l-0.0424-0.0424h-0.0212l-0.0423-0.0212-0.0635-0.0635h-0.0212l-0.0423-0.0423-0.0212-0.0423v-0.02147l-0.0636-0.0636v-0.0212l-0.0212-0.0423v-0.0212l-0.0212-0.0212v-11.112l0.0212-0.0212v-0.0423l0.0212-0.0212v-0.0212l0.0212-0.0212 0.0212-0.0423 0.0212-0.0212v-0.0212l0.127-0.127h0.0212l0.0423-0.0212 0.0212-0.0212h0.0212l0.0212-0.0212h0.0423l0.0212-0.0212h0.0212l0.0423-0.0212h0.127" fill="#fff" fill-rule="evenodd" stroke="#2b2625" stroke-linecap="round" stroke-linejoin="round" stroke-miterlimit="10" stroke-width=".074083"/>
   <path d="m133.07 114.4v-9.3345h4.572v1.1007h-3.7465v2.8575h3.5137v1.1007h-3.5137v3.175h3.8947v1.1007h-4.7202" fill="#2b2625"/>
   <path d="m131.28 120.05h8.1068v-4.1275h-8.1068z" fill="#fff"/>
  </g>
  <path transform="matrix(.35278 0 0 -.35278 35.708 243.93)" d="m270.9 362.84h22.98v-11.7h-22.98z" clip-path="url(#clipPath355)" fill="none" stroke="#2b2625" stroke-linecap="round" stroke-linejoin="round" stroke-miterlimit="10" stroke-width=".277"/>
  <path d="m133.35 119.57v-2.4765h0.99483l0.0212 0.0212h0.1905l0.0423 0.0212h0.0635l0.0423 0.0212h0.0212l0.0212 0.0212h0.0423l0.0212 0.0212h0.0212l0.0423 0.0423h0.0212v0.0212h0.0212l0.0423 0.0423v0.0212h0.0212l0.0424 0.0424v0.0212l0.0212 0.0212v0.0212l0.0212 0.0212v0.0212l0.0212 0.0212v0.0212h0.0212v0.0423l0.0212 0.0212v0.29634l-0.0212 0.0212v0.0212l-0.0212 0.0212v0.0423l-0.0423 0.0423v0.0212l-0.0212 0.0212v0.0212h-0.0212l-0.0212 0.0212v0.0212l-0.0212 0.0212h-0.0212l-0.0635 0.0635h-0.0212l-0.0212 0.0212h-0.0212l-0.0212 0.0212h0.0212l0.0212 0.0212h0.0423l0.0212 0.0212h0.0212l0.0212 0.0212h0.0212l0.0635 0.0635h0.0212l0.0847 0.0847v0.0212h0.0212l0.0212 0.0212v0.0212l0.0212 0.0212v0.0212l0.0212 0.0212v0.0423l0.0212 0.0212v0.0423l0.0212 0.0212v0.254l-0.0212 0.0423v0.0423l-0.0212 0.0212v0.0423l-0.0212 0.0212v0.0212l-0.0423 0.0847-0.0212 0.0212-0.0212 0.0423-0.0212 0.0212-0.0423 0.0212-0.0636 0.0636-0.0423 0.0212-0.0212 0.0212-0.0423 0.0212h-0.0423l-0.0212 0.0212h-0.0423l-0.0423 0.0212h-0.0423l-0.0423 0.0212h-0.10584l-0.0423 0.0212zm0.33867-1.4393h0.80433l0.0423-0.0212h0.0423l0.0423-0.0212 0.0212-0.0212h0.0212l0.0212-0.0212h0.0212v-0.021h0.0212v-0.0212l0.0424-0.0424v-0.0212l0.0212-0.0212v-0.0635l0.0212-0.0212v-0.14816l-0.0212-0.0212v-0.0423l-0.0212-0.0212v-0.0212l-0.0636-0.0636v-0.0212h-0.0212v-0.0212l-0.0212-0.0212h-0.0423l-0.0212-0.0212h-0.0212l-0.0212-0.0212h-0.127l-0.0635-0.0212h-0.67733zm0 1.143h0.84666l0.0423-0.0212h0.0423l0.0212-0.0212h0.0212l0.0423-0.0212h0.0212v-0.0212h0.0212l0.0212-0.0212h0.0212l0.0424-0.0424v-0.0212l0.0423-0.0423v-0.0212l0.0212-0.0212v-0.0847l0.0212-0.0212v-0.127l-0.0212-0.0212v-0.0635l-0.0212-0.0212v-0.0212l-0.0212-0.0212v-0.0212h-0.0212v-0.0212l-0.0635-0.0635h-0.0212v-0.0212h-0.0212l-0.0212-0.0212h-0.0423v-0.0212h-0.0635l-0.0212-0.0212h-0.0847l-0.0635-0.0212h-0.74083v0.84667" fill="#2b2625"/>
  <path d="m137.37 117.09h0.33867v1.5663l-0.0212 0.0423v0.16933l-0.0212 0.0212v0.0847l-0.0212 0.0212v0.0635l-0.0212 0.0212v0.0423l-0.0212 0.0212v0.0212l-0.0212 0.0212-0.0212 0.0423-0.0212 0.0212v0.0212l-0.1694 0.1694-0.0423 0.0212h-0.0212l-0.0212 0.0212-0.0423 0.0212-0.0212 0.0212h-0.0423l-0.0212 0.0212h-0.0423l-0.0423 0.0212h-0.0212l-0.0423 0.0212h-0.0847l-0.0423 0.0212h-0.33867l-0.0423-0.0212h-0.10584l-0.0423-0.0212h-0.0212l-0.0423-0.0212h-0.0212l-0.0423-0.0212h-0.0212l-0.0423-0.0212-0.0212-0.0212h-0.0212l-0.0423-0.0212-0.21173-0.21173v-0.0212l-0.0212-0.0212-0.0212-0.0423v-0.0212l-0.0212-0.0212v-0.0423l-0.0212-0.0212v-0.0423l-0.0212-0.0212v-0.0847l-0.0212-0.0423v-0.10583l-0.0212-0.0423v-1.6298h0.33867v1.651l0.0212 0.0635v0.10583l0.0212 0.0212v0.0423l0.0212 0.0212v0.0212l0.0212 0.0212v0.0212l0.0212 0.0212v0.0212l0.0212 0.0212h0.0212v0.0212l0.0212 0.0212h0.0212v0.0212l0.0212 0.0212h0.0212l0.0212 0.0212h0.0212l0.0212 0.0212h0.0212l0.0212 0.0212h0.0212l0.0212 0.0212h0.10583l0.0212 0.0212h0.29633l0.0423-0.0212h0.0635l0.0423-0.0212h0.0212l0.0423-0.0212 0.0212-0.0212h0.0212l0.0212-0.0212 0.0423-0.0212 0.0424-0.0424v-0.0212l0.0635-0.0635v-0.0423l0.0212-0.0212 0.0212-0.0423v-0.0423l0.0212-0.0423v-0.127l0.0212-0.0635zm-0.8255-0.14817h-0.3175v-0.33866h0.3175zm-0.3175 0m0.9525 0h-0.3175v-0.33866h0.3175z" fill="#2b2625"/>
 </g>
</svg>
