<?xml version="1.0" encoding="UTF-8"?>
<!-- Created with Inkscape (http://www.inkscape.org/) -->
<svg width="89.45mm" height="41.973mm" version="1.1" viewBox="0 0 89.45 41.973" xmlns="http://www.w3.org/2000/svg">
 <defs>
  <clipPath id="clipPath87">
   <path transform="translate(-2.5e-6 2.5e-5)" d="m145.26 344.9h77.28v118.98h-77.28z"/>
  </clipPath>
  <clipPath id="clipPath96">
   <path transform="translate(-2.5e-6 2.5e-5)" d="m287.82 344.9h111v118.98h-111z"/>
  </clipPath>
 </defs>
 <g transform="translate(-63.5 -161.4)">
  <path transform="matrix(.35278 0 0 -.35278 12.255 325.04)" d="m145.26 344.9h77.28v118.98h-77.28z" clip-path="url(#clipPath87)" fill="#b4b2b0"/>
  <path d="m76.433 201.91h1.4182v-22.373h-1.4182z" fill="#7e7e7e"/>
  <g stroke="#1e1917" stroke-linecap="round" stroke-linejoin="round" stroke-miterlimit="10">
   <path d="m76.433 179.54h1.4182v22.373h-1.4182z" fill="none" stroke-width=".099836"/>
   <path d="m77.851 179.54" fill="none" stroke-width=".099836"/>
   <path d="m67.098 163.98h20.066l-10.075 17.928-9.9907-17.928" fill="#fff" fill-rule="evenodd" stroke-width=".074436"/>
   <path d="m69.109 165.08h16.065l-8.0222 14.838-8.0433-14.838" fill="#edee20" fill-rule="evenodd" stroke-width=".074436"/>
  </g>
  <text transform="scale(1.0031 .99686)" x="74.462807" y="174.11282" font-size="4.22px" stroke-width=".35167" xml:space="preserve"><tspan x="74.462807" y="174.11282" fill="#1e1917" font-family="'Microsoft Sans Serif'" font-size="9.329px" stroke-width=".35167">3</tspan></text>
  <g>
   <path d="m75.015 184.43h0.1905l0.127 0.0423h0.0635l0.04233 0.0212 0.0635 0.0212 0.0635 0.0423 0.04233 0.0212 0.0635 0.0212 0.04233 0.0423 0.0635 0.0212 0.21167 0.21167 0.04233 0.0635 0.02117 0.0423 0.04233 0.0423 0.02117 0.0635 0.04233 0.0423 0.04234 0.127 0.02117 0.0423 0.02117 0.0635v0.0635l0.02117 0.0635v0.0635l0.02117 0.0635v0.127l-0.02117 0.0635v0.0635l-0.02117 0.0635v0.0635l-0.02117 0.0635-0.02117 0.0423-0.04234 0.127-0.04233 0.0423-0.02117 0.0635-0.04233 0.0423-0.02117 0.0635-0.254 0.254-0.0635 0.0212-0.04233 0.0423-0.0635 0.0212-0.04233 0.0212-0.0635 0.0423-0.0635 0.0212-0.04233 0.0212h-0.0635l-0.127 0.0423h-0.381l-0.127-0.0423h-0.0635l-0.0635-0.0212-0.04233-0.0212-0.0635-0.0423-0.0635-0.0212-0.04233-0.0212-0.04233-0.0423-0.0635-0.0212-0.254-0.254-0.02117-0.0635-0.04233-0.0423-0.02117-0.0635-0.04233-0.0423-0.04233-0.127-0.02117-0.0423-0.02117-0.0635v-0.0635l-0.02117-0.0635v-0.0635l-0.02117-0.0635v-0.127l0.02117-0.0635v-0.0635l0.02117-0.0635v-0.0635l0.02117-0.0635 0.02117-0.0423 0.04233-0.127 0.04233-0.0423 0.02117-0.0635 0.04233-0.0423 0.02117-0.0423 0.04233-0.0635 0.21167-0.21167 0.0635-0.0212 0.04233-0.0423 0.04233-0.0212 0.0635-0.0212 0.0635-0.0423 0.04233-0.0212 0.0635-0.0212h0.0635l0.127-0.0423h0.1905" fill="#edee20" fill-rule="evenodd" stroke="#1e1917" stroke-linecap="round" stroke-linejoin="round" stroke-miterlimit="10" stroke-width=".074436"/>
   <path d="m79.269 192.91h0.127l0.0635 0.0212h0.0635l0.1905 0.0635 0.04233 0.0212 0.127 0.0423 0.04233 0.0423 0.0635 0.0212 0.127 0.127 0.04233 0.0212 0.04233 0.0635 0.127 0.127 0.02117 0.0635 0.04233 0.0423 0.02117 0.0635 0.02117 0.0423 0.06351 0.1905 0.02117 0.0423v0.0635l0.02117 0.0635v0.254l-0.02117 0.0635v0.0635l-0.08468 0.254-0.02117 0.0423-0.02117 0.0635-0.04233 0.0423-0.02117 0.0635-0.33867 0.33867-0.0635 0.0212-0.04233 0.0423-0.127 0.0423-0.04233 0.0212-0.1905 0.0635h-0.0635l-0.0635 0.0212h-0.254l-0.0635-0.0212h-0.0635l-0.0635-0.0212-0.04233-0.0212-0.1905-0.0635-0.04233-0.0212-0.0635-0.0423-0.04233-0.0212-0.04233-0.0423-0.0635-0.0423-0.16933-0.16933-0.02117-0.0423-0.04233-0.0423-0.04233-0.0635-0.02117-0.0423-0.02117-0.0635-0.04233-0.0423-0.04234-0.127v-0.0635l-0.04234-0.127v-0.381l0.02117-0.0635 0.02117-0.0423v-0.0635l0.04234-0.127 0.04233-0.0423 0.02117-0.0635 0.02117-0.0423 0.04233-0.0635 0.04233-0.0423 0.02117-0.0423 0.04233-0.0423 0.04233-0.0635 0.04233-0.0212 0.04233-0.0423 0.0635-0.0423 0.04233-0.0423 0.04233-0.0212 0.0635-0.0423 0.04233-0.0212 0.1905-0.0635 0.04233-0.0212 0.0635-0.0212h0.0635l0.0635-0.0212h0.127" fill="#edee20" fill-rule="evenodd" stroke="#1e1917" stroke-linecap="round" stroke-linejoin="round" stroke-miterlimit="10" stroke-width=".074436"/>
   <path transform="matrix(.35278 0 0 -.35278 12.255 325.04)" d="m287.82 344.9h111v118.98h-111z" clip-path="url(#clipPath96)" fill="#b4b2b0"/>
   <path d="m128.76 192.83h1.397v-5.4822h-1.397z" fill="#7e7e7e"/>
  </g>
  <g stroke="#1e1917" stroke-linecap="round" stroke-linejoin="round" stroke-miterlimit="10">
   <path d="m128.76 187.35h1.397v5.4822h-1.397z" fill="none" stroke-width=".099836"/>
   <path d="m130.15 187.35" fill="none" stroke-width=".099836"/>
   <path d="m139.49 187.79h-20.024l10.054-17.928 9.9695 17.928" fill="#fff" fill-rule="evenodd" stroke-width=".074436"/>
   <path d="m137.48 186.71h-16.023l8.001-14.838 8.0222 14.838" fill="#edee20" fill-rule="evenodd" stroke-width=".074436"/>
  </g>
  <text transform="scale(1.0015 .9985)" x="126.89348" y="184.76651" font-size="4.227px" stroke-width=".35225" xml:space="preserve"><tspan x="126.89348" y="184.76651" fill="#1e1917" font-family="'Microsoft Sans Serif'" font-size="9.3137px" stroke-width=".35225">3</tspan></text>
  <path d="m141.94 195.62h1.397v-13.695h-1.397z" fill="#7e7e7e"/>
  <g stroke="#1e1917" stroke-linecap="round" stroke-linejoin="round" stroke-miterlimit="10">
   <path d="m141.94 181.93h1.397v13.695h-1.397z" fill="none" stroke-width=".099836"/>
   <path d="m143.34 181.93" fill="none" stroke-width=".099836"/>
   <path d="m140.63 183.13h0.1905l0.127 0.0423h0.0423l0.127 0.0423 0.0635 0.0423 0.0423 0.0212 0.0635 0.0212 0.0847 0.0847 0.0635 0.0212 0.16934 0.16933 0.0212 0.0635 0.0847 0.0847 0.0212 0.0635 0.0212 0.0423 0.0423 0.0635 0.0212 0.0635 0.0212 0.0423v0.0635l0.0424 0.127v0.381l-0.0424 0.127v0.0635l-0.0212 0.0423-0.0212 0.0635-0.0423 0.0635-0.0212 0.0423-0.0212 0.0635-0.0423 0.0423-0.0423 0.0635-0.0212 0.0423-0.16934 0.16933-0.0635 0.0423-0.0423 0.0212-0.0423 0.0423-0.0635 0.0212-0.0423 0.0423-0.1905 0.0635h-0.0423l-0.127 0.0423h-0.381l-0.127-0.0423h-0.0635l-0.0635-0.0212-0.0423-0.0212-0.0635-0.0212-0.0635-0.0423-0.0423-0.0212-0.0635-0.0423-0.0423-0.0212-0.254-0.254-0.0423-0.0635-0.0212-0.0423-0.0423-0.0635-0.0212-0.0423-0.0424-0.127-0.0212-0.0423-0.0212-0.0635v-0.0635l-0.0212-0.0635v-0.0635l-0.0212-0.0635v-0.127l0.0212-0.0635v-0.0635l0.0212-0.0635v-0.0635l0.0212-0.0635 0.0212-0.0423 0.0424-0.127 0.0212-0.0423 0.0423-0.0635 0.0212-0.0423 0.0423-0.0423 0.0423-0.0635 0.16934-0.16933 0.0423-0.0212 0.0423-0.0423 0.0635-0.0423 0.0423-0.0212 0.0635-0.0212 0.0635-0.0423 0.0423-0.0212 0.0635-0.0212h0.0635l0.127-0.0423h0.1905" fill="#edee20" fill-rule="evenodd" stroke-width=".074436"/>
   <path d="m144.78 188.72h0.0635l0.0635 0.0212h0.0635l0.0423 0.0212h0.0635l0.1905 0.0635 0.0423 0.0212 0.0635 0.0423 0.0423 0.0212 0.0635 0.0212 0.0847 0.0847 0.0635 0.0423 0.0847 0.0847 0.0212 0.0423 0.0423 0.0423 0.0423 0.0635 0.0212 0.0423 0.0423 0.0423 0.0424 0.127 0.0212 0.0423 0.0423 0.127 0.0212 0.0635v0.0635l0.0212 0.0635v0.254l-0.0212 0.0635v0.0635l-0.0212 0.0635-0.0212 0.0423-0.0424 0.127-0.0212 0.0423-0.0212 0.0635-0.0423 0.0423-0.0212 0.0635-0.0423 0.0423-0.0423 0.0635-0.0212 0.0423-0.0847 0.0847-0.0635 0.0212-0.0847 0.0847-0.0635 0.0212-0.0423 0.0423-0.0635 0.0212-0.0423 0.0212-0.254 0.0847h-0.0423l-0.0635 0.0212h-0.27517l-0.0635-0.0212h-0.0635l-0.0423-0.0212-0.1905-0.0635-0.0423-0.0212-0.0635-0.0212-0.0423-0.0423-0.0635-0.0212-0.0846-0.0846-0.0423-0.0212-0.0635-0.0423-0.0212-0.0423-0.0423-0.0423-0.0423-0.0635-0.0423-0.0423-0.0212-0.0635-0.0423-0.0423-0.0212-0.0635-0.0212-0.0423-0.0424-0.127-0.0212-0.0423-0.0212-0.0635v-0.0635l-0.0212-0.0635v-0.254l0.0212-0.0635v-0.0635l0.0212-0.0635 0.0423-0.127 0.0212-0.0423 0.0424-0.127 0.0423-0.0423 0.0212-0.0423 0.0423-0.0635 0.0847-0.0847 0.0212-0.0423 0.0635-0.0423 0.127-0.127 0.0635-0.0212 0.0423-0.0212 0.0635-0.0423 0.0423-0.0212 0.1905-0.0635h0.0423l0.0635-0.0212h0.0635l0.0635-0.0212h0.0847" fill="#edee20" fill-rule="evenodd" stroke-width=".074436"/>
  </g>
 </g>
</svg>
