<?xml version="1.0" encoding="UTF-8"?>
<!-- Created with Inkscape (http://www.inkscape.org/) -->
<svg width="10.318mm" height="21.501mm" version="1.1" viewBox="0 0 10.318 21.501" xmlns="http://www.w3.org/2000/svg">
 <defs>
  <clipPath id="clipPath218">
   <path transform="translate(2.5e-5 2.5e-5)" d="m248.9 567.11h29.25v60.95h-29.25z"/>
  </clipPath>
 </defs>
 <g transform="translate(-100.81 -70.644)">
  <path d="m105.41 92.137h1.1776v-9.0092h-1.1776z" fill="#939191"/>
  <path transform="matrix(.35278 0 0 -.35278 12.999 292.21)" d="m265.29 567.13h-3.338v25.538h3.338z" clip-path="url(#clipPath218)" fill="none" stroke="#231f20" stroke-linecap="square" stroke-miterlimit="10" stroke-width=".072"/>
  <path d="m101.17 83.687h9.6608v-12.648h-9.6608z" fill="#f3ef05"/>
  <g fill="#fff">
   <path d="m110.83 70.744 0.29457 0.29386v-0.29386zm-9.6605 0v0.58702h9.6605l-0.29457-0.29316h0.58914l-0.29457-0.29386"/>
   <path d="m110.53 71.038v12.648l0.29457-0.29422v0.58879l0.29457-0.29457v-12.648zm0.29457 12.943h0.29457v-0.29457"/>
   <path d="m100.87 83.687 0.29457 0.29422h9.6608v-0.58843h-9.6608l0.29492 0.29422h-0.58949v0.29422h0.29457" fill-rule="evenodd"/>
   <path d="m101.17 70.744-0.29457 0.29422v12.648h0.58914v-12.648l-0.29457 0.29316v-0.58738h-0.29457v0.29422" fill-rule="evenodd"/>
  </g>
  <path d="m100.84 70.682h10.221v13.277h-10.221zm0.48577 0.66534h9.1468v12.076h-9.1468z" fill="none" stroke="#15110e" stroke-linecap="square" stroke-miterlimit="10" stroke-width=".076553"/>
  <path d="m107.49 76.85c0.55914 0.14676 0.98909 0.42995 1.2898 0.85163 0.30282 0.41961 0.45475 0.91157 0.45475 1.4759 0 0.84646-0.28939 1.5338-0.86817 2.0629-0.57877 0.52917-1.2981 0.79375-2.158 0.79375-0.863 0-1.5658-0.23564-2.1084-0.70693-0.54364-0.47129-0.83509-1.0935-0.87643-1.8686h1.2196c0 0.45269 0.1509 0.84129 0.45475 1.1658 0.30593 0.32246 0.74208 0.48369 1.3105 0.48369 0.55087 0 0.98908-0.1757 1.3146-0.52917 0.32762-0.35553 0.49195-0.81442 0.49195-1.3767 0-0.57258-0.16949-1.0139-0.50849-1.3229-0.339-0.31109-0.83406-0.46715-1.4842-0.46715h-0.45062v-0.91777h0.26872c1.141 0 1.7115-0.52503 1.7115-1.5751 0-0.46302-0.12609-0.81649-0.3762-1.0625-0.24805-0.24495-0.59945-0.36794-1.0542-0.36794-0.93431 0-1.4573 0.48576-1.5668 1.4552h-1.2113c0.0878-0.77411 0.38447-1.3643 0.88883-1.7694 0.50436-0.40721 1.1255-0.61185 1.8645-0.61185 0.81545 0 1.4645 0.22221 1.9472 0.66559 0.48473 0.44442 0.72761 1.016 0.72761 1.7157 0 0.39171-0.10542 0.76068-0.31419 1.1079-0.20981 0.34726-0.53227 0.61392-0.96739 0.79788z" fill="#231f20" aria-label="3"/>
 </g>
</svg>
