<?xml version="1.0" encoding="UTF-8"?>
<!-- Created with Inkscape (http://www.inkscape.org/) -->
<svg width="9.271mm" height="27.481mm" version="1.1" viewBox="0 0 9.271 27.481" xmlns="http://www.w3.org/2000/svg">
 <defs>
  <clipPath id="clipPath639-2">
   <path transform="translate(-2471 -1688.7)" d="m2465 1688.7h219v-270h-219z"/>
  </clipPath>
  <clipPath id="clipPath642-4">
   <path transform="matrix(.12 0 0 -.12578 -302.04 166.24)" d="m2517 1408.7h167v-105h-167z"/>
  </clipPath>
  <clipPath id="clipPath644-2">
   <path transform="matrix(.12 0 0 -.12581 -301.08 186.66)" d="m2509 1688.7h117v-253h-117z"/>
  </clipPath>
 </defs>
 <g transform="translate(-112.18 -67.468)">
  <path d="m116.08 94.9h1.0583v-11.218h-1.0583z" fill="#848382" fill-rule="evenodd" stroke="#1f1a17" stroke-linecap="round" stroke-linejoin="round" stroke-miterlimit="10" stroke-width=".097409"/>
  <path d="m112.39 79.085h8.8344v4.3868h-8.8344z" fill="#fff" stroke-width=".26458"/>
  <path d="m112.44 78.602h8.7207v-10.922h-8.7207z" fill="#fff" fill-rule="evenodd"/>
  <g fill="#1f1a17">
   <path transform="matrix(.042333 0 0 -.042333 112.44 67.468)" d="m0 0h206v-11h-206zm206 0h7v-5h-7zm7-5v-258h-13v258zm0-258v-6h-7v6zm-7-6h-206v12h206zm-206 0h-6v6h6zm-6 6v258h12v-258zm0 258v5h6v-5h-6" clip-path="url(#clipPath639-2)"/>
   <path d="m112.39 78.941h8.8477v0.33867h-8.8477zm8.8477 0h0.16933v0.16933h-0.16933zm0.16933 0.16933v4.4027h-0.381v-4.4027zm0 4.4027v0.16933h-0.16933v-0.16933zm-0.16933 0.16933h-8.8477v-0.33867h8.8477zm-8.8477 0h-0.16933v-0.16933h0.16933zm-0.16933-0.16933v-4.4027h0.381v4.4027zm0-4.4027v-0.16933h0.16933v0.16933h-0.16933"/>
   <path transform="matrix(.35278 0 0 .33656 114.38 83.005)" d="m0.97182-7.8131h1.5352c0.61523 0 1.0898 0.073702 1.418 0.2211 0.33398 0.1474 0.60059 0.37772 0.79688 0.68788 0.19336 0.30402 0.29297 0.63875 0.29297 1.0073 0 0.34394-0.087891 0.66024-0.25781 0.94584-0.17285 0.28866-0.42188 0.51591-0.75 0.68788 0.4043 0.14126 0.71777 0.30402 0.9375 0.49134 0.2168 0.1904 0.38965 0.41457 0.51562 0.6756 0.12305 0.2641 0.1875 0.54969 0.1875 0.85985 0 0.62339-0.23145 1.1516-0.69141 1.5846-0.46289 0.43607-1.0752 0.65103-1.8398 0.65103h-2.1445zm0.76172 0.77387v2.4936h0.44531c0.53906 0 0.93164-0.049134 1.1836-0.1474 0.25781-0.10441 0.45996-0.2641 0.60938-0.47906 0.14648-0.2211 0.22266-0.46063 0.22266-0.72473 0-0.3593-0.12598-0.63875-0.375-0.83528-0.24316-0.20268-0.63867-0.30709-1.1836-0.30709zm0 3.2797v2.9972h0.96094c0.56836 0 0.9873-0.052205 1.2539-0.15969 0.26367-0.11362 0.47461-0.28866 0.63281-0.52819 0.16406-0.23646 0.24609-0.49441 0.24609-0.77387 0-0.34394-0.11426-0.64489-0.33984-0.90899-0.22852-0.26103-0.53613-0.43607-0.92578-0.52819-0.2666-0.064489-0.72656-0.098269-1.3828-0.098269zm5.4785-4.0536h0.78516v4.7169c0 0.5589 0.011719 0.90592 0.035156 1.0441 0.038086 0.31323 0.12891 0.57119 0.26953 0.77387 0.14062 0.20575 0.35449 0.37772 0.64453 0.51591 0.2959 0.14126 0.5918 0.20882 0.89062 0.20882 0.25781 0 0.50391-0.052205 0.73828-0.15969 0.24023-0.10441 0.43945-0.25796 0.59766-0.45449 0.15527-0.19654 0.27246-0.433 0.35156-0.71245 0.05274-0.19654 0.08203-0.6019 0.08203-1.2161v-4.7169h0.77344v4.7169c0 0.69709-0.07031 1.2621-0.21094 1.6951-0.13477 0.42685-0.4043 0.79843-0.80859 1.1178-0.40723 0.31937-0.89941 0.47906-1.4766 0.47906-0.63281 0-1.1777-0.1474-1.6289-0.44221-0.44531-0.30095-0.74414-0.70324-0.89062-1.2038-0.10254-0.30095-0.15234-0.85064-0.15234-1.646zm1.5117-1.8303c0.16406 0 0.30469 0.061418 0.42188 0.18425 0.12305 0.11669 0.1875 0.25796 0.1875 0.42993s-0.064453 0.31937-0.1875 0.44221c-0.11719 0.11669-0.25781 0.17197-0.42188 0.17197-0.17285 0-0.32227-0.055276-0.44531-0.17197-0.11719-0.12284-0.17578-0.27024-0.17578-0.44221s0.058594-0.31323 0.17578-0.42993c0.12305-0.12284 0.27246-0.18425 0.44531-0.18425zm2.1562 0c0.16992 0 0.31641 0.061418 0.43359 0.18425 0.12305 0.11669 0.1875 0.25796 0.1875 0.42993s-0.06445 0.31937-0.1875 0.44221c-0.11719 0.11669-0.26367 0.17197-0.43359 0.17197-0.16406 0-0.31055-0.055276-0.43359-0.17197-0.11719-0.12284-0.17578-0.27024-0.17578-0.44221s0.05859-0.31323 0.17578-0.42993c0.12305-0.12284 0.26953-0.18425 0.43359-0.18425z" clip-path="url(#clipPath642-4)" aria-label="BÜ"/>
   <path transform="matrix(.35278 0 0 .33649 114.05 76.147)" d="m3.5871-14.963h-1.9805c0.35742-1.6125 1.0488-2.8503 2.0742-3.7104 1.0225-0.86616 2.2324-1.3023 3.6328-1.3023 1.0137 0 1.96 0.23343 2.8359 0.7003 0.88184 0.46072 1.5615 1.0812 2.0391 1.8675 0.4834 0.7863 0.72656 1.6095 0.72656 2.4695 0 1.6801-0.83789 3.007-2.5078 3.9806 0.9375 0.38701 1.7051 0.94295 2.3086 1.6709 0.84961 1.032 1.2773 2.193 1.2773 3.4769 0 1.0996-0.29297 2.15-0.87891 3.1575-0.58594 1.0013-1.3828 1.7753-2.3906 2.322-1.002 0.54672-2.127 0.82316-3.375 0.82316-1.6729 0-3.0703-0.48529-4.1953-1.4497-1.125-0.96445-1.8604-2.3865-2.2031-4.2632h1.9102c0.33398 1.2624 0.81445 2.1746 1.4414 2.7398 0.80273 0.7218 1.8311 1.0812 3.082 1.0812 1.4062 0 2.5371-0.42079 3.3984-1.2655 0.8584-0.8508 1.2891-1.846 1.2891-2.9855 0-0.76173-0.2168-1.4743-0.64453-2.1378-0.43066-0.66344-1.0049-1.161-1.7227-1.4989-0.7207-0.33479-1.834-0.54058-3.3398-0.6143v-1.7937c0.89062 0 1.6992-0.15357 2.4258-0.46687 0.73242-0.31943 1.2656-0.71873 1.5937-1.204 0.33398-0.48222 0.50391-1.0105 0.50391-1.5849 0-0.8508-0.33984-1.5849-1.0195-2.1992-0.67383-0.62044-1.5234-0.93373-2.5547-0.93373-0.83789 0-1.5586 0.23958-2.168 0.71258-0.60938 0.47608-1.1309 1.2777-1.5586 2.408z" clip-path="url(#clipPath644-2)" aria-label="3"/>
  </g>
 </g>
</svg>
