<?xml version="1.0" encoding="UTF-8"?>
<!-- Created with Inkscape (http://www.inkscape.org/) -->
<svg width="19.325mm" height="32.126mm" version="1.1" viewBox="0 0 19.325 32.126" xmlns="http://www.w3.org/2000/svg">
 <defs>
  <clipPath id="clipPath562">
   <path transform="translate(-265.56 -151.34)" d="m261.36 114.26h4.5v37.32h-4.5z"/>
  </clipPath>
  <clipPath id="clipPath564">
   <path transform="translate(-265.56 -151.34)" d="m261.36 114.26h4.5v37.32h-4.5z"/>
  </clipPath>
  <clipPath id="clipPath567">
   <path transform="translate(-262.74 -148.1)" d="m236.22 146.6h54.78v45.96h-54.78z"/>
  </clipPath>
 </defs>
 <g transform="translate(-107.16 -84.402)">
  <path d="m116.11 116.49h1.397v-13.039h-1.397z" fill="#7e7e7e"/>
  <path transform="matrix(.35278 0 0 -.35278 117.51 103.45)" d="m-3.96 0h3.96v-36.96h-3.96z" clip-path="url(#clipPath562)" fill="none" stroke="#1e1917" stroke-linecap="round" stroke-linejoin="round" stroke-miterlimit="10" stroke-width=".288"/>
  <path transform="matrix(.35278 0 0 -.35278 117.51 103.45)" d="m0 0z" clip-path="url(#clipPath564)" fill="none" stroke="#1e1917" stroke-linecap="round" stroke-linejoin="round" stroke-miterlimit="10" stroke-width=".288"/>
  <g>
   <path d="m116.83 104.4-9.0593-15.134h18.098l-9.0382 15.134" fill="#fff" fill-rule="evenodd"/>
   <path transform="matrix(.35278 0 0 -.35278 116.51 104.59)" d="m0 0-25.62 42.96 1.74 1.02 25.62-42.96zm-25.62 42.96-0.9 1.5h1.74v-1.02zm0.84 1.5h51.3v-1.98h-51.3zm51.3 0h1.74l-0.9-1.5-0.84 0.48zm0.84-1.5-25.62-42.96-1.74 1.02 25.62 42.96zm-25.62-42.96-0.84-1.44-0.9 1.44 0.9 0.54 0.84-0.54" clip-path="url(#clipPath567)" fill="#1e1917"/>
   <path d="m116.87 102.94-7.5353-12.954h15.007l-7.4718 12.954" fill="#edee20" fill-rule="evenodd" stroke="#fff" stroke-linecap="round" stroke-linejoin="round" stroke-miterlimit="10" stroke-width=".075494"/>
   <path d="m119.47 92.567-0.93133 0.08467-0.0212-0.08467-0.0423-0.127-0.0212-0.04233-0.0212-0.0635v-0.0635l-0.0423-0.04233v-0.0635l-0.0423-0.04233-0.10584-0.21167-0.21166-0.21167-0.0635-0.02117-0.0423-0.04233-0.0635-0.04233-0.0423-0.02117-0.3175-0.10583h-0.0635l-0.0635-0.02117h-0.254l-0.0423 0.02117h-0.10584l-0.0423 0.02117h-0.0635l-0.0847 0.04233-0.0635 0.02117-0.21166 0.10583-0.0423 0.04233-0.0635 0.04233-0.0423 0.04233-0.0635 0.04233-0.14817 0.14817-0.0423 0.0635-0.0423 0.04233-0.16934 0.254-0.0423 0.08467-0.0212 0.0635-0.0423 0.08467-0.0212 0.0635-0.0423 0.08467-0.0423 0.16933-0.0423 0.08467-0.0212 0.10583-0.0212 0.08467-0.0212 0.10583v0.10583l-0.0212 0.127-0.0212 0.10583v0.127l-0.0212 0.127v0.254l-0.0212 0.127v0.14817l0.127-0.1905 0.0635-0.04233 0.0423-0.0635 0.0423-0.04233 0.0423-0.0635 0.0635-0.04233 0.0423-0.04233 0.0635-0.04233 0.0423-0.04233 0.1905-0.127 0.0423-0.04233 0.127-0.04233 0.0635-0.04233 0.381-0.127h0.0635l0.127-0.04233h0.1905l0.0635-0.02117h0.127l0.0635 0.02117h0.23283l0.0423 0.02117h0.0635l0.0423 0.02117 0.0635 0.02117h0.0423l0.0635 0.02117 0.0423 0.02117h0.0635l0.0423 0.02117 0.0635 0.02117 0.0423 0.04233 0.0847 0.04233 0.0635 0.02117 0.0423 0.02117 0.0423 0.04233 0.0423 0.02117 0.0635 0.04233 0.0423 0.02117 0.0423 0.04233 0.0423 0.02117 0.29633 0.29633 0.0212 0.04233 0.0847 0.08467 0.0212 0.0635 0.0423 0.04233 0.0212 0.04233 0.0423 0.04233 0.0212 0.0635 0.0423 0.04233 0.0212 0.0635 0.0212 0.04233 0.0212 0.0635 0.0212 0.04233 0.0424 0.127 0.0212 0.04233 0.0423 0.127v0.04233l0.0212 0.0635v0.0635l0.0423 0.127v0.1905l0.0212 0.0635v0.381l-0.0212 0.08467v0.16933l-0.127 0.508-0.0212 0.0635-0.0423 0.08467-0.0212 0.08467-0.0423 0.08467-0.0423 0.0635-0.0423 0.08467-0.0423 0.0635-0.0423 0.08467-0.0423 0.0635-0.0847 0.127-0.0635 0.0635-0.0423 0.0635-0.16934 0.16933-0.127 0.08467-0.0635 0.0635-0.1905 0.127-0.0635 0.02117-0.0847 0.04233-0.0635 0.02117-0.0635 0.04233-0.16934 0.04233-0.0635 0.02117-0.0847 0.02117-0.0635 0.02117-0.0847 0.02117h-0.0847l-0.0847 0.02117h-0.46567l-0.0635-0.02117h-0.14817l-0.0635-0.02117h-0.0635l-0.5715-0.1905-0.0635-0.04233-0.0423-0.02117-0.0635-0.04233-0.0635-0.02117-0.0423-0.04233-0.0635-0.04233-0.0423-0.04233-0.0635-0.04233-0.0847-0.08467-0.0635-0.04233-0.0423-0.04233-0.0423-0.0635-0.0635-0.04233-0.0423-0.04233-0.0847-0.127-0.0423-0.04233-0.127-0.1905-0.0423-0.08467-0.0212-0.0635-0.0423-0.0635-0.0212-0.08467-0.0423-0.0635-0.0423-0.16933-0.0423-0.08467-0.0635-0.254-0.0212-0.10583-0.0212-0.08467-0.0212-0.10583-0.0212-0.08467v-0.10591l-0.0423-0.21167v-0.10583l-0.0212-0.10583v-0.33867l-0.0212-0.10583v-0.52917l0.0212-0.127v-0.254l0.0212-0.127v-0.127l0.0212-0.10583v-0.127l0.0212-0.10583 0.0212-0.127 0.0212-0.10583 0.0847-0.42333 0.0212-0.08467 0.0212-0.10583 0.0423-0.08467 0.0212-0.10583 0.0423-0.08467 0.0212-0.08467 0.127-0.254 0.0423-0.0635 0.0423-0.08467 0.0423-0.0635 0.0423-0.08467 0.0847-0.127 0.10584-0.10583 0.0423-0.0635 0.1905-0.1905 0.0635-0.04233 0.0423-0.04233 0.0635-0.04233 0.0423-0.04233 0.0635-0.02117 0.0423-0.04233 0.0635-0.04233 0.0635-0.02117 0.0423-0.04233 0.5715-0.1905h0.0847l0.0635-0.02117h0.0635l0.0635-0.02117h0.52917l0.10583 0.02117h0.10583l0.0423 0.02117h0.0423l0.0635 0.02117h0.0423l0.0423 0.02117h0.0635l0.127 0.0635h0.0423l0.0847 0.04233 0.0635 0.02117 0.0847 0.04233 0.0212 0.02117 0.0423 0.02117 0.0423 0.04233 0.127 0.0635 0.10583 0.10583 0.0423 0.02117 0.0212 0.04233 0.0423 0.02117 0.0212 0.04233 0.0423 0.02117 0.0212 0.04233 0.0423 0.04233 0.0212 0.04233 0.0423 0.02117 0.0635 0.127 0.0212 0.04233 0.0423 0.04233 0.10584 0.21167v0.04233l0.0212 0.0635 0.0423 0.08467v0.04233l0.0423 0.10583 0.0212 0.10583zm-3.8312 3.2808v0.16933l0.0212 0.0635v0.127l0.0212 0.04233v0.0635l0.0212 0.0635 0.0212 0.04233 0.0424 0.127v0.04233l0.0423 0.0635 0.0212 0.0635 0.0212 0.04233 0.0212 0.0635 0.0212 0.04233 0.0423 0.0635 0.0212 0.04233 0.0423 0.04233 0.0212 0.0635 0.0423 0.04233 0.0212 0.04233 0.0423 0.04233 0.0423 0.02117 0.127 0.127 0.0423 0.02117 0.0423 0.04233 0.0847 0.04233 0.0423 0.04233 0.0423 0.02117 0.0635 0.02117 0.0847 0.04233h0.0423l0.0635 0.02117 0.0423 0.02117h0.0423l0.0635 0.02117h0.0847l0.0635 0.02117h0.23284l0.0423-0.02117h0.10583l0.1905-0.0635 0.127-0.0635 0.254-0.16933 0.1905-0.1905 0.0212-0.04233 0.0423-0.04233 0.0423-0.08467 0.0212-0.02117 0.0212-0.04233 0.0423-0.0635 0.0635-0.127v-0.02117l0.0423-0.08467 0.0635-0.254v-0.08467l0.0212-0.10583v-0.08467l0.0212-0.10583v-0.1905l-0.0212-0.10583v-0.08467l-0.0212-0.08467v-0.08467l-0.0635-0.254-0.0423-0.08467-0.0212-0.0635-0.0423-0.0635-0.0212-0.08467-0.0212-0.02117-0.0212-0.04233-0.0212-0.02117-0.0423-0.04233-0.0423-0.0635-0.21167-0.21167-0.127-0.08467-0.127-0.0635-0.0635-0.02117-0.0635-0.04233-0.127-0.04233h-0.0847l-0.0635-0.02117h-0.0847l-0.0635-0.02117h-0.16933l-0.0847 0.02117h-0.0635l-0.0847 0.02117h-0.0635l-0.0635 0.02117-0.0847 0.02117-0.0635 0.04233-0.0635 0.02117-0.0635 0.04233-0.0635 0.02117-0.127 0.08467-0.1905 0.1905-0.0423 0.02117-0.0212 0.04233-0.0212 0.02117-0.0212 0.04233-0.0212 0.02117-0.0212 0.04233-0.0212 0.02117-0.0212 0.04233-0.0212 0.02117-0.0423 0.08467-0.0212 0.02117v0.04233l-0.0212 0.04233-0.0212 0.02117v0.04233l-0.0212 0.04233v0.04233l-0.0212 0.04233-0.0212 0.0635-0.0212 0.08467v0.08467l-0.0212 0.08467v0.1905" fill="#1e1917"/>
  </g>
  <g stroke="#1e1917" stroke-linecap="round" stroke-linejoin="round" stroke-miterlimit="10" stroke-width=".075494">
   <path d="m119.47 92.567-0.93133 0.08467-0.0212-0.08467-0.0423-0.127-0.0212-0.04233-0.0212-0.0635v-0.0635l-0.0423-0.04233v-0.0635l-0.0423-0.04233-0.10584-0.21167-0.21166-0.21167-0.0635-0.02117-0.0423-0.04233-0.0635-0.04233-0.0423-0.02117-0.3175-0.10583h-0.0635l-0.0635-0.02117h-0.254l-0.0423 0.02117h-0.10584l-0.0423 0.02117h-0.0635l-0.0847 0.04233-0.0635 0.02117-0.21166 0.10583-0.0423 0.04233-0.0635 0.04233-0.0423 0.04233-0.0635 0.04233-0.14817 0.14817-0.0423 0.0635-0.0423 0.04233-0.16934 0.254-0.0423 0.08467-0.0212 0.0635-0.0423 0.08467-0.0212 0.0635-0.0423 0.08467-0.0423 0.16933-0.0423 0.08467-0.0212 0.10583-0.0212 0.08467-0.0212 0.10583v0.10583l-0.0212 0.127-0.0212 0.10583v0.127l-0.0212 0.127v0.254l-0.0212 0.127v0.14817l0.127-0.1905 0.0635-0.04233 0.0423-0.0635 0.0423-0.04233 0.0423-0.0635 0.0635-0.04233 0.0423-0.04233 0.0635-0.04233 0.0423-0.04233 0.1905-0.127 0.0423-0.04233 0.127-0.04233 0.0635-0.04233 0.381-0.127h0.0635l0.127-0.04233h0.1905l0.0635-0.02117h0.127l0.0635 0.02117h0.23283l0.0423 0.02117h0.0635l0.0423 0.02117 0.0635 0.02117h0.0423l0.0635 0.02117 0.0423 0.02117h0.0635l0.0423 0.02117 0.0635 0.02117 0.0423 0.04233 0.0847 0.04233 0.0635 0.02117 0.0423 0.02117 0.0423 0.04233 0.0423 0.02117 0.0635 0.04233 0.0423 0.02117 0.0423 0.04233 0.0423 0.02117 0.29633 0.29633 0.0212 0.04233 0.0847 0.08467 0.0212 0.0635 0.0423 0.04233 0.0212 0.04233 0.0423 0.04233 0.0212 0.0635 0.0423 0.04233 0.0212 0.0635 0.0212 0.04233 0.0212 0.0635 0.0212 0.04233 0.0424 0.127 0.0212 0.04233 0.0423 0.127v0.04233l0.0212 0.0635v0.0635l0.0423 0.127v0.1905l0.0212 0.0635v0.381l-0.0212 0.08467v0.16933l-0.127 0.508-0.0212 0.0635-0.0423 0.08467-0.0212 0.08467-0.0423 0.08467-0.0423 0.0635-0.0423 0.08467-0.0423 0.0635-0.0423 0.08467-0.0423 0.0635-0.0847 0.127-0.0635 0.0635-0.0423 0.0635-0.16934 0.16933-0.127 0.08467-0.0635 0.0635-0.1905 0.127-0.0635 0.02117-0.0847 0.04233-0.0635 0.02117-0.0635 0.04233-0.16934 0.04233-0.0635 0.02117-0.0847 0.02117-0.0635 0.02117-0.0847 0.02117h-0.0847l-0.0847 0.02117h-0.46567l-0.0635-0.02117h-0.14817l-0.0635-0.02117h-0.0635l-0.5715-0.1905-0.0635-0.04233-0.0423-0.02117-0.0635-0.04233-0.0635-0.02117-0.0423-0.04233-0.0635-0.04233-0.0423-0.04233-0.0635-0.04233-0.0847-0.08467-0.0635-0.04233-0.0423-0.04233-0.0423-0.0635-0.0635-0.04233-0.0423-0.04233-0.0847-0.127-0.0423-0.04233-0.127-0.1905-0.0423-0.08467-0.0212-0.0635-0.0423-0.0635-0.0212-0.08467-0.0423-0.0635-0.0423-0.16933-0.0423-0.08467-0.0635-0.254-0.0212-0.10583-0.0212-0.08467-0.0212-0.10583-0.0212-0.08467v-0.10591l-0.0423-0.21167v-0.10583l-0.0212-0.10583v-0.33867l-0.0212-0.10583v-0.52917l0.0212-0.127v-0.254l0.0212-0.127v-0.127l0.0212-0.10583v-0.127l0.0212-0.10583 0.0212-0.127 0.0212-0.10583 0.0847-0.42333 0.0212-0.08467 0.0212-0.10583 0.0423-0.08467 0.0212-0.10583 0.0423-0.08467 0.0212-0.08467 0.127-0.254 0.0423-0.0635 0.0423-0.08467 0.0423-0.0635 0.0423-0.08467 0.0847-0.127 0.10584-0.10583 0.0423-0.0635 0.1905-0.1905 0.0635-0.04233 0.0423-0.04233 0.0635-0.04233 0.0423-0.04233 0.0635-0.02117 0.0423-0.04233 0.0635-0.04233 0.0635-0.02117 0.0423-0.04233 0.5715-0.1905h0.0847l0.0635-0.02117h0.0635l0.0635-0.02117h0.52917l0.10583 0.02117h0.10583l0.0423 0.02117h0.0423l0.0635 0.02117h0.0423l0.0423 0.02117h0.0635l0.127 0.0635h0.0423l0.0847 0.04233 0.0635 0.02117 0.0847 0.04233 0.0212 0.02117 0.0423 0.02117 0.0423 0.04233 0.127 0.0635 0.10583 0.10583 0.0423 0.02117 0.0212 0.04233 0.0423 0.02117 0.0212 0.04233 0.0423 0.02117 0.0212 0.04233 0.0423 0.04233 0.0212 0.04233 0.0423 0.02117 0.0635 0.127 0.0212 0.04233 0.0423 0.04233 0.10584 0.21167v0.04233l0.0212 0.0635 0.0423 0.08467v0.04233l0.0423 0.10583 0.0212 0.10583z" fill="none"/>
   <path d="m115.64 95.848v0.16933l0.0212 0.0635v0.127l0.0212 0.04233v0.0635l0.0212 0.0635 0.0212 0.04233 0.0424 0.127v0.04233l0.0423 0.0635 0.0212 0.0635 0.0212 0.04233 0.0212 0.0635 0.0212 0.04233 0.0423 0.0635 0.0212 0.04233 0.0423 0.04233 0.0212 0.0635 0.0423 0.04233 0.0212 0.04233 0.0423 0.04233 0.0423 0.02117 0.127 0.127 0.0423 0.02117 0.0423 0.04233 0.0847 0.04233 0.0423 0.04233 0.0423 0.02117 0.0635 0.02117 0.0847 0.04233h0.0423l0.0635 0.02117 0.0423 0.02117h0.0423l0.0635 0.02117h0.0847l0.0635 0.02117h0.23283l0.0423-0.02117h0.10583l0.1905-0.0635 0.127-0.0635 0.254-0.16933 0.1905-0.1905 0.0212-0.04233 0.0423-0.04233 0.0423-0.08467 0.0212-0.02117 0.0212-0.04233 0.0423-0.0635 0.0635-0.127v-0.02117l0.0423-0.08467 0.0635-0.254v-0.08467l0.0212-0.10583v-0.08467l0.0212-0.10583v-0.1905l-0.0212-0.10583v-0.08467l-0.0212-0.08467v-0.08467l-0.0635-0.254-0.0423-0.08467-0.0212-0.0635-0.0423-0.0635-0.0212-0.08467-0.0212-0.02117-0.0212-0.04233-0.0212-0.02117-0.0423-0.04233-0.0423-0.0635-0.21167-0.21167-0.127-0.08467-0.127-0.0635-0.0635-0.02117-0.0635-0.04233-0.127-0.04233h-0.0847l-0.0635-0.02117h-0.0847l-0.0635-0.02117h-0.16934l-0.0847 0.02117h-0.0635l-0.0847 0.02117h-0.0635l-0.0635 0.02117-0.0847 0.02117-0.0635 0.04233-0.0635 0.02117-0.0635 0.04233-0.0635 0.02117-0.127 0.08467-0.1905 0.1905-0.0423 0.02117-0.0212 0.04233-0.0212 0.02117-0.0212 0.04233-0.0212 0.02117-0.0212 0.04233-0.0212 0.02117-0.0212 0.04233-0.0212 0.02117-0.0423 0.08467-0.0212 0.02117v0.04233l-0.0212 0.04233-0.0212 0.02117v0.04233l-0.0212 0.04233v0.04233l-0.0212 0.04233-0.0212 0.0635-0.0212 0.08467v0.08467l-0.0212 0.08467z" fill="none"/>
   <path d="m108.34 88.651h16.658v-4.2122h-16.658z" fill="#1e1917"/>
  </g>
  <g fill="#edee20">
   <path d="m110.12 87.424h11.345v-1.4393h-11.345z"/>
   <path d="m119.83 86.916h1.397v-0.52917h-1.397z"/>
   <path d="m121.02 85.244 2.54 1.397-2.54 1.397v-2.794" fill-rule="evenodd"/>
  </g>
 </g>
</svg>
