<?xml version="1.0" encoding="UTF-8"?>
<!-- Created with Inkscape (http://www.inkscape.org/) -->
<svg width="16.957mm" height="27.837mm" version="1.1" viewBox="0 0 16.957 27.837" xmlns="http://www.w3.org/2000/svg">
 <g transform="translate(-6.085 -177.54)" fill-rule="evenodd" stroke="#1f1a17" stroke-linecap="round" stroke-linejoin="round" stroke-miterlimit="10" stroke-width=".06604">
  <path d="m6.1181 205.34h16.891v-27.771h-16.891z" fill="#848382"/>
  <path d="m19.707 179.3h-0.254l-0.08467 0.0423h-0.04233l-0.04233 0.0423h-0.04233l-0.04233 0.0423h-0.04233l-0.12699 0.1269h-0.04233l-0.12699 0.1269v0.0423l-0.08466 0.0846v0.0423l-0.04233 0.0423v0.0423l-0.04233 0.0847v0.0423l-0.04233 0.0423v0.55034l0.04233 0.0423v0.0423l0.04233 0.0423v0.0847l0.04233 0.0423v0.0423l0.08466 0.0846v0.0423l0.12699 0.1269h0.04233l0.08466 0.0846h0.04233l0.08466 0.0846h0.04233l0.04233 0.0423h0.127l0.04233 0.0423h0.42333l0.04233-0.0423h0.127l0.04233-0.0423h0.04233l0.08466-0.0846h0.04233l0.08466-0.0846h0.04233l0.16932-0.1692v-0.0423l0.08466-0.0846v-0.0423l0.04233-0.0847v-0.0847l0.04233-0.0423v-0.16934l0.04233-0.0423v-0.127l-0.04233-0.0423v-0.16934l-0.04233-0.0423v-0.127l-0.04233-0.0423v-0.0423l-0.08466-0.0846v-0.0423l-0.16932-0.1692h-0.04233l-0.12699-0.1269h-0.04233l-0.04233-0.0423h-0.04233l-0.04233-0.0423h-0.04233l-0.08467-0.0423h-0.254" fill="#fff"/>
  <g fill="#848382">
   <path d="m19.707 182.01h-0.21167l-0.04233 0.0423h-0.127l-0.04233 0.0423h-0.04233l-0.04233 0.0423h-0.04233l-0.12699 0.1269h-0.04233l-0.12699 0.1269v0.0423l-0.08466 0.0846v0.0423l-0.04233 0.0423v0.0847l-0.04233 0.0423v0.0423l-0.04233 0.0423v0.55034l0.04233 0.0423v0.0423l0.04233 0.0847v0.0423l0.04233 0.0423v0.0423l0.08466 0.0846v0.0423l0.12699 0.1269h0.04233l0.12699 0.1269h0.04233l0.04233 0.0423h0.04233l0.04233 0.0423h0.04233l0.08467 0.0423h0.508l0.08467-0.0423h0.04233l0.04233-0.0423h0.04233l0.04233-0.0423h0.04233l0.12699-0.1269h0.04233l0.16932-0.1692v-0.0423l0.08466-0.0846v-0.0423l0.04233-0.0423v-0.127l0.04233-0.0423v-0.16934l0.04233-0.0423v-0.127l-0.04233-0.0423v-0.16934l-0.04233-0.0423v-0.0847l-0.04233-0.0847v-0.0423l-0.08466-0.0846v-0.0423l-0.16932-0.1692h-0.04233l-0.12699-0.1269h-0.04233l-0.04233-0.0423h-0.04233l-0.04233-0.0423h-0.127l-0.04233-0.0423h-0.21167"/>
   <path d="m19.707 184.72h-0.21167l-0.04233 0.0423h-0.127l-0.04233 0.0423h-0.04233l-0.08466 0.0846h-0.04233l-0.12699 0.1269h-0.04233l-0.08466 0.0846v0.0423l-0.08466 0.0846v0.0423l-0.04233 0.0423v0.0847l-0.04233 0.0423v0.0423l-0.04233 0.0423v0.55034l0.04233 0.0423v0.0847l0.04233 0.0423v0.0423l0.04233 0.0423v0.0423l0.08466 0.0846v0.0423l0.16932 0.1692h0.04233l0.08466 0.0846h0.04233l0.04233 0.0423h0.04233l0.04233 0.0423h0.04233l0.08467 0.0423h0.508l0.08467-0.0423h0.04233l0.04233-0.0423h0.04233l0.04233-0.0423h0.04233l0.08466-0.0846h0.04233l0.21165-0.2115v-0.0423l0.08466-0.0846v-0.0423l0.04233-0.0423v-0.127l0.04233-0.0423v-0.16934l0.04233-0.0423v-0.127l-0.04233-0.0423v-0.16934l-0.04233-0.0423v-0.0847l-0.04233-0.0847v-0.0423l-0.08466-0.0846v-0.0423l-0.12699-0.1269h-0.04233l-0.12699-0.1269h-0.04233l-0.08466-0.0846h-0.04233l-0.04233-0.0423h-0.127l-0.04233-0.0423h-0.21167"/>
   <path d="m19.707 187.43h-0.16933l-0.04233 0.0423h-0.127l-0.04233 0.0423h-0.04233l-0.04233 0.0423h-0.04233l-0.04233 0.0423h-0.04233l-0.16932 0.1692h-0.04233l-0.04233 0.0423v0.0423l-0.08466 0.0846v0.0423l-0.04233 0.0847v0.0423l-0.04233 0.0423v0.0423l-0.04233 0.0423v0.55034l0.04233 0.0423v0.0847l0.04233 0.0423v0.0423l0.04233 0.0423v0.0423l0.08466 0.0846v0.0423l0.16932 0.1692h0.04233l0.08466 0.0846h0.04233l0.08466 0.0846h0.08467l0.08467 0.0423h0.127l0.08467 0.0423h0.08467l0.08467-0.0423h0.127l0.08467-0.0423h0.08467l0.08466-0.0846h0.04233l0.08466-0.0846h0.04233l0.21165-0.2115v-0.0423l0.08466-0.0846v-0.0423l0.04233-0.0423v-0.127l0.04233-0.0423v-0.16934l0.04233-0.0423v-0.127l-0.04233-0.0423v-0.16934l-0.04233-0.0423v-0.0847l-0.04233-0.0423v-0.0847l-0.08466-0.0846v-0.0423l-0.08466-0.0846h-0.04233l-0.16932-0.1692h-0.04233l-0.04233-0.0423h-0.04233l-0.04233-0.0423h-0.04233l-0.04233-0.0423h-0.127l-0.04233-0.0423h-0.16933"/>
  </g>
  <path d="m19.707 190.14h-0.16933l-0.04233 0.0423h-0.127l-0.04233 0.0423h-0.04233l-0.04233 0.0423h-0.04233l-0.08466 0.0846h-0.04233l-0.16932 0.1692h-0.04233v0.0423l-0.04233 0.0423-0.04233 0.0847v0.0423l-0.04233 0.0423v0.0423l-0.04233 0.0423v0.0423l-0.04233 0.0423v0.55034l0.04233 0.0847v0.0423l0.04233 0.0423v0.0423l0.04233 0.0423v0.0423l0.08466 0.0846v0.0423l0.21165 0.2115h0.04233l0.08466 0.0846h0.04233l0.04233 0.0423h0.04233l0.04233 0.0423h0.16933l0.04233 0.0423h0.254l0.04233-0.0423h0.16933l0.04233-0.0423h0.04233l0.04233-0.0423h0.04233l0.08466-0.0846h0.04233l0.25398-0.2538v-0.0423l0.08466-0.0846v-0.0423l0.04233-0.0423v-0.0847l0.04233-0.0847v-0.127l0.04233-0.0847v-0.0847l-0.04233-0.0847v-0.16934l-0.04233-0.0423v-0.0847l-0.04233-0.0423v-0.0423l-0.04233-0.0423-0.04233-0.0847v-0.0423l-0.04233-0.0423h-0.04233l-0.16932-0.1692h-0.04233l-0.08466-0.0846h-0.04233l-0.04233-0.0423h-0.04233l-0.04233-0.0423h-0.127l-0.04233-0.0423h-0.16933" fill="#fff"/>
  <path d="m19.707 192.85h-0.16933l-0.04233 0.0423h-0.127l-0.04233 0.0423h-0.04233l-0.04233 0.0423h-0.04233l-0.08466 0.0846h-0.04233l-0.21165 0.2115v0.0423l-0.08466 0.0846v0.0423l-0.04233 0.0423v0.0423l-0.04233 0.0423v0.0423l-0.04233 0.0847v0.508l0.04233 0.0847v0.0423l0.04233 0.0423v0.0423l0.04233 0.0423v0.0423l0.08466 0.0846v0.0423l0.21165 0.2115h0.04233l0.08466 0.0846h0.04233l0.04233 0.0423h0.04233l0.04233 0.0423h0.16933l0.04233 0.0423h0.254l0.04233-0.0423h0.16933l0.04233-0.0423h0.04233l0.04233-0.0423h0.04233l0.08466-0.0846h0.04233l0.25398-0.2538v-0.0423l0.08466-0.0846v-0.0423l0.04233-0.0423v-0.0847l0.04233-0.0847v-0.127l0.04233-0.0847v-0.0847l-0.04233-0.0847v-0.127l-0.04233-0.0847v-0.0847l-0.04233-0.0423v-0.0423l-0.08466-0.0846v-0.0423l-0.25398-0.2538h-0.04233l-0.08466-0.0846h-0.04233l-0.04233-0.0423h-0.04233l-0.04233-0.0423h-0.127l-0.04233-0.0423h-0.16933" fill="#848382"/>
  <path d="m19.707 198.27h-0.04233l-0.08467 0.0423h-0.127l-0.08467 0.0423h-0.08467l-0.08466 0.0846h-0.04233l-0.08466 0.0846h-0.04233l-0.16932 0.1692v0.0423l-0.08466 0.0846v0.0423l-0.04233 0.0423v0.0423l-0.04233 0.0423v0.0847l-0.04233 0.0423v0.55033l0.04233 0.0423v0.0423l0.04233 0.0423v0.0423l0.04233 0.0847v0.0423l0.08466 0.0846v0.0423l0.04233 0.0423h0.04233l0.16932 0.1692h0.04233l0.04233 0.0423h0.04233l0.04233 0.0423h0.04233l0.04233 0.0423h0.127l0.04233 0.0423h0.33867l0.04233-0.0423h0.127l0.04233-0.0423h0.04233l0.04233-0.0423h0.04233l0.04233-0.0423h0.04233l0.16932-0.1692h0.04233l0.08466-0.0846v-0.0423l0.08466-0.0846v-0.0847l0.04233-0.0423v-0.0847l0.04233-0.0423v-0.16933l0.04233-0.0423v-0.127l-0.04233-0.0423v-0.16933l-0.04233-0.0423v-0.127l-0.04233-0.0423v-0.0423l-0.08466-0.0846v-0.0423l-0.21165-0.2115h-0.04233l-0.08466-0.0846h-0.04233l-0.08466-0.0846h-0.08467l-0.08467-0.0423h-0.127l-0.08467-0.0423h-0.04233" fill="#848382"/>
  <path d="m19.707 201.02h-0.254l-0.08467 0.0423h-0.04233l-0.04233 0.0423h-0.04233l-0.04233 0.0423h-0.04233l-0.08466 0.0846h-0.04233l-0.16932 0.1692v0.0423l-0.08466 0.0846v0.0423l-0.04233 0.0423v0.0423l-0.04233 0.0423v0.0847l-0.04233 0.0423v0.55034l0.04233 0.0423v0.0423l0.04233 0.0423v0.0847l0.04233 0.0423v0.0423l0.08466 0.0846v0.0423l0.08466 0.0846h0.04233l0.12699 0.1269h0.04233l0.08466 0.0846h0.04233l0.04233 0.0423h0.127l0.04233 0.0423h0.42333l0.04233-0.0423h0.127l0.04233-0.0423h0.04233l0.08466-0.0846h0.04233l0.12699-0.1269h0.04233l0.12699-0.1269v-0.0423l0.08466-0.0846v-0.0423l0.04233-0.0847v-0.0847l0.04233-0.0423v-0.16934l0.04233-0.0423v-0.127l-0.04233-0.0423v-0.16934l-0.04233-0.0423v-0.127l-0.04233-0.0423v-0.0423l-0.08466-0.0846v-0.0423l-0.21165-0.2115h-0.04233l-0.08466-0.0846h-0.04233l-0.04233-0.0423h-0.04233l-0.04233-0.0423h-0.04233l-0.08467-0.0423h-0.254" fill="#fff"/>
  <path d="m19.707 195.56h-0.127l-0.04233 0.0423h-0.16933l-0.04233 0.0423h-0.04233l-0.04233 0.0423h-0.04233l-0.08466 0.0846h-0.04233l-0.21165 0.2115v0.0423l-0.08466 0.0846v0.0423l-0.04233 0.0423v0.0423l-0.04233 0.0423v0.0423l-0.04233 0.0847v0.55033l0.04233 0.0423v0.0423l0.04233 0.0423v0.0423l0.04233 0.0423v0.0423l0.04233 0.0847 0.04233 0.0423v0.0423h0.04233l0.16932 0.1692h0.04233l0.08466 0.0846h0.04233l0.04233 0.0423h0.04233l0.04233 0.0423h0.127l0.04233 0.0423h0.33867l0.04233-0.0423h0.127l0.04233-0.0423h0.04233l0.04233-0.0423h0.04233l0.08466-0.0846h0.04233l0.16932-0.1692h0.04233l0.04233-0.0423v-0.0423l0.04233-0.0847 0.04233-0.0423v-0.0423l0.04233-0.0423v-0.0847l0.04233-0.0423v-0.16933l0.04233-0.0847v-0.0847l-0.04233-0.0847v-0.127l-0.04233-0.0847v-0.0847l-0.04233-0.0423v-0.0423l-0.08466-0.0846v-0.0423l-0.25398-0.2538h-0.04233l-0.08466-0.0846h-0.04233l-0.04233-0.0423h-0.04233l-0.04233-0.0423h-0.16933l-0.04233-0.0423h-0.127" fill="#848382"/>
  <path d="m16.998 179.3h-0.254l-0.04233 0.0423h-0.08467l-0.04233 0.0423h-0.04233l-0.04233 0.0423h-0.04233l-0.12699 0.1269h-0.04233l-0.08466 0.0846v0.0423l-0.12699 0.1269v0.0423l-0.04233 0.0423v0.0423l-0.04233 0.0847v0.0847l-0.04233 0.0423v0.46566l0.04233 0.0423v0.0847l0.04233 0.0423v0.0847l0.04233 0.0423v0.0423l0.12699 0.1269v0.0423l0.08466 0.0846h0.04233l0.08466 0.0846h0.04233l0.08466 0.0846h0.04233l0.04233 0.0423h0.127l0.04233 0.0423h0.42333l0.08467-0.0423h0.08467l0.04233-0.0423h0.04233l0.04233-0.0423 0.08467-0.0423h0.04233l0.25398-0.2538v-0.0423l0.08466-0.0846v-0.0423l0.04233-0.0847v-0.0423l0.04233-0.0423v-0.16933l0.04233-0.0423v-0.21166l-0.04233-0.0423v-0.16933l-0.04233-0.0423v-0.0847l-0.04233-0.0423v-0.0423l-0.08466-0.0846v-0.0423l-0.29631-0.2961h-0.08467l-0.04233-0.0423h-0.04233l-0.04233-0.0423h-0.04233l-0.04233-0.0423h-0.29633" fill="#fff"/>
  <g fill="#848382">
   <path d="m16.998 182.01h-0.21167l-0.04233 0.0423h-0.127l-0.04233 0.0423h-0.04233l-0.04233 0.0423h-0.04233l-0.12699 0.1269h-0.04233l-0.08466 0.0846v0.0423l-0.12699 0.1269v0.0423l-0.04233 0.0423v0.0847l-0.04233 0.0423v0.0847l-0.04233 0.0423v0.46566l0.04233 0.0423v0.0847l0.04233 0.0847v0.0423l0.04233 0.0423v0.0423l0.12699 0.1269v0.0423l0.08466 0.0846h0.04233l0.12699 0.1269h0.04233l0.04233 0.0423h0.04233l0.04233 0.0423h0.08467l0.04233 0.0423h0.55033l0.04233-0.0423h0.04233l0.04233-0.0423h0.04233l0.04233-0.0423h0.08467l0.29631-0.2961v-0.0423l0.08466-0.0846v-0.0423l0.04233-0.0423v-0.0847l0.04233-0.0423v-0.16933l0.04233-0.0423v-0.21166l-0.04233-0.0423v-0.16933l-0.04233-0.0423v-0.0423l-0.04233-0.0847v-0.0423l-0.08466-0.0846v-0.0423l-0.29631-0.2961h-0.08467l-0.04233-0.0423h-0.04233l-0.04233-0.0423h-0.08467l-0.08467-0.0423h-0.21167"/>
   <path d="m16.998 184.72h-0.21167l-0.04233 0.0423h-0.127l-0.04233 0.0423h-0.04233l-0.08466 0.0846h-0.04233l-0.12699 0.1269h-0.04233l-0.04233 0.0423v0.0423l-0.12699 0.1269v0.0423l-0.04233 0.0423v0.0847l-0.04233 0.0423v0.0847l-0.04233 0.0423v0.46566l0.04233 0.0423v0.127l0.04233 0.0423v0.0423l0.04233 0.0423v0.0423l0.12699 0.1269v0.0423l0.12699 0.1269h0.04233l0.08466 0.0846h0.04233l0.04233 0.0423h0.04233l0.04233 0.0423h0.08467l0.04233 0.0423h0.55033l0.04233-0.0423h0.04233l0.04233-0.0423h0.04233l0.04233-0.0423h0.08467l0.08466-0.0846h0.04233v-0.0423l0.16932-0.1692v-0.0423l0.08466-0.0846v-0.0423l0.04233-0.0423v-0.0423l0.04233-0.0847v-0.127l0.04233-0.0847v-0.21166l-0.04233-0.0423v-0.16933l-0.04233-0.0423v-0.0423l-0.04233-0.0847v-0.0423l-0.08466-0.0846v-0.0423l-0.12699-0.1269h-0.04233v-0.0423l-0.08466-0.0846h-0.04233l-0.08467-0.0423-0.04233-0.0423h-0.04233l-0.04233-0.0423h-0.08467l-0.08467-0.0423h-0.21167"/>
   <path d="m16.998 187.43h-0.16933l-0.04233 0.0423h-0.08467l-0.08467 0.0423h-0.04233l-0.04233 0.0423h-0.04233l-0.04233 0.0423h-0.04233l-0.16932 0.1692h-0.04233v0.0423l-0.12699 0.1269v0.0423l-0.04233 0.0847v0.0423l-0.04233 0.0423v0.0847l-0.04233 0.0847v0.42333l0.04233 0.0423v0.127l0.04233 0.0423v0.0423l0.04233 0.0423v0.0423l0.12699 0.1269v0.0423l0.12699 0.1269h0.04233l0.08466 0.0846h0.04233l0.08466 0.0846h0.127l0.04233 0.0423h0.16933l0.04233 0.0423h0.127l0.04233-0.0423h0.16933l0.04233-0.0423h0.08467l0.08466-0.0846h0.08467l0.08466-0.0846h0.04233v-0.0423l0.16932-0.1692v-0.0423l0.08466-0.0846v-0.0423l0.04233-0.0423v-0.0423l0.04233-0.0847v-0.127l0.04233-0.0847v-0.21166l-0.04233-0.0423v-0.16933l-0.04233-0.0423v-0.0423l-0.04233-0.0423v-0.0847l-0.08466-0.0846v-0.0423l-0.08466-0.0846h-0.04233l-0.04233-0.0423v-0.0423l-0.08466-0.0846h-0.04233l-0.08467-0.0423h-0.04233l-0.04233-0.0423h-0.04233l-0.04233-0.0423h-0.127l-0.04233-0.0423h-0.16933"/>
  </g>
  <path d="m16.998 190.14h-0.16933l-0.04233 0.0423h-0.08467l-0.08467 0.0423h-0.04233l-0.04233 0.0423h-0.04233l-0.08466 0.0846h-0.04233l-0.25398 0.2538-0.04233 0.0847v0.0423l-0.04233 0.0423v0.0423l-0.04233 0.0423v0.0847l-0.04233 0.0847v0.42333l0.04233 0.0423v0.127l0.04233 0.0423v0.0423l0.04233 0.0423v0.0423l0.12699 0.1269v0.0423l0.16932 0.1692h0.04233l0.08466 0.0846h0.04233l0.04233 0.0423h0.04233l0.08467 0.0423h0.127l0.08467 0.0423h0.21167l0.04233-0.0423h0.16933l0.04233-0.0423h0.04233l0.04233-0.0423h0.04233l0.08467-0.0423 0.04233-0.0423h0.04233l0.04233-0.0423v-0.0423l0.16932-0.1692v-0.0423l0.08466-0.0846v-0.0423l0.04233-0.0423v-0.0423l0.04233-0.0423v-0.16933l0.04233-0.0423v-0.254l-0.04233-0.0423v-0.16933l-0.04233-0.0423v-0.0423l-0.04233-0.0423v-0.0423l-0.04233-0.0423-0.04233-0.0847v-0.0423l-0.04233-0.0423h-0.04233l-0.08466-0.0846v-0.0423l-0.04233-0.0423h-0.04233l-0.04233-0.0423-0.08467-0.0423h-0.04233l-0.04233-0.0423h-0.04233l-0.04233-0.0423h-0.127l-0.04233-0.0423h-0.16933" fill="#fff"/>
  <path d="m16.998 192.85h-0.16933l-0.04233 0.0423h-0.08467l-0.08467 0.0423h-0.04233l-0.04233 0.0423h-0.04233l-0.08466 0.0846h-0.04233l-0.16932 0.1692v0.0423l-0.12699 0.1269v0.0423l-0.04233 0.0423v0.0423l-0.04233 0.0423v0.127l-0.04233 0.0423v0.42333l0.04233 0.0423v0.127l0.04233 0.0423v0.0423l0.04233 0.0423v0.0423l0.12699 0.1269v0.0423l0.16932 0.1692h0.04233l0.08466 0.0846h0.04233l0.04233 0.0423h0.04233l0.08467 0.0423h0.127l0.08467 0.0423h0.21167l0.04233-0.0423h0.16933l0.04233-0.0423h0.04233l0.04233-0.0423h0.04233l0.08467-0.0423 0.04233-0.0423h0.04233l0.04233-0.0423v-0.0423l0.16932-0.1692v-0.0423l0.08466-0.0846v-0.0423l0.04233-0.0423v-0.0423l0.04233-0.0423v-0.16933l0.04233-0.0423v-0.254l-0.04233-0.0423v-0.16933l-0.04233-0.0423v-0.0423l-0.04233-0.0423v-0.0423l-0.08466-0.0846v-0.0423l-0.16932-0.1692v-0.0423l-0.04233-0.0423h-0.04233l-0.04233-0.0423-0.08467-0.0423h-0.04233l-0.04233-0.0423h-0.04233l-0.04233-0.0423h-0.127l-0.04233-0.0423h-0.16933" fill="#848382"/>
  <path d="m16.998 198.27h-0.04233l-0.04233 0.0423h-0.16933l-0.04233 0.0423h-0.127l-0.08466 0.0846h-0.04233l-0.08466 0.0846h-0.04233l-0.12699 0.1269v0.0423l-0.12699 0.1269v0.0423l-0.04233 0.0423v0.0423l-0.04233 0.0423v0.127l-0.04233 0.0423v0.42333l0.04233 0.0847v0.0847l0.04233 0.0423v0.0423l0.04233 0.0847v0.0423l0.12699 0.1269v0.0423h0.04233l0.16932 0.1692h0.04233l0.04233 0.0423h0.04233l0.04233 0.0423h0.04233l0.08467 0.0423h0.08467l0.04233 0.0423h0.33867l0.04233-0.0423h0.127l0.04233-0.0423h0.04233l0.04233-0.0423h0.04233l0.08467-0.0423h0.04233l0.08466-0.0846v-0.0423l0.04233-0.0423h0.04233l0.08466-0.0846v-0.0423l0.08466-0.0846v-0.0847l0.04233-0.0423v-0.0423l0.04233-0.0423v-0.16933l0.04233-0.0423v-0.21167l-0.04233-0.0847v-0.127l-0.04233-0.0847v-0.0423l-0.04233-0.0423v-0.0423l-0.08466-0.0846v-0.0423l-0.16932-0.1692v-0.0423h-0.04233l-0.08466-0.0846h-0.08467l-0.08466-0.0846h-0.08467l-0.04233-0.0423h-0.16933l-0.04233-0.0423h-0.08467" fill="#848382"/>
  <path d="m16.998 201.02h-0.254l-0.04233 0.0423h-0.08467l-0.04233 0.0423h-0.04233l-0.04233 0.0423h-0.04233l-0.08466 0.0846h-0.04233l-0.12699 0.1269v0.0423l-0.12699 0.1269v0.0423l-0.04233 0.0423v0.0423l-0.04233 0.0423v0.127l-0.04233 0.0423v0.46566l0.04233 0.0423v0.0847l0.04233 0.0423v0.0847l0.04233 0.0423v0.0423l0.12699 0.1269v0.0423l0.04233 0.0423h0.04233l0.12699 0.1269h0.04233l0.08466 0.0846h0.04233l0.04233 0.0423h0.127l0.04233 0.0423h0.42333l0.08467-0.0423h0.08467l0.04233-0.0423h0.04233l0.04233-0.0423 0.08467-0.0423h0.04233l0.08466-0.0846v-0.0423h0.04233l0.12699-0.1269v-0.0423l0.08466-0.0846v-0.0423l0.04233-0.0847v-0.0423l0.04233-0.0423v-0.16933l0.04233-0.0423v-0.21166l-0.04233-0.0847v-0.127l-0.04233-0.0847v-0.0423l-0.04233-0.0423v-0.0423l-0.08466-0.0846v-0.0423l-0.16932-0.1692v-0.0423h-0.04233l-0.08466-0.0846h-0.08467l-0.04233-0.0423h-0.04233l-0.04233-0.0423h-0.04233l-0.04233-0.0423h-0.29633" fill="#fff"/>
  <path d="m16.998 195.56h-0.08467l-0.08467 0.0423h-0.127l-0.08467 0.0423h-0.04233l-0.04233 0.0423h-0.04233l-0.08466 0.0846h-0.04233l-0.16932 0.1692v0.0423l-0.12699 0.1269v0.0423l-0.04233 0.0423v0.0423l-0.04233 0.0423v0.127l-0.04233 0.0423v0.42333l0.04233 0.0847v0.0847l0.04233 0.0423v0.0423l0.04233 0.0423v0.0423l0.04233 0.0847 0.25398 0.2538h0.04233l0.08466 0.0846h0.04233l0.04233 0.0423h0.04233l0.08467 0.0423h0.08467l0.04233 0.0423h0.33867l0.04233-0.0423h0.127l0.04233-0.0423h0.04233l0.04233-0.0423h0.04233l0.08467-0.0423 0.04233-0.0423h0.04233l0.04233-0.0423v-0.0423l0.08466-0.0846h0.04233l0.04233-0.0423v-0.0423l0.04233-0.0847 0.04233-0.0423v-0.0423l0.04233-0.0423v-0.0423l0.04233-0.0423v-0.16933l0.04233-0.0423v-0.254l-0.04233-0.0423v-0.16933l-0.04233-0.0423v-0.0423l-0.04233-0.0423v-0.0423l-0.08466-0.0846v-0.0423l-0.16932-0.1692v-0.0423l-0.04233-0.0423h-0.04233l-0.04233-0.0423-0.08467-0.0423h-0.04233l-0.04233-0.0423h-0.04233l-0.04233-0.0423h-0.16933l-0.04233-0.0423h-0.127" fill="#848382"/>
  <path d="m14.288 179.3h-0.254l-0.04233 0.0423h-0.04233l-0.04233 0.0423h-0.08467l-0.04233 0.0423h-0.04233l-0.12699 0.1269h-0.04233l-0.04233 0.0423v0.0423l-0.12699 0.1269v0.0423l-0.08466 0.0846v0.0423l-0.04233 0.0847v0.0847l-0.04233 0.0423v0.46566l0.04233 0.0423v0.0847l0.04233 0.0423v0.0847l0.08466 0.0846v0.0423l0.12699 0.1269v0.0423l0.04233 0.0423h0.04233l0.08466 0.0846h0.04233l0.08466 0.0846h0.08467l0.04233 0.0423h0.08467l0.04233 0.0423h0.46567l0.04233-0.0423h0.08467l0.04233-0.0423h0.08467l0.08466-0.0846h0.04233l0.08466-0.0846h0.04233l0.04233-0.0423v-0.0423l0.12699-0.1269v-0.0423l0.04233-0.0423v-0.0423l0.04233-0.0847v-0.0423l0.04233-0.0423v-0.0423l0.04233-0.0423v-0.46566l-0.04233-0.0423v-0.0423l-0.04233-0.0423v-0.0847l-0.04233-0.0423v-0.0423l-0.04233-0.0423v-0.0423l-0.12699-0.1269v-0.0423l-0.04233-0.0423h-0.04233l-0.12699-0.1269h-0.04233l-0.04233-0.0423h-0.08467l-0.04233-0.0423h-0.04233l-0.04233-0.0423h-0.29633" fill="#fff"/>
  <g fill="#848382">
   <path d="m14.288 182.01h-0.21167l-0.04233 0.0423h-0.08467l-0.04233 0.0423h-0.08467l-0.04233 0.0423h-0.04233l-0.12699 0.1269h-0.04233l-0.04233 0.0423v0.0423l-0.12699 0.1269v0.0423l-0.08466 0.0846v0.0847l-0.04233 0.0423v0.0847l-0.04233 0.0423v0.46566l0.04233 0.0423v0.0847l0.04233 0.0847v0.0423l0.08466 0.0846v0.0423l0.12699 0.1269v0.0423l0.04233 0.0423h0.04233l0.12699 0.1269h0.04233l0.04233 0.0423h0.08467l0.04233 0.0423h0.04233l0.04233 0.0423h0.55033l0.04233-0.0423h0.04233l0.04233-0.0423h0.08467l0.04233-0.0423h0.04233l0.12699-0.1269h0.04233l0.04233-0.0423v-0.0423l0.12699-0.1269v-0.0423l0.04233-0.0423v-0.0423l0.04233-0.0423v-0.0847l0.04233-0.0423v-0.0423l0.04233-0.0423v-0.46566l-0.04233-0.0423v-0.0423l-0.04233-0.0423v-0.0423l-0.04233-0.0847v-0.0423l-0.04233-0.0423v-0.0423l-0.12699-0.1269v-0.0423l-0.04233-0.0423h-0.04233l-0.12699-0.1269h-0.04233l-0.04233-0.0423h-0.08467l-0.04233-0.0423h-0.08467l-0.04233-0.0423h-0.254"/>
   <path d="m14.288 184.72h-0.21167l-0.04233 0.0423h-0.08467l-0.04233 0.0423h-0.08467l-0.08466 0.0846h-0.04233l-0.12699 0.1269h-0.04233v0.0423l-0.12699 0.1269v0.0423l-0.08466 0.0846v0.0847l-0.04233 0.0423v0.0847l-0.04233 0.0423v0.46566l0.04233 0.0423v0.127l0.04233 0.0423v0.0423l0.08466 0.0846v0.0423l0.12699 0.1269v0.0423l0.08466 0.0846h0.04233l0.08466 0.0846h0.04233l0.04233 0.0423h0.08467l0.04233 0.0423h0.04233l0.04233 0.0423h0.55033l0.04233-0.0423h0.04233l0.04233-0.0423h0.08467l0.04233-0.0423h0.04233l0.08466-0.0846h0.04233l0.08466-0.0846v-0.0423l0.12699-0.1269v-0.0423l0.04233-0.0423v-0.0423l0.04233-0.0423v-0.0423l0.04233-0.0847v-0.0423l0.04233-0.0423v-0.46566l-0.04233-0.0423v-0.0423l-0.04233-0.0423v-0.0423l-0.04233-0.0847v-0.0423l-0.04233-0.0423v-0.0423l-0.12699-0.1269v-0.0423h-0.04233l-0.12699-0.1269h-0.04233l-0.08466-0.0846h-0.08467l-0.04233-0.0423h-0.08467l-0.04233-0.0423h-0.254"/>
   <path d="m14.288 187.43h-0.127l-0.08467 0.0423h-0.08467l-0.04233 0.0423h-0.04233l-0.08467 0.0423h-0.04233l-0.04233 0.0423h-0.04233l-0.29631 0.2961v0.0423l-0.04233 0.0423-0.04233 0.0847v0.0423l-0.04233 0.0423v0.0847l-0.04233 0.0847v0.42333l0.04233 0.0423v0.127l0.04233 0.0423v0.0423l0.08466 0.0846v0.0423l0.12699 0.1269v0.0423l0.08466 0.0846h0.04233l0.08466 0.0846h0.04233l0.04233 0.0423 0.08467 0.0423h0.08467l0.04233 0.0423h0.16933l0.04233 0.0423h0.127l0.04233-0.0423h0.16933l0.04233-0.0423h0.08467l0.08467-0.0423 0.04233-0.0423h0.04233l0.08466-0.0846h0.04233l0.08466-0.0846v-0.0423l0.12699-0.1269v-0.0423l0.04233-0.0423v-0.0423l0.04233-0.0423v-0.0423l0.04233-0.0847v-0.0423l0.04233-0.0423v-0.42333l-0.04233-0.0847v-0.0423l-0.04233-0.0423v-0.0423l-0.04233-0.0423v-0.0847l-0.04233-0.0423v-0.0423l-0.29631-0.2961h-0.04233l-0.04233-0.0423h-0.04233l-0.08467-0.0423h-0.04233l-0.04233-0.0423h-0.08467l-0.08467-0.0423h-0.16933"/>
  </g>
  <path d="m14.288 190.14h-0.127l-0.08467 0.0423h-0.08467l-0.04233 0.0423h-0.04233l-0.08467 0.0423h-0.04233l-0.08466 0.0846h-0.04233l-0.12699 0.1269v0.0423h-0.04233l-0.08466 0.0846v0.0847l-0.08466 0.0846v0.0423l-0.04233 0.0423v0.0847l-0.04233 0.0847v0.42333l0.04233 0.0423v0.127l0.04233 0.0423v0.0423l0.08466 0.0846v0.0423l0.12699 0.1269v0.0423l0.12699 0.1269h0.04233l0.08466 0.0846h0.04233l0.08467 0.0423h0.04233l0.04233 0.0423h0.16933l0.04233 0.0423h0.21167l0.04233-0.0423h0.16933l0.04233-0.0423h0.04233l0.08467-0.0423h0.04233l0.08466-0.0846h0.04233l0.12699-0.1269v-0.0423l0.12699-0.1269v-0.0423l0.04233-0.0423v-0.0423l0.04233-0.0423v-0.0423l0.04233-0.0423v-0.0847l0.04233-0.0423v-0.42333l-0.04233-0.0847v-0.0423l-0.04233-0.0423v-0.0423l-0.04233-0.0423v-0.0423l-0.04233-0.0423v-0.0847l-0.08466-0.0846h-0.04233v-0.0423l-0.12699-0.1269h-0.04233l-0.08466-0.0846h-0.04233l-0.08467-0.0423h-0.04233l-0.04233-0.0423h-0.08467l-0.08467-0.0423h-0.16933" fill="#fff"/>
  <path d="m14.288 192.85h-0.127l-0.08467 0.0423h-0.08467l-0.04233 0.0423h-0.04233l-0.08467 0.0423h-0.04233l-0.08466 0.0846h-0.04233l-0.12699 0.1269v0.0423l-0.12699 0.1269v0.0423l-0.08466 0.0846v0.0423l-0.04233 0.0423v0.127l-0.04233 0.0423v0.42333l0.04233 0.0423v0.127l0.04233 0.0423v0.0423l0.08466 0.0846v0.0423l0.12699 0.1269v0.0423l0.12699 0.1269h0.04233l0.08466 0.0846h0.04233l0.08467 0.0423h0.04233l0.04233 0.0423h0.16933l0.04233 0.0423h0.21167l0.04233-0.0423h0.16933l0.04233-0.0423h0.04233l0.08467-0.0423h0.04233l0.08466-0.0846h0.04233l0.12699-0.1269v-0.0423l0.12699-0.1269v-0.0423l0.04233-0.0423v-0.0423l0.04233-0.0423v-0.0423l0.04233-0.0423v-0.0847l0.04233-0.0423v-0.42333l-0.04233-0.0423v-0.0847l-0.04233-0.0423v-0.0423l-0.04233-0.0423v-0.0423l-0.04233-0.0423v-0.0423l-0.12699-0.1269v-0.0423l-0.12699-0.1269h-0.04233l-0.08466-0.0846h-0.04233l-0.08467-0.0423h-0.04233l-0.04233-0.0423h-0.08467l-0.08467-0.0423h-0.16933" fill="#848382"/>
  <path d="m14.288 198.27h-0.04233l-0.04233 0.0423h-0.16933l-0.04233 0.0423h-0.08467l-0.08467 0.0423-0.04233 0.0423h-0.04233l-0.08466 0.0846h-0.04233l-0.08466 0.0846v0.0423l-0.12699 0.1269v0.0423l-0.08466 0.0846v0.0423l-0.04233 0.0423v0.127l-0.04233 0.0423v0.42333l0.04233 0.0847v0.0847l0.04233 0.0423v0.0423l0.04233 0.0847 0.04233 0.0423v0.0423l0.29631 0.2961h0.04233l0.04233 0.0423h0.04233l0.08467 0.0423h0.04233l0.04233 0.0423h0.08467l0.08467 0.0423h0.29633l0.08467-0.0423h0.08467l0.04233-0.0423h0.04233l0.08467-0.0423h0.04233l0.04233-0.0423h0.04233l0.29631-0.2961v-0.0423l0.04233-0.0423v-0.0847l0.04233-0.0423v-0.0423l0.04233-0.0423v-0.0423l0.04233-0.0847v-0.42333l-0.04233-0.0423v-0.0423l-0.04233-0.0847v-0.0423l-0.04233-0.0423v-0.0423l-0.04233-0.0423v-0.0423l-0.12699-0.1269v-0.0423l-0.08466-0.0846h-0.04233l-0.08466-0.0846h-0.04233l-0.04233-0.0423-0.08467-0.0423h-0.08467l-0.04233-0.0423h-0.16933l-0.04233-0.0423h-0.08467" fill="#848382"/>
  <path d="m14.288 201.02h-0.254l-0.04233 0.0423h-0.04233l-0.04233 0.0423h-0.08467l-0.04233 0.0423h-0.04233l-0.08466 0.0846h-0.04233l-0.08466 0.0846v0.0423l-0.12699 0.1269v0.0423l-0.08466 0.0846v0.0423l-0.04233 0.0423v0.127l-0.04233 0.0423v0.46566l0.04233 0.0423v0.0847l0.04233 0.0423v0.0847l0.08466 0.0846v0.0423l0.12699 0.1269v0.0423h0.04233l0.12699 0.1269h0.04233l0.08466 0.0846h0.08467l0.04233 0.0423h0.08467l0.04233 0.0423h0.46567l0.04233-0.0423h0.08467l0.04233-0.0423h0.08467l0.08466-0.0846h0.04233l0.12699-0.1269h0.04233v-0.0423l0.12699-0.1269v-0.0423l0.04233-0.0423v-0.0423l0.04233-0.0847v-0.0423l0.04233-0.0423v-0.0423l0.04233-0.0423v-0.46566l-0.04233-0.0423v-0.0423l-0.04233-0.0847v-0.0423l-0.04233-0.0423v-0.0423l-0.04233-0.0423v-0.0423l-0.12699-0.1269v-0.0423l-0.08466-0.0846h-0.04233l-0.08466-0.0846h-0.04233l-0.04233-0.0423h-0.08467l-0.04233-0.0423h-0.04233l-0.04233-0.0423h-0.29633" fill="#fff"/>
  <path d="m14.288 195.56h-0.08467l-0.04233 0.0423h-0.16933l-0.04233 0.0423h-0.04233l-0.08467 0.0423h-0.04233l-0.08466 0.0846h-0.04233l-0.12699 0.1269v0.0423l-0.12699 0.1269v0.0423l-0.08466 0.0846v0.0423l-0.04233 0.0423v0.127l-0.04233 0.0423v0.42333l0.04233 0.0847v0.0847l0.04233 0.0423v0.0423l0.08466 0.0846v0.0847l0.08466 0.0846h0.04233v0.0423l0.12699 0.1269h0.04233l0.08466 0.0846h0.04233l0.08467 0.0423h0.04233l0.04233 0.0423h0.08467l0.08467 0.0423h0.29633l0.08467-0.0423h0.08467l0.04233-0.0423h0.04233l0.08467-0.0423h0.04233l0.08466-0.0846h0.04233l0.12699-0.1269v-0.0423h0.04233l0.08466-0.0846v-0.0847l0.04233-0.0423v-0.0423l0.04233-0.0423v-0.0423l0.04233-0.0423v-0.0423l0.04233-0.0847v-0.42333l-0.04233-0.0423v-0.0847l-0.04233-0.0423v-0.0423l-0.04233-0.0423v-0.0423l-0.04233-0.0423v-0.0423l-0.12699-0.1269v-0.0423l-0.12699-0.1269h-0.04233l-0.08466-0.0846h-0.04233l-0.08467-0.0423h-0.04233l-0.04233-0.0423h-0.16933l-0.04233-0.0423h-0.127" fill="#848382"/>
  <path d="m11.621 179.3h-0.29633l-0.04233 0.0423h-0.04233l-0.04233 0.0423h-0.04233l-0.04233 0.0423h-0.08467l-0.29631 0.2961v0.0423l-0.08466 0.0846v0.0423l-0.04233 0.0423v0.0847l-0.04233 0.0423v0.0847l-0.04233 0.0847v0.29634l0.04233 0.0847v0.0847l0.04233 0.0423v0.0423l0.04233 0.0847v0.0423l0.08466 0.0846v0.0423l0.25398 0.2538h0.04233l0.08467 0.0423 0.04233 0.0423h0.04233l0.04233 0.0423h0.08467l0.08467 0.0423h0.42333l0.04233-0.0423h0.08467l0.08467-0.0423h0.04233l0.08466-0.0846h0.04233l0.08466-0.0846h0.04233l0.08466-0.0846v-0.0423l0.12699-0.1269v-0.0423l0.04233-0.0423v-0.0847l0.04233-0.0423v-0.0847l0.04233-0.0423v-0.46566l-0.04233-0.0423v-0.0847l-0.04233-0.0847v-0.0423l-0.04233-0.0423v-0.0423l-0.12699-0.1269v-0.0423l-0.08466-0.0846h-0.04233l-0.12699-0.1269h-0.04233l-0.04233-0.0423h-0.04233l-0.08467-0.0423h-0.04233l-0.04233-0.0423h-0.254" fill="#fff"/>
  <g fill="#848382">
   <path d="m11.621 182.01h-0.21167l-0.08467 0.0423h-0.08467l-0.04233 0.0423h-0.04233l-0.04233 0.0423h-0.08467l-0.29631 0.2961v0.0423l-0.08466 0.0846v0.0423l-0.04233 0.0847v0.0423l-0.04233 0.0423v0.0847l-0.04233 0.0847v0.29634l0.04233 0.0847v0.0847l0.04233 0.0423v0.0847l0.04233 0.0423v0.0423l0.08466 0.0846v0.0423l0.29631 0.2961h0.08467l0.04233 0.0423h0.04233l0.04233 0.0423h0.04233l0.04233 0.0423h0.55033l0.04233-0.0423h0.04233l0.08467-0.0423h0.04233l0.04233-0.0423h0.04233l0.12699-0.1269h0.04233l0.08466-0.0846v-0.0423l0.12699-0.1269v-0.0423l0.04233-0.0423v-0.0423l0.04233-0.0847v-0.0847l0.04233-0.0423v-0.46566l-0.04233-0.0423v-0.0847l-0.04233-0.0423v-0.0847l-0.04233-0.0423v-0.0423l-0.12699-0.1269v-0.0423l-0.08466-0.0846h-0.04233l-0.12699-0.1269h-0.04233l-0.04233-0.0423h-0.04233l-0.08467-0.0423h-0.08467l-0.04233-0.0423h-0.21167"/>
   <path d="m11.621 184.72h-0.21167l-0.08467 0.0423h-0.08467l-0.04233 0.0423h-0.04233l-0.04233 0.0423-0.08467 0.0423h-0.04233l-0.08466 0.0846v0.0423h-0.04233l-0.12699 0.1269v0.0423l-0.08466 0.0846v0.0423l-0.04233 0.0847v0.0423l-0.04233 0.0423v0.0847l-0.04233 0.0847v0.33867l0.04233 0.0423v0.0847l0.04233 0.0847v0.0423l0.04233 0.0423v0.0423l0.08466 0.0846v0.0423l0.16932 0.1692v0.0423h0.04233l0.08466 0.0846h0.08467l0.04233 0.0423h0.04233l0.04233 0.0423h0.04233l0.04233 0.0423h0.55033l0.04233-0.0423h0.04233l0.08467-0.0423h0.04233l0.04233-0.0423h0.04233l0.08466-0.0846h0.04233l0.12699-0.1269v-0.0423l0.12699-0.1269v-0.0423l0.04233-0.0423v-0.0423l0.04233-0.0423v-0.127l0.04233-0.0423v-0.46566l-0.04233-0.0423v-0.0847l-0.04233-0.0423v-0.0847l-0.04233-0.0423v-0.0423l-0.12699-0.1269v-0.0423l-0.04233-0.0423h-0.04233l-0.12699-0.1269h-0.04233l-0.08466-0.0846h-0.04233l-0.08467-0.0423h-0.08467l-0.04233-0.0423h-0.21167"/>
   <path d="m11.621 187.43h-0.16933l-0.04233 0.0423h-0.127l-0.04233 0.0423h-0.04233l-0.04233 0.0423h-0.04233l-0.08467 0.0423h-0.04233l-0.08466 0.0846v0.0423l-0.04233 0.0423h-0.04233l-0.08466 0.0846v0.0423l-0.08466 0.0846v0.0847l-0.04233 0.0423v0.0423l-0.04233 0.0423v0.127l-0.04233 0.0423v0.33867l0.04233 0.0423v0.0847l0.04233 0.0847v0.0423l0.04233 0.0423v0.0423l0.08466 0.0846v0.0423l0.16932 0.1692v0.0423h0.04233l0.08466 0.0846h0.08467l0.08466 0.0846h0.08467l0.04233 0.0423h0.16933l0.04233 0.0423h0.127l0.04233-0.0423h0.16933l0.04233-0.0423h0.127l0.08466-0.0846h0.04233l0.08466-0.0846h0.04233l0.12699-0.1269v-0.0423l0.12699-0.1269v-0.0423l0.04233-0.0423v-0.0423l0.04233-0.0423v-0.127l0.04233-0.0423v-0.42333l-0.04233-0.0847v-0.0847l-0.04233-0.0423v-0.0423l-0.04233-0.0847v-0.0423l-0.12699-0.1269v-0.0423h-0.04233l-0.16932-0.1692h-0.04233l-0.04233-0.0423h-0.04233l-0.04233-0.0423h-0.08467l-0.04233-0.0423h-0.08467l-0.04233-0.0423h-0.16933"/>
  </g>
  <path d="m11.621 190.14h-0.16933l-0.04233 0.0423h-0.127l-0.04233 0.0423h-0.04233l-0.04233 0.0423h-0.04233l-0.08467 0.0423-0.04233 0.0423h-0.04233l-0.04233 0.0423v0.0423l-0.08466 0.0846h-0.04233l-0.04233 0.0423v0.0423l-0.04233 0.0847-0.04233 0.0423v0.0423l-0.04233 0.0423v0.0423l-0.04233 0.0423v0.127l-0.04233 0.0423v0.33867l0.04233 0.0423v0.127l0.04233 0.0423v0.0423l0.04233 0.0423v0.0423l0.08466 0.0846v0.0423l0.16932 0.1692v0.0423l0.04233 0.0423h0.04233l0.04233 0.0423 0.08467 0.0423h0.04233l0.04233 0.0423h0.04233l0.04233 0.0423h0.16933l0.04233 0.0423h0.21167l0.08467-0.0423h0.127l0.04233-0.0423h0.08467l0.04233-0.0423h0.04233l0.08466-0.0846h0.04233l0.16932-0.1692v-0.0423l0.12699-0.1269v-0.0423l0.04233-0.0423v-0.0423l0.04233-0.0423v-0.127l0.04233-0.0423v-0.42333l-0.04233-0.0847v-0.0847l-0.04233-0.0423v-0.0423l-0.04233-0.0423v-0.0423l-0.04233-0.0847-0.25398-0.2538h-0.04233l-0.08466-0.0846h-0.04233l-0.04233-0.0423h-0.08467l-0.04233-0.0423h-0.08467l-0.04233-0.0423h-0.16933" fill="#fff"/>
  <path d="m11.621 192.85h-0.16933l-0.04233 0.0423h-0.127l-0.04233 0.0423h-0.04233l-0.04233 0.0423h-0.04233l-0.08467 0.0423-0.04233 0.0423h-0.04233l-0.04233 0.0423v0.0423l-0.16932 0.1692v0.0423l-0.08466 0.0846v0.0423l-0.04233 0.0423v0.0423l-0.04233 0.0423v0.127l-0.04233 0.0423v0.33867l0.04233 0.0423v0.127l0.04233 0.0423v0.0423l0.04233 0.0423v0.0423l0.08466 0.0846v0.0423l0.16932 0.1692v0.0423l0.04233 0.0423h0.04233l0.04233 0.0423 0.08467 0.0423h0.04233l0.04233 0.0423h0.04233l0.04233 0.0423h0.16933l0.04233 0.0423h0.21167l0.08467-0.0423h0.127l0.04233-0.0423h0.08467l0.04233-0.0423h0.04233l0.08466-0.0846h0.04233l0.16932-0.1692v-0.0423l0.12699-0.1269v-0.0423l0.04233-0.0423v-0.0423l0.04233-0.0423v-0.127l0.04233-0.0423v-0.42333l-0.04233-0.0423v-0.127l-0.04233-0.0423v-0.0423l-0.04233-0.0423v-0.0423l-0.12699-0.1269v-0.0423l-0.16932-0.1692h-0.04233l-0.08466-0.0846h-0.04233l-0.04233-0.0423h-0.08467l-0.04233-0.0423h-0.08467l-0.04233-0.0423h-0.16933" fill="#848382"/>
  <path d="m11.621 198.27h-0.08467l-0.04233 0.0423h-0.16933l-0.04233 0.0423h-0.08467l-0.08466 0.0846h-0.08467l-0.08466 0.0846h-0.04233v0.0423l-0.16932 0.1692v0.0423l-0.08466 0.0846v0.0423l-0.04233 0.0423v0.0423l-0.04233 0.0847v0.0847l-0.04233 0.0423v0.33867l0.04233 0.0423v0.127l0.04233 0.0423v0.0423l0.04233 0.0423v0.0847l0.08466 0.0846v0.0423l0.08466 0.0846h0.04233l0.04233 0.0423v0.0423l0.08466 0.0846h0.04233l0.08467 0.0423h0.04233l0.04233 0.0423h0.04233l0.04233 0.0423h0.127l0.04233 0.0423h0.33867l0.04233-0.0423h0.08467l0.04233-0.0423h0.08467l0.04233-0.0423h0.04233l0.04233-0.0423h0.04233l0.16932-0.1692h0.04233v-0.0423l0.12699-0.1269v-0.0423l0.04233-0.0847v-0.0423l0.04233-0.0423v-0.0847l0.04233-0.0847v-0.42333l-0.04233-0.0423v-0.127l-0.04233-0.0423v-0.0423l-0.04233-0.0423v-0.0423l-0.12699-0.1269v-0.0423l-0.12699-0.1269h-0.04233l-0.08466-0.0846h-0.04233l-0.08466-0.0846h-0.127l-0.04233-0.0423h-0.16933l-0.04233-0.0423h-0.04233" fill="#848382"/>
  <path d="m11.621 201.02h-0.29633l-0.04233 0.0423h-0.04233l-0.04233 0.0423h-0.04233l-0.04233 0.0423h-0.08467l-0.08466 0.0846h-0.04233v0.0423l-0.16932 0.1692v0.0423l-0.08466 0.0846v0.0423l-0.04233 0.0423v0.0423l-0.04233 0.0847v0.0847l-0.04233 0.0423v0.33867l0.04233 0.0847v0.0847l0.04233 0.0423v0.0423l0.04233 0.0847v0.0423l0.08466 0.0846v0.0423l0.12699 0.1269h0.04233v0.0423l0.08466 0.0846h0.04233l0.08467 0.0423 0.04233 0.0423h0.04233l0.04233 0.0423h0.08467l0.08467 0.0423h0.42333l0.04233-0.0423h0.08467l0.08467-0.0423h0.04233l0.08466-0.0846h0.04233l0.12699-0.1269h0.04233l0.04233-0.0423v-0.0423l0.12699-0.1269v-0.0423l0.04233-0.0423v-0.0847l0.04233-0.0423v-0.0847l0.04233-0.0423v-0.46566l-0.04233-0.0423v-0.127l-0.04233-0.0423v-0.0423l-0.04233-0.0423v-0.0423l-0.12699-0.1269v-0.0423l-0.12699-0.1269h-0.04233l-0.08466-0.0846h-0.04233l-0.04233-0.0423h-0.04233l-0.08467-0.0423h-0.04233l-0.04233-0.0423h-0.254" fill="#fff"/>
  <path d="m11.621 195.56h-0.127l-0.04233 0.0423h-0.16933l-0.04233 0.0423h-0.04233l-0.04233 0.0423h-0.04233l-0.08467 0.0423-0.04233 0.0423h-0.04233l-0.04233 0.0423v0.0423l-0.16932 0.1692v0.0423l-0.08466 0.0846v0.0423l-0.04233 0.0423v0.0423l-0.04233 0.0423v0.127l-0.04233 0.0423v0.33867l0.04233 0.0423v0.127l0.04233 0.0423v0.0423l0.04233 0.0423v0.0423l0.04233 0.0423 0.04233 0.0847v0.0423l0.04233 0.0423h0.04233l0.08466 0.0846v0.0423l0.04233 0.0423h0.04233l0.04233 0.0423 0.08467 0.0423h0.04233l0.04233 0.0423h0.04233l0.04233 0.0423h0.127l0.04233 0.0423h0.33867l0.04233-0.0423h0.08467l0.04233-0.0423h0.08467l0.04233-0.0423h0.04233l0.08466-0.0846h0.04233l0.25398-0.2538 0.04233-0.0847v-0.0423l0.04233-0.0423v-0.0423l0.04233-0.0423v-0.0847l0.04233-0.0847v-0.42333l-0.04233-0.0423v-0.127l-0.04233-0.0423v-0.0423l-0.04233-0.0423v-0.0423l-0.12699-0.1269v-0.0423l-0.16932-0.1692h-0.04233l-0.08466-0.0846h-0.04233l-0.04233-0.0423h-0.08467l-0.04233-0.0423h-0.127l-0.08467-0.0423h-0.08467" fill="#848382"/>
  <path d="m8.912 179.3h-0.254l-0.084667 0.0423h-0.042333l-0.042333 0.0423h-0.042334l-0.042333 0.0423h-0.042333l-0.127 0.1269h-0.042335l-0.16933 0.1692v0.0423l-0.084666 0.0846v0.0423l-0.042333 0.0423v0.127l-0.042333 0.0423v0.16934l-0.042333 0.0423v0.127l0.042333 0.0423v0.16934l0.042333 0.0423v0.0847l0.042333 0.0847v0.0423l0.084666 0.0846v0.0423l0.16933 0.1692h0.042333l0.084666 0.0846h0.042333l0.084666 0.0846h0.042333l0.042333 0.0423h0.127l0.042333 0.0423h0.42333l0.042333-0.0423h0.127l0.042333-0.0423h0.042333l0.084666-0.0846h0.042333l0.084666-0.0846h0.042333l0.127-0.1269v-0.0423l0.084666-0.0846v-0.0423l0.042333-0.0423v-0.0847l0.042333-0.0423v-0.0423l0.042333-0.0423v-0.55034l-0.042333-0.0423v-0.0423l-0.042333-0.0847v-0.0423l-0.042333-0.0423v-0.0423l-0.084666-0.0846v-0.0423l-0.127-0.1269h-0.042333l-0.127-0.1269h-0.042333l-0.042333-0.0423h-0.042333l-0.042333-0.0423h-0.042333l-0.084667-0.0423h-0.254" fill="#fff"/>
  <g fill="#848382">
   <path d="m8.912 182.01h-0.21167l-0.042333 0.0423h-0.127l-0.042333 0.0423h-0.042334l-0.042333 0.0423h-0.042333l-0.127 0.1269h-0.042335l-0.16933 0.1692v0.0423l-0.084666 0.0846v0.0423l-0.042333 0.0847v0.0847l-0.042333 0.0423v0.16934l-0.042333 0.0423v0.127l0.042333 0.0423v0.16934l0.042333 0.0423v0.127l0.042333 0.0423v0.0423l0.084666 0.0846v0.0423l0.16933 0.1692h0.042333l0.127 0.1269h0.042333l0.042333 0.0423h0.042333l0.042333 0.0423h0.042333l0.084667 0.0423h0.508l0.084667-0.0423h0.042333l0.042333-0.0423h0.042333l0.042333-0.0423h0.042333l0.127-0.1269h0.042333l0.127-0.1269v-0.0423l0.084666-0.0846v-0.0423l0.042333-0.0423v-0.0423l0.042333-0.0847v-0.0423l0.042333-0.0423v-0.55034l-0.042333-0.0423v-0.0423l-0.042333-0.0423v-0.0847l-0.042333-0.0423v-0.0423l-0.084666-0.0846v-0.0423l-0.127-0.1269h-0.042333l-0.127-0.1269h-0.042333l-0.042333-0.0423h-0.042333l-0.042333-0.0423h-0.127l-0.042333-0.0423h-0.21166"/>
   <path d="m8.912 184.72h-0.21167l-0.042333 0.0423h-0.127l-0.042333 0.0423h-0.042334l-0.084666 0.0846h-0.042334l-0.127 0.1269h-0.042333l-0.127 0.1269v0.0423l-0.084666 0.0846v0.0423l-0.042333 0.0847v0.0847l-0.042333 0.0423v0.16934l-0.042333 0.0423v0.127l0.042333 0.0423v0.16934l0.042333 0.0423v0.127l0.042333 0.0423v0.0423l0.084666 0.0846v0.0423l0.21166 0.2115h0.042333l0.084666 0.0846h0.042333l0.042333 0.0423h0.042333l0.042333 0.0423h0.042333l0.084667 0.0423h0.508l0.084667-0.0423h0.042333l0.042333-0.0423h0.042333l0.042333-0.0423h0.042333l0.084666-0.0846h0.042333l0.16933-0.1692v-0.0423l0.084666-0.0846v-0.0423l0.042333-0.0423v-0.0423l0.042333-0.0423v-0.0847l0.042333-0.0423v-0.55034l-0.042333-0.0423v-0.0423l-0.042333-0.0423v-0.0847l-0.042333-0.0423v-0.0423l-0.084666-0.0846v-0.0423l-0.084666-0.0846h-0.042333l-0.127-0.1269h-0.042333l-0.084666-0.0846h-0.042333l-0.042333-0.0423h-0.127l-0.042333-0.0423h-0.21167"/>
   <path d="m8.912 187.43h-0.16933l-0.042333 0.0423h-0.127l-0.042333 0.0423h-0.042333l-0.042333 0.0423h-0.042333l-0.042333 0.0423h-0.042335l-0.16933 0.1692h-0.042333l-0.084666 0.0846v0.0423l-0.084666 0.0846v0.0847l-0.042333 0.0423v0.0847l-0.042333 0.0423v0.16934l-0.042333 0.0423v0.127l0.042333 0.0423v0.16934l0.042333 0.0423v0.127l0.042333 0.0423v0.0423l0.084666 0.0846v0.0423l0.21166 0.2115h0.042333l0.084666 0.0846h0.042333l0.084666 0.0846h0.084667l0.084667 0.0423h0.127l0.084667 0.0423h0.084667l0.084667-0.0423h0.127l0.084667-0.0423h0.084667l0.084666-0.0846h0.042333l0.084666-0.0846h0.042333l0.16933-0.1692v-0.0423l0.084666-0.0846v-0.0423l0.042333-0.0423v-0.0423l0.042333-0.0423v-0.0847l0.042333-0.0423v-0.55034l-0.042333-0.0423v-0.0423l-0.042333-0.0423v-0.0423l-0.042333-0.0847v-0.0423l-0.084666-0.0846v-0.0423l-0.042333-0.0423h-0.042333l-0.16933-0.1692h-0.042333l-0.042333-0.0423h-0.042333l-0.042333-0.0423h-0.042333l-0.042333-0.0423h-0.127l-0.042333-0.0423h-0.16934"/>
  </g>
  <path d="m8.912 190.14h-0.16933l-0.042333 0.0423h-0.127l-0.042333 0.0423h-0.042333l-0.042333 0.0423h-0.042333l-0.084666 0.0846h-0.042333l-0.16933 0.1692h-0.042337l-0.042333 0.0423v0.0423l-0.042333 0.0847-0.042333 0.0423v0.0423l-0.042333 0.0423v0.0847l-0.042333 0.0423v0.16934l-0.042333 0.0847v0.0847l0.042333 0.0847v0.127l0.042333 0.0847v0.0847l0.042333 0.0423v0.0423l0.084666 0.0846v0.0423l0.254 0.2538h0.042333l0.084666 0.0846h0.042333l0.042333 0.0423h0.042333l0.042333 0.0423h0.16933l0.042333 0.0423h0.254l0.042333-0.0423h0.16933l0.042333-0.0423h0.042333l0.042333-0.0423h0.042333l0.084666-0.0846h0.042333l0.21166-0.2115v-0.0423l0.084666-0.0846v-0.0423l0.042333-0.0423v-0.0423l0.042333-0.0423v-0.0423l0.042333-0.0847v-0.55034l-0.042333-0.0423v-0.0423l-0.042333-0.0423v-0.0423l-0.042333-0.0423v-0.0423l-0.042333-0.0847-0.042333-0.0423v-0.0423h-0.042333l-0.16933-0.1692h-0.042333l-0.084666-0.0846h-0.042333l-0.042333-0.0423h-0.042333l-0.042333-0.0423h-0.127l-0.042333-0.0423h-0.16933" fill="#fff"/>
  <path d="m8.912 192.85h-0.16933l-0.042333 0.0423h-0.127l-0.042333 0.0423h-0.042333l-0.042333 0.0423h-0.042333l-0.084666 0.0846h-0.042333l-0.254 0.2538v0.0423l-0.084666 0.0846v0.0423l-0.042333 0.0423v0.0847l-0.042333 0.0847v0.127l-0.042333 0.0847v0.0847l0.042333 0.0847v0.127l0.042333 0.0847v0.0847l0.042333 0.0423v0.0423l0.084666 0.0846v0.0423l0.254 0.2538h0.042333l0.084666 0.0846h0.042333l0.042333 0.0423h0.042333l0.042333 0.0423h0.16933l0.042333 0.0423h0.254l0.042333-0.0423h0.16933l0.042333-0.0423h0.042333l0.042333-0.0423h0.042333l0.084666-0.0846h0.042333l0.21166-0.2115v-0.0423l0.084666-0.0846v-0.0423l0.042333-0.0423v-0.0423l0.042333-0.0423v-0.0423l0.042333-0.0847v-0.508l-0.042333-0.0847v-0.0423l-0.042333-0.0423v-0.0423l-0.042333-0.0423v-0.0423l-0.084666-0.0846v-0.0423l-0.21166-0.2115h-0.042333l-0.084666-0.0846h-0.042333l-0.042333-0.0423h-0.042333l-0.042333-0.0423h-0.127l-0.042333-0.0423h-0.16933" fill="#848382"/>
  <path d="m8.912 198.27h-0.042333l-0.084667 0.0423h-0.127l-0.084667 0.0423h-0.084667l-0.084666 0.0846h-0.042333l-0.084666 0.0846h-0.042333l-0.21166 0.2115v0.0423l-0.084666 0.0846v0.0423l-0.042333 0.0423v0.127l-0.042333 0.0423v0.16933l-0.042333 0.0423v0.127l0.042333 0.0423v0.16933l0.042333 0.0423v0.0847l0.042333 0.0423v0.0847l0.084666 0.0846v0.0423l0.084666 0.0846h0.042333l0.16933 0.1692h0.042333l0.042333 0.0423h0.042333l0.042333 0.0423h0.042333l0.042333 0.0423h0.127l0.042333 0.0423h0.33867l0.042333-0.0423h0.127l0.042333-0.0423h0.042333l0.042333-0.0423h0.042333l0.042333-0.0423h0.042333l0.16933-0.1692h0.042333l0.042333-0.0423v-0.0423l0.084666-0.0846v-0.0423l0.042333-0.0847v-0.0423l0.042333-0.0423v-0.0423l0.042333-0.0423v-0.55033l-0.042333-0.0423v-0.0847l-0.042333-0.0423v-0.0423l-0.042333-0.0423v-0.0423l-0.084666-0.0846v-0.0423l-0.16933-0.1692h-0.042333l-0.084666-0.0846h-0.042333l-0.084666-0.0846h-0.084667l-0.084667-0.0423h-0.127l-0.084667-0.0423h-0.042333" fill="#848382"/>
  <path d="m8.912 201.02h-0.254l-0.084667 0.0423h-0.042333l-0.042333 0.0423h-0.042334l-0.042333 0.0423h-0.042333l-0.084666 0.0846h-0.042333l-0.21166 0.2115v0.0423l-0.084666 0.0846v0.0423l-0.042333 0.0423v0.127l-0.042333 0.0423v0.16934l-0.042333 0.0423v0.127l0.042333 0.0423v0.16934l0.042333 0.0423v0.0847l0.042333 0.0847v0.0423l0.084666 0.0846v0.0423l0.127 0.1269h0.042333l0.127 0.1269h0.042333l0.084666 0.0846h0.042333l0.042333 0.0423h0.127l0.042333 0.0423h0.42333l0.042333-0.0423h0.127l0.042333-0.0423h0.042333l0.084666-0.0846h0.042333l0.127-0.1269h0.042333l0.084666-0.0846v-0.0423l0.084666-0.0846v-0.0423l0.042333-0.0423v-0.0847l0.042333-0.0423v-0.0423l0.042333-0.0423v-0.55034l-0.042333-0.0423v-0.0847l-0.042333-0.0423v-0.0423l-0.042333-0.0423v-0.0423l-0.084666-0.0846v-0.0423l-0.16933-0.1692h-0.042333l-0.084666-0.0846h-0.042333l-0.042333-0.0423h-0.042333l-0.042333-0.0423h-0.042333l-0.084667-0.0423h-0.254" fill="#fff"/>
  <path d="m8.912 195.56h-0.127l-0.042333 0.0423h-0.16933l-0.042333 0.0423h-0.042333l-0.042333 0.0423h-0.042333l-0.084666 0.0846h-0.042333l-0.254 0.2538v0.0423l-0.084666 0.0846v0.0423l-0.042333 0.0423v0.0847l-0.042333 0.0847v0.127l-0.042333 0.0847v0.0847l0.042333 0.0847v0.16933l0.042333 0.0423v0.0847l0.042333 0.0423v0.0423l0.042333 0.0423 0.042333 0.0847v0.0423l0.042333 0.0423h0.042333l0.16933 0.1692h0.042333l0.084666 0.0846h0.042333l0.042333 0.0423h0.042333l0.042333 0.0423h0.127l0.042333 0.0423h0.33867l0.042333-0.0423h0.127l0.042333-0.0423h0.042333l0.042333-0.0423h0.042333l0.084666-0.0846h0.042333l0.16933-0.1692h0.042333v-0.0423l0.042333-0.0423 0.042333-0.0847v-0.0423l0.042333-0.0423v-0.0423l0.042333-0.0423v-0.0423l0.042333-0.0423v-0.55033l-0.042333-0.0847v-0.0423l-0.042333-0.0423v-0.0423l-0.042333-0.0423v-0.0423l-0.084666-0.0846v-0.0423l-0.21166-0.2115h-0.042333l-0.084666-0.0846h-0.042333l-0.042333-0.0423h-0.042333l-0.042333-0.0423h-0.16933l-0.042333-0.0423h-0.127" fill="#848382"/>
  <path d="m19.707 179.3h-0.254l-0.08467 0.0423h-0.04233l-0.04233 0.0423h-0.04233l-0.04233 0.0423h-0.04233l-0.12699 0.1269h-0.04233l-0.12699 0.1269v0.0423l-0.08466 0.0846v0.0423l-0.04233 0.0423v0.0423l-0.04233 0.0847v0.0423l-0.04233 0.0423v0.55034l0.04233 0.0423v0.0423l0.04233 0.0423v0.0847l0.04233 0.0423v0.0423l0.08466 0.0846v0.0423l0.12699 0.1269h0.04233l0.08466 0.0846h0.04233l0.08466 0.0846h0.04233l0.04233 0.0423h0.127l0.04233 0.0423h0.42333l0.04233-0.0423h0.127l0.04233-0.0423h0.04233l0.08466-0.0846h0.04233l0.08466-0.0846h0.04233l0.16932-0.1692v-0.0423l0.08466-0.0846v-0.0423l0.04233-0.0847v-0.0847l0.04233-0.0423v-0.16934l0.04233-0.0423v-0.127l-0.04233-0.0423v-0.16934l-0.04233-0.0423v-0.127l-0.04233-0.0423v-0.0423l-0.08466-0.0846v-0.0423l-0.16932-0.1692h-0.04233l-0.12699-0.1269h-0.04233l-0.04233-0.0423h-0.04233l-0.04233-0.0423h-0.04233l-0.08467-0.0423h-0.254" fill="#848382"/>
  <g fill="#fff">
   <path d="m19.707 182.01h-0.21167l-0.04233 0.0423h-0.127l-0.04233 0.0423h-0.04233l-0.04233 0.0423h-0.04233l-0.12699 0.1269h-0.04233l-0.12699 0.1269v0.0423l-0.08466 0.0846v0.0423l-0.04233 0.0423v0.0847l-0.04233 0.0423v0.0423l-0.04233 0.0423v0.55034l0.04233 0.0423v0.0423l0.04233 0.0847v0.0423l0.04233 0.0423v0.0423l0.08466 0.0846v0.0423l0.12699 0.1269h0.04233l0.12699 0.1269h0.04233l0.04233 0.0423h0.04233l0.04233 0.0423h0.04233l0.08467 0.0423h0.508l0.08467-0.0423h0.04233l0.04233-0.0423h0.04233l0.04233-0.0423h0.04233l0.12699-0.1269h0.04233l0.16932-0.1692v-0.0423l0.08466-0.0846v-0.0423l0.04233-0.0423v-0.127l0.04233-0.0423v-0.16934l0.04233-0.0423v-0.127l-0.04233-0.0423v-0.16934l-0.04233-0.0423v-0.0847l-0.04233-0.0847v-0.0423l-0.08466-0.0846v-0.0423l-0.16932-0.1692h-0.04233l-0.12699-0.1269h-0.04233l-0.04233-0.0423h-0.04233l-0.04233-0.0423h-0.127l-0.04233-0.0423h-0.21167"/>
   <path d="m19.707 184.72h-0.21167l-0.04233 0.0423h-0.127l-0.04233 0.0423h-0.04233l-0.08466 0.0846h-0.04233l-0.12699 0.1269h-0.04233l-0.08466 0.0846v0.0423l-0.08466 0.0846v0.0423l-0.04233 0.0423v0.0847l-0.04233 0.0423v0.0423l-0.04233 0.0423v0.55034l0.04233 0.0423v0.0847l0.04233 0.0423v0.0423l0.04233 0.0423v0.0423l0.08466 0.0846v0.0423l0.16932 0.1692h0.04233l0.08466 0.0846h0.04233l0.04233 0.0423h0.04233l0.04233 0.0423h0.04233l0.08467 0.0423h0.508l0.08467-0.0423h0.04233l0.04233-0.0423h0.04233l0.04233-0.0423h0.04233l0.08466-0.0846h0.04233l0.21165-0.2115v-0.0423l0.08466-0.0846v-0.0423l0.04233-0.0423v-0.127l0.04233-0.0423v-0.16934l0.04233-0.0423v-0.127l-0.04233-0.0423v-0.16934l-0.04233-0.0423v-0.0847l-0.04233-0.0847v-0.0423l-0.08466-0.0846v-0.0423l-0.12699-0.1269h-0.04233l-0.12699-0.1269h-0.04233l-0.08466-0.0846h-0.04233l-0.04233-0.0423h-0.127l-0.04233-0.0423h-0.21167"/>
   <path d="m19.707 187.43h-0.16933l-0.04233 0.0423h-0.127l-0.04233 0.0423h-0.04233l-0.04233 0.0423h-0.04233l-0.04233 0.0423h-0.04233l-0.16932 0.1692h-0.04233l-0.04233 0.0423v0.0423l-0.08466 0.0846v0.0423l-0.04233 0.0847v0.0423l-0.04233 0.0423v0.0423l-0.04233 0.0423v0.55034l0.04233 0.0423v0.0847l0.04233 0.0423v0.0423l0.04233 0.0423v0.0423l0.08466 0.0846v0.0423l0.16932 0.1692h0.04233l0.08466 0.0846h0.04233l0.08466 0.0846h0.08467l0.08467 0.0423h0.127l0.08467 0.0423h0.08467l0.08467-0.0423h0.127l0.08467-0.0423h0.08467l0.08466-0.0846h0.04233l0.08466-0.0846h0.04233l0.21165-0.2115v-0.0423l0.08466-0.0846v-0.0423l0.04233-0.0423v-0.127l0.04233-0.0423v-0.16934l0.04233-0.0423v-0.127l-0.04233-0.0423v-0.16934l-0.04233-0.0423v-0.0847l-0.04233-0.0423v-0.0847l-0.08466-0.0846v-0.0423l-0.08466-0.0846h-0.04233l-0.16932-0.1692h-0.04233l-0.04233-0.0423h-0.04233l-0.04233-0.0423h-0.04233l-0.04233-0.0423h-0.127l-0.04233-0.0423h-0.16933"/>
  </g>
  <path d="m19.707 190.14h-0.16933l-0.04233 0.0423h-0.127l-0.04233 0.0423h-0.04233l-0.04233 0.0423h-0.04233l-0.08466 0.0846h-0.04233l-0.16932 0.1692h-0.04233v0.0423l-0.04233 0.0423-0.04233 0.0847v0.0423l-0.04233 0.0423v0.0423l-0.04233 0.0423v0.0423l-0.04233 0.0423v0.55034l0.04233 0.0847v0.0423l0.04233 0.0423v0.0423l0.04233 0.0423v0.0423l0.08466 0.0846v0.0423l0.21165 0.2115h0.04233l0.08466 0.0846h0.04233l0.04233 0.0423h0.04233l0.04233 0.0423h0.16933l0.04233 0.0423h0.254l0.04233-0.0423h0.16933l0.04233-0.0423h0.04233l0.04233-0.0423h0.04233l0.08466-0.0846h0.04233l0.25398-0.2538v-0.0423l0.08466-0.0846v-0.0423l0.04233-0.0423v-0.0847l0.04233-0.0847v-0.127l0.04233-0.0847v-0.0847l-0.04233-0.0847v-0.16934l-0.04233-0.0423v-0.0847l-0.04233-0.0423v-0.0423l-0.04233-0.0423-0.04233-0.0847v-0.0423l-0.04233-0.0423h-0.04233l-0.16932-0.1692h-0.04233l-0.08466-0.0846h-0.04233l-0.04233-0.0423h-0.04233l-0.04233-0.0423h-0.127l-0.04233-0.0423h-0.16933" fill="#848382"/>
  <path d="m19.707 192.85h-0.16933l-0.04233 0.0423h-0.127l-0.04233 0.0423h-0.04233l-0.04233 0.0423h-0.04233l-0.08466 0.0846h-0.04233l-0.21165 0.2115v0.0423l-0.08466 0.0846v0.0423l-0.04233 0.0423v0.0423l-0.04233 0.0423v0.0423l-0.04233 0.0847v0.508l0.04233 0.0847v0.0423l0.04233 0.0423v0.0423l0.04233 0.0423v0.0423l0.08466 0.0846v0.0423l0.21165 0.2115h0.04233l0.08466 0.0846h0.04233l0.04233 0.0423h0.04233l0.04233 0.0423h0.16933l0.04233 0.0423h0.254l0.04233-0.0423h0.16933l0.04233-0.0423h0.04233l0.04233-0.0423h0.04233l0.08466-0.0846h0.04233l0.25398-0.2538v-0.0423l0.08466-0.0846v-0.0423l0.04233-0.0423v-0.0847l0.04233-0.0847v-0.127l0.04233-0.0847v-0.0847l-0.04233-0.0847v-0.127l-0.04233-0.0847v-0.0847l-0.04233-0.0423v-0.0423l-0.08466-0.0846v-0.0423l-0.25398-0.2538h-0.04233l-0.08466-0.0846h-0.04233l-0.04233-0.0423h-0.04233l-0.04233-0.0423h-0.127l-0.04233-0.0423h-0.16933" fill="#fff"/>
  <path d="m19.707 198.27h-0.04233l-0.08467 0.0423h-0.127l-0.08467 0.0423h-0.08467l-0.08466 0.0846h-0.04233l-0.08466 0.0846h-0.04233l-0.16932 0.1692v0.0423l-0.08466 0.0846v0.0423l-0.04233 0.0423v0.0423l-0.04233 0.0423v0.0847l-0.04233 0.0423v0.55033l0.04233 0.0423v0.0423l0.04233 0.0423v0.0423l0.04233 0.0847v0.0423l0.08466 0.0846v0.0423l0.04233 0.0423h0.04233l0.16932 0.1692h0.04233l0.04233 0.0423h0.04233l0.04233 0.0423h0.04233l0.04233 0.0423h0.127l0.04233 0.0423h0.33867l0.04233-0.0423h0.127l0.04233-0.0423h0.04233l0.04233-0.0423h0.04233l0.04233-0.0423h0.04233l0.16932-0.1692h0.04233l0.08466-0.0846v-0.0423l0.08466-0.0846v-0.0847l0.04233-0.0423v-0.0847l0.04233-0.0423v-0.16933l0.04233-0.0423v-0.127l-0.04233-0.0423v-0.16933l-0.04233-0.0423v-0.127l-0.04233-0.0423v-0.0423l-0.08466-0.0846v-0.0423l-0.21165-0.2115h-0.04233l-0.08466-0.0846h-0.04233l-0.08466-0.0846h-0.08467l-0.08467-0.0423h-0.127l-0.08467-0.0423h-0.04233" fill="#fff"/>
  <path d="m19.707 201.02h-0.254l-0.08467 0.0423h-0.04233l-0.04233 0.0423h-0.04233l-0.04233 0.0423h-0.04233l-0.08466 0.0846h-0.04233l-0.16932 0.1692v0.0423l-0.08466 0.0846v0.0423l-0.04233 0.0423v0.0423l-0.04233 0.0423v0.0847l-0.04233 0.0423v0.55034l0.04233 0.0423v0.0423l0.04233 0.0423v0.0847l0.04233 0.0423v0.0423l0.08466 0.0846v0.0423l0.08466 0.0846h0.04233l0.12699 0.1269h0.04233l0.08466 0.0846h0.04233l0.04233 0.0423h0.127l0.04233 0.0423h0.42333l0.04233-0.0423h0.127l0.04233-0.0423h0.04233l0.08466-0.0846h0.04233l0.12699-0.1269h0.04233l0.12699-0.1269v-0.0423l0.08466-0.0846v-0.0423l0.04233-0.0847v-0.0847l0.04233-0.0423v-0.16934l0.04233-0.0423v-0.127l-0.04233-0.0423v-0.16934l-0.04233-0.0423v-0.127l-0.04233-0.0423v-0.0423l-0.08466-0.0846v-0.0423l-0.21165-0.2115h-0.04233l-0.08466-0.0846h-0.04233l-0.04233-0.0423h-0.04233l-0.04233-0.0423h-0.04233l-0.08467-0.0423h-0.254" fill="#848382"/>
  <path d="m19.707 195.56h-0.127l-0.04233 0.0423h-0.16933l-0.04233 0.0423h-0.04233l-0.04233 0.0423h-0.04233l-0.08466 0.0846h-0.04233l-0.21165 0.2115v0.0423l-0.08466 0.0846v0.0423l-0.04233 0.0423v0.0423l-0.04233 0.0423v0.0423l-0.04233 0.0847v0.55033l0.04233 0.0423v0.0423l0.04233 0.0423v0.0423l0.04233 0.0423v0.0423l0.04233 0.0847 0.04233 0.0423v0.0423h0.04233l0.16932 0.1692h0.04233l0.08466 0.0846h0.04233l0.04233 0.0423h0.04233l0.04233 0.0423h0.127l0.04233 0.0423h0.33867l0.04233-0.0423h0.127l0.04233-0.0423h0.04233l0.04233-0.0423h0.04233l0.08466-0.0846h0.04233l0.16932-0.1692h0.04233l0.04233-0.0423v-0.0423l0.04233-0.0847 0.04233-0.0423v-0.0423l0.04233-0.0423v-0.0847l0.04233-0.0423v-0.16933l0.04233-0.0847v-0.0847l-0.04233-0.0847v-0.127l-0.04233-0.0847v-0.0847l-0.04233-0.0423v-0.0423l-0.08466-0.0846v-0.0423l-0.25398-0.2538h-0.04233l-0.08466-0.0846h-0.04233l-0.04233-0.0423h-0.04233l-0.04233-0.0423h-0.16933l-0.04233-0.0423h-0.127" fill="#fff"/>
  <path d="m16.998 179.3h-0.254l-0.04233 0.0423h-0.08467l-0.04233 0.0423h-0.04233l-0.04233 0.0423h-0.04233l-0.12699 0.1269h-0.04233l-0.08466 0.0846v0.0423l-0.12699 0.1269v0.0423l-0.04233 0.0423v0.0423l-0.04233 0.0847v0.0847l-0.04233 0.0423v0.46566l0.04233 0.0423v0.0847l0.04233 0.0423v0.0847l0.04233 0.0423v0.0423l0.12699 0.1269v0.0423l0.08466 0.0846h0.04233l0.08466 0.0846h0.04233l0.08466 0.0846h0.04233l0.04233 0.0423h0.127l0.04233 0.0423h0.42333l0.08467-0.0423h0.08467l0.04233-0.0423h0.04233l0.04233-0.0423 0.08467-0.0423h0.04233l0.25398-0.2538v-0.0423l0.08466-0.0846v-0.0423l0.04233-0.0847v-0.0423l0.04233-0.0423v-0.16933l0.04233-0.0423v-0.21166l-0.04233-0.0423v-0.16933l-0.04233-0.0423v-0.0847l-0.04233-0.0423v-0.0423l-0.08466-0.0846v-0.0423l-0.29631-0.2961h-0.08467l-0.04233-0.0423h-0.04233l-0.04233-0.0423h-0.04233l-0.04233-0.0423h-0.29633" fill="#fff"/>
  <g fill="#848382">
   <path d="m16.998 182.01h-0.21167l-0.04233 0.0423h-0.127l-0.04233 0.0423h-0.04233l-0.04233 0.0423h-0.04233l-0.12699 0.1269h-0.04233l-0.08466 0.0846v0.0423l-0.12699 0.1269v0.0423l-0.04233 0.0423v0.0847l-0.04233 0.0423v0.0847l-0.04233 0.0423v0.46566l0.04233 0.0423v0.0847l0.04233 0.0847v0.0423l0.04233 0.0423v0.0423l0.12699 0.1269v0.0423l0.08466 0.0846h0.04233l0.12699 0.1269h0.04233l0.04233 0.0423h0.04233l0.04233 0.0423h0.08467l0.04233 0.0423h0.55033l0.04233-0.0423h0.04233l0.04233-0.0423h0.04233l0.04233-0.0423h0.08467l0.29631-0.2961v-0.0423l0.08466-0.0846v-0.0423l0.04233-0.0423v-0.0847l0.04233-0.0423v-0.16933l0.04233-0.0423v-0.21166l-0.04233-0.0423v-0.16933l-0.04233-0.0423v-0.0423l-0.04233-0.0847v-0.0423l-0.08466-0.0846v-0.0423l-0.29631-0.2961h-0.08467l-0.04233-0.0423h-0.04233l-0.04233-0.0423h-0.08467l-0.08467-0.0423h-0.21167"/>
   <path d="m16.998 184.72h-0.21167l-0.04233 0.0423h-0.127l-0.04233 0.0423h-0.04233l-0.08466 0.0846h-0.04233l-0.12699 0.1269h-0.04233l-0.04233 0.0423v0.0423l-0.12699 0.1269v0.0423l-0.04233 0.0423v0.0847l-0.04233 0.0423v0.0847l-0.04233 0.0423v0.46566l0.04233 0.0423v0.127l0.04233 0.0423v0.0423l0.04233 0.0423v0.0423l0.12699 0.1269v0.0423l0.12699 0.1269h0.04233l0.08466 0.0846h0.04233l0.04233 0.0423h0.04233l0.04233 0.0423h0.08467l0.04233 0.0423h0.55033l0.04233-0.0423h0.04233l0.04233-0.0423h0.04233l0.04233-0.0423h0.08467l0.08466-0.0846h0.04233v-0.0423l0.16932-0.1692v-0.0423l0.08466-0.0846v-0.0423l0.04233-0.0423v-0.0423l0.04233-0.0847v-0.127l0.04233-0.0847v-0.21166l-0.04233-0.0423v-0.16933l-0.04233-0.0423v-0.0423l-0.04233-0.0847v-0.0423l-0.08466-0.0846v-0.0423l-0.12699-0.1269h-0.04233v-0.0423l-0.08466-0.0846h-0.04233l-0.08467-0.0423-0.04233-0.0423h-0.04233l-0.04233-0.0423h-0.08467l-0.08467-0.0423h-0.21167"/>
   <path d="m16.998 187.43h-0.16933l-0.04233 0.0423h-0.08467l-0.08467 0.0423h-0.04233l-0.04233 0.0423h-0.04233l-0.04233 0.0423h-0.04233l-0.16932 0.1692h-0.04233v0.0423l-0.12699 0.1269v0.0423l-0.04233 0.0847v0.0423l-0.04233 0.0423v0.0847l-0.04233 0.0847v0.42333l0.04233 0.0423v0.127l0.04233 0.0423v0.0423l0.04233 0.0423v0.0423l0.12699 0.1269v0.0423l0.12699 0.1269h0.04233l0.08466 0.0846h0.04233l0.08466 0.0846h0.127l0.04233 0.0423h0.16933l0.04233 0.0423h0.127l0.04233-0.0423h0.16933l0.04233-0.0423h0.08467l0.08466-0.0846h0.08467l0.08466-0.0846h0.04233v-0.0423l0.16932-0.1692v-0.0423l0.08466-0.0846v-0.0423l0.04233-0.0423v-0.0423l0.04233-0.0847v-0.127l0.04233-0.0847v-0.21166l-0.04233-0.0423v-0.16933l-0.04233-0.0423v-0.0423l-0.04233-0.0423v-0.0847l-0.08466-0.0846v-0.0423l-0.08466-0.0846h-0.04233l-0.04233-0.0423v-0.0423l-0.08466-0.0846h-0.04233l-0.08467-0.0423h-0.04233l-0.04233-0.0423h-0.04233l-0.04233-0.0423h-0.127l-0.04233-0.0423h-0.16933"/>
  </g>
  <path d="m16.998 190.14h-0.16933l-0.04233 0.0423h-0.08467l-0.08467 0.0423h-0.04233l-0.04233 0.0423h-0.04233l-0.08466 0.0846h-0.04233l-0.25398 0.2538-0.04233 0.0847v0.0423l-0.04233 0.0423v0.0423l-0.04233 0.0423v0.0847l-0.04233 0.0847v0.42333l0.04233 0.0423v0.127l0.04233 0.0423v0.0423l0.04233 0.0423v0.0423l0.12699 0.1269v0.0423l0.16932 0.1692h0.04233l0.08466 0.0846h0.04233l0.04233 0.0423h0.04233l0.08467 0.0423h0.127l0.08467 0.0423h0.21167l0.04233-0.0423h0.16933l0.04233-0.0423h0.04233l0.04233-0.0423h0.04233l0.08467-0.0423 0.04233-0.0423h0.04233l0.04233-0.0423v-0.0423l0.16932-0.1692v-0.0423l0.08466-0.0846v-0.0423l0.04233-0.0423v-0.0423l0.04233-0.0423v-0.16933l0.04233-0.0423v-0.254l-0.04233-0.0423v-0.16933l-0.04233-0.0423v-0.0423l-0.04233-0.0423v-0.0423l-0.04233-0.0423-0.04233-0.0847v-0.0423l-0.04233-0.0423h-0.04233l-0.08466-0.0846v-0.0423l-0.04233-0.0423h-0.04233l-0.04233-0.0423-0.08467-0.0423h-0.04233l-0.04233-0.0423h-0.04233l-0.04233-0.0423h-0.127l-0.04233-0.0423h-0.16933" fill="#fff"/>
  <path d="m16.998 192.85h-0.16933l-0.04233 0.0423h-0.08467l-0.08467 0.0423h-0.04233l-0.04233 0.0423h-0.04233l-0.08466 0.0846h-0.04233l-0.16932 0.1692v0.0423l-0.12699 0.1269v0.0423l-0.04233 0.0423v0.0423l-0.04233 0.0423v0.127l-0.04233 0.0423v0.42333l0.04233 0.0423v0.127l0.04233 0.0423v0.0423l0.04233 0.0423v0.0423l0.12699 0.1269v0.0423l0.16932 0.1692h0.04233l0.08466 0.0846h0.04233l0.04233 0.0423h0.04233l0.08467 0.0423h0.127l0.08467 0.0423h0.21167l0.04233-0.0423h0.16933l0.04233-0.0423h0.04233l0.04233-0.0423h0.04233l0.08467-0.0423 0.04233-0.0423h0.04233l0.04233-0.0423v-0.0423l0.16932-0.1692v-0.0423l0.08466-0.0846v-0.0423l0.04233-0.0423v-0.0423l0.04233-0.0423v-0.16933l0.04233-0.0423v-0.254l-0.04233-0.0423v-0.16933l-0.04233-0.0423v-0.0423l-0.04233-0.0423v-0.0423l-0.08466-0.0846v-0.0423l-0.16932-0.1692v-0.0423l-0.04233-0.0423h-0.04233l-0.04233-0.0423-0.08467-0.0423h-0.04233l-0.04233-0.0423h-0.04233l-0.04233-0.0423h-0.127l-0.04233-0.0423h-0.16933" fill="#848382"/>
  <path d="m16.998 198.27h-0.04233l-0.04233 0.0423h-0.16933l-0.04233 0.0423h-0.127l-0.08466 0.0846h-0.04233l-0.08466 0.0846h-0.04233l-0.12699 0.1269v0.0423l-0.12699 0.1269v0.0423l-0.04233 0.0423v0.0423l-0.04233 0.0423v0.127l-0.04233 0.0423v0.42333l0.04233 0.0847v0.0847l0.04233 0.0423v0.0423l0.04233 0.0847v0.0423l0.12699 0.1269v0.0423h0.04233l0.16932 0.1692h0.04233l0.04233 0.0423h0.04233l0.04233 0.0423h0.04233l0.08467 0.0423h0.08467l0.04233 0.0423h0.33867l0.04233-0.0423h0.127l0.04233-0.0423h0.04233l0.04233-0.0423h0.04233l0.08467-0.0423h0.04233l0.08466-0.0846v-0.0423l0.04233-0.0423h0.04233l0.08466-0.0846v-0.0423l0.08466-0.0846v-0.0847l0.04233-0.0423v-0.0423l0.04233-0.0423v-0.16933l0.04233-0.0423v-0.21167l-0.04233-0.0847v-0.127l-0.04233-0.0847v-0.0423l-0.04233-0.0423v-0.0423l-0.08466-0.0846v-0.0423l-0.16932-0.1692v-0.0423h-0.04233l-0.08466-0.0846h-0.08467l-0.08466-0.0846h-0.08467l-0.04233-0.0423h-0.16933l-0.04233-0.0423h-0.08467" fill="#848382"/>
  <path d="m16.998 201.02h-0.254l-0.04233 0.0423h-0.08467l-0.04233 0.0423h-0.04233l-0.04233 0.0423h-0.04233l-0.08466 0.0846h-0.04233l-0.12699 0.1269v0.0423l-0.12699 0.1269v0.0423l-0.04233 0.0423v0.0423l-0.04233 0.0423v0.127l-0.04233 0.0423v0.46566l0.04233 0.0423v0.0847l0.04233 0.0423v0.0847l0.04233 0.0423v0.0423l0.12699 0.1269v0.0423l0.04233 0.0423h0.04233l0.12699 0.1269h0.04233l0.08466 0.0846h0.04233l0.04233 0.0423h0.127l0.04233 0.0423h0.42333l0.08467-0.0423h0.08467l0.04233-0.0423h0.04233l0.04233-0.0423 0.08467-0.0423h0.04233l0.08466-0.0846v-0.0423h0.04233l0.12699-0.1269v-0.0423l0.08466-0.0846v-0.0423l0.04233-0.0847v-0.0423l0.04233-0.0423v-0.16933l0.04233-0.0423v-0.21166l-0.04233-0.0847v-0.127l-0.04233-0.0847v-0.0423l-0.04233-0.0423v-0.0423l-0.08466-0.0846v-0.0423l-0.16932-0.1692v-0.0423h-0.04233l-0.08466-0.0846h-0.08467l-0.04233-0.0423h-0.04233l-0.04233-0.0423h-0.04233l-0.04233-0.0423h-0.29633" fill="#fff"/>
  <path d="m16.998 195.56h-0.08467l-0.08467 0.0423h-0.127l-0.08467 0.0423h-0.04233l-0.04233 0.0423h-0.04233l-0.08466 0.0846h-0.04233l-0.16932 0.1692v0.0423l-0.12699 0.1269v0.0423l-0.04233 0.0423v0.0423l-0.04233 0.0423v0.127l-0.04233 0.0423v0.42333l0.04233 0.0847v0.0847l0.04233 0.0423v0.0423l0.04233 0.0423v0.0423l0.04233 0.0847 0.25398 0.2538h0.04233l0.08466 0.0846h0.04233l0.04233 0.0423h0.04233l0.08467 0.0423h0.08467l0.04233 0.0423h0.33867l0.04233-0.0423h0.127l0.04233-0.0423h0.04233l0.04233-0.0423h0.04233l0.08467-0.0423 0.04233-0.0423h0.04233l0.04233-0.0423v-0.0423l0.08466-0.0846h0.04233l0.04233-0.0423v-0.0423l0.04233-0.0847 0.04233-0.0423v-0.0423l0.04233-0.0423v-0.0423l0.04233-0.0423v-0.16933l0.04233-0.0423v-0.254l-0.04233-0.0423v-0.16933l-0.04233-0.0423v-0.0423l-0.04233-0.0423v-0.0423l-0.08466-0.0846v-0.0423l-0.16932-0.1692v-0.0423l-0.04233-0.0423h-0.04233l-0.04233-0.0423-0.08467-0.0423h-0.04233l-0.04233-0.0423h-0.04233l-0.04233-0.0423h-0.16933l-0.04233-0.0423h-0.127" fill="#848382"/>
  <path d="m14.288 179.3h-0.254l-0.04233 0.0423h-0.04233l-0.04233 0.0423h-0.08467l-0.04233 0.0423h-0.04233l-0.12699 0.1269h-0.04233l-0.04233 0.0423v0.0423l-0.12699 0.1269v0.0423l-0.08466 0.0846v0.0423l-0.04233 0.0847v0.0847l-0.04233 0.0423v0.46566l0.04233 0.0423v0.0847l0.04233 0.0423v0.0847l0.08466 0.0846v0.0423l0.12699 0.1269v0.0423l0.04233 0.0423h0.04233l0.08466 0.0846h0.04233l0.08466 0.0846h0.08467l0.04233 0.0423h0.08467l0.04233 0.0423h0.46567l0.04233-0.0423h0.08467l0.04233-0.0423h0.08467l0.08466-0.0846h0.04233l0.08466-0.0846h0.04233l0.04233-0.0423v-0.0423l0.12699-0.1269v-0.0423l0.04233-0.0423v-0.0423l0.04233-0.0847v-0.0423l0.04233-0.0423v-0.0423l0.04233-0.0423v-0.46566l-0.04233-0.0423v-0.0423l-0.04233-0.0423v-0.0847l-0.04233-0.0423v-0.0423l-0.04233-0.0423v-0.0423l-0.12699-0.1269v-0.0423l-0.04233-0.0423h-0.04233l-0.12699-0.1269h-0.04233l-0.04233-0.0423h-0.08467l-0.04233-0.0423h-0.04233l-0.04233-0.0423h-0.29633" fill="#fff"/>
  <g fill="#848382">
   <path d="m14.288 182.01h-0.21167l-0.04233 0.0423h-0.08467l-0.04233 0.0423h-0.08467l-0.04233 0.0423h-0.04233l-0.12699 0.1269h-0.04233l-0.04233 0.0423v0.0423l-0.12699 0.1269v0.0423l-0.08466 0.0846v0.0847l-0.04233 0.0423v0.0847l-0.04233 0.0423v0.46566l0.04233 0.0423v0.0847l0.04233 0.0847v0.0423l0.08466 0.0846v0.0423l0.12699 0.1269v0.0423l0.04233 0.0423h0.04233l0.12699 0.1269h0.04233l0.04233 0.0423h0.08467l0.04233 0.0423h0.04233l0.04233 0.0423h0.55033l0.04233-0.0423h0.04233l0.04233-0.0423h0.08467l0.04233-0.0423h0.04233l0.12699-0.1269h0.04233l0.04233-0.0423v-0.0423l0.12699-0.1269v-0.0423l0.04233-0.0423v-0.0423l0.04233-0.0423v-0.0847l0.04233-0.0423v-0.0423l0.04233-0.0423v-0.46566l-0.04233-0.0423v-0.0423l-0.04233-0.0423v-0.0423l-0.04233-0.0847v-0.0423l-0.04233-0.0423v-0.0423l-0.12699-0.1269v-0.0423l-0.04233-0.0423h-0.04233l-0.12699-0.1269h-0.04233l-0.04233-0.0423h-0.08467l-0.04233-0.0423h-0.08467l-0.04233-0.0423h-0.254"/>
   <path d="m14.288 184.72h-0.21167l-0.04233 0.0423h-0.08467l-0.04233 0.0423h-0.08467l-0.08466 0.0846h-0.04233l-0.12699 0.1269h-0.04233v0.0423l-0.12699 0.1269v0.0423l-0.08466 0.0846v0.0847l-0.04233 0.0423v0.0847l-0.04233 0.0423v0.46566l0.04233 0.0423v0.127l0.04233 0.0423v0.0423l0.08466 0.0846v0.0423l0.12699 0.1269v0.0423l0.08466 0.0846h0.04233l0.08466 0.0846h0.04233l0.04233 0.0423h0.08467l0.04233 0.0423h0.04233l0.04233 0.0423h0.55033l0.04233-0.0423h0.04233l0.04233-0.0423h0.08467l0.04233-0.0423h0.04233l0.08466-0.0846h0.04233l0.08466-0.0846v-0.0423l0.12699-0.1269v-0.0423l0.04233-0.0423v-0.0423l0.04233-0.0423v-0.0423l0.04233-0.0847v-0.0423l0.04233-0.0423v-0.46566l-0.04233-0.0423v-0.0423l-0.04233-0.0423v-0.0423l-0.04233-0.0847v-0.0423l-0.04233-0.0423v-0.0423l-0.12699-0.1269v-0.0423h-0.04233l-0.12699-0.1269h-0.04233l-0.08466-0.0846h-0.08467l-0.04233-0.0423h-0.08467l-0.04233-0.0423h-0.254"/>
   <path d="m14.288 187.43h-0.127l-0.08467 0.0423h-0.08467l-0.04233 0.0423h-0.04233l-0.08467 0.0423h-0.04233l-0.04233 0.0423h-0.04233l-0.29631 0.2961v0.0423l-0.04233 0.0423-0.04233 0.0847v0.0423l-0.04233 0.0423v0.0847l-0.04233 0.0847v0.42333l0.04233 0.0423v0.127l0.04233 0.0423v0.0423l0.08466 0.0846v0.0423l0.12699 0.1269v0.0423l0.08466 0.0846h0.04233l0.08466 0.0846h0.04233l0.04233 0.0423 0.08467 0.0423h0.08467l0.04233 0.0423h0.16933l0.04233 0.0423h0.127l0.04233-0.0423h0.16933l0.04233-0.0423h0.08467l0.08467-0.0423 0.04233-0.0423h0.04233l0.08466-0.0846h0.04233l0.08466-0.0846v-0.0423l0.12699-0.1269v-0.0423l0.04233-0.0423v-0.0423l0.04233-0.0423v-0.0423l0.04233-0.0847v-0.0423l0.04233-0.0423v-0.42333l-0.04233-0.0847v-0.0423l-0.04233-0.0423v-0.0423l-0.04233-0.0423v-0.0847l-0.04233-0.0423v-0.0423l-0.29631-0.2961h-0.04233l-0.04233-0.0423h-0.04233l-0.08467-0.0423h-0.04233l-0.04233-0.0423h-0.08467l-0.08467-0.0423h-0.16933"/>
  </g>
  <path d="m14.288 190.14h-0.127l-0.08467 0.0423h-0.08467l-0.04233 0.0423h-0.04233l-0.08467 0.0423h-0.04233l-0.08466 0.0846h-0.04233l-0.12699 0.1269v0.0423h-0.04233l-0.08466 0.0846v0.0847l-0.08466 0.0846v0.0423l-0.04233 0.0423v0.0847l-0.04233 0.0847v0.42333l0.04233 0.0423v0.127l0.04233 0.0423v0.0423l0.08466 0.0846v0.0423l0.12699 0.1269v0.0423l0.12699 0.1269h0.04233l0.08466 0.0846h0.04233l0.08467 0.0423h0.04233l0.04233 0.0423h0.16933l0.04233 0.0423h0.21167l0.04233-0.0423h0.16933l0.04233-0.0423h0.04233l0.08467-0.0423h0.04233l0.08466-0.0846h0.04233l0.12699-0.1269v-0.0423l0.12699-0.1269v-0.0423l0.04233-0.0423v-0.0423l0.04233-0.0423v-0.0423l0.04233-0.0423v-0.0847l0.04233-0.0423v-0.42333l-0.04233-0.0847v-0.0423l-0.04233-0.0423v-0.0423l-0.04233-0.0423v-0.0423l-0.04233-0.0423v-0.0847l-0.08466-0.0846h-0.04233v-0.0423l-0.12699-0.1269h-0.04233l-0.08466-0.0846h-0.04233l-0.08467-0.0423h-0.04233l-0.04233-0.0423h-0.08467l-0.08467-0.0423h-0.16933" fill="#fff"/>
  <path d="m14.288 192.85h-0.127l-0.08467 0.0423h-0.08467l-0.04233 0.0423h-0.04233l-0.08467 0.0423h-0.04233l-0.08466 0.0846h-0.04233l-0.12699 0.1269v0.0423l-0.12699 0.1269v0.0423l-0.08466 0.0846v0.0423l-0.04233 0.0423v0.127l-0.04233 0.0423v0.42333l0.04233 0.0423v0.127l0.04233 0.0423v0.0423l0.08466 0.0846v0.0423l0.12699 0.1269v0.0423l0.12699 0.1269h0.04233l0.08466 0.0846h0.04233l0.08467 0.0423h0.04233l0.04233 0.0423h0.16933l0.04233 0.0423h0.21167l0.04233-0.0423h0.16933l0.04233-0.0423h0.04233l0.08467-0.0423h0.04233l0.08466-0.0846h0.04233l0.12699-0.1269v-0.0423l0.12699-0.1269v-0.0423l0.04233-0.0423v-0.0423l0.04233-0.0423v-0.0423l0.04233-0.0423v-0.0847l0.04233-0.0423v-0.42333l-0.04233-0.0423v-0.0847l-0.04233-0.0423v-0.0423l-0.04233-0.0423v-0.0423l-0.04233-0.0423v-0.0423l-0.12699-0.1269v-0.0423l-0.12699-0.1269h-0.04233l-0.08466-0.0846h-0.04233l-0.08467-0.0423h-0.04233l-0.04233-0.0423h-0.08467l-0.08467-0.0423h-0.16933" fill="#848382"/>
  <path d="m14.288 198.27h-0.04233l-0.04233 0.0423h-0.16933l-0.04233 0.0423h-0.08467l-0.08467 0.0423-0.04233 0.0423h-0.04233l-0.08466 0.0846h-0.04233l-0.08466 0.0846v0.0423l-0.12699 0.1269v0.0423l-0.08466 0.0846v0.0423l-0.04233 0.0423v0.127l-0.04233 0.0423v0.42333l0.04233 0.0847v0.0847l0.04233 0.0423v0.0423l0.04233 0.0847 0.04233 0.0423v0.0423l0.29631 0.2961h0.04233l0.04233 0.0423h0.04233l0.08467 0.0423h0.04233l0.04233 0.0423h0.08467l0.08467 0.0423h0.29633l0.08467-0.0423h0.08467l0.04233-0.0423h0.04233l0.08467-0.0423h0.04233l0.04233-0.0423h0.04233l0.29631-0.2961v-0.0423l0.04233-0.0423v-0.0847l0.04233-0.0423v-0.0423l0.04233-0.0423v-0.0423l0.04233-0.0847v-0.42333l-0.04233-0.0423v-0.0423l-0.04233-0.0847v-0.0423l-0.04233-0.0423v-0.0423l-0.04233-0.0423v-0.0423l-0.12699-0.1269v-0.0423l-0.08466-0.0846h-0.04233l-0.08466-0.0846h-0.04233l-0.04233-0.0423-0.08467-0.0423h-0.08467l-0.04233-0.0423h-0.16933l-0.04233-0.0423h-0.08467" fill="#848382"/>
  <path d="m14.288 201.02h-0.254l-0.04233 0.0423h-0.04233l-0.04233 0.0423h-0.08467l-0.04233 0.0423h-0.04233l-0.08466 0.0846h-0.04233l-0.08466 0.0846v0.0423l-0.12699 0.1269v0.0423l-0.08466 0.0846v0.0423l-0.04233 0.0423v0.127l-0.04233 0.0423v0.46566l0.04233 0.0423v0.0847l0.04233 0.0423v0.0847l0.08466 0.0846v0.0423l0.12699 0.1269v0.0423h0.04233l0.12699 0.1269h0.04233l0.08466 0.0846h0.08467l0.04233 0.0423h0.08467l0.04233 0.0423h0.46567l0.04233-0.0423h0.08467l0.04233-0.0423h0.08467l0.08466-0.0846h0.04233l0.12699-0.1269h0.04233v-0.0423l0.12699-0.1269v-0.0423l0.04233-0.0423v-0.0423l0.04233-0.0847v-0.0423l0.04233-0.0423v-0.0423l0.04233-0.0423v-0.46566l-0.04233-0.0423v-0.0423l-0.04233-0.0847v-0.0423l-0.04233-0.0423v-0.0423l-0.04233-0.0423v-0.0423l-0.12699-0.1269v-0.0423l-0.08466-0.0846h-0.04233l-0.08466-0.0846h-0.04233l-0.04233-0.0423h-0.08467l-0.04233-0.0423h-0.04233l-0.04233-0.0423h-0.29633" fill="#fff"/>
  <path d="m14.288 195.56h-0.08467l-0.04233 0.0423h-0.16933l-0.04233 0.0423h-0.04233l-0.08467 0.0423h-0.04233l-0.08466 0.0846h-0.04233l-0.12699 0.1269v0.0423l-0.12699 0.1269v0.0423l-0.08466 0.0846v0.0423l-0.04233 0.0423v0.127l-0.04233 0.0423v0.42333l0.04233 0.0847v0.0847l0.04233 0.0423v0.0423l0.08466 0.0846v0.0847l0.08466 0.0846h0.04233v0.0423l0.12699 0.1269h0.04233l0.08466 0.0846h0.04233l0.08467 0.0423h0.04233l0.04233 0.0423h0.08467l0.08467 0.0423h0.29633l0.08467-0.0423h0.08467l0.04233-0.0423h0.04233l0.08467-0.0423h0.04233l0.08466-0.0846h0.04233l0.12699-0.1269v-0.0423h0.04233l0.08466-0.0846v-0.0847l0.04233-0.0423v-0.0423l0.04233-0.0423v-0.0423l0.04233-0.0423v-0.0423l0.04233-0.0847v-0.42333l-0.04233-0.0423v-0.0847l-0.04233-0.0423v-0.0423l-0.04233-0.0423v-0.0423l-0.04233-0.0423v-0.0423l-0.12699-0.1269v-0.0423l-0.12699-0.1269h-0.04233l-0.08466-0.0846h-0.04233l-0.08467-0.0423h-0.04233l-0.04233-0.0423h-0.16933l-0.04233-0.0423h-0.127" fill="#848382"/>
  <path d="m11.621 179.3h-0.29633l-0.04233 0.0423h-0.04233l-0.04233 0.0423h-0.04233l-0.04233 0.0423h-0.08467l-0.29631 0.2961v0.0423l-0.08466 0.0846v0.0423l-0.04233 0.0423v0.0847l-0.04233 0.0423v0.0847l-0.04233 0.0847v0.29634l0.04233 0.0847v0.0847l0.04233 0.0423v0.0423l0.04233 0.0847v0.0423l0.08466 0.0846v0.0423l0.25398 0.2538h0.04233l0.08467 0.0423 0.04233 0.0423h0.04233l0.04233 0.0423h0.08467l0.08467 0.0423h0.42333l0.04233-0.0423h0.08467l0.08467-0.0423h0.04233l0.08466-0.0846h0.04233l0.08466-0.0846h0.04233l0.08466-0.0846v-0.0423l0.12699-0.1269v-0.0423l0.04233-0.0423v-0.0847l0.04233-0.0423v-0.0847l0.04233-0.0423v-0.46566l-0.04233-0.0423v-0.0847l-0.04233-0.0847v-0.0423l-0.04233-0.0423v-0.0423l-0.12699-0.1269v-0.0423l-0.08466-0.0846h-0.04233l-0.12699-0.1269h-0.04233l-0.04233-0.0423h-0.04233l-0.08467-0.0423h-0.04233l-0.04233-0.0423h-0.254" fill="#fff"/>
  <g fill="#848382">
   <path d="m11.621 182.01h-0.21167l-0.08467 0.0423h-0.08467l-0.04233 0.0423h-0.04233l-0.04233 0.0423h-0.08467l-0.29631 0.2961v0.0423l-0.08466 0.0846v0.0423l-0.04233 0.0847v0.0423l-0.04233 0.0423v0.0847l-0.04233 0.0847v0.29634l0.04233 0.0847v0.0847l0.04233 0.0423v0.0847l0.04233 0.0423v0.0423l0.08466 0.0846v0.0423l0.29631 0.2961h0.08467l0.04233 0.0423h0.04233l0.04233 0.0423h0.04233l0.04233 0.0423h0.55033l0.04233-0.0423h0.04233l0.08467-0.0423h0.04233l0.04233-0.0423h0.04233l0.12699-0.1269h0.04233l0.08466-0.0846v-0.0423l0.12699-0.1269v-0.0423l0.04233-0.0423v-0.0423l0.04233-0.0847v-0.0847l0.04233-0.0423v-0.46566l-0.04233-0.0423v-0.0847l-0.04233-0.0423v-0.0847l-0.04233-0.0423v-0.0423l-0.12699-0.1269v-0.0423l-0.08466-0.0846h-0.04233l-0.12699-0.1269h-0.04233l-0.04233-0.0423h-0.04233l-0.08467-0.0423h-0.08467l-0.04233-0.0423h-0.21167"/>
   <path d="m11.621 184.72h-0.21167l-0.08467 0.0423h-0.08467l-0.04233 0.0423h-0.04233l-0.04233 0.0423-0.08467 0.0423h-0.04233l-0.08466 0.0846v0.0423h-0.04233l-0.12699 0.1269v0.0423l-0.08466 0.0846v0.0423l-0.04233 0.0847v0.0423l-0.04233 0.0423v0.0847l-0.04233 0.0847v0.33867l0.04233 0.0423v0.0847l0.04233 0.0847v0.0423l0.04233 0.0423v0.0423l0.08466 0.0846v0.0423l0.16932 0.1692v0.0423h0.04233l0.08466 0.0846h0.08467l0.04233 0.0423h0.04233l0.04233 0.0423h0.04233l0.04233 0.0423h0.55033l0.04233-0.0423h0.04233l0.08467-0.0423h0.04233l0.04233-0.0423h0.04233l0.08466-0.0846h0.04233l0.12699-0.1269v-0.0423l0.12699-0.1269v-0.0423l0.04233-0.0423v-0.0423l0.04233-0.0423v-0.127l0.04233-0.0423v-0.46566l-0.04233-0.0423v-0.0847l-0.04233-0.0423v-0.0847l-0.04233-0.0423v-0.0423l-0.12699-0.1269v-0.0423l-0.04233-0.0423h-0.04233l-0.12699-0.1269h-0.04233l-0.08466-0.0846h-0.04233l-0.08467-0.0423h-0.08467l-0.04233-0.0423h-0.21167"/>
   <path d="m11.621 187.43h-0.16933l-0.04233 0.0423h-0.127l-0.04233 0.0423h-0.04233l-0.04233 0.0423h-0.04233l-0.08467 0.0423h-0.04233l-0.08466 0.0846v0.0423l-0.04233 0.0423h-0.04233l-0.08466 0.0846v0.0423l-0.08466 0.0846v0.0847l-0.04233 0.0423v0.0423l-0.04233 0.0423v0.127l-0.04233 0.0423v0.33867l0.04233 0.0423v0.0847l0.04233 0.0847v0.0423l0.04233 0.0423v0.0423l0.08466 0.0846v0.0423l0.16932 0.1692v0.0423h0.04233l0.08466 0.0846h0.08467l0.08466 0.0846h0.08467l0.04233 0.0423h0.16933l0.04233 0.0423h0.127l0.04233-0.0423h0.16933l0.04233-0.0423h0.127l0.08466-0.0846h0.04233l0.08466-0.0846h0.04233l0.12699-0.1269v-0.0423l0.12699-0.1269v-0.0423l0.04233-0.0423v-0.0423l0.04233-0.0423v-0.127l0.04233-0.0423v-0.42333l-0.04233-0.0847v-0.0847l-0.04233-0.0423v-0.0423l-0.04233-0.0847v-0.0423l-0.12699-0.1269v-0.0423h-0.04233l-0.16932-0.1692h-0.04233l-0.04233-0.0423h-0.04233l-0.04233-0.0423h-0.08467l-0.04233-0.0423h-0.08467l-0.04233-0.0423h-0.16933"/>
  </g>
  <path d="m11.621 190.14h-0.16933l-0.04233 0.0423h-0.127l-0.04233 0.0423h-0.04233l-0.04233 0.0423h-0.04233l-0.08467 0.0423-0.04233 0.0423h-0.04233l-0.04233 0.0423v0.0423l-0.08466 0.0846h-0.04233l-0.04233 0.0423v0.0423l-0.04233 0.0847-0.04233 0.0423v0.0423l-0.04233 0.0423v0.0423l-0.04233 0.0423v0.127l-0.04233 0.0423v0.33867l0.04233 0.0423v0.127l0.04233 0.0423v0.0423l0.04233 0.0423v0.0423l0.08466 0.0846v0.0423l0.16932 0.1692v0.0423l0.04233 0.0423h0.04233l0.04233 0.0423 0.08467 0.0423h0.04233l0.04233 0.0423h0.04233l0.04233 0.0423h0.16933l0.04233 0.0423h0.21167l0.08467-0.0423h0.127l0.04233-0.0423h0.08467l0.04233-0.0423h0.04233l0.08466-0.0846h0.04233l0.16932-0.1692v-0.0423l0.12699-0.1269v-0.0423l0.04233-0.0423v-0.0423l0.04233-0.0423v-0.127l0.04233-0.0423v-0.42333l-0.04233-0.0847v-0.0847l-0.04233-0.0423v-0.0423l-0.04233-0.0423v-0.0423l-0.04233-0.0847-0.25398-0.2538h-0.04233l-0.08466-0.0846h-0.04233l-0.04233-0.0423h-0.08467l-0.04233-0.0423h-0.08467l-0.04233-0.0423h-0.16933" fill="#fff"/>
  <path d="m11.621 192.85h-0.16933l-0.04233 0.0423h-0.127l-0.04233 0.0423h-0.04233l-0.04233 0.0423h-0.04233l-0.08467 0.0423-0.04233 0.0423h-0.04233l-0.04233 0.0423v0.0423l-0.16932 0.1692v0.0423l-0.08466 0.0846v0.0423l-0.04233 0.0423v0.0423l-0.04233 0.0423v0.127l-0.04233 0.0423v0.33867l0.04233 0.0423v0.127l0.04233 0.0423v0.0423l0.04233 0.0423v0.0423l0.08466 0.0846v0.0423l0.16932 0.1692v0.0423l0.04233 0.0423h0.04233l0.04233 0.0423 0.08467 0.0423h0.04233l0.04233 0.0423h0.04233l0.04233 0.0423h0.16933l0.04233 0.0423h0.21167l0.08467-0.0423h0.127l0.04233-0.0423h0.08467l0.04233-0.0423h0.04233l0.08466-0.0846h0.04233l0.16932-0.1692v-0.0423l0.12699-0.1269v-0.0423l0.04233-0.0423v-0.0423l0.04233-0.0423v-0.127l0.04233-0.0423v-0.42333l-0.04233-0.0423v-0.127l-0.04233-0.0423v-0.0423l-0.04233-0.0423v-0.0423l-0.12699-0.1269v-0.0423l-0.16932-0.1692h-0.04233l-0.08466-0.0846h-0.04233l-0.04233-0.0423h-0.08467l-0.04233-0.0423h-0.08467l-0.04233-0.0423h-0.16933" fill="#848382"/>
  <path d="m11.621 198.27h-0.08467l-0.04233 0.0423h-0.16933l-0.04233 0.0423h-0.08467l-0.08466 0.0846h-0.08467l-0.08466 0.0846h-0.04233v0.0423l-0.16932 0.1692v0.0423l-0.08466 0.0846v0.0423l-0.04233 0.0423v0.0423l-0.04233 0.0847v0.0847l-0.04233 0.0423v0.33867l0.04233 0.0423v0.127l0.04233 0.0423v0.0423l0.04233 0.0423v0.0847l0.08466 0.0846v0.0423l0.08466 0.0846h0.04233l0.04233 0.0423v0.0423l0.08466 0.0846h0.04233l0.08467 0.0423h0.04233l0.04233 0.0423h0.04233l0.04233 0.0423h0.127l0.04233 0.0423h0.33867l0.04233-0.0423h0.08467l0.04233-0.0423h0.08467l0.04233-0.0423h0.04233l0.04233-0.0423h0.04233l0.16932-0.1692h0.04233v-0.0423l0.12699-0.1269v-0.0423l0.04233-0.0847v-0.0423l0.04233-0.0423v-0.0847l0.04233-0.0847v-0.42333l-0.04233-0.0423v-0.127l-0.04233-0.0423v-0.0423l-0.04233-0.0423v-0.0423l-0.12699-0.1269v-0.0423l-0.12699-0.1269h-0.04233l-0.08466-0.0846h-0.04233l-0.08466-0.0846h-0.127l-0.04233-0.0423h-0.16933l-0.04233-0.0423h-0.04233" fill="#848382"/>
  <path d="m11.621 201.02h-0.29633l-0.04233 0.0423h-0.04233l-0.04233 0.0423h-0.04233l-0.04233 0.0423h-0.08467l-0.08466 0.0846h-0.04233v0.0423l-0.16932 0.1692v0.0423l-0.08466 0.0846v0.0423l-0.04233 0.0423v0.0423l-0.04233 0.0847v0.0847l-0.04233 0.0423v0.33867l0.04233 0.0847v0.0847l0.04233 0.0423v0.0423l0.04233 0.0847v0.0423l0.08466 0.0846v0.0423l0.12699 0.1269h0.04233v0.0423l0.08466 0.0846h0.04233l0.08467 0.0423 0.04233 0.0423h0.04233l0.04233 0.0423h0.08467l0.08467 0.0423h0.42333l0.04233-0.0423h0.08467l0.08467-0.0423h0.04233l0.08466-0.0846h0.04233l0.12699-0.1269h0.04233l0.04233-0.0423v-0.0423l0.12699-0.1269v-0.0423l0.04233-0.0423v-0.0847l0.04233-0.0423v-0.0847l0.04233-0.0423v-0.46566l-0.04233-0.0423v-0.127l-0.04233-0.0423v-0.0423l-0.04233-0.0423v-0.0423l-0.12699-0.1269v-0.0423l-0.12699-0.1269h-0.04233l-0.08466-0.0846h-0.04233l-0.04233-0.0423h-0.04233l-0.08467-0.0423h-0.04233l-0.04233-0.0423h-0.254" fill="#fff"/>
  <path d="m11.621 195.56h-0.127l-0.04233 0.0423h-0.16933l-0.04233 0.0423h-0.04233l-0.04233 0.0423h-0.04233l-0.08467 0.0423-0.04233 0.0423h-0.04233l-0.04233 0.0423v0.0423l-0.16932 0.1692v0.0423l-0.08466 0.0846v0.0423l-0.04233 0.0423v0.0423l-0.04233 0.0423v0.127l-0.04233 0.0423v0.33867l0.04233 0.0423v0.127l0.04233 0.0423v0.0423l0.04233 0.0423v0.0423l0.04233 0.0423 0.04233 0.0847v0.0423l0.04233 0.0423h0.04233l0.08466 0.0846v0.0423l0.04233 0.0423h0.04233l0.04233 0.0423 0.08467 0.0423h0.04233l0.04233 0.0423h0.04233l0.04233 0.0423h0.127l0.04233 0.0423h0.33867l0.04233-0.0423h0.08467l0.04233-0.0423h0.08467l0.04233-0.0423h0.04233l0.08466-0.0846h0.04233l0.25398-0.2538 0.04233-0.0847v-0.0423l0.04233-0.0423v-0.0423l0.04233-0.0423v-0.0847l0.04233-0.0847v-0.42333l-0.04233-0.0423v-0.127l-0.04233-0.0423v-0.0423l-0.04233-0.0423v-0.0423l-0.12699-0.1269v-0.0423l-0.16932-0.1692h-0.04233l-0.08466-0.0846h-0.04233l-0.04233-0.0423h-0.08467l-0.04233-0.0423h-0.127l-0.08467-0.0423h-0.08467" fill="#848382"/>
  <path d="m8.912 179.3h-0.254l-0.084667 0.0423h-0.042333l-0.042333 0.0423h-0.042334l-0.042333 0.0423h-0.042333l-0.127 0.1269h-0.042335l-0.16933 0.1692v0.0423l-0.084666 0.0846v0.0423l-0.042333 0.0423v0.127l-0.042333 0.0423v0.16934l-0.042333 0.0423v0.127l0.042333 0.0423v0.16934l0.042333 0.0423v0.0847l0.042333 0.0847v0.0423l0.084666 0.0846v0.0423l0.16933 0.1692h0.042333l0.084666 0.0846h0.042333l0.084666 0.0846h0.042333l0.042333 0.0423h0.127l0.042333 0.0423h0.42333l0.042333-0.0423h0.127l0.042333-0.0423h0.042333l0.084666-0.0846h0.042333l0.084666-0.0846h0.042333l0.127-0.1269v-0.0423l0.084666-0.0846v-0.0423l0.042333-0.0423v-0.0847l0.042333-0.0423v-0.0423l0.042333-0.0423v-0.55034l-0.042333-0.0423v-0.0423l-0.042333-0.0847v-0.0423l-0.042333-0.0423v-0.0423l-0.084666-0.0846v-0.0423l-0.127-0.1269h-0.042333l-0.127-0.1269h-0.042333l-0.042333-0.0423h-0.042333l-0.042333-0.0423h-0.042333l-0.084667-0.0423h-0.254" fill="#848382"/>
  <g fill="#fff">
   <path d="m8.912 182.01h-0.21167l-0.042333 0.0423h-0.127l-0.042333 0.0423h-0.042334l-0.042333 0.0423h-0.042333l-0.127 0.1269h-0.042335l-0.16933 0.1692v0.0423l-0.084666 0.0846v0.0423l-0.042333 0.0847v0.0847l-0.042333 0.0423v0.16934l-0.042333 0.0423v0.127l0.042333 0.0423v0.16934l0.042333 0.0423v0.127l0.042333 0.0423v0.0423l0.084666 0.0846v0.0423l0.16933 0.1692h0.042333l0.127 0.1269h0.042333l0.042333 0.0423h0.042333l0.042333 0.0423h0.042333l0.084667 0.0423h0.508l0.084667-0.0423h0.042333l0.042333-0.0423h0.042333l0.042333-0.0423h0.042333l0.127-0.1269h0.042333l0.127-0.1269v-0.0423l0.084666-0.0846v-0.0423l0.042333-0.0423v-0.0423l0.042333-0.0847v-0.0423l0.042333-0.0423v-0.55034l-0.042333-0.0423v-0.0423l-0.042333-0.0423v-0.0847l-0.042333-0.0423v-0.0423l-0.084666-0.0846v-0.0423l-0.127-0.1269h-0.042333l-0.127-0.1269h-0.042333l-0.042333-0.0423h-0.042333l-0.042333-0.0423h-0.127l-0.042333-0.0423h-0.21166"/>
   <path d="m8.912 184.72h-0.21167l-0.042333 0.0423h-0.127l-0.042333 0.0423h-0.042334l-0.084666 0.0846h-0.042334l-0.127 0.1269h-0.042333l-0.127 0.1269v0.0423l-0.084666 0.0846v0.0423l-0.042333 0.0847v0.0847l-0.042333 0.0423v0.16934l-0.042333 0.0423v0.127l0.042333 0.0423v0.16934l0.042333 0.0423v0.127l0.042333 0.0423v0.0423l0.084666 0.0846v0.0423l0.21166 0.2115h0.042333l0.084666 0.0846h0.042333l0.042333 0.0423h0.042333l0.042333 0.0423h0.042333l0.084667 0.0423h0.508l0.084667-0.0423h0.042333l0.042333-0.0423h0.042333l0.042333-0.0423h0.042333l0.084666-0.0846h0.042333l0.16933-0.1692v-0.0423l0.084666-0.0846v-0.0423l0.042333-0.0423v-0.0423l0.042333-0.0423v-0.0847l0.042333-0.0423v-0.55034l-0.042333-0.0423v-0.0423l-0.042333-0.0423v-0.0847l-0.042333-0.0423v-0.0423l-0.084666-0.0846v-0.0423l-0.084666-0.0846h-0.042333l-0.127-0.1269h-0.042333l-0.084666-0.0846h-0.042333l-0.042333-0.0423h-0.127l-0.042333-0.0423h-0.21167"/>
   <path d="m8.912 187.43h-0.16933l-0.042333 0.0423h-0.127l-0.042333 0.0423h-0.042333l-0.042333 0.0423h-0.042333l-0.042333 0.0423h-0.042335l-0.16933 0.1692h-0.042333l-0.084666 0.0846v0.0423l-0.084666 0.0846v0.0847l-0.042333 0.0423v0.0847l-0.042333 0.0423v0.16934l-0.042333 0.0423v0.127l0.042333 0.0423v0.16934l0.042333 0.0423v0.127l0.042333 0.0423v0.0423l0.084666 0.0846v0.0423l0.21166 0.2115h0.042333l0.084666 0.0846h0.042333l0.084666 0.0846h0.084667l0.084667 0.0423h0.127l0.084667 0.0423h0.084667l0.084667-0.0423h0.127l0.084667-0.0423h0.084667l0.084666-0.0846h0.042333l0.084666-0.0846h0.042333l0.16933-0.1692v-0.0423l0.084666-0.0846v-0.0423l0.042333-0.0423v-0.0423l0.042333-0.0423v-0.0847l0.042333-0.0423v-0.55034l-0.042333-0.0423v-0.0423l-0.042333-0.0423v-0.0423l-0.042333-0.0847v-0.0423l-0.084666-0.0846v-0.0423l-0.042333-0.0423h-0.042333l-0.16933-0.1692h-0.042333l-0.042333-0.0423h-0.042333l-0.042333-0.0423h-0.042333l-0.042333-0.0423h-0.127l-0.042333-0.0423h-0.16934"/>
  </g>
  <path d="m8.912 190.14h-0.16933l-0.042333 0.0423h-0.127l-0.042333 0.0423h-0.042333l-0.042333 0.0423h-0.042333l-0.084666 0.0846h-0.042333l-0.16933 0.1692h-0.042337l-0.042333 0.0423v0.0423l-0.042333 0.0847-0.042333 0.0423v0.0423l-0.042333 0.0423v0.0847l-0.042333 0.0423v0.16934l-0.042333 0.0847v0.0847l0.042333 0.0847v0.127l0.042333 0.0847v0.0847l0.042333 0.0423v0.0423l0.084666 0.0846v0.0423l0.254 0.2538h0.042333l0.084666 0.0846h0.042333l0.042333 0.0423h0.042333l0.042333 0.0423h0.16933l0.042333 0.0423h0.254l0.042333-0.0423h0.16933l0.042333-0.0423h0.042333l0.042333-0.0423h0.042333l0.084666-0.0846h0.042333l0.21166-0.2115v-0.0423l0.084666-0.0846v-0.0423l0.042333-0.0423v-0.0423l0.042333-0.0423v-0.0423l0.042333-0.0847v-0.55034l-0.042333-0.0423v-0.0423l-0.042333-0.0423v-0.0423l-0.042333-0.0423v-0.0423l-0.042333-0.0847-0.042333-0.0423v-0.0423h-0.042333l-0.16933-0.1692h-0.042333l-0.084666-0.0846h-0.042333l-0.042333-0.0423h-0.042333l-0.042333-0.0423h-0.127l-0.042333-0.0423h-0.16933" fill="#848382"/>
  <path d="m8.912 192.85h-0.16933l-0.042333 0.0423h-0.127l-0.042333 0.0423h-0.042333l-0.042333 0.0423h-0.042333l-0.084666 0.0846h-0.042333l-0.254 0.2538v0.0423l-0.084666 0.0846v0.0423l-0.042333 0.0423v0.0847l-0.042333 0.0847v0.127l-0.042333 0.0847v0.0847l0.042333 0.0847v0.127l0.042333 0.0847v0.0847l0.042333 0.0423v0.0423l0.084666 0.0846v0.0423l0.254 0.2538h0.042333l0.084666 0.0846h0.042333l0.042333 0.0423h0.042333l0.042333 0.0423h0.16933l0.042333 0.0423h0.254l0.042333-0.0423h0.16933l0.042333-0.0423h0.042333l0.042333-0.0423h0.042333l0.084666-0.0846h0.042333l0.21166-0.2115v-0.0423l0.084666-0.0846v-0.0423l0.042333-0.0423v-0.0423l0.042333-0.0423v-0.0423l0.042333-0.0847v-0.508l-0.042333-0.0847v-0.0423l-0.042333-0.0423v-0.0423l-0.042333-0.0423v-0.0423l-0.084666-0.0846v-0.0423l-0.21166-0.2115h-0.042333l-0.084666-0.0846h-0.042333l-0.042333-0.0423h-0.042333l-0.042333-0.0423h-0.127l-0.042333-0.0423h-0.16933" fill="#fff"/>
  <path d="m8.912 198.27h-0.042333l-0.084667 0.0423h-0.127l-0.084667 0.0423h-0.084667l-0.084666 0.0846h-0.042333l-0.084666 0.0846h-0.042333l-0.21166 0.2115v0.0423l-0.084666 0.0846v0.0423l-0.042333 0.0423v0.127l-0.042333 0.0423v0.16933l-0.042333 0.0423v0.127l0.042333 0.0423v0.16933l0.042333 0.0423v0.0847l0.042333 0.0423v0.0847l0.084666 0.0846v0.0423l0.084666 0.0846h0.042333l0.16933 0.1692h0.042333l0.042333 0.0423h0.042333l0.042333 0.0423h0.042333l0.042333 0.0423h0.127l0.042333 0.0423h0.33867l0.042333-0.0423h0.127l0.042333-0.0423h0.042333l0.042333-0.0423h0.042333l0.042333-0.0423h0.042333l0.16933-0.1692h0.042333l0.042333-0.0423v-0.0423l0.084666-0.0846v-0.0423l0.042333-0.0847v-0.0423l0.042333-0.0423v-0.0423l0.042333-0.0423v-0.55033l-0.042333-0.0423v-0.0847l-0.042333-0.0423v-0.0423l-0.042333-0.0423v-0.0423l-0.084666-0.0846v-0.0423l-0.16933-0.1692h-0.042333l-0.084666-0.0846h-0.042333l-0.084666-0.0846h-0.084667l-0.084667-0.0423h-0.127l-0.084667-0.0423h-0.042333" fill="#fff"/>
  <path d="m8.912 201.02h-0.254l-0.084667 0.0423h-0.042333l-0.042333 0.0423h-0.042334l-0.042333 0.0423h-0.042333l-0.084666 0.0846h-0.042333l-0.21166 0.2115v0.0423l-0.084666 0.0846v0.0423l-0.042333 0.0423v0.127l-0.042333 0.0423v0.16934l-0.042333 0.0423v0.127l0.042333 0.0423v0.16934l0.042333 0.0423v0.0847l0.042333 0.0847v0.0423l0.084666 0.0846v0.0423l0.127 0.1269h0.042333l0.127 0.1269h0.042333l0.084666 0.0846h0.042333l0.042333 0.0423h0.127l0.042333 0.0423h0.42333l0.042333-0.0423h0.127l0.042333-0.0423h0.042333l0.084666-0.0846h0.042333l0.127-0.1269h0.042333l0.084666-0.0846v-0.0423l0.084666-0.0846v-0.0423l0.042333-0.0423v-0.0847l0.042333-0.0423v-0.0423l0.042333-0.0423v-0.55034l-0.042333-0.0423v-0.0847l-0.042333-0.0423v-0.0423l-0.042333-0.0423v-0.0423l-0.084666-0.0846v-0.0423l-0.16933-0.1692h-0.042333l-0.084666-0.0846h-0.042333l-0.042333-0.0423h-0.042333l-0.042333-0.0423h-0.042333l-0.084667-0.0423h-0.254" fill="#848382"/>
  <path d="m8.912 195.56h-0.127l-0.042333 0.0423h-0.16933l-0.042333 0.0423h-0.042333l-0.042333 0.0423h-0.042333l-0.084666 0.0846h-0.042333l-0.254 0.2538v0.0423l-0.084666 0.0846v0.0423l-0.042333 0.0423v0.0847l-0.042333 0.0847v0.127l-0.042333 0.0847v0.0847l0.042333 0.0847v0.16933l0.042333 0.0423v0.0847l0.042333 0.0423v0.0423l0.042333 0.0423 0.042333 0.0847v0.0423l0.042333 0.0423h0.042333l0.16933 0.1692h0.042333l0.084666 0.0846h0.042333l0.042333 0.0423h0.042333l0.042333 0.0423h0.127l0.042333 0.0423h0.33867l0.042333-0.0423h0.127l0.042333-0.0423h0.042333l0.042333-0.0423h0.042333l0.084666-0.0846h0.042333l0.16933-0.1692h0.042333v-0.0423l0.042333-0.0423 0.042333-0.0847v-0.0423l0.042333-0.0423v-0.0423l0.042333-0.0423v-0.0423l0.042333-0.0423v-0.55033l-0.042333-0.0847v-0.0423l-0.042333-0.0423v-0.0423l-0.042333-0.0423v-0.0423l-0.084666-0.0846v-0.0423l-0.21166-0.2115h-0.042333l-0.084666-0.0846h-0.042333l-0.042333-0.0423h-0.042333l-0.042333-0.0423h-0.16933l-0.042333-0.0423h-0.127" fill="#fff"/>
 </g>
</svg>
