<?xml version="1.0" encoding="UTF-8" standalone="no"?>
<!-- Created with Inkscape (http://www.inkscape.org/) -->

<svg
   width="19.073708mm"
   height="26.48204mm"
   viewBox="0 0 19.073707 26.482041"
   version="1.1"
   id="svg1"
   xmlns="http://www.w3.org/2000/svg"
   xmlns:svg="http://www.w3.org/2000/svg">
  <defs
     id="defs1">
    <clipPath
       clipPathUnits="userSpaceOnUse"
       id="clipPath106">
      <path
         d="m 293.64,379.46 h 30.72 v 30 h -30.72 z"
         transform="translate(-294.66003,-409.46001)"
         id="path106" />
    </clipPath>
    <clipPath
       clipPathUnits="userSpaceOnUse"
       id="clipPath151">
      <path
         d="m 2232,5240.67 h 308 v -310 h -308 z"
         transform="translate(-2385.9998,-5240.6699)"
         id="path151" />
    </clipPath>
    <clipPath
       clipPathUnits="userSpaceOnUse"
       id="clipPath159">
      <path
         d="m 2177,3883.67 h 418 v -1037 h -418 z"
         transform="translate(2.0833333e-4,2.0833333e-4)"
         id="path159" />
    </clipPath>
    <clipPath
       clipPathUnits="userSpaceOnUse"
       id="clipPath176">
      <path
         d="m 2177,2430.67 h 418 v -1037 h -418 z"
         transform="translate(2.0833333e-4,2.0833333e-4)"
         id="path176" />
    </clipPath>
    <clipPath
       clipPathUnits="userSpaceOnUse"
       id="clipPath270">
      <path
         d="m 2177,3851.67 h 418 v -1036 h -418 z"
         transform="translate(0,2.0833333e-4)"
         id="path270" />
    </clipPath>
    <clipPath
       clipPathUnits="userSpaceOnUse"
       id="clipPath287">
      <path
         d="m 2177,2399.67 h 418 v -1037 h -418 z"
         transform="translate(0,2.0833333e-4)"
         id="path287" />
    </clipPath>
    <clipPath
       clipPathUnits="userSpaceOnUse"
       id="clipPath373">
      <path
         d="m 2380,4896.67 h 39 v -653 h -39 z"
         transform="matrix(1.0363639,0,0,-0.96609957,-2502.8204,4728.75)"
         id="path373" />
    </clipPath>
    <clipPath
       clipPathUnits="userSpaceOnUse"
       id="clipPath380">
      <path
         d="m 2246,5184.67 h 306 v -310 h -306 z"
         transform="matrix(1.0363639,0,0,-0.96609957,-2486.2399,5008.9199)"
         id="path380" />
    </clipPath>
    <clipPath
       clipPathUnits="userSpaceOnUse"
       id="clipPath385">
      <path
         d="m 2221,4801.67 h 331 v -341 h -331 z"
         transform="matrix(1.0363639,0,0,-0.96609957,-2643.7601,4313.3198)"
         id="path385" />
    </clipPath>
    <clipPath
       clipPathUnits="userSpaceOnUse"
       id="clipPath391">
      <path
         d="m 2177,3780.67 h 418 v -1036 h -418 z"
         transform="translate(-2.0833333e-4,2.0833333e-4)"
         id="path391" />
    </clipPath>
    <clipPath
       clipPathUnits="userSpaceOnUse"
       id="clipPath408">
      <path
         d="m 2177,2327.67 h 418 v -1036 h -418 z"
         transform="translate(-2.0833333e-4,2.0833333e-4)"
         id="path408" />
    </clipPath>
    <clipPath
       clipPathUnits="userSpaceOnUse"
       id="clipPath510">
      <path
         d="m 2177,4125.67 h 418 v -1036 h -418 z"
         transform="translate(2.0833332e-4,2.0833333e-4)"
         id="path510" />
    </clipPath>
    <clipPath
       clipPathUnits="userSpaceOnUse"
       id="clipPath528">
      <path
         d="m 2177,2587.67 h 418 v -1036 h -418 z"
         transform="translate(2.0833332e-4,2.0833333e-4)"
         id="path528" />
    </clipPath>
  </defs>
  <g
     id="layer1"
     transform="translate(-6.8788339,-182.5625)">
    <path
       id="path621"
       d="M 6.9118539,209.01152 H 25.919521 v -26.416 H 6.9118539 Z"
       style="fill:#848382;fill-opacity:1;fill-rule:evenodd;stroke:#1f1a17;stroke-width:0.06604;stroke-linecap:round;stroke-linejoin:round;stroke-miterlimit:10;stroke-dasharray:none;stroke-opacity:1" />
    <g
       id="g1">
      <path
         id="path622"
         d="m 9.0708492,187.08287 -0.042333,0.0423 -0.042333,0.0423 -0.042333,0.0423 v 0.0423 l -0.042333,0.0423 -0.042333,0.0423 v 0.0423 l -0.042333,0.0423 -0.042333,0.0423 v 0.0847 l -0.042333,0.0423 v 0.127 l -0.042333,0.0423 v 0.29634 l 0.042333,0.0423 v 0.0847 l 0.042333,0.0847 v 0.0423 l 0.042333,0.0423 v 0.0423 l 0.042333,0.0423 v 0.0423 l 0.042333,0.0423 0.042333,0.0423 0.042333,0.0423 0.042333,0.0423 0.042333,0.0423 h 0.042333 l 0.042333,0.0423 0.042333,0.0423 h 0.042333 l 0.042333,0.0423 0.042333,0.0423 h 0.084667 l 0.042333,0.0423 h 0.1693334 l 0.042333,0.0423 h 0.1693333 l 0.084667,-0.0423 h 0.1270001 l 0.04233,-0.0423 h 0.04233 l 0.08467,-0.0423 h 0.04233 l 0.04233,-0.0423 0.04233,-0.0423 h 0.04233 l 0.04233,-0.0423 0.04233,-0.0423 0.04233,-0.0423 v -0.0423 l 0.04233,-0.0423 0.04233,-0.0423 0.04233,-0.0423 v -0.0423 l 0.04233,-0.0423 v -0.0423 l 0.04233,-0.0423 v -0.0423 l 0.04233,-0.0423 v -0.21167 l 0.04233,-0.0423 v -0.0847 l -0.04233,-0.0423 V 187.633 l -0.04233,-0.0423 v -0.0847 l -0.04233,-0.0423 v -0.0847 l -0.04233,-0.0423 -0.04233,-0.0423 v -0.0423 l -0.04233,-0.0423 -0.04233,-0.0423 h -0.04233 l -0.04233,-0.0423 -0.04233,-0.0423 -0.04233,-0.0423 -0.04233,-0.0423 h -0.04233 l -0.04233,-0.0423 h -0.04233 l -0.04233,-0.0423 h -0.08467 l -0.04233,-0.0423 H 9.4941826 l -0.042333,0.0423 h -0.042333 l -0.084667,0.0423 h -0.042333 l -0.042333,0.0423 h -0.042333 l -0.042333,0.0423 -0.042333,0.0423 h -0.042333"
         style="fill:#ffffff;fill-opacity:1;fill-rule:evenodd;stroke:#1f1a17;stroke-width:0.06604;stroke-linecap:round;stroke-linejoin:round;stroke-miterlimit:10;stroke-dasharray:none;stroke-opacity:1">
         <animate
            attributeName="fill"
            values="#ffffff;#969594"
            dur="1.5s"
            calcMode="discrete"
            repeatCount="indefinite" />
      </path>
      <path
         id="path623"
         d="m 10.721849,189.07254 -0.04233,0.0423 v 0.0423 l -0.04233,0.0423 -0.04233,0.0423 -0.04233,0.0423 v 0.0423 l -0.04233,0.0423 -0.04233,0.0423 v 0.0423 l -0.04233,0.0423 v 0.0847 l -0.04233,0.0423 v 0.508 l 0.04233,0.0423 v 0.0423 l 0.04233,0.0423 v 0.0423 l 0.04233,0.0847 v 0.0423 l 0.04233,0.0423 0.04233,0.0423 v 0.0423 l 0.04233,0.0423 h 0.04233 l 0.04233,0.0423 0.04233,0.0423 0.04233,0.0423 0.04233,0.0423 h 0.04233 l 0.04233,0.0423 h 0.04233 l 0.04233,0.0423 h 0.127 l 0.04233,0.0423 h 0.465666 l 0.08467,-0.0423 h 0.08467 l 0.04233,-0.0423 0.04233,-0.0423 h 0.04233 l 0.04233,-0.0423 0.04233,-0.0423 h 0.04233 l 0.04233,-0.0423 0.04233,-0.0423 0.04233,-0.0423 0.04233,-0.0423 v -0.0423 l 0.04233,-0.0423 0.04233,-0.0423 v -0.0423 l 0.04233,-0.0423 v -0.0423 l 0.04233,-0.0423 v -0.0847 l 0.04233,-0.0847 v -0.33867 l -0.04233,-0.0423 v -0.127 l -0.04233,-0.0847 v -0.0423 l -0.04233,-0.0423 -0.04233,-0.0423 v -0.0423 l -0.04233,-0.0423 -0.04233,-0.0423 -0.04233,-0.0423 -0.04233,-0.0423 v -0.0423 h -0.04233 l -0.04233,-0.0423 -0.04233,-0.0423 h -0.04233 l -0.04233,-0.0423 -0.08467,-0.0423 h -0.08467 l -0.04233,-0.0423 h -0.127 l -0.08467,-0.0423 h -0.169333 l -0.04233,0.0423 h -0.169333 l -0.04233,0.0423 h -0.04233 l -0.04233,0.0423 h -0.04233 l -0.08467,0.0423 -0.04233,0.0423 h -0.04233 l -0.04233,0.0423"
         style="fill:#ffffff;fill-opacity:1;fill-rule:evenodd;stroke:#1f1a17;stroke-width:0.06604;stroke-linecap:round;stroke-linejoin:round;stroke-miterlimit:10;stroke-dasharray:none;stroke-opacity:1">
         <animate
            attributeName="fill"
            values="#ffffff;#969594"
            dur="1.5s"
            calcMode="discrete"
            repeatCount="indefinite" />
      </path>
      <path
         id="path624"
         d="m 12.415183,191.06221 -0.04233,0.0423 h -0.04233 l -0.04233,0.0423 -0.04233,0.0423 v 0.0423 l -0.04233,0.0423 -0.04233,0.0423 v 0.0423 l -0.04233,0.0423 v 0.0847 l -0.04233,0.0423 v 0.0847 l -0.04233,0.0423 v 0.33866 l 0.04233,0.0847 v 0.0847 l 0.04233,0.0423 v 0.0847 l 0.04233,0.0423 0.04233,0.0423 v 0.0423 l 0.04233,0.0423 0.04233,0.0423 0.04233,0.0423 0.04233,0.0423 v 0.0423 l 0.04233,0.0423 0.04233,0.0423 h 0.04233 l 0.04233,0.0423 h 0.04233 l 0.08467,0.0423 h 0.04233 l 0.04233,0.0423 h 0.08467 l 0.04233,0.0423 h 0.423333 l 0.04233,-0.0423 h 0.08467 l 0.04233,-0.0423 h 0.04233 l 0.04233,-0.0423 h 0.08467 l 0.04233,-0.0423 0.04233,-0.0423 0.04233,-0.0423 h 0.04233 v -0.0423 l 0.04233,-0.0423 0.04233,-0.0423 0.04233,-0.0423 v -0.0423 l 0.04233,-0.0423 0.04233,-0.0423 v -0.0423 l 0.04233,-0.0423 v -0.127 l 0.04233,-0.0423 v -0.46567 l -0.04233,-0.0847 v -0.0423 l -0.04233,-0.0423 v -0.0423 l -0.04233,-0.0423 v -0.0423 l -0.04233,-0.0423 -0.04233,-0.0423 v -0.0423 l -0.04233,-0.0423 -0.04233,-0.0423 -0.04233,-0.0423 -0.04233,-0.0423 h -0.04233 l -0.04233,-0.0423 -0.04233,-0.0423 h -0.04233 l -0.04233,-0.0423 h -0.04233 l -0.04233,-0.0423 h -0.127 l -0.04233,-0.0423 h -0.338667 l -0.04233,0.0423 h -0.127 l -0.04233,0.0423 h -0.08467 l -0.04233,0.0423 -0.04233,0.0423 h -0.04233 l -0.04233,0.0423 -0.04233,0.0423"
         style="fill:#ffffff;fill-opacity:1;fill-rule:evenodd;stroke:#1f1a17;stroke-width:0.06604;stroke-linecap:round;stroke-linejoin:round;stroke-miterlimit:10;stroke-dasharray:none;stroke-opacity:1">
         <animate
            attributeName="fill"
            values="#ffffff;#969594"
            dur="1.5s"
            calcMode="discrete"
            repeatCount="indefinite" />
      </path>
      <path
         id="path625"
         d="m 14.066182,193.05187 h -0.04233 l -0.04233,0.0423 v 0.0423 l -0.04233,0.0423 -0.04233,0.0423 -0.04233,0.0423 v 0.0423 l -0.04233,0.0423 v 0.0423 l -0.04233,0.0423 v 0.0423 l -0.04233,0.0847 v 0.16933 l -0.04233,0.0423 v 0.127 l 0.04233,0.0423 v 0.127 l 0.04233,0.0847 v 0.0847 l 0.04233,0.0423 v 0.0423 l 0.04233,0.0423 0.04233,0.0423 v 0.0423 l 0.04233,0.0423 0.04233,0.0423 0.04233,0.0423 0.04233,0.0423 0.04233,0.0423 h 0.04233 l 0.04233,0.0423 0.04233,0.0423 h 0.04233 l 0.04233,0.0423 h 0.04233 l 0.04233,0.0423 h 0.169333 l 0.04233,0.0423 h 0.296334 l 0.04233,-0.0423 h 0.08467 l 0.08467,-0.0423 h 0.04233 l 0.04233,-0.0423 h 0.04233 l 0.04233,-0.0423 h 0.04233 l 0.04233,-0.0423 0.04233,-0.0423 0.04233,-0.0423 0.04233,-0.0423 0.04233,-0.0423 v 0 l 0.04233,-0.0423 0.04233,-0.0423 0.04233,-0.0423 v -0.0847 l 0.04233,-0.0423 v -0.0847 l 0.04233,-0.0423 v -0.0847 l 0.04233,-0.0423 v -0.254 l -0.04233,-0.0423 v -0.16933 l -0.04233,-0.0423 v -0.0423 l -0.04233,-0.0423 v -0.0423 l -0.04233,-0.0423 v -0.0423 l -0.04233,-0.0423 -0.04233,-0.0423 -0.04233,-0.0423 -0.04233,-0.0423 -0.04233,-0.0423 -0.04233,-0.0423 -0.04233,-0.0423 h -0.04233 l -0.04233,-0.0423 -0.04233,-0.0423 h -0.08467 l -0.04233,-0.0423 h -0.04233 l -0.04233,-0.0423 h -0.465666 l -0.04233,0.0423 h -0.08467 l -0.04233,0.0423 h -0.08467 l -0.04233,0.0423 h -0.04233 l -0.04233,0.0423 -0.04233,0.0423 -0.04233,0.0423"
         style="fill:#ffffff;fill-opacity:1;fill-rule:evenodd;stroke:#1f1a17;stroke-width:0.06604;stroke-linecap:round;stroke-linejoin:round;stroke-miterlimit:10;stroke-dasharray:none;stroke-opacity:1">
         <animate
            attributeName="fill"
            values="#ffffff;#969594"
            dur="1.5s"
            calcMode="discrete"
            repeatCount="indefinite" />
      </path>
      <path
         id="path626"
         d="m 15.759516,194.99921 -0.04233,0.0423 -0.04233,0.0423 -0.04233,0.0423 -0.04233,0.0423 -0.04233,0.0423 v 0.0423 l -0.04233,0.0423 v 0.0423 l -0.04233,0.0423 v 0.0423 l -0.04233,0.0423 v 0.0423 l -0.04233,0.0423 v 0.46567 l 0.04233,0.0423 v 0.0847 l 0.04233,0.0847 v 0.0423 l 0.04233,0.0423 v 0.0423 l 0.04233,0.0423 0.04233,0.0423 0.04233,0.0423 v 0.0423 l 0.04233,0.0423 0.04233,0.0423 h 0.04233 l 0.04233,0.0423 0.04233,0.0423 h 0.04233 l 0.04233,0.0423 h 0.04233 l 0.04233,0.0423 h 0.08467 l 0.04233,0.0423 h 0.169333 l 0.08467,0.0423 h 0.08467 l 0.04233,-0.0423 h 0.211667 l 0.04233,-0.0423 h 0.04233 l 0.04233,-0.0423 h 0.04233 l 0.04233,-0.0423 0.04233,-0.0423 h 0.04233 l 0.04233,-0.0423 0.04233,-0.0423 0.04233,-0.0423 0.04233,-0.0423 0.04233,-0.0423 0.04233,-0.0423 v -0.0423 l 0.04233,-0.0423 v -0.0423 l 0.04233,-0.0423 v -0.0423 l 0.04233,-0.0423 v -0.0423 l 0.04233,-0.0423 v -0.46566 l -0.04233,-0.0423 v -0.0847 l -0.04233,-0.0423 v -0.0847 l -0.04233,-0.0423 v -0.0423 l -0.04233,-0.0423 -0.04233,-0.0423 -0.04233,-0.0423 v -0.0423 l -0.04233,-0.0423 h -0.04233 l -0.04233,-0.0423 -0.04233,-0.0423 -0.04233,-0.0423 h -0.04233 l -0.04233,-0.0423 h -0.04233 l -0.04233,-0.0423 h -0.08467 l -0.04233,-0.0423 h -0.550333 l -0.04233,0.0423 h -0.08467 l -0.04233,0.0423 h -0.04233 l -0.04233,0.0423 -0.04233,0.0423 h -0.04233 l -0.04233,0.0423"
         style="fill:#ffffff;fill-opacity:1;fill-rule:evenodd;stroke:#1f1a17;stroke-width:0.06604;stroke-linecap:round;stroke-linejoin:round;stroke-miterlimit:10;stroke-dasharray:none;stroke-opacity:1">
         <animate
            attributeName="fill"
            values="#ffffff;#969594"
            dur="1.5s"
            calcMode="discrete"
            repeatCount="indefinite" />
      </path>
      <path
         id="path627"
         d="m 17.410516,196.98887 -0.04233,0.0423 -0.04233,0.0423 -0.04233,0.0423 v 0.0423 h -0.04233 l -0.04233,0.0847 v 0.0423 l -0.04233,0.0423 -0.04233,0.0423 v 0.0847 l -0.04233,0.0423 v 0.0847 l -0.04233,0.0423 v 0.254 l 0.04233,0.0847 v 0.127 l 0.04233,0.0423 v 0.0423 l 0.04233,0.0423 v 0.0423 l 0.04233,0.0423 0.04233,0.0847 v 0.0423 l 0.04233,0.0423 h 0.04233 l 0.04233,0.0423 0.04233,0.0423 0.04233,0.0423 0.04233,0.0423 h 0.04233 l 0.04233,0.0423 0.04233,0.0423 h 0.04233 l 0.04233,0.0423 h 0.08467 l 0.04233,0.0423 h 0.508 l 0.04233,-0.0423 h 0.04233 l 0.04233,-0.0423 h 0.08467 l 0.04233,-0.0423 h 0.04233 l 0.04233,-0.0423 0.04233,-0.0423 h 0.04233 l 0.04233,-0.0423 0.04233,-0.0423 v -0.0423 l 0.04233,-0.0423 0.04233,-0.0423 0.04233,-0.0423 v -0.0423 l 0.04233,-0.0423 v -0.0423 l 0.04233,-0.0423 v -0.0423 l 0.04233,-0.0423 v -0.21167 l 0.04233,-0.0423 v -0.127 l -0.04233,-0.0423 v -0.16933 l -0.04233,-0.0847 v -0.0423 l -0.04233,-0.0423 v -0.0423 l -0.04233,-0.0423 -0.04233,-0.0423 v -0.0423 l -0.04233,-0.0423 -0.04233,-0.0423 -0.04233,-0.0423 -0.04233,-0.0423 h -0.04233 l -0.04233,-0.0423 -0.04233,-0.0423 -0.04233,-0.0423 h -0.04233 l -0.04233,-0.0423 h -0.08467 l -0.04233,-0.0423 h -0.127 l -0.04233,-0.0423 h -0.296333 l -0.04233,0.0423 h -0.08467 l -0.04233,0.0423 h -0.08467 l -0.04233,0.0423 h -0.04233 l -0.04233,0.0423 h -0.04233 l -0.04233,0.0423 -0.04233,0.0423"
         style="fill:#ffffff;fill-opacity:1;fill-rule:evenodd;stroke:#1f1a17;stroke-width:0.06604;stroke-linecap:round;stroke-linejoin:round;stroke-miterlimit:10;stroke-dasharray:none;stroke-opacity:1">
         <animate
            attributeName="fill"
            values="#ffffff;#969594"
            dur="1.5s"
            calcMode="discrete"
            repeatCount="indefinite" />
      </path>
      <path
         id="path628"
         d="m 20.754849,200.92587 -0.04233,0.0423 -0.04233,0.0423 -0.04233,0.0423 -0.04233,0.0423 v 0.0423 l -0.04233,0.0423 -0.04233,0.0423 v 0.0423 l -0.04233,0.0423 v 0.0423 l -0.04233,0.0423 v 0.127 l -0.04233,0.0423 v 0.33867 l 0.04233,0.0423 v 0.0847 l 0.04233,0.0847 v 0.0847 l 0.04233,0.0423 0.04233,0.0423 v 0.0423 l 0.04233,0.0423 0.04233,0.0423 0.04233,0.0423 0.04233,0.0423 0.04233,0.0423 v 0 l 0.04233,0.0423 0.04233,0.0423 h 0.04233 l 0.08467,0.0423 0.04233,0.0423 h 0.08467 l 0.04233,0.0423 h 0.08467 l 0.04233,0.0423 h 0.254 l 0.08467,-0.0423 h 0.127 l 0.04233,-0.0423 h 0.04233 l 0.04233,-0.0423 h 0.08467 l 0.04233,-0.0423 h 0.04233 l 0.04233,-0.0423 0.04233,-0.0423 0.04233,-0.0423 v -0.0423 l 0.04233,-0.0423 0.04233,-0.0423 0.04233,-0.0423 0.04233,-0.0423 v -0.0423 l 0.04233,-0.0423 v -0.0423 l 0.04233,-0.0423 v -0.0847 l 0.04233,-0.0423 v -0.508 l -0.04233,-0.0423 v -0.0847 l -0.04233,-0.0423 -0.04233,-0.0423 v -0.0847 l -0.04233,-0.0423 -0.04233,-0.0423 v -0.0423 l -0.04233,-0.0423 h -0.04233 l -0.04233,-0.0423 -0.04233,-0.0423 -0.04233,-0.0423 h -0.04233 l -0.04233,-0.0423 -0.04233,-0.0423 h -0.04233 l -0.04233,-0.0423 h -0.08467 l -0.08467,-0.0423 h -0.465667 l -0.08467,0.0423 h -0.04233 l -0.04233,0.0423 h -0.04233 l -0.04233,0.0423 h -0.04233 l -0.04233,0.0423 -0.04233,0.0423 h -0.04233"
         style="fill:#ffffff;fill-opacity:1;fill-rule:evenodd;stroke:#1f1a17;stroke-width:0.06604;stroke-linecap:round;stroke-linejoin:round;stroke-miterlimit:10;stroke-dasharray:none;stroke-opacity:1">
         <animate
            attributeName="fill"
            values="#ffffff;#969594"
            dur="1.5s"
            calcMode="discrete"
            repeatCount="indefinite" />
      </path>
      <path
         id="path629"
         d="m 22.405849,202.91554 -0.04233,0.0423 -0.04233,0.0423 v 0.0423 l -0.04233,0.0423 -0.04233,0.0423 -0.04233,0.0423 v 0.0423 l -0.04233,0.0423 v 0.0423 l -0.04233,0.0423 v 0.0423 l -0.04233,0.0423 v 0.254 l -0.04233,0.0423 0.04233,0.0423 v 0.21166 l 0.04233,0.0423 v 0.0847 l 0.04233,0.0423 v 0.0847 l 0.04233,0.0423 0.04233,0.0423 v 0.0423 l 0.04233,0.0423 0.04233,0.0423 0.04233,0.0423 h 0.04233 l 0.04233,0.0423 0.04233,0.0423 0.04233,0.0423 h 0.04233 l 0.04233,0.0423 h 0.04233 l 0.04233,0.0423 h 0.04233 l 0.04233,0.0423 h 0.550333 l 0.04233,-0.0423 h 0.127 l 0.04233,-0.0423 h 0.04233 l 0.04233,-0.0423 0.04233,-0.0423 h 0.04233 l 0.04233,-0.0423 0.04233,-0.0423 0.04233,-0.0423 0.04233,-0.0423 0.04233,-0.0423 v -0.0423 l 0.04233,-0.0423 0.04233,-0.0423 v -0.0423 l 0.04233,-0.0423 v -0.0423 l 0.04233,-0.0423 v -0.16933 l 0.04233,-0.0423 v -0.29633 l -0.04233,-0.0423 v -0.0847 l -0.04233,-0.0423 v -0.0847 l -0.04233,-0.0423 v -0.0423 l -0.04233,-0.0423 v -0.0423 l -0.04233,-0.0423 -0.04233,-0.0423 -0.04233,-0.0423 -0.04233,-0.0423 -0.04233,-0.0423 v 0 l -0.04233,-0.0423 -0.08467,-0.0423 h -0.04233 l -0.04233,-0.0423 h -0.04233 l -0.04233,-0.0423 h -0.04233 l -0.04233,-0.0423 h -0.169334 l -0.04233,-0.0423 h -0.127 l -0.04233,0.0423 h -0.211667 l -0.04233,0.0423 h -0.04233 l -0.04233,0.0423 h -0.08467 l -0.04233,0.0423 -0.04233,0.0423 h -0.04233 l -0.04233,0.0423"
         style="fill:#ffffff;fill-opacity:1;fill-rule:evenodd;stroke:#1f1a17;stroke-width:0.06604;stroke-linecap:round;stroke-linejoin:round;stroke-miterlimit:10;stroke-dasharray:none;stroke-opacity:1">
         <animate
            attributeName="fill"
            values="#ffffff;#969594"
            dur="1.5s"
            calcMode="discrete"
            repeatCount="indefinite" />
      </path>
      <path
         id="path630"
         d="m 19.103849,198.97854 -0.04233,0.0423 h -0.04233 l -0.04233,0.0423 -0.04233,0.0423 -0.04233,0.0423 v 0.0423 l -0.04233,0.0423 -0.04233,0.0423 v 0.0423 l -0.04233,0.0423 v 0.127 l -0.04233,0.0423 v 0.508 l 0.04233,0.0423 v 0.0423 l 0.04233,0.0423 v 0.0423 l 0.04233,0.0423 v 0.0423 l 0.04233,0.0423 0.04233,0.0423 v 0.0423 l 0.04233,0.0423 0.04233,0.0423 0.04233,0.0423 0.04233,0.0423 h 0.04233 l 0.04233,0.0423 0.04233,0.0423 h 0.04233 l 0.04233,0.0423 h 0.04233 l 0.04233,0.0423 h 0.127 l 0.04233,0.0423 h 0.381 l 0.04233,-0.0423 h 0.127 l 0.04233,-0.0423 h 0.04233 l 0.04233,-0.0423 0.04233,-0.0423 h 0.04233 l 0.04233,-0.0423 0.04233,-0.0423 0.04233,-0.0423 h 0.04233 l 0.04233,-0.0423 0.04233,-0.0423 v -0.0423 l 0.04233,-0.0423 0.04233,-0.0423 v -0.0423 l 0.04233,-0.0423 v -0.0847 l 0.04233,-0.0423 v -0.0847 l 0.04233,-0.0423 v -0.381 l -0.04233,-0.0847 v -0.0847 l -0.04233,-0.0423 v -0.0423 l -0.04233,-0.0423 -0.04233,-0.0423 v -0.0423 l -0.04233,-0.0423 -0.04233,-0.0423 -0.04233,-0.0423 v -0.0423 l -0.04233,-0.0423 -0.04233,-0.0423 h -0.04233 l -0.04233,-0.0423 -0.04233,-0.0423 h -0.04233 l -0.04233,-0.0423 h -0.08467 l -0.04233,-0.0423 h -0.08467 l -0.04233,-0.0423 h -0.423334 l -0.04233,0.0423 h -0.08467 l -0.04233,0.0423 h -0.04233 l -0.04233,0.0423 h -0.04233 l -0.04233,0.0423 -0.08467,0.0423 v 0.0423"
         style="fill:#ffffff;fill-opacity:1;fill-rule:evenodd;stroke:#1f1a17;stroke-width:0.06604;stroke-linecap:round;stroke-linejoin:round;stroke-miterlimit:10;stroke-dasharray:none;stroke-opacity:1">
         <animate
            attributeName="fill"
            values="#ffffff;#969594"
            dur="1.5s"
            calcMode="discrete"
            repeatCount="indefinite" />
      </path>
      <path
         id="path631"
         d="m 9.0708492,187.08287 -0.042333,0.0423 -0.042333,0.0423 -0.042333,0.0423 v 0.0423 l -0.042333,0.0423 -0.042333,0.0423 v 0.0423 l -0.042333,0.0423 -0.042333,0.0423 v 0.0847 l -0.042333,0.0423 v 0.127 l -0.042333,0.0423 v 0.29634 l 0.042333,0.0423 v 0.0847 l 0.042333,0.0847 v 0.0423 l 0.042333,0.0423 v 0.0423 l 0.042333,0.0423 v 0.0423 l 0.042333,0.0423 0.042333,0.0423 0.042333,0.0423 0.042333,0.0423 0.042333,0.0423 h 0.042333 l 0.042333,0.0423 0.042333,0.0423 h 0.042333 l 0.042333,0.0423 0.042333,0.0423 h 0.084667 l 0.042333,0.0423 h 0.1693334 l 0.042333,0.0423 h 0.1693333 l 0.084667,-0.0423 h 0.1270001 l 0.04233,-0.0423 h 0.04233 l 0.08467,-0.0423 h 0.04233 l 0.04233,-0.0423 0.04233,-0.0423 h 0.04233 l 0.04233,-0.0423 0.04233,-0.0423 0.04233,-0.0423 v -0.0423 l 0.04233,-0.0423 0.04233,-0.0423 0.04233,-0.0423 v -0.0423 l 0.04233,-0.0423 v -0.0423 l 0.04233,-0.0423 v -0.0423 l 0.04233,-0.0423 v -0.21167 l 0.04233,-0.0423 v -0.0847 l -0.04233,-0.0423 V 187.633 l -0.04233,-0.0423 v -0.0847 l -0.04233,-0.0423 v -0.0847 l -0.04233,-0.0423 -0.04233,-0.0423 v -0.0423 l -0.04233,-0.0423 -0.04233,-0.0423 h -0.04233 l -0.04233,-0.0423 -0.04233,-0.0423 -0.04233,-0.0423 -0.04233,-0.0423 h -0.04233 l -0.04233,-0.0423 h -0.04233 l -0.04233,-0.0423 h -0.08467 l -0.04233,-0.0423 H 9.4941826 l -0.042333,0.0423 h -0.042333 l -0.084667,0.0423 h -0.042333 l -0.042333,0.0423 h -0.042333 l -0.042333,0.0423 -0.042333,0.0423 h -0.042333"
         style="fill:#ffffff;fill-opacity:1;fill-rule:evenodd;stroke:#1f1a17;stroke-width:0.06604;stroke-linecap:round;stroke-linejoin:round;stroke-miterlimit:10;stroke-dasharray:none;stroke-opacity:1">
         <animate
            attributeName="fill"
            values="#ffffff;#969594"
            dur="1.5s"
            calcMode="discrete"
            repeatCount="indefinite" />
      </path>
      <path
         id="path632"
         d="m 10.721849,189.07254 -0.04233,0.0423 v 0.0423 l -0.04233,0.0423 -0.04233,0.0423 -0.04233,0.0423 v 0.0423 l -0.04233,0.0423 -0.04233,0.0423 v 0.0423 l -0.04233,0.0423 v 0.0847 l -0.04233,0.0423 v 0.508 l 0.04233,0.0423 v 0.0423 l 0.04233,0.0423 v 0.0423 l 0.04233,0.0847 v 0.0423 l 0.04233,0.0423 0.04233,0.0423 v 0.0423 l 0.04233,0.0423 h 0.04233 l 0.04233,0.0423 0.04233,0.0423 0.04233,0.0423 0.04233,0.0423 h 0.04233 l 0.04233,0.0423 h 0.04233 l 0.04233,0.0423 h 0.127 l 0.04233,0.0423 h 0.465666 l 0.08467,-0.0423 h 0.08467 l 0.04233,-0.0423 0.04233,-0.0423 h 0.04233 l 0.04233,-0.0423 0.04233,-0.0423 h 0.04233 l 0.04233,-0.0423 0.04233,-0.0423 0.04233,-0.0423 0.04233,-0.0423 v -0.0423 l 0.04233,-0.0423 0.04233,-0.0423 v -0.0423 l 0.04233,-0.0423 v -0.0423 l 0.04233,-0.0423 v -0.0847 l 0.04233,-0.0847 v -0.33867 l -0.04233,-0.0423 v -0.127 l -0.04233,-0.0847 v -0.0423 l -0.04233,-0.0423 -0.04233,-0.0423 v -0.0423 l -0.04233,-0.0423 -0.04233,-0.0423 -0.04233,-0.0423 -0.04233,-0.0423 v -0.0423 h -0.04233 l -0.04233,-0.0423 -0.04233,-0.0423 h -0.04233 l -0.04233,-0.0423 -0.08467,-0.0423 h -0.08467 l -0.04233,-0.0423 h -0.127 l -0.08467,-0.0423 h -0.169333 l -0.04233,0.0423 h -0.169333 l -0.04233,0.0423 h -0.04233 l -0.04233,0.0423 h -0.04233 l -0.08467,0.0423 -0.04233,0.0423 h -0.04233 l -0.04233,0.0423"
         style="fill:#ffffff;fill-opacity:1;fill-rule:evenodd;stroke:#1f1a17;stroke-width:0.06604;stroke-linecap:round;stroke-linejoin:round;stroke-miterlimit:10;stroke-dasharray:none;stroke-opacity:1">
         <animate
            attributeName="fill"
            values="#ffffff;#969594"
            dur="1.5s"
            calcMode="discrete"
            repeatCount="indefinite" />
      </path>
      <path
         id="path633"
         d="m 12.415183,191.06221 -0.04233,0.0423 h -0.04233 l -0.04233,0.0423 -0.04233,0.0423 v 0.0423 l -0.04233,0.0423 -0.04233,0.0423 v 0.0423 l -0.04233,0.0423 v 0.0847 l -0.04233,0.0423 v 0.0847 l -0.04233,0.0423 v 0.33866 l 0.04233,0.0847 v 0.0847 l 0.04233,0.0423 v 0.0847 l 0.04233,0.0423 0.04233,0.0423 v 0.0423 l 0.04233,0.0423 0.04233,0.0423 0.04233,0.0423 0.04233,0.0423 v 0.0423 l 0.04233,0.0423 0.04233,0.0423 h 0.04233 l 0.04233,0.0423 h 0.04233 l 0.08467,0.0423 h 0.04233 l 0.04233,0.0423 h 0.08467 l 0.04233,0.0423 h 0.423333 l 0.04233,-0.0423 h 0.08467 l 0.04233,-0.0423 h 0.04233 l 0.04233,-0.0423 h 0.08467 l 0.04233,-0.0423 0.04233,-0.0423 0.04233,-0.0423 h 0.04233 v -0.0423 l 0.04233,-0.0423 0.04233,-0.0423 0.04233,-0.0423 v -0.0423 l 0.04233,-0.0423 0.04233,-0.0423 v -0.0423 l 0.04233,-0.0423 v -0.127 l 0.04233,-0.0423 v -0.46567 l -0.04233,-0.0847 v -0.0423 l -0.04233,-0.0423 v -0.0423 l -0.04233,-0.0423 v -0.0423 l -0.04233,-0.0423 -0.04233,-0.0423 v -0.0423 l -0.04233,-0.0423 -0.04233,-0.0423 -0.04233,-0.0423 -0.04233,-0.0423 h -0.04233 l -0.04233,-0.0423 -0.04233,-0.0423 h -0.04233 l -0.04233,-0.0423 h -0.04233 l -0.04233,-0.0423 h -0.127 l -0.04233,-0.0423 h -0.338667 l -0.04233,0.0423 h -0.127 l -0.04233,0.0423 h -0.08467 l -0.04233,0.0423 -0.04233,0.0423 h -0.04233 l -0.04233,0.0423 -0.04233,0.0423"
         style="fill:#ffffff;fill-opacity:1;fill-rule:evenodd;stroke:#1f1a17;stroke-width:0.06604;stroke-linecap:round;stroke-linejoin:round;stroke-miterlimit:10;stroke-dasharray:none;stroke-opacity:1">
         <animate
            attributeName="fill"
            values="#ffffff;#969594"
            dur="1.5s"
            calcMode="discrete"
            repeatCount="indefinite" />
      </path>
      <path
         id="path634"
         d="m 14.066182,193.05187 h -0.04233 l -0.04233,0.0423 v 0.0423 l -0.04233,0.0423 -0.04233,0.0423 -0.04233,0.0423 v 0.0423 l -0.04233,0.0423 v 0.0423 l -0.04233,0.0423 v 0.0423 l -0.04233,0.0847 v 0.16933 l -0.04233,0.0423 v 0.127 l 0.04233,0.0423 v 0.127 l 0.04233,0.0847 v 0.0847 l 0.04233,0.0423 v 0.0423 l 0.04233,0.0423 0.04233,0.0423 v 0.0423 l 0.04233,0.0423 0.04233,0.0423 0.04233,0.0423 0.04233,0.0423 0.04233,0.0423 h 0.04233 l 0.04233,0.0423 0.04233,0.0423 h 0.04233 l 0.04233,0.0423 h 0.04233 l 0.04233,0.0423 h 0.169333 l 0.04233,0.0423 h 0.296334 l 0.04233,-0.0423 h 0.08467 l 0.08467,-0.0423 h 0.04233 l 0.04233,-0.0423 h 0.04233 l 0.04233,-0.0423 h 0.04233 l 0.04233,-0.0423 0.04233,-0.0423 0.04233,-0.0423 0.04233,-0.0423 0.04233,-0.0423 v 0 l 0.04233,-0.0423 0.04233,-0.0423 0.04233,-0.0423 v -0.0847 l 0.04233,-0.0423 v -0.0847 l 0.04233,-0.0423 v -0.0847 l 0.04233,-0.0423 v -0.254 l -0.04233,-0.0423 v -0.16933 l -0.04233,-0.0423 v -0.0423 l -0.04233,-0.0423 v -0.0423 l -0.04233,-0.0423 v -0.0423 l -0.04233,-0.0423 -0.04233,-0.0423 -0.04233,-0.0423 -0.04233,-0.0423 -0.04233,-0.0423 -0.04233,-0.0423 -0.04233,-0.0423 h -0.04233 l -0.04233,-0.0423 -0.04233,-0.0423 h -0.08467 l -0.04233,-0.0423 h -0.04233 l -0.04233,-0.0423 h -0.465666 l -0.04233,0.0423 h -0.08467 l -0.04233,0.0423 h -0.08467 l -0.04233,0.0423 h -0.04233 l -0.04233,0.0423 -0.04233,0.0423 -0.04233,0.0423"
         style="fill:#ffffff;fill-opacity:1;fill-rule:evenodd;stroke:#1f1a17;stroke-width:0.06604;stroke-linecap:round;stroke-linejoin:round;stroke-miterlimit:10;stroke-dasharray:none;stroke-opacity:1">
         <animate
            attributeName="fill"
            values="#ffffff;#969594"
            dur="1.5s"
            calcMode="discrete"
            repeatCount="indefinite" />
      </path>
      <path
         id="path635"
         d="m 15.759516,194.99921 -0.04233,0.0423 -0.04233,0.0423 -0.04233,0.0423 -0.04233,0.0423 -0.04233,0.0423 v 0.0423 l -0.04233,0.0423 v 0.0423 l -0.04233,0.0423 v 0.0423 l -0.04233,0.0423 v 0.0423 l -0.04233,0.0423 v 0.46567 l 0.04233,0.0423 v 0.0847 l 0.04233,0.0847 v 0.0423 l 0.04233,0.0423 v 0.0423 l 0.04233,0.0423 0.04233,0.0423 0.04233,0.0423 v 0.0423 l 0.04233,0.0423 0.04233,0.0423 h 0.04233 l 0.04233,0.0423 0.04233,0.0423 h 0.04233 l 0.04233,0.0423 h 0.04233 l 0.04233,0.0423 h 0.08467 l 0.04233,0.0423 h 0.169333 l 0.08467,0.0423 h 0.08467 l 0.04233,-0.0423 h 0.211667 l 0.04233,-0.0423 h 0.04233 l 0.04233,-0.0423 h 0.04233 l 0.04233,-0.0423 0.04233,-0.0423 h 0.04233 l 0.04233,-0.0423 0.04233,-0.0423 0.04233,-0.0423 0.04233,-0.0423 0.04233,-0.0423 0.04233,-0.0423 v -0.0423 l 0.04233,-0.0423 v -0.0423 l 0.04233,-0.0423 v -0.0423 l 0.04233,-0.0423 v -0.0423 l 0.04233,-0.0423 v -0.46566 l -0.04233,-0.0423 v -0.0847 l -0.04233,-0.0423 v -0.0847 l -0.04233,-0.0423 v -0.0423 l -0.04233,-0.0423 -0.04233,-0.0423 -0.04233,-0.0423 v -0.0423 l -0.04233,-0.0423 h -0.04233 l -0.04233,-0.0423 -0.04233,-0.0423 -0.04233,-0.0423 h -0.04233 l -0.04233,-0.0423 h -0.04233 l -0.04233,-0.0423 h -0.08467 l -0.04233,-0.0423 h -0.550333 l -0.04233,0.0423 h -0.08467 l -0.04233,0.0423 h -0.04233 l -0.04233,0.0423 -0.04233,0.0423 h -0.04233 l -0.04233,0.0423"
         style="fill:#ffffff;fill-opacity:1;fill-rule:evenodd;stroke:#1f1a17;stroke-width:0.06604;stroke-linecap:round;stroke-linejoin:round;stroke-miterlimit:10;stroke-dasharray:none;stroke-opacity:1">
         <animate
            attributeName="fill"
            values="#ffffff;#969594"
            dur="1.5s"
            calcMode="discrete"
            repeatCount="indefinite" />
      </path>
      <path
         id="path636"
         d="m 17.410516,196.98887 -0.04233,0.0423 -0.04233,0.0423 -0.04233,0.0423 v 0.0423 h -0.04233 l -0.04233,0.0847 v 0.0423 l -0.04233,0.0423 -0.04233,0.0423 v 0.0847 l -0.04233,0.0423 v 0.0847 l -0.04233,0.0423 v 0.254 l 0.04233,0.0847 v 0.127 l 0.04233,0.0423 v 0.0423 l 0.04233,0.0423 v 0.0423 l 0.04233,0.0423 0.04233,0.0847 v 0.0423 l 0.04233,0.0423 h 0.04233 l 0.04233,0.0423 0.04233,0.0423 0.04233,0.0423 0.04233,0.0423 h 0.04233 l 0.04233,0.0423 0.04233,0.0423 h 0.04233 l 0.04233,0.0423 h 0.08467 l 0.04233,0.0423 h 0.508 l 0.04233,-0.0423 h 0.04233 l 0.04233,-0.0423 h 0.08467 l 0.04233,-0.0423 h 0.04233 l 0.04233,-0.0423 0.04233,-0.0423 h 0.04233 l 0.04233,-0.0423 0.04233,-0.0423 v -0.0423 l 0.04233,-0.0423 0.04233,-0.0423 0.04233,-0.0423 v -0.0423 l 0.04233,-0.0423 v -0.0423 l 0.04233,-0.0423 v -0.0423 l 0.04233,-0.0423 v -0.21167 l 0.04233,-0.0423 v -0.127 l -0.04233,-0.0423 v -0.16933 l -0.04233,-0.0847 v -0.0423 l -0.04233,-0.0423 v -0.0423 l -0.04233,-0.0423 -0.04233,-0.0423 v -0.0423 l -0.04233,-0.0423 -0.04233,-0.0423 -0.04233,-0.0423 -0.04233,-0.0423 h -0.04233 l -0.04233,-0.0423 -0.04233,-0.0423 -0.04233,-0.0423 h -0.04233 l -0.04233,-0.0423 h -0.08467 l -0.04233,-0.0423 h -0.127 l -0.04233,-0.0423 h -0.296333 l -0.04233,0.0423 h -0.08467 l -0.04233,0.0423 h -0.08467 l -0.04233,0.0423 h -0.04233 l -0.04233,0.0423 h -0.04233 l -0.04233,0.0423 -0.04233,0.0423"
         style="fill:#ffffff;fill-opacity:1;fill-rule:evenodd;stroke:#1f1a17;stroke-width:0.06604;stroke-linecap:round;stroke-linejoin:round;stroke-miterlimit:10;stroke-dasharray:none;stroke-opacity:1">
         <animate
            attributeName="fill"
            values="#ffffff;#969594"
            dur="1.5s"
            calcMode="discrete"
            repeatCount="indefinite" />
      </path>
      <path
         id="path637"
         d="m 20.754849,200.92587 -0.04233,0.0423 -0.04233,0.0423 -0.04233,0.0423 -0.04233,0.0423 v 0.0423 l -0.04233,0.0423 -0.04233,0.0423 v 0.0423 l -0.04233,0.0423 v 0.0423 l -0.04233,0.0423 v 0.127 l -0.04233,0.0423 v 0.33867 l 0.04233,0.0423 v 0.0847 l 0.04233,0.0847 v 0.0847 l 0.04233,0.0423 0.04233,0.0423 v 0.0423 l 0.04233,0.0423 0.04233,0.0423 0.04233,0.0423 0.04233,0.0423 0.04233,0.0423 v 0 l 0.04233,0.0423 0.04233,0.0423 h 0.04233 l 0.08467,0.0423 0.04233,0.0423 h 0.08467 l 0.04233,0.0423 h 0.08467 l 0.04233,0.0423 h 0.254 l 0.08467,-0.0423 h 0.127 l 0.04233,-0.0423 h 0.04233 l 0.04233,-0.0423 h 0.08467 l 0.04233,-0.0423 h 0.04233 l 0.04233,-0.0423 0.04233,-0.0423 0.04233,-0.0423 v -0.0423 l 0.04233,-0.0423 0.04233,-0.0423 0.04233,-0.0423 0.04233,-0.0423 v -0.0423 l 0.04233,-0.0423 v -0.0423 l 0.04233,-0.0423 v -0.0847 l 0.04233,-0.0423 v -0.508 l -0.04233,-0.0423 v -0.0847 l -0.04233,-0.0423 -0.04233,-0.0423 v -0.0847 l -0.04233,-0.0423 -0.04233,-0.0423 v -0.0423 l -0.04233,-0.0423 h -0.04233 l -0.04233,-0.0423 -0.04233,-0.0423 -0.04233,-0.0423 h -0.04233 l -0.04233,-0.0423 -0.04233,-0.0423 h -0.04233 l -0.04233,-0.0423 h -0.08467 l -0.08467,-0.0423 h -0.465667 l -0.08467,0.0423 h -0.04233 l -0.04233,0.0423 h -0.04233 l -0.04233,0.0423 h -0.04233 l -0.04233,0.0423 -0.04233,0.0423 h -0.04233"
         style="fill:#ffffff;fill-opacity:1;fill-rule:evenodd;stroke:#1f1a17;stroke-width:0.06604;stroke-linecap:round;stroke-linejoin:round;stroke-miterlimit:10;stroke-dasharray:none;stroke-opacity:1">
         <animate
            attributeName="fill"
            values="#ffffff;#969594"
            dur="1.5s"
            calcMode="discrete"
            repeatCount="indefinite" />
      </path>
      <path
         id="path638"
         d="m 22.405849,202.91554 -0.04233,0.0423 -0.04233,0.0423 v 0.0423 l -0.04233,0.0423 -0.04233,0.0423 -0.04233,0.0423 v 0.0423 l -0.04233,0.0423 v 0.0423 l -0.04233,0.0423 v 0.0423 l -0.04233,0.0423 v 0.254 l -0.04233,0.0423 0.04233,0.0423 v 0.21166 l 0.04233,0.0423 v 0.0847 l 0.04233,0.0423 v 0.0847 l 0.04233,0.0423 0.04233,0.0423 v 0.0423 l 0.04233,0.0423 0.04233,0.0423 0.04233,0.0423 h 0.04233 l 0.04233,0.0423 0.04233,0.0423 0.04233,0.0423 h 0.04233 l 0.04233,0.0423 h 0.04233 l 0.04233,0.0423 h 0.04233 l 0.04233,0.0423 h 0.550333 l 0.04233,-0.0423 h 0.127 l 0.04233,-0.0423 h 0.04233 l 0.04233,-0.0423 0.04233,-0.0423 h 0.04233 l 0.04233,-0.0423 0.04233,-0.0423 0.04233,-0.0423 0.04233,-0.0423 0.04233,-0.0423 v -0.0423 l 0.04233,-0.0423 0.04233,-0.0423 v -0.0423 l 0.04233,-0.0423 v -0.0423 l 0.04233,-0.0423 v -0.16933 l 0.04233,-0.0423 v -0.29633 l -0.04233,-0.0423 v -0.0847 l -0.04233,-0.0423 v -0.0847 l -0.04233,-0.0423 v -0.0423 l -0.04233,-0.0423 v -0.0423 l -0.04233,-0.0423 -0.04233,-0.0423 -0.04233,-0.0423 -0.04233,-0.0423 -0.04233,-0.0423 v 0 l -0.04233,-0.0423 -0.08467,-0.0423 h -0.04233 l -0.04233,-0.0423 h -0.04233 l -0.04233,-0.0423 h -0.04233 l -0.04233,-0.0423 h -0.169334 l -0.04233,-0.0423 h -0.127 l -0.04233,0.0423 h -0.211667 l -0.04233,0.0423 h -0.04233 l -0.04233,0.0423 h -0.08467 l -0.04233,0.0423 -0.04233,0.0423 h -0.04233 l -0.04233,0.0423"
         style="fill:#ffffff;fill-opacity:1;fill-rule:evenodd;stroke:#1f1a17;stroke-width:0.06604;stroke-linecap:round;stroke-linejoin:round;stroke-miterlimit:10;stroke-dasharray:none;stroke-opacity:1">
         <animate
            attributeName="fill"
            values="#ffffff;#969594"
            dur="1.5s"
            calcMode="discrete"
            repeatCount="indefinite" />
      </path>
      <path
         id="path639"
         d="m 19.103849,198.97854 -0.04233,0.0423 h -0.04233 l -0.04233,0.0423 -0.04233,0.0423 -0.04233,0.0423 v 0.0423 l -0.04233,0.0423 -0.04233,0.0423 v 0.0423 l -0.04233,0.0423 v 0.127 l -0.04233,0.0423 v 0.508 l 0.04233,0.0423 v 0.0423 l 0.04233,0.0423 v 0.0423 l 0.04233,0.0423 v 0.0423 l 0.04233,0.0423 0.04233,0.0423 v 0.0423 l 0.04233,0.0423 0.04233,0.0423 0.04233,0.0423 0.04233,0.0423 h 0.04233 l 0.04233,0.0423 0.04233,0.0423 h 0.04233 l 0.04233,0.0423 h 0.04233 l 0.04233,0.0423 h 0.127 l 0.04233,0.0423 h 0.381 l 0.04233,-0.0423 h 0.127 l 0.04233,-0.0423 h 0.04233 l 0.04233,-0.0423 0.04233,-0.0423 h 0.04233 l 0.04233,-0.0423 0.04233,-0.0423 0.04233,-0.0423 h 0.04233 l 0.04233,-0.0423 0.04233,-0.0423 v -0.0423 l 0.04233,-0.0423 0.04233,-0.0423 v -0.0423 l 0.04233,-0.0423 v -0.0847 l 0.04233,-0.0423 v -0.0847 l 0.04233,-0.0423 v -0.381 l -0.04233,-0.0847 v -0.0847 l -0.04233,-0.0423 v -0.0423 l -0.04233,-0.0423 -0.04233,-0.0423 v -0.0423 l -0.04233,-0.0423 -0.04233,-0.0423 -0.04233,-0.0423 v -0.0423 l -0.04233,-0.0423 -0.04233,-0.0423 h -0.04233 l -0.04233,-0.0423 -0.04233,-0.0423 h -0.04233 l -0.04233,-0.0423 h -0.08467 l -0.04233,-0.0423 h -0.08467 l -0.04233,-0.0423 h -0.423334 l -0.04233,0.0423 h -0.08467 l -0.04233,0.0423 h -0.04233 l -0.04233,0.0423 h -0.04233 l -0.04233,0.0423 -0.08467,0.0423 v 0.0423"
         style="fill:#ffffff;fill-opacity:1;fill-rule:evenodd;stroke:#1f1a17;stroke-width:0.06604;stroke-linecap:round;stroke-linejoin:round;stroke-miterlimit:10;stroke-dasharray:none;stroke-opacity:1">
         <animate
            attributeName="fill"
            values="#ffffff;#969594"
            dur="1.5s"
            calcMode="discrete"
            repeatCount="indefinite" />
      </path>
      <path
         id="path640"
         d="m 9.0708492,184.45821 -0.042333,0.0423 v 0.0423 l -0.042333,0.0423 -0.042333,0.0423 -0.042333,0.0423 v 0.0423 l -0.042333,0.0423 -0.042333,0.0423 v 0.0423 l -0.042333,0.0423 v 0.0847 l -0.042333,0.0847 v 0.46566 l 0.042333,0.0423 v 0.0423 l 0.042333,0.0847 v 0.0423 l 0.042333,0.0423 v 0.0423 l 0.042333,0.0423 0.042333,0.0423 v 0.0423 l 0.042333,0.0423 0.042333,0.0423 0.042333,0.0423 h 0.042333 l 0.042333,0.0423 0.042333,0.0423 h 0.042333 l 0.042333,0.0423 0.042333,0.0423 h 0.084667 l 0.084667,0.0423 h 0.127 l 0.042333,0.0423 h 0.2116667 l 0.042333,-0.0423 h 0.1693331 l 0.04233,-0.0423 h 0.04233 l 0.04233,-0.0423 h 0.04233 l 0.04233,-0.0423 0.04233,-0.0423 h 0.04233 l 0.04233,-0.0423 0.04233,-0.0423 0.04233,-0.0423 0.04233,-0.0423 0.04233,-0.0423 v -0.0423 l 0.04233,-0.0423 0.04233,-0.0423 v -0.0423 l 0.04233,-0.0423 v -0.0423 l 0.04233,-0.0423 v -0.0847 l 0.04233,-0.0423 v -0.381 l -0.04233,-0.0423 v -0.127 l -0.04233,-0.0423 v -0.0423 l -0.04233,-0.0847 -0.04233,-0.0423 v -0.0423 l -0.04233,-0.0423 -0.04233,-0.0423 -0.04233,-0.0423 v 0 l -0.04233,-0.0423 -0.04233,-0.0423 -0.04233,-0.0423 h -0.04233 l -0.04233,-0.0423 -0.04233,-0.0423 h -0.08467 l -0.04233,-0.0423 h -0.08467 l -0.04233,-0.0423 H 9.4941826 l -0.042333,0.0423 h -0.042333 l -0.042333,0.0423 h -0.042333 l -0.042333,0.0423 h -0.042333 l -0.084667,0.0423 -0.042333,0.0423 h -0.042333"
         style="fill:#ffffff;fill-opacity:1;fill-rule:evenodd;stroke:#1f1a17;stroke-width:0.06604;stroke-linecap:round;stroke-linejoin:round;stroke-miterlimit:10;stroke-dasharray:none;stroke-opacity:1">
         <animate
            attributeName="fill"
            values="#ffffff;#969594"
            dur="1.5s"
            calcMode="discrete"
            repeatCount="indefinite" />
      </path>
      <path
         id="path641"
         d="m 22.448182,205.58254 -0.04233,0.0423 -0.04233,0.0423 -0.04233,0.0423 v 0.0423 l -0.04233,0.0423 h -0.04233 v 0.0847 l -0.04233,0.0423 -0.04233,0.0423 v 0.0847 l -0.04233,0.0423 v 0.127 l -0.04233,0.0847 v 0.16933 l 0.04233,0.0847 v 0.127 l 0.04233,0.0423 v 0.0423 l 0.04233,0.0423 v 0.0423 l 0.04233,0.0423 0.04233,0.0847 v 0.0423 l 0.04233,0.0423 h 0.04233 l 0.04233,0.0423 0.04233,0.0423 0.04233,0.0423 0.04233,0.0423 h 0.04233 l 0.04233,0.0423 0.04233,0.0423 h 0.04233 l 0.04233,0.0423 h 0.08467 l 0.04233,0.0423 h 0.508 l 0.04233,-0.0423 h 0.04233 l 0.04233,-0.0423 h 0.08467 l 0.04233,-0.0423 h 0.04233 l 0.04233,-0.0423 0.04233,-0.0423 h 0.04233 l 0.04233,-0.0423 0.04233,-0.0423 0.04233,-0.0423 v -0.0423 l 0.04233,-0.0423 0.04233,-0.0423 v -0.0423 l 0.04233,-0.0423 v -0.0423 l 0.04233,-0.0423 v -0.0423 l 0.04233,-0.0423 v -0.16934 l 0.04233,-0.0423 v -0.21167 l -0.04233,-0.0423 v -0.127 l -0.04233,-0.0847 v -0.0423 l -0.04233,-0.0423 v -0.0423 l -0.04233,-0.0423 -0.04233,-0.0423 v -0.0423 l -0.04233,-0.0423 -0.04233,-0.0423 -0.04233,-0.0423 -0.04233,-0.0423 h -0.04233 l -0.04233,-0.0423 -0.04233,-0.0423 -0.04233,-0.0423 h -0.04233 l -0.04233,-0.0423 h -0.08467 l -0.04233,-0.0423 h -0.127 l -0.04233,-0.0423 h -0.254 l -0.04233,0.0423 h -0.127 l -0.04233,0.0423 h -0.08467 l -0.04233,0.0423 h -0.04233 l -0.04233,0.0423 h -0.04233 l -0.04233,0.0423 -0.04233,0.0423"
         style="fill:#ffffff;fill-opacity:1;fill-rule:evenodd;stroke:#1f1a17;stroke-width:0.06604;stroke-linecap:round;stroke-linejoin:round;stroke-miterlimit:10;stroke-dasharray:none;stroke-opacity:1">
         <animate
            attributeName="fill"
            values="#ffffff;#969594"
            dur="1.5s"
            calcMode="discrete"
            repeatCount="indefinite" />
      </path>
    </g>
    <path
       id="path1504"
       d="m 12.288183,192.88254 -0.465667,-0.67733 v 0 l 0.465667,0.67733 v 0"
       style="fill:#ffffff;fill-opacity:1;fill-rule:evenodd;stroke:none;stroke-width:0.0846667" />
    <path
       id="path1570"
       d="m 10.637183,190.97754 -0.465667,-0.71967 v 0 l 0.465667,0.71967 v 0"
       style="fill:#ffffff;fill-opacity:1;fill-rule:evenodd;stroke:none;stroke-width:0.0846667" />
  </g>
</svg>
