<?xml version="1.0" encoding="UTF-8"?>
<!-- Created with Inkscape (http://www.inkscape.org/) -->
<svg width="29.581mm" height="26.702mm" version="1.1" viewBox="0 0 29.581 26.702" xmlns="http://www.w3.org/2000/svg">
 <g transform="translate(-5.2913 -180.18)">
  <path d="m5.3286 180.22h29.506l-14.817 26.628-14.69-26.628" fill="#fff500" fill-rule="evenodd" stroke="#1f1a17" stroke-linecap="round" stroke-linejoin="round" stroke-miterlimit="10" stroke-width=".074676"/>
  <path d="m8.2919 181.87h23.622l-11.811 22.013-11.811-22.013" fill="#1f1a17" fill-rule="evenodd" stroke="#1f1a17" stroke-linecap="round" stroke-linejoin="round" stroke-miterlimit="10" stroke-width=".074676"/>
  <path d="m21.458 184.16 0.84667 0.55033-2.667 4.064 0.04233-0.0423h0.08467l0.04233-0.0423h0.08467l0.04233-0.0423h0.127l0.08467-0.0423h0.254l0.04233-0.0423h0.42333l0.04233 0.0423h0.21167l0.08467 0.0423h0.127l0.08467 0.0423h0.04233l0.08467 0.0423h0.04233l0.08467 0.0423h0.04233l0.08467 0.0423 0.04233 0.0423h0.04233l0.08467 0.0423 0.04233 0.0423 0.08467 0.0423 0.08466 0.0846 0.08467 0.0423 0.08466 0.0846 0.08467 0.0423 0.12699 0.1269 0.08467 0.0423 0.04233 0.0847 0.08466 0.0846 0.04233 0.0847 0.08466 0.0846 0.04233 0.0847 0.08466 0.0846 0.04233 0.0847 0.04233 0.0423v0.0847l0.04233 0.0423 0.04233 0.0847v0.0423l0.04233 0.0847 0.04233 0.0423v0.0847l0.04233 0.0847v0.0423l0.04233 0.0847v0.127l0.04233 0.0847v0.21167l0.04233 0.0847v0.59266l-0.04233 0.127v0.21167l-0.04233 0.0847v0.0847l-0.04233 0.0847-0.04233 0.127-0.04233 0.0847v0.0847l-0.12699 0.2541-0.04233 0.127-0.08467 0.0847-0.04233 0.0423-0.04233 0.0847-0.08467 0.0847-0.04233 0.0847-0.08467 0.0847-0.04233 0.0423-0.08467 0.0847-0.04233 0.0847-0.08467 0.0423-0.08467 0.0847-0.08467 0.0423-0.08467 0.0847-0.25401 0.1269-0.08467 0.0847-0.08467 0.0423-0.127 0.0423-0.08467 0.0423h-0.08467l-0.08467 0.0423-0.127 0.0423-0.08467 0.0423h-0.08467l-0.127 0.0423h-0.16933l-0.127 0.0423h-0.59267l-0.08467-0.0423h-0.21167l-0.08467-0.0423h-0.127l-0.16934-0.0846h-0.08467l-0.25401-0.1269-0.127-0.0423-0.16934-0.0846-0.08467-0.0847-0.08467-0.0423-0.04233-0.0423-0.08467-0.0847-0.08467-0.0423-0.08467-0.0847-0.04233-0.0423-0.08467-0.0847-0.04233-0.0847-0.08467-0.0847-0.04233-0.0423-0.08467-0.0847-0.12699-0.2541-0.08467-0.127-0.08466-0.1694v-0.0847l-0.08466-0.1694-0.04233-0.127v-0.0847l-0.04233-0.0847v-0.0847l-0.04233-0.127v-0.16933l-0.04233-0.127v-0.42334l0.04233-0.0847v-0.21167l0.04233-0.0847v-0.16933l0.08466-0.1694v-0.0847l0.04233-0.0847v-0.0847l0.16932-0.3388v-0.0847l0.08467-0.0847 0.04233-0.0847 0.04233-0.127 0.08466-0.1694 0.08467-0.127 0.04233-0.0847 0.08467-0.127 0.04233-0.127 0.08467-0.0847 0.16934-0.254zm-1.0583 5.2917h-0.29633l-0.08467 0.0423h-0.127l-0.04233 0.0423h-0.127l-0.04233 0.0423h-0.08467l-0.04233 0.0423h-0.04233l-0.04233 0.0423h-0.04233l-0.08466 0.0846h-0.04233l-0.08466 0.0846h-0.04233l-0.12699 0.1269h-0.04233l-0.12699 0.1269v0.0423l-0.16932 0.1692v0.0423l-0.08466 0.0846v0.0423l-0.04233 0.0423v0.0423l-0.08466 0.0846v0.0847l-0.04233 0.0423v0.0423l-0.04233 0.0423v0.127l-0.04233 0.0423v0.127l-0.04233 0.0847v0.635l0.04233 0.0423v0.127l0.04233 0.0423v0.127l0.04233 0.0423v0.0423l0.04233 0.0423v0.0847l0.08466 0.0846v0.0423l0.04233 0.0423v0.0423l0.08466 0.0846v0.0423l0.16932 0.1692v0.0423l0.12699 0.1269h0.04233l0.16932 0.1692h0.04233l0.04233 0.0423h0.04233l0.08466 0.0846h0.04233l0.04233 0.0423h0.04233l0.04233 0.0423h0.04233l0.04233 0.0423h0.127l0.04233 0.0423h0.127l0.04233 0.0423h0.762l0.04233-0.0423h0.127l0.04233-0.0423h0.127l0.04233-0.0423h0.04233l0.04233-0.0423h0.04233l0.04233-0.0423h0.04233l0.08466-0.0846h0.04233l0.04233-0.0423h0.04233l0.16932-0.1692h0.04233l0.08466-0.0846v-0.0423l0.16932-0.1692v-0.0423l0.08466-0.0846v-0.0423l0.08466-0.0846v-0.0423l0.04233-0.0423v-0.0423l0.04233-0.0423v-0.0423l0.04233-0.0423v-0.0423l0.04233-0.0423v-0.127l0.04233-0.0423v-0.16933l0.04233-0.0847v-0.508l-0.04233-0.0423v-0.21167l-0.04233-0.0423v-0.127l-0.04233-0.0423v-0.0423l-0.04233-0.0423v-0.0423l-0.04233-0.0423v-0.0423l-0.04233-0.0423v-0.0423l-0.08466-0.0846v-0.0423l-0.08466-0.0846v-0.0423l-0.16932-0.1692v-0.0423l-0.08466-0.0846h-0.04233l-0.12699-0.1269h-0.04233l-0.08466-0.0846h-0.04233l-0.08466-0.0846h-0.04233l-0.04233-0.0423h-0.04233l-0.04233-0.0423h-0.08467l-0.08467-0.0423h-0.08467l-0.04233-0.0423h-0.127l-0.08467-0.0423h-0.29633" fill="#fff500"/>
 </g>
</svg>
