<?xml version="1.0" encoding="UTF-8"?>
<!-- Created with Inkscape (http://www.inkscape.org/) -->
<svg width="6.096mm" height="32.046mm" version="1.1" viewBox="0 0 6.096 32.046" xmlns="http://www.w3.org/2000/svg">
 <path d="m0.021167 32.025h6.0537v-32.004h-6.0537z" fill="#1f1a17" fill-rule="evenodd" stroke="#1f1a17" stroke-miterlimit="10" stroke-width=".042333"/>
 <g fill="#fff" fill-rule="evenodd" stroke="#1f1a17" stroke-miterlimit="10" stroke-width=".042333">
  <path d="m0.27516 3.1962 2.667-2.54 2.667 2.54-2.667 2.54-2.667-2.54"/>
  <path d="m0.27516 8.2338 2.667-2.54 2.667 2.54-2.667 2.54-2.667-2.54"/>
  <path d="m0.27516 13.441 2.667-2.54 2.667 2.54-2.667 2.54-2.667-2.54"/>
  <path d="m0.27516 18.606 2.667-2.54 2.667 2.54-2.667 2.54-2.667-2.54"/>
  <path d="m0.27516 23.813 2.667-2.54 2.667 2.54-2.667 2.54-2.667-2.54"/>
  <path d="m0.27516 28.85 2.667-2.54 2.667 2.54-2.667 2.54-2.667-2.54"/>
 </g>
</svg>
