<?xml version="1.0" encoding="UTF-8"?>
<!-- Created with Inkscape (http://www.inkscape.org/) -->
<svg width="15.875mm" height="48.641mm" version="1.1" viewBox="0 0 15.875 48.641" xmlns="http://www.w3.org/2000/svg">
 <path d="m6.0325 48.62h3.81v-38.481h-3.81z" fill="#969594" fill-rule="evenodd" stroke="#1f1a17" stroke-miterlimit="10" stroke-width=".042333"/>
 <path d="m0.021167 34.184h15.833v-34.163h-15.833z" fill="#969594" fill-rule="evenodd" stroke="#1f1a17" stroke-miterlimit="10" stroke-width=".042333"/>
 <g fill="#fff" fill-rule="evenodd" stroke="#1f1a17" stroke-miterlimit="10" stroke-width=".042333">
  <path d="m7.9798 3.0692h-0.042333l-0.042333 0.042333h-0.127l-0.042333 0.042334h-0.042333l-0.042333 0.042333h-0.042333l-0.16933 0.16933v0.042333h-0.042333v0.084667h-0.042333v0.127h-0.042333v0.21167l0.042333 0.042333v0.084667l0.042333 0.042333v0.042333l0.042333 0.042333 0.042333 0.084667 0.084666 0.084666h0.042333l0.042333 0.042333h0.042333v0.042333h0.127v0.042333h0.33867l0.042333-0.042333h0.084667l0.042333-0.04233h0.042333v-0.042333h0.084667l0.084666-0.084666 0.042333-0.084667 0.042333-0.042333v-0.084667l0.042333-0.042333v-0.381l-0.042332-0.042334v-0.084667h-0.042333v-0.042333l-0.127-0.127-0.084667-0.042333-0.042333-0.042333h-0.042333l-0.042334-0.042333h-0.127l-0.042333-0.042333h-0.084667"/>
  <path d="m10.689 5.8632h-0.04233l-0.04233 0.042333h-0.127l-0.04233 0.042333h-0.04233l-0.04233 0.042333h-0.04233l-0.16932 0.16933v0.042333h-0.04233v0.084667h-0.04233v0.127l-0.04233 0.042333v0.127l0.04233 0.042333v0.127l0.04233 0.042333v0.042333l0.08466 0.084666 0.04233 0.084667 0.04233 0.042333h0.04233l0.04233 0.042333h0.04233l0.04233 0.042333h0.08467v0.042333h0.381v-0.042333h0.08467l0.04233-0.042333h0.04233v-0.042333h0.08467l0.04233-0.042333 0.04233-0.084667 0.04233-0.042333 0.04233-0.042329v-0.042333l0.04233-0.042333v-0.16933h0.04233v-0.084667l-0.042327-0.042333v-0.16933h-0.04233v-0.084667h-0.04233v-0.042333l-0.12699-0.127-0.08467-0.042333-0.04233-0.042333h-0.04233l-0.04233-0.042333h-0.127l-0.04233-0.042333h-0.08467"/>
  <path d="m9.3768 4.4662h-0.084667l-0.042333 0.042333h-0.127l-0.042333 0.042334h-0.042333l-0.042333 0.042333-0.084667 0.042333-0.127 0.127v0.042333h-0.042333v0.084667l-0.042333 0.042333v0.16933l-0.042333 0.042333 0.042333 0.042333v0.16933l0.042333 0.042333v0.042333l0.042333 0.042333 0.042333 0.084667 0.084666 0.084666h0.084667v0.042333h0.042333l0.042333 0.042333h0.084667l0.042333 0.042333h0.33867v-0.042333h0.127v-0.042329h0.042333l0.042333-0.042333h0.042333l0.084666-0.084666 0.042333-0.084667 0.042335-0.042334v-0.042333l0.042333-0.042333v-0.084667l0.04233-0.042333v-0.21167h-0.04233v-0.084667l-0.042333-0.042333v-0.084667h-0.042333v-0.042333l-0.16933-0.16933h-0.042333l-0.042333-0.042333h-0.042333l-0.042333-0.042333h-0.127l-0.042333-0.042333h-0.042333"/>
  <path d="m5.1858 5.8632h-0.084667l-0.042333 0.042333h-0.127l-0.042333 0.042333h-0.042333l-0.042333 0.042333-0.084667 0.042333-0.127 0.127v0.042333h-0.042333v0.084667h-0.042335v0.46567l0.042333 0.042333v0.042333l0.084666 0.084666 0.042333 0.084667 0.042333 0.042333h0.084667v0.042333h0.042333l0.042333 0.042333h0.084667l0.042333 0.042333h0.33867v-0.042333h0.127v-0.042329h0.042333l0.042333-0.042333h0.042333l0.042333-0.042333 0.042333-0.084667 0.084666-0.084666v-0.042333l0.042333-0.042333v-0.084667l0.042333-0.042333v-0.21167h-0.042329v-0.127h-0.042333v-0.084667h-0.042333v-0.042333l-0.16933-0.16933h-0.042333l-0.042333-0.042333h-0.042333l-0.042333-0.042333h-0.127l-0.042333-0.042333h-0.042333"/>
  <path d="m6.5405 4.4662h-0.084667l-0.042333 0.042333h-0.127v0.042333h-0.084667l-0.084666 0.084666-0.084667 0.042333-0.084666 0.084666v0.042333l-0.042333 0.042333v0.084667h-0.042333v0.381l0.042333 0.042333v0.042333l0.042333 0.042333v0.042333l0.042333 0.084667 0.042333 0.042333 0.084667 0.042333h0.042333v0.042333h0.042333l0.042333 0.042333h0.084666l0.042333 0.042333h0.33867l0.042333-0.042333h0.084667v-0.042328h0.042333l0.042333-0.042333h0.042333l0.084666-0.084666 0.042333-0.084667h0.042333v-0.084667h0.042338v-0.084667l0.042333-0.042333v-0.254l-0.042333-0.042334v-0.084667l-0.042333-0.042333v-0.042333l-0.21166-0.21166h-0.042333l-0.042333-0.042333h-0.042333l-0.042333-0.042333h-0.127l-0.042334-0.042334h-0.042333"/>
  <path d="m7.9798 25.718h-0.16933l-0.042333 0.04233h-0.084667v0.04233h-0.084667l-0.127 0.12699-0.042333 0.08467-0.042333 0.04233v0.04233l-0.042333 0.04233v0.08467l-0.042333 0.04233v0.16933l0.042333 0.04233v0.08467l0.042333 0.04233v0.04233l0.042333 0.04233v0.04233l0.16933 0.16932h0.042333l0.042333 0.04233h0.042333l0.042333 0.04233h0.21167v0.04233l0.042333-0.04233h0.21167l0.042333-0.04233h0.042333l0.042333-0.04233 0.084667-0.04233 0.127-0.12699v-0.04233l0.042333-0.04233v-0.08467h0.042333v-0.381l-0.042333-0.04233v-0.08467l-0.042333-0.04233-0.042333-0.08467-0.084666-0.08466-0.084667-0.04233h-0.04233l-0.042333-0.04233h-0.042334l-0.042333-0.04231h-0.21167"/>
  <path d="m3.7042 29.782h-0.042333l-0.042333 0.04233h-0.16933v0.04233h-0.084667v0.04233h-0.042333l-0.21166 0.21165v0.04233l-0.042333 0.04233v0.04233l-0.042333 0.04233v0.33867h0.042333v0.08467h0.042333v0.08467h0.042333l0.042333 0.08467 0.127 0.12699h0.042333l0.042333 0.04233h0.084666l0.042333 0.04233h0.33867l0.042333-0.04233h0.084666l0.042333-0.04233h0.042333l0.127-0.12699 0.042333-0.08467h0.042333v-0.04233l0.042333-0.04233v-0.08467h0.042333v-0.33867l-0.042333-0.04233v-0.08467l-0.254-0.25398h-0.042333v-0.04233h-0.084667v-0.04233h-0.16933l-0.042333-0.04233h-0.042333"/>
  <path d="m10.689 28.512h-0.16933l-0.04233 0.04233h-0.04233l-0.04233 0.04233h-0.08467l-0.16932 0.16932v0.04233l-0.04233 0.04233v0.04233l-0.04233 0.04233v0.127h-0.04233v0.16933h0.04233v0.127l0.04233 0.04233v0.04233l0.04233 0.04233v0.04233l0.16932 0.16932h0.04233l0.04233 0.04233h0.04233l0.04233 0.04233h0.46566l0.04233-0.04233h0.04233l0.04233-0.04233 0.08467-0.04233 0.12699-0.12699v-0.04233l0.04233-0.04233v-0.04233l0.04233-0.04233v-0.127l0.04233-0.04233v-0.08467l-0.04233-0.04233v-0.127l-0.04233-0.04233v-0.04233l-0.04233-0.04233v-0.04233l-0.12699-0.12699-0.08467-0.04233h-0.04233l-0.04233-0.04233h-0.04233l-0.04233-0.04233h-0.21166"/>
  <path d="m12.171 29.782h-0.04233l-0.04233 0.04233h-0.127l-0.04233 0.04233h-0.08467v0.04233h-0.04233l-0.21165 0.21165v0.04233l-0.04233 0.04233v0.04233l-0.04233 0.04233v0.33867h0.04233v0.08467h0.04233v0.08467h0.04233l0.04233 0.08467 0.12699 0.12699h0.04233l0.04233 0.04233h0.08467l0.04233 0.04233h0.33867l0.04233-0.04233h0.08466l0.04233-0.04233h0.04233l0.12699-0.12699 0.04233-0.08467h0.04233v-0.04233l0.04233-0.04233v-0.08467h0.04233v-0.33867l-0.04233-0.04233v-0.08467l-0.25398-0.25398h-0.04233v-0.04233h-0.08467v-0.04233h-0.16933l-0.04233-0.04233h-0.04233"/>
  <path d="m9.3768 27.115h-0.21167l-0.042333 0.04233h-0.042334l-0.042333 0.04233h-0.042333l-0.084667 0.04233-0.127 0.12699v0.04233l-0.042333 0.04233v0.04233l-0.042333 0.04233v0.16933l-0.042333 0.04233 0.042333 0.04233v0.16933l0.042333 0.04233v0.04233l0.042333 0.04233v0.04233l0.127 0.12699 0.084667 0.04233 0.042333 0.04233h0.042333l0.042333 0.04233h0.46567l0.042333-0.04233h0.042333l0.042333-0.04233h0.042333l0.16933-0.16932v-0.04233l0.042333-0.04233v-0.04233l0.042333-0.04233v-0.08467l0.04233-0.04233v-0.16933l-0.04233-0.04233v-0.08467l-0.042333-0.04233v-0.04233l-0.042333-0.04233v-0.04233l-0.16933-0.16932h-0.084667v-0.04233h-0.084665l-0.042333-0.04233h-0.16933"/>
  <path d="m5.1858 28.512h-0.21167l-0.042333 0.04233h-0.042333l-0.042333 0.04233h-0.042333l-0.084667 0.04233-0.127 0.12699v0.04233l-0.042333 0.04233v0.04233l-0.042333 0.04233v0.42333l0.042333 0.04233v0.04233l0.042333 0.04233v0.04233l0.127 0.12699 0.084667 0.04233 0.042333 0.04233h0.042333l0.042333 0.04233h0.46567l0.042333-0.04233h0.042333l0.042333-0.04233h0.042333l0.16933-0.16932v-0.04233l0.042333-0.04233v-0.04233l0.042333-0.04233v-0.08467l0.042333-0.04233v-0.16933l-0.042333-0.04233v-0.08467l-0.042333-0.04233v-0.04233l-0.042333-0.04233v-0.04233l-0.16933-0.16932h-0.084667v-0.04233h-0.084667l-0.042333-0.04233h-0.16933"/>
  <path d="m6.5405 27.115h-0.21167l-0.042333 0.04233h-0.042333l-0.042333 0.04233h-0.042334l-0.042333 0.04233-0.084667 0.04233-0.084666 0.08466v0.08467h-0.042334v0.08467l-0.042333 0.04233v0.381h0.042333v0.08467h0.042333v0.08467l0.084666 0.08466 0.084667 0.04233 0.084666 0.08466h0.084667v0.04233h0.46567l0.042333-0.04233h0.042333l0.042333-0.04233h0.042333l0.21166-0.21165v-0.04233l0.042333-0.04233v-0.08467l0.042333-0.04233v-0.254l-0.042333-0.04233v-0.08467l-0.042333-0.04233v-0.04233l-0.21166-0.21165h-0.084667v-0.04233h-0.084667v-0.04233h-0.21166"/>
  <path d="m12.171 7.1755h-0.127l-0.04233 0.042333h-0.08466l-0.04233 0.042333h-0.04233l-0.21165 0.21166h-0.04233v0.084667h-0.04237v0.084667l-0.04233 0.042333v0.29634l0.04233 0.042333v0.042333l0.04233 0.042333v0.042333l0.25398 0.254h0.04233l0.04233 0.042333h0.127l0.04233 0.042333h0.16933l0.04233-0.042333h0.127l0.04233-0.042333h0.04233l0.29631-0.29633v-0.084666l0.04239-0.042333v-0.29633l-0.04233-0.042333v-0.084667l-0.04233-0.042333v-0.042333h-0.04233l-0.21165-0.21166h-0.04233l-0.04233-0.042333h-0.08467l-0.04233-0.042333h-0.127"/>
  <path d="m3.7042 7.1755h-0.127l-0.042333 0.042333h-0.084667l-0.042333 0.042333h-0.042334l-0.21166 0.21166h-0.042335v0.084667h-0.042333v0.084667l-0.042333 0.042333v0.29634l0.042333 0.042333v0.042333l0.042333 0.042333v0.042333l0.254 0.254h0.042333l0.042333 0.042333h0.127l0.042333 0.042333h0.16933l0.042333-0.042333h0.127l0.042333-0.042333h0.042333l0.254-0.254 0.042339-0.042332v-0.084667l0.042333-0.042333v-0.29633l-0.042333-0.042333v-0.084667l-0.042333-0.042333v-0.042333h-0.042333l-0.21166-0.21166h-0.042333l-0.042333-0.042333h-0.084667l-0.042333-0.042333h-0.127"/>
  <path d="m3.7042 9.1228h-0.21167l-0.042333 0.042333h-0.042333l-0.042333 0.042333h-0.042333l-0.21166 0.21166v0.042333l-0.042333 0.042333v0.042333l-0.042333 0.042333v0.33867l0.042333 0.042333v0.042333l0.042333 0.04233v0.04233l0.21166 0.21165h0.042333v0.04233h0.084667l0.042333 0.04233h0.42333l0.042333-0.04233h0.084667v-0.04233h0.042333l0.21166-0.21165v-0.04233h0.042333v-0.084667l0.042333-0.042333v-0.33866l-0.042333-0.042333v-0.084667h-0.042333v-0.042333l-0.21166-0.21166h-0.042333l-0.042334-0.042335h-0.042333l-0.042333-0.042333h-0.21167"/>
  <path d="m3.7042 10.943h-0.16933l-0.042333 0.04233h-0.084666l-0.254 0.25398h-0.042336v0.08467h-0.042333v0.08467h-0.042333v0.33867l0.042333 0.04233v0.04233l0.042333 0.04233v0.04233l0.21166 0.21165h0.042333v0.04233h0.084667v0.04233h0.127l0.042333 0.04233h0.16933l0.042333-0.04233h0.127v-0.04233h0.084667v-0.04233h0.042333l0.254-0.25398v-0.08467l0.042333-0.04233v-0.33866h-0.042333v-0.08467l-0.042333-0.04233v-0.04233h-0.042333l-0.21166-0.21165-0.042331-0.04234h-0.084666l-0.042333-0.04233h-0.16933"/>
  <path d="m3.7042 12.891h-0.16933l-0.042333 0.04233h-0.084666l-0.084666 0.08466h-0.042333l-0.084666 0.08466-0.042333 0.08467h-0.042336v0.08467h-0.042333v0.08467h-0.042333v0.33867l0.042333 0.04233v0.04233l0.042333 0.04233v0.04233l0.21166 0.21165h0.042333v0.04233h0.084667v0.04233h0.16934v0.04233h0.16933v-0.04233h0.16933v-0.04233h0.084667v-0.04233h0.042333l0.254-0.25398v-0.08467l0.042333-0.04233v-0.33867h-0.042333v-0.08467l-0.042333-0.04233v-0.04233h-0.042333l-0.042333-0.08467-0.084666-0.08466h-0.042333l-0.084666-0.08466h-0.084666l-0.042333-0.04233h-0.16933"/>
  <path d="m3.7042 14.796h-0.042333l-0.042333 0.04233h-0.16933v0.04233h-0.084667v0.04233h-0.042333l-0.21166 0.21165v0.04233l-0.042333 0.04233v0.04233l-0.042333 0.04233v0.33867h0.042333v0.08467h0.042333v0.08467h0.042333l0.042333 0.08467 0.127 0.12699h0.042333l0.042333 0.04233h0.084666l0.042333 0.04233h0.33867l0.042333-0.04233h0.084666l0.042333-0.04233h0.042333l0.127-0.12699 0.042333-0.08467h0.042333v-0.04233l0.042333-0.04233v-0.08467h0.042333v-0.33867l-0.042333-0.04233v-0.08467h-0.042333v-0.04233l-0.21166-0.21165h-0.042333v-0.04233h-0.084667v-0.04233h-0.16933l-0.042333-0.04233h-0.042333"/>
  <path d="m3.7042 16.658h-0.21167l-0.042333 0.04233h-0.042333l-0.042333 0.04233h-0.042333l-0.127 0.12699-0.042333 0.08467h-0.042336v0.04233l-0.042333 0.04233v0.08467h-0.042333v0.33867l0.042333 0.04233v0.04233l0.042333 0.04233v0.04233l0.21166 0.21165h0.042333v0.04233h0.084667v0.04233h0.21167l0.042333 0.04233 0.042333-0.04233h0.21167v-0.04233h0.084667v-0.04233h0.042333l0.21166-0.21165v-0.04233h0.042333v-0.08467l0.042333-0.04233v-0.33867h-0.042333v-0.127h-0.042333v-0.04233h-0.042333l-0.042333-0.08467-0.127-0.12699h-0.042333l-0.042333-0.04233h-0.042333l-0.042333-0.04233h-0.21167"/>
  <path d="m3.7042 7.1755h-0.127l-0.042333 0.042333h-0.084667l-0.042333 0.042333h-0.042334l-0.21166 0.21166h-0.042335v0.084667h-0.042333v0.084667l-0.042333 0.042333v0.29634l0.042333 0.042333v0.042333l0.042333 0.042333v0.042333l0.254 0.254h0.042333l0.042333 0.042333h0.127l0.042333 0.042333h0.16933l0.042333-0.042333h0.127l0.042333-0.042333h0.042333l0.254-0.254 0.042339-0.042332v-0.084667l0.042333-0.042333v-0.29633l-0.042333-0.042333v-0.084667l-0.042333-0.042333v-0.042333h-0.042333l-0.21166-0.21166h-0.042333l-0.042333-0.042333h-0.084667l-0.042333-0.042333h-0.127"/>
  <path d="m3.7042 9.1228h-0.21167l-0.042333 0.042333h-0.042333l-0.042333 0.042333h-0.042333l-0.21166 0.21166v0.042333l-0.042333 0.042333v0.042333l-0.042333 0.042333v0.33867l0.042333 0.042333v0.042333l0.042333 0.04233v0.04233l0.21166 0.21165h0.042333v0.04233h0.084667l0.042333 0.04233h0.42333l0.042333-0.04233h0.084667v-0.04233h0.042333l0.21166-0.21165v-0.04233h0.042333v-0.084667l0.042333-0.042333v-0.33866l-0.042333-0.042333v-0.084667h-0.042333v-0.042333l-0.21166-0.21166h-0.042333l-0.042334-0.042335h-0.042333l-0.042333-0.042333h-0.21167"/>
  <path d="m3.7042 10.943h-0.16933l-0.042333 0.04233h-0.084666l-0.254 0.25398h-0.042336v0.08467h-0.042333v0.08467h-0.042333v0.33867l0.042333 0.04233v0.04233l0.042333 0.04233v0.04233l0.21166 0.21165h0.042333v0.04233h0.084667v0.04233h0.127l0.042333 0.04233h0.16933l0.042333-0.04233h0.127v-0.04233h0.084667v-0.04233h0.042333l0.254-0.25398v-0.08467l0.042333-0.04233v-0.33866h-0.042333v-0.08467l-0.042333-0.04233v-0.04233h-0.042333l-0.21166-0.21165-0.042331-0.04234h-0.084666l-0.042333-0.04233h-0.16933"/>
  <path d="m3.7042 12.891h-0.16933l-0.042333 0.04233h-0.084666l-0.084666 0.08466h-0.042333l-0.084666 0.08466-0.042333 0.08467h-0.042336v0.08467h-0.042333v0.08467h-0.042333v0.33867l0.042333 0.04233v0.04233l0.042333 0.04233v0.04233l0.21166 0.21165h0.042333v0.04233h0.084667v0.04233h0.16934v0.04233h0.16933v-0.04233h0.16933v-0.04233h0.084667v-0.04233h0.042333l0.254-0.25398v-0.08467l0.042333-0.04233v-0.33867h-0.042333v-0.08467l-0.042333-0.04233v-0.04233h-0.042333l-0.042333-0.08467-0.084666-0.08466h-0.042333l-0.084666-0.08466h-0.084666l-0.042333-0.04233h-0.16933"/>
  <path d="m3.7042 14.796h-0.042333l-0.042333 0.04233h-0.16933v0.04233h-0.084667v0.04233h-0.042333l-0.21166 0.21165v0.04233l-0.042333 0.04233v0.04233l-0.042333 0.04233v0.33867h0.042333v0.08467h0.042333v0.08467h0.042333l0.042333 0.08467 0.127 0.12699h0.042333l0.042333 0.04233h0.084666l0.042333 0.04233h0.33867l0.042333-0.04233h0.084666l0.042333-0.04233h0.042333l0.127-0.12699 0.042333-0.08467h0.042333v-0.04233l0.042333-0.04233v-0.08467h0.042333v-0.33867l-0.042333-0.04233v-0.08467h-0.042333v-0.04233l-0.21166-0.21165h-0.042333v-0.04233h-0.084667v-0.04233h-0.16933l-0.042333-0.04233h-0.042333"/>
  <path d="m3.7042 16.658h-0.21167l-0.042333 0.04233h-0.042333l-0.042333 0.04233h-0.042333l-0.127 0.12699-0.042333 0.08467h-0.042336v0.04233l-0.042333 0.04233v0.08467h-0.042333v0.33867l0.042333 0.04233v0.04233l0.042333 0.04233v0.04233l0.21166 0.21165h0.042333v0.04233h0.084667v0.04233h0.21167l0.042333 0.04233 0.042333-0.04233h0.21167v-0.04233h0.084667v-0.04233h0.042333l0.21166-0.21165v-0.04233h0.042333v-0.08467l0.042333-0.04233v-0.33867h-0.042333v-0.127h-0.042333v-0.04233h-0.042333l-0.042333-0.08467-0.127-0.12699h-0.042333l-0.042333-0.04233h-0.042333l-0.042333-0.04233h-0.21167"/>
  <path d="m12.171 9.1228h-0.21167v0.042333h-0.08467l-0.04233 0.042333h-0.04233l-0.21165 0.21166v0.042333l-0.04233 0.042333v0.042333l-0.04233 0.042333v0.33867l0.04233 0.042333v0.042333l0.04233 0.04233v0.04233l0.21165 0.21165h0.04233v0.04233h0.127v0.04233h0.42333l0.04233-0.04233h0.08467v-0.04233h0.04233l0.21165-0.21165v-0.04233h0.04233v-0.084667l0.04233-0.042333v-0.33866l-0.04233-0.042333v-0.084667h-0.04233v-0.042333l-0.21165-0.21166h-0.04233l-0.04233-0.042333h-0.04233l-0.04233-0.042333h-0.21167"/>
  <path d="m12.171 10.943h-0.16934l-0.04233 0.04233h-0.08467l-0.25398 0.25398h-0.04233v0.08467h-0.04235v0.08467h-0.04233v0.33867l0.04233 0.04233v0.04233l0.04233 0.04233v0.04233l0.21165 0.21165h0.04233v0.04233h0.08467l0.04233 0.04233h0.08467l0.04233 0.04233h0.16933l0.04233-0.04233h0.127v-0.04233h0.08467v-0.04233h0.04233l0.25398-0.25398v-0.08467l0.04233-0.04233v-0.33866h-0.04233v-0.08467l-0.04233-0.04233v-0.04233h-0.04233l-0.25398-0.25398h-0.08466l-0.04233-0.04233h-0.16934"/>
  <path d="m12.171 12.891h-0.16934l-0.04233 0.04233h-0.08467l-0.08466 0.08466h-0.04233l-0.08466 0.08466-0.04233 0.08467h-0.04233v0.08467h-0.04235v0.08467h-0.04233v0.33867l0.04233 0.04233v0.04233l0.04233 0.04233v0.04233l0.21165 0.21165h0.04233v0.04233h0.08467l0.04233 0.04233h0.127v0.04233h0.16933v-0.04233h0.16933v-0.04233h0.08467v-0.04233h0.04233l0.25398-0.25398v-0.08467l0.04233-0.04233v-0.33867h-0.04233v-0.08467l-0.04233-0.04233v-0.04233h-0.04233l-0.04233-0.08467-0.08466-0.08466h-0.04233l-0.08466-0.08466h-0.08466l-0.04233-0.04233h-0.16934"/>
  <path d="m12.171 14.796h-0.04233l-0.04233 0.04233h-0.127l-0.04233 0.04233h-0.08467v0.04233h-0.04233l-0.21165 0.21165v0.04233l-0.04233 0.04233v0.04233l-0.04233 0.04233v0.33867h0.04233v0.08467h0.04233v0.08467h0.04233l0.04233 0.08467 0.12699 0.12699h0.04233l0.04233 0.04233h0.08467l0.04233 0.04233h0.33867l0.04233-0.04233h0.08466l0.04233-0.04233h0.04233l0.12699-0.12699 0.04233-0.08467h0.04233v-0.04233l0.04233-0.04233v-0.08467h0.04233v-0.33867l-0.04233-0.04233v-0.08467h-0.04233v-0.04233l-0.21165-0.21165h-0.04233v-0.04233h-0.08467v-0.04233h-0.16933l-0.04233-0.04233h-0.04233"/>
  <path d="m12.171 16.658h-0.21167v0.04233h-0.08467l-0.04233 0.04233h-0.04233l-0.12699 0.12699-0.04233 0.08467h-0.04233v0.04233l-0.04233 0.04233v0.08467h-0.04233v0.33867l0.04233 0.04233v0.04233l0.04233 0.04233v0.04233l0.21165 0.21165h0.04233v0.04233h0.08467l0.04233 0.04233h0.16933l0.04233 0.04233 0.04233-0.04233h0.21166v-0.04233h0.08467v-0.04233h0.04233l0.21165-0.21165v-0.04233h0.04233v-0.08467l0.04233-0.04233v-0.33867h-0.04233v-0.127h-0.04233v-0.04233h-0.04233l-0.04233-0.08467-0.12699-0.12699h-0.04233l-0.04233-0.04233h-0.04233l-0.04233-0.04233h-0.21167"/>
  <path d="m12.171 18.479h-0.04233l-0.04233 0.04233h-0.127l-0.04233 0.04233h-0.08467v0.04233h-0.04233l-0.21165 0.21165v0.04233l-0.04233 0.04233v0.04233l-0.04233 0.04233v0.33867h0.04233v0.08467h0.04233v0.08467h0.04233l0.04233 0.08467 0.12699 0.12699h0.04233l0.04233 0.04233h0.08467l0.04233 0.04233h0.33867l0.04233-0.04233h0.08466l0.04233-0.04233h0.04233l0.12699-0.12699 0.04233-0.08467h0.04233v-0.04233l0.04233-0.04233v-0.08467h0.04233v-0.33867l-0.04233-0.04233v-0.08467l-0.25398-0.25398h-0.04233v-0.04233h-0.08467v-0.04233h-0.16933l-0.04233-0.04233h-0.04233"/>
  <path d="m3.7042 18.479h-0.042333l-0.042333 0.04233h-0.16933v0.04233h-0.084667v0.04233h-0.042333l-0.21166 0.21165v0.04233l-0.042333 0.04233v0.04233l-0.042333 0.04233v0.33867h0.042333v0.08467h0.042333v0.08467h0.042333l0.042333 0.08467 0.127 0.12699h0.042333l0.042333 0.04233h0.084666l0.042333 0.04233h0.33867l0.042333-0.04233h0.084666l0.042333-0.04233h0.042333l0.127-0.12699 0.042333-0.08467h0.042333v-0.04233l0.042333-0.04233v-0.08467h0.042333v-0.33867l-0.042333-0.04233v-0.08467l-0.254-0.25398h-0.042333v-0.04233h-0.084667v-0.04233h-0.16933l-0.042333-0.04233h-0.042333"/>
  <path d="m3.7042 20.426h-0.16933l-0.042333 0.04233h-0.084666l-0.084666 0.08466h-0.042333l-0.042333 0.04233-0.042333 0.08467-0.042333 0.04233h-0.042336v0.08467h-0.042333v0.08467l-0.042333 0.04233v0.29633l0.042333 0.04233v0.04233l0.042333 0.04233v0.04233l0.21166 0.21165h0.042333v0.04233h0.084667v0.04233h0.127l0.042333 0.04233h0.16933l0.042333-0.04233h0.127v-0.04233h0.084667v-0.04233h0.042333l0.254-0.25398v-0.08467l0.042333-0.04233v-0.29633l-0.042333-0.04233v-0.08467l-0.042333-0.04233v-0.04233h-0.042333l-0.042333-0.04233-0.042333-0.08467-0.042333-0.04233h-0.042333l-0.084666-0.08466h-0.084666l-0.042333-0.04233h-0.16933"/>
  <path d="m3.7042 22.246h-0.084667l-0.042333 0.04233h-0.127l-0.042333 0.04233h-0.042334v0.04233h-0.042333l-0.21166 0.21165v0.04233l-0.042333 0.04233v0.04233l-0.042333 0.04233v0.33867h0.042333v0.08467h0.042333v0.08467h0.042333l0.042333 0.04233 0.042333 0.08467h0.042333l0.084666 0.08466h0.042333l0.042333 0.04233h0.042333l0.042333 0.04233h0.33867l0.042333-0.04233h0.042333l0.042333-0.04233h0.042333l0.084666-0.08466h0.042333l0.042333-0.08467 0.042333-0.04233h0.042333v-0.04233l0.042333-0.04233v-0.08467h0.042333v-0.33867l-0.042333-0.04233v-0.08467l-0.254-0.25398h-0.042333v-0.04233h-0.042331l-0.042333-0.04233h-0.127l-0.042333-0.04233h-0.084667"/>
  <path d="m3.7042 24.194h-0.084667l-0.042333 0.04233h-0.127l-0.042333 0.04233h-0.042334l-0.254 0.25398v0.04233l-0.042333 0.04233v0.04233l-0.042333 0.04233v0.29633l0.042333 0.04233v0.08467h0.042333v0.04233l0.254 0.25398h0.042333l0.042333 0.04233h0.084667l0.042333 0.04233h0.254l0.042333-0.04233h0.084667l0.042333-0.04233h0.042333l0.29633-0.29631v-0.08467l0.042333-0.04233v-0.29633l-0.042333-0.04233v-0.08467l-0.29633-0.29631h-0.042331l-0.042333-0.04233h-0.127l-0.042333-0.04233h-0.084667"/>
  <path d="m3.7042 26.141h-0.21167l-0.042333 0.04233h-0.042333l-0.042333 0.04233h-0.042333l-0.127 0.12699-0.042333 0.08467h-0.042336v0.08467h-0.042333v0.08467h-0.042333v0.33867l0.042333 0.04233v0.04233l0.042333 0.04233v0.04233l0.21166 0.21165h0.042333v0.04233h0.084667v0.04233h0.508v-0.04233h0.084667v-0.04233h0.042333l0.21166-0.21165v-0.04233h0.042333v-0.08467l0.042333-0.04233v-0.33867h-0.042333v-0.08467l-0.042333-0.04233v-0.04233h-0.042333l-0.042333-0.08467-0.127-0.12699h-0.042333l-0.042333-0.04233h-0.042333l-0.042333-0.04233h-0.21167"/>
  <path d="m3.7042 27.961h-0.127l-0.042333 0.04233h-0.084667l-0.042333 0.04233h-0.042334l-0.254 0.25398v0.04233h-0.042333v0.08467l-0.042333 0.04233v0.29633l0.042333 0.04233v0.04233l0.042333 0.04233v0.04233l0.254 0.25398h0.042333l0.042333 0.04233h0.084667l0.042333 0.04233h0.254l0.042333-0.04233h0.084667l0.042333-0.04233h0.042333l0.29633-0.29631v-0.08467l0.042333-0.04233v-0.29633l-0.042333-0.04233v-0.08467l-0.29633-0.29631h-0.042331l-0.042333-0.04233h-0.084667l-0.042333-0.04233h-0.127"/>
  <path d="m3.7042 18.479h-0.042333l-0.042333 0.04233h-0.16933v0.04233h-0.084667v0.04233h-0.042333l-0.21166 0.21165v0.04233l-0.042333 0.04233v0.04233l-0.042333 0.04233v0.33867h0.042333v0.08467h0.042333v0.08467h0.042333l0.042333 0.08467 0.127 0.12699h0.042333l0.042333 0.04233h0.084666l0.042333 0.04233h0.33867l0.042333-0.04233h0.084666l0.042333-0.04233h0.042333l0.127-0.12699 0.042333-0.08467h0.042333v-0.04233l0.042333-0.04233v-0.08467h0.042333v-0.33867l-0.042333-0.04233v-0.08467l-0.254-0.25398h-0.042333v-0.04233h-0.084667v-0.04233h-0.16933l-0.042333-0.04233h-0.042333"/>
  <path d="m3.7042 20.426h-0.16933l-0.042333 0.04233h-0.084666l-0.084666 0.08466h-0.042333l-0.042333 0.04233-0.042333 0.08467-0.042333 0.04233h-0.042336v0.08467h-0.042333v0.08467l-0.042333 0.04233v0.29633l0.042333 0.04233v0.04233l0.042333 0.04233v0.04233l0.21166 0.21165h0.042333v0.04233h0.084667v0.04233h0.127l0.042333 0.04233h0.16933l0.042333-0.04233h0.127v-0.04233h0.084667v-0.04233h0.042333l0.254-0.25398v-0.08467l0.042333-0.04233v-0.29633l-0.042333-0.04233v-0.08467l-0.042333-0.04233v-0.04233h-0.042333l-0.042333-0.04233-0.042333-0.08467-0.042333-0.04233h-0.042333l-0.084666-0.08466h-0.084666l-0.042333-0.04233h-0.16933"/>
  <path d="m3.7042 22.246h-0.084667l-0.042333 0.04233h-0.127l-0.042333 0.04233h-0.042334v0.04233h-0.042333l-0.21166 0.21165v0.04233l-0.042333 0.04233v0.04233l-0.042333 0.04233v0.33867h0.042333v0.08467h0.042333v0.08467h0.042333l0.042333 0.04233 0.042333 0.08467h0.042333l0.084666 0.08466h0.042333l0.042333 0.04233h0.042333l0.042333 0.04233h0.33867l0.042333-0.04233h0.042333l0.042333-0.04233h0.042333l0.084666-0.08466h0.042333l0.042333-0.08467 0.042333-0.04233h0.042333v-0.04233l0.042333-0.04233v-0.08467h0.042333v-0.33867l-0.042333-0.04233v-0.08467l-0.254-0.25398h-0.042333v-0.04233h-0.042331l-0.042333-0.04233h-0.127l-0.042333-0.04233h-0.084667"/>
  <path d="m3.7042 24.194h-0.084667l-0.042333 0.04233h-0.127l-0.042333 0.04233h-0.042334l-0.254 0.25398v0.04233l-0.042333 0.04233v0.04233l-0.042333 0.04233v0.29633l0.042333 0.04233v0.08467h0.042333v0.04233l0.254 0.25398h0.042333l0.042333 0.04233h0.084667l0.042333 0.04233h0.254l0.042333-0.04233h0.084667l0.042333-0.04233h0.042333l0.29633-0.29631v-0.08467l0.042333-0.04233v-0.29633l-0.042333-0.04233v-0.08467l-0.29633-0.29631h-0.042331l-0.042333-0.04233h-0.127l-0.042333-0.04233h-0.084667"/>
  <path d="m3.7042 26.141h-0.21167l-0.042333 0.04233h-0.042333l-0.042333 0.04233h-0.042333l-0.127 0.12699-0.042333 0.08467h-0.042336v0.08467h-0.042333v0.08467h-0.042333v0.33867l0.042333 0.04233v0.04233l0.042333 0.04233v0.04233l0.21166 0.21165h0.042333v0.04233h0.084667v0.04233h0.508v-0.04233h0.084667v-0.04233h0.042333l0.21166-0.21165v-0.04233h0.042333v-0.08467l0.042333-0.04233v-0.33867h-0.042333v-0.08467l-0.042333-0.04233v-0.04233h-0.042333l-0.042333-0.08467-0.127-0.12699h-0.042333l-0.042333-0.04233h-0.042333l-0.042333-0.04233h-0.21167"/>
  <path d="m3.7042 27.961h-0.127l-0.042333 0.04233h-0.084667l-0.042333 0.04233h-0.042334l-0.254 0.25398v0.04233h-0.042333v0.08467l-0.042333 0.04233v0.29633l0.042333 0.04233v0.04233l0.042333 0.04233v0.04233l0.254 0.25398h0.042333l0.042333 0.04233h0.084667l0.042333 0.04233h0.254l0.042333-0.04233h0.084667l0.042333-0.04233h0.042333l0.29633-0.29631v-0.08467l0.042333-0.04233v-0.29633l-0.042333-0.04233v-0.08467l-0.29633-0.29631h-0.042331l-0.042333-0.04233h-0.084667l-0.042333-0.04233h-0.127"/>
  <path d="m12.171 20.426h-0.16934l-0.04233 0.04233h-0.08467l-0.08466 0.08466h-0.04233l-0.04233 0.04233-0.04233 0.08467-0.04233 0.04233h-0.04233v0.08467h-0.04235v0.08467l-0.04233 0.04233v0.29633l0.04233 0.04233v0.04233l0.04233 0.04233v0.04233l0.21165 0.21165h0.04233v0.04233h0.08467l0.04233 0.04233h0.08467l0.04233 0.04233h0.16933l0.04233-0.04233h0.127v-0.04233h0.08467v-0.04233h0.04233l0.25398-0.25398v-0.08467l0.04233-0.04233v-0.29633l-0.04233-0.04233v-0.08467l-0.04233-0.04233v-0.04233h-0.04233l-0.04233-0.04233-0.04233-0.08467-0.04233-0.04233h-0.04233l-0.08466-0.08466h-0.08466l-0.04233-0.04233h-0.16934"/>
  <path d="m12.171 22.246h-0.08467l-0.04233 0.04233h-0.127l-0.04233 0.04233h-0.04233v0.04233h-0.04233l-0.21165 0.21165v0.04233l-0.04233 0.04233v0.04233l-0.04233 0.04233v0.33867h0.04233v0.08467h0.04233v0.08467h0.04233l0.04233 0.04233 0.04233 0.08467h0.04233l0.08466 0.08466h0.04233l0.04233 0.04233h0.04233l0.04233 0.04233h0.33867l0.04233-0.04233h0.04233l0.04233-0.04233h0.04233l0.08466-0.08466h0.04233l0.04233-0.08467 0.04233-0.04233h0.04233v-0.04233l0.04233-0.04233v-0.08467h0.04233v-0.33867l-0.04233-0.04233v-0.08467l-0.25398-0.25398h-0.04233v-0.04233h-0.04233l-0.04233-0.04233h-0.127l-0.04233-0.04233h-0.08467"/>
  <path d="m12.171 24.194h-0.08467l-0.04233 0.04233h-0.127l-0.04233 0.04233h-0.04233l-0.25398 0.25398v0.04233l-0.04233 0.04233v0.04233l-0.04233 0.04233v0.29633l0.04233 0.04233v0.08467h0.04233v0.04233l0.25398 0.25398h0.04233l0.04233 0.04233h0.08466l0.04233 0.04233h0.25399l0.04233-0.04233h0.08467l0.04233-0.04233h0.04233l0.29631-0.29631v-0.08467l0.04233-0.04233v-0.29633l-0.04233-0.04233v-0.08467l-0.29631-0.29631h-0.04233l-0.04233-0.04233h-0.127l-0.04233-0.04233h-0.08467"/>
  <path d="m12.171 26.141h-0.21167v0.04233h-0.08467l-0.04233 0.04233h-0.04233l-0.12699 0.12699-0.04233 0.08467h-0.04233v0.08467h-0.04235v0.08467h-0.04233v0.33867l0.04233 0.04233v0.04233l0.04233 0.04233v0.04233l0.21165 0.21165h0.04233v0.04233h0.08467l0.04233 0.04233h0.46567v-0.04233h0.08467v-0.04233h0.04233l0.21165-0.21165v-0.04233h0.04233v-0.08467l0.04233-0.04233v-0.33867h-0.04233v-0.08467l-0.04233-0.04233v-0.04233h-0.04233l-0.04233-0.08467-0.12699-0.12699h-0.04233l-0.04233-0.04233h-0.04233l-0.04233-0.04233h-0.21167"/>
  <path d="m12.171 27.961h-0.127l-0.04233 0.04233h-0.08466l-0.04233 0.04233h-0.04233l-0.25398 0.25398v0.04233h-0.04237v0.08467l-0.04233 0.04233v0.29633l0.04233 0.04233v0.04233l0.04233 0.04233v0.04233l0.25398 0.25398h0.04233l0.04233 0.04233h0.08466l0.04233 0.04233h0.25399l0.04233-0.04233h0.08467l0.04233-0.04233h0.04233l0.29631-0.29631v-0.08467l0.04233-0.04233v-0.29633l-0.04233-0.04233v-0.08467l-0.29631-0.29631h-0.04233l-0.04233-0.04233h-0.08467l-0.04233-0.04233h-0.127"/>
 </g>
</svg>
