<?xml version="1.0" encoding="UTF-8"?>
<!-- Created with Inkscape (http://www.inkscape.org/) -->
<svg width="19.074mm" height="26.482mm" version="1.1" viewBox="0 0 19.074 26.482" xmlns="http://www.w3.org/2000/svg">
 <g transform="translate(-6.8788 -182.56)">
  <path d="m6.9119 209.01h19.008v-26.416h-19.008z" fill="#848382" fill-rule="evenodd" stroke="#1f1a17" stroke-linecap="round" stroke-linejoin="round" stroke-miterlimit="10" stroke-width=".06604"/>
  <g fill="#fff" fill-rule="evenodd">
   <g stroke="#1f1a17" stroke-linecap="round" stroke-linejoin="round" stroke-miterlimit="10" stroke-width=".06604">
    <path d="m9.0708 187.08-0.127 0.1269v0.0423l-0.084666 0.0846v0.0423l-0.084666 0.0846v0.0847l-0.042333 0.0423v0.127l-0.042333 0.0423v0.29634l0.042333 0.0423v0.0847l0.042333 0.0847v0.0423l0.042333 0.0423v0.0423l0.042333 0.0423v0.0423l0.21166 0.2115h0.042333l0.084666 0.0846h0.042333l0.084666 0.0846h0.084667l0.042333 0.0423h0.16933l0.042333 0.0423h0.16933l0.084667-0.0423h0.127l0.04233-0.0423h0.04233l0.08467-0.0423h0.04233l0.08466-0.0846h0.04233l0.12699-0.1269v-0.0423l0.12699-0.1269v-0.0423l0.04233-0.0423v-0.0423l0.04233-0.0423v-0.0423l0.04233-0.0423v-0.21167l0.04233-0.0423v-0.0847l-0.04233-0.0423v-0.16934l-0.04233-0.0423v-0.0847l-0.04233-0.0423v-0.0847l-0.08466-0.0846v-0.0423l-0.08466-0.0846h-0.04233l-0.16932-0.1692h-0.04233l-0.04233-0.0423h-0.04233l-0.04233-0.0423h-0.08467l-0.04233-0.0423h-0.508l-0.042333 0.0423h-0.042333l-0.084667 0.0423h-0.042333l-0.042333 0.0423h-0.042333l-0.084666 0.0846h-0.042333"/>
    <path d="m10.722 189.07-0.04233 0.0423v0.0423l-0.12699 0.1269v0.0423l-0.08466 0.0846v0.0423l-0.04233 0.0423v0.0847l-0.04233 0.0423v0.508l0.04233 0.0423v0.0423l0.04233 0.0423v0.0423l0.04233 0.0847v0.0423l0.08466 0.0846v0.0423l0.04233 0.0423h0.04233l0.16932 0.1692h0.04233l0.04233 0.0423h0.04233l0.04233 0.0423h0.127l0.04233 0.0423h0.46567l0.08467-0.0423h0.08467l0.08466-0.0846h0.04233l0.08466-0.0846h0.04233l0.16932-0.1692v-0.0423l0.08466-0.0846v-0.0423l0.04233-0.0423v-0.0423l0.04233-0.0423v-0.0847l0.04233-0.0847v-0.33867l-0.04233-0.0423v-0.127l-0.04233-0.0847v-0.0423l-0.08466-0.0846v-0.0423l-0.16932-0.1692v-0.0423h-0.04233l-0.08466-0.0846h-0.04233l-0.04233-0.0423-0.08467-0.0423h-0.08467l-0.04233-0.0423h-0.127l-0.08467-0.0423h-0.16933l-0.04233 0.0423h-0.16933l-0.04233 0.0423h-0.04233l-0.04233 0.0423h-0.04233l-0.08467 0.0423-0.04233 0.0423h-0.04233l-0.04233 0.0423"/>
    <path d="m12.415 191.06-0.04233 0.0423h-0.04233l-0.08466 0.0846v0.0423l-0.08466 0.0846v0.0423l-0.04233 0.0423v0.0847l-0.04233 0.0423v0.0847l-0.04233 0.0423v0.33866l0.04233 0.0847v0.0847l0.04233 0.0423v0.0847l0.08466 0.0846v0.0423l0.16932 0.1692v0.0423l0.08466 0.0846h0.04233l0.04233 0.0423h0.04233l0.08467 0.0423h0.04233l0.04233 0.0423h0.08467l0.04233 0.0423h0.42333l0.04233-0.0423h0.08467l0.04233-0.0423h0.04233l0.04233-0.0423h0.08467l0.12699-0.1269h0.04233v-0.0423l0.12699-0.1269v-0.0423l0.08466-0.0846v-0.0423l0.04233-0.0423v-0.127l0.04233-0.0423v-0.46567l-0.04233-0.0847v-0.0423l-0.04233-0.0423v-0.0423l-0.04233-0.0423v-0.0423l-0.08466-0.0846v-0.0423l-0.16932-0.1692h-0.04233l-0.08466-0.0846h-0.04233l-0.04233-0.0423h-0.04233l-0.04233-0.0423h-0.127l-0.04233-0.0423h-0.33867l-0.04233 0.0423h-0.127l-0.04233 0.0423h-0.08467l-0.08466 0.0846h-0.04233l-0.08466 0.0846"/>
    <path d="m14.066 193.05h-0.04233l-0.04233 0.0423v0.0423l-0.12699 0.1269v0.0423l-0.04233 0.0423v0.0423l-0.04233 0.0423v0.0423l-0.04233 0.0847v0.16933l-0.04233 0.0423v0.127l0.04233 0.0423v0.127l0.04233 0.0847v0.0847l0.04233 0.0423v0.0423l0.08466 0.0846v0.0423l0.21165 0.2115h0.04233l0.08466 0.0846h0.04233l0.04233 0.0423h0.04233l0.04233 0.0423h0.16933l0.04233 0.0423h0.29633l0.04233-0.0423h0.08467l0.08467-0.0423h0.04233l0.04233-0.0423h0.04233l0.04233-0.0423h0.04233l0.33864-0.3384v-0.0847l0.04233-0.0423v-0.0847l0.04233-0.0423v-0.0847l0.04233-0.0423v-0.254l-0.04233-0.0423v-0.16933l-0.04233-0.0423v-0.0423l-0.04233-0.0423v-0.0423l-0.04233-0.0423v-0.0423l-0.29631-0.2961h-0.04233l-0.08466-0.0846h-0.08467l-0.04233-0.0423h-0.04233l-0.04233-0.0423h-0.46567l-0.04233 0.0423h-0.08467l-0.04233 0.0423h-0.08467l-0.04233 0.0423h-0.04233l-0.12699 0.1269"/>
    <path d="m15.76 195-0.21165 0.2115v0.0423l-0.04233 0.0423v0.0423l-0.04233 0.0423v0.0423l-0.04233 0.0423v0.0423l-0.04233 0.0423v0.46567l0.04233 0.0423v0.0847l0.04233 0.0847v0.0423l0.04233 0.0423v0.0423l0.12699 0.1269v0.0423l0.08466 0.0846h0.04233l0.08466 0.0846h0.04233l0.04233 0.0423h0.04233l0.04233 0.0423h0.08467l0.04233 0.0423h0.16933l0.08467 0.0423h0.08467l0.04233-0.0423h0.21167l0.04233-0.0423h0.04233l0.04233-0.0423h0.04233l0.08466-0.0846h0.04233l0.25398-0.2538v-0.0423l0.04233-0.0423v-0.0423l0.04233-0.0423v-0.0423l0.04233-0.0423v-0.0423l0.04233-0.0423v-0.46566l-0.04233-0.0423v-0.0847l-0.04233-0.0423v-0.0847l-0.04233-0.0423v-0.0423l-0.12699-0.1269v-0.0423l-0.04233-0.0423h-0.04233l-0.12699-0.1269h-0.04233l-0.04233-0.0423h-0.04233l-0.04233-0.0423h-0.08467l-0.04233-0.0423h-0.55033l-0.04233 0.0423h-0.08467l-0.04233 0.0423h-0.04233l-0.08466 0.0846h-0.04233l-0.04233 0.0423"/>
    <path d="m17.411 196.99-0.12699 0.1269v0.0423h-0.04233l-0.04233 0.0847v0.0423l-0.08466 0.0846v0.0847l-0.04233 0.0423v0.0847l-0.04233 0.0423v0.254l0.04233 0.0847v0.127l0.04233 0.0423v0.0423l0.04233 0.0423v0.0423l0.04233 0.0423 0.04233 0.0847v0.0423l0.04233 0.0423h0.04233l0.16932 0.1692h0.04233l0.08466 0.0846h0.04233l0.04233 0.0423h0.08467l0.04233 0.0423h0.508l0.04233-0.0423h0.04233l0.04233-0.0423h0.08467l0.04233-0.0423h0.04233l0.08466-0.0846h0.04233l0.08466-0.0846v-0.0423l0.12699-0.1269v-0.0423l0.04233-0.0423v-0.0423l0.04233-0.0423v-0.0423l0.04233-0.0423v-0.21167l0.04233-0.0423v-0.127l-0.04233-0.0423v-0.16933l-0.04233-0.0847v-0.0423l-0.04233-0.0423v-0.0423l-0.08466-0.0846v-0.0423l-0.16932-0.1692h-0.04233l-0.12699-0.1269h-0.04233l-0.04233-0.0423h-0.08467l-0.04233-0.0423h-0.127l-0.04233-0.0423h-0.29633l-0.04233 0.0423h-0.08467l-0.04233 0.0423h-0.08467l-0.04233 0.0423h-0.04233l-0.04233 0.0423h-0.04233l-0.08466 0.0846"/>
    <path d="m20.755 200.93-0.16932 0.1692v0.0423l-0.08466 0.0846v0.0423l-0.04233 0.0423v0.0423l-0.04233 0.0423v0.127l-0.04233 0.0423v0.33867l0.04233 0.0423v0.0847l0.04233 0.0847v0.0847l0.08466 0.0846v0.0423l0.29631 0.2961h0.04233l0.08467 0.0423 0.04233 0.0423h0.08467l0.04233 0.0423h0.08467l0.04233 0.0423h0.254l0.08467-0.0423h0.127l0.04233-0.0423h0.04233l0.04233-0.0423h0.08467l0.04233-0.0423h0.04233l0.12699-0.1269v-0.0423l0.16932-0.1692v-0.0423l0.04233-0.0423v-0.0423l0.04233-0.0423v-0.0847l0.04233-0.0423v-0.508l-0.04233-0.0423v-0.0847l-0.08466-0.0846v-0.0847l-0.08466-0.0846v-0.0423l-0.04233-0.0423h-0.04233l-0.12699-0.1269h-0.04233l-0.08466-0.0846h-0.04233l-0.04233-0.0423h-0.08467l-0.08467-0.0423h-0.46567l-0.08467 0.0423h-0.04233l-0.04233 0.0423h-0.04233l-0.04233 0.0423h-0.04233l-0.08466 0.0846h-0.04233"/>
    <path d="m22.406 202.92-0.08466 0.0846v0.0423l-0.12699 0.1269v0.0423l-0.04233 0.0423v0.0423l-0.04233 0.0423v0.0423l-0.04233 0.0423v0.254l-0.04233 0.0423 0.04233 0.0423v0.21166l0.04233 0.0423v0.0847l0.04233 0.0423v0.0847l0.08466 0.0846v0.0423l0.12699 0.1269h0.04233l0.12699 0.1269h0.04233l0.04233 0.0423h0.04233l0.04233 0.0423h0.04233l0.04233 0.0423h0.55033l0.04233-0.0423h0.127l0.04233-0.0423h0.04233l0.08466-0.0846h0.04233l0.21165-0.2115v-0.0423l0.08466-0.0846v-0.0423l0.04233-0.0423v-0.0423l0.04233-0.0423v-0.16933l0.04233-0.0423v-0.29633l-0.04233-0.0423v-0.0847l-0.04233-0.0423v-0.0847l-0.04233-0.0423v-0.0423l-0.04233-0.0423v-0.0423l-0.25398-0.2538-0.08467-0.0423h-0.04233l-0.04233-0.0423h-0.04233l-0.04233-0.0423h-0.04233l-0.04233-0.0423h-0.16933l-0.04233-0.0423h-0.127l-0.04233 0.0423h-0.21167l-0.04233 0.0423h-0.04233l-0.04233 0.0423h-0.08467l-0.08466 0.0846h-0.04233l-0.04233 0.0423"/>
    <path d="m19.104 198.98-0.04233 0.0423h-0.04233l-0.12699 0.1269v0.0423l-0.08466 0.0846v0.0423l-0.04233 0.0423v0.127l-0.04233 0.0423v0.508l0.04233 0.0423v0.0423l0.04233 0.0423v0.0423l0.04233 0.0423v0.0423l0.08466 0.0846v0.0423l0.16932 0.1692h0.04233l0.08466 0.0846h0.04233l0.04233 0.0423h0.04233l0.04233 0.0423h0.127l0.04233 0.0423h0.381l0.04233-0.0423h0.127l0.04233-0.0423h0.04233l0.08466-0.0846h0.04233l0.12699-0.1269h0.04233l0.08466-0.0846v-0.0423l0.08466-0.0846v-0.0423l0.04233-0.0423v-0.0847l0.04233-0.0423v-0.0847l0.04233-0.0423v-0.381l-0.04233-0.0847v-0.0847l-0.04233-0.0423v-0.0423l-0.08466-0.0846v-0.0423l-0.12699-0.1269v-0.0423l-0.08466-0.0846h-0.04233l-0.08466-0.0846h-0.04233l-0.04233-0.0423h-0.08467l-0.04233-0.0423h-0.08467l-0.04233-0.0423h-0.42333l-0.04233 0.0423h-0.08467l-0.04233 0.0423h-0.04233l-0.04233 0.0423h-0.04233l-0.04233 0.0423-0.08467 0.0423v0.0423"/>
    <path d="m9.0708 187.08-0.127 0.1269v0.0423l-0.084666 0.0846v0.0423l-0.084666 0.0846v0.0847l-0.042333 0.0423v0.127l-0.042333 0.0423v0.29634l0.042333 0.0423v0.0847l0.042333 0.0847v0.0423l0.042333 0.0423v0.0423l0.042333 0.0423v0.0423l0.21166 0.2115h0.042333l0.084666 0.0846h0.042333l0.084666 0.0846h0.084667l0.042333 0.0423h0.16933l0.042333 0.0423h0.16933l0.084667-0.0423h0.127l0.04233-0.0423h0.04233l0.08467-0.0423h0.04233l0.08466-0.0846h0.04233l0.12699-0.1269v-0.0423l0.12699-0.1269v-0.0423l0.04233-0.0423v-0.0423l0.04233-0.0423v-0.0423l0.04233-0.0423v-0.21167l0.04233-0.0423v-0.0847l-0.04233-0.0423v-0.16934l-0.04233-0.0423v-0.0847l-0.04233-0.0423v-0.0847l-0.08466-0.0846v-0.0423l-0.08466-0.0846h-0.04233l-0.16932-0.1692h-0.04233l-0.04233-0.0423h-0.04233l-0.04233-0.0423h-0.08467l-0.04233-0.0423h-0.508l-0.042333 0.0423h-0.042333l-0.084667 0.0423h-0.042333l-0.042333 0.0423h-0.042333l-0.084666 0.0846h-0.042333"/>
    <path d="m10.722 189.07-0.04233 0.0423v0.0423l-0.12699 0.1269v0.0423l-0.08466 0.0846v0.0423l-0.04233 0.0423v0.0847l-0.04233 0.0423v0.508l0.04233 0.0423v0.0423l0.04233 0.0423v0.0423l0.04233 0.0847v0.0423l0.08466 0.0846v0.0423l0.04233 0.0423h0.04233l0.16932 0.1692h0.04233l0.04233 0.0423h0.04233l0.04233 0.0423h0.127l0.04233 0.0423h0.46567l0.08467-0.0423h0.08467l0.08466-0.0846h0.04233l0.08466-0.0846h0.04233l0.16932-0.1692v-0.0423l0.08466-0.0846v-0.0423l0.04233-0.0423v-0.0423l0.04233-0.0423v-0.0847l0.04233-0.0847v-0.33867l-0.04233-0.0423v-0.127l-0.04233-0.0847v-0.0423l-0.08466-0.0846v-0.0423l-0.16932-0.1692v-0.0423h-0.04233l-0.08466-0.0846h-0.04233l-0.04233-0.0423-0.08467-0.0423h-0.08467l-0.04233-0.0423h-0.127l-0.08467-0.0423h-0.16933l-0.04233 0.0423h-0.16933l-0.04233 0.0423h-0.04233l-0.04233 0.0423h-0.04233l-0.08467 0.0423-0.04233 0.0423h-0.04233l-0.04233 0.0423"/>
    <path d="m12.415 191.06-0.04233 0.0423h-0.04233l-0.08466 0.0846v0.0423l-0.08466 0.0846v0.0423l-0.04233 0.0423v0.0847l-0.04233 0.0423v0.0847l-0.04233 0.0423v0.33866l0.04233 0.0847v0.0847l0.04233 0.0423v0.0847l0.08466 0.0846v0.0423l0.16932 0.1692v0.0423l0.08466 0.0846h0.04233l0.04233 0.0423h0.04233l0.08467 0.0423h0.04233l0.04233 0.0423h0.08467l0.04233 0.0423h0.42333l0.04233-0.0423h0.08467l0.04233-0.0423h0.04233l0.04233-0.0423h0.08467l0.12699-0.1269h0.04233v-0.0423l0.12699-0.1269v-0.0423l0.08466-0.0846v-0.0423l0.04233-0.0423v-0.127l0.04233-0.0423v-0.46567l-0.04233-0.0847v-0.0423l-0.04233-0.0423v-0.0423l-0.04233-0.0423v-0.0423l-0.08466-0.0846v-0.0423l-0.16932-0.1692h-0.04233l-0.08466-0.0846h-0.04233l-0.04233-0.0423h-0.04233l-0.04233-0.0423h-0.127l-0.04233-0.0423h-0.33867l-0.04233 0.0423h-0.127l-0.04233 0.0423h-0.08467l-0.08466 0.0846h-0.04233l-0.08466 0.0846"/>
    <path d="m14.066 193.05h-0.04233l-0.04233 0.0423v0.0423l-0.12699 0.1269v0.0423l-0.04233 0.0423v0.0423l-0.04233 0.0423v0.0423l-0.04233 0.0847v0.16933l-0.04233 0.0423v0.127l0.04233 0.0423v0.127l0.04233 0.0847v0.0847l0.04233 0.0423v0.0423l0.08466 0.0846v0.0423l0.21165 0.2115h0.04233l0.08466 0.0846h0.04233l0.04233 0.0423h0.04233l0.04233 0.0423h0.16933l0.04233 0.0423h0.29633l0.04233-0.0423h0.08467l0.08467-0.0423h0.04233l0.04233-0.0423h0.04233l0.04233-0.0423h0.04233l0.33864-0.3384v-0.0847l0.04233-0.0423v-0.0847l0.04233-0.0423v-0.0847l0.04233-0.0423v-0.254l-0.04233-0.0423v-0.16933l-0.04233-0.0423v-0.0423l-0.04233-0.0423v-0.0423l-0.04233-0.0423v-0.0423l-0.29631-0.2961h-0.04233l-0.08466-0.0846h-0.08467l-0.04233-0.0423h-0.04233l-0.04233-0.0423h-0.46567l-0.04233 0.0423h-0.08467l-0.04233 0.0423h-0.08467l-0.04233 0.0423h-0.04233l-0.12699 0.1269"/>
    <path d="m15.76 195-0.21165 0.2115v0.0423l-0.04233 0.0423v0.0423l-0.04233 0.0423v0.0423l-0.04233 0.0423v0.0423l-0.04233 0.0423v0.46567l0.04233 0.0423v0.0847l0.04233 0.0847v0.0423l0.04233 0.0423v0.0423l0.12699 0.1269v0.0423l0.08466 0.0846h0.04233l0.08466 0.0846h0.04233l0.04233 0.0423h0.04233l0.04233 0.0423h0.08467l0.04233 0.0423h0.16933l0.08467 0.0423h0.08467l0.04233-0.0423h0.21167l0.04233-0.0423h0.04233l0.04233-0.0423h0.04233l0.08466-0.0846h0.04233l0.25398-0.2538v-0.0423l0.04233-0.0423v-0.0423l0.04233-0.0423v-0.0423l0.04233-0.0423v-0.0423l0.04233-0.0423v-0.46566l-0.04233-0.0423v-0.0847l-0.04233-0.0423v-0.0847l-0.04233-0.0423v-0.0423l-0.12699-0.1269v-0.0423l-0.04233-0.0423h-0.04233l-0.12699-0.1269h-0.04233l-0.04233-0.0423h-0.04233l-0.04233-0.0423h-0.08467l-0.04233-0.0423h-0.55033l-0.04233 0.0423h-0.08467l-0.04233 0.0423h-0.04233l-0.08466 0.0846h-0.04233l-0.04233 0.0423"/>
    <path d="m17.411 196.99-0.12699 0.1269v0.0423h-0.04233l-0.04233 0.0847v0.0423l-0.08466 0.0846v0.0847l-0.04233 0.0423v0.0847l-0.04233 0.0423v0.254l0.04233 0.0847v0.127l0.04233 0.0423v0.0423l0.04233 0.0423v0.0423l0.04233 0.0423 0.04233 0.0847v0.0423l0.04233 0.0423h0.04233l0.16932 0.1692h0.04233l0.08466 0.0846h0.04233l0.04233 0.0423h0.08467l0.04233 0.0423h0.508l0.04233-0.0423h0.04233l0.04233-0.0423h0.08467l0.04233-0.0423h0.04233l0.08466-0.0846h0.04233l0.08466-0.0846v-0.0423l0.12699-0.1269v-0.0423l0.04233-0.0423v-0.0423l0.04233-0.0423v-0.0423l0.04233-0.0423v-0.21167l0.04233-0.0423v-0.127l-0.04233-0.0423v-0.16933l-0.04233-0.0847v-0.0423l-0.04233-0.0423v-0.0423l-0.08466-0.0846v-0.0423l-0.16932-0.1692h-0.04233l-0.12699-0.1269h-0.04233l-0.04233-0.0423h-0.08467l-0.04233-0.0423h-0.127l-0.04233-0.0423h-0.29633l-0.04233 0.0423h-0.08467l-0.04233 0.0423h-0.08467l-0.04233 0.0423h-0.04233l-0.04233 0.0423h-0.04233l-0.08466 0.0846"/>
    <path d="m20.755 200.93-0.16932 0.1692v0.0423l-0.08466 0.0846v0.0423l-0.04233 0.0423v0.0423l-0.04233 0.0423v0.127l-0.04233 0.0423v0.33867l0.04233 0.0423v0.0847l0.04233 0.0847v0.0847l0.08466 0.0846v0.0423l0.29631 0.2961h0.04233l0.08467 0.0423 0.04233 0.0423h0.08467l0.04233 0.0423h0.08467l0.04233 0.0423h0.254l0.08467-0.0423h0.127l0.04233-0.0423h0.04233l0.04233-0.0423h0.08467l0.04233-0.0423h0.04233l0.12699-0.1269v-0.0423l0.16932-0.1692v-0.0423l0.04233-0.0423v-0.0423l0.04233-0.0423v-0.0847l0.04233-0.0423v-0.508l-0.04233-0.0423v-0.0847l-0.08466-0.0846v-0.0847l-0.08466-0.0846v-0.0423l-0.04233-0.0423h-0.04233l-0.12699-0.1269h-0.04233l-0.08466-0.0846h-0.04233l-0.04233-0.0423h-0.08467l-0.08467-0.0423h-0.46567l-0.08467 0.0423h-0.04233l-0.04233 0.0423h-0.04233l-0.04233 0.0423h-0.04233l-0.08466 0.0846h-0.04233"/>
    <path d="m22.406 202.92-0.08466 0.0846v0.0423l-0.12699 0.1269v0.0423l-0.04233 0.0423v0.0423l-0.04233 0.0423v0.0423l-0.04233 0.0423v0.254l-0.04233 0.0423 0.04233 0.0423v0.21166l0.04233 0.0423v0.0847l0.04233 0.0423v0.0847l0.08466 0.0846v0.0423l0.12699 0.1269h0.04233l0.12699 0.1269h0.04233l0.04233 0.0423h0.04233l0.04233 0.0423h0.04233l0.04233 0.0423h0.55033l0.04233-0.0423h0.127l0.04233-0.0423h0.04233l0.08466-0.0846h0.04233l0.21165-0.2115v-0.0423l0.08466-0.0846v-0.0423l0.04233-0.0423v-0.0423l0.04233-0.0423v-0.16933l0.04233-0.0423v-0.29633l-0.04233-0.0423v-0.0847l-0.04233-0.0423v-0.0847l-0.04233-0.0423v-0.0423l-0.04233-0.0423v-0.0423l-0.25398-0.2538-0.08467-0.0423h-0.04233l-0.04233-0.0423h-0.04233l-0.04233-0.0423h-0.04233l-0.04233-0.0423h-0.16933l-0.04233-0.0423h-0.127l-0.04233 0.0423h-0.21167l-0.04233 0.0423h-0.04233l-0.04233 0.0423h-0.08467l-0.08466 0.0846h-0.04233l-0.04233 0.0423"/>
    <path d="m19.104 198.98-0.04233 0.0423h-0.04233l-0.12699 0.1269v0.0423l-0.08466 0.0846v0.0423l-0.04233 0.0423v0.127l-0.04233 0.0423v0.508l0.04233 0.0423v0.0423l0.04233 0.0423v0.0423l0.04233 0.0423v0.0423l0.08466 0.0846v0.0423l0.16932 0.1692h0.04233l0.08466 0.0846h0.04233l0.04233 0.0423h0.04233l0.04233 0.0423h0.127l0.04233 0.0423h0.381l0.04233-0.0423h0.127l0.04233-0.0423h0.04233l0.08466-0.0846h0.04233l0.12699-0.1269h0.04233l0.08466-0.0846v-0.0423l0.08466-0.0846v-0.0423l0.04233-0.0423v-0.0847l0.04233-0.0423v-0.0847l0.04233-0.0423v-0.381l-0.04233-0.0847v-0.0847l-0.04233-0.0423v-0.0423l-0.08466-0.0846v-0.0423l-0.12699-0.1269v-0.0423l-0.08466-0.0846h-0.04233l-0.08466-0.0846h-0.04233l-0.04233-0.0423h-0.08467l-0.04233-0.0423h-0.08467l-0.04233-0.0423h-0.42333l-0.04233 0.0423h-0.08467l-0.04233 0.0423h-0.04233l-0.04233 0.0423h-0.04233l-0.04233 0.0423-0.08467 0.0423v0.0423"/>
    <path d="m9.0708 184.46-0.042333 0.0423v0.0423l-0.127 0.1269v0.0423l-0.084666 0.0846v0.0423l-0.042333 0.0423v0.0847l-0.042333 0.0847v0.46566l0.042333 0.0423v0.0423l0.042333 0.0847v0.0423l0.042333 0.0423v0.0423l0.084666 0.0846v0.0423l0.127 0.1269h0.042333l0.084666 0.0846h0.042333l0.084666 0.0846h0.084667l0.084667 0.0423h0.127l0.042333 0.0423h0.21167l0.042333-0.0423h0.16933l0.04233-0.0423h0.04233l0.04233-0.0423h0.04233l0.08466-0.0846h0.04233l0.21165-0.2115v-0.0423l0.08466-0.0846v-0.0423l0.04233-0.0423v-0.0423l0.04233-0.0423v-0.0847l0.04233-0.0423v-0.381l-0.04233-0.0423v-0.127l-0.04233-0.0423v-0.0423l-0.04233-0.0847-0.04233-0.0423v-0.0423l-0.25398-0.2538h-0.04233l-0.08466-0.0846h-0.08467l-0.04233-0.0423h-0.08467l-0.04233-0.0423h-0.50798l-0.042333 0.0423h-0.042333l-0.042333 0.0423h-0.042333l-0.042333 0.0423h-0.042333l-0.084667 0.0423-0.042333 0.0423h-0.042333"/>
    <path d="m22.448 205.58-0.12699 0.1269v0.0423l-0.04233 0.0423h-0.04233v0.0847l-0.08466 0.0846v0.0847l-0.04233 0.0423v0.127l-0.04233 0.0847v0.16933l0.04233 0.0847v0.127l0.04233 0.0423v0.0423l0.04233 0.0423v0.0423l0.04233 0.0423 0.04233 0.0847v0.0423l0.04233 0.0423h0.04233l0.16932 0.1692h0.04233l0.08466 0.0846h0.04233l0.04233 0.0423h0.08467l0.04233 0.0423h0.508l0.04233-0.0423h0.04233l0.04233-0.0423h0.08467l0.04233-0.0423h0.04233l0.08466-0.0846h0.04233l0.12699-0.1269v-0.0423l0.08466-0.0846v-0.0423l0.04233-0.0423v-0.0423l0.04233-0.0423v-0.0423l0.04233-0.0423v-0.16934l0.04233-0.0423v-0.21167l-0.04233-0.0423v-0.127l-0.04233-0.0847v-0.0423l-0.04233-0.0423v-0.0423l-0.08466-0.0846v-0.0423l-0.16932-0.1692h-0.04233l-0.12699-0.1269h-0.04233l-0.04233-0.0423h-0.08467l-0.04233-0.0423h-0.127l-0.04233-0.0423h-0.254l-0.04233 0.0423h-0.127l-0.04233 0.0423h-0.08467l-0.04233 0.0423h-0.04233l-0.04233 0.0423h-0.04233l-0.08466 0.0846"/>
   </g>
   <path d="m24.311 204.35v-0.889z"/>
   <path d="m24.311 204.35h0.04233v-0.889h-0.04233z"/>
   <path d="m24.311 204.35h0.08467v-0.889h-0.08467z"/>
   <path d="m24.353 204.35h0.04233v-0.889h-0.04233z"/>
   <path d="m24.396 204.35h0.04233v-0.889h-0.04233z"/>
   <path d="m24.396 204.35h0.04233v-0.889h-0.04233z"/>
   <path d="m24.438 204.35h0.04233v-0.889h-0.04233z"/>
   <path d="m24.438 204.35h0.04233v-0.889h-0.04233z"/>
   <path d="m24.48 204.35h0.04233v-0.889h-0.04233z"/>
   <path d="m24.48 204.35h0.08467v-0.889h-0.08467z"/>
   <path d="m24.523 204.35h0.04233v-0.889h-0.04233z"/>
   <path d="m24.565 204.35h0.04233v-0.889h-0.04233z"/>
   <path d="m24.565 204.35h0.04233v-0.889h-0.04233z"/>
   <path d="m24.607 204.35h0.04233v-0.889h-0.04233z"/>
   <path d="m24.607 204.35h0.08467v-0.889h-0.08467z"/>
   <path d="m24.65 204.35h0.04233v-0.889h-0.04233z"/>
   <path d="m24.692 204.35h0.04233v-0.889h-0.04233z"/>
   <path d="m24.692 204.35h0.04233v-0.889h-0.04233z"/>
   <path d="m24.734 204.35h0.04233v-0.889h-0.04233z"/>
   <path d="m24.734 204.35h0.08467v-0.889h-0.08467z"/>
   <path d="m24.777 204.35h0.04233v-0.889h-0.04233z"/>
   <path d="m24.819 204.35h0.04233v-0.889h-0.04233z"/>
   <path d="m24.819 204.35h0.04233v-0.889h-0.04233z"/>
   <path d="m24.861 204.35h0.04233v-0.889h-0.04233z"/>
   <path d="m24.861 204.35h0.08467v-0.889h-0.08467z"/>
   <path d="m24.904 204.35h0.04233v-0.889h-0.04233z"/>
   <path d="m24.946 204.35h0.04233v-0.889h-0.04233z"/>
   <path d="m24.946 204.35h0.04233v-0.889h-0.04233z"/>
   <path d="m24.988 204.35h0.04233v-0.889h-0.04233z"/>
   <path d="m24.988 204.35h0.08467v-0.889h-0.08467z"/>
   <path d="m25.031 204.35h0.04233v-0.889h-0.04233z"/>
   <path d="m25.073 204.35h0.04233v-0.889h-0.04233z"/>
   <path d="m25.073 204.35h0.04233v-0.889h-0.04233z"/>
   <path d="m25.115 204.35h0.04233v-0.889h-0.04233z"/>
   <path d="m25.115 204.35h0.08467v-0.889h-0.08467z"/>
   <path d="m25.158 204.35h0.04233v-0.889h-0.04233z"/>
   <path d="m25.2 204.35h0.04233v-0.889h-0.04233z"/>
   <path d="m25.2 204.35h0.04233v-0.889h-0.04233z"/>
   <path d="m25.242 204.35h0.04233v-0.889h-0.04233z"/>
   <path d="m25.242 204.35h0.08467v-0.889h-0.08467z"/>
   <path d="m25.285 204.35h0.04233v-0.889h-0.04233z"/>
   <path d="m25.327 204.35h0.04233v-0.889h-0.04233z"/>
   <path d="m25.327 204.35h0.04233v-0.889h-0.04233z"/>
   <path d="m25.369 204.35h0.04233v-0.889h-0.04233z"/>
   <path d="m25.369 204.35h0.08467v-0.889h-0.08467z"/>
   <path d="m25.412 204.35h0.04233v-0.889h-0.04233z"/>
   <path d="m25.454 204.35h0.04233v-0.889h-0.04233z"/>
   <path d="m25.454 204.35h0.04233v-0.889h-0.04233z"/>
   <path d="m25.496 204.35h0.04233v-0.889h-0.04233z"/>
   <path d="m25.496 204.35h0.04233v-0.889h-0.04233z"/>
   <path d="m25.539 204.35v-0.889z"/>
  </g>
  <path d="m24.311 204.35h1.2277v-0.889h-1.2277z" fill="none" stroke="#1f1a17" stroke-linecap="round" stroke-linejoin="round" stroke-miterlimit="10" stroke-width=".06604"/>
  <g fill="#fff" fill-rule="evenodd">
   <path d="m20.501 204.35h0.04233v-0.889h-0.04233z"/>
   <path d="m20.501 204.35h0.08467v-0.889h-0.08467z"/>
   <path d="m20.543 204.35h0.04233v-0.889h-0.04233z"/>
   <path d="m20.586 204.35h0.04233v-0.889h-0.04233z"/>
   <path d="m20.586 204.35h0.04233v-0.889h-0.04233z"/>
   <path d="m20.628 204.35h0.04233v-0.889h-0.04233z"/>
   <path d="m20.628 204.35h0.04233v-0.889h-0.04233z"/>
   <path d="m20.67 204.35h0.04233v-0.889h-0.04233z"/>
   <path d="m20.67 204.35h0.08467v-0.889h-0.08467z"/>
   <path d="m20.713 204.35h0.04233v-0.889h-0.04233z"/>
   <path d="m20.755 204.35h0.04233v-0.889h-0.04233z"/>
   <path d="m20.755 204.35h0.04233v-0.889h-0.04233z"/>
   <path d="m20.797 204.35h0.04233v-0.889h-0.04233z"/>
   <path d="m20.797 204.35h0.08467v-0.889h-0.08467z"/>
   <path d="m20.84 204.35h0.04233v-0.889h-0.04233z"/>
   <path d="m20.882 204.35h0.04233v-0.889h-0.04233z"/>
   <path d="m20.882 204.35h0.04233v-0.889h-0.04233z"/>
   <path d="m20.924 204.35h0.04233v-0.889h-0.04233z"/>
   <path d="m20.924 204.35h0.08467v-0.889h-0.08467z"/>
   <path d="m20.967 204.35h0.04233v-0.889h-0.04233z"/>
   <path d="m21.009 204.35h0.04233v-0.889h-0.04233z"/>
   <path d="m21.009 204.35h0.04233v-0.889h-0.04233z"/>
   <path d="m21.051 204.35h0.04233v-0.889h-0.04233z"/>
   <path d="m21.051 204.35h0.08467v-0.889h-0.08467z"/>
   <path d="m21.094 204.35h0.04233v-0.889h-0.04233z"/>
   <path d="m21.136 204.35h0.04233v-0.889h-0.04233z"/>
   <path d="m21.136 204.35h0.04233v-0.889h-0.04233z"/>
   <path d="m21.178 204.35h0.04233v-0.889h-0.04233z"/>
   <path d="m21.178 204.35h0.08467v-0.889h-0.08467z"/>
   <path d="m21.221 204.35h0.04233v-0.889h-0.04233z"/>
   <path d="m21.263 204.35h0.04233v-0.889h-0.04233z"/>
   <path d="m21.263 204.35h0.04233v-0.889h-0.04233z"/>
   <path d="m21.305 204.35h0.04233v-0.889h-0.04233z"/>
   <path d="m21.305 204.35h0.08467v-0.889h-0.08467z"/>
   <path d="m21.348 204.35h0.04233v-0.889h-0.04233z"/>
   <path d="m21.39 204.35h0.04233v-0.889h-0.04233z"/>
   <path d="m21.39 204.35h0.04233v-0.889h-0.04233z"/>
   <path d="m21.432 204.35h0.04233v-0.889h-0.04233z"/>
   <path d="m21.432 204.35h0.08467v-0.889h-0.08467z"/>
   <path d="m21.475 204.35h0.04233v-0.889h-0.04233z"/>
   <path d="m21.517 204.35h0.04233v-0.889h-0.04233z"/>
   <path d="m21.517 204.35h0.04233v-0.889h-0.04233z"/>
   <path d="m21.559 204.35h0.04233v-0.889h-0.04233z"/>
   <path d="m21.559 204.35h0.08467v-0.889h-0.08467z"/>
   <path d="m21.602 204.35h0.04233v-0.889h-0.04233z"/>
   <path d="m21.644 204.35h0.04233v-0.889h-0.04233z"/>
   <path d="m21.644 204.35h0.04233v-0.889h-0.04233z"/>
   <path d="m21.686 204.35h0.04233v-0.889h-0.04233z"/>
   <path d="m21.686 204.35h0.08467v-0.889h-0.08467z"/>
   <path d="m21.729 204.35h0.04233v-0.889h-0.04233z"/>
   <path d="m21.771 204.35v-0.889z"/>
  </g>
  <path d="m20.501 204.35h1.27v-0.889h-1.27z" fill="none" stroke="#1f1a17" stroke-linecap="round" stroke-linejoin="round" stroke-miterlimit="10" stroke-width=".06604"/>
  <g fill="#fff" fill-rule="evenodd">
   <path d="m24.311 206.94v-0.84667z"/>
   <path d="m24.311 206.94h0.04233v-0.84667h-0.04233z"/>
   <path d="m24.311 206.94h0.08467v-0.84667h-0.08467z"/>
   <path d="m24.353 206.94h0.04233v-0.84667h-0.04233z"/>
   <path d="m24.396 206.94h0.04233v-0.84667h-0.04233z"/>
   <path d="m24.396 206.94h0.04233v-0.84667h-0.04233z"/>
   <path d="m24.438 206.94h0.04233v-0.84667h-0.04233z"/>
   <path d="m24.438 206.94h0.04233v-0.84667h-0.04233z"/>
   <path d="m24.48 206.94h0.04233v-0.84667h-0.04233z"/>
   <path d="m24.48 206.94h0.08467v-0.84667h-0.08467z"/>
   <path d="m24.523 206.94h0.04233v-0.84667h-0.04233z"/>
   <path d="m24.565 206.94h0.04233v-0.84667h-0.04233z"/>
   <path d="m24.565 206.94h0.04233v-0.84667h-0.04233z"/>
   <path d="m24.607 206.94h0.04233v-0.84667h-0.04233z"/>
   <path d="m24.607 206.94h0.08467v-0.84667h-0.08467z"/>
   <path d="m24.65 206.94h0.04233v-0.84667h-0.04233z"/>
   <path d="m24.692 206.94h0.04233v-0.84667h-0.04233z"/>
   <path d="m24.692 206.94h0.04233v-0.84667h-0.04233z"/>
   <path d="m24.734 206.94h0.04233v-0.84667h-0.04233z"/>
   <path d="m24.734 206.94h0.08467v-0.84667h-0.08467z"/>
   <path d="m24.777 206.94h0.04233v-0.84667h-0.04233z"/>
   <path d="m24.819 206.94h0.04233v-0.84667h-0.04233z"/>
   <path d="m24.819 206.94h0.04233v-0.84667h-0.04233z"/>
   <path d="m24.861 206.94h0.04233v-0.84667h-0.04233z"/>
   <path d="m24.861 206.94h0.08467v-0.84667h-0.08467z"/>
   <path d="m24.904 206.94h0.04233v-0.84667h-0.04233z"/>
   <path d="m24.946 206.94h0.04233v-0.84667h-0.04233z"/>
   <path d="m24.946 206.94h0.04233v-0.84667h-0.04233z"/>
   <path d="m24.988 206.94h0.04233v-0.84667h-0.04233z"/>
   <path d="m24.988 206.94h0.08467v-0.84667h-0.08467z"/>
   <path d="m25.031 206.94h0.04233v-0.84667h-0.04233z"/>
   <path d="m25.073 206.94h0.04233v-0.84667h-0.04233z"/>
   <path d="m25.073 206.94h0.04233v-0.84667h-0.04233z"/>
   <path d="m25.115 206.94h0.04233v-0.84667h-0.04233z"/>
   <path d="m25.115 206.94h0.08467v-0.84667h-0.08467z"/>
   <path d="m25.158 206.94h0.04233v-0.84667h-0.04233z"/>
   <path d="m25.2 206.94h0.04233v-0.84667h-0.04233z"/>
   <path d="m25.2 206.94h0.04233v-0.84667h-0.04233z"/>
   <path d="m25.242 206.94h0.04233v-0.84667h-0.04233z"/>
   <path d="m25.242 206.94h0.08467v-0.84667h-0.08467z"/>
   <path d="m25.285 206.94h0.04233v-0.84667h-0.04233z"/>
   <path d="m25.327 206.94h0.04233v-0.84667h-0.04233z"/>
   <path d="m25.327 206.94h0.04233v-0.84667h-0.04233z"/>
   <path d="m25.369 206.94h0.04233v-0.84667h-0.04233z"/>
   <path d="m25.369 206.94h0.08467v-0.84667h-0.08467z"/>
   <path d="m25.412 206.94h0.04233v-0.84667h-0.04233z"/>
   <path d="m25.454 206.94h0.04233v-0.84667h-0.04233z"/>
   <path d="m25.454 206.94h0.04233v-0.84667h-0.04233z"/>
   <path d="m25.496 206.94h0.04233v-0.84667h-0.04233z"/>
   <path d="m25.496 206.94h0.04233v-0.84667h-0.04233z"/>
   <path d="m25.539 206.94v-0.84667z"/>
  </g>
  <path d="m24.311 206.94h1.2277v-0.84667h-1.2277z" fill="none" stroke="#1f1a17" stroke-linecap="round" stroke-linejoin="round" stroke-miterlimit="10" stroke-width=".06604"/>
  <g fill="#fff" fill-rule="evenodd">
   <path d="m24.311 204.35v-0.889z"/>
   <path d="m24.311 204.35h0.04233v-0.889h-0.04233z"/>
   <path d="m24.311 204.35h0.08467v-0.889h-0.08467z"/>
   <path d="m24.353 204.35h0.04233v-0.889h-0.04233z"/>
   <path d="m24.396 204.35h0.04233v-0.889h-0.04233z"/>
   <path d="m24.396 204.35h0.04233v-0.889h-0.04233z"/>
   <path d="m24.438 204.35h0.04233v-0.889h-0.04233z"/>
   <path d="m24.438 204.35h0.04233v-0.889h-0.04233z"/>
   <path d="m24.48 204.35h0.04233v-0.889h-0.04233z"/>
   <path d="m24.48 204.35h0.08467v-0.889h-0.08467z"/>
   <path d="m24.523 204.35h0.04233v-0.889h-0.04233z"/>
   <path d="m24.565 204.35h0.04233v-0.889h-0.04233z"/>
   <path d="m24.565 204.35h0.04233v-0.889h-0.04233z"/>
   <path d="m24.607 204.35h0.04233v-0.889h-0.04233z"/>
   <path d="m24.607 204.35h0.08467v-0.889h-0.08467z"/>
   <path d="m24.65 204.35h0.04233v-0.889h-0.04233z"/>
   <path d="m24.692 204.35h0.04233v-0.889h-0.04233z"/>
   <path d="m24.692 204.35h0.04233v-0.889h-0.04233z"/>
   <path d="m24.734 204.35h0.04233v-0.889h-0.04233z"/>
   <path d="m24.734 204.35h0.08467v-0.889h-0.08467z"/>
   <path d="m24.777 204.35h0.04233v-0.889h-0.04233z"/>
   <path d="m24.819 204.35h0.04233v-0.889h-0.04233z"/>
   <path d="m24.819 204.35h0.04233v-0.889h-0.04233z"/>
   <path d="m24.861 204.35h0.04233v-0.889h-0.04233z"/>
   <path d="m24.861 204.35h0.08467v-0.889h-0.08467z"/>
   <path d="m24.904 204.35h0.04233v-0.889h-0.04233z"/>
   <path d="m24.946 204.35h0.04233v-0.889h-0.04233z"/>
   <path d="m24.946 204.35h0.04233v-0.889h-0.04233z"/>
   <path d="m24.988 204.35h0.04233v-0.889h-0.04233z"/>
   <path d="m24.988 204.35h0.08467v-0.889h-0.08467z"/>
   <path d="m25.031 204.35h0.04233v-0.889h-0.04233z"/>
   <path d="m25.073 204.35h0.04233v-0.889h-0.04233z"/>
   <path d="m25.073 204.35h0.04233v-0.889h-0.04233z"/>
   <path d="m25.115 204.35h0.04233v-0.889h-0.04233z"/>
   <path d="m25.115 204.35h0.08467v-0.889h-0.08467z"/>
   <path d="m25.158 204.35h0.04233v-0.889h-0.04233z"/>
   <path d="m25.2 204.35h0.04233v-0.889h-0.04233z"/>
   <path d="m25.2 204.35h0.04233v-0.889h-0.04233z"/>
   <path d="m25.242 204.35h0.04233v-0.889h-0.04233z"/>
   <path d="m25.242 204.35h0.08467v-0.889h-0.08467z"/>
   <path d="m25.285 204.35h0.04233v-0.889h-0.04233z"/>
   <path d="m25.327 204.35h0.04233v-0.889h-0.04233z"/>
   <path d="m25.327 204.35h0.04233v-0.889h-0.04233z"/>
   <path d="m25.369 204.35h0.04233v-0.889h-0.04233z"/>
   <path d="m25.369 204.35h0.08467v-0.889h-0.08467z"/>
   <path d="m25.412 204.35h0.04233v-0.889h-0.04233z"/>
   <path d="m25.454 204.35h0.04233v-0.889h-0.04233z"/>
   <path d="m25.454 204.35h0.04233v-0.889h-0.04233z"/>
   <path d="m25.496 204.35h0.04233v-0.889h-0.04233z"/>
   <path d="m25.496 204.35h0.04233v-0.889h-0.04233z"/>
   <path d="m25.539 204.35v-0.889z"/>
  </g>
  <path d="m24.311 204.35h1.2277v-0.889h-1.2277z" fill="none" stroke="#1f1a17" stroke-linecap="round" stroke-linejoin="round" stroke-miterlimit="10" stroke-width=".06604"/>
  <g fill="#fff" fill-rule="evenodd">
   <path d="m20.628 206.85v-0.889z"/>
   <path d="m20.628 206.85h0.04233v-0.889h-0.04233z"/>
   <path d="m20.628 206.85h0.04233v-0.889h-0.04233z"/>
   <path d="m20.67 206.85h0.04233v-0.889h-0.04233z"/>
   <path d="m20.67 206.85h0.08467v-0.889h-0.08467z"/>
   <path d="m20.713 206.85h0.04233v-0.889h-0.04233z"/>
   <path d="m20.755 206.85h0.04233v-0.889h-0.04233z"/>
   <path d="m20.755 206.85h0.04233v-0.889h-0.04233z"/>
   <path d="m20.797 206.85h0.04233v-0.889h-0.04233z"/>
   <path d="m20.797 206.85h0.08467v-0.889h-0.08467z"/>
   <path d="m20.84 206.85h0.04233v-0.889h-0.04233z"/>
   <path d="m20.882 206.85h0.04233v-0.889h-0.04233z"/>
   <path d="m20.882 206.85h0.04233v-0.889h-0.04233z"/>
   <path d="m20.924 206.85h0.04233v-0.889h-0.04233z"/>
   <path d="m20.924 206.85h0.08467v-0.889h-0.08467z"/>
   <path d="m20.967 206.85h0.04233v-0.889h-0.04233z"/>
   <path d="m21.009 206.85h0.04233v-0.889h-0.04233z"/>
   <path d="m21.009 206.85h0.04233v-0.889h-0.04233z"/>
   <path d="m21.051 206.85h0.04233v-0.889h-0.04233z"/>
   <path d="m21.051 206.85h0.08467v-0.889h-0.08467z"/>
   <path d="m21.094 206.85h0.04233v-0.889h-0.04233z"/>
   <path d="m21.136 206.85h0.04233v-0.889h-0.04233z"/>
   <path d="m21.136 206.85h0.04233v-0.889h-0.04233z"/>
   <path d="m21.178 206.85h0.04233v-0.889h-0.04233z"/>
   <path d="m21.178 206.85h0.08467v-0.889h-0.08467z"/>
   <path d="m21.221 206.85h0.04233v-0.889h-0.04233z"/>
   <path d="m21.263 206.85h0.04233v-0.889h-0.04233z"/>
   <path d="m21.263 206.85h0.04233v-0.889h-0.04233z"/>
   <path d="m21.305 206.85h0.04233v-0.889h-0.04233z"/>
   <path d="m21.305 206.85h0.08467v-0.889h-0.08467z"/>
   <path d="m21.348 206.85h0.04233v-0.889h-0.04233z"/>
   <path d="m21.39 206.85h0.04233v-0.889h-0.04233z"/>
   <path d="m21.39 206.85h0.04233v-0.889h-0.04233z"/>
   <path d="m21.432 206.85h0.04233v-0.889h-0.04233z"/>
   <path d="m21.432 206.85h0.04233v-0.889h-0.04233z"/>
   <path d="m21.475 206.85h0.04233v-0.889h-0.04233z"/>
   <path d="m21.475 206.85h0.08467v-0.889h-0.08467z"/>
   <path d="m21.517 206.85h0.04233v-0.889h-0.04233z"/>
   <path d="m21.559 206.85h0.04233v-0.889h-0.04233z"/>
   <path d="m21.559 206.85h0.04233v-0.889h-0.04233z"/>
   <path d="m21.602 206.85h0.04233v-0.889h-0.04233z"/>
   <path d="m21.602 206.85h0.08467v-0.889h-0.08467z"/>
   <path d="m21.644 206.85h0.04233v-0.889h-0.04233z"/>
   <path d="m21.686 206.85h0.04233v-0.889h-0.04233z"/>
   <path d="m21.686 206.85h0.04233v-0.889h-0.04233z"/>
   <path d="m21.729 206.85h0.04233v-0.889h-0.04233z"/>
   <path d="m21.729 206.85h0.08467v-0.889h-0.08467z"/>
   <path d="m21.771 206.85h0.04233v-0.889h-0.04233z"/>
   <path d="m21.813 206.85h0.04233v-0.889h-0.04233z"/>
   <path d="m21.813 206.85h0.04233v-0.889h-0.04233z"/>
   <path d="m21.856 206.85v-0.889z"/>
  </g>
  <path d="m20.628 206.85h1.2277v-0.889h-1.2277z" fill="none" stroke="#1f1a17" stroke-linecap="round" stroke-linejoin="round" stroke-miterlimit="10" stroke-width=".06604"/>
  <g fill="#fff" fill-rule="evenodd">
   <path d="m7.3352 185.73v-0.889z"/>
   <path d="m7.3352 185.73h0.042333v-0.889h-0.042333z"/>
   <path d="m7.3352 185.73h0.042333v-0.889h-0.042333z"/>
   <path d="m7.3775 185.73h0.042333v-0.889h-0.042333z"/>
   <path d="m7.3775 185.73h0.084667v-0.889h-0.084667z"/>
   <path d="m7.4199 185.73h0.042333v-0.889h-0.042333z"/>
   <path d="m7.4622 185.73h0.042333v-0.889h-0.042333z"/>
   <path d="m7.4622 185.73h0.042333v-0.889h-0.042333z"/>
   <path d="m7.5045 185.73h0.042333v-0.889h-0.042333z"/>
   <path d="m7.5045 185.73h0.084667v-0.889h-0.084667z"/>
   <path d="m7.5469 185.73h0.042333v-0.889h-0.042333z"/>
   <path d="m7.5892 185.73h0.042333v-0.889h-0.042333z"/>
   <path d="m7.5892 185.73h0.042333v-0.889h-0.042333z"/>
   <path d="m7.6315 185.73h0.042333v-0.889h-0.042333z"/>
   <path d="m7.6315 185.73h0.084667v-0.889h-0.084667z"/>
   <path d="m7.6739 185.73h0.042333v-0.889h-0.042333z"/>
   <path d="m7.7162 185.73h0.042333v-0.889h-0.042333z"/>
   <path d="m7.7162 185.73h0.042333v-0.889h-0.042333z"/>
   <path d="m7.7585 185.73h0.042333v-0.889h-0.042333z"/>
   <path d="m7.7585 185.73h0.084667v-0.889h-0.084667z"/>
   <path d="m7.8009 185.73h0.042333v-0.889h-0.042333z"/>
   <path d="m7.8432 185.73h0.042333v-0.889h-0.042333z"/>
   <path d="m7.8432 185.73h0.042333v-0.889h-0.042333z"/>
   <path d="m7.8855 185.73h0.042333v-0.889h-0.042333z"/>
   <path d="m7.8855 185.73h0.084667v-0.889h-0.084667z"/>
   <path d="m7.9279 185.73h0.042333v-0.889h-0.042333z"/>
   <path d="m7.9702 185.73h0.042333v-0.889h-0.042333z"/>
   <path d="m7.9702 185.73h0.042333v-0.889h-0.042333z"/>
   <path d="m8.0125 185.73h0.042333v-0.889h-0.042333z"/>
   <path d="m8.0125 185.73h0.042333v-0.889h-0.042333z"/>
   <path d="m8.0549 185.73h0.042333v-0.889h-0.042333z"/>
   <path d="m8.0549 185.73h0.084667v-0.889h-0.084667z"/>
   <path d="m8.0972 185.73h0.042333v-0.889h-0.042333z"/>
   <path d="m8.1395 185.73h0.042333v-0.889h-0.042333z"/>
   <path d="m8.1395 185.73h0.042333v-0.889h-0.042333z"/>
   <path d="m8.1819 185.73h0.042333v-0.889h-0.042333z"/>
   <path d="m8.1819 185.73h0.084667v-0.889h-0.084667z"/>
   <path d="m8.2242 185.73h0.042333v-0.889h-0.042333z"/>
   <path d="m8.2665 185.73h0.042333v-0.889h-0.042333z"/>
   <path d="m8.2665 185.73h0.042333v-0.889h-0.042333z"/>
   <path d="m8.3089 185.73h0.042333v-0.889h-0.042333z"/>
   <path d="m8.3089 185.73h0.084667v-0.889h-0.084667z"/>
   <path d="m8.3512 185.73h0.042333v-0.889h-0.042333z"/>
   <path d="m8.3935 185.73h0.042333v-0.889h-0.042333z"/>
   <path d="m8.3935 185.73h0.042333v-0.889h-0.042333z"/>
   <path d="m8.4359 185.73h0.042333v-0.889h-0.042333z"/>
   <path d="m8.4359 185.73h0.084667v-0.889h-0.084667z"/>
   <path d="m8.4782 185.73h0.042333v-0.889h-0.042333z"/>
   <path d="m8.5205 185.73h0.042333v-0.889h-0.042333z"/>
   <path d="m8.5205 185.73h0.042333v-0.889h-0.042333z"/>
   <path d="m8.5629 185.73v-0.889z"/>
  </g>
  <path d="m7.3352 185.73h1.2277v-0.889h-1.2277z" fill="none" stroke="#1f1a17" stroke-linecap="round" stroke-linejoin="round" stroke-miterlimit="10" stroke-width=".06604"/>
  <g fill="#fff" fill-rule="evenodd">
   <path d="m11.018 185.73v-0.889z"/>
   <path d="m11.018 185.73h0.04233v-0.889h-0.04233z"/>
   <path d="m11.018 185.73h0.04233v-0.889h-0.04233z"/>
   <path d="m11.061 185.73h0.04233v-0.889h-0.04233z"/>
   <path d="m11.061 185.73h0.08467v-0.889h-0.08467z"/>
   <path d="m11.103 185.73h0.04233v-0.889h-0.04233z"/>
   <path d="m11.145 185.73h0.04233v-0.889h-0.04233z"/>
   <path d="m11.145 185.73h0.04233v-0.889h-0.04233z"/>
   <path d="m11.188 185.73h0.04233v-0.889h-0.04233z"/>
   <path d="m11.188 185.73h0.08467v-0.889h-0.08467z"/>
   <path d="m11.23 185.73h0.04233v-0.889h-0.04233z"/>
   <path d="m11.272 185.73h0.04233v-0.889h-0.04233z"/>
   <path d="m11.272 185.73h0.04233v-0.889h-0.04233z"/>
   <path d="m11.315 185.73h0.04233v-0.889h-0.04233z"/>
   <path d="m11.315 185.73h0.08467v-0.889h-0.08467z"/>
   <path d="m11.357 185.73h0.04233v-0.889h-0.04233z"/>
   <path d="m11.399 185.73h0.04233v-0.889h-0.04233z"/>
   <path d="m11.399 185.73h0.04233v-0.889h-0.04233z"/>
   <path d="m11.442 185.73h0.04233v-0.889h-0.04233z"/>
   <path d="m11.442 185.73h0.08467v-0.889h-0.08467z"/>
   <path d="m11.484 185.73h0.04233v-0.889h-0.04233z"/>
   <path d="m11.526 185.73h0.04233v-0.889h-0.04233z"/>
   <path d="m11.526 185.73h0.04233v-0.889h-0.04233z"/>
   <path d="m11.569 185.73h0.04233v-0.889h-0.04233z"/>
   <path d="m11.569 185.73h0.08467v-0.889h-0.08467z"/>
   <path d="m11.611 185.73h0.04233v-0.889h-0.04233z"/>
   <path d="m11.653 185.73h0.04233v-0.889h-0.04233z"/>
   <path d="m11.653 185.73h0.04233v-0.889h-0.04233z"/>
   <path d="m11.696 185.73h0.04233v-0.889h-0.04233z"/>
   <path d="m11.696 185.73h0.08467v-0.889h-0.08467z"/>
   <path d="m11.738 185.73h0.04233v-0.889h-0.04233z"/>
   <path d="m11.78 185.73h0.04233v-0.889h-0.04233z"/>
   <path d="m11.78 185.73h0.04233v-0.889h-0.04233z"/>
   <path d="m11.823 185.73h0.04233v-0.889h-0.04233z"/>
   <path d="m11.823 185.73h0.08467v-0.889h-0.08467z"/>
   <path d="m11.865 185.73h0.04233v-0.889h-0.04233z"/>
   <path d="m11.907 185.73h0.04233v-0.889h-0.04233z"/>
   <path d="m11.907 185.73h0.04233v-0.889h-0.04233z"/>
   <path d="m11.95 185.73h0.04233v-0.889h-0.04233z"/>
   <path d="m11.95 185.73h0.08467v-0.889h-0.08467z"/>
   <path d="m11.992 185.73h0.04233v-0.889h-0.04233z"/>
   <path d="m12.034 185.73h0.04233v-0.889h-0.04233z"/>
   <path d="m12.034 185.73h0.04233v-0.889h-0.04233z"/>
   <path d="m12.077 185.73h0.04233v-0.889h-0.04233z"/>
   <path d="m12.077 185.73h0.08467v-0.889h-0.08467z"/>
   <path d="m12.119 185.73h0.04233v-0.889h-0.04233z"/>
   <path d="m12.161 185.73h0.04233v-0.889h-0.04233z"/>
   <path d="m12.161 185.73h0.04233v-0.889h-0.04233z"/>
   <path d="m12.204 185.73h0.04233v-0.889h-0.04233z"/>
   <path d="m12.204 185.73h0.04233v-0.889h-0.04233z"/>
   <path d="m12.246 185.73v-0.889z"/>
  </g>
  <path d="m11.018 185.73h1.2277v-0.889h-1.2277z" fill="none" stroke="#1f1a17" stroke-linecap="round" stroke-linejoin="round" stroke-miterlimit="10" stroke-width=".06604"/>
  <g fill="#fff" fill-rule="evenodd">
   <path d="m10.891 188.23h0.04233v-0.889h-0.04233z"/>
   <path d="m10.891 188.23h0.08467v-0.889h-0.08467z"/>
   <path d="m10.934 188.23h0.04233v-0.889h-0.04233z"/>
   <path d="m10.976 188.23h0.04233v-0.889h-0.04233z"/>
   <path d="m10.976 188.23h0.04233v-0.889h-0.04233z"/>
   <path d="m11.018 188.23h0.04233v-0.889h-0.04233z"/>
   <path d="m11.018 188.23h0.08467v-0.889h-0.08467z"/>
   <path d="m11.061 188.23h0.04233v-0.889h-0.04233z"/>
   <path d="m11.103 188.23h0.04233v-0.889h-0.04233z"/>
   <path d="m11.103 188.23h0.04233v-0.889h-0.04233z"/>
   <path d="m11.145 188.23h0.04233v-0.889h-0.04233z"/>
   <path d="m11.145 188.23h0.08467v-0.889h-0.08467z"/>
   <path d="m11.188 188.23h0.04233v-0.889h-0.04233z"/>
   <path d="m11.23 188.23h0.04233v-0.889h-0.04233z"/>
   <path d="m11.23 188.23h0.04233v-0.889h-0.04233z"/>
   <path d="m11.272 188.23h0.04233v-0.889h-0.04233z"/>
   <path d="m11.272 188.23h0.08467v-0.889h-0.08467z"/>
   <path d="m11.315 188.23h0.04233v-0.889h-0.04233z"/>
   <path d="m11.357 188.23h0.04233v-0.889h-0.04233z"/>
   <path d="m11.357 188.23h0.04233v-0.889h-0.04233z"/>
   <path d="m11.399 188.23h0.04233v-0.889h-0.04233z"/>
   <path d="m11.399 188.23h0.08467v-0.889h-0.08467z"/>
   <path d="m11.442 188.23h0.04233v-0.889h-0.04233z"/>
   <path d="m11.484 188.23h0.04233v-0.889h-0.04233z"/>
   <path d="m11.484 188.23h0.04233v-0.889h-0.04233z"/>
   <path d="m11.526 188.23h0.04233v-0.889h-0.04233z"/>
   <path d="m11.526 188.23h0.04233v-0.889h-0.04233z"/>
   <path d="m11.569 188.23h0.04233v-0.889h-0.04233z"/>
   <path d="m11.569 188.23h0.08467v-0.889h-0.08467z"/>
   <path d="m11.611 188.23h0.04233v-0.889h-0.04233z"/>
   <path d="m11.653 188.23h0.04233v-0.889h-0.04233z"/>
   <path d="m11.653 188.23h0.04233v-0.889h-0.04233z"/>
   <path d="m11.696 188.23h0.04233v-0.889h-0.04233z"/>
   <path d="m11.696 188.23h0.08467v-0.889h-0.08467z"/>
   <path d="m11.738 188.23h0.04233v-0.889h-0.04233z"/>
   <path d="m11.78 188.23h0.04233v-0.889h-0.04233z"/>
   <path d="m11.78 188.23h0.04233v-0.889h-0.04233z"/>
   <path d="m11.823 188.23h0.04233v-0.889h-0.04233z"/>
   <path d="m11.823 188.23h0.08467v-0.889h-0.08467z"/>
   <path d="m11.865 188.23h0.04233v-0.889h-0.04233z"/>
   <path d="m11.907 188.23h0.04233v-0.889h-0.04233z"/>
   <path d="m11.907 188.23h0.04233v-0.889h-0.04233z"/>
   <path d="m11.95 188.23h0.04233v-0.889h-0.04233z"/>
   <path d="m11.95 188.23h0.08467v-0.889h-0.08467z"/>
   <path d="m11.992 188.23h0.04233v-0.889h-0.04233z"/>
   <path d="m12.034 188.23h0.04233v-0.889h-0.04233z"/>
   <path d="m12.034 188.23h0.04233v-0.889h-0.04233z"/>
   <path d="m12.077 188.23h0.04233v-0.889h-0.04233z"/>
   <path d="m12.077 188.23h0.08467v-0.889h-0.08467z"/>
   <path d="m12.119 188.23h0.04233v-0.889h-0.04233z"/>
   <path d="m12.161 188.23v-0.889z"/>
  </g>
  <path d="m10.891 188.23h1.27v-0.889h-1.27z" fill="none" stroke="#1f1a17" stroke-linecap="round" stroke-linejoin="round" stroke-miterlimit="10" stroke-width=".06604"/>
  <g fill="#fff" fill-rule="evenodd">
   <path d="m7.3352 188.31v-0.84667z"/>
   <path d="m7.3352 188.31h0.042333v-0.84667h-0.042333z"/>
   <path d="m7.3352 188.31h0.042333v-0.84667h-0.042333z"/>
   <path d="m7.3775 188.31h0.042333v-0.84667h-0.042333z"/>
   <path d="m7.3775 188.31h0.084667v-0.84667h-0.084667z"/>
   <path d="m7.4199 188.31h0.042333v-0.84667h-0.042333z"/>
   <path d="m7.4622 188.31h0.042333v-0.84667h-0.042333z"/>
   <path d="m7.4622 188.31h0.042333v-0.84667h-0.042333z"/>
   <path d="m7.5045 188.31h0.042333v-0.84667h-0.042333z"/>
   <path d="m7.5045 188.31h0.084667v-0.84667h-0.084667z"/>
   <path d="m7.5469 188.31h0.042333v-0.84667h-0.042333z"/>
   <path d="m7.5892 188.31h0.042333v-0.84667h-0.042333z"/>
   <path d="m7.5892 188.31h0.042333v-0.84667h-0.042333z"/>
   <path d="m7.6315 188.31h0.042333v-0.84667h-0.042333z"/>
   <path d="m7.6315 188.31h0.084667v-0.84667h-0.084667z"/>
   <path d="m7.6739 188.31h0.042333v-0.84667h-0.042333z"/>
   <path d="m7.7162 188.31h0.042333v-0.84667h-0.042333z"/>
   <path d="m7.7162 188.31h0.042333v-0.84667h-0.042333z"/>
   <path d="m7.7585 188.31h0.042333v-0.84667h-0.042333z"/>
   <path d="m7.7585 188.31h0.084667v-0.84667h-0.084667z"/>
   <path d="m7.8009 188.31h0.042333v-0.84667h-0.042333z"/>
   <path d="m7.8432 188.31h0.042333v-0.84667h-0.042333z"/>
   <path d="m7.8432 188.31h0.042333v-0.84667h-0.042333z"/>
   <path d="m7.8855 188.31h0.042333v-0.84667h-0.042333z"/>
   <path d="m7.8855 188.31h0.084667v-0.84667h-0.084667z"/>
   <path d="m7.9279 188.31h0.042333v-0.84667h-0.042333z"/>
   <path d="m7.9702 188.31h0.042333v-0.84667h-0.042333z"/>
   <path d="m7.9702 188.31h0.042333v-0.84667h-0.042333z"/>
   <path d="m8.0125 188.31h0.042333v-0.84667h-0.042333z"/>
   <path d="m8.0125 188.31h0.042333v-0.84667h-0.042333z"/>
   <path d="m8.0549 188.31h0.042333v-0.84667h-0.042333z"/>
   <path d="m8.0549 188.31h0.084667v-0.84667h-0.084667z"/>
   <path d="m8.0972 188.31h0.042333v-0.84667h-0.042333z"/>
   <path d="m8.1395 188.31h0.042333v-0.84667h-0.042333z"/>
   <path d="m8.1395 188.31h0.042333v-0.84667h-0.042333z"/>
   <path d="m8.1819 188.31h0.042333v-0.84667h-0.042333z"/>
   <path d="m8.1819 188.31h0.084667v-0.84667h-0.084667z"/>
   <path d="m8.2242 188.31h0.042333v-0.84667h-0.042333z"/>
   <path d="m8.2665 188.31h0.042333v-0.84667h-0.042333z"/>
   <path d="m8.2665 188.31h0.042333v-0.84667h-0.042333z"/>
   <path d="m8.3089 188.31h0.042333v-0.84667h-0.042333z"/>
   <path d="m8.3089 188.31h0.084667v-0.84667h-0.084667z"/>
   <path d="m8.3512 188.31h0.042333v-0.84667h-0.042333z"/>
   <path d="m8.3935 188.31h0.042333v-0.84667h-0.042333z"/>
   <path d="m8.3935 188.31h0.042333v-0.84667h-0.042333z"/>
   <path d="m8.4359 188.31h0.042333v-0.84667h-0.042333z"/>
   <path d="m8.4359 188.31h0.084667v-0.84667h-0.084667z"/>
   <path d="m8.4782 188.31h0.042333v-0.84667h-0.042333z"/>
   <path d="m8.5205 188.31h0.042333v-0.84667h-0.042333z"/>
   <path d="m8.5205 188.31h0.042333v-0.84667h-0.042333z"/>
   <path d="m8.5629 188.31v-0.84667z"/>
  </g>
  <path d="m7.3352 188.31h1.2277v-0.84667h-1.2277z" fill="none" stroke="#1f1a17" stroke-linecap="round" stroke-linejoin="round" stroke-miterlimit="10" stroke-width=".06604"/>
  <g fill="#fff" fill-rule="evenodd">
   <path d="m22.279 200.71 0.46567 0.67733-0.04233 0.0423-0.46567-0.71967h0.04233"/>
   <path d="m22.745 201.43-0.508-0.71967 0.04233-0.0423 0.508 0.71967-0.04233 0.0423"/>
   <path d="m22.745 201.39-0.46567-0.67733 0.04233-0.0847 0.508 0.71967v0.0423h-0.08467"/>
   <path d="m22.787 201.39-0.508-0.71967 0.08467-0.0423 0.508 0.71967-0.08467 0.0423"/>
   <path d="m22.829 201.35-0.508-0.71967 0.08467-0.0423 0.508 0.71967-0.08467 0.0423"/>
   <path d="m22.872 201.35-0.508-0.71967 0.04233-0.0423zm0.04233-0.0423-0.04233 0.0423 0.04233-0.0423"/>
   <path d="m22.914 201.31-0.508-0.71967 0.04233-0.0423 0.508 0.71967-0.04233 0.0423"/>
   <path d="m22.914 201.31-0.46567-0.71967 0.04233-0.0423 0.508 0.67733-0.08467 0.0847"/>
   <path d="m22.956 201.26-0.508-0.71967 0.08467-0.0423 0.508 0.71967-0.08467 0.0423"/>
   <path d="m22.999 201.22-0.508-0.67733 0.08467-0.0423zm0.04233 0h-0.04233 0.04233"/>
   <path d="m23.041 201.22-0.508-0.71967 0.08467-0.0423 0.46567 0.71967h-0.04233v0.0423"/>
   <path d="m23.083 201.18-0.508-0.67733 0.04233-0.0847 0.508 0.71967-0.04233 0.0423"/>
   <path d="m23.083 201.18-0.46567-0.71967 0.04233-0.0423 0.508 0.71967h-0.04233l-0.04233 0.0423"/>
   <path d="m23.126 201.14-0.508-0.71967 0.08467-0.0423 0.508 0.71967-0.08467 0.0423"/>
   <path d="m23.168 201.14-0.508-0.71967 0.08467-0.0423 0.508 0.71967-0.08467 0.0423"/>
   <path d="m23.21 201.1-0.508-0.71967 0.08467-0.0423 0.508 0.71967h-0.04233l-0.04233 0.0423"/>
   <path d="m23.253 201.1-0.508-0.71967 0.04233-0.0423 0.508 0.67733-0.04233 0.0847"/>
   <path d="m23.295 201.05-0.508-0.71967 0.04233-0.0423 0.508 0.71967-0.04233 0.0423"/>
   <path d="m23.295 201.01-0.508-0.67733 0.08467-0.0423zm0.08467-0.0423-0.08467 0.0423 0.08467-0.0423"/>
   <path d="m23.337 201.01-0.508-0.71967 0.08467-0.0423 0.508 0.71967h-0.04233l-0.04233 0.0423"/>
   <path d="m22.956 200.21 0.508 0.71967-0.08467 0.0423zm-0.08467 0.0423 0.08467-0.0423-0.08467 0.0423"/>
   <path d="m23.422 200.97-0.508-0.71967 0.08467-0.0423 0.46567 0.71967-0.04233 0.0423"/>
   <path d="m23.464 200.93-0.508-0.71967 0.04233-0.0423z"/>
   <path d="m23.464 200.93-0.46567-0.71967 0.04233-0.0423 0.508 0.67733-0.08466 0.0846"/>
   <path d="m23.507 200.88-0.508-0.71967 0.08467-0.0423 0.508 0.71967-0.08467 0.0423"/>
   <path d="m23.549 200.84-0.508-0.67733 0.08467-0.0423 0.508 0.67734-0.04233 0.0423h-0.04233"/>
   <path d="m23.591 200.84-0.508-0.71967 0.08467-0.0423 0.46567 0.71967-0.04233 0.0423"/>
   <path d="m23.634 200.8-0.508-0.67733 0.04233-0.0847 0.508 0.71967-0.04233 0.0423"/>
   <path d="m23.634 200.8-0.46567-0.71967 0.04233-0.0423zm0.08467-0.0423-0.08467 0.0423 0.08467-0.0423"/>
   <path d="m23.676 200.76-0.508-0.71967 0.08467-0.0423 0.508 0.71967-0.08467 0.0423"/>
   <path d="m23.718 200.76-0.508-0.71967 0.04233-0.0423 0.508 0.71967-0.04233 0.0423"/>
   <path d="m23.761 200.71-0.508-0.71967 0.508 0.71967"/>
  </g>
  <path d="m22.237 200.71 1.016-0.71967 0.508 0.71967-1.0583 0.71967z" fill="none" stroke="#1f1a17" stroke-linecap="round" stroke-linejoin="round" stroke-miterlimit="10" stroke-width=".06604"/>
  <g fill="#fff" fill-rule="evenodd">
   <path d="m19.146 202.83 0.508 0.71967h-0.04233l-0.508-0.71967h0.04233"/>
   <path d="m19.612 203.55-0.508-0.71967 0.08467-0.0423 0.508 0.71967-0.08467 0.0423"/>
   <path d="m19.654 203.55-0.508-0.71967 0.08467-0.0423 0.508 0.67733-0.08467 0.0847"/>
   <path d="m19.697 203.51-0.508-0.71967 0.08467-0.0423 0.46567 0.71967-0.04233 0.0423"/>
   <path d="m19.739 203.47-0.508-0.67733 0.04233-0.0423 0.508 0.67734-0.04233 0.0423"/>
   <path d="m19.739 203.47-0.46567-0.71967 0.04233-0.0423 0.508 0.71967-0.08467 0.0423"/>
   <path d="m19.781 203.42-0.508-0.67733 0.08467-0.0847 0.508 0.71967-0.08467 0.0423"/>
   <path d="m19.824 203.42-0.508-0.71967 0.08467-0.0423 0.508 0.71967-0.08467 0.0423"/>
   <path d="m19.866 203.38-0.508-0.71967 0.08467-0.0423 0.508 0.71967-0.08467 0.0423"/>
   <path d="m19.908 203.38-0.508-0.71967 0.04233-0.0423 0.508 0.67733-0.04233 0.0847"/>
   <path d="m19.951 203.34-0.508-0.71967 0.04233-0.0423 0.508 0.71967-0.04233 0.0423"/>
   <path d="m19.951 203.3-0.508-0.67733 0.08467-0.0423 0.508 0.67734-0.08467 0.0423"/>
   <path d="m19.993 203.3-0.508-0.71967 0.08467-0.0423 0.508 0.71967-0.08467 0.0423"/>
   <path d="m20.035 203.25-0.508-0.67733 0.08467-0.0847 0.508 0.71967-0.08467 0.0423"/>
   <path d="m20.078 203.25-0.508-0.71967 0.08467-0.0423 0.46567 0.71967-0.04233 0.0423"/>
   <path d="m20.12 203.21-0.508-0.71967 0.04233-0.0423 0.508 0.71967-0.04233 0.0423"/>
   <path d="m20.12 203.21-0.46567-0.71967 0.04233-0.0423 0.508 0.71967-0.08467 0.0423"/>
   <path d="m20.162 203.17-0.508-0.71967 0.08467-0.0423 0.508 0.71967-0.08467 0.0423"/>
   <path d="m20.205 203.17-0.508-0.71967 0.08467-0.0423 0.508 0.67733-0.08467 0.0847"/>
   <path d="m20.247 203.13-0.508-0.71967 0.08467-0.0423 0.46567 0.71967-0.04233 0.0423"/>
   <path d="m20.289 203.08-0.508-0.67733 0.04233-0.0847 0.508 0.71967-0.04233 0.0423"/>
   <path d="m20.289 203.08-0.46567-0.71967 0.04233-0.0423 0.508 0.71967-0.08467 0.0423"/>
   <path d="m20.332 203.04-0.508-0.71967 0.08467-0.0423zm0.08467-0.0423-0.08467 0.0423 0.08467-0.0423"/>
   <path d="m20.374 203.04-0.508-0.71967 0.08467-0.0423 0.508 0.71967-0.08467 0.0423"/>
   <path d="m20.416 203-0.508-0.71967 0.08467-0.0423 0.46567 0.71967-0.04233 0.0423"/>
   <path d="m20.459 203-0.508-0.71967 0.04233-0.0423 0.508 0.67733-0.04233 0.0847"/>
   <path d="m20.459 202.96-0.46567-0.71967 0.04233-0.0423 0.508 0.71967-0.08467 0.0423"/>
   <path d="m20.501 202.92-0.508-0.67733 0.08467-0.0423 0.508 0.67734-0.08467 0.0423"/>
   <path d="m20.543 202.92-0.508-0.71967 0.08467-0.0423 0.508 0.71967-0.08467 0.0423"/>
   <path d="m20.586 202.87-0.508-0.67733 0.08467-0.0847 0.46567 0.71967-0.04233 0.0423"/>
   <path d="m20.628 202.87-0.508-0.71967 0.04233-0.0423 0.508 0.71967-0.04233 0.0423"/>
   <path d="m20.628 202.83-0.46567-0.71967 0.508 0.71967h-0.04233"/>
  </g>
  <path d="m19.104 202.83 1.0583-0.71967 0.508 0.71967-1.0583 0.71967z" fill="none" stroke="#1f1a17" stroke-linecap="round" stroke-linejoin="round" stroke-miterlimit="10" stroke-width=".06604"/>
  <g fill="#fff" fill-rule="evenodd">
   <path d="m20.628 198.47 0.46567 0.71967v0.0423l-0.508-0.71967 0.04233-0.0423"/>
   <path d="m21.094 199.23-0.508-0.71967 0.04233-0.0423 0.508 0.67733-0.04233 0.0847"/>
   <path d="m21.094 199.19-0.46567-0.71967 0.04233-0.0423 0.508 0.71967-0.08467 0.0423"/>
   <path d="m21.136 199.15-0.508-0.67733 0.08467-0.0847 0.508 0.71967-0.08467 0.0423"/>
   <path d="m21.178 199.15-0.508-0.71967 0.08467-0.0423 0.508 0.71967-0.08467 0.0423"/>
   <path d="m21.221 199.11-0.508-0.71967 0.08467-0.0423 0.46567 0.71967-0.04233 0.0423"/>
   <path d="m21.263 199.11-0.508-0.71967 0.04233-0.0423 0.508 0.71967-0.04233 0.0423"/>
   <path d="m21.263 199.06-0.46567-0.71967 0.04233-0.0423 0.508 0.71967-0.08467 0.0423"/>
   <path d="m21.305 199.06-0.508-0.71967 0.08467-0.0423 0.508 0.67733-0.08467 0.0847"/>
   <path d="m21.348 199.02-0.508-0.71967 0.08467-0.0423 0.508 0.71967-0.08467 0.0423"/>
   <path d="m21.39 198.98-0.508-0.67733 0.08467-0.0423 0.46567 0.67734-0.04233 0.0423"/>
   <path d="m21.432 198.98-0.508-0.71967 0.04233-0.0423 0.508 0.71967-0.04233 0.0423"/>
   <path d="m21.432 198.94-0.46567-0.67733 0.04233-0.0847 0.508 0.71967-0.08467 0.0423"/>
   <path d="m21.475 198.94-0.508-0.71967 0.08467-0.0423 0.508 0.71967-0.08467 0.0423"/>
   <path d="m21.517 198.89-0.508-0.71967 0.08467-0.0423 0.508 0.71967-0.08467 0.0423"/>
   <path d="m21.559 198.89-0.508-0.71967 0.08467-0.0423 0.508 0.71967-0.08467 0.0423"/>
   <path d="m21.602 198.85-0.508-0.71967 0.08467-0.0423 0.46567 0.71967-0.04233 0.0423"/>
   <path d="m21.644 198.85-0.508-0.71967 0.04233-0.0423 0.508 0.67733-0.04233 0.0847"/>
   <path d="m21.644 198.81-0.46567-0.71967 0.04233-0.0423 0.508 0.71967-0.08467 0.0423"/>
   <path d="m21.686 198.77-0.508-0.67733 0.08467-0.0847 0.508 0.71967-0.08467 0.0423"/>
   <path d="m21.729 198.77-0.508-0.71967 0.08467-0.0423 0.508 0.71967-0.08467 0.0423"/>
   <path d="m21.771 198.72-0.508-0.71967 0.08467-0.0423 0.46567 0.71967-0.04233 0.0423"/>
   <path d="m21.813 198.72-0.508-0.71967 0.04233-0.0423zm0.04233-0.0423-0.04233 0.0423 0.04233-0.0423"/>
   <path d="m21.813 198.68-0.46567-0.71967 0.04233-0.0423 0.508 0.71967-0.08467 0.0423"/>
   <path d="m21.856 198.68-0.508-0.71967 0.08467-0.0423 0.508 0.67733-0.08467 0.0423v0.0423"/>
   <path d="m21.898 198.64-0.508-0.71967 0.08467-0.0423 0.508 0.71967-0.08467 0.0423"/>
   <path d="m21.94 198.6-0.508-0.67733 0.08467-0.0423 0.46567 0.67734-0.04233 0.0423"/>
   <path d="m21.983 198.6-0.508-0.71967 0.04233-0.0423 0.508 0.71967-0.04233 0.0423"/>
   <path d="m21.983 198.56-0.46567-0.67733 0.04233-0.0847 0.508 0.71967-0.08467 0.0423"/>
   <path d="m22.025 198.56-0.508-0.71967 0.08467-0.0423 0.508 0.71967-0.08467 0.0423"/>
   <path d="m22.067 198.51-0.508-0.71967h0.04233l0.508 0.71967h-0.04233"/>
   <path d="m22.11 198.51-0.508-0.71967 0.508 0.71967"/>
  </g>
  <path d="m20.586 198.51 1.016-0.71967 0.508 0.71967-1.016 0.71967z" fill="none" stroke="#1f1a17" stroke-linecap="round" stroke-linejoin="round" stroke-miterlimit="10" stroke-width=".06604"/>
  <g fill="#fff" fill-rule="evenodd">
   <path d="m17.495 200.8 0.508 0.71967h-0.04233l-0.508-0.71967h0.04233"/>
   <path d="m17.961 201.52-0.508-0.71967 0.08467-0.0423 0.508 0.71967-0.08467 0.0423"/>
   <path d="m18.003 201.52-0.508-0.71967 0.08467-0.0423 0.508 0.71967-0.08467 0.0423"/>
   <path d="m18.046 201.48-0.508-0.71967 0.08467-0.0423 0.46567 0.71967-0.04233 0.0423"/>
   <path d="m18.088 201.48-0.508-0.71967 0.04233-0.0423 0.508 0.67733-0.04233 0.0847"/>
   <path d="m18.088 201.43-0.46567-0.71967 0.04233-0.0423 0.508 0.71967-0.08467 0.0423"/>
   <path d="m18.13 201.39-0.508-0.67733 0.08467-0.0847 0.508 0.71967-0.08467 0.0423"/>
   <path d="m18.173 201.39-0.508-0.71967 0.08467-0.0423 0.508 0.71967-0.08467 0.0423"/>
   <path d="m18.215 201.35-0.508-0.71967 0.08467-0.0423 0.508 0.71967-0.08467 0.0423"/>
   <path d="m18.257 201.35-0.508-0.71967 0.08467-0.0423 0.46567 0.71967-0.04233 0.0423"/>
   <path d="m18.3 201.31-0.508-0.71967 0.04233-0.0423 0.508 0.71967-0.04233 0.0423"/>
   <path d="m18.3 201.31-0.46567-0.71967 0.04233-0.0423 0.508 0.67733-0.08467 0.0847"/>
   <path d="m18.342 201.26-0.508-0.71967 0.08467-0.0423 0.508 0.71967-0.08467 0.0423"/>
   <path d="m18.384 201.22-0.508-0.67733 0.08467-0.0423 0.508 0.67734-0.08467 0.0423"/>
   <path d="m18.427 201.22-0.508-0.71967 0.08467-0.0423 0.46567 0.71967-0.04233 0.0423"/>
   <path d="m18.469 201.18-0.508-0.67733 0.04233-0.0847 0.508 0.71967-0.04233 0.0423"/>
   <path d="m18.469 201.18-0.46567-0.71967 0.04233-0.0423 0.508 0.71967-0.08467 0.0423"/>
   <path d="m18.511 201.14-0.508-0.71967 0.08467-0.0423 0.508 0.71967-0.08467 0.0423"/>
   <path d="m18.554 201.14-0.508-0.71967 0.08467-0.0423 0.508 0.71967-0.08467 0.0423"/>
   <path d="m18.596 201.1-0.508-0.71967 0.08467-0.0423 0.46567 0.71967-0.04233 0.0423"/>
   <path d="m18.638 201.1-0.508-0.71967 0.04233-0.0423 0.508 0.67733-0.04233 0.0847"/>
   <path d="m18.638 201.05-0.46567-0.71967 0.04233-0.0423 0.508 0.71967-0.08467 0.0423"/>
   <path d="m18.681 201.01-0.508-0.67733 0.08467-0.0847zm0.08467-0.0423-0.08467 0.0423 0.08467-0.0423"/>
   <path d="m18.723 201.01-0.508-0.71967 0.08467-0.0423 0.508 0.71967-0.08467 0.0423"/>
   <path d="m18.765 200.97-0.508-0.71967 0.08467-0.0423 0.46567 0.71967-0.04233 0.0423"/>
   <path d="m18.808 200.97-0.508-0.71967 0.04233-0.0423 0.508 0.71967-0.04233 0.0423"/>
   <path d="m18.808 200.93-0.46567-0.71967 0.04233-0.0423 0.508 0.71967-0.08467 0.0423"/>
   <path d="m18.85 200.93-0.508-0.71967 0.08467-0.0423 0.508 0.67733-0.08467 0.0847"/>
   <path d="m18.892 200.88-0.508-0.71967 0.08467-0.0423 0.508 0.71967-0.08467 0.0423"/>
   <path d="m18.935 200.84-0.508-0.67733 0.08467-0.0423 0.508 0.67734-0.08467 0.0423"/>
   <path d="m18.977 200.84-0.508-0.71967 0.04233-0.0423 0.508 0.71967-0.04233 0.0423"/>
   <path d="m19.019 200.8-0.508-0.67733v-0.0423l0.508 0.71967"/>
  </g>
  <path d="m17.453 200.8 1.0583-0.71967 0.508 0.71967-1.0583 0.71967z" fill="none" stroke="#1f1a17" stroke-linecap="round" stroke-linejoin="round" stroke-miterlimit="10" stroke-width=".06604"/>
  <g fill="#fff" fill-rule="evenodd">
   <path d="m18.765 196.57 0.508 0.67733-0.04233 0.0423-0.508-0.71967h0.04233"/>
   <path d="m19.231 197.29-0.508-0.71967 0.08467-0.0423 0.508 0.71967-0.08467 0.0423"/>
   <path d="m19.273 197.24-0.508-0.67733 0.08467-0.0847 0.46567 0.71967-0.04233 0.0423"/>
   <path d="m19.316 197.24-0.508-0.71967 0.04233-0.0423 0.508 0.71967-0.04233 0.0423"/>
   <path d="m19.316 197.2-0.46567-0.71967 0.04233-0.0423 0.508 0.71967-0.08467 0.0423"/>
   <path d="m19.358 197.2-0.508-0.71967 0.08467-0.0423 0.508 0.71967-0.08467 0.0423"/>
   <path d="m19.4 197.16-0.508-0.71967 0.08467-0.0423 0.508 0.71967-0.08467 0.0423"/>
   <path d="m19.443 197.16-0.508-0.71967 0.08467-0.0423 0.508 0.67733-0.08467 0.0847"/>
   <path d="m19.485 197.12-0.508-0.71967 0.04233-0.0423 0.508 0.71967-0.04233 0.0423"/>
   <path d="m19.527 197.07-0.508-0.67733 0.04233-0.0847 0.508 0.71967-0.04233 0.0423"/>
   <path d="m19.527 197.07-0.508-0.71967 0.08467-0.0423 0.508 0.71967-0.08467 0.0423"/>
   <path d="m19.57 197.03-0.508-0.71967 0.08467-0.0423 0.508 0.71967-0.08467 0.0423"/>
   <path d="m19.612 197.03-0.508-0.71967 0.08467-0.0423 0.508 0.71967-0.08467 0.0423"/>
   <path d="m19.654 196.99-0.508-0.71967 0.08467-0.0423 0.46567 0.71967-0.04233 0.0423"/>
   <path d="m19.697 196.99-0.508-0.71967 0.04233-0.0423 0.508 0.67733-0.04233 0.0847"/>
   <path d="m19.697 196.95-0.46567-0.71967 0.04233-0.0423 0.508 0.71967-0.08467 0.0423"/>
   <path d="m19.739 196.9-0.508-0.67733 0.08467-0.0423 0.508 0.67734-0.08467 0.0423"/>
   <path d="m19.781 196.9-0.508-0.71967 0.08467-0.0423 0.508 0.71967-0.08467 0.0423"/>
   <path d="m19.824 196.86-0.508-0.67733 0.08467-0.0847 0.46567 0.71967-0.04233 0.0423"/>
   <path d="m19.866 196.86-0.508-0.71967 0.04233-0.0423 0.508 0.71967-0.04233 0.0423"/>
   <path d="m19.866 196.82-0.46567-0.71967 0.04233-0.0423 0.508 0.71967-0.08467 0.0423"/>
   <path d="m19.908 196.82-0.508-0.71967 0.08467-0.0423 0.508 0.71967-0.08467 0.0423"/>
   <path d="m19.951 196.78-0.508-0.71967 0.08467-0.0423zm0.08467-0.0423-0.08467 0.0423 0.08467-0.0423"/>
   <path d="m19.993 196.78-0.508-0.71967 0.08467-0.0423 0.46567 0.67733-0.04233 0.0847"/>
   <path d="m20.035 196.73-0.508-0.71967 0.04233-0.0423 0.508 0.71967-0.04233 0.0423"/>
   <path d="m20.035 196.69-0.46567-0.67733 0.04233-0.0847 0.508 0.71967-0.08467 0.0423"/>
   <path d="m20.078 196.69-0.508-0.71967 0.08467-0.0423 0.508 0.71967-0.08467 0.0423"/>
   <path d="m20.12 196.65-0.508-0.71967 0.08467-0.0423 0.508 0.71967-0.08467 0.0423"/>
   <path d="m20.162 196.65-0.508-0.71967 0.08467-0.0423 0.46567 0.71967-0.04233 0.0423"/>
   <path d="m20.205 196.61-0.508-0.71967 0.04233-0.0423 0.508 0.71967-0.04233 0.0423"/>
   <path d="m20.205 196.61-0.46567-0.71967 0.04233-0.0423 0.46567 0.71967-0.04233 0.0423"/>
   <path d="m20.247 196.57-0.508-0.71967h0.04233l0.46567 0.71967"/>
  </g>
  <path d="m18.723 196.57 1.0583-0.71967 0.46567 0.71967-1.016 0.71967z" fill="none" stroke="#1f1a17" stroke-linecap="round" stroke-linejoin="round" stroke-miterlimit="10" stroke-width=".06604"/>
  <g fill="#fff" fill-rule="evenodd">
   <path d="m15.76 198.68 0.508 0.71967h-0.04233l-0.508-0.71967h0.04233"/>
   <path d="m16.225 199.4-0.508-0.71967 0.08467-0.0423 0.508 0.71967-0.08467 0.0423"/>
   <path d="m16.268 199.4-0.508-0.71967 0.08467-0.0423 0.46567 0.67733-0.04233 0.0847"/>
   <path d="m16.31 199.36-0.508-0.71967 0.04233-0.0423 0.508 0.71967-0.04233 0.0423"/>
   <path d="m16.31 199.32-0.46567-0.67733 0.04233-0.0847 0.508 0.71967-0.08467 0.0423"/>
   <path d="m16.352 199.32-0.508-0.71967 0.08467-0.0423 0.508 0.71967-0.08467 0.0423"/>
   <path d="m16.395 199.27-0.508-0.71967 0.08467-0.0423 0.508 0.71967-0.08467 0.0423"/>
   <path d="m16.437 199.27-0.508-0.71967 0.08467-0.0423 0.46567 0.71967-0.04233 0.0423"/>
   <path d="m16.479 199.23-0.508-0.71967 0.04233-0.0423 0.508 0.71967-0.04233 0.0423"/>
   <path d="m16.479 199.23-0.46567-0.71967 0.04233-0.0423 0.508 0.67733-0.08467 0.0847"/>
   <path d="m16.522 199.19-0.508-0.71967 0.08467-0.0423 0.508 0.71967-0.08467 0.0423"/>
   <path d="m16.564 199.15-0.508-0.67733 0.08467-0.0423 0.508 0.67734-0.08467 0.0423"/>
   <path d="m16.606 199.15-0.508-0.71967 0.08467-0.0423 0.46567 0.71967-0.04233 0.0423"/>
   <path d="m16.649 199.11-0.508-0.67733 0.04233-0.0847 0.508 0.71967-0.04233 0.0423"/>
   <path d="m16.649 199.11-0.46567-0.71967 0.04233-0.0423 0.508 0.71967-0.08467 0.0423"/>
   <path d="m16.691 199.06-0.508-0.71967 0.08467-0.0423 0.508 0.71967-0.08467 0.0423"/>
   <path d="m16.733 199.06-0.508-0.71967 0.08467-0.0423 0.508 0.71967-0.08467 0.0423"/>
   <path d="m16.776 199.02-0.508-0.71967 0.08467-0.0423 0.508 0.71967-0.08467 0.0423"/>
   <path d="m16.818 199.02-0.508-0.71967 0.08467-0.0423 0.46567 0.67733-0.04233 0.0847"/>
   <path d="m16.86 198.98-0.508-0.71967 0.04233-0.0423 0.508 0.71967-0.04233 0.0423"/>
   <path d="m16.86 198.94-0.46567-0.67733 0.04233-0.0847 0.508 0.71967-0.08467 0.0423"/>
   <path d="m16.903 198.94-0.508-0.71967 0.08467-0.0423 0.508 0.71967-0.08467 0.0423"/>
   <path d="m16.945 198.89-0.508-0.71967 0.08467-0.0423zm0.04233-0.0423-0.04233 0.0423 0.04233-0.0423"/>
   <path d="m16.987 198.89-0.508-0.71967 0.08467-0.0423 0.46567 0.71967-0.04233 0.0423"/>
   <path d="m17.03 198.85-0.508-0.71967 0.04233-0.0423 0.508 0.71967-0.04233 0.0423"/>
   <path d="m17.03 198.85-0.46567-0.71967 0.04233-0.0423 0.508 0.67733-0.08467 0.0847"/>
   <path d="m17.072 198.81-0.508-0.71967 0.08467-0.0423 0.508 0.71967-0.08467 0.0423"/>
   <path d="m17.114 198.77-0.508-0.67733 0.08467-0.0847 0.508 0.71967-0.08467 0.0423"/>
   <path d="m17.157 198.77-0.508-0.71967 0.08467-0.0423 0.46567 0.71967-0.04233 0.0423"/>
   <path d="m17.199 198.72-0.508-0.71967 0.04233-0.0423 0.508 0.71967-0.04233 0.0423"/>
   <path d="m17.199 198.72-0.46567-0.71967 0.04233-0.0423 0.46567 0.71967-0.04233 0.0423"/>
   <path d="m17.241 198.68-0.508-0.71967h0.04233l0.46567 0.71967"/>
  </g>
  <path d="m15.717 198.68 1.0583-0.71967 0.46567 0.71967-1.016 0.71967z" fill="none" stroke="#1f1a17" stroke-linecap="round" stroke-linejoin="round" stroke-miterlimit="10" stroke-width=".06604"/>
  <g fill="#fff" fill-rule="evenodd">
   <path d="m17.157 194.66 0.04233-0.0423 0.508 0.71966h-0.04233l-0.508-0.67733"/>
   <path d="m17.665 195.34-0.46567-0.71967 0.04233-0.0423 0.508 0.71967-0.08467 0.0423"/>
   <path d="m17.707 195.34-0.508-0.71967 0.08467-0.0423 0.508 0.71967-0.08467 0.0423"/>
   <path d="m17.749 195.3-0.508-0.71967 0.08467-0.0423 0.508 0.71967-0.08467 0.0423"/>
   <path d="m17.792 195.3-0.508-0.71967 0.08467-0.0423 0.46567 0.71967-0.04233 0.0423"/>
   <path d="m17.834 195.25-0.508-0.71967 0.04233-0.0423 0.508 0.71967-0.04233 0.0423"/>
   <path d="m17.834 195.25-0.46567-0.71967 0.04233-0.0423 0.508 0.67733-0.08467 0.0847"/>
   <path d="m17.876 195.21-0.508-0.71967 0.08467-0.0423 0.508 0.71967-0.08467 0.0423"/>
   <path d="m17.919 195.17-0.508-0.67733 0.08467-0.0847 0.508 0.71967-0.08467 0.0423"/>
   <path d="m17.961 195.17-0.508-0.71967 0.08467-0.0423 0.46567 0.71967-0.04233 0.0423"/>
   <path d="m18.003 195.13-0.508-0.71967 0.04233-0.0423 0.508 0.71967-0.04233 0.0423"/>
   <path d="m18.003 195.13-0.46567-0.71967 0.04233-0.0423 0.508 0.71967-0.08467 0.0423"/>
   <path d="m18.046 195.08-0.508-0.71967 0.08467-0.0423 0.508 0.71967-0.08467 0.0423"/>
   <path d="m18.088 195.08-0.508-0.71967 0.08467-0.0423 0.508 0.67733-0.08467 0.0847"/>
   <path d="m18.13 195.04-0.508-0.71967 0.08467-0.0423 0.508 0.71967-0.08467 0.0423"/>
   <path d="m18.173 195-0.508-0.67733 0.04233-0.0423 0.508 0.67734-0.04233 0.0423"/>
   <path d="m18.215 195-0.508-0.71967 0.04233-0.0423 0.508 0.71967-0.04233 0.0423"/>
   <path d="m18.215 194.96-0.508-0.67733 0.08467-0.0847 0.508 0.71967-0.08467 0.0423"/>
   <path d="m18.257 194.96-0.508-0.71967 0.08467-0.0423 0.508 0.71967-0.08467 0.0423"/>
   <path d="m18.3 194.91-0.508-0.71967 0.08467-0.0423 0.508 0.71967-0.08467 0.0423"/>
   <path d="m18.342 194.91-0.508-0.71967 0.08467-0.0423 0.46567 0.67733-0.04233 0.0847"/>
   <path d="m18.384 194.87-0.508-0.71967 0.04233-0.0423 0.508 0.71967-0.04233 0.0423"/>
   <path d="m18.384 194.83-0.46567-0.67733 0.04233-0.0423 0.508 0.67734-0.08467 0.0423"/>
   <path d="m18.427 194.83-0.508-0.71967 0.08467-0.0423 0.508 0.71967-0.08467 0.0423"/>
   <path d="m18.469 194.79-0.508-0.67733 0.08467-0.0847 0.508 0.71967-0.08467 0.0423"/>
   <path d="m18.511 194.79-0.508-0.71967 0.08467-0.0423 0.46567 0.71967-0.04233 0.0423"/>
   <path d="m18.554 194.75-0.508-0.71967 0.04233-0.0423 0.508 0.71967-0.04233 0.0423"/>
   <path d="m18.554 194.75-0.46567-0.71967 0.04233-0.0423 0.508 0.71967-0.08467 0.0423"/>
   <path d="m18.596 194.7-0.508-0.71967 0.08467-0.0423 0.508 0.71967-0.08467 0.0423"/>
   <path d="m18.638 194.7-0.508-0.71967 0.08467-0.0423 0.508 0.67733-0.08467 0.0847"/>
   <path d="m18.681 194.66-0.508-0.71967h0.04233l0.508 0.67734-0.04233 0.0423"/>
   <path d="m18.723 194.62-0.508-0.67733 0.508 0.67733"/>
  </g>
  <path d="m17.157 194.66 1.0583-0.71967 0.508 0.67734-1.0583 0.71966z" fill="none" stroke="#1f1a17" stroke-linecap="round" stroke-linejoin="round" stroke-miterlimit="10" stroke-width=".06604"/>
  <g fill="#fff" fill-rule="evenodd">
   <path d="m14.193 196.95 0.508 0.67733-0.04233 0.0423-0.508-0.71967h0.04233"/>
   <path d="m14.659 197.67-0.508-0.71967 0.08467-0.0423 0.508 0.71967-0.08467 0.0423"/>
   <path d="m14.701 197.62-0.508-0.67733 0.08467-0.0423 0.508 0.67734-0.08467 0.0423"/>
   <path d="m14.744 197.62-0.508-0.71967 0.08467-0.0423 0.508 0.71967-0.08467 0.0423"/>
   <path d="m14.786 197.58-0.508-0.67733 0.08467-0.0847 0.46567 0.71967-0.04233 0.0423"/>
   <path d="m14.828 197.58-0.508-0.71967 0.04233-0.0423 0.508 0.71967-0.04233 0.0423"/>
   <path d="m14.828 197.54-0.46567-0.71967 0.04233-0.0423 0.508 0.71967-0.08467 0.0423"/>
   <path d="m14.871 197.54-0.508-0.71967 0.08467-0.0423 0.508 0.71967-0.08467 0.0423"/>
   <path d="m14.913 197.5-0.508-0.71967 0.08467-0.0423 0.508 0.71967-0.08467 0.0423"/>
   <path d="m14.955 197.5-0.508-0.71967 0.08467-0.0423 0.46567 0.67733-0.04233 0.0847"/>
   <path d="m14.998 197.45-0.508-0.71967 0.04233-0.0423 0.508 0.71967-0.04233 0.0423"/>
   <path d="m14.998 197.41-0.46567-0.67733 0.04233-0.0847 0.508 0.71967-0.08467 0.0423"/>
   <path d="m15.04 197.41-0.508-0.71967 0.08467-0.0423 0.508 0.71967-0.08467 0.0423"/>
   <path d="m15.082 197.37-0.508-0.71967 0.08467-0.0423 0.508 0.71967-0.08467 0.0423"/>
   <path d="m15.125 197.37-0.508-0.71967 0.08467-0.0423 0.46567 0.71967-0.04233 0.0423"/>
   <path d="m15.167 197.33-0.508-0.71967 0.04233-0.0423 0.508 0.71967-0.04233 0.0423"/>
   <path d="m15.167 197.33-0.46567-0.71967 0.04233-0.0423 0.508 0.67733-0.08467 0.0847"/>
   <path d="m15.209 197.29-0.508-0.71967 0.08467-0.0423 0.508 0.71967-0.08467 0.0423"/>
   <path d="m15.252 197.24-0.508-0.67733 0.08467-0.0423 0.508 0.67734-0.08467 0.0423"/>
   <path d="m15.294 197.24-0.508-0.71967 0.08467-0.0423 0.46567 0.71967-0.04233 0.0423"/>
   <path d="m15.336 197.2-0.508-0.67733 0.04233-0.0847 0.508 0.71967-0.04233 0.0423"/>
   <path d="m15.336 197.2-0.46567-0.71967 0.04233-0.0423 0.508 0.71967-0.08467 0.0423"/>
   <path d="m15.379 197.16-0.508-0.71967 0.08467-0.0423zm0.08467-0.0423-0.08467 0.0423 0.08467-0.0423"/>
   <path d="m15.421 197.16-0.508-0.71967 0.08467-0.0423 0.508 0.71967-0.08467 0.0423"/>
   <path d="m15.463 197.12-0.508-0.71967 0.08467-0.0423 0.508 0.71967-0.08467 0.0423"/>
   <path d="m15.506 197.12-0.508-0.71967 0.04233-0.0423 0.508 0.67733-0.04233 0.0847"/>
   <path d="m15.548 197.07-0.508-0.71967 0.04233-0.0423 0.508 0.71967-0.04233 0.0423"/>
   <path d="m15.548 197.03-0.508-0.67733 0.08467-0.0847 0.508 0.71967-0.08467 0.0423"/>
   <path d="m15.59 197.03-0.508-0.71967 0.08467-0.0423 0.508 0.71967-0.08467 0.0423"/>
   <path d="m15.633 196.99-0.508-0.71967 0.08467-0.0423 0.508 0.71967-0.08467 0.0423"/>
   <path d="m15.675 196.99-0.508-0.71967 0.04233-0.0423 0.508 0.71967-0.04233 0.0423"/>
   <path d="m15.717 196.95-0.508-0.71967 0.508 0.71967"/>
  </g>
  <path d="m14.151 196.95 1.0583-0.71967 0.508 0.71967-1.0583 0.71967z" fill="none" stroke="#1f1a17" stroke-linecap="round" stroke-linejoin="round" stroke-miterlimit="10" stroke-width=".06604"/>
  <g fill="#fff" fill-rule="evenodd">
   <path d="m15.506 192.63 0.04233-0.0423 0.508 0.71966h-0.04233l-0.508-0.67733"/>
   <path d="m16.014 193.31-0.46567-0.67733 0.04233-0.0423 0.508 0.67734-0.08467 0.0423"/>
   <path d="m16.056 193.31-0.508-0.71967 0.08467-0.0423 0.508 0.71967-0.08467 0.0423"/>
   <path d="m16.098 193.26-0.508-0.67733 0.08467-0.0847 0.508 0.71967-0.08467 0.0423"/>
   <path d="m16.141 193.26-0.508-0.71967 0.08467-0.0423 0.46567 0.71967-0.04233 0.0423"/>
   <path d="m16.183 193.22-0.508-0.71967 0.04233-0.0423 0.508 0.71967-0.04233 0.0423"/>
   <path d="m16.183 193.22-0.46567-0.71967 0.04233-0.0423 0.508 0.67733-0.08467 0.0847"/>
   <path d="m16.225 193.18-0.508-0.71967 0.08467-0.0423 0.508 0.71967-0.08467 0.0423"/>
   <path d="m16.268 193.14-0.508-0.67733 0.08467-0.0423 0.508 0.67734-0.08467 0.0423"/>
   <path d="m16.31 193.14-0.508-0.71967 0.08467-0.0423 0.508 0.71967-0.08467 0.0423"/>
   <path d="m16.352 193.09-0.508-0.67733 0.04233-0.0847 0.508 0.71967-0.04233 0.0423"/>
   <path d="m16.395 193.09-0.508-0.71967 0.04233-0.0423 0.508 0.71967-0.04233 0.0423"/>
   <path d="m16.395 193.05-0.508-0.71967 0.08467-0.0423 0.508 0.71967-0.08467 0.0423"/>
   <path d="m16.437 193.05-0.508-0.71967 0.08467-0.0423 0.508 0.71967-0.08467 0.0423"/>
   <path d="m16.479 193.01-0.508-0.71967 0.08467-0.0423 0.508 0.71967-0.08467 0.0423"/>
   <path d="m16.522 193.01-0.508-0.71967 0.08467-0.0423 0.46567 0.67733-0.04233 0.0847"/>
   <path d="m16.564 192.97-0.508-0.71967 0.04233-0.0423 0.508 0.71967-0.04233 0.0423"/>
   <path d="m16.564 192.92-0.46567-0.67733 0.04233-0.0847 0.508 0.71967-0.08467 0.0423"/>
   <path d="m16.606 192.92-0.508-0.71967 0.08467-0.0423 0.508 0.71967-0.08467 0.0423"/>
   <path d="m16.649 192.88-0.508-0.71967 0.08467-0.0423 0.508 0.71967-0.08467 0.0423"/>
   <path d="m16.691 192.88-0.508-0.71967 0.08467-0.0423 0.46567 0.71967-0.04233 0.0423"/>
   <path d="m16.733 192.84-0.508-0.71967 0.04233-0.0423 0.508 0.71967-0.04233 0.0423"/>
   <path d="m16.733 192.84-0.46567-0.71967 0.04233-0.0423 0.508 0.67733-0.08467 0.0847"/>
   <path d="m16.776 192.8-0.508-0.71967 0.08467-0.0423 0.508 0.71967-0.08467 0.0423"/>
   <path d="m16.818 192.76-0.508-0.67733 0.08467-0.0423 0.508 0.67734-0.08467 0.0423"/>
   <path d="m16.86 192.76-0.508-0.71967 0.08467-0.0423 0.46567 0.71967-0.04233 0.0423"/>
   <path d="m16.903 192.71-0.508-0.67733 0.04233-0.0847 0.508 0.71967-0.04233 0.0423"/>
   <path d="m16.903 192.71-0.46567-0.71967 0.04233-0.0423 0.508 0.71967-0.08467 0.0423"/>
   <path d="m16.945 192.67-0.508-0.71967 0.08467-0.0423 0.508 0.71967-0.08467 0.0423"/>
   <path d="m16.987 192.67-0.508-0.71967 0.08467-0.0423 0.508 0.71967-0.08467 0.0423"/>
   <path d="m17.03 192.63-0.508-0.71967h0.04233l0.508 0.67734-0.04233 0.0423"/>
   <path d="m17.072 192.63-0.508-0.71967 0.508 0.67734v0.0423"/>
  </g>
  <path d="m15.506 192.63 1.0583-0.71967 0.508 0.67734-1.0583 0.71966z" fill="none" stroke="#1f1a17" stroke-linecap="round" stroke-linejoin="round" stroke-miterlimit="10" stroke-width=".06604"/>
  <g fill="#fff" fill-rule="evenodd">
   <path d="m12.627 195.04 0.04233-0.0423 0.46567 0.71966v0.0423l-0.508-0.71967"/>
   <path d="m13.135 195.72-0.508-0.67733 0.04233-0.0423 0.508 0.67734-0.04233 0.0423"/>
   <path d="m13.135 195.72-0.46567-0.71967 0.04233-0.0423 0.508 0.71967-0.08467 0.0423"/>
   <path d="m13.177 195.68-0.508-0.67733 0.08467-0.0847 0.508 0.71967-0.08467 0.0423"/>
   <path d="m13.22 195.68-0.508-0.71967 0.08467-0.0423 0.508 0.71967-0.08467 0.0423"/>
   <path d="m13.262 195.63-0.508-0.71967 0.08467-0.0423 0.46567 0.71967-0.04233 0.0423"/>
   <path d="m13.304 195.63-0.508-0.71967 0.04233-0.0423 0.508 0.67733-0.04233 0.0847"/>
   <path d="m13.304 195.59-0.46567-0.71967 0.04233-0.0423 0.508 0.71967-0.08467 0.0423"/>
   <path d="m13.347 195.55-0.508-0.67733 0.08467-0.0423 0.508 0.67734-0.08467 0.0423"/>
   <path d="m13.389 195.55-0.508-0.71967 0.08467-0.0423 0.508 0.71967-0.08467 0.0423"/>
   <path d="m13.431 195.51-0.508-0.67733 0.08467-0.0847 0.508 0.71967-0.08467 0.0423"/>
   <path d="m13.474 195.51-0.508-0.71967 0.08467-0.0423 0.46567 0.71967-0.04233 0.0423"/>
   <path d="m13.516 195.46-0.508-0.71967 0.04233-0.0423 0.508 0.71967-0.04233 0.0423"/>
   <path d="m13.516 195.46-0.46567-0.71967 0.04233-0.0423 0.508 0.71967-0.08467 0.0423"/>
   <path d="m13.558 195.42-0.508-0.71967 0.08467-0.0423 0.508 0.71967-0.08467 0.0423"/>
   <path d="m13.601 195.42-0.508-0.71967 0.08467-0.0423 0.508 0.67733-0.08467 0.0847"/>
   <path d="m13.643 195.38-0.508-0.71967 0.08467-0.0423 0.46567 0.71967-0.04233 0.0423"/>
   <path d="m13.685 195.34-0.508-0.67733 0.04233-0.0847 0.508 0.71967-0.04233 0.0423"/>
   <path d="m13.685 195.34-0.46567-0.71967 0.04233-0.0423 0.508 0.71967-0.08467 0.0423"/>
   <path d="m13.728 195.3-0.508-0.71967 0.08467-0.0423 0.508 0.71967-0.08467 0.0423"/>
   <path d="m13.77 195.3-0.508-0.71967 0.08467-0.0423 0.508 0.71967-0.08467 0.0423"/>
   <path d="m13.812 195.25-0.508-0.71967 0.08467-0.0423 0.46567 0.71967-0.04233 0.0423"/>
   <path d="m13.855 195.25-0.508-0.71967 0.04233-0.0423 0.508 0.71967-0.04233 0.0423"/>
   <path d="m13.855 195.21-0.46567-0.71967 0.04233-0.0423 0.508 0.71967-0.08467 0.0423"/>
   <path d="m13.897 195.21-0.508-0.71967 0.08467-0.0423 0.508 0.67733-0.08467 0.0847"/>
   <path d="m13.939 195.17-0.508-0.71967 0.08467-0.0423 0.508 0.71967-0.08467 0.0423"/>
   <path d="m13.982 195.13-0.508-0.67733 0.08467-0.0847 0.46567 0.71967-0.04233 0.0423"/>
   <path d="m14.024 195.13-0.508-0.71967 0.04233-0.0423 0.508 0.71967-0.04233 0.0423"/>
   <path d="m14.024 195.08-0.46567-0.71967 0.04233-0.0423 0.508 0.71967-0.08467 0.0423"/>
   <path d="m14.066 195.08-0.508-0.71967 0.08467-0.0423 0.508 0.71967-0.08467 0.0423"/>
   <path d="m14.109 195.04-0.508-0.71967h0.04233l0.508 0.67734-0.04233 0.0423"/>
   <path d="m14.151 195.04-0.508-0.71967 0.508 0.67734v0.0423"/>
  </g>
  <path d="m12.627 195.04 1.016-0.71967 0.508 0.67734-1.016 0.762z" fill="none" stroke="#1f1a17" stroke-linecap="round" stroke-linejoin="round" stroke-miterlimit="10" stroke-width=".06604"/>
  <g fill="#fff" fill-rule="evenodd">
   <path d="m13.77 190.6 0.04233-0.0423 0.508 0.71966-0.04233 0.0423-0.508-0.71967"/>
   <path d="m14.278 191.32-0.508-0.71967 0.08467-0.0423 0.508 0.67733-0.08467 0.0847"/>
   <path d="m14.32 191.27-0.508-0.71967 0.08467-0.0423 0.508 0.71967-0.08467 0.0423"/>
   <path d="m14.363 191.23-0.508-0.67733 0.08467-0.0847 0.46567 0.71967-0.04233 0.0423"/>
   <path d="m14.405 191.23-0.508-0.71967 0.04233-0.0423 0.508 0.71967-0.04233 0.0423"/>
   <path d="m14.405 191.19-0.46567-0.71967 0.04233-0.0423 0.508 0.71967-0.08467 0.0423"/>
   <path d="m14.447 191.19-0.508-0.71967 0.08467-0.0423 0.508 0.71967-0.08467 0.0423"/>
   <path d="m14.49 191.15-0.508-0.71967 0.08467-0.0423 0.508 0.71967-0.08467 0.0423"/>
   <path d="m14.532 191.15-0.508-0.71967 0.08467-0.0423 0.46567 0.67733-0.04233 0.0847"/>
   <path d="m14.574 191.1-0.508-0.71967 0.04233-0.0423 0.508 0.71967-0.04233 0.0423"/>
   <path d="m14.574 191.06-0.46567-0.67733 0.04233-0.0423 0.508 0.67734-0.08467 0.0423"/>
   <path d="m14.617 191.06-0.508-0.71967 0.08467-0.0423 0.508 0.71967-0.08467 0.0423"/>
   <path d="m14.659 191.02-0.508-0.67733 0.08467-0.0847 0.508 0.71967-0.08467 0.0423"/>
   <path d="m14.701 191.02-0.508-0.71967 0.08467-0.0423 0.46567 0.71967-0.04233 0.0423"/>
   <path d="m14.744 190.98-0.508-0.71967 0.04233-0.0423 0.508 0.71967-0.04233 0.0423"/>
   <path d="m14.744 190.98-0.46567-0.71967 0.04233-0.0423 0.508 0.71967-0.08467 0.0423"/>
   <path d="m14.786 190.94-0.508-0.71967 0.08467-0.0423 0.508 0.71967-0.08467 0.0423"/>
   <path d="m14.828 190.94-0.508-0.71967 0.08467-0.0423 0.508 0.67733-0.08467 0.0847"/>
   <path d="m14.871 190.89-0.508-0.71967 0.08467-0.0423 0.508 0.71967-0.08467 0.0423"/>
   <path d="m14.913 190.85-0.508-0.67733 0.04233-0.0847 0.508 0.71967-0.04233 0.0423"/>
   <path d="m14.955 190.85-0.508-0.71967 0.04233-0.0423 0.508 0.71967-0.04233 0.0423"/>
   <path d="m14.955 190.81-0.508-0.71967 0.08467-0.0423 0.508 0.71967-0.08467 0.0423"/>
   <path d="m14.998 190.81-0.508-0.71967 0.08467-0.0423 0.508 0.71967-0.08467 0.0423"/>
   <path d="m15.04 190.77-0.508-0.71967 0.08467-0.0423 0.508 0.71967-0.08467 0.0423"/>
   <path d="m15.082 190.77-0.508-0.71967 0.08467-0.0423 0.46567 0.67733-0.04233 0.0847"/>
   <path d="m15.125 190.72-0.508-0.71967 0.04233-0.0423 0.508 0.71967-0.04233 0.0423"/>
   <path d="m15.125 190.68-0.46567-0.67733 0.04233-0.0423 0.508 0.67734-0.08467 0.0423"/>
   <path d="m15.167 190.68-0.508-0.71967 0.08467-0.0423 0.508 0.71967-0.08467 0.0423"/>
   <path d="m15.209 190.64-0.508-0.67733 0.08467-0.0847 0.508 0.71967-0.08467 0.0423"/>
   <path d="m15.252 190.64-0.508-0.71967 0.08467-0.0423 0.46567 0.71967-0.04233 0.0423"/>
   <path d="m15.294 190.6-0.508-0.71967h0.04233l0.46567 0.71967"/>
   <path d="m15.294 190.6-0.46567-0.71967 0.46567 0.71967"/>
  </g>
  <path d="m13.77 190.6 1.0583-0.71967 0.46567 0.71967-1.016 0.71967z" fill="none" stroke="#1f1a17" stroke-linecap="round" stroke-linejoin="round" stroke-miterlimit="10" stroke-width=".06604"/>
  <g fill="#fff" fill-rule="evenodd">
   <path d="m10.764 192.92 0.04233-0.0423 0.508 0.71966h-0.04233l-0.508-0.67733"/>
   <path d="m11.272 193.6-0.508-0.71967 0.08467-0.0423 0.508 0.71967-0.08467 0.0423"/>
   <path d="m11.315 193.6-0.508-0.71967 0.08467-0.0423 0.508 0.71967-0.08467 0.0423"/>
   <path d="m11.357 193.56-0.508-0.71967 0.04233-0.0423 0.508 0.71967-0.04233 0.0423"/>
   <path d="m11.399 193.56-0.508-0.71967 0.04233-0.0423 0.508 0.67733-0.04233 0.0847"/>
   <path d="m11.399 193.52-0.508-0.71967 0.08467-0.0423 0.508 0.71967-0.08467 0.0423"/>
   <path d="m11.442 193.48-0.508-0.67733 0.08467-0.0423 0.508 0.67734-0.08467 0.0423"/>
   <path d="m11.484 193.48-0.508-0.71967 0.08467-0.0423 0.508 0.71967-0.08467 0.0423"/>
   <path d="m11.526 193.43-0.508-0.67733 0.08467-0.0847 0.46567 0.71967-0.04233 0.0423"/>
   <path d="m11.569 193.43-0.508-0.71967 0.04233-0.0423 0.508 0.71967-0.04233 0.0423"/>
   <path d="m11.569 193.39-0.46567-0.71967 0.04233-0.0423 0.508 0.71967-0.08467 0.0423"/>
   <path d="m11.611 193.39-0.508-0.71967 0.08467-0.0423 0.508 0.71967-0.08467 0.0423"/>
   <path d="m11.653 193.35-0.508-0.71967 0.08467-0.0423 0.508 0.71967-0.08467 0.0423"/>
   <path d="m11.696 193.35-0.508-0.71967 0.08467-0.0423 0.46567 0.67733-0.04233 0.0847"/>
   <path d="m11.738 193.31-0.508-0.71967 0.04233-0.0423 0.508 0.71967-0.04233 0.0423"/>
   <path d="m11.738 193.26-0.46567-0.67733 0.04233-0.0847 0.508 0.71967-0.08467 0.0423"/>
   <path d="m11.78 193.26-0.508-0.71967 0.08467-0.0423 0.508 0.71967-0.08467 0.0423"/>
   <path d="m11.823 193.22-0.508-0.71967 0.08467-0.0423 0.508 0.71967-0.08467 0.0423"/>
   <path d="m11.865 193.22-0.508-0.71967 0.08467-0.0423 0.46567 0.71967-0.04233 0.0423"/>
   <path d="m11.907 193.18-0.508-0.71967 0.04233-0.0423 0.508 0.71967-0.04233 0.0423"/>
   <path d="m11.907 193.18-0.46567-0.71967 0.04233-0.0423 0.508 0.67733-0.08467 0.0847"/>
   <path d="m11.95 193.14-0.508-0.71967 0.08467-0.0423 0.508 0.71967-0.08467 0.0423"/>
   <path d="m11.992 193.09-0.508-0.67733 0.08467-0.0423 0.508 0.67734-0.08467 0.0423"/>
   <path d="m12.034 193.09-0.508-0.71967 0.08467-0.0423 0.508 0.71967-0.08467 0.0423"/>
   <path d="m12.077 193.05-0.508-0.67733 0.04233-0.0847 0.508 0.71967-0.04233 0.0423"/>
   <path d="m12.119 193.05-0.508-0.71967 0.04233-0.0423 0.508 0.71967-0.04233 0.0423"/>
   <path d="m12.119 193.01-0.508-0.71967 0.08467-0.0423 0.508 0.71967-0.08467 0.0423"/>
   <path d="m12.161 193.01-0.508-0.71967 0.08467-0.0423 0.508 0.67733-0.08467 0.0847"/>
   <path d="m12.204 192.97-0.508-0.71967 0.08467-0.0423 0.508 0.71967-0.08467 0.0423"/>
   <path d="m12.246 192.92-0.508-0.67733 0.08467-0.0423 0.46567 0.67734-0.04233 0.0423"/>
   <path d="m12.288 192.92-0.508-0.71967h0.04233l0.46567 0.67734v0.0423"/>
   <path d="m12.288 192.88-0.46567-0.67733 0.46567 0.67733"/>
  </g>
  <path d="m10.764 192.92 1.0583-0.71967 0.46567 0.67734-1.016 0.71966z" fill="none" stroke="#1f1a17" stroke-linecap="round" stroke-linejoin="round" stroke-miterlimit="10" stroke-width=".06604"/>
  <g fill="#fff" fill-rule="evenodd">
   <path d="m12.246 188.73 0.508 0.71967h-0.04233l-0.46567-0.71967"/>
   <path d="m12.712 189.45-0.46567-0.71967 0.04233-0.0423 0.508 0.71967-0.08467 0.0423"/>
   <path d="m12.754 189.45-0.508-0.71967 0.08467-0.0423 0.508 0.71967-0.08467 0.0423"/>
   <path d="m12.796 189.41-0.508-0.71967 0.08467-0.0423 0.508 0.71967-0.08467 0.0423"/>
   <path d="m12.839 189.41-0.508-0.71967 0.08467-0.0423 0.508 0.67733-0.08467 0.0847"/>
   <path d="m12.881 189.37-0.508-0.71967 0.04233-0.0423 0.508 0.71967-0.04233 0.0423"/>
   <path d="m12.923 189.33-0.508-0.67733 0.04233-0.0847 0.508 0.71967-0.04233 0.0423"/>
   <path d="m12.923 189.33-0.508-0.71967 0.08467-0.0423 0.508 0.71967-0.08467 0.0423"/>
   <path d="m12.966 189.28-0.508-0.71967 0.08467-0.0423 0.508 0.71967-0.08467 0.0423"/>
   <path d="m13.008 189.28-0.508-0.71967 0.08467-0.0423 0.508 0.71967-0.08467 0.0423"/>
   <path d="m13.05 189.24-0.508-0.71967 0.08467-0.0423 0.46567 0.71967-0.04233 0.0423"/>
   <path d="m13.093 189.24-0.508-0.71967 0.04233-0.0423 0.508 0.67733-0.04233 0.0847"/>
   <path d="m13.093 189.2-0.46567-0.71967 0.04233-0.0423 0.508 0.71967-0.08467 0.0423"/>
   <path d="m13.135 189.16-0.508-0.67733 0.08467-0.0423 0.508 0.67734-0.08467 0.0423"/>
   <path d="m13.177 189.16-0.508-0.71967 0.08467-0.0423 0.508 0.71967-0.08467 0.0423"/>
   <path d="m13.22 189.11-0.508-0.67733 0.08467-0.0847 0.46567 0.71967-0.04233 0.0423"/>
   <path d="m13.262 189.11-0.508-0.71967 0.04233-0.0423 0.508 0.71967-0.04233 0.0423"/>
   <path d="m13.262 189.07-0.46567-0.71967 0.04233-0.0423 0.508 0.71967-0.08467 0.0423"/>
   <path d="m13.304 189.07-0.508-0.71967 0.08467-0.0423 0.508 0.71967-0.08467 0.0423"/>
   <path d="m13.347 189.03-0.508-0.71967 0.08467-0.0423 0.508 0.71967-0.08467 0.0423"/>
   <path d="m13.389 189.03-0.508-0.71967 0.08467-0.0423 0.46567 0.67733-0.04233 0.0847"/>
   <path d="m13.431 188.99-0.508-0.71967 0.04233-0.0423 0.508 0.71967-0.04233 0.0423"/>
   <path d="m13.431 188.95-0.46567-0.67733 0.04233-0.0847 0.508 0.71967-0.08467 0.0423"/>
   <path d="m13.474 188.95-0.508-0.71967 0.08467-0.0423 0.508 0.71967-0.08467 0.0423"/>
   <path d="m13.516 188.9-0.508-0.71967 0.08467-0.0423 0.508 0.71967-0.08467 0.0423"/>
   <path d="m13.558 188.9-0.508-0.71967 0.08467-0.0423 0.46567 0.71967-0.04233 0.0423"/>
   <path d="m13.601 188.86-0.508-0.71967 0.04233-0.0423 0.508 0.71967-0.04233 0.0423"/>
   <path d="m13.601 188.86-0.46567-0.71967 0.04233-0.0423 0.508 0.67733-0.08467 0.0847"/>
   <path d="m13.643 188.82-0.508-0.71967 0.08467-0.0423 0.508 0.71967-0.08467 0.0423"/>
   <path d="m13.685 188.78-0.508-0.67733 0.08467-0.0423 0.508 0.67734-0.08467 0.0423"/>
   <path d="m13.728 188.78-0.508-0.71967 0.04233-0.0423 0.508 0.71967-0.04233 0.0423"/>
   <path d="m13.77 188.73-0.508-0.67733v-0.0423l0.508 0.71967"/>
  </g>
  <path d="m12.246 188.73 1.016-0.71967 0.508 0.71967-1.0583 0.71967z" fill="none" stroke="#1f1a17" stroke-linecap="round" stroke-linejoin="round" stroke-miterlimit="10" stroke-width=".06604"/>
  <g fill="#fff" fill-rule="evenodd">
   <path d="m9.1132 190.98 0.042333-0.0423 0.508 0.71966-0.042333 0.0423-0.508-0.71967"/>
   <path d="m9.6212 191.7-0.508-0.71967 0.084667-0.0423 0.508 0.71967-0.084667 0.0423"/>
   <path d="m9.6635 191.65-0.508-0.71967 0.084667-0.0423 0.508 0.71967-0.084667 0.0423"/>
   <path d="m9.7058 191.65-0.508-0.71967 0.084667-0.0423 0.46567 0.67733-0.042333 0.0847"/>
   <path d="m9.7482 191.61-0.508-0.71967 0.042333-0.0423 0.508 0.71967-0.042333 0.0423"/>
   <path d="m9.7482 191.57-0.46567-0.67733 0.042333-0.0847 0.508 0.71967-0.084667 0.0423"/>
   <path d="m9.7905 191.57-0.508-0.71967 0.084667-0.0423 0.508 0.71967-0.084667 0.0423"/>
   <path d="m9.8328 191.53-0.508-0.71967 0.084667-0.0423 0.508 0.71967-0.084667 0.0423"/>
   <path d="m9.8752 191.53-0.508-0.71967 0.084667-0.0423 0.46567 0.71967-0.042333 0.0423"/>
   <path d="m9.9175 191.49-0.508-0.71967 0.042333-0.0423 0.508 0.71967-0.042333 0.0423"/>
   <path d="m9.9175 191.49-0.46567-0.71967 0.042333-0.0423 0.508 0.67733-0.084667 0.0847"/>
   <path d="m9.9598 191.44-0.508-0.71967 0.084667-0.0423 0.508 0.71967-0.084667 0.0423"/>
   <path d="m10.002 191.4-0.508-0.67733 0.084667-0.0423 0.508 0.67734-0.08467 0.0423"/>
   <path d="m10.045 191.4-0.508-0.71967 0.084667-0.0423 0.46567 0.71967-0.04233 0.0423"/>
   <path d="m10.087 191.36-0.508-0.67733 0.042333-0.0847 0.508 0.71967-0.04233 0.0423"/>
   <path d="m10.087 191.36-0.46567-0.71967 0.042333-0.0423 0.508 0.71967-0.08467 0.0423"/>
   <path d="m10.129 191.32-0.508-0.71967 0.084667-0.0423 0.508 0.71967-0.08467 0.0423"/>
   <path d="m10.172 191.32-0.508-0.71967 0.084667-0.0423 0.508 0.71967-0.08467 0.0423"/>
   <path d="m10.214 191.27-0.508-0.71967 0.084667-0.0423 0.46567 0.71967-0.04233 0.0423"/>
   <path d="m10.256 191.27-0.508-0.71967 0.042333-0.0423 0.508 0.67733-0.04233 0.0847"/>
   <path d="m10.256 191.23-0.46567-0.71967 0.042333-0.0423 0.508 0.71967-0.08467 0.0423"/>
   <path d="m10.299 191.19-0.508-0.67733 0.084667-0.0847 0.508 0.71967-0.08467 0.0423"/>
   <path d="m10.341 191.19-0.508-0.71967 0.084667-0.0423 0.508 0.71967-0.08467 0.0423"/>
   <path d="m10.383 191.15-0.508-0.71967 0.084667-0.0423 0.508 0.71967-0.08467 0.0423"/>
   <path d="m10.426 191.15-0.508-0.71967 0.084667-0.0423 0.46567 0.71967-0.04233 0.0423"/>
   <path d="m10.468 191.1-0.508-0.71967 0.042333-0.0423 0.508 0.71967-0.04233 0.0423"/>
   <path d="m10.468 191.1-0.46567-0.71967 0.04233-0.0423 0.508 0.67733-0.08467 0.0847"/>
   <path d="m10.51 191.06-0.508-0.71967 0.08467-0.0423 0.508 0.71967-0.08467 0.0423"/>
   <path d="m10.553 191.02-0.508-0.67733 0.08467-0.0423 0.508 0.67734-0.08467 0.0423"/>
   <path d="m10.595 191.02-0.508-0.71967 0.08467-0.0423 0.46567 0.71967-0.04233 0.0423"/>
   <path d="m10.637 190.98-0.508-0.67733 0.04233-0.0423 0.46567 0.71967"/>
   <path d="m10.637 190.98-0.46567-0.71967 0.46567 0.71967"/>
  </g>
  <path d="m9.1132 190.98 1.0583-0.71967 0.46567 0.71967-1.016 0.71967z" fill="none" stroke="#1f1a17" stroke-linecap="round" stroke-linejoin="round" stroke-miterlimit="10" stroke-width=".06604"/>
 </g>
</svg>
