<?xml version="1.0" encoding="UTF-8" standalone="no"?>
<!-- Created with Inkscape (http://www.inkscape.org/) -->

<svg
   width="20.137121mm"
   height="25.174789mm"
   viewBox="0 0 20.137121 25.17479"
   version="1.1"
   id="svg1"
   xmlns="http://www.w3.org/2000/svg"
   xmlns:svg="http://www.w3.org/2000/svg">
  <defs
     id="defs1">
    <clipPath
       clipPathUnits="userSpaceOnUse"
       id="clipPath106">
      <path
         d="m 293.64,379.46 h 30.72 v 30 h -30.72 z"
         transform="translate(-294.66003,-409.46001)"
         id="path106" />
    </clipPath>
    <clipPath
       clipPathUnits="userSpaceOnUse"
       id="clipPath151">
      <path
         d="m 2232,5240.67 h 308 v -310 h -308 z"
         transform="translate(-2385.9998,-5240.6699)"
         id="path151" />
    </clipPath>
    <clipPath
       clipPathUnits="userSpaceOnUse"
       id="clipPath159">
      <path
         d="m 2177,3883.67 h 418 v -1037 h -418 z"
         transform="translate(2.0833333e-4,2.0833333e-4)"
         id="path159" />
    </clipPath>
    <clipPath
       clipPathUnits="userSpaceOnUse"
       id="clipPath176">
      <path
         d="m 2177,2430.67 h 418 v -1037 h -418 z"
         transform="translate(2.0833333e-4,2.0833333e-4)"
         id="path176" />
    </clipPath>
    <clipPath
       clipPathUnits="userSpaceOnUse"
       id="clipPath270">
      <path
         d="m 2177,3851.67 h 418 v -1036 h -418 z"
         transform="translate(0,2.0833333e-4)"
         id="path270" />
    </clipPath>
    <clipPath
       clipPathUnits="userSpaceOnUse"
       id="clipPath287">
      <path
         d="m 2177,2399.67 h 418 v -1037 h -418 z"
         transform="translate(0,2.0833333e-4)"
         id="path287" />
    </clipPath>
    <clipPath
       clipPathUnits="userSpaceOnUse"
       id="clipPath373">
      <path
         d="m 2380,4896.67 h 39 v -653 h -39 z"
         transform="matrix(1.0363639,0,0,-0.96609957,-2502.8204,4728.75)"
         id="path373" />
    </clipPath>
    <clipPath
       clipPathUnits="userSpaceOnUse"
       id="clipPath380">
      <path
         d="m 2246,5184.67 h 306 v -310 h -306 z"
         transform="matrix(1.0363639,0,0,-0.96609957,-2486.2399,5008.9199)"
         id="path380" />
    </clipPath>
    <clipPath
       clipPathUnits="userSpaceOnUse"
       id="clipPath385">
      <path
         d="m 2221,4801.67 h 331 v -341 h -331 z"
         transform="matrix(1.0363639,0,0,-0.96609957,-2643.7601,4313.3198)"
         id="path385" />
    </clipPath>
    <clipPath
       clipPathUnits="userSpaceOnUse"
       id="clipPath391">
      <path
         d="m 2177,3780.67 h 418 v -1036 h -418 z"
         transform="translate(-2.0833333e-4,2.0833333e-4)"
         id="path391" />
    </clipPath>
    <clipPath
       clipPathUnits="userSpaceOnUse"
       id="clipPath408">
      <path
         d="m 2177,2327.67 h 418 v -1036 h -418 z"
         transform="translate(-2.0833333e-4,2.0833333e-4)"
         id="path408" />
    </clipPath>
    <clipPath
       clipPathUnits="userSpaceOnUse"
       id="clipPath510">
      <path
         d="m 2177,4125.67 h 418 v -1036 h -418 z"
         transform="translate(2.0833332e-4,2.0833333e-4)"
         id="path510" />
    </clipPath>
    <clipPath
       clipPathUnits="userSpaceOnUse"
       id="clipPath528">
      <path
         d="m 2177,2587.67 h 418 v -1036 h -418 z"
         transform="translate(2.0833332e-4,2.0833333e-4)"
         id="path528" />
    </clipPath>
  </defs>
  <g
     id="layer1"
     transform="translate(-8.9955329,-198.43751)">
    <path
       id="path568"
       d="M 9.0310929,223.57674 H 29.097094 V 198.47307 H 9.0310929 Z"
       style="fill:#969594;fill-opacity:1;fill-rule:evenodd;stroke:#1f1a17;stroke-width:0.07112;stroke-linecap:round;stroke-linejoin:round;stroke-miterlimit:10;stroke-dasharray:none;stroke-opacity:1" />
    <g
       id="g1">
      <path
         id="path569"
         d="m 25.244754,218.70841 0.04233,-0.0423 h 0.04233 l 0.04233,-0.0423 h 0.04233 l 0.04233,-0.0423 h 0.04233 l 0.04233,-0.0423 h 0.211667 l 0.04233,-0.0423 h 0.08467 l 0.04233,0.0423 h 0.211667 l 0.04233,0.0423 h 0.04233 l 0.04233,0.0423 h 0.04233 l 0.04233,0.0423 h 0.04233 l 0.04233,0.0423 0.04233,0.0423 h 0.04233 v 0.0423 l 0.04233,0.0423 0.04233,0.0423 0.04233,0.0423 v 0.0423 l 0.04233,0.0423 0.04233,0.0423 v 0.0423 l 0.04233,0.0423 v 0.0847 l 0.04233,0.0423 v 0.508 l -0.04233,0.0423 v 0.0847 l -0.04233,0.0423 v 0.0423 l -0.04233,0.0423 -0.04233,0.0423 v 0.0423 l -0.04233,0.0423 -0.04233,0.0423 v 0.0423 h -0.04233 l -0.04233,0.0423 -0.04233,0.0423 -0.04233,0.0423 h -0.04233 l -0.04233,0.0423 h -0.04233 l -0.04233,0.0423 h -0.04233 l -0.08467,0.0423 h -0.127 l -0.04233,0.0423 h -0.211666 l -0.04233,-0.0423 h -0.127 l -0.04233,-0.0423 h -0.04233 l -0.04233,-0.0423 h -0.04233 l -0.04233,-0.0423 h -0.04233 l -0.04233,-0.0423 -0.04233,-0.0423 h -0.04233 l -0.04233,-0.0423 -0.04233,-0.0423 v -0.0423 l -0.04233,-0.0423 -0.04233,-0.0423 -0.04233,-0.0423 v -0.0423 l -0.04233,-0.0423 v -0.0423 l -0.04233,-0.0423 v -0.16933 l -0.04233,-0.0423 v -0.254 l 0.04233,-0.0847 v -0.0847 l 0.04233,-0.0423 v -0.0847 l 0.04233,-0.0423 v -0.0423 l 0.04233,-0.0423 0.04233,-0.0423 v -0.0423 l 0.04233,-0.0423 0.04233,-0.0423 h 0.04233 l 0.04233,-0.0423 0.04233,-0.0423"
         style="fill:#ffffff;fill-opacity:1;fill-rule:evenodd;stroke:#1f1a17;stroke-width:0.07112;stroke-linecap:round;stroke-linejoin:round;stroke-miterlimit:10;stroke-dasharray:none;stroke-opacity:1">
         <animate
            attributeName="fill"
            values="#ffffff;#969594"
            dur="1.5s"
            calcMode="discrete"
            repeatCount="indefinite" />
      </path>
      <path
         id="path572"
         d="m 23.551421,216.50708 0.04233,-0.0423 0.04233,-0.0423 h 0.04233 l 0.04233,-0.0423 h 0.04233 l 0.04233,-0.0423 h 0.127 l 0.04233,-0.0423 h 0.296334 l 0.04233,0.0423 h 0.127 l 0.04233,0.0423 h 0.08467 l 0.04233,0.0423 h 0.04233 l 0.04233,0.0423 0.04233,0.0423 h 0.04233 v 0.0423 l 0.04233,0.0423 0.04233,0.0423 0.04233,0.0423 0.04233,0.0423 v 0.0423 l 0.04233,0.0423 0.04233,0.0423 v 0.0423 l 0.04233,0.0423 v 0.0847 l 0.04233,0.0423 v 0.508 l -0.04233,0.0423 v 0.0847 l -0.04233,0.0423 v 0.0423 l -0.04233,0.0423 -0.04233,0.0423 v 0.0423 l -0.04233,0.0423 -0.04233,0.0423 h -0.04233 v 0.0423 l -0.04233,0.0423 -0.04233,0.0423 h -0.04233 l -0.04233,0.0423 -0.04233,0.0423 h -0.04233 l -0.04233,0.0423 h -0.127 l -0.04233,0.0423 h -0.465666 l -0.04233,-0.0423 h -0.08467 l -0.04233,-0.0423 h -0.04233 l -0.04233,-0.0423 -0.04233,-0.0423 h -0.04233 l -0.04233,-0.0423 -0.04233,-0.0423 h -0.04233 l -0.04233,-0.0423 -0.04233,-0.0423 v -0.0423 l -0.04233,-0.0423 -0.04233,-0.0423 v -0.0423 l -0.04233,-0.0423 v -0.0423 l -0.04233,-0.0423 v -0.127 l -0.04233,-0.0423 v -0.33867 l 0.04233,-0.0423 v -0.127 l 0.04233,-0.0423 v -0.0423 l 0.04233,-0.0423 v -0.0423 l 0.04233,-0.0423 0.04233,-0.0423 v -0.0423 l 0.04233,-0.0423 0.04233,-0.0423 0.04233,-0.0423 h 0.04233 l 0.04233,-0.0423"
         style="fill:#ffffff;fill-opacity:1;fill-rule:evenodd;stroke:#1f1a17;stroke-width:0.07112;stroke-linecap:round;stroke-linejoin:round;stroke-miterlimit:10;stroke-dasharray:none;stroke-opacity:1">
         <animate
            attributeName="fill"
            values="#ffffff;#969594"
            dur="1.5s"
            calcMode="discrete"
            repeatCount="indefinite" />
      </path>
      <path
         id="path575"
         d="m 21.942754,214.39041 0.04233,-0.0423 h 0.04233 l 0.04233,-0.0423 h 0.04233 l 0.04233,-0.0423 h 0.04233 l 0.04233,-0.0423 h 0.127 l 0.08467,-0.0423 h 0.127 l 0.04233,0.0423 h 0.211667 l 0.04233,0.0423 h 0.04233 l 0.04233,0.0423 h 0.04233 l 0.04233,0.0423 h 0.04233 l 0.04233,0.0423 0.04233,0.0423 v 0 l 0.04233,0.0423 0.04233,0.0423 0.04233,0.0423 0.04233,0.0423 v 0.0423 l 0.04233,0.0423 0.04233,0.0423 v 0.0423 l 0.04233,0.0423 v 0.0847 l 0.04233,0.0423 v 0.508 l -0.04233,0.0423 v 0.0847 l -0.04233,0.0423 v 0.0423 l -0.04233,0.0423 -0.04233,0.0423 v 0.0423 l -0.04233,0.0423 -0.04233,0.0423 -0.04233,0.0423 v 0.0423 h -0.04233 l -0.04233,0.0423 -0.04233,0.0423 h -0.04233 l -0.04233,0.0423 h -0.04233 l -0.04233,0.0423 h -0.08467 l -0.04233,0.0423 h -0.127 l -0.04233,0.0423 h -0.211666 l -0.04233,-0.0423 h -0.127 l -0.04233,-0.0423 h -0.04233 l -0.04233,-0.0423 h -0.04233 l -0.04233,-0.0423 h -0.04233 l -0.04233,-0.0423 -0.04233,-0.0423 h -0.04233 l -0.04233,-0.0423 -0.04233,-0.0423 -0.04233,-0.0423 v -0.0423 l -0.04233,-0.0423 -0.04233,-0.0423 v -0.0423 l -0.04233,-0.0423 v -0.0423 l -0.04233,-0.0423 v -0.0847 l -0.04233,-0.0847 v -0.33867 l 0.04233,-0.0423 v -0.127 l 0.04233,-0.0423 v -0.0423 l 0.04233,-0.0423 v -0.0423 l 0.04233,-0.0423 0.04233,-0.0423 v -0.0423 l 0.04233,-0.0423 0.04233,-0.0423 h 0.04233 l 0.04233,-0.0423 0.04233,-0.0423"
         style="fill:#ffffff;fill-opacity:1;fill-rule:evenodd;stroke:#1f1a17;stroke-width:0.07112;stroke-linecap:round;stroke-linejoin:round;stroke-miterlimit:10;stroke-dasharray:none;stroke-opacity:1">
         <animate
            attributeName="fill"
            values="#ffffff;#969594"
            dur="1.5s"
            calcMode="discrete"
            repeatCount="indefinite" />
      </path>
      <path
         id="path578"
         d="m 20.122421,212.27375 0.04233,-0.0423 0.04233,-0.0423 h 0.04233 l 0.04233,-0.0423 h 0.04233 l 0.04233,-0.0423 h 0.169333 l 0.04233,-0.0423 h 0.296333 l 0.04233,0.0423 h 0.08467 l 0.04233,0.0423 h 0.08467 l 0.04233,0.0423 h 0.04233 l 0.04233,0.0423 0.04233,0.0423 h 0.04233 l 0.04233,0.0423 0.04233,0.0423 0.04233,0.0423 v 0.0423 l 0.04233,0.0423 0.04233,0.0423 v 0.0423 l 0.04233,0.0423 0.04233,0.0423 v 0.0847 l 0.04233,0.0423 v 0.0847 l 0.04233,0.0847 v 0.21167 l -0.04233,0.0423 v 0.16934 l -0.04233,0.0423 v 0.0423 l -0.04233,0.0423 v 0.0423 l -0.04233,0.0423 v 0.0423 l -0.04233,0.0423 -0.04233,0.0423 v 0.0423 h -0.04233 l -0.04233,0.0423 -0.04233,0.0423 -0.04233,0.0423 -0.04233,0.0423 h -0.04233 l -0.04233,0.0423 h -0.04233 l -0.04233,0.0423 h -0.08467 l -0.04233,0.0423 h -0.508 l -0.04233,-0.0423 h -0.08467 l -0.04233,-0.0423 h -0.04233 l -0.04233,-0.0423 h -0.04233 l -0.04233,-0.0423 -0.04233,-0.0423 -0.04233,-0.0423 h -0.04233 v -0.0423 l -0.04233,-0.0423 -0.04233,-0.0423 -0.04233,-0.0423 v -0.0423 l -0.04233,-0.0423 v -0.0423 l -0.04233,-0.0423 v -0.0423 l -0.04233,-0.0847 v -0.21166 l -0.04233,-0.0423 0.04233,-0.0423 v -0.254 l 0.04233,-0.0423 v -0.0423 l 0.04233,-0.0423 v -0.0423 l 0.04233,-0.0423 v -0.0423 l 0.04233,-0.0423 0.04233,-0.0423 0.04233,-0.0423 v -0.0423 l 0.04233,-0.0423 h 0.04233 l 0.04233,-0.0423"
         style="fill:#ffffff;fill-opacity:1;fill-rule:evenodd;stroke:#1f1a17;stroke-width:0.07112;stroke-linecap:round;stroke-linejoin:round;stroke-miterlimit:10;stroke-dasharray:none;stroke-opacity:1">
         <animate
            attributeName="fill"
            values="#ffffff;#969594"
            dur="1.5s"
            calcMode="discrete"
            repeatCount="indefinite" />
      </path>
      <path
         id="path581"
         d="m 18.429087,210.24175 0.04233,-0.0423 h 0.04233 l 0.04233,-0.0423 h 0.04233 l 0.04233,-0.0423 h 0.04233 l 0.04233,-0.0423 h 0.169334 l 0.08467,-0.0423 h 0.08467 l 0.04233,0.0423 h 0.169334 l 0.04233,0.0423 h 0.08467 l 0.04233,0.0423 h 0.04233 l 0.04233,0.0423 h 0.04233 l 0.04233,0.0423 v 0.0423 h 0.04233 l 0.04233,0.0423 0.04233,0.0423 0.04233,0.0423 0.04233,0.0423 v 0.0423 l 0.04233,0.0423 v 0.0423 l 0.04233,0.0423 v 0.0423 l 0.04233,0.0423 v 0.0423 l 0.04233,0.0847 v 0.42333 l -0.04233,0.0423 v 0.0847 l -0.04233,0.0423 v 0.0423 l -0.04233,0.0423 v 0.0423 l -0.04233,0.0423 v 0.0423 l -0.04233,0.0423 -0.04233,0.0423 -0.04233,0.0423 -0.04233,0.0423 v 0 l -0.04233,0.0423 -0.04233,0.0423 h -0.04233 l -0.04233,0.0423 -0.04233,0.0423 h -0.127 l -0.04233,0.0423 h -0.127 l -0.04233,0.0423 h -0.211666 l -0.04233,-0.0423 h -0.127 l -0.04233,-0.0423 h -0.04233 l -0.04233,-0.0423 h -0.04233 l -0.04233,-0.0423 h -0.04233 l -0.04233,-0.0423 -0.04233,-0.0423 h -0.04233 l -0.04233,-0.0423 -0.04233,-0.0423 -0.04233,-0.0423 v -0.0423 l -0.04233,-0.0423 -0.04233,-0.0423 v -0.0423 l -0.04233,-0.0423 v -0.0423 l -0.04233,-0.0423 v -0.0847 l -0.04233,-0.0847 v -0.381 l 0.04233,-0.0423 v -0.0847 l 0.04233,-0.0423 v -0.0423 l 0.04233,-0.0423 v -0.0423 l 0.04233,-0.0423 0.04233,-0.0423 v -0.0423 l 0.04233,-0.0423 0.04233,-0.0423 h 0.04233 l 0.04233,-0.0423 0.04233,-0.0423"
         style="fill:#ffffff;fill-opacity:1;fill-rule:evenodd;stroke:#1f1a17;stroke-width:0.07112;stroke-linecap:round;stroke-linejoin:round;stroke-miterlimit:10;stroke-dasharray:none;stroke-opacity:1">
         <animate
            attributeName="fill"
            values="#ffffff;#969594"
            dur="1.5s"
            calcMode="discrete"
            repeatCount="indefinite" />
      </path>
      <path
         id="path584"
         d="m 16.820421,208.12508 h 0.04233 l 0.04233,-0.0423 0.04233,-0.0423 h 0.04233 l 0.04233,-0.0423 h 0.08467 l 0.04233,-0.0423 h 0.465666 l 0.04233,0.0423 h 0.127 l 0.04233,0.0423 h 0.04233 l 0.04233,0.0423 0.04233,0.0423 h 0.04233 v 0.0423 l 0.04233,0.0423 0.04233,0.0423 h 0.04233 l 0.04233,0.0423 0.04233,0.0423 v 0.0423 l 0.04233,0.0423 v 0.0423 l 0.04233,0.0423 v 0.0423 l 0.04233,0.0847 v 0.0423 l 0.04233,0.0423 v 0.42333 l -0.04233,0.0423 v 0.0847 l -0.04233,0.0423 v 0.0423 l -0.04233,0.0423 v 0.0423 l -0.04233,0.0423 v 0.0423 l -0.04233,0.0423 -0.04233,0.0423 -0.04233,0.0423 -0.04233,0.0423 v 0.0423 h -0.04233 l -0.04233,0.0423 -0.04233,0.0423 h -0.04233 l -0.08467,0.0423 h -0.04233 l -0.04233,0.0423 h -0.08467 l -0.04233,0.0423 H 17.24373 l -0.04233,-0.0423 h -0.127 l -0.04233,-0.0423 h -0.04233 l -0.08467,-0.0423 v 0 l -0.04233,-0.0423 -0.04233,-0.0423 h -0.04233 l -0.04233,-0.0423 -0.04233,-0.0423 -0.04233,-0.0423 -0.04233,-0.0423 v -0.0423 l -0.04233,-0.0423 -0.04233,-0.0423 v -0.0423 l -0.04233,-0.0423 v -0.0423 l -0.04233,-0.0423 v -0.0847 l -0.04233,-0.0423 v -0.381 l 0.04233,-0.0423 v -0.127 l 0.04233,-0.0423 v -0.0423 l 0.04233,-0.0423 v -0.0423 l 0.04233,-0.0423 v -0.0423 l 0.04233,-0.0423 h 0.04233 l 0.04233,-0.0423 0.04233,-0.0423 0.04233,-0.0423 0.04233,-0.0423"
         style="fill:#ffffff;fill-opacity:1;fill-rule:evenodd;stroke:#1f1a17;stroke-width:0.07112;stroke-linecap:round;stroke-linejoin:round;stroke-miterlimit:10;stroke-dasharray:none;stroke-opacity:1">
         <animate
            attributeName="fill"
            values="#ffffff;#969594"
            dur="1.5s"
            calcMode="discrete"
            repeatCount="indefinite" />
      </path>
      <path
         id="path587"
         d="m 15.169421,206.13541 0.04233,-0.0423 0.04233,-0.0423 h 0.04233 l 0.04233,-0.0423 h 0.08467 l 0.08467,-0.0423 h 0.08467 l 0.04233,-0.0423 h 0.296333 l 0.04233,0.0423 h 0.08467 l 0.04233,0.0423 h 0.08467 l 0.04233,0.0423 h 0.04233 l 0.04233,0.0423 0.04233,0.0423 h 0.04233 l 0.04233,0.0423 0.04233,0.0423 0.04233,0.0423 v 0.0423 l 0.04233,0.0423 0.04233,0.0423 0.04233,0.0423 v 0.0423 l 0.04233,0.0423 v 0.0423 l 0.04233,0.0423 v 0.127 l 0.04233,0.0847 v 0.254 l -0.04233,0.0423 v 0.16933 l -0.04233,0.0423 v 0.0423 l -0.04233,0.0423 v 0.0423 l -0.04233,0.0423 -0.04233,0.0423 v 0.0423 l -0.04233,0.0423 h -0.04233 l -0.04233,0.0423 -0.04233,0.0423 -0.04233,0.0423 -0.04233,0.0423 h -0.04233 l -0.04233,0.0423 h -0.04233 l -0.04233,0.0423 h -0.04233 l -0.04233,0.0423 h -0.508 l -0.08467,-0.0423 h -0.08467 l -0.04233,-0.0423 h -0.04233 l -0.04233,-0.0423 h -0.04233 l -0.04233,-0.0423 -0.04233,-0.0423 -0.04233,-0.0423 v 0 l -0.04233,-0.0423 -0.04233,-0.0423 -0.04233,-0.0423 v -0.0423 l -0.04233,-0.0423 -0.04233,-0.0423 v -0.0423 l -0.04233,-0.0423 v -0.127 l -0.04233,-0.0423 v -0.46567 l 0.04233,-0.0423 v -0.0847 l 0.04233,-0.0423 v -0.0423 l 0.04233,-0.0423 0.04233,-0.0423 v -0.0423 l 0.04233,-0.0423 0.04233,-0.0423 0.04233,-0.0423 v -0.0423 h 0.04233 l 0.04233,-0.0423"
         style="fill:#ffffff;fill-opacity:1;fill-rule:evenodd;stroke:#1f1a17;stroke-width:0.07112;stroke-linecap:round;stroke-linejoin:round;stroke-miterlimit:10;stroke-dasharray:none;stroke-opacity:1">
         <animate
            attributeName="fill"
            values="#ffffff;#969594"
            dur="1.5s"
            calcMode="discrete"
            repeatCount="indefinite" />
      </path>
      <path
         id="path590"
         d="m 13.476087,204.10341 0.04233,-0.0423 h 0.04233 l 0.04233,-0.0423 h 0.04233 l 0.04233,-0.0423 h 0.04233 l 0.04233,-0.0423 h 0.211667 l 0.04233,-0.0423 h 0.04233 l 0.04233,0.0423 h 0.254 l 0.04233,0.0423 h 0.04233 l 0.04233,0.0423 h 0.04233 l 0.04233,0.0423 h 0.04233 l 0.04233,0.0423 0.04233,0.0423 v 0.0423 h 0.04233 l 0.04233,0.0423 0.04233,0.0423 0.04233,0.0423 v 0.0423 l 0.04233,0.0423 0.04233,0.0423 v 0.0423 l 0.04233,0.0423 v 0.0847 l 0.04233,0.0847 v 0.46566 l -0.04233,0.0423 v 0.0847 l -0.04233,0.0423 v 0.0423 l -0.04233,0.0423 -0.04233,0.0423 v 0.0423 l -0.04233,0.0423 -0.04233,0.0423 -0.04233,0.0423 v 0.0423 h -0.04233 l -0.04233,0.0423 -0.04233,0.0423 h -0.04233 l -0.04233,0.0423 -0.04233,0.0423 h -0.127 l -0.04233,0.0423 h -0.08467 l -0.04233,0.0423 h -0.254 l -0.04233,-0.0423 h -0.127 l -0.04233,-0.0423 h -0.04233 l -0.04233,-0.0423 h -0.04233 l -0.04233,-0.0423 h -0.04233 l -0.04233,-0.0423 -0.04233,-0.0423 h -0.04233 l -0.04233,-0.0423 -0.04233,-0.0423 -0.04233,-0.0423 v -0.0423 l -0.04233,-0.0423 -0.04233,-0.0423 v -0.0423 l -0.04233,-0.0423 v -0.0423 l -0.04233,-0.0423 v -0.0847 l -0.04233,-0.0847 v -0.29634 l 0.04233,-0.0847 v -0.127 l 0.04233,-0.0423 v -0.0423 l 0.04233,-0.0423 v -0.0423 l 0.04233,-0.0423 0.04233,-0.0423 v -0.0423 l 0.04233,-0.0423 0.04233,-0.0423 h 0.04233 l 0.04233,-0.0423 0.04233,-0.0423"
         style="fill:#ffffff;fill-opacity:1;fill-rule:evenodd;stroke:#1f1a17;stroke-width:0.07112;stroke-linecap:round;stroke-linejoin:round;stroke-miterlimit:10;stroke-dasharray:none;stroke-opacity:1">
         <animate
            attributeName="fill"
            values="#ffffff;#969594"
            dur="1.5s"
            calcMode="discrete"
            repeatCount="indefinite" />
      </path>
      <path
         id="path593"
         d="m 11.740421,201.98675 0.04233,-0.0423 h 0.04233 l 0.04233,-0.0423 h 0.04233 l 0.08467,-0.0423 h 0.04233 l 0.04233,-0.0423 h 0.169333 l 0.04233,-0.0423 h 0.127 l 0.04233,0.0423 h 0.169333 l 0.04233,0.0423 h 0.04233 l 0.04233,0.0423 h 0.04233 l 0.04233,0.0423 h 0.04233 l 0.04233,0.0423 0.04233,0.0423 0.04233,0.0423 h 0.04233 l 0.04233,0.0423 0.04233,0.0423 v 0.0423 l 0.04233,0.0423 0.04233,0.0423 v 0.0423 l 0.04233,0.0423 v 0.0423 l 0.04233,0.0423 v 0.127 l 0.04233,0.0423 v 0.381 l -0.04233,0.0423 v 0.0847 l -0.04233,0.0423 v 0.0423 l -0.04233,0.0423 v 0.0423 l -0.04233,0.0423 -0.04233,0.0423 v 0.0423 l -0.04233,0.0423 -0.04233,0.0423 -0.04233,0.0423 h -0.04233 l -0.04233,0.0423 -0.04233,0.0423 h -0.04233 l -0.04233,0.0423 -0.04233,0.0423 h -0.08467 l -0.04233,0.0423 h -0.127 l -0.04233,0.0423 H 12.24839 l -0.04233,-0.0423 h -0.127 l -0.04233,-0.0423 h -0.08467 l -0.04233,-0.0423 H 11.8674 l -0.04233,-0.0423 h -0.04233 l -0.04233,-0.0423 v -0.0423 h -0.04233 l -0.04233,-0.0423 -0.04233,-0.0423 -0.04233,-0.0423 -0.04233,-0.0423 v -0.0423 l -0.04233,-0.0423 -0.04233,-0.0423 v -0.0423 l -0.04233,-0.0423 v -0.0847 l -0.04233,-0.0423 v -0.508 l 0.04233,-0.0423 v -0.0423 l 0.04233,-0.0423 v -0.0423 l 0.04233,-0.0423 v -0.0423 l 0.04233,-0.0423 v -0.0423 l 0.04233,-0.0423 0.04233,-0.0423 0.04233,-0.0423 h 0.04233 v -0.0423 l 0.04233,-0.0423"
         style="fill:#ffffff;fill-opacity:1;fill-rule:evenodd;stroke:#1f1a17;stroke-width:0.07112;stroke-linecap:round;stroke-linejoin:round;stroke-miterlimit:10;stroke-dasharray:none;stroke-opacity:1">
         <animate
            attributeName="fill"
            values="#ffffff;#969594"
            dur="1.5s"
            calcMode="discrete"
            repeatCount="indefinite" />
      </path>
    </g>
  </g>
</svg>
