<?xml version="1.0" encoding="UTF-8"?>
<!-- Created with Inkscape (http://www.inkscape.org/) -->
<svg width="11.547mm" height="37.129mm" version="1.1" viewBox="0 0 11.547 37.129" xmlns="http://www.w3.org/2000/svg">
 <g transform="translate(-48.683 -190.24)">
  <g stroke="#1f1a17" stroke-linecap="round" stroke-linejoin="round" stroke-miterlimit="10">
   <path d="m53.441 227.29h2.032v-14.012h-2.032z" fill="#848382" fill-rule="evenodd" stroke-width=".14207"/>
   <path d="m58.69 190.38h-8.4243l-1.4393 1.397v21.886h11.261v-21.886l-1.397-1.397" fill="#848382" fill-rule="evenodd" stroke-width=".28643"/>
   <path d="m57.039 206.76h0.08467l0.08467 0.0423h0.16933l0.08467 0.0423h0.08467l0.04233 0.0423h0.08467l0.08467 0.0423 0.04233 0.0423 0.08467 0.0423 0.04233 0.0423 0.08467 0.0423 0.04233 0.0423 0.08467 0.0423 0.08466 0.0846 0.04233 0.0847 0.04233 0.0423 0.04233 0.0847 0.04233 0.0423 0.04233 0.0847 0.04233 0.0423 0.04233 0.0847 0.04233 0.0423v0.0847l0.04233 0.0847v0.127l0.04233 0.0847v0.33867l-0.04233 0.0847v0.127l-0.04233 0.0847v0.0847l-0.04233 0.0423-0.04233 0.0847-0.04233 0.0423-0.04233 0.0847-0.04233 0.0423-0.04233 0.0847-0.04233 0.0423-0.04233 0.0847-0.08466 0.0846-0.08467 0.0423-0.04233 0.0423-0.08467 0.0423-0.04233 0.0423-0.08467 0.0423-0.04233 0.0423-0.08467 0.0423h-0.08467l-0.04233 0.0423h-0.08467l-0.08467 0.0423h-0.16933l-0.08467 0.0423h-0.127l-0.08467-0.0423h-0.16933l-0.08467-0.0423h-0.08467l-0.04233-0.0423h-0.08467l-0.08467-0.0423-0.04233-0.0423-0.16934-0.0846-0.08466-0.0846-0.08467-0.0423-0.08466-0.0846-0.04233-0.0847-0.08467-0.0423-0.04233-0.0847-0.04233-0.0423-0.04233-0.0847v-0.0423l-0.04233-0.0847-0.04233-0.0423v-0.0847l-0.04233-0.0847v-0.0847l-0.04233-0.0423v-0.508l0.04233-0.0423v-0.0847l0.04233-0.0847v-0.0847l0.04233-0.0423 0.04233-0.0847v-0.0423l0.04233-0.0847 0.04233-0.0423 0.04233-0.0847 0.08467-0.0423 0.04233-0.0847 0.08466-0.0846 0.08467-0.0423 0.08466-0.0846 0.16934-0.0846 0.04233-0.0423 0.08467-0.0423h0.08467l0.04233-0.0423h0.08467l0.08467-0.0423h0.16933l0.08467-0.0423z" fill="none" stroke-width=".1071"/>
  </g>
  <path d="m51.959 206.76h0.08467l0.04233 0.0423h0.16933l0.08467 0.0423h0.08467l0.04233 0.0423h0.08467l0.08467 0.0423 0.04233 0.0423 0.16934 0.0846 0.08466 0.0846 0.08467 0.0423 0.08466 0.0846 0.04233 0.0847 0.08467 0.0423 0.04233 0.0847 0.04233 0.0423 0.04233 0.0847v0.0423l0.04233 0.0847 0.04233 0.0423v0.0847l0.04233 0.0847v0.0847l0.04233 0.0423v0.508l-0.04233 0.0423v0.0847l-0.04233 0.0847v0.0847l-0.04233 0.0423-0.04233 0.0847v0.0423l-0.04233 0.0847-0.04233 0.0423-0.04233 0.0847-0.08467 0.0423-0.04233 0.0847-0.08466 0.0846-0.08467 0.0423-0.08466 0.0846-0.16934 0.0846-0.04233 0.0423-0.08467 0.0423h-0.08467l-0.04233 0.0423h-0.08467l-0.08467 0.0423h-0.16933l-0.04233 0.0423h-0.16933l-0.08467-0.0423h-0.16933l-0.08467-0.0423h-0.08467l-0.04233-0.0423h-0.08467l-0.08467-0.0423-0.04233-0.0423-0.08467-0.0423-0.04233-0.0423-0.08467-0.0423-0.04233-0.0423-0.08467-0.0423-0.08466-0.0846-0.04233-0.0847-0.04233-0.0423-0.04233-0.0847-0.04233-0.0423-0.04233-0.0847-0.04233-0.0423-0.04233-0.0847-0.04233-0.0423v-0.0847l-0.04233-0.0847v-0.127l-0.04233-0.0847v-0.33867l0.04233-0.0847v-0.127l0.04233-0.0847v-0.0847l0.04233-0.0423 0.04233-0.0847 0.04233-0.0423 0.04233-0.0847 0.04233-0.0423 0.04233-0.0847 0.04233-0.0423 0.04233-0.0847 0.08466-0.0846 0.08467-0.0423 0.04233-0.0423 0.08467-0.0423 0.04233-0.0423 0.08467-0.0423 0.04233-0.0423 0.08467-0.0423h0.08467l0.04233-0.0423h0.08467l0.08467-0.0423h0.16933l0.08467-0.0423h0.08467" fill="#848382" fill-rule="evenodd"/>
  <path d="m51.959 206.76h0.08467l0.04233 0.0423h0.16933l0.08467 0.0423h0.08467l0.04233 0.0423h0.08467l0.08467 0.0423 0.04233 0.0423 0.16934 0.0846 0.08466 0.0846 0.08467 0.0423 0.08466 0.0846 0.04233 0.0847 0.08467 0.0423 0.04233 0.0847 0.04233 0.0423 0.04233 0.0847v0.0423l0.04233 0.0847 0.04233 0.0423v0.0847l0.04233 0.0847v0.0847l0.04233 0.0423v0.508l-0.04233 0.0423v0.0847l-0.04233 0.0847v0.0847l-0.04233 0.0423-0.04233 0.0847v0.0423l-0.04233 0.0847-0.04233 0.0423-0.04233 0.0847-0.08467 0.0423-0.04233 0.0847-0.08466 0.0846-0.08467 0.0423-0.08466 0.0846-0.16934 0.0846-0.04233 0.0423-0.08467 0.0423h-0.08467l-0.04233 0.0423h-0.08467l-0.08467 0.0423h-0.16933l-0.04233 0.0423h-0.16933l-0.08467-0.0423h-0.16933l-0.08467-0.0423h-0.08467l-0.04233-0.0423h-0.08467l-0.08467-0.0423-0.04233-0.0423-0.08467-0.0423-0.04233-0.0423-0.08467-0.0423-0.04233-0.0423-0.08467-0.0423-0.08466-0.0846-0.04233-0.0847-0.04233-0.0423-0.04233-0.0847-0.04233-0.0423-0.04233-0.0847-0.04233-0.0423-0.04233-0.0847-0.04233-0.0423v-0.0847l-0.04233-0.0847v-0.127l-0.04233-0.0847v-0.33867l0.04233-0.0847v-0.127l0.04233-0.0847v-0.0847l0.04233-0.0423 0.04233-0.0847 0.04233-0.0423 0.04233-0.0847 0.04233-0.0423 0.04233-0.0847 0.04233-0.0423 0.04233-0.0847 0.08466-0.0846 0.08467-0.0423 0.04233-0.0423 0.08467-0.0423 0.04233-0.0423 0.08467-0.0423 0.04233-0.0423 0.08467-0.0423h0.08467l0.04233-0.0423h0.08467l0.08467-0.0423h0.16933l0.08467-0.0423z" fill="none" stroke="#1f1a17" stroke-linecap="round" stroke-linejoin="round" stroke-miterlimit="10" stroke-width=".1071"/>
  <path d="m54.499 199.95h0.16933l0.08467 0.0423h0.127l0.08467 0.0423h0.08467l0.08467 0.0423 0.04233 0.0423 0.08467 0.0423 0.04233 0.0423h0.08467l0.04233 0.0847 0.08467 0.0423 0.08466 0.0846 0.08467 0.0423 0.04233 0.0847 0.08466 0.0846 0.04233 0.0847 0.04233 0.0423 0.04233 0.0847v0.0847l0.04233 0.0423 0.04233 0.0847v0.0847l0.04233 0.0423v0.635l-0.04233 0.0847v0.0847l-0.04233 0.0423-0.04233 0.0847v0.0847l-0.04233 0.0423-0.04233 0.0847-0.04233 0.0423-0.04233 0.0847-0.08466 0.0846-0.08467 0.0847-0.08466 0.0846-0.08467 0.0423-0.04233 0.0423-0.08467 0.0423-0.04233 0.0423-0.08467 0.0423h-0.04233l-0.16934 0.0846h-0.08467l-0.04233 0.0423h-0.67733l-0.04233-0.0423h-0.08467l-0.16934-0.0846h-0.04233l-0.08467-0.0423-0.04233-0.0423-0.08467-0.0423-0.04233-0.0423-0.08467-0.0423-0.08466-0.0846-0.08467-0.0847-0.08466-0.0846-0.04233-0.0847-0.04233-0.0423-0.04233-0.0847-0.04233-0.0423v-0.0847l-0.04233-0.0847-0.04233-0.0423v-0.0847l-0.04233-0.0847v-0.635l0.04233-0.0423v-0.0847l0.04233-0.0847 0.04233-0.0423v-0.0847l0.04233-0.0847 0.04233-0.0423 0.04233-0.0847 0.08466-0.0846 0.04233-0.0847 0.08467-0.0423 0.08466-0.0846 0.08467-0.0423 0.04233-0.0847h0.08467l0.04233-0.0423 0.08467-0.0423 0.04233-0.0423 0.08467-0.0423h0.08467l0.08467-0.0423h0.127l0.08467-0.0423z" fill="none" stroke="#1f1a17" stroke-linecap="round" stroke-linejoin="round" stroke-miterlimit="10" stroke-width=".1071"/>
  <path d="m57.039 192.54h0.254l0.08467 0.0423h0.08467l0.08467 0.0423h0.04233l0.16934 0.0846h0.04233l0.08467 0.0423 0.04233 0.0423 0.08467 0.0423 0.04233 0.0423 0.08467 0.0423 0.04233 0.0847 0.08466 0.0846 0.04233 0.0847 0.04233 0.0423 0.04233 0.0847 0.04233 0.0423 0.04233 0.0847 0.04233 0.0423 0.04233 0.0847v0.0847l0.04233 0.0423v0.16933l0.04233 0.0847v0.29633l-0.04233 0.0847v0.16933l-0.04233 0.0423v0.0847l-0.04233 0.0847-0.04233 0.0423-0.04233 0.0847-0.04233 0.0423-0.04233 0.0847-0.04233 0.0423-0.04233 0.0847-0.08466 0.0846-0.04233 0.0847-0.08467 0.0423-0.04233 0.0423-0.08467 0.0423-0.04233 0.0423-0.08467 0.0423h-0.04233l-0.16934 0.0846h-0.04233l-0.08467 0.0423h-0.08467l-0.08467 0.0423h-0.46567l-0.08467-0.0423h-0.08467l-0.08467-0.0423h-0.04233l-0.16934-0.0846h-0.04233l-0.16934-0.0846-0.08466-0.0846-0.08467-0.0423-0.04233-0.0847-0.08466-0.0846-0.08467-0.0847-0.04233-0.0423-0.04233-0.0847-0.04233-0.0423v-0.0847l-0.04233-0.0423-0.04233-0.0847v-0.0847l-0.04233-0.0423v-0.0847l-0.04233-0.0847v-0.46567l0.04233-0.0847v-0.0847l0.04233-0.0423v-0.0847l0.04233-0.0847 0.04233-0.0423v-0.0847l0.04233-0.0423 0.04233-0.0847 0.04233-0.0423 0.08467-0.0847 0.08466-0.0846 0.04233-0.0847 0.08467-0.0423 0.08466-0.0846 0.16934-0.0846h0.04233l0.16934-0.0846h0.04233l0.08467-0.0423h0.08467l0.08467-0.0423h0.21167" fill="#848382" fill-rule="evenodd"/>
  <path d="m57.039 192.54h0.254l0.08467 0.0423h0.08467l0.08467 0.0423h0.04233l0.16934 0.0846h0.04233l0.08467 0.0423 0.04233 0.0423 0.08467 0.0423 0.04233 0.0423 0.08467 0.0423 0.04233 0.0847 0.08466 0.0846 0.04233 0.0847 0.04233 0.0423 0.04233 0.0847 0.04233 0.0423 0.04233 0.0847 0.04233 0.0423 0.04233 0.0847v0.0847l0.04233 0.0423v0.16933l0.04233 0.0847v0.29633l-0.04233 0.0847v0.16933l-0.04233 0.0423v0.0847l-0.04233 0.0847-0.04233 0.0423-0.04233 0.0847-0.04233 0.0423-0.04233 0.0847-0.04233 0.0423-0.04233 0.0847-0.08466 0.0846-0.04233 0.0847-0.08467 0.0423-0.04233 0.0423-0.08467 0.0423-0.04233 0.0423-0.08467 0.0423h-0.04233l-0.16934 0.0846h-0.04233l-0.08467 0.0423h-0.08467l-0.08467 0.0423h-0.46567l-0.08467-0.0423h-0.08467l-0.08467-0.0423h-0.04233l-0.16934-0.0846h-0.04233l-0.16934-0.0846-0.08466-0.0846-0.08467-0.0423-0.04233-0.0847-0.08466-0.0846-0.08467-0.0847-0.04233-0.0423-0.04233-0.0847-0.04233-0.0423v-0.0847l-0.04233-0.0423-0.04233-0.0847v-0.0847l-0.04233-0.0423v-0.0847l-0.04233-0.0847v-0.46567l0.04233-0.0847v-0.0847l0.04233-0.0423v-0.0847l0.04233-0.0847 0.04233-0.0423v-0.0847l0.04233-0.0423 0.04233-0.0847 0.04233-0.0423 0.08467-0.0847 0.08466-0.0846 0.04233-0.0847 0.08467-0.0423 0.08466-0.0846 0.16934-0.0846h0.04233l0.16934-0.0846h0.04233l0.08467-0.0423h0.08467l0.08467-0.0423z" fill="none" stroke="#1f1a17" stroke-linecap="round" stroke-linejoin="round" stroke-miterlimit="10" stroke-width=".1071"/>
  <g fill="#fff">
   <path d="m52.086 202.91 0.71967-0.71967 0.508 0.508-0.71967 0.71967-0.508-0.508"/>
   <path d="m49.842 202.27 0.84667 0.80433-0.55033 0.508-0.84667-0.84666 0.55033-0.46567"/>
   <path d="m49.377 205.62 0.84667-0.80433 0.508 0.508-0.84667 0.80433-0.508-0.508"/>
   <path d="m52.425 204.9 0.84667 0.80433-0.508 0.508-0.84667-0.80433 0.508-0.508"/>
  </g>
  <path d="m51.959 192.54h0.21167l0.08467 0.0423h0.08467l0.08467 0.0423h0.04233l0.16934 0.0846h0.04233l0.16934 0.0846 0.08466 0.0846 0.08467 0.0423 0.04233 0.0847 0.08466 0.0846 0.08467 0.0847 0.04233 0.0423 0.04233 0.0847 0.04233 0.0423v0.0847l0.04233 0.0423 0.04233 0.0847v0.0847l0.04233 0.0423v0.0847l0.04233 0.0847v0.46567l-0.04233 0.0847v0.0847l-0.04233 0.0423v0.0847l-0.04233 0.0847-0.04233 0.0423v0.0847l-0.04233 0.0423-0.04233 0.0847-0.04233 0.0423-0.08467 0.0847-0.08466 0.0846-0.04233 0.0847-0.08467 0.0423-0.08466 0.0846-0.16934 0.0846h-0.04233l-0.16934 0.0846h-0.04233l-0.08467 0.0423h-0.08467l-0.08467 0.0423h-0.46567l-0.08467-0.0423h-0.08467l-0.08467-0.0423h-0.04233l-0.16934-0.0846h-0.04233l-0.08467-0.0423-0.04233-0.0423-0.08467-0.0423-0.04233-0.0423-0.08467-0.0423-0.04233-0.0847-0.08466-0.0846-0.04233-0.0847-0.04233-0.0423-0.04233-0.0847-0.04233-0.0423-0.04233-0.0847-0.04233-0.0423-0.04233-0.0847v-0.0847l-0.04233-0.0423v-0.16933l-0.04233-0.0847v-0.29633l0.04233-0.0847v-0.16933l0.04233-0.0423v-0.0847l0.04233-0.0847 0.04233-0.0423 0.04233-0.0847 0.04233-0.0423 0.04233-0.0847 0.04233-0.0423 0.04233-0.0847 0.08466-0.0846 0.04233-0.0847 0.08467-0.0423 0.04233-0.0423 0.08467-0.0423 0.04233-0.0423 0.08467-0.0423h0.04233l0.16934-0.0846h0.04233l0.08467-0.0423h0.08467l0.08467-0.0423h0.254" fill="#848382" fill-rule="evenodd"/>
  <path d="m51.959 192.54h0.21167l0.08467 0.0423h0.08467l0.08467 0.0423h0.04233l0.16934 0.0846h0.04233l0.16934 0.0846 0.08466 0.0846 0.08467 0.0423 0.04233 0.0847 0.08466 0.0846 0.08467 0.0847 0.04233 0.0423 0.04233 0.0847 0.04233 0.0423v0.0847l0.04233 0.0423 0.04233 0.0847v0.0847l0.04233 0.0423v0.0847l0.04233 0.0847v0.46567l-0.04233 0.0847v0.0847l-0.04233 0.0423v0.0847l-0.04233 0.0847-0.04233 0.0423v0.0847l-0.04233 0.0423-0.04233 0.0847-0.04233 0.0423-0.08467 0.0847-0.08466 0.0846-0.04233 0.0847-0.08467 0.0423-0.08466 0.0846-0.16934 0.0846h-0.04233l-0.16934 0.0846h-0.04233l-0.08467 0.0423h-0.08467l-0.08467 0.0423h-0.46567l-0.08467-0.0423h-0.08467l-0.08467-0.0423h-0.04233l-0.16934-0.0846h-0.04233l-0.08467-0.0423-0.04233-0.0423-0.08467-0.0423-0.04233-0.0423-0.08467-0.0423-0.04233-0.0847-0.08466-0.0846-0.04233-0.0847-0.04233-0.0423-0.04233-0.0847-0.04233-0.0423-0.04233-0.0847-0.04233-0.0423-0.04233-0.0847v-0.0847l-0.04233-0.0423v-0.16933l-0.04233-0.0847v-0.29633l0.04233-0.0847v-0.16933l0.04233-0.0423v-0.0847l0.04233-0.0847 0.04233-0.0423 0.04233-0.0847 0.04233-0.0423 0.04233-0.0847 0.04233-0.0423 0.04233-0.0847 0.08466-0.0846 0.04233-0.0847 0.08467-0.0423 0.04233-0.0423 0.08467-0.0423 0.04233-0.0423 0.08467-0.0423h0.04233l0.16934-0.0846h0.04233l0.08467-0.0423h0.08467l0.08467-0.0423z" fill="none" stroke="#1f1a17" stroke-linecap="round" stroke-linejoin="round" stroke-miterlimit="10" stroke-width=".1071"/>
  <path d="m51.451 203.08h0.254l0.08467 0.0423h0.04233l0.04233 0.0423h0.04233l0.04233 0.0423h0.04233l0.08466 0.0846h0.04233l0.21165 0.2115v0.0423l0.08466 0.0846v0.0423l0.04233 0.0423v0.0423l0.04233 0.0423v0.16933l0.04233 0.0423v0.21167l-0.04233 0.0847v0.127l-0.04233 0.0423v0.0423l-0.04233 0.0847v0.0423l-0.08466 0.0846v0.0423l-0.08466 0.0846h-0.04233l-0.16932 0.1692h-0.04233l-0.04233 0.0423h-0.04233l-0.04233 0.0423h-0.04233l-0.04233 0.0423h-0.127l-0.04233 0.0423h-0.33867l-0.04233-0.0423h-0.127l-0.04233-0.0423h-0.04233l-0.04233-0.0423h-0.04233l-0.04233-0.0423h-0.04233l-0.16932-0.1692h-0.04233l-0.08466-0.0846v-0.0423l-0.08466-0.0846v-0.0423l-0.04233-0.0847v-0.0423l-0.04233-0.0423v-0.127l-0.04233-0.0847v-0.21167l0.04233-0.0423v-0.16933l0.04233-0.0423v-0.0423l0.04233-0.0423v-0.0423l0.08466-0.0846v-0.0423l0.21165-0.2115h0.04233l0.08466-0.0846h0.04233l0.04233-0.0423h0.04233l0.04233-0.0423h0.04233l0.08467-0.0423h0.254" fill="#fff" fill-rule="evenodd"/>
  <path d="m51.451 203.08h0.254l0.08467 0.0423h0.04233l0.04233 0.0423h0.04233l0.04233 0.0423h0.04233l0.08466 0.0846h0.04233l0.21165 0.2115v0.0423l0.08466 0.0846v0.0423l0.04233 0.0423v0.0423l0.04233 0.0423v0.16933l0.04233 0.0423v0.21167l-0.04233 0.0847v0.127l-0.04233 0.0423v0.0423l-0.04233 0.0847v0.0423l-0.08466 0.0846v0.0423l-0.08466 0.0846h-0.04233l-0.16932 0.1692h-0.04233l-0.04233 0.0423h-0.04233l-0.04233 0.0423h-0.04233l-0.04233 0.0423h-0.127l-0.04233 0.0423h-0.33867l-0.04233-0.0423h-0.127l-0.04233-0.0423h-0.04233l-0.04233-0.0423h-0.04233l-0.04233-0.0423h-0.04233l-0.16932-0.1692h-0.04233l-0.08466-0.0846v-0.0423l-0.08466-0.0846v-0.0423l-0.04233-0.0847v-0.0423l-0.04233-0.0423v-0.127l-0.04233-0.0847v-0.21167l0.04233-0.0423v-0.16933l0.04233-0.0423v-0.0423l0.04233-0.0423v-0.0423l0.08466-0.0846v-0.0423l0.21165-0.2115h0.04233l0.08466-0.0846h0.04233l0.04233-0.0423h0.04233l0.04233-0.0423h0.04233l0.08467-0.0423z" fill="none" stroke="#1f1a17" stroke-linecap="round" stroke-linejoin="round" stroke-miterlimit="10" stroke-width=".1071"/>
 </g>
</svg>
