<?xml version="1.0" encoding="UTF-8"?>
<!-- Created with Inkscape (http://www.inkscape.org/) -->
<svg width="18.016mm" height="16.957mm" version="1.1" viewBox="0 0 18.016 16.957" xmlns="http://www.w3.org/2000/svg">
 <g transform="translate(-10.318 -188.65)">
  <g fill-rule="evenodd">
   <path d="m28.301 200.58v4.9953h-17.949v-4.9953l6.0113-11.896h6.0113l5.9267 11.896" fill="#848382" stroke="#1f1a17" stroke-linecap="round" stroke-linejoin="round" stroke-miterlimit="10" stroke-width=".066209"/>
   <path d="m19.369 191.14h0.127l0.08467 0.0423h0.16933l0.04233 0.0423h0.08467l0.08467 0.0423 0.04233 0.0423h0.08467l0.08466 0.0846 0.08467 0.0423 0.08466 0.0846 0.08467 0.0423 0.04233 0.0847 0.08466 0.0846 0.04233 0.0847 0.08466 0.0846v0.0847l0.04233 0.0423 0.04233 0.0847v0.0847l0.04233 0.0423v0.16933l0.04233 0.0423v0.33867l-0.04233 0.0423v0.16934l-0.04233 0.0423v0.0847l-0.04233 0.0847-0.04233 0.0423v0.0847l-0.08466 0.0846-0.04233 0.0847-0.08466 0.0846-0.04233 0.0847-0.08467 0.0423-0.08466 0.0846-0.08467 0.0423-0.08466 0.0846h-0.08467l-0.04233 0.0423-0.08467 0.0423h-0.08467l-0.04233 0.0423h-0.16933l-0.08467 0.0423h-0.29633l-0.04233-0.0423h-0.16933l-0.04233-0.0423h-0.08467l-0.08467-0.0423-0.04233-0.0423h-0.08467l-0.04233-0.0423-0.08467-0.0423-0.08466-0.0846-0.08467-0.0423-0.04233-0.0423-0.04233-0.0847-0.08466-0.0846-0.04233-0.0847-0.08466-0.0846-0.04233-0.0847v-0.0423l-0.04233-0.0847v-0.0847l-0.04233-0.0423v-0.0847l-0.04233-0.0847v-0.42333l0.04233-0.0847v-0.0847l0.04233-0.0423v-0.0847l0.04233-0.0847v-0.0423l0.04233-0.0847 0.08466-0.0846 0.04233-0.0847 0.08466-0.0846 0.04233-0.0847 0.04233-0.0423 0.08467-0.0423 0.08466-0.0846 0.08467-0.0423 0.04233-0.0423h0.08467l0.04233-0.0423 0.08467-0.0423h0.08467l0.04233-0.0423h0.16933l0.04233-0.0423h0.16933" fill="#fff" stroke="#1f1a17" stroke-linecap="round" stroke-linejoin="round" stroke-miterlimit="10" stroke-width=".066209"/>
   <path d="m23.687 200.49h0.29633l0.08467 0.0423h0.08467l0.08467 0.0423 0.04233 0.0423h0.08467l0.08467 0.0423 0.04233 0.0423 0.08467 0.0423 0.04233 0.0423 0.08467 0.0423 0.04233 0.0423 0.08467 0.0847 0.08466 0.0846 0.04233 0.0847 0.04233 0.0423 0.04233 0.0847 0.04233 0.0423 0.08466 0.1694v0.0423l0.08466 0.1694v0.16934l0.04233 0.0847v0.29634l-0.04233 0.0847v0.16934l-0.08466 0.1694v0.0423l-0.08466 0.1694-0.04233 0.0423-0.04233 0.0847-0.04233 0.0423-0.04233 0.0847-0.08466 0.0846-0.08467 0.0847-0.04233 0.0423-0.08467 0.0423-0.04233 0.0423-0.08467 0.0423-0.04233 0.0423-0.08467 0.0423h-0.08467l-0.04233 0.0423-0.08467 0.0423h-0.08467l-0.08467 0.0423h-0.635l-0.08467-0.0423h-0.08467l-0.04233-0.0423-0.08467-0.0423h-0.08467l-0.08467-0.0423-0.04233-0.0423-0.08467-0.0423-0.04233-0.0423-0.08467-0.0423-0.04233-0.0423-0.04233-0.0847-0.08467-0.0423-0.04233-0.0423-0.04233-0.0847-0.04233-0.0423-0.04233-0.0847-0.04233-0.0423-0.04233-0.0847v-0.0847l-0.04233-0.0423-0.04233-0.0847v-0.0847l-0.04233-0.0847v-0.635l0.04233-0.0847v-0.0847l0.04233-0.0847 0.04233-0.0423v-0.0847l0.04233-0.0847 0.04233-0.0423 0.04233-0.0847 0.04233-0.0423 0.04233-0.0847 0.04233-0.0423 0.08467-0.0423 0.04233-0.0847 0.04233-0.0423 0.08467-0.0423 0.04233-0.0423 0.08467-0.0423 0.04233-0.0423 0.08467-0.0423h0.08467l0.08467-0.0423 0.04233-0.0423h0.08467l0.08467-0.0423h0.33867" fill="#fff"/>
  </g>
  <path d="m23.687 200.49h0.29633l0.08467 0.0423h0.08467l0.08467 0.0423 0.04233 0.0423h0.08467l0.08467 0.0423 0.04233 0.0423 0.08467 0.0423 0.04233 0.0423 0.08467 0.0423 0.04233 0.0423 0.08467 0.0847 0.08466 0.0846 0.04233 0.0847 0.04233 0.0423 0.04233 0.0847 0.04233 0.0423 0.08466 0.1694v0.0423l0.08466 0.1694v0.16934l0.04233 0.0847v0.29634l-0.04233 0.0847v0.16934l-0.08466 0.1694v0.0423l-0.08466 0.1694-0.04233 0.0423-0.04233 0.0847-0.04233 0.0423-0.04233 0.0847-0.08466 0.0846-0.08467 0.0847-0.04233 0.0423-0.08467 0.0423-0.04233 0.0423-0.08467 0.0423-0.04233 0.0423-0.08467 0.0423h-0.08467l-0.04233 0.0423-0.08467 0.0423h-0.08467l-0.08467 0.0423h-0.635l-0.08467-0.0423h-0.08467l-0.04233-0.0423-0.08467-0.0423h-0.08467l-0.08467-0.0423-0.04233-0.0423-0.08467-0.0423-0.04233-0.0423-0.08467-0.0423-0.04233-0.0423-0.04233-0.0847-0.08467-0.0423-0.04233-0.0423-0.04233-0.0847-0.04233-0.0423-0.04233-0.0847-0.04233-0.0423-0.04233-0.0847v-0.0847l-0.04233-0.0423-0.04233-0.0847v-0.0847l-0.04233-0.0847v-0.635l0.04233-0.0847v-0.0847l0.04233-0.0847 0.04233-0.0423v-0.0847l0.04233-0.0847 0.04233-0.0423 0.04233-0.0847 0.04233-0.0423 0.04233-0.0847 0.04233-0.0423 0.08467-0.0423 0.04233-0.0847 0.04233-0.0423 0.08467-0.0423 0.04233-0.0423 0.08467-0.0423 0.04233-0.0423 0.08467-0.0423h0.08467l0.08467-0.0423 0.04233-0.0423h0.08467l0.08467-0.0423z" fill="none" stroke="#1f1a17" stroke-linecap="round" stroke-linejoin="round" stroke-miterlimit="10" stroke-width=".066209"/>
  <g fill="#fff">
   <path d="m14.881 200.41h0.29633l0.04233 0.0423h0.08467l0.08467 0.0423h0.04233l0.08467 0.0423 0.04233 0.0423 0.08467 0.0423 0.08466 0.0846 0.08467 0.0423 0.12699 0.1269 0.08467 0.0423 0.04233 0.0847 0.04233 0.0423v0.0423l0.04233 0.0847 0.04233 0.0423 0.04233 0.0847v0.0423l0.04233 0.0847v0.0847l0.04233 0.0423v0.254l0.04233 0.0423-0.04233 0.0847v0.21167l-0.04233 0.0847v0.0847l-0.04233 0.0423v0.0847l-0.04233 0.0847-0.08466 0.0846v0.0847l-0.04233 0.0423-0.04233 0.0847-0.08467 0.0423-0.12699 0.1269-0.08467 0.0423-0.08466 0.0846-0.08467 0.0423-0.04233 0.0423-0.08467 0.0423h-0.04233l-0.08467 0.0423h-0.08467l-0.04233 0.0423h-0.635l-0.04233-0.0423h-0.08467l-0.08467-0.0423h-0.04233l-0.08467-0.0423-0.04233-0.0423-0.08467-0.0423-0.08466-0.0846-0.08467-0.0423-0.16932-0.1692-0.04233-0.0847-0.04233-0.0423-0.04233-0.0847-0.08466-0.0846-0.04233-0.0847v-0.0847l-0.04233-0.0423v-0.0847l-0.04233-0.0847v-0.59267l0.04233-0.0423v-0.0847l0.04233-0.0847v-0.0423l0.04233-0.0847 0.04233-0.0423 0.04233-0.0847 0.08466-0.0846 0.04233-0.0847 0.16932-0.1692 0.08467-0.0423 0.08466-0.0846 0.08467-0.0423 0.04233-0.0423 0.08467-0.0423h0.04233l0.08467-0.0423h0.08467l0.04233-0.0423h0.33867" fill-rule="evenodd" stroke="#1f1a17" stroke-linecap="round" stroke-linejoin="round" stroke-miterlimit="10" stroke-width=".066209"/>
   <g>
    <path d="m22.84 203.75-1.1853 1.143-0.46567-0.508 1.143-1.143 0.508 0.508"/>
    <path d="m26.269 204.3-1.1853-1.143-0.46567 0.46567 1.143 1.143 0.508-0.46567"/>
    <path d="m26.1 199.77-1.143 1.1853-0.46567-0.508 1.143-1.143 0.46567 0.46567"/>
    <path d="m22.925 200.41-1.143-1.143-0.508 0.508 1.1853 1.143 0.46567-0.508"/>
    <path d="m13.992 203.5-1.143 1.143-0.508-0.46567 1.143-1.143 0.508 0.46567"/>
    <path d="m17.421 204.09-1.143-1.1853-0.508 0.508 1.1853 1.143 0.46567-0.46567"/>
    <path d="m17.294 199.56-1.1853 1.143-0.46567-0.46567 1.143-1.143 0.508 0.46567"/>
    <path d="m14.077 200.2-1.143-1.143-0.46567 0.46567 1.143 1.143 0.46567-0.46567"/>
    <path d="m18.522 194.44-1.143 1.143-0.508-0.508 1.1853-1.143 0.46567 0.508"/>
    <path d="m21.951 194.99-1.143-1.143-0.46567 0.46567 1.143 1.143 0.46567-0.46567"/>
    <path d="m21.824 190.46-1.143 1.1853-0.508-0.508 1.1853-1.143 0.46567 0.46567"/>
    <path d="m18.649 191.09-1.1853-1.143-0.46567 0.508 1.143 1.143 0.508-0.508"/>
   </g>
  </g>
 </g>
</svg>
