<?xml version="1.0" encoding="UTF-8"?>
<!-- Created with Inkscape (http://www.inkscape.org/) -->
<svg width="18.009mm" height="25.671mm" version="1.1" viewBox="0 0 18.009 25.671" xmlns="http://www.w3.org/2000/svg">
 <g transform="translate(-23.812 -207.7)" fill-rule="evenodd" stroke="#1f1a17" stroke-linecap="round" stroke-linejoin="round" stroke-miterlimit="10" stroke-width=".059267">
  <path d="m23.842 233.34h17.949v-25.612h-17.949z" fill="#848382"/>
  <g fill="#fff">
   <path d="m25.874 212.09-0.08466 0.0846v0.0423l-0.16932 0.1692v0.0847l-0.04233 0.0423v0.0847l-0.04233 0.0423v0.42334l0.04233 0.0423v0.0847l0.04233 0.0847v0.0423l0.04233 0.0423v0.0423l0.08466 0.0846v0.0423l0.04233 0.0423h0.04233l0.12699 0.1269h0.04233l0.08466 0.0846h0.08467l0.04233 0.0423h0.08467l0.04233 0.0423h0.381l0.04233-0.0423h0.08467l0.04233-0.0423h0.04233l0.04233-0.0423h0.04233l0.08466-0.0846h0.04233l0.12699-0.1269v-0.0423l0.08466-0.0846v-0.0423l0.04233-0.0423v-0.0423l0.04233-0.0423v-0.0423l0.04233-0.0423v-0.55033l-0.04233-0.0423v-0.0847l-0.04233-0.0423v-0.0423l-0.08466-0.0846v-0.0423l-0.12699-0.1269v-0.0423h-0.04233l-0.08466-0.0846h-0.04233l-0.04233-0.0423h-0.04233l-0.04233-0.0423h-0.04233l-0.04233-0.0423h-0.55033l-0.04233 0.0423h-0.08467l-0.04233 0.0423h-0.04233l-0.08466 0.0846h-0.04233l-0.04233 0.0423"/>
   <path d="m27.44 213.99-0.04233 0.0423v0.0423l-0.12699 0.1269v0.0423l-0.04233 0.0423v0.0423l-0.04233 0.0423v0.0423l-0.04233 0.0423v0.0847l-0.04233 0.0423v0.33866l0.04233 0.0423v0.16933l0.04233 0.0423v0.0423l0.04233 0.0423v0.0423l0.12699 0.1269v0.0423l0.08466 0.0846h0.04233l0.08466 0.0846h0.04233l0.04233 0.0423h0.04233l0.04233 0.0423h0.04233l0.04233 0.0423h0.508l0.04233-0.0423h0.08467l0.04233-0.0423h0.04233l0.08466-0.0846h0.04233l0.21165-0.2115v-0.0423l0.08466-0.0846v-0.0423l0.04233-0.0423v-0.0847l0.04233-0.0423v-0.127l0.04233-0.0423v-0.21167l-0.04233-0.0423v-0.127l-0.04233-0.0423v-0.0847l-0.04233-0.0423v-0.0423l-0.04233-0.0423v-0.0423l-0.25398-0.2538h-0.04233l-0.08466-0.0846h-0.04233l-0.04233-0.0423h-0.08467l-0.04233-0.0423h-0.42333l-0.04233 0.0423h-0.127l-0.04233 0.0423h-0.04233l-0.04233 0.0423h-0.04233l-0.08466 0.0846h-0.04233"/>
   <path d="m29.049 215.94-0.04233 0.0423h-0.04233l-0.08466 0.0846v0.0423l-0.08466 0.0846v0.0423l-0.04233 0.0423v0.0847l-0.04233 0.0423v0.127l-0.04233 0.0423v0.21167l0.04233 0.0847v0.127l0.04233 0.0423v0.0423l0.04233 0.0423v0.0423l0.04233 0.0423v0.0423l0.12699 0.1269v0.0423l0.08466 0.0846h0.04233l0.08466 0.0846h0.04233l0.04233 0.0423h0.08467l0.04233 0.0423h0.127l0.08467 0.0423h0.16933l0.04233-0.0423h0.127l0.04233-0.0423h0.08467l0.04233-0.0423h0.04233l0.04233-0.0423h0.04233l0.08466-0.0846v-0.0423l0.04233-0.0423h0.04233l0.08466-0.0846v-0.0423l0.04233-0.0423v-0.0423l0.04233-0.0423v-0.0423l0.04233-0.0423v-0.16934l0.04233-0.0423v-0.29633l-0.04233-0.0423v-0.127l-0.04233-0.0423v-0.0423l-0.04233-0.0423v-0.0423l-0.12699-0.1269v-0.0423l-0.12699-0.1269h-0.04233l-0.08466-0.0846h-0.04233l-0.04233-0.0423h-0.04233l-0.04233-0.0423h-0.127l-0.04233-0.0423h-0.29633l-0.04233 0.0423h-0.08467l-0.04233 0.0423h-0.08467l-0.08466 0.0846h-0.04233l-0.08466 0.0846"/>
   <path d="m30.615 217.85-0.21165 0.2115v0.0423l-0.04233 0.0423v0.0423l-0.04233 0.0423v0.0847l-0.04233 0.0423v0.508l0.04233 0.0423v0.0847l0.04233 0.0423v0.0847l0.08466 0.0846v0.0423l0.04233 0.0423h0.04233l0.04233 0.0423v0.0423l0.08466 0.0846h0.04233l0.04233 0.0423h0.04233l0.04233 0.0423h0.04233l0.04233 0.0423h0.08467l0.08467 0.0423h0.33867l0.08467-0.0423h0.08467l0.04233-0.0423h0.04233l0.04233-0.0423h0.04233l0.12699-0.1269h0.04233l0.04233-0.0423v-0.0423l0.08466-0.0846v-0.0423l0.08466-0.0846v-0.0847l0.04233-0.0423v-0.0847l0.04233-0.0423v-0.42334l-0.04233-0.0423v-0.0847l-0.04233-0.0423v-0.0423l-0.04233-0.0423v-0.0423l-0.08466-0.0846v-0.0423l-0.12699-0.1269h-0.04233l-0.08466-0.0846h-0.04233l-0.04233-0.0423h-0.04233l-0.04233-0.0423h-0.04233l-0.04233-0.0423h-0.16933l-0.04233-0.0423h-0.127l-0.04233 0.0423h-0.16933l-0.04233 0.0423h-0.04233l-0.04233 0.0423h-0.04233l-0.08466 0.0846h-0.04233l-0.04233 0.0423"/>
   <path d="m32.181 219.75-0.12699 0.1269v0.0423l-0.08466 0.0846v0.0423l-0.04233 0.0423v0.0423l-0.04233 0.0423v0.0847l-0.04233 0.0423v0.46567l0.04233 0.0847v0.0423l0.04233 0.0423v0.0423l0.04233 0.0423v0.0423l0.04233 0.0423v0.0423l0.12699 0.1269h0.04233l0.04233 0.0423v0.0423l0.04233 0.0423h0.04233l0.04233 0.0423h0.04233l0.04233 0.0423h0.127l0.04233 0.0423h0.46567l0.04233-0.0423h0.04233l0.04233-0.0423h0.04233l0.04233-0.0423h0.04233l0.04233-0.0423h0.04233l0.16932-0.1692v-0.0423l0.08466-0.0846v-0.0423l0.04233-0.0423v-0.0423l0.04233-0.0423v-0.0847l0.04233-0.0423v-0.46567l-0.04233-0.0423v-0.127l-0.04233-0.0423v-0.0423l-0.08466-0.0846v-0.0423l-0.12699-0.1269h-0.04233l-0.04233-0.0423v-0.0423l-0.04233-0.0423h-0.04233l-0.04233-0.0423h-0.04233l-0.04233-0.0423h-0.127l-0.04233-0.0423h-0.46567l-0.04233 0.0423h-0.04233l-0.04233 0.0423h-0.04233l-0.04233 0.0423h-0.04233l-0.08466 0.0846h-0.04233"/>
   <path d="m33.748 221.7h-0.04233v0.0423l-0.12699 0.1269v0.0423l-0.08466 0.0846v0.0847l-0.04233 0.0423v0.0847l-0.04233 0.0847v0.381l0.04233 0.0423v0.0847l0.04233 0.0423v0.0423l0.04233 0.0423v0.0423l0.08466 0.0846v0.0423l0.16932 0.1692h0.04233l0.04233 0.0423h0.04233l0.08466 0.0846h0.08467l0.04233 0.0423h0.127l0.04233 0.0423h0.21167l0.04233-0.0423h0.127l0.04233-0.0423h0.04233l0.04233-0.0423h0.04233l0.04233-0.0423h0.04233l0.16932-0.1692h0.04233l0.04233-0.0423v-0.0423l0.04233-0.0423v-0.0423l0.04233-0.0423v-0.0423l0.04233-0.0423v-0.0847l0.04233-0.0423v-0.16933l0.04233-0.0423v-0.0847l-0.04233-0.0847v-0.16933l-0.04233-0.0423v-0.0423l-0.04233-0.0423v-0.0423l-0.04233-0.0847v-0.0423h-0.04233l-0.12699-0.1269v-0.0423l-0.08466-0.0846h-0.04233l-0.04233-0.0423h-0.04233l-0.04233-0.0423h-0.04233l-0.04233-0.0423h-0.08467l-0.08467-0.0423h-0.29633l-0.04233 0.0423h-0.16933l-0.04233 0.0423h-0.04233l-0.04233 0.0423h-0.04233l-0.12699 0.1269"/>
   <path d="m36.923 225.51-0.16932 0.1692v0.0423l-0.08466 0.0846v0.0423l-0.04233 0.0423v0.0847l-0.04233 0.0423v0.127l-0.04233 0.0423v0.16934l0.04233 0.0423v0.16933l0.04233 0.0847v0.0423l0.04233 0.0423v0.0423l0.04233 0.0423v0.0423l0.12699 0.1269v0.0423h0.04233l0.08466 0.0846h0.04233l0.08466 0.0846h0.04233l0.04233 0.0423h0.08467l0.04233 0.0423h0.42333l0.04233-0.0423h0.127l0.04233-0.0423h0.04233l0.04233-0.0423h0.04233l0.08466-0.0846h0.04233l0.04233-0.0423v-0.0423l0.12699-0.1269v-0.0423l0.04233-0.0423v-0.0423l0.04233-0.0423v-0.0423l0.04233-0.0423v-0.0847l0.04233-0.0423v-0.381l-0.04233-0.0423v-0.127l-0.04233-0.0423v-0.0423l-0.04233-0.0423v-0.0423l-0.08466-0.0846v-0.0423l-0.08466-0.0846h-0.04233l-0.12699-0.1269h-0.04233l-0.04233-0.0423h-0.04233l-0.04233-0.0423h-0.08467l-0.04233-0.0423h-0.46567l-0.04233 0.0423h-0.08467l-0.08466 0.0846h-0.04233l-0.04233 0.0423h-0.04233l-0.04233 0.0423"/>
   <path d="m38.489 227.45h-0.04233l-0.08466 0.0846v0.0423l-0.08466 0.0846v0.0423l-0.04233 0.0423v0.0423l-0.04233 0.0423v0.0847l-0.04233 0.0423v0.508l0.04233 0.0423v0.0847l0.04233 0.0423v0.0423l0.08466 0.0846v0.0423l0.25398 0.2538h0.04233l0.04233 0.0423h0.04233l0.04233 0.0423h0.04233l0.04233 0.0423h0.21167l0.04233 0.0423h0.08467l0.04233-0.0423h0.16933l0.04233-0.0423h0.08467l0.04233-0.0423h0.04233l0.08466-0.0846h0.04233l0.12699-0.1269v-0.0423l0.04233-0.0423h0.04233l0.04233-0.0423v-0.0423l0.04233-0.0423v-0.0423l0.04233-0.0847v-0.0847l0.04233-0.0423v-0.42334l-0.04233-0.0423v-0.0847l-0.04233-0.0423v-0.0847l-0.04233-0.0423v-0.0423l-0.04233-0.0423v-0.0423l-0.04233-0.0423h-0.04233l-0.21165-0.2115h-0.04233l-0.08467-0.0423h-0.04233l-0.04233-0.0423h-0.08467l-0.04233-0.0423h-0.381l-0.04233 0.0423h-0.08467l-0.04233 0.0423h-0.04233l-0.04233 0.0423h-0.04233l-0.12699 0.1269"/>
   <path d="m35.356 223.6-0.08466 0.0846h-0.04233l-0.04233 0.0423v0.0423l-0.08466 0.0846v0.0423l-0.04233 0.0423v0.0423l-0.04233 0.0423v0.16934l-0.04233 0.0423v0.29633l0.04233 0.0423v0.0847l0.04233 0.0423v0.0847l0.08466 0.0846v0.0423l0.08466 0.0846v0.0423l0.16932 0.1692h0.04233l0.04233 0.0423h0.04233l0.04233 0.0423h0.04233l0.04233 0.0423h0.08467l0.04233 0.0423h0.33867l0.04233-0.0423h0.127l0.04233-0.0423h0.08467l0.08466-0.0846h0.04233l0.04233-0.0423v-0.0423h0.04233l0.12699-0.1269v-0.0423l0.08466-0.0846v-0.0423l0.04233-0.0423v-0.0423l0.04233-0.0423v-0.16934l0.04233-0.0423v-0.21167l-0.04233-0.0847v-0.127l-0.04233-0.0423v-0.0423l-0.04233-0.0423v-0.0423l-0.04233-0.0423v-0.0423l-0.08466-0.0846v-0.0423l-0.12699-0.1269h-0.04233l-0.04233-0.0423h-0.04233l-0.08466-0.0846h-0.08467l-0.04233-0.0423h-0.127l-0.04233-0.0423h-0.21167l-0.04233 0.0423h-0.127l-0.04233 0.0423h-0.08467l-0.04233 0.0423h-0.04233l-0.04233 0.0423h-0.04233l-0.04233 0.0423v0.0423"/>
   <path d="m25.874 212.09-0.08466 0.0846v0.0423l-0.16932 0.1692v0.0847l-0.04233 0.0423v0.0847l-0.04233 0.0423v0.42334l0.04233 0.0423v0.0847l0.04233 0.0847v0.0423l0.04233 0.0423v0.0423l0.08466 0.0846v0.0423l0.04233 0.0423h0.04233l0.12699 0.1269h0.04233l0.08466 0.0846h0.08467l0.04233 0.0423h0.08467l0.04233 0.0423h0.381l0.04233-0.0423h0.08467l0.04233-0.0423h0.04233l0.04233-0.0423h0.04233l0.08466-0.0846h0.04233l0.12699-0.1269v-0.0423l0.08466-0.0846v-0.0423l0.04233-0.0423v-0.0423l0.04233-0.0423v-0.0423l0.04233-0.0423v-0.55033l-0.04233-0.0423v-0.0847l-0.04233-0.0423v-0.0423l-0.08466-0.0846v-0.0423l-0.12699-0.1269v-0.0423h-0.04233l-0.08466-0.0846h-0.04233l-0.04233-0.0423h-0.04233l-0.04233-0.0423h-0.04233l-0.04233-0.0423h-0.55033l-0.04233 0.0423h-0.08467l-0.04233 0.0423h-0.04233l-0.08466 0.0846h-0.04233l-0.04233 0.0423"/>
   <path d="m27.44 213.99-0.04233 0.0423v0.0423l-0.12699 0.1269v0.0423l-0.04233 0.0423v0.0423l-0.04233 0.0423v0.0423l-0.04233 0.0423v0.0847l-0.04233 0.0423v0.33866l0.04233 0.0423v0.16933l0.04233 0.0423v0.0423l0.04233 0.0423v0.0423l0.12699 0.1269v0.0423l0.08466 0.0846h0.04233l0.08466 0.0846h0.04233l0.04233 0.0423h0.04233l0.04233 0.0423h0.04233l0.04233 0.0423h0.508l0.04233-0.0423h0.08467l0.04233-0.0423h0.04233l0.08466-0.0846h0.04233l0.21165-0.2115v-0.0423l0.08466-0.0846v-0.0423l0.04233-0.0423v-0.0847l0.04233-0.0423v-0.127l0.04233-0.0423v-0.21167l-0.04233-0.0423v-0.127l-0.04233-0.0423v-0.0847l-0.04233-0.0423v-0.0423l-0.04233-0.0423v-0.0423l-0.25398-0.2538h-0.04233l-0.08466-0.0846h-0.04233l-0.04233-0.0423h-0.08467l-0.04233-0.0423h-0.42333l-0.04233 0.0423h-0.127l-0.04233 0.0423h-0.04233l-0.04233 0.0423h-0.04233l-0.08466 0.0846h-0.04233"/>
   <path d="m29.049 215.94-0.04233 0.0423h-0.04233l-0.08466 0.0846v0.0423l-0.08466 0.0846v0.0423l-0.04233 0.0423v0.0847l-0.04233 0.0423v0.127l-0.04233 0.0423v0.21167l0.04233 0.0847v0.127l0.04233 0.0423v0.0423l0.04233 0.0423v0.0423l0.04233 0.0423v0.0423l0.12699 0.1269v0.0423l0.08466 0.0846h0.04233l0.08466 0.0846h0.04233l0.04233 0.0423h0.08467l0.04233 0.0423h0.127l0.08467 0.0423h0.16933l0.04233-0.0423h0.127l0.04233-0.0423h0.08467l0.04233-0.0423h0.04233l0.04233-0.0423h0.04233l0.08466-0.0846v-0.0423l0.04233-0.0423h0.04233l0.08466-0.0846v-0.0423l0.04233-0.0423v-0.0423l0.04233-0.0423v-0.0423l0.04233-0.0423v-0.16934l0.04233-0.0423v-0.29633l-0.04233-0.0423v-0.127l-0.04233-0.0423v-0.0423l-0.04233-0.0423v-0.0423l-0.12699-0.1269v-0.0423l-0.12699-0.1269h-0.04233l-0.08466-0.0846h-0.04233l-0.04233-0.0423h-0.04233l-0.04233-0.0423h-0.127l-0.04233-0.0423h-0.29633l-0.04233 0.0423h-0.08467l-0.04233 0.0423h-0.08467l-0.08466 0.0846h-0.04233l-0.08466 0.0846"/>
   <path d="m30.615 217.85-0.21165 0.2115v0.0423l-0.04233 0.0423v0.0423l-0.04233 0.0423v0.0847l-0.04233 0.0423v0.508l0.04233 0.0423v0.0847l0.04233 0.0423v0.0847l0.08466 0.0846v0.0423l0.04233 0.0423h0.04233l0.04233 0.0423v0.0423l0.08466 0.0846h0.04233l0.04233 0.0423h0.04233l0.04233 0.0423h0.04233l0.04233 0.0423h0.08467l0.08467 0.0423h0.33867l0.08467-0.0423h0.08467l0.04233-0.0423h0.04233l0.04233-0.0423h0.04233l0.12699-0.1269h0.04233l0.04233-0.0423v-0.0423l0.08466-0.0846v-0.0423l0.08466-0.0846v-0.0847l0.04233-0.0423v-0.0847l0.04233-0.0423v-0.42334l-0.04233-0.0423v-0.0847l-0.04233-0.0423v-0.0423l-0.04233-0.0423v-0.0423l-0.08466-0.0846v-0.0423l-0.12699-0.1269h-0.04233l-0.08466-0.0846h-0.04233l-0.04233-0.0423h-0.04233l-0.04233-0.0423h-0.04233l-0.04233-0.0423h-0.16933l-0.04233-0.0423h-0.127l-0.04233 0.0423h-0.16933l-0.04233 0.0423h-0.04233l-0.04233 0.0423h-0.04233l-0.08466 0.0846h-0.04233l-0.04233 0.0423"/>
   <path d="m32.181 219.75-0.12699 0.1269v0.0423l-0.08466 0.0846v0.0423l-0.04233 0.0423v0.0423l-0.04233 0.0423v0.0847l-0.04233 0.0423v0.46567l0.04233 0.0847v0.0423l0.04233 0.0423v0.0423l0.04233 0.0423v0.0423l0.04233 0.0423v0.0423l0.12699 0.1269h0.04233l0.04233 0.0423v0.0423l0.04233 0.0423h0.04233l0.04233 0.0423h0.04233l0.04233 0.0423h0.127l0.04233 0.0423h0.46567l0.04233-0.0423h0.04233l0.04233-0.0423h0.04233l0.04233-0.0423h0.04233l0.04233-0.0423h0.04233l0.16932-0.1692v-0.0423l0.08466-0.0846v-0.0423l0.04233-0.0423v-0.0423l0.04233-0.0423v-0.0847l0.04233-0.0423v-0.46567l-0.04233-0.0423v-0.127l-0.04233-0.0423v-0.0423l-0.08466-0.0846v-0.0423l-0.12699-0.1269h-0.04233l-0.04233-0.0423v-0.0423l-0.04233-0.0423h-0.04233l-0.04233-0.0423h-0.04233l-0.04233-0.0423h-0.127l-0.04233-0.0423h-0.46567l-0.04233 0.0423h-0.04233l-0.04233 0.0423h-0.04233l-0.04233 0.0423h-0.04233l-0.08466 0.0846h-0.04233"/>
   <path d="m33.748 221.7h-0.04233v0.0423l-0.12699 0.1269v0.0423l-0.08466 0.0846v0.0847l-0.04233 0.0423v0.0847l-0.04233 0.0847v0.381l0.04233 0.0423v0.0847l0.04233 0.0423v0.0423l0.04233 0.0423v0.0423l0.08466 0.0846v0.0423l0.16932 0.1692h0.04233l0.04233 0.0423h0.04233l0.08466 0.0846h0.08467l0.04233 0.0423h0.127l0.04233 0.0423h0.21167l0.04233-0.0423h0.127l0.04233-0.0423h0.04233l0.04233-0.0423h0.04233l0.04233-0.0423h0.04233l0.16932-0.1692h0.04233l0.04233-0.0423v-0.0423l0.04233-0.0423v-0.0423l0.04233-0.0423v-0.0423l0.04233-0.0423v-0.0847l0.04233-0.0423v-0.16933l0.04233-0.0423v-0.0847l-0.04233-0.0847v-0.16933l-0.04233-0.0423v-0.0423l-0.04233-0.0423v-0.0423l-0.04233-0.0847v-0.0423h-0.04233l-0.12699-0.1269v-0.0423l-0.08466-0.0846h-0.04233l-0.04233-0.0423h-0.04233l-0.04233-0.0423h-0.04233l-0.04233-0.0423h-0.08467l-0.08467-0.0423h-0.29633l-0.04233 0.0423h-0.16933l-0.04233 0.0423h-0.04233l-0.04233 0.0423h-0.04233l-0.12699 0.1269"/>
   <path d="m36.923 225.51-0.16932 0.1692v0.0423l-0.08466 0.0846v0.0423l-0.04233 0.0423v0.0847l-0.04233 0.0423v0.127l-0.04233 0.0423v0.16934l0.04233 0.0423v0.16933l0.04233 0.0847v0.0423l0.04233 0.0423v0.0423l0.04233 0.0423v0.0423l0.12699 0.1269v0.0423h0.04233l0.08466 0.0846h0.04233l0.08466 0.0846h0.04233l0.04233 0.0423h0.08467l0.04233 0.0423h0.42333l0.04233-0.0423h0.127l0.04233-0.0423h0.04233l0.04233-0.0423h0.04233l0.08466-0.0846h0.04233l0.04233-0.0423v-0.0423l0.12699-0.1269v-0.0423l0.04233-0.0423v-0.0423l0.04233-0.0423v-0.0423l0.04233-0.0423v-0.0847l0.04233-0.0423v-0.381l-0.04233-0.0423v-0.127l-0.04233-0.0423v-0.0423l-0.04233-0.0423v-0.0423l-0.08466-0.0846v-0.0423l-0.08466-0.0846h-0.04233l-0.12699-0.1269h-0.04233l-0.04233-0.0423h-0.04233l-0.04233-0.0423h-0.08467l-0.04233-0.0423h-0.46567l-0.04233 0.0423h-0.08467l-0.08466 0.0846h-0.04233l-0.04233 0.0423h-0.04233l-0.04233 0.0423"/>
   <path d="m38.489 227.45h-0.04233l-0.08466 0.0846v0.0423l-0.08466 0.0846v0.0423l-0.04233 0.0423v0.0423l-0.04233 0.0423v0.0847l-0.04233 0.0423v0.508l0.04233 0.0423v0.0847l0.04233 0.0423v0.0423l0.08466 0.0846v0.0423l0.25398 0.2538h0.04233l0.04233 0.0423h0.04233l0.04233 0.0423h0.04233l0.04233 0.0423h0.21167l0.04233 0.0423h0.08467l0.04233-0.0423h0.16933l0.04233-0.0423h0.08467l0.04233-0.0423h0.04233l0.08466-0.0846h0.04233l0.12699-0.1269v-0.0423l0.04233-0.0423h0.04233l0.04233-0.0423v-0.0423l0.04233-0.0423v-0.0423l0.04233-0.0847v-0.0847l0.04233-0.0423v-0.42334l-0.04233-0.0423v-0.0847l-0.04233-0.0423v-0.0847l-0.04233-0.0423v-0.0423l-0.04233-0.0423v-0.0423l-0.04233-0.0423h-0.04233l-0.21165-0.2115h-0.04233l-0.08467-0.0423h-0.04233l-0.04233-0.0423h-0.08467l-0.04233-0.0423h-0.381l-0.04233 0.0423h-0.08467l-0.04233 0.0423h-0.04233l-0.04233 0.0423h-0.04233l-0.12699 0.1269"/>
   <path d="m35.356 223.6-0.08466 0.0846h-0.04233l-0.04233 0.0423v0.0423l-0.08466 0.0846v0.0423l-0.04233 0.0423v0.0423l-0.04233 0.0423v0.16934l-0.04233 0.0423v0.29633l0.04233 0.0423v0.0847l0.04233 0.0423v0.0847l0.08466 0.0846v0.0423l0.08466 0.0846v0.0423l0.16932 0.1692h0.04233l0.04233 0.0423h0.04233l0.04233 0.0423h0.04233l0.04233 0.0423h0.08467l0.04233 0.0423h0.33867l0.04233-0.0423h0.127l0.04233-0.0423h0.08467l0.08466-0.0846h0.04233l0.04233-0.0423v-0.0423h0.04233l0.12699-0.1269v-0.0423l0.08466-0.0846v-0.0423l0.04233-0.0423v-0.0423l0.04233-0.0423v-0.16934l0.04233-0.0423v-0.21167l-0.04233-0.0847v-0.127l-0.04233-0.0423v-0.0423l-0.04233-0.0423v-0.0423l-0.04233-0.0423v-0.0423l-0.08466-0.0846v-0.0423l-0.12699-0.1269h-0.04233l-0.04233-0.0423h-0.04233l-0.08466-0.0846h-0.08467l-0.04233-0.0423h-0.127l-0.04233-0.0423h-0.21167l-0.04233 0.0423h-0.127l-0.04233 0.0423h-0.08467l-0.04233 0.0423h-0.04233l-0.04233 0.0423h-0.04233l-0.04233 0.0423v0.0423"/>
   <path d="m25.916 209.55-0.12699 0.1269h-0.04233v0.0423l-0.08466 0.0846v0.0423l-0.04233 0.0423v0.0423l-0.04233 0.0847v0.127l-0.04233 0.0423v0.254l0.04233 0.0423v0.127l0.04233 0.0423v0.0423l0.04233 0.0423v0.0847l0.04233 0.0423v0.0423l0.04233 0.0423h0.04233v0.0423l0.16932 0.1692h0.04233l0.04233 0.0423h0.04233l0.04233 0.0423h0.04233l0.04233 0.0423h0.08467l0.04233 0.0423h0.381l0.04233-0.0423h0.08467l0.08467-0.0423h0.04233l0.04233-0.0423h0.04233l0.25398-0.2538v-0.0423l0.08466-0.0846v-0.0423l0.04233-0.0423v-0.0423l0.04233-0.0423v-0.127l0.04233-0.0847v-0.254l-0.04233-0.0847v-0.0847l-0.04233-0.0423v-0.0847l-0.08466-0.0846v-0.0423l-0.08466-0.0846v-0.0423l-0.08466-0.0846h-0.04233l-0.08466-0.0846h-0.04233l-0.04233-0.0423h-0.04233l-0.04233-0.0423h-0.04233l-0.04233-0.0423h-0.16933l-0.08467-0.0423h-0.08467l-0.04233 0.0423h-0.16933l-0.04233 0.0423h-0.04233l-0.08467 0.0423h-0.04233l-0.04233 0.0423h-0.04233v0.0423l-0.04233 0.0423"/>
   <path d="m38.531 229.99-0.16932 0.1692v0.0423l-0.08466 0.0846v0.0423l-0.04233 0.0423v0.0847l-0.04233 0.0423v0.127l-0.04233 0.0847v0.16933l0.04233 0.0423v0.16934l0.04233 0.0423v0.0423l0.04233 0.0423v0.0423l0.04233 0.0423v0.0423l0.12699 0.1269v0.0423l0.04233 0.0423h0.04233l0.08466 0.0846h0.04233l0.04233 0.0423h0.04233l0.04233 0.0423h0.04233l0.04233 0.0423h0.508l0.08467-0.0423h0.08467l0.04233-0.0423h0.04233l0.08466-0.0846h0.04233l0.08466-0.0846v-0.0423l0.16932-0.1692v-0.0847l0.04233-0.0423v-0.0423l0.04233-0.0423v-0.0847l0.04233-0.0423v-0.33867l-0.04233-0.0423v-0.127l-0.04233-0.0847v-0.0423l-0.04233-0.0423v-0.0423l-0.08466-0.0846v-0.0423l-0.04233-0.0423h-0.04233l-0.12699-0.1269h-0.04233l-0.08466-0.0846h-0.08467l-0.04233-0.0423h-0.04233l-0.04233-0.0423h-0.42333l-0.04233 0.0423h-0.08467l-0.04233 0.0423h-0.04233l-0.04233 0.0423h-0.04233l-0.08466 0.0846h-0.04233"/>
  </g>
 </g>
</svg>
