<?xml version="1.0" encoding="UTF-8"?>
<!-- Created with Inkscape (http://www.inkscape.org/) -->
<svg width="41.223mm" height="17.94mm" version="1.1" viewBox="0 0 41.223 17.94" xmlns="http://www.w3.org/2000/svg">
 <g transform="translate(-5.5559 -166.95)">
  <path d="m5.5933 166.99h20.193l-10.118 17.865-10.075-17.865" fill="#fff" fill-rule="evenodd" stroke="#1f1a17" stroke-linecap="round" stroke-linejoin="round" stroke-miterlimit="10" stroke-width=".07493"/>
  <path d="m7.6253 168.09h16.171l-8.0857 14.774-8.0857-14.774" fill="#1f1a17" fill-rule="evenodd" stroke="#1f1a17" stroke-linecap="round" stroke-linejoin="round" stroke-miterlimit="10" stroke-width=".07493"/>
  <path d="m16.038 169.71-1.7198 2.5177c-0.65732 0.97152-0.82682 1.3891-0.82682 2.0671 0 1.3601 1.0253 2.3771 2.3978 2.3771 1.356 0 2.3399-1.0253 2.3399-2.4267 0-1.3105-0.97565-2.3482-2.2076-2.3482-0.29352 0-0.5085 0.0538-0.81856 0.19431l1.6371-2.3812zm-0.1695 2.8071c0.97152 0 1.666 0.74001 1.666 1.757 0 1.0294-0.69453 1.7777-1.6454 1.7777-0.97978 0-1.7033-0.76068-1.7033-1.7942 0-0.98392 0.73587-1.7405 1.6826-1.7405z" fill="#fff" aria-label="6"/>
  <path d="m46.741 184.77h-20.024l10.033-17.78 9.9907 17.78" fill="#fff" fill-rule="evenodd" stroke="#1f1a17" stroke-linecap="round" stroke-linejoin="round" stroke-miterlimit="10" stroke-width=".07493"/>
  <path d="m44.752 183.67h-16.044l8.001-14.69 8.0433 14.69" fill="#1f1a17" fill-rule="evenodd" stroke="#1f1a17" stroke-linecap="round" stroke-linejoin="round" stroke-miterlimit="10" stroke-width=".07493"/>
  <path d="m37.005 174.57 0.55033 0.33867-1.8203 2.7093 0.08467-0.0423h0.08467l0.08467-0.0423h0.16933l0.08467-0.0423h0.381l0.08467 0.0423h0.16933l0.16934 0.0846h0.08467l0.25401 0.1269 0.08467 0.0847 0.16934 0.0846 0.04233 0.0847 0.08467 0.0847 0.08467 0.0423 0.08466 0.1694 0.08467 0.0847 0.04233 0.0847 0.04233 0.0423 0.04233 0.0847 0.04233 0.127 0.04233 0.0847v0.0847l0.04233 0.0847v0.0847l0.04233 0.0847v0.59267l-0.04233 0.0847v0.127l-0.04233 0.0423v0.127l-0.04233 0.0847v0.0423l-0.04233 0.0847-0.04233 0.0423v0.0847l-0.08466 0.0846-0.04233 0.0847-0.12699 0.1269-0.04233 0.0847-0.16932 0.1692-0.08467 0.0423-0.12699 0.1269-0.08467 0.0423h-0.04233l-0.08467 0.0423-0.04233 0.0423-0.08467 0.0423h-0.04233l-0.08467 0.0423h-0.04233l-0.08467 0.0423h-0.04233l-0.08467 0.0423h-0.21167l-0.04233 0.0423h-0.42333l-0.08467-0.0423h-0.16933l-0.08467-0.0423h-0.04233l-0.08467-0.0423h-0.04233l-0.08467-0.0423h-0.04233l-0.08467-0.0423-0.04233-0.0423h-0.08467l-0.08466-0.0846-0.08467-0.0423-0.21165-0.2115-0.08467-0.0423-0.08466-0.0846-0.04233-0.0847v-0.0423l-0.04233-0.0423-0.04233-0.0847-0.08466-0.0846-0.04233-0.0847v-0.0423l-0.04233-0.0847v-0.0423l-0.04233-0.0847v-0.0423l-0.04233-0.0847v-0.127l-0.04233-0.0423v-0.635l0.04233-0.127v-0.0847l0.08466-0.254 0.04233-0.0847 0.12699-0.381 0.25401-0.381 0.08467-0.16933 0.127-0.16934zm-0.762 3.5137h-0.254l-0.08467 0.0423h-0.08467l-0.04233 0.0423h-0.04233l-0.08467 0.0423-0.04233 0.0423h-0.08467l-0.08466 0.0846-0.08467 0.0423-0.08466 0.0846-0.04233 0.0847-0.08467 0.0423-0.04233 0.0423v0.0423l-0.04233 0.0847-0.04233 0.0423-0.04233 0.0847-0.04233 0.0423v0.0847l-0.04233 0.0423v0.127l-0.04233 0.0847v0.42333l0.04233 0.0423v0.127l0.04233 0.0847v0.0423l0.04233 0.0847 0.04233 0.0423 0.04233 0.0847 0.04233 0.0423v0.0423l0.04233 0.0423 0.08467 0.0847 0.12699 0.1269 0.08467 0.0423 0.08466 0.0846 0.08467 0.0423 0.04233 0.0423h0.08467l0.04233 0.0423h0.04233l0.08467 0.0423h0.21167l0.08467 0.0423h0.127l0.08467-0.0423h0.16933l0.08467-0.0423h0.08467l0.04233-0.0423h0.04233l0.08467-0.0423 0.04233-0.0423 0.08467-0.0423 0.08466-0.0846 0.08467-0.0423 0.08466-0.0846 0.04233-0.0847 0.12699-0.1269 0.04233-0.0847v-0.0423l0.04233-0.0847 0.04233-0.0423v-0.0847l0.04233-0.0423v-0.29633l0.04233-0.0423-0.04233-0.0847v-0.254l-0.04233-0.0847v-0.0423l-0.04233-0.0847-0.04233-0.0423v-0.0847l-0.04233-0.0423-0.04233-0.0847-0.12699-0.1269-0.04233-0.0847-0.04233-0.0423-0.08467-0.0423-0.08466-0.0846-0.08467-0.0423h-0.04233l-0.08467-0.0423-0.04233-0.0423h-0.04233l-0.08467-0.0423h-0.08467l-0.04233-0.0423h-0.29633" fill="#fff"/>
 </g>
</svg>
