<?xml version="1.0" encoding="UTF-8"?>
<!-- Created with Inkscape (http://www.inkscape.org/) -->
<svg width="18.016mm" height="16.957mm" version="1.1" viewBox="0 0 18.016 16.957" xmlns="http://www.w3.org/2000/svg">
 <g transform="translate(-16.139 -198.44)" fill-rule="evenodd" stroke="#1f1a17" stroke-linecap="round" stroke-linejoin="round" stroke-miterlimit="10" stroke-width=".066209">
  <path d="m16.172 215.36h17.949v-16.891h-17.949z" fill="#848382"/>
  <g fill="#fff500">
   <path d="m25.232 212.86h-0.33867l-0.04233-0.0423h-0.08467l-0.08467-0.0423h-0.04233l-0.08467-0.0423-0.04233-0.0423-0.08467-0.0423-0.08466-0.0846-0.08467-0.0423-0.16932-0.1692-0.08467-0.0847v-0.0423l-0.04233-0.0423-0.04233-0.0847-0.04233-0.0423-0.04233-0.0847v-0.0847l-0.04233-0.0423v-0.0847l-0.04233-0.0423v-0.635l0.04233-0.0423v-0.0847l0.04233-0.0423v-0.0847l0.04233-0.0847 0.04233-0.0423 0.04233-0.0847 0.04233-0.0423v-0.0423l0.08467-0.0847 0.16932-0.1692 0.08467-0.0423 0.08466-0.0846 0.08467-0.0423 0.04233-0.0423 0.08467-0.0423h0.04233l0.08467-0.0423h0.08467l0.04233-0.0423h0.635l0.04233 0.0423h0.08467l0.08467 0.0423h0.04233l0.08467 0.0423 0.04233 0.0423 0.08467 0.0423 0.08466 0.0846 0.08467 0.0423 0.12699 0.1269 0.08467 0.0423 0.04233 0.0847 0.04233 0.0423v0.0423l0.04233 0.0847 0.04233 0.0423 0.04233 0.0847v0.0847l0.04233 0.0423v0.0847l0.04233 0.0423v0.254l0.04233 0.0423-0.04233 0.0847v0.254l-0.04233 0.0423v0.0847l-0.04233 0.0423v0.0847l-0.04233 0.0847-0.04233 0.0423-0.04233 0.0847v0.0423l-0.04233 0.0423-0.04233 0.0847-0.08467 0.0423-0.12699 0.1269-0.08467 0.0423-0.08466 0.0846-0.08467 0.0423-0.04233 0.0423-0.08467 0.0423h-0.04233l-0.08467 0.0423h-0.08467l-0.04233 0.0423h-0.29633"/>
   <path d="m20.702 203.64h-0.127l-0.08467-0.0423h-0.16933l-0.04233-0.0423h-0.08467l-0.04233-0.0423-0.08467-0.0423h-0.08467l-0.08466-0.0846-0.08467-0.0423-0.08466-0.0846-0.08467-0.0423-0.04233-0.0847-0.12699-0.1269-0.04233-0.0847-0.04233-0.0423v-0.0847l-0.04233-0.0423-0.04233-0.0847v-0.0847l-0.04233-0.0423v-0.16933l-0.04233-0.0423v-0.33867l0.04233-0.0423v-0.16934l0.04233-0.0423v-0.0847l0.04233-0.0847 0.04233-0.0423v-0.0847l0.08466-0.0846 0.04233-0.0847 0.08466-0.0846 0.04233-0.0847 0.08467-0.0423 0.08466-0.0846 0.08467-0.0423 0.08466-0.0846h0.08467l0.08467-0.0423 0.04233-0.0423h0.08467l0.04233-0.0423h0.16933l0.08467-0.0423h0.29633l0.04233 0.0423h0.16933l0.08467 0.0423h0.04233l0.08467 0.0423 0.04233 0.0423h0.08467l0.04233 0.0423 0.08467 0.0423 0.08466 0.0846 0.08467 0.0423 0.04233 0.0423 0.04233 0.0847 0.08466 0.0846 0.04233 0.0847 0.08466 0.0846 0.04233 0.0847v0.0423l0.08466 0.1694v0.127l0.04233 0.0847v0.42333l-0.04233 0.0847v0.127l-0.08466 0.1694v0.0423l-0.04233 0.0847-0.04233 0.0423-0.04233 0.0847-0.12699 0.1269-0.04233 0.0847-0.04233 0.0423-0.08467 0.0423-0.08466 0.0846-0.08467 0.0423-0.04233 0.0423h-0.08467l-0.04233 0.0423-0.08467 0.0423h-0.04233l-0.08467 0.0423h-0.16933l-0.04233 0.0423h-0.16933"/>
   <path d="m29.719 203.64h-0.16933l-0.04233-0.0423h-0.16933l-0.04233-0.0423h-0.08467l-0.08467-0.0423-0.04233-0.0423h-0.08467l-0.04233-0.0423-0.08467-0.0423-0.08466-0.0846-0.08467-0.0423-0.04233-0.0423-0.04233-0.0847-0.12699-0.1269-0.04233-0.0847-0.04233-0.0423-0.04233-0.0847v-0.0423l-0.04233-0.0847v-0.0847l-0.04233-0.0423v-0.0847l-0.04233-0.0847v-0.42333l0.04233-0.0847v-0.0847l0.04233-0.0423v-0.0847l0.04233-0.0847v-0.0423l0.04233-0.0847 0.08466-0.0846 0.04233-0.0847 0.08466-0.0846 0.04233-0.0847 0.04233-0.0423 0.08467-0.0423 0.08466-0.0846 0.08467-0.0423 0.04233-0.0423h0.08467l0.04233-0.0423 0.08467-0.0423h0.08467l0.04233-0.0423h0.16933l0.04233-0.0423h0.29633l0.08467 0.0423h0.16933l0.04233 0.0423h0.08467l0.08467 0.0423 0.04233 0.0423h0.08467l0.08466 0.0846 0.08467 0.0423 0.08466 0.0846 0.08467 0.0423 0.04233 0.0847 0.08466 0.0846 0.04233 0.0847 0.08466 0.0846v0.0847l0.04233 0.0423 0.04233 0.0847v0.0847l0.04233 0.0423v0.16934l0.04233 0.0423v0.33867l-0.04233 0.0423v0.16933l-0.04233 0.0423v0.0847l-0.04233 0.0847-0.04233 0.0423v0.0847l-0.04233 0.0423-0.04233 0.0847-0.12699 0.1269-0.04233 0.0847-0.08467 0.0423-0.08466 0.0846-0.08467 0.0423-0.08466 0.0846h-0.08467l-0.04233 0.0423-0.08467 0.0423h-0.08467l-0.04233 0.0423h-0.16933l-0.08467 0.0423h-0.127"/>
  </g>
 </g>
</svg>
