<?xml version="1.0" encoding="UTF-8" standalone="no"?>
<!-- Created with Inkscape (http://www.inkscape.org/) -->

<svg
   width="11.547094mm"
   height="37.12891mm"
   viewBox="0 0 11.547095 37.128909"
   version="1.1"
   id="svg1"
   xmlns="http://www.w3.org/2000/svg"
   xmlns:svg="http://www.w3.org/2000/svg">
  <defs
     id="defs1">
    <clipPath
       clipPathUnits="userSpaceOnUse"
       id="clipPath106">
      <path
         d="m 293.64,379.46 h 30.72 v 30 h -30.72 z"
         transform="translate(-294.66003,-409.46001)"
         id="path106" />
    </clipPath>
    <clipPath
       clipPathUnits="userSpaceOnUse"
       id="clipPath151">
      <path
         d="m 2232,5240.67 h 308 v -310 h -308 z"
         transform="translate(-2385.9998,-5240.6699)"
         id="path151" />
    </clipPath>
    <clipPath
       clipPathUnits="userSpaceOnUse"
       id="clipPath159">
      <path
         d="m 2177,3883.67 h 418 v -1037 h -418 z"
         transform="translate(2.0833333e-4,2.0833333e-4)"
         id="path159" />
    </clipPath>
    <clipPath
       clipPathUnits="userSpaceOnUse"
       id="clipPath176">
      <path
         d="m 2177,2430.67 h 418 v -1037 h -418 z"
         transform="translate(2.0833333e-4,2.0833333e-4)"
         id="path176" />
    </clipPath>
    <clipPath
       clipPathUnits="userSpaceOnUse"
       id="clipPath270">
      <path
         d="m 2177,3851.67 h 418 v -1036 h -418 z"
         transform="translate(0,2.0833333e-4)"
         id="path270" />
    </clipPath>
    <clipPath
       clipPathUnits="userSpaceOnUse"
       id="clipPath287">
      <path
         d="m 2177,2399.67 h 418 v -1037 h -418 z"
         transform="translate(0,2.0833333e-4)"
         id="path287" />
    </clipPath>
    <clipPath
       clipPathUnits="userSpaceOnUse"
       id="clipPath373">
      <path
         d="m 2380,4896.67 h 39 v -653 h -39 z"
         transform="matrix(1.0363639,0,0,-0.96609957,-2502.8204,4728.75)"
         id="path373" />
    </clipPath>
    <clipPath
       clipPathUnits="userSpaceOnUse"
       id="clipPath380">
      <path
         d="m 2246,5184.67 h 306 v -310 h -306 z"
         transform="matrix(1.0363639,0,0,-0.96609957,-2486.2399,5008.9199)"
         id="path380" />
    </clipPath>
    <clipPath
       clipPathUnits="userSpaceOnUse"
       id="clipPath385">
      <path
         d="m 2221,4801.67 h 331 v -341 h -331 z"
         transform="matrix(1.0363639,0,0,-0.96609957,-2643.7601,4313.3198)"
         id="path385" />
    </clipPath>
    <clipPath
       clipPathUnits="userSpaceOnUse"
       id="clipPath391">
      <path
         d="m 2177,3780.67 h 418 v -1036 h -418 z"
         transform="translate(-2.0833333e-4,2.0833333e-4)"
         id="path391" />
    </clipPath>
    <clipPath
       clipPathUnits="userSpaceOnUse"
       id="clipPath408">
      <path
         d="m 2177,2327.67 h 418 v -1036 h -418 z"
         transform="translate(-2.0833333e-4,2.0833333e-4)"
         id="path408" />
    </clipPath>
    <clipPath
       clipPathUnits="userSpaceOnUse"
       id="clipPath510">
      <path
         d="m 2177,4125.67 h 418 v -1036 h -418 z"
         transform="translate(2.0833332e-4,2.0833333e-4)"
         id="path510" />
    </clipPath>
    <clipPath
       clipPathUnits="userSpaceOnUse"
       id="clipPath528">
      <path
         d="m 2177,2587.67 h 418 v -1036 h -418 z"
         transform="translate(2.0833332e-4,2.0833333e-4)"
         id="path528" />
    </clipPath>
  </defs>
  <g
     id="layer1"
     transform="translate(-48.682962,-190.23555)">
    <path
       id="path56"
       d="m 53.440514,227.29342 h 2.032 v -14.01233 h -2.032 z"
       style="fill:#848382;fill-opacity:1;fill-rule:evenodd;stroke:#1f1a17;stroke-width:0.142071;stroke-linecap:round;stroke-linejoin:round;stroke-miterlimit:10;stroke-dasharray:none;stroke-opacity:1" />
    <path
       id="path57"
       d="m 58.689842,190.37876 h -8.424334 l -1.439333,1.397 v 21.88633 h 11.260667 v -21.88633 l -1.397,-1.397"
       style="fill:#848382;fill-opacity:1;fill-rule:evenodd;stroke:#1f1a17;stroke-width:0.286427;stroke-linecap:round;stroke-linejoin:round;stroke-miterlimit:10;stroke-dasharray:none;stroke-opacity:1" />
    <path
       id="path58"
       d="m 57.038842,206.76176 h 0.08467 l 0.08467,0.0423 h 0.169334 l 0.08467,0.0423 h 0.08467 l 0.04233,0.0423 h 0.08467 l 0.08467,0.0423 0.04233,0.0423 0.08467,0.0423 0.04233,0.0423 0.08467,0.0423 0.04233,0.0423 0.08467,0.0423 0.04233,0.0423 0.04233,0.0423 0.04233,0.0847 0.04233,0.0423 0.04233,0.0847 0.04233,0.0423 0.04233,0.0847 0.04233,0.0423 0.04233,0.0847 0.04233,0.0423 v 0.0847 l 0.04233,0.0847 v 0.127 l 0.04233,0.0847 v 0.33867 l -0.04233,0.0847 v 0.127 l -0.04233,0.0847 v 0.0847 l -0.04233,0.0423 -0.04233,0.0847 -0.04233,0.0423 -0.04233,0.0847 -0.04233,0.0423 -0.04233,0.0847 -0.04233,0.0423 -0.04233,0.0847 -0.04233,0.0423 -0.04233,0.0423 -0.08467,0.0423 -0.04233,0.0423 -0.08467,0.0423 -0.04233,0.0423 -0.08467,0.0423 -0.04233,0.0423 -0.08467,0.0423 h -0.08467 l -0.04233,0.0423 h -0.08467 l -0.08467,0.0423 h -0.169334 l -0.08467,0.0423 h -0.127 l -0.08467,-0.0423 h -0.169333 l -0.08467,-0.0423 h -0.08467 l -0.04233,-0.0423 h -0.08467 l -0.08467,-0.0423 -0.04233,-0.0423 -0.08467,-0.0423 -0.08467,-0.0423 -0.04233,-0.0423 -0.04233,-0.0423 -0.08467,-0.0423 -0.04233,-0.0423 -0.04233,-0.0423 -0.04233,-0.0847 -0.08467,-0.0423 -0.04233,-0.0847 -0.04233,-0.0423 -0.04233,-0.0847 v -0.0423 l -0.04233,-0.0847 -0.04233,-0.0423 v -0.0847 l -0.04233,-0.0847 v -0.0847 l -0.04233,-0.0423 v -0.508 l 0.04233,-0.0423 v -0.0847 l 0.04233,-0.0847 v -0.0847 l 0.04233,-0.0423 0.04233,-0.0847 v -0.0423 l 0.04233,-0.0847 0.04233,-0.0423 0.04233,-0.0847 0.08467,-0.0423 0.04233,-0.0847 0.04233,-0.0423 0.04233,-0.0423 0.08467,-0.0423 0.04233,-0.0423 0.04233,-0.0423 0.08467,-0.0423 0.08467,-0.0423 0.04233,-0.0423 0.08467,-0.0423 h 0.08467 l 0.04233,-0.0423 h 0.08467 l 0.08467,-0.0423 h 0.169333 l 0.08467,-0.0423 z"
       style="fill:none;stroke:#1f1a17;stroke-width:0.107103;stroke-linecap:round;stroke-linejoin:round;stroke-miterlimit:10;stroke-dasharray:none;stroke-opacity:1" />
    <path
       id="path59"
       d="m 51.958842,206.76176 h 0.08467 l 0.04233,0.0423 h 0.169333 l 0.08467,0.0423 h 0.08467 l 0.04233,0.0423 h 0.08467 l 0.08467,0.0423 0.04233,0.0423 0.08467,0.0423 0.08467,0.0423 0.04233,0.0423 0.04233,0.0423 0.08467,0.0423 0.04233,0.0423 0.04233,0.0423 0.04233,0.0847 0.08467,0.0423 0.04233,0.0847 0.04233,0.0423 0.04233,0.0847 v 0.0423 l 0.04233,0.0847 0.04233,0.0423 v 0.0847 l 0.04233,0.0847 v 0.0847 l 0.04233,0.0423 v 0.508 l -0.04233,0.0423 v 0.0847 l -0.04233,0.0847 v 0.0847 l -0.04233,0.0423 -0.04233,0.0847 v 0.0423 l -0.04233,0.0847 -0.04233,0.0423 -0.04233,0.0847 -0.08467,0.0423 -0.04233,0.0847 -0.04233,0.0423 -0.04233,0.0423 -0.08467,0.0423 -0.04233,0.0423 -0.04233,0.0423 -0.08467,0.0423 -0.08467,0.0423 -0.04233,0.0423 -0.08467,0.0423 h -0.08467 l -0.04233,0.0423 h -0.08467 l -0.08467,0.0423 h -0.169333 l -0.04233,0.0423 h -0.169334 l -0.08467,-0.0423 h -0.169334 l -0.08467,-0.0423 h -0.08467 l -0.04233,-0.0423 h -0.08467 l -0.08467,-0.0423 -0.04233,-0.0423 -0.08467,-0.0423 -0.04233,-0.0423 -0.08467,-0.0423 -0.04233,-0.0423 -0.08467,-0.0423 -0.04233,-0.0423 -0.04233,-0.0423 -0.04233,-0.0847 -0.04233,-0.0423 -0.04233,-0.0847 -0.04233,-0.0423 -0.04233,-0.0847 -0.04233,-0.0423 -0.04233,-0.0847 -0.04233,-0.0423 v -0.0847 l -0.04233,-0.0847 v -0.127 l -0.04233,-0.0847 v -0.33867 l 0.04233,-0.0847 v -0.127 l 0.04233,-0.0847 v -0.0847 l 0.04233,-0.0423 0.04233,-0.0847 0.04233,-0.0423 0.04233,-0.0847 0.04233,-0.0423 0.04233,-0.0847 0.04233,-0.0423 0.04233,-0.0847 0.04233,-0.0423 0.04233,-0.0423 0.08467,-0.0423 0.04233,-0.0423 0.08467,-0.0423 0.04233,-0.0423 0.08467,-0.0423 0.04233,-0.0423 0.08467,-0.0423 h 0.08467 l 0.04233,-0.0423 h 0.08467 l 0.08467,-0.0423 h 0.169334 l 0.08467,-0.0423 h 0.08467"
       style="fill:#848382;fill-opacity:1;fill-rule:evenodd;stroke:none;stroke-width:0.0846667" />
    <path
       id="path60"
       d="m 51.958842,206.76176 h 0.08467 l 0.04233,0.0423 h 0.169333 l 0.08467,0.0423 h 0.08467 l 0.04233,0.0423 h 0.08467 l 0.08467,0.0423 0.04233,0.0423 0.08467,0.0423 0.08467,0.0423 0.04233,0.0423 0.04233,0.0423 0.08467,0.0423 0.04233,0.0423 0.04233,0.0423 0.04233,0.0847 0.08467,0.0423 0.04233,0.0847 0.04233,0.0423 0.04233,0.0847 v 0.0423 l 0.04233,0.0847 0.04233,0.0423 v 0.0847 l 0.04233,0.0847 v 0.0847 l 0.04233,0.0423 v 0.508 l -0.04233,0.0423 v 0.0847 l -0.04233,0.0847 v 0.0847 l -0.04233,0.0423 -0.04233,0.0847 v 0.0423 l -0.04233,0.0847 -0.04233,0.0423 -0.04233,0.0847 -0.08467,0.0423 -0.04233,0.0847 -0.04233,0.0423 -0.04233,0.0423 -0.08467,0.0423 -0.04233,0.0423 -0.04233,0.0423 -0.08467,0.0423 -0.08467,0.0423 -0.04233,0.0423 -0.08467,0.0423 h -0.08467 l -0.04233,0.0423 h -0.08467 l -0.08467,0.0423 h -0.169333 l -0.04233,0.0423 h -0.169334 l -0.08467,-0.0423 h -0.169334 l -0.08467,-0.0423 h -0.08467 l -0.04233,-0.0423 h -0.08467 l -0.08467,-0.0423 -0.04233,-0.0423 -0.08467,-0.0423 -0.04233,-0.0423 -0.08467,-0.0423 -0.04233,-0.0423 -0.08467,-0.0423 -0.04233,-0.0423 -0.04233,-0.0423 -0.04233,-0.0847 -0.04233,-0.0423 -0.04233,-0.0847 -0.04233,-0.0423 -0.04233,-0.0847 -0.04233,-0.0423 -0.04233,-0.0847 -0.04233,-0.0423 v -0.0847 l -0.04233,-0.0847 v -0.127 l -0.04233,-0.0847 v -0.33867 l 0.04233,-0.0847 v -0.127 l 0.04233,-0.0847 v -0.0847 l 0.04233,-0.0423 0.04233,-0.0847 0.04233,-0.0423 0.04233,-0.0847 0.04233,-0.0423 0.04233,-0.0847 0.04233,-0.0423 0.04233,-0.0847 0.04233,-0.0423 0.04233,-0.0423 0.08467,-0.0423 0.04233,-0.0423 0.08467,-0.0423 0.04233,-0.0423 0.08467,-0.0423 0.04233,-0.0423 0.08467,-0.0423 h 0.08467 l 0.04233,-0.0423 h 0.08467 l 0.08467,-0.0423 h 0.169334 l 0.08467,-0.0423 z"
       style="fill:none;stroke:#1f1a17;stroke-width:0.107103;stroke-linecap:round;stroke-linejoin:round;stroke-miterlimit:10;stroke-dasharray:none;stroke-opacity:1" />
    <path
       id="path61"
       d="m 54.498842,199.94609 h 0.169333 l 0.08467,0.0423 h 0.127 l 0.08467,0.0423 h 0.08467 l 0.08467,0.0423 0.04233,0.0423 0.08467,0.0423 0.04233,0.0423 h 0.08467 l 0.04233,0.0847 0.08467,0.0423 0.04233,0.0423 0.04233,0.0423 0.08467,0.0423 0.04233,0.0847 0.04233,0.0423 0.04233,0.0423 0.04233,0.0847 0.04233,0.0423 0.04233,0.0847 v 0.0847 l 0.04233,0.0423 0.04233,0.0847 v 0.0847 l 0.04233,0.0423 v 0.635 l -0.04233,0.0847 v 0.0847 l -0.04233,0.0423 -0.04233,0.0847 v 0.0847 l -0.04233,0.0423 -0.04233,0.0847 -0.04233,0.0423 -0.04233,0.0847 -0.04233,0.0423 -0.04233,0.0423 -0.08467,0.0847 -0.04233,0.0423 -0.04233,0.0423 -0.08467,0.0423 -0.04233,0.0423 -0.08467,0.0423 -0.04233,0.0423 -0.08467,0.0423 h -0.04233 l -0.08467,0.0423 -0.08467,0.0423 h -0.08467 l -0.04233,0.0423 h -0.677334 l -0.04233,-0.0423 h -0.08467 l -0.08467,-0.0423 -0.08467,-0.0423 h -0.04233 l -0.08467,-0.0423 -0.04233,-0.0423 -0.08467,-0.0423 -0.04233,-0.0423 -0.08467,-0.0423 -0.04233,-0.0423 -0.04233,-0.0423 -0.08467,-0.0847 -0.04233,-0.0423 -0.04233,-0.0423 -0.04233,-0.0847 -0.04233,-0.0423 -0.04233,-0.0847 -0.04233,-0.0423 v -0.0847 l -0.04233,-0.0847 -0.04233,-0.0423 v -0.0847 l -0.04233,-0.0847 v -0.635 l 0.04233,-0.0423 v -0.0847 l 0.04233,-0.0847 0.04233,-0.0423 v -0.0847 l 0.04233,-0.0847 0.04233,-0.0423 0.04233,-0.0847 0.04233,-0.0423 0.04233,-0.0423 0.04233,-0.0847 0.08467,-0.0423 0.04233,-0.0423 0.04233,-0.0423 0.08467,-0.0423 0.04233,-0.0847 h 0.08467 l 0.04233,-0.0423 0.08467,-0.0423 0.04233,-0.0423 0.08467,-0.0423 h 0.08467 l 0.08467,-0.0423 h 0.127 l 0.08467,-0.0423 z"
       style="fill:none;stroke:#1f1a17;stroke-width:0.107103;stroke-linecap:round;stroke-linejoin:round;stroke-miterlimit:10;stroke-dasharray:none;stroke-opacity:1" />
    <path
       id="path62"
       d="m 57.038842,192.53776 h 0.254 l 0.08467,0.0423 h 0.08467 l 0.08467,0.0423 h 0.04233 l 0.08467,0.0423 0.08467,0.0423 h 0.04233 l 0.08467,0.0423 0.04233,0.0423 0.08467,0.0423 0.04233,0.0423 0.08467,0.0423 0.04233,0.0847 0.04233,0.0423 0.04233,0.0423 0.04233,0.0847 0.04233,0.0423 0.04233,0.0847 0.04233,0.0423 0.04233,0.0847 0.04233,0.0423 0.04233,0.0847 v 0.0847 l 0.04233,0.0423 v 0.16933 l 0.04233,0.0847 v 0.29633 l -0.04233,0.0847 v 0.16933 l -0.04233,0.0423 v 0.0847 l -0.04233,0.0847 -0.04233,0.0423 -0.04233,0.0847 -0.04233,0.0423 -0.04233,0.0847 -0.04233,0.0423 -0.04233,0.0847 -0.04233,0.0423 -0.04233,0.0423 -0.04233,0.0847 -0.08467,0.0423 -0.04233,0.0423 -0.08467,0.0423 -0.04233,0.0423 -0.08467,0.0423 h -0.04233 l -0.08467,0.0423 -0.08467,0.0423 h -0.04233 l -0.08467,0.0423 h -0.08467 l -0.08467,0.0423 h -0.465667 l -0.08467,-0.0423 h -0.08467 l -0.08467,-0.0423 h -0.04233 l -0.08467,-0.0423 -0.08467,-0.0423 h -0.04233 l -0.08467,-0.0423 -0.08467,-0.0423 -0.04233,-0.0423 -0.04233,-0.0423 -0.08467,-0.0423 -0.04233,-0.0847 -0.04233,-0.0423 -0.04233,-0.0423 -0.08467,-0.0847 -0.04233,-0.0423 -0.04233,-0.0847 -0.04233,-0.0423 v -0.0847 l -0.04233,-0.0423 -0.04233,-0.0847 v -0.0847 l -0.04233,-0.0423 v -0.0847 l -0.04233,-0.0847 v -0.46567 l 0.04233,-0.0847 v -0.0847 l 0.04233,-0.0423 v -0.0847 l 0.04233,-0.0847 0.04233,-0.0423 v -0.0847 l 0.04233,-0.0423 0.04233,-0.0847 0.04233,-0.0423 0.08467,-0.0847 0.04233,-0.0423 0.04233,-0.0423 0.04233,-0.0847 0.08467,-0.0423 0.04233,-0.0423 0.04233,-0.0423 0.08467,-0.0423 0.08467,-0.0423 h 0.04233 l 0.08467,-0.0423 0.08467,-0.0423 h 0.04233 l 0.08467,-0.0423 h 0.08467 l 0.08467,-0.0423 h 0.211667"
       style="fill:#848382;fill-opacity:1;fill-rule:evenodd;stroke:none;stroke-width:0.0846667" />
    <path
       id="path63"
       d="m 57.038842,192.53776 h 0.254 l 0.08467,0.0423 h 0.08467 l 0.08467,0.0423 h 0.04233 l 0.08467,0.0423 0.08467,0.0423 h 0.04233 l 0.08467,0.0423 0.04233,0.0423 0.08467,0.0423 0.04233,0.0423 0.08467,0.0423 0.04233,0.0847 0.04233,0.0423 0.04233,0.0423 0.04233,0.0847 0.04233,0.0423 0.04233,0.0847 0.04233,0.0423 0.04233,0.0847 0.04233,0.0423 0.04233,0.0847 v 0.0847 l 0.04233,0.0423 v 0.16933 l 0.04233,0.0847 v 0.29633 l -0.04233,0.0847 v 0.16933 l -0.04233,0.0423 v 0.0847 l -0.04233,0.0847 -0.04233,0.0423 -0.04233,0.0847 -0.04233,0.0423 -0.04233,0.0847 -0.04233,0.0423 -0.04233,0.0847 -0.04233,0.0423 -0.04233,0.0423 -0.04233,0.0847 -0.08467,0.0423 -0.04233,0.0423 -0.08467,0.0423 -0.04233,0.0423 -0.08467,0.0423 h -0.04233 l -0.08467,0.0423 -0.08467,0.0423 h -0.04233 l -0.08467,0.0423 h -0.08467 l -0.08467,0.0423 h -0.465667 l -0.08467,-0.0423 h -0.08467 l -0.08467,-0.0423 h -0.04233 l -0.08467,-0.0423 -0.08467,-0.0423 h -0.04233 l -0.08467,-0.0423 -0.08467,-0.0423 -0.04233,-0.0423 -0.04233,-0.0423 -0.08467,-0.0423 -0.04233,-0.0847 -0.04233,-0.0423 -0.04233,-0.0423 -0.08467,-0.0847 -0.04233,-0.0423 -0.04233,-0.0847 -0.04233,-0.0423 v -0.0847 l -0.04233,-0.0423 -0.04233,-0.0847 v -0.0847 l -0.04233,-0.0423 v -0.0847 l -0.04233,-0.0847 v -0.46567 l 0.04233,-0.0847 v -0.0847 l 0.04233,-0.0423 v -0.0847 l 0.04233,-0.0847 0.04233,-0.0423 v -0.0847 l 0.04233,-0.0423 0.04233,-0.0847 0.04233,-0.0423 0.08467,-0.0847 0.04233,-0.0423 0.04233,-0.0423 0.04233,-0.0847 0.08467,-0.0423 0.04233,-0.0423 0.04233,-0.0423 0.08467,-0.0423 0.08467,-0.0423 h 0.04233 l 0.08467,-0.0423 0.08467,-0.0423 h 0.04233 l 0.08467,-0.0423 h 0.08467 l 0.08467,-0.0423 z"
       style="fill:none;stroke:#1f1a17;stroke-width:0.107103;stroke-linecap:round;stroke-linejoin:round;stroke-miterlimit:10;stroke-dasharray:none;stroke-opacity:1" />
    <path
       id="path68"
       d="m 51.958842,192.53776 h 0.211667 l 0.08467,0.0423 h 0.08467 l 0.08467,0.0423 h 0.04233 l 0.08467,0.0423 0.08467,0.0423 h 0.04233 l 0.08467,0.0423 0.08467,0.0423 0.04233,0.0423 0.04233,0.0423 0.08467,0.0423 0.04233,0.0847 0.04233,0.0423 0.04233,0.0423 0.08467,0.0847 0.04233,0.0423 0.04233,0.0847 0.04233,0.0423 v 0.0847 l 0.04233,0.0423 0.04233,0.0847 v 0.0847 l 0.04233,0.0423 v 0.0847 l 0.04233,0.0847 v 0.46567 l -0.04233,0.0847 v 0.0847 l -0.04233,0.0423 v 0.0847 l -0.04233,0.0847 -0.04233,0.0423 v 0.0847 l -0.04233,0.0423 -0.04233,0.0847 -0.04233,0.0423 -0.08467,0.0847 -0.04233,0.0423 -0.04233,0.0423 -0.04233,0.0847 -0.08467,0.0423 -0.04233,0.0423 -0.04233,0.0423 -0.08467,0.0423 -0.08467,0.0423 h -0.04233 l -0.08467,0.0423 -0.08467,0.0423 h -0.04233 l -0.08467,0.0423 h -0.08467 l -0.08467,0.0423 h -0.465667 l -0.08467,-0.0423 h -0.08467 l -0.08467,-0.0423 h -0.04233 l -0.08467,-0.0423 -0.08467,-0.0423 h -0.04233 l -0.08467,-0.0423 -0.04233,-0.0423 -0.08467,-0.0423 -0.04233,-0.0423 -0.08467,-0.0423 -0.04233,-0.0847 -0.04233,-0.0423 -0.04233,-0.0423 -0.04233,-0.0847 -0.04233,-0.0423 -0.04233,-0.0847 -0.04233,-0.0423 -0.04233,-0.0847 -0.04233,-0.0423 -0.04233,-0.0847 v -0.0847 l -0.04233,-0.0423 v -0.16933 l -0.04233,-0.0847 v -0.29633 l 0.04233,-0.0847 v -0.16933 l 0.04233,-0.0423 v -0.0847 l 0.04233,-0.0847 0.04233,-0.0423 0.04233,-0.0847 0.04233,-0.0423 0.04233,-0.0847 0.04233,-0.0423 0.04233,-0.0847 0.04233,-0.0423 0.04233,-0.0423 0.04233,-0.0847 0.08467,-0.0423 0.04233,-0.0423 0.08467,-0.0423 0.04233,-0.0423 0.08467,-0.0423 h 0.04233 l 0.08467,-0.0423 0.08467,-0.0423 h 0.04233 l 0.08467,-0.0423 h 0.08467 l 0.08467,-0.0423 h 0.254"
       style="fill:#848382;fill-opacity:1;fill-rule:evenodd;stroke:none;stroke-width:0.0846667" />
    <path
       id="path69"
       d="m 51.958842,192.53776 h 0.211667 l 0.08467,0.0423 h 0.08467 l 0.08467,0.0423 h 0.04233 l 0.08467,0.0423 0.08467,0.0423 h 0.04233 l 0.08467,0.0423 0.08467,0.0423 0.04233,0.0423 0.04233,0.0423 0.08467,0.0423 0.04233,0.0847 0.04233,0.0423 0.04233,0.0423 0.08467,0.0847 0.04233,0.0423 0.04233,0.0847 0.04233,0.0423 v 0.0847 l 0.04233,0.0423 0.04233,0.0847 v 0.0847 l 0.04233,0.0423 v 0.0847 l 0.04233,0.0847 v 0.46567 l -0.04233,0.0847 v 0.0847 l -0.04233,0.0423 v 0.0847 l -0.04233,0.0847 -0.04233,0.0423 v 0.0847 l -0.04233,0.0423 -0.04233,0.0847 -0.04233,0.0423 -0.08467,0.0847 -0.04233,0.0423 -0.04233,0.0423 -0.04233,0.0847 -0.08467,0.0423 -0.04233,0.0423 -0.04233,0.0423 -0.08467,0.0423 -0.08467,0.0423 h -0.04233 l -0.08467,0.0423 -0.08467,0.0423 h -0.04233 l -0.08467,0.0423 h -0.08467 l -0.08467,0.0423 h -0.465667 l -0.08467,-0.0423 h -0.08467 l -0.08467,-0.0423 h -0.04233 l -0.08467,-0.0423 -0.08467,-0.0423 h -0.04233 l -0.08467,-0.0423 -0.04233,-0.0423 -0.08467,-0.0423 -0.04233,-0.0423 -0.08467,-0.0423 -0.04233,-0.0847 -0.04233,-0.0423 -0.04233,-0.0423 -0.04233,-0.0847 -0.04233,-0.0423 -0.04233,-0.0847 -0.04233,-0.0423 -0.04233,-0.0847 -0.04233,-0.0423 -0.04233,-0.0847 v -0.0847 l -0.04233,-0.0423 v -0.16933 l -0.04233,-0.0847 v -0.29633 l 0.04233,-0.0847 v -0.16933 l 0.04233,-0.0423 v -0.0847 l 0.04233,-0.0847 0.04233,-0.0423 0.04233,-0.0847 0.04233,-0.0423 0.04233,-0.0847 0.04233,-0.0423 0.04233,-0.0847 0.04233,-0.0423 0.04233,-0.0423 0.04233,-0.0847 0.08467,-0.0423 0.04233,-0.0423 0.08467,-0.0423 0.04233,-0.0423 0.08467,-0.0423 h 0.04233 l 0.08467,-0.0423 0.08467,-0.0423 h 0.04233 l 0.08467,-0.0423 h 0.08467 l 0.08467,-0.0423 z"
       style="fill:none;stroke:#1f1a17;stroke-width:0.107103;stroke-linecap:round;stroke-linejoin:round;stroke-miterlimit:10;stroke-dasharray:none;stroke-opacity:1" />
    <path
       id="path70"
       d="m 51.450842,203.07876 h 0.254 l 0.08467,0.0423 h 0.04233 l 0.04233,0.0423 h 0.04233 l 0.04233,0.0423 h 0.04233 l 0.04233,0.0423 0.04233,0.0423 h 0.04233 l 0.04233,0.0423 0.04233,0.0423 0.04233,0.0423 0.04233,0.0423 0.04233,0.0423 v 0.0423 l 0.04233,0.0423 0.04233,0.0423 v 0.0423 l 0.04233,0.0423 v 0.0423 l 0.04233,0.0423 v 0.16933 l 0.04233,0.0423 v 0.21167 l -0.04233,0.0847 v 0.127 l -0.04233,0.0423 v 0.0423 l -0.04233,0.0847 v 0.0423 l -0.04233,0.0423 -0.04233,0.0423 v 0.0423 l -0.04233,0.0423 -0.04233,0.0423 h -0.04233 l -0.04233,0.0423 -0.04233,0.0423 -0.04233,0.0423 -0.04233,0.0423 h -0.04233 l -0.04233,0.0423 h -0.04233 l -0.04233,0.0423 h -0.04233 l -0.04233,0.0423 h -0.127 l -0.04233,0.0423 h -0.338666 l -0.04233,-0.0423 h -0.127 l -0.04233,-0.0423 h -0.04233 l -0.04233,-0.0423 h -0.04233 l -0.04233,-0.0423 h -0.04233 l -0.04233,-0.0423 -0.04233,-0.0423 -0.04233,-0.0423 -0.04233,-0.0423 h -0.04233 l -0.04233,-0.0423 -0.04233,-0.0423 v -0.0423 l -0.04233,-0.0423 -0.04233,-0.0423 v -0.0423 l -0.04233,-0.0847 v -0.0423 l -0.04233,-0.0423 v -0.127 l -0.04233,-0.0847 v -0.21167 l 0.04233,-0.0423 v -0.16933 l 0.04233,-0.0423 v -0.0423 l 0.04233,-0.0423 v -0.0423 l 0.04233,-0.0423 0.04233,-0.0423 v -0.0423 l 0.04233,-0.0423 0.04233,-0.0423 0.04233,-0.0423 0.04233,-0.0423 0.04233,-0.0423 h 0.04233 l 0.04233,-0.0423 0.04233,-0.0423 h 0.04233 l 0.04233,-0.0423 h 0.04233 l 0.04233,-0.0423 h 0.04233 l 0.08467,-0.0423 h 0.254"
       style="fill:#ffffff;fill-opacity:1;fill-rule:evenodd;stroke:none;stroke-width:0.0846667" >
       <animate
          attributeName="fill"
          values="#ffffff;#848382"
          dur="1.5s"
          calcMode="discrete"
          repeatCount="indefinite" />
    </path>
    <path
       id="path71"
       d="m 51.450842,203.07876 h 0.254 l 0.08467,0.0423 h 0.04233 l 0.04233,0.0423 h 0.04233 l 0.04233,0.0423 h 0.04233 l 0.04233,0.0423 0.04233,0.0423 h 0.04233 l 0.04233,0.0423 0.04233,0.0423 0.04233,0.0423 0.04233,0.0423 0.04233,0.0423 v 0.0423 l 0.04233,0.0423 0.04233,0.0423 v 0.0423 l 0.04233,0.0423 v 0.0423 l 0.04233,0.0423 v 0.16933 l 0.04233,0.0423 v 0.21167 l -0.04233,0.0847 v 0.127 l -0.04233,0.0423 v 0.0423 l -0.04233,0.0847 v 0.0423 l -0.04233,0.0423 -0.04233,0.0423 v 0.0423 l -0.04233,0.0423 -0.04233,0.0423 h -0.04233 l -0.04233,0.0423 -0.04233,0.0423 -0.04233,0.0423 -0.04233,0.0423 h -0.04233 l -0.04233,0.0423 h -0.04233 l -0.04233,0.0423 h -0.04233 l -0.04233,0.0423 h -0.127 l -0.04233,0.0423 h -0.338666 l -0.04233,-0.0423 h -0.127 l -0.04233,-0.0423 h -0.04233 l -0.04233,-0.0423 h -0.04233 l -0.04233,-0.0423 h -0.04233 l -0.04233,-0.0423 -0.04233,-0.0423 -0.04233,-0.0423 -0.04233,-0.0423 h -0.04233 l -0.04233,-0.0423 -0.04233,-0.0423 v -0.0423 l -0.04233,-0.0423 -0.04233,-0.0423 v -0.0423 l -0.04233,-0.0847 v -0.0423 l -0.04233,-0.0423 v -0.127 l -0.04233,-0.0847 v -0.21167 l 0.04233,-0.0423 v -0.16933 l 0.04233,-0.0423 v -0.0423 l 0.04233,-0.0423 v -0.0423 l 0.04233,-0.0423 0.04233,-0.0423 v -0.0423 l 0.04233,-0.0423 0.04233,-0.0423 0.04233,-0.0423 0.04233,-0.0423 0.04233,-0.0423 h 0.04233 l 0.04233,-0.0423 0.04233,-0.0423 h 0.04233 l 0.04233,-0.0423 h 0.04233 l 0.04233,-0.0423 h 0.04233 l 0.08467,-0.0423 z"
       style="fill:none;stroke:#1f1a17;stroke-width:0.107103;stroke-linecap:round;stroke-linejoin:round;stroke-miterlimit:10;stroke-dasharray:none;stroke-opacity:1" />
  </g>
</svg>
