<?xml version="1.0" encoding="UTF-8"?>
<!-- Created with Inkscape (http://www.inkscape.org/) -->
<svg width="18.016mm" height="16.957mm" version="1.1" viewBox="0 0 18.016 16.957" xmlns="http://www.w3.org/2000/svg">
 <g transform="translate(-65.881 -157.69)" fill-rule="evenodd" stroke="#1f1a17" stroke-linecap="round" stroke-linejoin="round" stroke-miterlimit="10" stroke-width=".066209">
  <path d="m83.863 169.62v4.9953h-17.949v-4.9953l6.0113-11.896h6.0113l5.9267 11.896" fill="#848382"/>
  <g fill="#fff">
   <path d="m74.931 160.18h0.127l0.08467 0.0423h0.16933l0.04233 0.0423h0.08467l0.08467 0.0423 0.04233 0.0423h0.08467l0.08466 0.0846 0.08467 0.0423 0.08466 0.0846 0.08467 0.0423 0.04233 0.0847 0.08466 0.0846 0.04233 0.0847 0.08466 0.0846v0.0847l0.04233 0.0423 0.04233 0.0847v0.0847l0.04233 0.0423v0.16933l0.04233 0.0423v0.33867l-0.04233 0.0423v0.16934l-0.04233 0.0423v0.0847l-0.04233 0.0847-0.04233 0.0423v0.0847l-0.08466 0.0846-0.04233 0.0847-0.08466 0.0846-0.04233 0.0847-0.08467 0.0423-0.08466 0.0846-0.08467 0.0423-0.08466 0.0846h-0.08467l-0.04233 0.0423-0.08467 0.0423h-0.08467l-0.04233 0.0423h-0.16933l-0.08467 0.0423h-0.29633l-0.04233-0.0423h-0.16933l-0.04233-0.0423h-0.08467l-0.08467-0.0423-0.04233-0.0423h-0.08467l-0.04233-0.0423-0.08467-0.0423-0.08466-0.0846-0.08467-0.0423-0.04233-0.0423-0.04233-0.0847-0.08466-0.0846-0.04233-0.0847-0.08466-0.0846-0.04233-0.0847v-0.0423l-0.04233-0.0847v-0.0847l-0.04233-0.0423v-0.0847l-0.04233-0.0847v-0.42333l0.04233-0.0847v-0.0847l0.04233-0.0423v-0.0847l0.04233-0.0847v-0.0423l0.04233-0.0847 0.08466-0.0846 0.04233-0.0847 0.08466-0.0846 0.04233-0.0847 0.04233-0.0423 0.08467-0.0423 0.08466-0.0846 0.08467-0.0423 0.04233-0.0423h0.08467l0.04233-0.0423 0.08467-0.0423h0.08467l0.04233-0.0423h0.16933l0.04233-0.0423h0.16933"/>
   <path d="m79.418 169.45h0.29633l0.08467 0.0423h0.08467l0.04233 0.0423h0.08467l0.04233 0.0423 0.08467 0.0423 0.04233 0.0423 0.08467 0.0423 0.04233 0.0423 0.08467 0.0423 0.16932 0.1692 0.04233 0.0847 0.08466 0.0846 0.04233 0.0847 0.04233 0.0423 0.04233 0.0847v0.0423l0.04233 0.0847v0.0847l0.04233 0.0423v0.59267l-0.04233 0.0847v0.0847l-0.04233 0.0423v0.0847l-0.04233 0.0847-0.08466 0.0846-0.04233 0.0847-0.04233 0.0423-0.04233 0.0847-0.16932 0.1692-0.08467 0.0423-0.04233 0.0423-0.08467 0.0423-0.04233 0.0423-0.08467 0.0423-0.04233 0.0423h-0.08467l-0.04233 0.0423h-0.08467l-0.08467 0.0423h-0.59267l-0.04233-0.0423h-0.08467l-0.08467-0.0423h-0.04233l-0.08467-0.0423-0.04233-0.0423-0.08467-0.0423-0.04233-0.0423-0.08467-0.0423-0.12699-0.1269-0.08467-0.0423-0.04233-0.0423-0.04233-0.0847-0.04233-0.0423-0.04233-0.0847v-0.0423l-0.04233-0.0423-0.08466-0.1694v-0.0423l-0.04233-0.0847v-0.21166l-0.04233-0.0847v-0.127l0.04233-0.0847v-0.21166l0.04233-0.0847v-0.0847l0.04233-0.0423 0.04233-0.0847 0.04233-0.0423v-0.0847l0.08466-0.0846 0.04233-0.0847 0.04233-0.0423 0.08467-0.0423 0.12699-0.1269 0.08467-0.0423 0.04233-0.0423 0.08467-0.0423 0.04233-0.0423 0.08467-0.0423h0.04233l0.08467-0.0423h0.08467l0.04233-0.0423h0.29633"/>
   <path d="m70.444 169.45h0.29633l0.04233 0.0423h0.08467l0.08467 0.0423h0.04233l0.08467 0.0423 0.04233 0.0423 0.08467 0.0423 0.08466 0.0846 0.08467 0.0423 0.12699 0.1269 0.08467 0.0423 0.04233 0.0847 0.04233 0.0423v0.0423l0.04233 0.0847 0.04233 0.0423 0.04233 0.0847v0.0423l0.04233 0.0847v0.0847l0.04233 0.0423v0.254l0.04233 0.0423-0.04233 0.0847v0.21167l-0.04233 0.0847v0.0847l-0.04233 0.0423v0.0847l-0.04233 0.0847-0.08466 0.0846v0.0847l-0.04233 0.0423-0.04233 0.0847-0.08467 0.0423-0.12699 0.1269-0.08467 0.0423-0.08466 0.0846-0.08467 0.0423-0.04233 0.0423-0.08467 0.0423h-0.04233l-0.08467 0.0423h-0.08467l-0.04233 0.0423h-0.635l-0.04233-0.0423h-0.08467l-0.08467-0.0423h-0.04233l-0.08467-0.0423-0.04233-0.0423-0.08467-0.0423-0.08466-0.0846-0.08467-0.0423-0.16932-0.1692-0.04233-0.0847-0.04233-0.0423-0.04233-0.0847-0.08466-0.0846-0.04233-0.0847v-0.0847l-0.04233-0.0423v-0.0847l-0.04233-0.0847v-0.59267l0.04233-0.0423v-0.0847l0.04233-0.0847v-0.0423l0.04233-0.0847 0.04233-0.0423 0.04233-0.0847 0.08466-0.0846 0.04233-0.0847 0.16932-0.1692 0.08467-0.0423 0.08466-0.0846 0.08467-0.0423 0.04233-0.0423 0.08467-0.0423h0.04233l0.08467-0.0423h0.08467l0.04233-0.0423h0.33867"/>
  </g>
 </g>
</svg>
