<?xml version="1.0" encoding="UTF-8"?>
<!-- Created with Inkscape (http://www.inkscape.org/) -->
<svg width="19.08mm" height="30.722mm" version="1.1" viewBox="0 0 19.08 30.722" xmlns="http://www.w3.org/2000/svg">
 <path d="m0.036407 30.686h19.008v-30.649h-19.008z" fill="#848382" fill-rule="evenodd" stroke="#1f1a17" stroke-linecap="round" stroke-linejoin="round" stroke-miterlimit="10" stroke-width=".072813"/>
 <path d="m15.615 2.1958h-0.29633l-0.04233 0.042333h-0.08467l-0.04233 0.042333h-0.04233l-0.08467 0.042333-0.04233 0.042333h-0.04233l-0.38097 0.381v0.042333l-0.04233 0.084667v0.042333l-0.04233 0.042333v0.084667l-0.04233 0.042333v0.16933l-0.04233 0.084667v0.127l0.04233 0.042333v0.16933l0.04233 0.042333v0.084667l0.04233 0.042333v0.042333l0.04233 0.084667v0.042333l0.38097 0.381h0.04233l0.04233 0.042333 0.08467 0.042333h0.04233l0.04233 0.04233h0.08467l0.04233 0.04233h0.254l0.04233 0.04233 0.08467-0.04233h0.21167l0.08467-0.04233h0.04233l0.04233-0.04233h0.08467l0.08466-0.084666h0.04233l0.38097-0.381v-0.042333l0.04233-0.084667 0.04233-0.042333v-0.127l0.04233-0.042333v-0.127l0.04233-0.042333v-0.254l-0.04233-0.042333v-0.127l-0.04233-0.042333v-0.127l-0.04233-0.042333-0.04233-0.084667v-0.042333l-0.38097-0.381h-0.04233l-0.08466-0.084666h-0.08467l-0.04233-0.042333h-0.04233l-0.08467-0.042333h-0.29633" fill="#fff" fill-rule="evenodd" stroke="#1f1a17" stroke-linecap="round" stroke-linejoin="round" stroke-miterlimit="10" stroke-width=".072813"/>
 <g fill="#848382" fill-rule="evenodd" stroke="#1f1a17" stroke-linecap="round" stroke-linejoin="round" stroke-miterlimit="10" stroke-width=".072813">
  <path d="m15.615 5.1591h-0.127l-0.04233 0.04233h-0.127l-0.04233 0.04233h-0.08467l-0.04233 0.04233h-0.04233l-0.08467 0.04233h-0.04233l-0.4233 0.4233v0.04233l-0.04233 0.04233v0.08467l-0.04233 0.04233v0.04233l-0.04233 0.08467v0.16933l-0.04233 0.04233v0.127l0.04233 0.08467v0.16933l0.04233 0.04233v0.08467l0.04233 0.04233v0.04233l0.04233 0.04233v0.08467l0.33864 0.33864h0.04233l0.08466 0.08466h0.08467l0.08466 0.08466h0.127l0.04233 0.04233h0.508l0.04233-0.04233h0.127l0.04233-0.04233 0.08467-0.04233h0.04233l0.08466-0.08466h0.04233l0.33864-0.33864v-0.08467l0.08466-0.08466v-0.127l0.04233-0.04233v-0.127l0.04233-0.04233v-0.254l-0.04233-0.08467v-0.08467l-0.04233-0.08467v-0.08467l-0.04233-0.08467-0.04233-0.04233v-0.04233l-0.4233-0.4233h-0.04233l-0.04233-0.04233h-0.08467l-0.04233-0.04233h-0.04233l-0.08467-0.04233h-0.127l-0.04233-0.04233h-0.127"/>
  <path d="m15.615 8.1648h-0.16933l-0.08467 0.04233h-0.08467l-0.08467 0.04233h-0.04233l-0.04233 0.04233-0.08467 0.04233h-0.04233l-0.12699 0.12699h-0.04233l-0.12699 0.12699-0.04233 0.08467-0.08466 0.08466v0.04233l-0.04233 0.04233v0.04233l-0.04233 0.08467v0.04233l-0.04233 0.04233v0.21167l-0.04233 0.04233v0.127l0.04233 0.04233v0.21167l0.04233 0.04233v0.04233l0.04233 0.08467v0.04233l0.04233 0.04233v0.04233l0.04233 0.04233 0.04233 0.08467 0.16932 0.16932h0.04233l0.16932 0.16932h0.08467l0.04233 0.04233h0.04233l0.08467 0.04233h0.08467l0.08467 0.04233h0.33867l0.08467-0.04233h0.127l0.04233-0.04233h0.04233l0.08467-0.04233h0.04233l0.16932-0.16932h0.04233l0.16932-0.16932 0.04233-0.08467 0.04233-0.04233v-0.04233l0.08466-0.08466v-0.127l0.04233-0.04233v-0.127l0.04233-0.08467v-0.21167l-0.04233-0.08467v-0.127l-0.04233-0.04233v-0.127l-0.08466-0.08466v-0.04233l-0.08466-0.08466-0.04233-0.08467-0.12699-0.12699h-0.04233l-0.12699-0.12699h-0.04233l-0.04233-0.04233-0.08467-0.04233h-0.04233l-0.04233-0.04233h-0.127l-0.08467-0.04233h-0.16933"/>
  <path d="m15.615 11.17h-0.254l-0.04233 0.04233h-0.04233l-0.08467 0.04233h-0.04233l-0.04233 0.04233h-0.08467l-0.08466 0.08466h-0.04233l-0.16932 0.16932-0.04233 0.042-0.08466 0.08466-0.04233 0.08467v0.04233l-0.04233 0.04233v0.04233l-0.04233 0.08467v0.04233l-0.04233 0.04233v0.16933l-0.04233 0.08467v0.127l0.04233 0.04233v0.16933l0.04233 0.08467v0.04233l0.04233 0.04233v0.08467l0.04233 0.04233v0.04233l0.4233 0.4233h0.04233l0.08467 0.04233 0.04233 0.04233h0.127l0.04233 0.04233h0.127l0.04233 0.04233h0.254l0.04233-0.04233h0.127l0.08467-0.04233h0.08467l0.08467-0.04233 0.04233-0.04233h0.04233l0.4233-0.4233v-0.04233l0.04233-0.04233 0.04233-0.08467v-0.08467l0.04233-0.08467v-0.08467l0.04233-0.08467v-0.254l-0.04233-0.04233v-0.127l-0.04233-0.04233v-0.127l-0.08466-0.08466v-0.04233l-0.04233-0.08467-0.08466-0.08466-0.04233-0.042-0.16932-0.16932h-0.04233l-0.08466-0.08466h-0.04233l-0.08467-0.04233h-0.04233l-0.04233-0.04233h-0.08467l-0.04233-0.04233h-0.254"/>
 </g>
 <g fill-rule="evenodd" stroke="#1f1a17" stroke-linecap="round" stroke-linejoin="round" stroke-miterlimit="10" stroke-width=".072813">
  <path d="m15.615 14.176h-0.29633l-0.04233 0.04233h-0.08467l-0.04233 0.04233h-0.04233l-0.08467 0.04233-0.04233 0.04233h-0.04233l-0.38097 0.38097v0.04233l-0.04233 0.08467v0.04233l-0.04233 0.04233v0.08467l-0.04233 0.04233v0.16933l-0.04233 0.08467v0.08467l0.04233 0.08467v0.16933l0.04233 0.08467v0.04233l0.04233 0.04233v0.04233l0.04233 0.08467v0.04233l0.38097 0.38097h0.04233l0.04233 0.04233 0.08467 0.04233h0.04233l0.04233 0.04233h0.08467l0.04233 0.04233h0.59267l0.08467-0.04233h0.04233l0.04233-0.04233h0.08467l0.08466-0.08466h0.04233l0.38097-0.38097v-0.04233l0.04233-0.08467 0.04233-0.04233v-0.08467l0.04233-0.08467v-0.127l0.04233-0.04233v-0.254l-0.04233-0.04233v-0.127l-0.04233-0.04233v-0.127l-0.04233-0.04233-0.04233-0.08467v-0.04233l-0.38097-0.38097h-0.04233l-0.08466-0.08466h-0.08467l-0.04233-0.04233h-0.04233l-0.08467-0.04233h-0.29633" fill="#fff"/>
  <path d="m15.615 17.139h-0.127l-0.04233 0.04233h-0.127l-0.04233 0.04233h-0.08467l-0.04233 0.04233h-0.04233l-0.08467 0.04233h-0.04233l-0.4233 0.4233v0.04233l-0.04233 0.04233v0.08467l-0.04233 0.04233v0.04233l-0.04233 0.08467v0.16933l-0.04233 0.04233v0.127l0.04233 0.08467v0.16933l0.04233 0.04233v0.08467l0.04233 0.04233v0.04233l0.04233 0.04233v0.08467l0.33864 0.33864h0.04233l0.08466 0.08466h0.08467l0.08466 0.08466h0.127l0.04233 0.04233h0.508l0.04233-0.04233h0.127l0.04233-0.04233 0.08467-0.04233h0.04233l0.08466-0.08466h0.04233l0.33864-0.33864v-0.08467l0.08466-0.08466v-0.127l0.04233-0.04233v-0.127l0.04233-0.04233v-0.254l-0.04233-0.08467v-0.08467l-0.04233-0.08467v-0.08467l-0.04233-0.08467-0.04233-0.04233v-0.04233l-0.4233-0.4233h-0.04233l-0.04233-0.04233h-0.08467l-0.04233-0.04233h-0.04233l-0.08467-0.04233h-0.127l-0.04233-0.04233h-0.127" fill="#848382"/>
  <path d="m15.615 23.15h-0.254l-0.04233 0.04233h-0.04233l-0.08467 0.04233h-0.04233l-0.04233 0.04233h-0.08467l-0.08466 0.08466h-0.04233l-0.29631 0.29631-0.04233 0.08467v0.04233l-0.04233 0.04233v0.04233l-0.04233 0.04233v0.08467l-0.04233 0.04233v0.16933l-0.04233 0.08467v0.127l0.04233 0.04233v0.16933l0.04233 0.08467v0.04233l0.04233 0.04233v0.08467l0.04233 0.04233v0.04233l0.4233 0.4233h0.04233l0.08467 0.04233 0.04233 0.04233h0.127l0.04233 0.04233h0.127l0.04233 0.04233h0.254l0.04233-0.04233h0.127l0.08467-0.04233h0.08467l0.08467-0.04233 0.04233-0.04233h0.04233l0.4233-0.4233v-0.04233l0.04233-0.04233 0.04233-0.08467v-0.08467l0.04233-0.08467v-0.08467l0.04233-0.08467v-0.254l-0.04233-0.04233v-0.127l-0.04233-0.04233v-0.127l-0.08466-0.08466v-0.04233l-0.04233-0.08467-0.29631-0.29631h-0.04233l-0.08466-0.08466h-0.04233l-0.08467-0.04233h-0.04233l-0.04233-0.04233h-0.08467l-0.04233-0.04233h-0.254" fill="#848382"/>
  <path d="m15.615 26.156h-0.29633l-0.04233 0.04233h-0.08467l-0.04233 0.04233h-0.04233l-0.08467 0.04233-0.04233 0.04233h-0.04233l-0.38097 0.38097v0.04233l-0.04233 0.08467v0.04233l-0.04233 0.04233v0.08467l-0.04233 0.04233v0.16933l-0.04233 0.08467v0.127l0.04233 0.04233v0.16933l0.04233 0.04233v0.08467l0.04233 0.04233v0.04233l0.04233 0.08467v0.04233l0.38097 0.38097h0.04233l0.04233 0.04233 0.08467 0.04233h0.04233l0.04233 0.04233h0.08467l0.04233 0.04233h0.254l0.04233 0.04233 0.08467-0.04233h0.21167l0.08467-0.04233h0.04233l0.04233-0.04233h0.08467l0.08466-0.08466h0.04233l0.38097-0.38097v-0.04233l0.04233-0.08467 0.04233-0.04233v-0.127l0.04233-0.04233v-0.127l0.04233-0.04233v-0.254l-0.04233-0.04233v-0.127l-0.04233-0.04233v-0.127l-0.04233-0.04233-0.04233-0.08467v-0.04233l-0.38097-0.38097h-0.04233l-0.08466-0.08466h-0.08467l-0.04233-0.04233h-0.04233l-0.08467-0.04233h-0.29633" fill="#fff"/>
  <path d="m15.615 20.145h-0.16933l-0.08467 0.04233h-0.08467l-0.08467 0.04233h-0.04233l-0.04233 0.04233h-0.08467l-0.16932 0.16932h-0.04233l-0.12699 0.12699-0.04233 0.08467-0.08466 0.08466v0.04233l-0.04233 0.04233v0.04233l-0.04233 0.08467v0.04233l-0.04233 0.04233v0.21167l-0.04233 0.04233v0.127l0.04233 0.04233v0.21167l0.04233 0.04233v0.04233l0.04233 0.08467v0.04233l0.04233 0.04233v0.04233l0.04233 0.04233 0.04233 0.08467 0.21165 0.21165h0.04233l0.12699 0.12699h0.08467l0.04233 0.04233h0.04233l0.08467 0.04233h0.08467l0.08467 0.04233h0.33867l0.08467-0.04233h0.127l0.04233-0.04233h0.04233l0.08467-0.04233h0.04233l0.12699-0.12699h0.04233l0.21165-0.21165 0.04233-0.08467 0.04233-0.04233v-0.04233l0.08466-0.08466v-0.127l0.04233-0.04233v-0.127l0.04233-0.08467v-0.21167l-0.04233-0.08467v-0.127l-0.04233-0.04233v-0.127l-0.08466-0.08466v-0.04233l-0.08466-0.08466-0.04233-0.08467-0.12699-0.12699h-0.04233l-0.16932-0.16932h-0.04233l-0.08467-0.04233h-0.04233l-0.04233-0.04233h-0.127l-0.08467-0.04233h-0.16933" fill="#848382"/>
  <path d="m12.567 2.1958h-0.29633l-0.04233 0.042333h-0.08467l-0.04233 0.042333h-0.04233l-0.04233 0.042333-0.08467 0.042333h-0.04233l-0.33864 0.33866v0.042333l-0.04233 0.042333-0.04233 0.084667v0.042333l-0.04233 0.042333v0.084667l-0.04233 0.042333v0.59267l0.04233 0.042333v0.084667l0.04233 0.042333v0.042333l0.04233 0.084667 0.04233 0.042333v0.042333l0.33864 0.33866h0.04233l0.08467 0.042333 0.04233 0.042333h0.04233l0.04233 0.04233h0.08467l0.04233 0.04233h0.254l0.04233 0.04233 0.08467-0.04233h0.21167l0.08467-0.04233h0.04233l0.04233-0.04233h0.08467l0.08466-0.084666h0.04233l0.04233-0.042333 0.08467-0.042333 0.12699-0.127v-0.042333l0.16932-0.16933v-0.084667l0.04233-0.042333v-0.042333l0.04233-0.084667v-0.084667l0.04233-0.084667v-0.33866l-0.04233-0.084667v-0.084667l-0.04233-0.084667v-0.042333l-0.04233-0.042333v-0.084667l-0.16932-0.16933v-0.042333l-0.12699-0.127-0.08467-0.042333-0.04233-0.042333h-0.04233l-0.08466-0.084666h-0.08467l-0.04233-0.042333h-0.04233l-0.08467-0.042333h-0.29633" fill="#fff"/>
 </g>
 <g fill="#848382" fill-rule="evenodd" stroke="#1f1a17" stroke-linecap="round" stroke-linejoin="round" stroke-miterlimit="10" stroke-width=".072813">
  <path d="m12.567 5.1591h-0.127l-0.04233 0.04233h-0.127l-0.04233 0.04233h-0.08467l-0.04233 0.04233h-0.04233l-0.04233 0.04233h-0.08467l-0.38097 0.38097v0.04233l-0.08466 0.08466v0.08467l-0.04233 0.04233v0.04233l-0.04233 0.08467v0.59267l0.04233 0.04233v0.08467l0.04233 0.04233v0.04233l0.04233 0.04233 0.04233 0.08467v0.04233l0.29631 0.29631h0.04233l0.04233 0.04233 0.08467 0.04233h0.04233l0.08466 0.08466h0.127l0.08467 0.04233h0.46567l0.04233-0.04233h0.127l0.04233-0.04233 0.08467-0.04233h0.04233l0.08466-0.08466h0.04233l0.08467-0.04233 0.12699-0.12699v-0.04233l0.12699-0.12699 0.04233-0.08467v-0.04233l0.04233-0.04233v-0.04233l0.04233-0.08467v-0.08467l0.04233-0.08467v-0.381l-0.04233-0.04233v-0.127l-0.04233-0.04233v-0.04233l-0.04233-0.08467v-0.04233l-0.16932-0.16932v-0.04233l-0.12699-0.12699-0.08467-0.04233-0.08466-0.08466h-0.04233l-0.04233-0.04233h-0.08467l-0.04233-0.04233h-0.04233l-0.08467-0.04233h-0.08467l-0.08467-0.04233h-0.127"/>
  <path d="m12.567 8.1648h-0.16933l-0.04233 0.04233h-0.127l-0.08467 0.04233h-0.04233l-0.08466 0.08466h-0.08467l-0.12699 0.12699h-0.04233l-0.12699 0.12699-0.04233 0.08467-0.04233 0.04233v0.04233l-0.08466 0.08466v0.04233l-0.04233 0.08467v0.04233l-0.04233 0.04233v0.635l0.04233 0.04233v0.04233l0.04233 0.08467v0.04233l0.08466 0.08466v0.04233l0.04233 0.08467 0.16932 0.16932h0.04233l0.12699 0.12699 0.08467 0.04233h0.04233l0.04233 0.04233h0.04233l0.08467 0.04233h0.127l0.04233 0.04233h0.381l0.04233-0.04233h0.127l0.04233-0.04233h0.04233l0.08467-0.04233h0.04233l0.12699-0.12699 0.08467-0.04233h0.04233l0.08466-0.08466v-0.04233l0.04233-0.04233 0.04233-0.08467 0.08466-0.08466v-0.04233l0.04233-0.04233v-0.08467l0.04233-0.04233v-0.127l0.04233-0.04233v-0.381l-0.04233-0.04233v-0.127l-0.04233-0.04233v-0.08467l-0.04233-0.04233v-0.04233l-0.12699-0.12699-0.04233-0.08467v-0.04233l-0.08466-0.08466h-0.04233l-0.08467-0.04233-0.08466-0.08466h-0.04233l-0.04233-0.04233-0.08467-0.04233h-0.04233l-0.04233-0.04233h-0.127l-0.04233-0.04233h-0.21167"/>
  <path d="m12.567 11.17h-0.21167l-0.08467 0.04233h-0.04233l-0.08467 0.04233h-0.04233l-0.04233 0.04233h-0.04233l-0.08467 0.04233-0.04233 0.04233h-0.04233l-0.16932 0.16932-0.04233 0.042-0.08466 0.08466v0.08467l-0.08466 0.08466v0.04233l-0.04233 0.08467v0.04233l-0.04233 0.04233v0.59267l0.04233 0.08467v0.04233l0.04233 0.04233v0.08467l0.08466 0.08466v0.04233l0.38097 0.38097h0.08467l0.08466 0.08466h0.127l0.04233 0.04233h0.127l0.04233 0.04233h0.254l0.08467-0.04233h0.08467l0.08467-0.04233h0.08467l0.08467-0.04233 0.04233-0.04233h0.04233l0.08466-0.08466 0.08467-0.04233 0.12699-0.12699v-0.04233l0.16932-0.16932v-0.04233l0.04233-0.08467v-0.04233l0.04233-0.04233v-0.127l0.04233-0.04233v-0.381l-0.04233-0.04233v-0.127l-0.04233-0.04233v-0.08467l-0.04233-0.04233v-0.04233l-0.04233-0.04233-0.04233-0.08467-0.08466-0.08466v-0.042l-0.12699-0.12699-0.08467-0.04233h-0.04233l-0.08466-0.08466h-0.04233l-0.08467-0.04233h-0.04233l-0.04233-0.04233h-0.08467l-0.04233-0.04233h-0.254"/>
 </g>
 <g fill-rule="evenodd" stroke="#1f1a17" stroke-linecap="round" stroke-linejoin="round" stroke-miterlimit="10" stroke-width=".072813">
  <path d="m12.567 14.176h-0.29633l-0.04233 0.04233h-0.08467l-0.04233 0.04233h-0.04233l-0.04233 0.04233-0.08467 0.04233h-0.04233l-0.33864 0.33864v0.04233l-0.04233 0.04233-0.04233 0.08467v0.04233l-0.04233 0.04233v0.08467l-0.04233 0.04233v0.59267l0.04233 0.08467v0.04233l0.04233 0.04233v0.04233l0.04233 0.08467 0.04233 0.04233v0.04233l0.33864 0.33864h0.04233l0.08467 0.04233 0.04233 0.04233h0.04233l0.04233 0.04233h0.08467l0.04233 0.04233h0.59267l0.08467-0.04233h0.04233l0.04233-0.04233h0.08467l0.08466-0.08466h0.04233l0.04233-0.04233 0.08467-0.04233 0.12699-0.12699v-0.04233l0.16932-0.16932v-0.08467l0.04233-0.04233v-0.04233l0.04233-0.04233v-0.127l0.04233-0.08467v-0.33867l-0.04233-0.08467v-0.08467l-0.04233-0.08467v-0.04233l-0.04233-0.04233v-0.08467l-0.16932-0.16932v-0.04233l-0.12699-0.12699-0.08467-0.04233-0.04233-0.04233h-0.04233l-0.08466-0.08466h-0.08467l-0.04233-0.04233h-0.04233l-0.08467-0.04233h-0.29633" fill="#fff"/>
  <path d="m12.567 17.139h-0.127l-0.04233 0.04233h-0.127l-0.04233 0.04233h-0.08467l-0.04233 0.04233h-0.04233l-0.04233 0.04233h-0.08467l-0.38097 0.38097v0.04233l-0.08466 0.08466v0.08467l-0.04233 0.04233v0.04233l-0.04233 0.08467v0.59267l0.04233 0.04233v0.08467l0.04233 0.04233v0.04233l0.04233 0.04233 0.04233 0.08467v0.04233l0.29631 0.29631h0.04233l0.04233 0.04233 0.08467 0.04233h0.04233l0.08466 0.08466h0.127l0.08467 0.04233h0.46567l0.04233-0.04233h0.127l0.04233-0.04233 0.08467-0.04233h0.04233l0.08466-0.08466h0.04233l0.08467-0.04233 0.12699-0.12699v-0.04233l0.12699-0.12699 0.04233-0.08467v-0.04233l0.04233-0.04233v-0.04233l0.04233-0.08467v-0.08467l0.04233-0.08467v-0.381l-0.04233-0.04233v-0.127l-0.04233-0.04233v-0.04233l-0.04233-0.08467v-0.04233l-0.16932-0.16932v-0.04233l-0.12699-0.12699-0.08467-0.04233-0.08466-0.08466h-0.04233l-0.04233-0.04233h-0.08467l-0.04233-0.04233h-0.04233l-0.08467-0.04233h-0.08467l-0.08467-0.04233h-0.127" fill="#848382"/>
  <path d="m12.567 23.15h-0.21167l-0.08467 0.04233h-0.04233l-0.08467 0.04233h-0.04233l-0.04233 0.04233h-0.04233l-0.08467 0.04233-0.04233 0.04233h-0.04233l-0.29631 0.29631v0.08467l-0.08466 0.08466v0.04233l-0.04233 0.04233v0.08467l-0.04233 0.04233v0.59267l0.04233 0.08467v0.04233l0.04233 0.04233v0.08467l0.08466 0.08466v0.04233l0.38097 0.38097h0.08467l0.08466 0.08466h0.127l0.04233 0.04233h0.127l0.04233 0.04233h0.254l0.08467-0.04233h0.08467l0.08467-0.04233h0.08467l0.08467-0.04233 0.04233-0.04233h0.04233l0.08466-0.08466 0.08467-0.04233 0.12699-0.12699v-0.04233l0.16932-0.16932v-0.04233l0.04233-0.08467v-0.04233l0.04233-0.04233v-0.127l0.04233-0.04233v-0.381l-0.04233-0.04233v-0.127l-0.04233-0.08467v-0.04233l-0.04233-0.04233v-0.04233l-0.04233-0.04233-0.04233-0.08467-0.08466-0.08466v-0.04233l-0.12699-0.12699-0.08467-0.04233h-0.04233l-0.08466-0.08466h-0.04233l-0.08467-0.04233h-0.04233l-0.04233-0.04233h-0.08467l-0.04233-0.04233h-0.254" fill="#848382"/>
  <path d="m12.567 26.156h-0.29633l-0.04233 0.04233h-0.08467l-0.04233 0.04233h-0.04233l-0.04233 0.04233-0.08467 0.04233h-0.04233l-0.33864 0.33864v0.04233l-0.04233 0.04233-0.04233 0.08467v0.04233l-0.04233 0.04233v0.08467l-0.04233 0.04233v0.59267l0.04233 0.04233v0.08467l0.04233 0.04233v0.04233l0.04233 0.08467 0.04233 0.04233v0.04233l0.33864 0.33864h0.04233l0.08467 0.04233 0.04233 0.04233h0.04233l0.04233 0.04233h0.08467l0.04233 0.04233h0.254l0.04233 0.04233 0.08467-0.04233h0.21167l0.08467-0.04233h0.04233l0.04233-0.04233h0.08467l0.08466-0.08466h0.04233l0.04233-0.04233 0.08467-0.04233 0.12699-0.12699v-0.04233l0.16932-0.16932v-0.08467l0.04233-0.04233v-0.04233l0.04233-0.08467v-0.08467l0.04233-0.08467v-0.33867l-0.04233-0.08467v-0.08467l-0.04233-0.08467v-0.04233l-0.04233-0.04233v-0.08467l-0.16932-0.16932v-0.04233l-0.12699-0.12699-0.08467-0.04233-0.04233-0.04233h-0.04233l-0.08466-0.08466h-0.08467l-0.04233-0.04233h-0.04233l-0.08467-0.04233h-0.29633" fill="#fff"/>
  <path d="m12.567 20.145h-0.16933l-0.04233 0.04233h-0.127l-0.08467 0.04233h-0.04233l-0.04233 0.04233h-0.04233l-0.08467 0.04233-0.12699 0.12699h-0.04233l-0.12699 0.12699-0.04233 0.08467-0.04233 0.04233v0.04233l-0.08466 0.08466v0.04233l-0.04233 0.08467v0.04233l-0.04233 0.04233v0.635l0.04233 0.04233v0.04233l0.04233 0.08467v0.04233l0.08466 0.08466v0.04233l0.04233 0.08467 0.21165 0.21165h0.04233l0.08466 0.08466 0.08467 0.04233h0.04233l0.04233 0.04233h0.04233l0.08467 0.04233h0.127l0.04233 0.04233h0.381l0.04233-0.04233h0.127l0.04233-0.04233h0.04233l0.08467-0.04233h0.04233l0.12699-0.12699h0.08467l0.12699-0.12699v-0.04233l0.04233-0.04233 0.04233-0.08467 0.08466-0.08466v-0.04233l0.04233-0.04233v-0.08467l0.04233-0.04233v-0.127l0.04233-0.04233v-0.381l-0.04233-0.04233v-0.127l-0.04233-0.04233v-0.08467l-0.04233-0.04233v-0.04233l-0.12699-0.12699-0.04233-0.08467v-0.04233l-0.08466-0.08466h-0.04233l-0.08467-0.04233-0.12699-0.12699h-0.04233l-0.08467-0.04233h-0.04233l-0.04233-0.04233h-0.127l-0.04233-0.04233h-0.21167" fill="#848382"/>
  <path d="m9.5614 2.1958h-0.33867l-0.04233 0.042333h-0.04233l-0.08467 0.042333h-0.04233l-0.08466 0.084666h-0.08467l-0.29631 0.29633v0.042333l-0.08466 0.084666v0.084667l-0.04233 0.042333v0.042333l-0.04233 0.084667v0.042333l-0.04233 0.042333v0.508l0.04233 0.042333v0.042333l0.04233 0.084667v0.042333l0.04233 0.042333v0.084667l0.08466 0.084666v0.042333l0.29631 0.29633h0.08467l0.08466 0.084666h0.04233l0.08467 0.04233h0.04233l0.04233 0.04233h0.254l0.08467 0.04233 0.04233-0.04233h0.254l0.04233-0.04233h0.04233l0.08467-0.04233h0.04233l0.08466-0.084666h0.08467l0.29631-0.29633v-0.042333l0.08466-0.084666v-0.084667l0.08466-0.084666v-0.127l0.04233-0.042333v-0.508l-0.04233-0.042333v-0.127l-0.08466-0.084666v-0.084667l-0.08466-0.084666v-0.042333l-0.29631-0.29633h-0.08467l-0.08466-0.084666h-0.04233l-0.08467-0.042333h-0.04233l-0.04233-0.042333h-0.29633" fill="#fff"/>
 </g>
 <g fill="#848382" fill-rule="evenodd" stroke="#1f1a17" stroke-linecap="round" stroke-linejoin="round" stroke-miterlimit="10" stroke-width=".072813">
  <path d="m9.5614 5.1591h-0.127l-0.08467 0.04233h-0.127l-0.04233 0.04233h-0.04233l-0.08467 0.04233h-0.04233l-0.04233 0.04233h-0.04233l-0.08467 0.04233-0.29631 0.29631v0.04233l-0.08466 0.08466v0.04233l-0.04233 0.08467v0.04233l-0.04233 0.04233v0.08467l-0.04233 0.04233v0.508l0.04233 0.04233v0.04233l0.04233 0.08467v0.04233l0.04233 0.04233v0.04233l0.04233 0.08467 0.04233 0.04233v0.04233l0.25398 0.25398h0.04233l0.08467 0.04233 0.04233 0.04233h0.04233l0.04233 0.04233 0.08467 0.04233h0.08467l0.08467 0.04233h0.46567l0.08467-0.04233h0.08467l0.08467-0.04233 0.04233-0.04233h0.04233l0.04233-0.04233 0.08467-0.04233h0.04233l0.25398-0.25398v-0.04233l0.04233-0.04233 0.04233-0.08467v-0.04233l0.08466-0.08466v-0.127l0.04233-0.04233v-0.508l-0.04233-0.04233v-0.127l-0.04233-0.04233-0.04233-0.08467v-0.04233l-0.08466-0.08466v-0.04233l-0.29631-0.29631-0.08467-0.04233h-0.04233l-0.04233-0.04233h-0.04233l-0.08467-0.04233h-0.04233l-0.04233-0.04233h-0.127l-0.08467-0.04233h-0.08467"/>
  <path d="m9.5614 8.1648h-0.21167l-0.04233 0.04233h-0.127l-0.04233 0.04233h-0.08467l-0.08466 0.08466h-0.04233l-0.08467 0.04233-0.08466 0.08466h-0.04233l-0.12699 0.12699-0.04233 0.08467v0.04233l-0.08466 0.08466v0.04233l-0.04233 0.04233v0.08467l-0.04233 0.04233v0.04233l-0.04233 0.08467v0.46567l0.04233 0.08467v0.04233l0.04233 0.04233v0.08467l0.04233 0.04233v0.04233l0.08466 0.08466v0.08467l0.16932 0.16932h0.04233l0.08466 0.08466 0.08467 0.04233 0.04233 0.04233h0.04233l0.04233 0.04233h0.08467l0.04233 0.04233h0.127l0.04233 0.04233h0.381l0.04233-0.04233h0.127l0.04233-0.04233h0.08467l0.04233-0.04233h0.04233l0.04233-0.04233 0.08467-0.04233 0.08466-0.08466h0.04233l0.16932-0.16932v-0.08467l0.08466-0.08466v-0.04233l0.04233-0.04233 0.04233-0.08467v-0.08467l0.04233-0.08467v-0.46567l-0.04233-0.08467v-0.08467l-0.04233-0.08467-0.04233-0.04233v-0.04233l-0.08466-0.08466v-0.04233l-0.04233-0.08467-0.12699-0.12699h-0.04233l-0.08466-0.08466-0.08467-0.04233h-0.04233l-0.08466-0.08466h-0.08467l-0.04233-0.04233h-0.127l-0.04233-0.04233h-0.16933"/>
  <path d="m9.5614 11.17h-0.254l-0.08467 0.04233h-0.04233l-0.04233 0.04233h-0.08467l-0.04233 0.04233h-0.04233l-0.04233 0.04233-0.08467 0.04233h-0.04233l-0.16932 0.16932-0.04233 0.042-0.04233 0.04233v0.04233l-0.04233 0.08467-0.04233 0.04233v0.04233l-0.04233 0.04233v0.08467l-0.04233 0.04233v0.04233l-0.04233 0.08467v0.46567l0.04233 0.04233v0.08467l0.04233 0.04233v0.04233l0.04233 0.08467v0.04233l0.08466 0.08466v0.04233l0.29631 0.29631 0.08467 0.04233h0.04233l0.08466 0.08466h0.127l0.04233 0.04233h0.127l0.08467 0.04233h0.21167l0.08467-0.04233h0.127l0.04233-0.04233h0.127l0.08466-0.08466h0.04233l0.08467-0.04233 0.29631-0.29631v-0.04233l0.08466-0.08466v-0.04233l0.04233-0.08467 0.04233-0.04233v-0.127l0.04233-0.04233v-0.46567l-0.04233-0.08467v-0.08467l-0.04233-0.08467-0.04233-0.04233v-0.04233l-0.04233-0.04233-0.04233-0.08467v-0.04233l-0.04233-0.04233-0.04233-0.042-0.16932-0.16932h-0.04233l-0.08467-0.04233-0.04233-0.04233h-0.04233l-0.04233-0.04233h-0.08467l-0.04233-0.04233h-0.04233l-0.08467-0.04233h-0.21167"/>
 </g>
 <g fill-rule="evenodd" stroke="#1f1a17" stroke-linecap="round" stroke-linejoin="round" stroke-miterlimit="10" stroke-width=".072813">
  <path d="m9.5614 14.176h-0.33867l-0.04233 0.04233h-0.04233l-0.08467 0.04233h-0.04233l-0.08466 0.08466h-0.08467l-0.29631 0.29631v0.04233l-0.08466 0.08466v0.08467l-0.04233 0.04233v0.04233l-0.04233 0.08467v0.04233l-0.04233 0.04233v0.508l0.04233 0.04233v0.08467l0.04233 0.04233v0.04233l0.04233 0.04233v0.08467l0.08466 0.08466v0.04233l0.29631 0.29631h0.08467l0.08466 0.08466h0.04233l0.08467 0.04233h0.04233l0.04233 0.04233h0.635l0.04233-0.04233h0.04233l0.08467-0.04233h0.04233l0.08466-0.08466h0.08467l0.29631-0.29631v-0.04233l0.08466-0.08466v-0.08467l0.08466-0.08466v-0.127l0.04233-0.04233v-0.508l-0.04233-0.04233v-0.127l-0.08466-0.08466v-0.08467l-0.08466-0.08466v-0.04233l-0.29631-0.29631h-0.08467l-0.08466-0.08466h-0.04233l-0.08467-0.04233h-0.04233l-0.04233-0.04233h-0.29633" fill="#fff"/>
  <path d="m9.5614 17.139h-0.127l-0.08467 0.04233h-0.127l-0.04233 0.04233h-0.04233l-0.08467 0.04233h-0.04233l-0.04233 0.04233h-0.04233l-0.08467 0.04233-0.29631 0.29631v0.04233l-0.08466 0.08466v0.04233l-0.04233 0.08467v0.04233l-0.04233 0.04233v0.08467l-0.04233 0.04233v0.508l0.04233 0.04233v0.04233l0.04233 0.08467v0.04233l0.04233 0.04233v0.04233l0.04233 0.08467 0.04233 0.04233v0.04233l0.25398 0.25398h0.04233l0.08467 0.04233 0.04233 0.04233h0.04233l0.04233 0.04233 0.08467 0.04233h0.08467l0.08467 0.04233h0.46567l0.08467-0.04233h0.08467l0.08467-0.04233 0.04233-0.04233h0.04233l0.04233-0.04233 0.08467-0.04233h0.04233l0.25398-0.25398v-0.04233l0.04233-0.04233 0.04233-0.08467v-0.04233l0.08466-0.08466v-0.127l0.04233-0.04233v-0.508l-0.04233-0.04233v-0.127l-0.04233-0.04233-0.04233-0.08467v-0.04233l-0.08466-0.08466v-0.04233l-0.29631-0.29631-0.08467-0.04233h-0.04233l-0.04233-0.04233h-0.04233l-0.08467-0.04233h-0.04233l-0.04233-0.04233h-0.127l-0.08467-0.04233h-0.08467" fill="#848382"/>
  <path d="m9.5614 23.15h-0.254l-0.08467 0.04233h-0.04233l-0.04233 0.04233h-0.08467l-0.04233 0.04233h-0.04233l-0.04233 0.04233-0.08467 0.04233h-0.04233l-0.25398 0.25398v0.04233l-0.04233 0.08467-0.04233 0.04233v0.04233l-0.04233 0.04233v0.04233l-0.04233 0.08467v0.04233l-0.04233 0.08467v0.46567l0.04233 0.04233v0.08467l0.04233 0.04233v0.04233l0.04233 0.08467v0.04233l0.08466 0.08466v0.04233l0.29631 0.29631 0.08467 0.04233h0.04233l0.08466 0.08466h0.127l0.04233 0.04233h0.127l0.08467 0.04233h0.21167l0.08467-0.04233h0.127l0.04233-0.04233h0.127l0.08466-0.08466h0.04233l0.08467-0.04233 0.29631-0.29631v-0.04233l0.08466-0.08466v-0.04233l0.04233-0.08467 0.04233-0.04233v-0.127l0.04233-0.04233v-0.46567l-0.04233-0.08467v-0.127l-0.08466-0.08466v-0.04233l-0.04233-0.04233-0.04233-0.08467v-0.04233l-0.25398-0.25398h-0.04233l-0.08467-0.04233-0.04233-0.04233h-0.04233l-0.04233-0.04233h-0.08467l-0.04233-0.04233h-0.04233l-0.08467-0.04233h-0.21167" fill="#848382"/>
  <path d="m9.5614 26.156h-0.33867l-0.04233 0.04233h-0.04233l-0.08467 0.04233h-0.04233l-0.08466 0.08466h-0.08467l-0.29631 0.29631v0.04233l-0.08466 0.08466v0.08467l-0.04233 0.04233v0.04233l-0.04233 0.08467v0.04233l-0.04233 0.04233v0.508l0.04233 0.04233v0.04233l0.04233 0.08467v0.04233l0.04233 0.04233v0.08467l0.08466 0.08466v0.04233l0.29631 0.29631h0.08467l0.08466 0.08466h0.04233l0.08467 0.04233h0.04233l0.04233 0.04233h0.254l0.08467 0.04233 0.04233-0.04233h0.254l0.04233-0.04233h0.04233l0.08467-0.04233h0.04233l0.08466-0.08466h0.08467l0.29631-0.29631v-0.04233l0.08466-0.08466v-0.08467l0.08466-0.08466v-0.127l0.04233-0.04233v-0.508l-0.04233-0.04233v-0.127l-0.08466-0.08466v-0.08467l-0.08466-0.08466v-0.04233l-0.29631-0.29631h-0.08467l-0.08466-0.08466h-0.04233l-0.08467-0.04233h-0.04233l-0.04233-0.04233h-0.29633" fill="#fff"/>
  <path d="m9.5614 20.145h-0.21167l-0.04233 0.04233h-0.127l-0.04233 0.04233h-0.08467l-0.04233 0.04233h-0.04233l-0.04233 0.04233-0.08467 0.04233-0.08466 0.08466h-0.04233l-0.12699 0.12699-0.04233 0.08467v0.04233l-0.08466 0.08466v0.04233l-0.04233 0.04233v0.08467l-0.04233 0.04233v0.04233l-0.04233 0.08467v0.46567l0.04233 0.08467v0.04233l0.04233 0.04233v0.08467l0.04233 0.04233v0.04233l0.08466 0.08466v0.08467l0.21165 0.21165h0.04233l0.04233 0.04233 0.08467 0.04233 0.04233 0.04233h0.04233l0.04233 0.04233h0.08467l0.04233 0.04233h0.127l0.04233 0.04233h0.381l0.04233-0.04233h0.127l0.04233-0.04233h0.08467l0.04233-0.04233h0.04233l0.04233-0.04233 0.08467-0.04233 0.04233-0.04233h0.04233l0.21165-0.21165v-0.08467l0.08466-0.08466v-0.04233l0.04233-0.04233 0.04233-0.08467v-0.08467l0.04233-0.08467v-0.46567l-0.04233-0.08467v-0.08467l-0.04233-0.08467-0.04233-0.04233v-0.04233l-0.08466-0.08466v-0.04233l-0.04233-0.08467-0.12699-0.12699h-0.04233l-0.08466-0.08466-0.08467-0.04233-0.04233-0.04233h-0.04233l-0.04233-0.04233h-0.08467l-0.04233-0.04233h-0.127l-0.04233-0.04233h-0.16933" fill="#848382"/>
  <path d="m6.5134 2.1958h-0.29633l-0.08467 0.042333h-0.04233l-0.04233 0.042333h-0.08467l-0.08466 0.084666h-0.04233l-0.04233 0.042333-0.08467 0.042333-0.08466 0.084666v0.042333l-0.21165 0.21166v0.084667l-0.04233 0.042333v0.042333l-0.04233 0.084667v0.084667l-0.04233 0.084667v0.33867l0.04233 0.084667v0.084667l0.04233 0.084667v0.042333l0.04233 0.042333v0.084667l0.21165 0.21166v0.042333l0.08466 0.084666 0.08467 0.042333 0.04233 0.042333h0.04233l0.08466 0.084666h0.08467l0.04233 0.04233h0.04233l0.08467 0.04233h0.21167l0.08467 0.04233 0.04233-0.04233h0.254l0.04233-0.04233h0.08467l0.04233-0.04233h0.04233l0.04233-0.042333 0.08467-0.042333h0.04233l0.33864-0.33866v-0.042333l0.04233-0.042333 0.04233-0.084667v-0.042333l0.04233-0.042333v-0.084667l0.04233-0.042333v-0.59266l-0.04233-0.042333v-0.084667l-0.04233-0.042333v-0.042333l-0.04233-0.084667-0.04233-0.042333v-0.042333l-0.33864-0.33866h-0.04233l-0.08467-0.042333-0.04233-0.042333h-0.04233l-0.04233-0.042333h-0.08467l-0.04233-0.042333h-0.29633" fill="#fff"/>
 </g>
 <g fill="#848382" fill-rule="evenodd" stroke="#1f1a17" stroke-linecap="round" stroke-linejoin="round" stroke-miterlimit="10" stroke-width=".072813">
  <path d="m6.5134 5.1591h-0.127l-0.08467 0.04233h-0.08467l-0.08467 0.04233h-0.04233l-0.04233 0.04233h-0.08467l-0.04233 0.04233h-0.04233l-0.08466 0.08466-0.08467 0.04233-0.08466 0.08466v0.04233l-0.21165 0.21165v0.04233l-0.04233 0.08467v0.04233l-0.04233 0.04233v0.127l-0.04233 0.04233v0.381l0.04233 0.08467v0.08467l0.04233 0.08467v0.04233l0.04233 0.04233v0.04233l0.04233 0.08467 0.16932 0.16932v0.04233l0.08466 0.08466 0.08467 0.04233h0.04233l0.08466 0.08466h0.04233l0.08467 0.04233 0.04233 0.04233h0.127l0.04233 0.04233h0.508l0.04233-0.04233h0.127l0.08466-0.08466h0.04233l0.08467-0.04233 0.04233-0.04233h0.04233l0.29631-0.29631v-0.04233l0.04233-0.08467 0.04233-0.04233v-0.04233l0.04233-0.04233v-0.08467l0.04233-0.04233v-0.59267l-0.04233-0.08467v-0.04233l-0.04233-0.04233v-0.08467l-0.08466-0.08466v-0.04233l-0.38097-0.38097h-0.08467l-0.04233-0.04233h-0.04233l-0.04233-0.04233h-0.08467l-0.04233-0.04233h-0.127l-0.04233-0.04233h-0.127"/>
  <path d="m6.5134 8.1648h-0.21167l-0.04233 0.04233h-0.127l-0.04233 0.04233h-0.04233l-0.08467 0.04233-0.04233 0.04233h-0.04233l-0.08466 0.08466-0.08467 0.04233h-0.04233l-0.04233 0.04233v0.04233l-0.04233 0.04233-0.04233 0.08467-0.12699 0.12699v0.04233l-0.04233 0.04233v0.08467l-0.04233 0.04233v0.127l-0.04233 0.04233v0.381l0.04233 0.04233v0.127l0.04233 0.04233v0.08467l0.04233 0.04233v0.04233l0.08466 0.08466 0.04233 0.08467 0.08466 0.08466v0.04233l0.04233 0.04233h0.04233l0.08467 0.04233 0.12699 0.12699h0.04233l0.08467 0.04233h0.04233l0.04233 0.04233h0.127l0.04233 0.04233h0.381l0.08467-0.04233h0.08467l0.08467-0.04233h0.04233l0.04233-0.04233h0.04233l0.08467-0.04233 0.12699-0.12699h0.04233l0.16932-0.16932 0.04233-0.08467v-0.04233l0.08466-0.08466v-0.04233l0.04233-0.08467v-0.04233l0.04233-0.04233v-0.635l-0.04233-0.04233v-0.04233l-0.04233-0.08467v-0.04233l-0.08466-0.08466v-0.04233l-0.04233-0.04233-0.04233-0.08467-0.12699-0.12699h-0.04233l-0.12699-0.12699h-0.08467l-0.08466-0.08466h-0.04233l-0.08467-0.04233h-0.08467l-0.08467-0.04233h-0.16933"/>
  <path d="m6.5134 11.17h-0.254l-0.04233 0.04233h-0.08467l-0.04233 0.04233h-0.04233l-0.08467 0.04233h-0.04233l-0.08466 0.08466h-0.04233l-0.08467 0.04233-0.08466 0.08466v0.04233l-0.04233 0.042-0.08466 0.08466-0.04233 0.08467-0.04233 0.04233v0.04233l-0.04233 0.04233v0.08467l-0.04233 0.04233v0.127l-0.04233 0.04233v0.381l0.04233 0.04233v0.127l0.04233 0.04233v0.04233l0.04233 0.08467v0.04233l0.21165 0.21165v0.04233l0.08466 0.08466 0.08467 0.04233 0.08466 0.08466h0.04233l0.04233 0.04233 0.08467 0.04233h0.08467l0.08467 0.04233h0.08467l0.08467 0.04233h0.254l0.04233-0.04233h0.127l0.04233-0.04233h0.127l0.08466-0.08466h0.08467l0.38097-0.38097v-0.04233l0.08466-0.08466v-0.08467l0.04233-0.04233v-0.04233l0.04233-0.08467v-0.59267l-0.04233-0.04233v-0.04233l-0.04233-0.08467v-0.04233l-0.08466-0.08466v-0.08467l-0.08466-0.08466-0.04233-0.042-0.16932-0.16932h-0.04233l-0.04233-0.04233-0.08467-0.04233h-0.04233l-0.04233-0.04233h-0.04233l-0.08467-0.04233h-0.04233l-0.04233-0.04233h-0.254"/>
 </g>
 <g fill-rule="evenodd" stroke="#1f1a17" stroke-linecap="round" stroke-linejoin="round" stroke-miterlimit="10" stroke-width=".072813">
  <path d="m6.5134 14.176h-0.29633l-0.08467 0.04233h-0.04233l-0.04233 0.04233h-0.08467l-0.08466 0.08466h-0.04233l-0.04233 0.04233-0.08467 0.04233-0.08466 0.08466v0.04233l-0.21165 0.21165v0.08467l-0.04233 0.04233v0.04233l-0.04233 0.08467v0.08467l-0.04233 0.08467v0.33867l0.04233 0.08467v0.127l0.04233 0.04233v0.04233l0.04233 0.04233v0.08467l0.21165 0.21165v0.04233l0.08466 0.08466 0.08467 0.04233 0.04233 0.04233h0.04233l0.08466 0.08466h0.08467l0.04233 0.04233h0.04233l0.08467 0.04233h0.59267l0.04233-0.04233h0.08467l0.04233-0.04233h0.04233l0.04233-0.04233 0.08467-0.04233h0.04233l0.33864-0.33864v-0.04233l0.04233-0.04233 0.04233-0.08467v-0.04233l0.04233-0.04233v-0.04233l0.04233-0.08467v-0.59267l-0.04233-0.04233v-0.08467l-0.04233-0.04233v-0.04233l-0.04233-0.08467-0.04233-0.04233v-0.04233l-0.33864-0.33864h-0.04233l-0.08467-0.04233-0.04233-0.04233h-0.04233l-0.04233-0.04233h-0.08467l-0.04233-0.04233h-0.29633" fill="#fff"/>
  <path d="m6.5134 17.139h-0.127l-0.08467 0.04233h-0.08467l-0.08467 0.04233h-0.04233l-0.04233 0.04233h-0.08467l-0.04233 0.04233h-0.04233l-0.08466 0.08466-0.08467 0.04233-0.08466 0.08466v0.04233l-0.21165 0.21165v0.04233l-0.04233 0.08467v0.04233l-0.04233 0.04233v0.127l-0.04233 0.04233v0.381l0.04233 0.08467v0.08467l0.04233 0.08467v0.04233l0.04233 0.04233v0.04233l0.04233 0.08467 0.16932 0.16932v0.04233l0.08466 0.08466 0.08467 0.04233h0.04233l0.08466 0.08466h0.04233l0.08467 0.04233 0.04233 0.04233h0.127l0.04233 0.04233h0.508l0.04233-0.04233h0.127l0.08466-0.08466h0.04233l0.08467-0.04233 0.04233-0.04233h0.04233l0.29631-0.29631v-0.04233l0.04233-0.08467 0.04233-0.04233v-0.04233l0.04233-0.04233v-0.08467l0.04233-0.04233v-0.59267l-0.04233-0.08467v-0.04233l-0.04233-0.04233v-0.08467l-0.08466-0.08466v-0.04233l-0.38097-0.38097h-0.08467l-0.04233-0.04233h-0.04233l-0.04233-0.04233h-0.08467l-0.04233-0.04233h-0.127l-0.04233-0.04233h-0.127" fill="#848382"/>
  <path d="m6.5134 23.15h-0.254l-0.04233 0.04233h-0.08467l-0.04233 0.04233h-0.04233l-0.08467 0.04233h-0.04233l-0.08466 0.08466h-0.04233l-0.08467 0.04233-0.08466 0.08466v0.04233l-0.12699 0.12699-0.04233 0.08467-0.04233 0.04233v0.04233l-0.04233 0.04233v0.04233l-0.04233 0.08467v0.127l-0.04233 0.04233v0.381l0.04233 0.04233v0.127l0.04233 0.04233v0.04233l0.04233 0.08467v0.04233l0.21165 0.21165v0.04233l0.08466 0.08466 0.08467 0.04233 0.08466 0.08466h0.04233l0.04233 0.04233 0.08467 0.04233h0.08467l0.08467 0.04233h0.08467l0.08467 0.04233h0.254l0.04233-0.04233h0.127l0.04233-0.04233h0.127l0.08466-0.08466h0.08467l0.38097-0.38097v-0.04233l0.08466-0.08466v-0.08467l0.04233-0.04233v-0.04233l0.04233-0.08467v-0.59267l-0.04233-0.04233v-0.08467l-0.04233-0.04233v-0.04233l-0.08466-0.08466v-0.08467l-0.29631-0.29631h-0.04233l-0.04233-0.04233-0.08467-0.04233h-0.04233l-0.04233-0.04233h-0.04233l-0.08467-0.04233h-0.04233l-0.04233-0.04233h-0.254" fill="#848382"/>
  <path d="m6.5134 26.156h-0.29633l-0.08467 0.04233h-0.04233l-0.04233 0.04233h-0.08467l-0.08466 0.08466h-0.04233l-0.04233 0.04233-0.08467 0.04233-0.08466 0.08466v0.04233l-0.21165 0.21165v0.08467l-0.04233 0.04233v0.04233l-0.04233 0.08467v0.08467l-0.04233 0.08467v0.33867l0.04233 0.08467v0.08467l0.04233 0.08467v0.04233l0.04233 0.04233v0.08467l0.21165 0.21165v0.04233l0.08466 0.08466 0.08467 0.04233 0.04233 0.04233h0.04233l0.08466 0.08466h0.08467l0.04233 0.04233h0.04233l0.08467 0.04233h0.21167l0.08467 0.04233 0.04233-0.04233h0.254l0.04233-0.04233h0.08467l0.04233-0.04233h0.04233l0.04233-0.04233 0.08467-0.04233h0.04233l0.33864-0.33864v-0.04233l0.04233-0.04233 0.04233-0.08467v-0.04233l0.04233-0.04233v-0.08467l0.04233-0.04233v-0.59267l-0.04233-0.04233v-0.08467l-0.04233-0.04233v-0.04233l-0.04233-0.08467-0.04233-0.04233v-0.04233l-0.33864-0.33864h-0.04233l-0.08467-0.04233-0.04233-0.04233h-0.04233l-0.04233-0.04233h-0.08467l-0.04233-0.04233h-0.29633" fill="#fff"/>
  <path d="m6.5134 20.145h-0.21167l-0.04233 0.04233h-0.127l-0.04233 0.04233h-0.04233l-0.08467 0.04233h-0.04233l-0.12699 0.12699-0.08467 0.04233h-0.04233l-0.04233 0.04233v0.04233l-0.04233 0.04233-0.04233 0.08467-0.12699 0.12699v0.04233l-0.04233 0.04233v0.08467l-0.04233 0.04233v0.127l-0.04233 0.04233v0.381l0.04233 0.04233v0.127l0.04233 0.04233v0.08467l0.04233 0.04233v0.04233l0.08466 0.08466 0.04233 0.08467 0.08466 0.08466v0.04233l0.08466 0.08466h0.08467l0.12699 0.12699h0.04233l0.08467 0.04233h0.04233l0.04233 0.04233h0.127l0.04233 0.04233h0.381l0.08467-0.04233h0.08467l0.08467-0.04233h0.04233l0.04233-0.04233h0.04233l0.08467-0.04233 0.08466-0.08466h0.04233l0.21165-0.21165 0.04233-0.08467v-0.04233l0.08466-0.08466v-0.04233l0.04233-0.08467v-0.04233l0.04233-0.04233v-0.635l-0.04233-0.04233v-0.04233l-0.04233-0.08467v-0.04233l-0.08466-0.08466v-0.04233l-0.04233-0.04233-0.04233-0.08467-0.12699-0.12699h-0.04233l-0.12699-0.12699-0.08467-0.04233h-0.04233l-0.04233-0.04233h-0.04233l-0.08467-0.04233h-0.08467l-0.08467-0.04233h-0.16933" fill="#848382"/>
  <path d="m3.4654 2.1958h-0.29633l-0.08467 0.042333h-0.04233l-0.04233 0.042333h-0.04233l-0.08467 0.042333-0.04233 0.042333h-0.04233l-0.38097 0.381v0.042333l-0.04233 0.084667v0.042333l-0.04233 0.042333v0.084667l-0.04233 0.042333v0.127l-0.04233 0.042333v0.254l0.04233 0.042333v0.127l0.04233 0.042333v0.084667l0.04233 0.042333v0.042333l0.04233 0.084667v0.042333l0.38097 0.381h0.04233l0.04233 0.042333 0.08467 0.042333h0.04233l0.04233 0.04233h0.04233l0.08467 0.04233h0.254l0.04233 0.04233 0.04233-0.04233h0.254l0.08467-0.04233h0.04233l0.04233-0.04233h0.04233l0.08467-0.042333 0.04233-0.042333h0.04233l0.38097-0.381v-0.042333l0.04233-0.084667v-0.042333l0.04233-0.042333v-0.084667l0.04233-0.042333v-0.127l0.04233-0.042333v-0.254l-0.04233-0.042333v-0.127l-0.04233-0.042333v-0.084667l-0.04233-0.042333v-0.042333l-0.04233-0.084667v-0.042333l-0.38097-0.381h-0.04233l-0.04233-0.042333-0.08467-0.042333h-0.04233l-0.04233-0.042333h-0.04233l-0.08467-0.042333h-0.29633" fill="#fff"/>
 </g>
 <g fill="#848382" fill-rule="evenodd" stroke="#1f1a17" stroke-linecap="round" stroke-linejoin="round" stroke-miterlimit="10" stroke-width=".072813">
  <path d="m3.4654 5.1591h-0.127l-0.04233 0.04233h-0.127l-0.08467 0.04233h-0.04233l-0.04233 0.04233h-0.04233l-0.08467 0.04233h-0.04233l-0.4233 0.4233v0.04233l-0.04233 0.04233v0.08467l-0.04233 0.04233v0.04233l-0.04233 0.08467v0.08467l-0.04233 0.08467v0.254l0.04233 0.04233v0.127l0.04233 0.04233v0.08467l0.04233 0.04233v0.04233l0.04233 0.04233v0.08467l0.33864 0.33864h0.04233l0.08466 0.08466h0.08467l0.08466 0.08466h0.127l0.04233 0.04233h0.508l0.04233-0.04233h0.127l0.08466-0.08466h0.08467l0.08466-0.08466h0.04233l0.33864-0.33864v-0.08467l0.04233-0.04233v-0.04233l0.04233-0.04233v-0.08467l0.04233-0.04233v-0.127l0.04233-0.04233v-0.254l-0.04233-0.08467v-0.08467l-0.04233-0.08467v-0.04233l-0.04233-0.04233v-0.08467l-0.04233-0.04233v-0.04233l-0.4233-0.4233h-0.04233l-0.08467-0.04233h-0.04233l-0.04233-0.04233h-0.04233l-0.08467-0.04233h-0.127l-0.04233-0.04233h-0.127"/>
  <path d="m3.4654 8.1648h-0.16933l-0.08467 0.04233h-0.127l-0.04233 0.04233h-0.04233l-0.04233 0.04233-0.08467 0.04233h-0.04233l-0.12699 0.12699h-0.04233l-0.12699 0.12699-0.04233 0.08467-0.08466 0.08466v0.04233l-0.04233 0.04233v0.04233l-0.04233 0.08467v0.04233l-0.04233 0.04233v0.127l-0.04233 0.08467v0.21167l0.04233 0.08467v0.127l0.04233 0.04233v0.04233l0.04233 0.08467v0.04233l0.04233 0.04233v0.04233l0.04233 0.04233 0.04233 0.08467 0.16932 0.16932h0.04233l0.16932 0.16932h0.08467l0.04233 0.04233h0.04233l0.04233 0.04233h0.127l0.08467 0.04233h0.33867l0.08467-0.04233h0.127l0.04233-0.04233h0.04233l0.04233-0.04233h0.08467l0.16932-0.16932h0.04233l0.16932-0.16932 0.04233-0.08467 0.04233-0.04233v-0.04233l0.04233-0.04233v-0.04233l0.04233-0.08467v-0.04233l0.04233-0.04233v-0.127l0.04233-0.08467v-0.21167l-0.04233-0.08467v-0.127l-0.04233-0.04233v-0.04233l-0.04233-0.08467v-0.04233l-0.04233-0.04233v-0.04233l-0.08466-0.08466-0.04233-0.08467-0.12699-0.12699h-0.04233l-0.12699-0.12699h-0.04233l-0.08467-0.04233-0.04233-0.04233h-0.04233l-0.04233-0.04233h-0.127l-0.08467-0.04233h-0.16933"/>
  <path d="m3.4654 11.17h-0.254l-0.04233 0.04233h-0.08467l-0.04233 0.04233h-0.04233l-0.04233 0.04233h-0.08467l-0.08466 0.08466h-0.04233l-0.16932 0.16932-0.04233 0.042-0.08466 0.08466-0.04233 0.08467v0.04233l-0.04233 0.04233v0.04233l-0.04233 0.08467v0.04233l-0.04233 0.04233v0.127l-0.04233 0.04233v0.254l0.04233 0.08467v0.08467l0.04233 0.08467v0.04233l0.04233 0.04233v0.08467l0.04233 0.04233v0.04233l0.4233 0.4233h0.04233l0.08467 0.04233 0.04233 0.04233h0.08467l0.08467 0.04233h0.127l0.04233 0.04233h0.254l0.04233-0.04233h0.127l0.08467-0.04233h0.08467l0.04233-0.04233 0.08467-0.04233h0.04233l0.4233-0.4233v-0.04233l0.04233-0.04233v-0.08467l0.04233-0.04233v-0.04233l0.04233-0.08467v-0.08467l0.04233-0.08467v-0.254l-0.04233-0.04233v-0.127l-0.04233-0.04233v-0.04233l-0.04233-0.08467v-0.04233l-0.04233-0.04233v-0.04233l-0.04233-0.08467-0.08466-0.08466-0.04233-0.042-0.16932-0.16932h-0.04233l-0.08466-0.08466h-0.08467l-0.04233-0.04233h-0.04233l-0.04233-0.04233h-0.08467l-0.04233-0.04233h-0.254"/>
 </g>
 <g fill-rule="evenodd" stroke="#1f1a17" stroke-linecap="round" stroke-linejoin="round" stroke-miterlimit="10" stroke-width=".072813">
  <path d="m3.4654 14.176h-0.29633l-0.08467 0.04233h-0.04233l-0.04233 0.04233h-0.04233l-0.08467 0.04233-0.04233 0.04233h-0.04233l-0.38097 0.38097v0.04233l-0.04233 0.08467v0.04233l-0.04233 0.04233v0.08467l-0.04233 0.04233v0.127l-0.04233 0.04233v0.254l0.04233 0.04233v0.127l0.04233 0.08467v0.04233l0.04233 0.04233v0.04233l0.04233 0.08467v0.04233l0.38097 0.38097h0.04233l0.04233 0.04233 0.08467 0.04233h0.04233l0.04233 0.04233h0.04233l0.08467 0.04233h0.59267l0.08467-0.04233h0.04233l0.04233-0.04233h0.04233l0.08467-0.04233 0.04233-0.04233h0.04233l0.38097-0.38097v-0.04233l0.04233-0.08467v-0.04233l0.04233-0.04233v-0.04233l0.04233-0.08467v-0.127l0.04233-0.04233v-0.254l-0.04233-0.04233v-0.127l-0.04233-0.04233v-0.08467l-0.04233-0.04233v-0.04233l-0.04233-0.08467v-0.04233l-0.38097-0.38097h-0.04233l-0.04233-0.04233-0.08467-0.04233h-0.04233l-0.04233-0.04233h-0.04233l-0.08467-0.04233h-0.29633" fill="#fff"/>
  <path d="m3.4654 17.139h-0.127l-0.04233 0.04233h-0.127l-0.08467 0.04233h-0.04233l-0.04233 0.04233h-0.04233l-0.08467 0.04233h-0.04233l-0.4233 0.4233v0.04233l-0.04233 0.04233v0.08467l-0.04233 0.04233v0.04233l-0.04233 0.08467v0.08467l-0.04233 0.08467v0.254l0.04233 0.04233v0.127l0.04233 0.04233v0.08467l0.04233 0.04233v0.04233l0.04233 0.04233v0.08467l0.33864 0.33864h0.04233l0.08466 0.08466h0.08467l0.08466 0.08466h0.127l0.04233 0.04233h0.508l0.04233-0.04233h0.127l0.08466-0.08466h0.08467l0.08466-0.08466h0.04233l0.33864-0.33864v-0.08467l0.04233-0.04233v-0.04233l0.04233-0.04233v-0.08467l0.04233-0.04233v-0.127l0.04233-0.04233v-0.254l-0.04233-0.08467v-0.08467l-0.04233-0.08467v-0.04233l-0.04233-0.04233v-0.08467l-0.04233-0.04233v-0.04233l-0.4233-0.4233h-0.04233l-0.08467-0.04233h-0.04233l-0.04233-0.04233h-0.04233l-0.08467-0.04233h-0.127l-0.04233-0.04233h-0.127" fill="#848382"/>
  <path d="m3.4654 23.15h-0.254l-0.04233 0.04233h-0.08467l-0.04233 0.04233h-0.04233l-0.04233 0.04233h-0.08467l-0.08466 0.08466h-0.04233l-0.29631 0.29631-0.04233 0.08467v0.04233l-0.04233 0.04233v0.04233l-0.04233 0.04233v0.08467l-0.04233 0.04233v0.127l-0.04233 0.04233v0.254l0.04233 0.08467v0.08467l0.04233 0.08467v0.04233l0.04233 0.04233v0.08467l0.04233 0.04233v0.04233l0.4233 0.4233h0.04233l0.08467 0.04233 0.04233 0.04233h0.08467l0.08467 0.04233h0.127l0.04233 0.04233h0.254l0.04233-0.04233h0.127l0.08467-0.04233h0.08467l0.04233-0.04233 0.08467-0.04233h0.04233l0.4233-0.4233v-0.04233l0.04233-0.04233v-0.08467l0.04233-0.04233v-0.04233l0.04233-0.08467v-0.08467l0.04233-0.08467v-0.254l-0.04233-0.04233v-0.127l-0.04233-0.04233v-0.08467l-0.04233-0.04233v-0.04233l-0.04233-0.04233v-0.04233l-0.04233-0.08467-0.29631-0.29631h-0.04233l-0.08466-0.08466h-0.08467l-0.04233-0.04233h-0.04233l-0.04233-0.04233h-0.08467l-0.04233-0.04233h-0.254" fill="#848382"/>
  <path d="m3.4654 26.156h-0.29633l-0.08467 0.04233h-0.04233l-0.04233 0.04233h-0.04233l-0.08467 0.04233-0.04233 0.04233h-0.04233l-0.38097 0.38097v0.04233l-0.04233 0.08467v0.04233l-0.04233 0.04233v0.08467l-0.04233 0.04233v0.127l-0.04233 0.04233v0.254l0.04233 0.04233v0.127l0.04233 0.04233v0.08467l0.04233 0.04233v0.04233l0.04233 0.08467v0.04233l0.38097 0.38097h0.04233l0.04233 0.04233 0.08467 0.04233h0.04233l0.04233 0.04233h0.04233l0.08467 0.04233h0.254l0.04233 0.04233 0.04233-0.04233h0.254l0.08467-0.04233h0.04233l0.04233-0.04233h0.04233l0.08467-0.04233 0.04233-0.04233h0.04233l0.38097-0.38097v-0.04233l0.04233-0.08467v-0.04233l0.04233-0.04233v-0.08467l0.04233-0.04233v-0.127l0.04233-0.04233v-0.254l-0.04233-0.04233v-0.127l-0.04233-0.04233v-0.08467l-0.04233-0.04233v-0.04233l-0.04233-0.08467v-0.04233l-0.38097-0.38097h-0.04233l-0.04233-0.04233-0.08467-0.04233h-0.04233l-0.04233-0.04233h-0.04233l-0.08467-0.04233h-0.29633" fill="#fff"/>
 </g>
 <g fill="#848382" fill-rule="evenodd" stroke="#1f1a17" stroke-linecap="round" stroke-linejoin="round" stroke-miterlimit="10" stroke-width=".072813">
  <path d="m3.4654 20.145h-0.16933l-0.08467 0.04233h-0.127l-0.04233 0.04233h-0.04233l-0.04233 0.04233h-0.08467l-0.16932 0.16932h-0.04233l-0.12699 0.12699-0.04233 0.08467-0.08466 0.08466v0.04233l-0.04233 0.04233v0.04233l-0.04233 0.08467v0.04233l-0.04233 0.04233v0.127l-0.04233 0.08467v0.21167l0.04233 0.08467v0.127l0.04233 0.04233v0.04233l0.04233 0.08467v0.04233l0.04233 0.04233v0.04233l0.04233 0.04233 0.04233 0.08467 0.21165 0.21165h0.04233l0.12699 0.12699h0.08467l0.04233 0.04233h0.04233l0.04233 0.04233h0.127l0.08467 0.04233h0.33867l0.08467-0.04233h0.127l0.04233-0.04233h0.04233l0.04233-0.04233h0.08467l0.12699-0.12699h0.04233l0.21165-0.21165 0.04233-0.08467 0.04233-0.04233v-0.04233l0.04233-0.04233v-0.04233l0.04233-0.08467v-0.04233l0.04233-0.04233v-0.127l0.04233-0.08467v-0.21167l-0.04233-0.08467v-0.127l-0.04233-0.04233v-0.04233l-0.04233-0.08467v-0.04233l-0.04233-0.04233v-0.04233l-0.08466-0.08466-0.04233-0.08467-0.12699-0.12699h-0.04233l-0.16932-0.16932h-0.08467l-0.04233-0.04233h-0.04233l-0.04233-0.04233h-0.127l-0.08467-0.04233h-0.16933"/>
  <path d="m15.615 2.1958h-0.29633l-0.04233 0.042333h-0.08467l-0.04233 0.042333h-0.04233l-0.08467 0.042333-0.04233 0.042333h-0.04233l-0.38097 0.381v0.042333l-0.04233 0.084667v0.042333l-0.04233 0.042333v0.084667l-0.04233 0.042333v0.16933l-0.04233 0.084667v0.127l0.04233 0.042333v0.16933l0.04233 0.042333v0.084667l0.04233 0.042333v0.042333l0.04233 0.084667v0.042333l0.38097 0.381h0.04233l0.04233 0.042333 0.08467 0.042333h0.04233l0.04233 0.04233h0.08467l0.04233 0.04233h0.254l0.04233 0.04233 0.08467-0.04233h0.21167l0.08467-0.04233h0.04233l0.04233-0.04233h0.08467l0.08466-0.084666h0.04233l0.38097-0.381v-0.042333l0.04233-0.084667 0.04233-0.042333v-0.127l0.04233-0.042333v-0.127l0.04233-0.042333v-0.254l-0.04233-0.042333v-0.127l-0.04233-0.042333v-0.127l-0.04233-0.042333-0.04233-0.084667v-0.042333l-0.38097-0.381h-0.04233l-0.08466-0.084666h-0.08467l-0.04233-0.042333h-0.04233l-0.08467-0.042333h-0.29633"/>
  <path d="m15.615 5.1591h-0.127l-0.04233 0.04233h-0.127l-0.04233 0.04233h-0.08467l-0.04233 0.04233h-0.04233l-0.08467 0.04233h-0.04233l-0.4233 0.4233v0.04233l-0.04233 0.04233v0.08467l-0.04233 0.04233v0.04233l-0.04233 0.08467v0.16933l-0.04233 0.04233v0.127l0.04233 0.08467v0.16933l0.04233 0.04233v0.08467l0.04233 0.04233v0.04233l0.04233 0.04233v0.08467l0.33864 0.33864h0.04233l0.08466 0.08466h0.08467l0.08466 0.08466h0.127l0.04233 0.04233h0.508l0.04233-0.04233h0.127l0.04233-0.04233 0.08467-0.04233h0.04233l0.08466-0.08466h0.04233l0.33864-0.33864v-0.08467l0.08466-0.08466v-0.127l0.04233-0.04233v-0.127l0.04233-0.04233v-0.254l-0.04233-0.08467v-0.08467l-0.04233-0.08467v-0.08467l-0.04233-0.08467-0.04233-0.04233v-0.04233l-0.4233-0.4233h-0.04233l-0.04233-0.04233h-0.08467l-0.04233-0.04233h-0.04233l-0.08467-0.04233h-0.127l-0.04233-0.04233h-0.127"/>
  <path d="m15.615 8.1648h-0.16933l-0.08467 0.04233h-0.08467l-0.08467 0.04233h-0.04233l-0.04233 0.04233-0.08467 0.04233h-0.04233l-0.12699 0.12699h-0.04233l-0.12699 0.12699-0.04233 0.08467-0.08466 0.08466v0.04233l-0.04233 0.04233v0.04233l-0.04233 0.08467v0.04233l-0.04233 0.04233v0.21167l-0.04233 0.04233v0.127l0.04233 0.04233v0.21167l0.04233 0.04233v0.04233l0.04233 0.08467v0.04233l0.04233 0.04233v0.04233l0.04233 0.04233 0.04233 0.08467 0.16932 0.16932h0.04233l0.16932 0.16932h0.08467l0.04233 0.04233h0.04233l0.08467 0.04233h0.08467l0.08467 0.04233h0.33867l0.08467-0.04233h0.127l0.04233-0.04233h0.04233l0.08467-0.04233h0.04233l0.16932-0.16932h0.04233l0.16932-0.16932 0.04233-0.08467 0.04233-0.04233v-0.04233l0.08466-0.08466v-0.127l0.04233-0.04233v-0.127l0.04233-0.08467v-0.21167l-0.04233-0.08467v-0.127l-0.04233-0.04233v-0.127l-0.08466-0.08466v-0.04233l-0.08466-0.08466-0.04233-0.08467-0.12699-0.12699h-0.04233l-0.12699-0.12699h-0.04233l-0.04233-0.04233-0.08467-0.04233h-0.04233l-0.04233-0.04233h-0.127l-0.08467-0.04233h-0.16933"/>
  <path d="m15.615 11.17h-0.254l-0.04233 0.04233h-0.04233l-0.08467 0.04233h-0.04233l-0.04233 0.04233h-0.08467l-0.08466 0.08466h-0.04233l-0.16932 0.16932-0.04233 0.042-0.08466 0.08466-0.04233 0.08467v0.04233l-0.04233 0.04233v0.04233l-0.04233 0.08467v0.04233l-0.04233 0.04233v0.16933l-0.04233 0.08467v0.127l0.04233 0.04233v0.16933l0.04233 0.08467v0.04233l0.04233 0.04233v0.08467l0.04233 0.04233v0.04233l0.4233 0.4233h0.04233l0.08467 0.04233 0.04233 0.04233h0.127l0.04233 0.04233h0.127l0.04233 0.04233h0.254l0.04233-0.04233h0.127l0.08467-0.04233h0.08467l0.08467-0.04233 0.04233-0.04233h0.04233l0.4233-0.4233v-0.04233l0.04233-0.04233 0.04233-0.08467v-0.08467l0.04233-0.08467v-0.08467l0.04233-0.08467v-0.254l-0.04233-0.04233v-0.127l-0.04233-0.04233v-0.127l-0.08466-0.08466v-0.04233l-0.04233-0.08467-0.08466-0.08466-0.04233-0.042-0.16932-0.16932h-0.04233l-0.08466-0.08466h-0.04233l-0.08467-0.04233h-0.04233l-0.04233-0.04233h-0.08467l-0.04233-0.04233h-0.254"/>
 </g>
 <path d="m15.615 14.176h-0.29633l-0.04233 0.04233h-0.08467l-0.04233 0.04233h-0.04233l-0.08467 0.04233-0.04233 0.04233h-0.04233l-0.38097 0.38097v0.04233l-0.04233 0.08467v0.04233l-0.04233 0.04233v0.08467l-0.04233 0.04233v0.16933l-0.04233 0.08467v0.08467l0.04233 0.08467v0.16933l0.04233 0.08467v0.04233l0.04233 0.04233v0.04233l0.04233 0.08467v0.04233l0.38097 0.38097h0.04233l0.04233 0.04233 0.08467 0.04233h0.04233l0.04233 0.04233h0.08467l0.04233 0.04233h0.59267l0.08467-0.04233h0.04233l0.04233-0.04233h0.08467l0.08466-0.08466h0.04233l0.38097-0.38097v-0.04233l0.04233-0.08467 0.04233-0.04233v-0.08467l0.04233-0.08467v-0.127l0.04233-0.04233v-0.254l-0.04233-0.04233v-0.127l-0.04233-0.04233v-0.127l-0.04233-0.04233-0.04233-0.08467v-0.04233l-0.38097-0.38097h-0.04233l-0.08466-0.08466h-0.08467l-0.04233-0.04233h-0.04233l-0.08467-0.04233h-0.29633" fill="#fff500" fill-rule="evenodd" stroke="#1f1a17" stroke-linecap="round" stroke-linejoin="round" stroke-miterlimit="10" stroke-width=".072813"/>
 <g fill="#848382" fill-rule="evenodd" stroke="#1f1a17" stroke-linecap="round" stroke-linejoin="round" stroke-miterlimit="10" stroke-width=".072813">
  <path d="m15.615 17.139h-0.127l-0.04233 0.04233h-0.127l-0.04233 0.04233h-0.08467l-0.04233 0.04233h-0.04233l-0.08467 0.04233h-0.04233l-0.4233 0.4233v0.04233l-0.04233 0.04233v0.08467l-0.04233 0.04233v0.04233l-0.04233 0.08467v0.16933l-0.04233 0.04233v0.127l0.04233 0.08467v0.16933l0.04233 0.04233v0.08467l0.04233 0.04233v0.04233l0.04233 0.04233v0.08467l0.33864 0.33864h0.04233l0.08466 0.08466h0.08467l0.08466 0.08466h0.127l0.04233 0.04233h0.508l0.04233-0.04233h0.127l0.04233-0.04233 0.08467-0.04233h0.04233l0.08466-0.08466h0.04233l0.33864-0.33864v-0.08467l0.08466-0.08466v-0.127l0.04233-0.04233v-0.127l0.04233-0.04233v-0.254l-0.04233-0.08467v-0.08467l-0.04233-0.08467v-0.08467l-0.04233-0.08467-0.04233-0.04233v-0.04233l-0.4233-0.4233h-0.04233l-0.04233-0.04233h-0.08467l-0.04233-0.04233h-0.04233l-0.08467-0.04233h-0.127l-0.04233-0.04233h-0.127"/>
  <path d="m15.615 23.15h-0.254l-0.04233 0.04233h-0.04233l-0.08467 0.04233h-0.04233l-0.04233 0.04233h-0.08467l-0.08466 0.08466h-0.04233l-0.29631 0.29631-0.04233 0.08467v0.04233l-0.04233 0.04233v0.04233l-0.04233 0.04233v0.08467l-0.04233 0.04233v0.16933l-0.04233 0.08467v0.127l0.04233 0.04233v0.16933l0.04233 0.08467v0.04233l0.04233 0.04233v0.08467l0.04233 0.04233v0.04233l0.4233 0.4233h0.04233l0.08467 0.04233 0.04233 0.04233h0.127l0.04233 0.04233h0.127l0.04233 0.04233h0.254l0.04233-0.04233h0.127l0.08467-0.04233h0.08467l0.08467-0.04233 0.04233-0.04233h0.04233l0.4233-0.4233v-0.04233l0.04233-0.04233 0.04233-0.08467v-0.08467l0.04233-0.08467v-0.08467l0.04233-0.08467v-0.254l-0.04233-0.04233v-0.127l-0.04233-0.04233v-0.127l-0.08466-0.08466v-0.04233l-0.04233-0.08467-0.29631-0.29631h-0.04233l-0.08466-0.08466h-0.04233l-0.08467-0.04233h-0.04233l-0.04233-0.04233h-0.08467l-0.04233-0.04233h-0.254"/>
  <path d="m15.615 26.156h-0.29633l-0.04233 0.04233h-0.08467l-0.04233 0.04233h-0.04233l-0.08467 0.04233-0.04233 0.04233h-0.04233l-0.38097 0.38097v0.04233l-0.04233 0.08467v0.04233l-0.04233 0.04233v0.08467l-0.04233 0.04233v0.16933l-0.04233 0.08467v0.127l0.04233 0.04233v0.16933l0.04233 0.04233v0.08467l0.04233 0.04233v0.04233l0.04233 0.08467v0.04233l0.38097 0.38097h0.04233l0.04233 0.04233 0.08467 0.04233h0.04233l0.04233 0.04233h0.08467l0.04233 0.04233h0.254l0.04233 0.04233 0.08467-0.04233h0.21167l0.08467-0.04233h0.04233l0.04233-0.04233h0.08467l0.08466-0.08466h0.04233l0.38097-0.38097v-0.04233l0.04233-0.08467 0.04233-0.04233v-0.127l0.04233-0.04233v-0.127l0.04233-0.04233v-0.254l-0.04233-0.04233v-0.127l-0.04233-0.04233v-0.127l-0.04233-0.04233-0.04233-0.08467v-0.04233l-0.38097-0.38097h-0.04233l-0.08466-0.08466h-0.08467l-0.04233-0.04233h-0.04233l-0.08467-0.04233h-0.29633"/>
  <path d="m15.615 20.145h-0.16933l-0.08467 0.04233h-0.08467l-0.08467 0.04233h-0.04233l-0.04233 0.04233h-0.08467l-0.16932 0.16932h-0.04233l-0.12699 0.12699-0.04233 0.08467-0.08466 0.08466v0.04233l-0.04233 0.04233v0.04233l-0.04233 0.08467v0.04233l-0.04233 0.04233v0.21167l-0.04233 0.04233v0.127l0.04233 0.04233v0.21167l0.04233 0.04233v0.04233l0.04233 0.08467v0.04233l0.04233 0.04233v0.04233l0.04233 0.04233 0.04233 0.08467 0.21165 0.21165h0.04233l0.12699 0.12699h0.08467l0.04233 0.04233h0.04233l0.08467 0.04233h0.08467l0.08467 0.04233h0.33867l0.08467-0.04233h0.127l0.04233-0.04233h0.04233l0.08467-0.04233h0.04233l0.12699-0.12699h0.04233l0.21165-0.21165 0.04233-0.08467 0.04233-0.04233v-0.04233l0.08466-0.08466v-0.127l0.04233-0.04233v-0.127l0.04233-0.08467v-0.21167l-0.04233-0.08467v-0.127l-0.04233-0.04233v-0.127l-0.08466-0.08466v-0.04233l-0.08466-0.08466-0.04233-0.08467-0.12699-0.12699h-0.04233l-0.16932-0.16932h-0.04233l-0.08467-0.04233h-0.04233l-0.04233-0.04233h-0.127l-0.08467-0.04233h-0.16933"/>
  <path d="m12.567 2.1958h-0.29633l-0.04233 0.042333h-0.08467l-0.04233 0.042333h-0.04233l-0.04233 0.042333-0.08467 0.042333h-0.04233l-0.33864 0.33866v0.042333l-0.04233 0.042333-0.04233 0.084667v0.042333l-0.04233 0.042333v0.084667l-0.04233 0.042333v0.59267l0.04233 0.042333v0.084667l0.04233 0.042333v0.042333l0.04233 0.084667 0.04233 0.042333v0.042333l0.33864 0.33866h0.04233l0.08467 0.042333 0.04233 0.042333h0.04233l0.04233 0.04233h0.08467l0.04233 0.04233h0.254l0.04233 0.04233 0.08467-0.04233h0.21167l0.08467-0.04233h0.04233l0.04233-0.04233h0.08467l0.08466-0.084666h0.04233l0.04233-0.042333 0.08467-0.042333 0.12699-0.127v-0.042333l0.16932-0.16933v-0.084667l0.04233-0.042333v-0.042333l0.04233-0.084667v-0.084667l0.04233-0.084667v-0.33866l-0.04233-0.084667v-0.084667l-0.04233-0.084667v-0.042333l-0.04233-0.042333v-0.084667l-0.16932-0.16933v-0.042333l-0.12699-0.127-0.08467-0.042333-0.04233-0.042333h-0.04233l-0.08466-0.084666h-0.08467l-0.04233-0.042333h-0.04233l-0.08467-0.042333h-0.29633"/>
  <path d="m12.567 5.1591h-0.127l-0.04233 0.04233h-0.127l-0.04233 0.04233h-0.08467l-0.04233 0.04233h-0.04233l-0.04233 0.04233h-0.08467l-0.38097 0.38097v0.04233l-0.08466 0.08466v0.08467l-0.04233 0.04233v0.04233l-0.04233 0.08467v0.59267l0.04233 0.04233v0.08467l0.04233 0.04233v0.04233l0.04233 0.04233 0.04233 0.08467v0.04233l0.29631 0.29631h0.04233l0.04233 0.04233 0.08467 0.04233h0.04233l0.08466 0.08466h0.127l0.08467 0.04233h0.46567l0.04233-0.04233h0.127l0.04233-0.04233 0.08467-0.04233h0.04233l0.08466-0.08466h0.04233l0.08467-0.04233 0.12699-0.12699v-0.04233l0.12699-0.12699 0.04233-0.08467v-0.04233l0.04233-0.04233v-0.04233l0.04233-0.08467v-0.08467l0.04233-0.08467v-0.381l-0.04233-0.04233v-0.127l-0.04233-0.04233v-0.04233l-0.04233-0.08467v-0.04233l-0.16932-0.16932v-0.04233l-0.12699-0.12699-0.08467-0.04233-0.08466-0.08466h-0.04233l-0.04233-0.04233h-0.08467l-0.04233-0.04233h-0.04233l-0.08467-0.04233h-0.08467l-0.08467-0.04233h-0.127"/>
  <path d="m12.567 8.1648h-0.16933l-0.04233 0.04233h-0.127l-0.08467 0.04233h-0.04233l-0.08466 0.08466h-0.08467l-0.12699 0.12699h-0.04233l-0.12699 0.12699-0.04233 0.08467-0.04233 0.04233v0.04233l-0.08466 0.08466v0.04233l-0.04233 0.08467v0.04233l-0.04233 0.04233v0.635l0.04233 0.04233v0.04233l0.04233 0.08467v0.04233l0.08466 0.08466v0.04233l0.04233 0.08467 0.16932 0.16932h0.04233l0.12699 0.12699 0.08467 0.04233h0.04233l0.04233 0.04233h0.04233l0.08467 0.04233h0.127l0.04233 0.04233h0.381l0.04233-0.04233h0.127l0.04233-0.04233h0.04233l0.08467-0.04233h0.04233l0.12699-0.12699 0.08467-0.04233h0.04233l0.08466-0.08466v-0.04233l0.04233-0.04233 0.04233-0.08467 0.08466-0.08466v-0.04233l0.04233-0.04233v-0.08467l0.04233-0.04233v-0.127l0.04233-0.04233v-0.381l-0.04233-0.04233v-0.127l-0.04233-0.04233v-0.08467l-0.04233-0.04233v-0.04233l-0.12699-0.12699-0.04233-0.08467v-0.04233l-0.08466-0.08466h-0.04233l-0.08467-0.04233-0.08466-0.08466h-0.04233l-0.04233-0.04233-0.08467-0.04233h-0.04233l-0.04233-0.04233h-0.127l-0.04233-0.04233h-0.21167"/>
  <path d="m12.567 11.17h-0.21167l-0.08467 0.04233h-0.04233l-0.08467 0.04233h-0.04233l-0.04233 0.04233h-0.04233l-0.08467 0.04233-0.04233 0.04233h-0.04233l-0.16932 0.16932-0.04233 0.042-0.08466 0.08466v0.08467l-0.08466 0.08466v0.04233l-0.04233 0.08467v0.04233l-0.04233 0.04233v0.59267l0.04233 0.08467v0.04233l0.04233 0.04233v0.08467l0.08466 0.08466v0.04233l0.38097 0.38097h0.08467l0.08466 0.08466h0.127l0.04233 0.04233h0.127l0.04233 0.04233h0.254l0.08467-0.04233h0.08467l0.08467-0.04233h0.08467l0.08467-0.04233 0.04233-0.04233h0.04233l0.08466-0.08466 0.08467-0.04233 0.12699-0.12699v-0.04233l0.16932-0.16932v-0.04233l0.04233-0.08467v-0.04233l0.04233-0.04233v-0.127l0.04233-0.04233v-0.381l-0.04233-0.04233v-0.127l-0.04233-0.04233v-0.08467l-0.04233-0.04233v-0.04233l-0.04233-0.04233-0.04233-0.08467-0.08466-0.08466v-0.042l-0.12699-0.12699-0.08467-0.04233h-0.04233l-0.08466-0.08466h-0.04233l-0.08467-0.04233h-0.04233l-0.04233-0.04233h-0.08467l-0.04233-0.04233h-0.254"/>
 </g>
 <path d="m12.567 14.176h-0.29633l-0.04233 0.04233h-0.08467l-0.04233 0.04233h-0.04233l-0.04233 0.04233-0.08467 0.04233h-0.04233l-0.33864 0.33864v0.04233l-0.04233 0.04233-0.04233 0.08467v0.04233l-0.04233 0.04233v0.08467l-0.04233 0.04233v0.59267l0.04233 0.08467v0.04233l0.04233 0.04233v0.04233l0.04233 0.08467 0.04233 0.04233v0.04233l0.33864 0.33864h0.04233l0.08467 0.04233 0.04233 0.04233h0.04233l0.04233 0.04233h0.08467l0.04233 0.04233h0.59267l0.08467-0.04233h0.04233l0.04233-0.04233h0.08467l0.08466-0.08466h0.04233l0.04233-0.04233 0.08467-0.04233 0.12699-0.12699v-0.04233l0.16932-0.16932v-0.08467l0.04233-0.04233v-0.04233l0.04233-0.04233v-0.127l0.04233-0.08467v-0.33867l-0.04233-0.08467v-0.08467l-0.04233-0.08467v-0.04233l-0.04233-0.04233v-0.08467l-0.16932-0.16932v-0.04233l-0.12699-0.12699-0.08467-0.04233-0.04233-0.04233h-0.04233l-0.08466-0.08466h-0.08467l-0.04233-0.04233h-0.04233l-0.08467-0.04233h-0.29633" fill="#fff500" fill-rule="evenodd" stroke="#1f1a17" stroke-linecap="round" stroke-linejoin="round" stroke-miterlimit="10" stroke-width=".072813"/>
 <g fill="#848382" fill-rule="evenodd" stroke="#1f1a17" stroke-linecap="round" stroke-linejoin="round" stroke-miterlimit="10" stroke-width=".072813">
  <path d="m12.567 17.139h-0.127l-0.04233 0.04233h-0.127l-0.04233 0.04233h-0.08467l-0.04233 0.04233h-0.04233l-0.04233 0.04233h-0.08467l-0.38097 0.38097v0.04233l-0.08466 0.08466v0.08467l-0.04233 0.04233v0.04233l-0.04233 0.08467v0.59267l0.04233 0.04233v0.08467l0.04233 0.04233v0.04233l0.04233 0.04233 0.04233 0.08467v0.04233l0.29631 0.29631h0.04233l0.04233 0.04233 0.08467 0.04233h0.04233l0.08466 0.08466h0.127l0.08467 0.04233h0.46567l0.04233-0.04233h0.127l0.04233-0.04233 0.08467-0.04233h0.04233l0.08466-0.08466h0.04233l0.08467-0.04233 0.12699-0.12699v-0.04233l0.12699-0.12699 0.04233-0.08467v-0.04233l0.04233-0.04233v-0.04233l0.04233-0.08467v-0.08467l0.04233-0.08467v-0.381l-0.04233-0.04233v-0.127l-0.04233-0.04233v-0.04233l-0.04233-0.08467v-0.04233l-0.16932-0.16932v-0.04233l-0.12699-0.12699-0.08467-0.04233-0.08466-0.08466h-0.04233l-0.04233-0.04233h-0.08467l-0.04233-0.04233h-0.04233l-0.08467-0.04233h-0.08467l-0.08467-0.04233h-0.127"/>
  <path d="m12.567 23.15h-0.21167l-0.08467 0.04233h-0.04233l-0.08467 0.04233h-0.04233l-0.04233 0.04233h-0.04233l-0.08467 0.04233-0.04233 0.04233h-0.04233l-0.29631 0.29631v0.08467l-0.08466 0.08466v0.04233l-0.04233 0.04233v0.08467l-0.04233 0.04233v0.59267l0.04233 0.08467v0.04233l0.04233 0.04233v0.08467l0.08466 0.08466v0.04233l0.38097 0.38097h0.08467l0.08466 0.08466h0.127l0.04233 0.04233h0.127l0.04233 0.04233h0.254l0.08467-0.04233h0.08467l0.08467-0.04233h0.08467l0.08467-0.04233 0.04233-0.04233h0.04233l0.08466-0.08466 0.08467-0.04233 0.12699-0.12699v-0.04233l0.16932-0.16932v-0.04233l0.04233-0.08467v-0.04233l0.04233-0.04233v-0.127l0.04233-0.04233v-0.381l-0.04233-0.04233v-0.127l-0.04233-0.08467v-0.04233l-0.04233-0.04233v-0.04233l-0.04233-0.04233-0.04233-0.08467-0.08466-0.08466v-0.04233l-0.12699-0.12699-0.08467-0.04233h-0.04233l-0.08466-0.08466h-0.04233l-0.08467-0.04233h-0.04233l-0.04233-0.04233h-0.08467l-0.04233-0.04233h-0.254"/>
  <path d="m12.567 26.156h-0.29633l-0.04233 0.04233h-0.08467l-0.04233 0.04233h-0.04233l-0.04233 0.04233-0.08467 0.04233h-0.04233l-0.33864 0.33864v0.04233l-0.04233 0.04233-0.04233 0.08467v0.04233l-0.04233 0.04233v0.08467l-0.04233 0.04233v0.59267l0.04233 0.04233v0.08467l0.04233 0.04233v0.04233l0.04233 0.08467 0.04233 0.04233v0.04233l0.33864 0.33864h0.04233l0.08467 0.04233 0.04233 0.04233h0.04233l0.04233 0.04233h0.08467l0.04233 0.04233h0.254l0.04233 0.04233 0.08467-0.04233h0.21167l0.08467-0.04233h0.04233l0.04233-0.04233h0.08467l0.08466-0.08466h0.04233l0.04233-0.04233 0.08467-0.04233 0.12699-0.12699v-0.04233l0.16932-0.16932v-0.08467l0.04233-0.04233v-0.04233l0.04233-0.08467v-0.08467l0.04233-0.08467v-0.33867l-0.04233-0.08467v-0.08467l-0.04233-0.08467v-0.04233l-0.04233-0.04233v-0.08467l-0.16932-0.16932v-0.04233l-0.12699-0.12699-0.08467-0.04233-0.04233-0.04233h-0.04233l-0.08466-0.08466h-0.08467l-0.04233-0.04233h-0.04233l-0.08467-0.04233h-0.29633"/>
  <path d="m12.567 20.145h-0.16933l-0.04233 0.04233h-0.127l-0.08467 0.04233h-0.04233l-0.04233 0.04233h-0.04233l-0.08467 0.04233-0.12699 0.12699h-0.04233l-0.12699 0.12699-0.04233 0.08467-0.04233 0.04233v0.04233l-0.08466 0.08466v0.04233l-0.04233 0.08467v0.04233l-0.04233 0.04233v0.635l0.04233 0.04233v0.04233l0.04233 0.08467v0.04233l0.08466 0.08466v0.04233l0.04233 0.08467 0.21165 0.21165h0.04233l0.08466 0.08466 0.08467 0.04233h0.04233l0.04233 0.04233h0.04233l0.08467 0.04233h0.127l0.04233 0.04233h0.381l0.04233-0.04233h0.127l0.04233-0.04233h0.04233l0.08467-0.04233h0.04233l0.12699-0.12699h0.08467l0.12699-0.12699v-0.04233l0.04233-0.04233 0.04233-0.08467 0.08466-0.08466v-0.04233l0.04233-0.04233v-0.08467l0.04233-0.04233v-0.127l0.04233-0.04233v-0.381l-0.04233-0.04233v-0.127l-0.04233-0.04233v-0.08467l-0.04233-0.04233v-0.04233l-0.12699-0.12699-0.04233-0.08467v-0.04233l-0.08466-0.08466h-0.04233l-0.08467-0.04233-0.12699-0.12699h-0.04233l-0.08467-0.04233h-0.04233l-0.04233-0.04233h-0.127l-0.04233-0.04233h-0.21167"/>
  <path d="m9.5614 2.1958h-0.33867l-0.04233 0.042333h-0.04233l-0.08467 0.042333h-0.04233l-0.08466 0.084666h-0.08467l-0.29631 0.29633v0.042333l-0.08466 0.084666v0.084667l-0.04233 0.042333v0.042333l-0.04233 0.084667v0.042333l-0.04233 0.042333v0.508l0.04233 0.042333v0.042333l0.04233 0.084667v0.042333l0.04233 0.042333v0.084667l0.08466 0.084666v0.042333l0.29631 0.29633h0.08467l0.08466 0.084666h0.04233l0.08467 0.04233h0.04233l0.04233 0.04233h0.254l0.08467 0.04233 0.04233-0.04233h0.254l0.04233-0.04233h0.04233l0.08467-0.04233h0.04233l0.08466-0.084666h0.08467l0.29631-0.29633v-0.042333l0.08466-0.084666v-0.084667l0.08466-0.084666v-0.127l0.04233-0.042333v-0.508l-0.04233-0.042333v-0.127l-0.08466-0.084666v-0.084667l-0.08466-0.084666v-0.042333l-0.29631-0.29633h-0.08467l-0.08466-0.084666h-0.04233l-0.08467-0.042333h-0.04233l-0.04233-0.042333h-0.29633"/>
  <path d="m9.5614 5.1591h-0.127l-0.08467 0.04233h-0.127l-0.04233 0.04233h-0.04233l-0.08467 0.04233h-0.04233l-0.04233 0.04233h-0.04233l-0.08467 0.04233-0.29631 0.29631v0.04233l-0.08466 0.08466v0.04233l-0.04233 0.08467v0.04233l-0.04233 0.04233v0.08467l-0.04233 0.04233v0.508l0.04233 0.04233v0.04233l0.04233 0.08467v0.04233l0.04233 0.04233v0.04233l0.04233 0.08467 0.04233 0.04233v0.04233l0.25398 0.25398h0.04233l0.08467 0.04233 0.04233 0.04233h0.04233l0.04233 0.04233 0.08467 0.04233h0.08467l0.08467 0.04233h0.46567l0.08467-0.04233h0.08467l0.08467-0.04233 0.04233-0.04233h0.04233l0.04233-0.04233 0.08467-0.04233h0.04233l0.25398-0.25398v-0.04233l0.04233-0.04233 0.04233-0.08467v-0.04233l0.08466-0.08466v-0.127l0.04233-0.04233v-0.508l-0.04233-0.04233v-0.127l-0.04233-0.04233-0.04233-0.08467v-0.04233l-0.08466-0.08466v-0.04233l-0.29631-0.29631-0.08467-0.04233h-0.04233l-0.04233-0.04233h-0.04233l-0.08467-0.04233h-0.04233l-0.04233-0.04233h-0.127l-0.08467-0.04233h-0.08467"/>
  <path d="m9.5614 8.1648h-0.21167l-0.04233 0.04233h-0.127l-0.04233 0.04233h-0.08467l-0.08466 0.08466h-0.04233l-0.08467 0.04233-0.08466 0.08466h-0.04233l-0.12699 0.12699-0.04233 0.08467v0.04233l-0.08466 0.08466v0.04233l-0.04233 0.04233v0.08467l-0.04233 0.04233v0.04233l-0.04233 0.08467v0.46567l0.04233 0.08467v0.04233l0.04233 0.04233v0.08467l0.04233 0.04233v0.04233l0.08466 0.08466v0.08467l0.16932 0.16932h0.04233l0.08466 0.08466 0.08467 0.04233 0.04233 0.04233h0.04233l0.04233 0.04233h0.08467l0.04233 0.04233h0.127l0.04233 0.04233h0.381l0.04233-0.04233h0.127l0.04233-0.04233h0.08467l0.04233-0.04233h0.04233l0.04233-0.04233 0.08467-0.04233 0.08466-0.08466h0.04233l0.16932-0.16932v-0.08467l0.08466-0.08466v-0.04233l0.04233-0.04233 0.04233-0.08467v-0.08467l0.04233-0.08467v-0.46567l-0.04233-0.08467v-0.08467l-0.04233-0.08467-0.04233-0.04233v-0.04233l-0.08466-0.08466v-0.04233l-0.04233-0.08467-0.12699-0.12699h-0.04233l-0.08466-0.08466-0.08467-0.04233h-0.04233l-0.08466-0.08466h-0.08467l-0.04233-0.04233h-0.127l-0.04233-0.04233h-0.16933"/>
  <path d="m9.5614 11.17h-0.254l-0.08467 0.04233h-0.04233l-0.04233 0.04233h-0.08467l-0.04233 0.04233h-0.04233l-0.04233 0.04233-0.08467 0.04233h-0.04233l-0.16932 0.16932-0.04233 0.042-0.04233 0.04233v0.04233l-0.04233 0.08467-0.04233 0.04233v0.04233l-0.04233 0.04233v0.08467l-0.04233 0.04233v0.04233l-0.04233 0.08467v0.46567l0.04233 0.04233v0.08467l0.04233 0.04233v0.04233l0.04233 0.08467v0.04233l0.08466 0.08466v0.04233l0.29631 0.29631 0.08467 0.04233h0.04233l0.08466 0.08466h0.127l0.04233 0.04233h0.127l0.08467 0.04233h0.21167l0.08467-0.04233h0.127l0.04233-0.04233h0.127l0.08466-0.08466h0.04233l0.08467-0.04233 0.29631-0.29631v-0.04233l0.08466-0.08466v-0.04233l0.04233-0.08467 0.04233-0.04233v-0.127l0.04233-0.04233v-0.46567l-0.04233-0.08467v-0.08467l-0.04233-0.08467-0.04233-0.04233v-0.04233l-0.04233-0.04233-0.04233-0.08467v-0.04233l-0.04233-0.04233-0.04233-0.042-0.16932-0.16932h-0.04233l-0.08467-0.04233-0.04233-0.04233h-0.04233l-0.04233-0.04233h-0.08467l-0.04233-0.04233h-0.04233l-0.08467-0.04233h-0.21167"/>
 </g>
 <path d="m9.5614 14.176h-0.33867l-0.04233 0.04233h-0.04233l-0.08467 0.04233h-0.04233l-0.08466 0.08466h-0.08467l-0.29631 0.29631v0.04233l-0.08466 0.08466v0.08467l-0.04233 0.04233v0.04233l-0.04233 0.08467v0.04233l-0.04233 0.04233v0.508l0.04233 0.04233v0.08467l0.04233 0.04233v0.04233l0.04233 0.04233v0.08467l0.08466 0.08466v0.04233l0.29631 0.29631h0.08467l0.08466 0.08466h0.04233l0.08467 0.04233h0.04233l0.04233 0.04233h0.635l0.04233-0.04233h0.04233l0.08467-0.04233h0.04233l0.08466-0.08466h0.08467l0.29631-0.29631v-0.04233l0.08466-0.08466v-0.08467l0.08466-0.08466v-0.127l0.04233-0.04233v-0.508l-0.04233-0.04233v-0.127l-0.08466-0.08466v-0.08467l-0.08466-0.08466v-0.04233l-0.29631-0.29631h-0.08467l-0.08466-0.08466h-0.04233l-0.08467-0.04233h-0.04233l-0.04233-0.04233h-0.29633" fill="#fff500" fill-rule="evenodd" stroke="#1f1a17" stroke-linecap="round" stroke-linejoin="round" stroke-miterlimit="10" stroke-width=".072813"/>
 <g fill="#848382" fill-rule="evenodd" stroke="#1f1a17" stroke-linecap="round" stroke-linejoin="round" stroke-miterlimit="10" stroke-width=".072813">
  <path d="m9.5614 17.139h-0.127l-0.08467 0.04233h-0.127l-0.04233 0.04233h-0.04233l-0.08467 0.04233h-0.04233l-0.04233 0.04233h-0.04233l-0.08467 0.04233-0.29631 0.29631v0.04233l-0.08466 0.08466v0.04233l-0.04233 0.08467v0.04233l-0.04233 0.04233v0.08467l-0.04233 0.04233v0.508l0.04233 0.04233v0.04233l0.04233 0.08467v0.04233l0.04233 0.04233v0.04233l0.04233 0.08467 0.04233 0.04233v0.04233l0.25398 0.25398h0.04233l0.08467 0.04233 0.04233 0.04233h0.04233l0.04233 0.04233 0.08467 0.04233h0.08467l0.08467 0.04233h0.46567l0.08467-0.04233h0.08467l0.08467-0.04233 0.04233-0.04233h0.04233l0.04233-0.04233 0.08467-0.04233h0.04233l0.25398-0.25398v-0.04233l0.04233-0.04233 0.04233-0.08467v-0.04233l0.08466-0.08466v-0.127l0.04233-0.04233v-0.508l-0.04233-0.04233v-0.127l-0.04233-0.04233-0.04233-0.08467v-0.04233l-0.08466-0.08466v-0.04233l-0.29631-0.29631-0.08467-0.04233h-0.04233l-0.04233-0.04233h-0.04233l-0.08467-0.04233h-0.04233l-0.04233-0.04233h-0.127l-0.08467-0.04233h-0.08467"/>
  <path d="m9.5614 23.15h-0.254l-0.08467 0.04233h-0.04233l-0.04233 0.04233h-0.08467l-0.04233 0.04233h-0.04233l-0.04233 0.04233-0.08467 0.04233h-0.04233l-0.25398 0.25398v0.04233l-0.04233 0.08467-0.04233 0.04233v0.04233l-0.04233 0.04233v0.04233l-0.04233 0.08467v0.04233l-0.04233 0.08467v0.46567l0.04233 0.04233v0.08467l0.04233 0.04233v0.04233l0.04233 0.08467v0.04233l0.08466 0.08466v0.04233l0.29631 0.29631 0.08467 0.04233h0.04233l0.08466 0.08466h0.127l0.04233 0.04233h0.127l0.08467 0.04233h0.21167l0.08467-0.04233h0.127l0.04233-0.04233h0.127l0.08466-0.08466h0.04233l0.08467-0.04233 0.29631-0.29631v-0.04233l0.08466-0.08466v-0.04233l0.04233-0.08467 0.04233-0.04233v-0.127l0.04233-0.04233v-0.46567l-0.04233-0.08467v-0.127l-0.08466-0.08466v-0.04233l-0.04233-0.04233-0.04233-0.08467v-0.04233l-0.25398-0.25398h-0.04233l-0.08467-0.04233-0.04233-0.04233h-0.04233l-0.04233-0.04233h-0.08467l-0.04233-0.04233h-0.04233l-0.08467-0.04233h-0.21167"/>
  <path d="m9.5614 26.156h-0.33867l-0.04233 0.04233h-0.04233l-0.08467 0.04233h-0.04233l-0.08466 0.08466h-0.08467l-0.29631 0.29631v0.04233l-0.08466 0.08466v0.08467l-0.04233 0.04233v0.04233l-0.04233 0.08467v0.04233l-0.04233 0.04233v0.508l0.04233 0.04233v0.04233l0.04233 0.08467v0.04233l0.04233 0.04233v0.08467l0.08466 0.08466v0.04233l0.29631 0.29631h0.08467l0.08466 0.08466h0.04233l0.08467 0.04233h0.04233l0.04233 0.04233h0.254l0.08467 0.04233 0.04233-0.04233h0.254l0.04233-0.04233h0.04233l0.08467-0.04233h0.04233l0.08466-0.08466h0.08467l0.29631-0.29631v-0.04233l0.08466-0.08466v-0.08467l0.08466-0.08466v-0.127l0.04233-0.04233v-0.508l-0.04233-0.04233v-0.127l-0.08466-0.08466v-0.08467l-0.08466-0.08466v-0.04233l-0.29631-0.29631h-0.08467l-0.08466-0.08466h-0.04233l-0.08467-0.04233h-0.04233l-0.04233-0.04233h-0.29633"/>
  <path d="m9.5614 20.145h-0.21167l-0.04233 0.04233h-0.127l-0.04233 0.04233h-0.08467l-0.04233 0.04233h-0.04233l-0.04233 0.04233-0.08467 0.04233-0.08466 0.08466h-0.04233l-0.12699 0.12699-0.04233 0.08467v0.04233l-0.08466 0.08466v0.04233l-0.04233 0.04233v0.08467l-0.04233 0.04233v0.04233l-0.04233 0.08467v0.46567l0.04233 0.08467v0.04233l0.04233 0.04233v0.08467l0.04233 0.04233v0.04233l0.08466 0.08466v0.08467l0.21165 0.21165h0.04233l0.04233 0.04233 0.08467 0.04233 0.04233 0.04233h0.04233l0.04233 0.04233h0.08467l0.04233 0.04233h0.127l0.04233 0.04233h0.381l0.04233-0.04233h0.127l0.04233-0.04233h0.08467l0.04233-0.04233h0.04233l0.04233-0.04233 0.08467-0.04233 0.04233-0.04233h0.04233l0.21165-0.21165v-0.08467l0.08466-0.08466v-0.04233l0.04233-0.04233 0.04233-0.08467v-0.08467l0.04233-0.08467v-0.46567l-0.04233-0.08467v-0.08467l-0.04233-0.08467-0.04233-0.04233v-0.04233l-0.08466-0.08466v-0.04233l-0.04233-0.08467-0.12699-0.12699h-0.04233l-0.08466-0.08466-0.08467-0.04233-0.04233-0.04233h-0.04233l-0.04233-0.04233h-0.08467l-0.04233-0.04233h-0.127l-0.04233-0.04233h-0.16933"/>
  <path d="m6.5134 2.1958h-0.29633l-0.08467 0.042333h-0.04233l-0.04233 0.042333h-0.08467l-0.08466 0.084666h-0.04233l-0.04233 0.042333-0.08467 0.042333-0.08466 0.084666v0.042333l-0.21165 0.21166v0.084667l-0.04233 0.042333v0.042333l-0.04233 0.084667v0.084667l-0.04233 0.084667v0.33867l0.04233 0.084667v0.084667l0.04233 0.084667v0.042333l0.04233 0.042333v0.084667l0.21165 0.21166v0.042333l0.08466 0.084666 0.08467 0.042333 0.04233 0.042333h0.04233l0.08466 0.084666h0.08467l0.04233 0.04233h0.04233l0.08467 0.04233h0.21167l0.08467 0.04233 0.04233-0.04233h0.254l0.04233-0.04233h0.08467l0.04233-0.04233h0.04233l0.04233-0.042333 0.08467-0.042333h0.04233l0.33864-0.33866v-0.042333l0.04233-0.042333 0.04233-0.084667v-0.042333l0.04233-0.042333v-0.084667l0.04233-0.042333v-0.59266l-0.04233-0.042333v-0.084667l-0.04233-0.042333v-0.042333l-0.04233-0.084667-0.04233-0.042333v-0.042333l-0.33864-0.33866h-0.04233l-0.08467-0.042333-0.04233-0.042333h-0.04233l-0.04233-0.042333h-0.08467l-0.04233-0.042333h-0.29633"/>
  <path d="m6.5134 5.1591h-0.127l-0.08467 0.04233h-0.08467l-0.08467 0.04233h-0.04233l-0.04233 0.04233h-0.08467l-0.04233 0.04233h-0.04233l-0.08466 0.08466-0.08467 0.04233-0.08466 0.08466v0.04233l-0.21165 0.21165v0.04233l-0.04233 0.08467v0.04233l-0.04233 0.04233v0.127l-0.04233 0.04233v0.381l0.04233 0.08467v0.08467l0.04233 0.08467v0.04233l0.04233 0.04233v0.04233l0.04233 0.08467 0.16932 0.16932v0.04233l0.08466 0.08466 0.08467 0.04233h0.04233l0.08466 0.08466h0.04233l0.08467 0.04233 0.04233 0.04233h0.127l0.04233 0.04233h0.508l0.04233-0.04233h0.127l0.08466-0.08466h0.04233l0.08467-0.04233 0.04233-0.04233h0.04233l0.29631-0.29631v-0.04233l0.04233-0.08467 0.04233-0.04233v-0.04233l0.04233-0.04233v-0.08467l0.04233-0.04233v-0.59267l-0.04233-0.08467v-0.04233l-0.04233-0.04233v-0.08467l-0.08466-0.08466v-0.04233l-0.38097-0.38097h-0.08467l-0.04233-0.04233h-0.04233l-0.04233-0.04233h-0.08467l-0.04233-0.04233h-0.127l-0.04233-0.04233h-0.127"/>
  <path d="m6.5134 8.1648h-0.21167l-0.04233 0.04233h-0.127l-0.04233 0.04233h-0.04233l-0.08467 0.04233-0.04233 0.04233h-0.04233l-0.08466 0.08466-0.08467 0.04233h-0.04233l-0.04233 0.04233v0.04233l-0.04233 0.04233-0.04233 0.08467-0.12699 0.12699v0.04233l-0.04233 0.04233v0.08467l-0.04233 0.04233v0.127l-0.04233 0.04233v0.381l0.04233 0.04233v0.127l0.04233 0.04233v0.08467l0.04233 0.04233v0.04233l0.08466 0.08466 0.04233 0.08467 0.08466 0.08466v0.04233l0.04233 0.04233h0.04233l0.08467 0.04233 0.12699 0.12699h0.04233l0.08467 0.04233h0.04233l0.04233 0.04233h0.127l0.04233 0.04233h0.381l0.08467-0.04233h0.08467l0.08467-0.04233h0.04233l0.04233-0.04233h0.04233l0.08467-0.04233 0.12699-0.12699h0.04233l0.16932-0.16932 0.04233-0.08467v-0.04233l0.08466-0.08466v-0.04233l0.04233-0.08467v-0.04233l0.04233-0.04233v-0.635l-0.04233-0.04233v-0.04233l-0.04233-0.08467v-0.04233l-0.08466-0.08466v-0.04233l-0.04233-0.04233-0.04233-0.08467-0.12699-0.12699h-0.04233l-0.12699-0.12699h-0.08467l-0.08466-0.08466h-0.04233l-0.08467-0.04233h-0.08467l-0.08467-0.04233h-0.16933"/>
  <path d="m6.5134 11.17h-0.254l-0.04233 0.04233h-0.08467l-0.04233 0.04233h-0.04233l-0.08467 0.04233h-0.04233l-0.08466 0.08466h-0.04233l-0.08467 0.04233-0.08466 0.08466v0.04233l-0.04233 0.042-0.08466 0.08466-0.04233 0.08467-0.04233 0.04233v0.04233l-0.04233 0.04233v0.08467l-0.04233 0.04233v0.127l-0.04233 0.04233v0.381l0.04233 0.04233v0.127l0.04233 0.04233v0.04233l0.04233 0.08467v0.04233l0.21165 0.21165v0.04233l0.08466 0.08466 0.08467 0.04233 0.08466 0.08466h0.04233l0.04233 0.04233 0.08467 0.04233h0.08467l0.08467 0.04233h0.08467l0.08467 0.04233h0.254l0.04233-0.04233h0.127l0.04233-0.04233h0.127l0.08466-0.08466h0.08467l0.38097-0.38097v-0.04233l0.08466-0.08466v-0.08467l0.04233-0.04233v-0.04233l0.04233-0.08467v-0.59267l-0.04233-0.04233v-0.04233l-0.04233-0.08467v-0.04233l-0.08466-0.08466v-0.08467l-0.08466-0.08466-0.04233-0.042-0.16932-0.16932h-0.04233l-0.04233-0.04233-0.08467-0.04233h-0.04233l-0.04233-0.04233h-0.04233l-0.08467-0.04233h-0.04233l-0.04233-0.04233h-0.254"/>
 </g>
 <path d="m6.5134 14.176h-0.29633l-0.08467 0.04233h-0.04233l-0.04233 0.04233h-0.08467l-0.08466 0.08466h-0.04233l-0.04233 0.04233-0.08467 0.04233-0.08466 0.08466v0.04233l-0.21165 0.21165v0.08467l-0.04233 0.04233v0.04233l-0.04233 0.08467v0.08467l-0.04233 0.08467v0.33867l0.04233 0.08467v0.127l0.04233 0.04233v0.04233l0.04233 0.04233v0.08467l0.21165 0.21165v0.04233l0.08466 0.08466 0.08467 0.04233 0.04233 0.04233h0.04233l0.08466 0.08466h0.08467l0.04233 0.04233h0.04233l0.08467 0.04233h0.59267l0.04233-0.04233h0.08467l0.04233-0.04233h0.04233l0.04233-0.04233 0.08467-0.04233h0.04233l0.33864-0.33864v-0.04233l0.04233-0.04233 0.04233-0.08467v-0.04233l0.04233-0.04233v-0.04233l0.04233-0.08467v-0.59267l-0.04233-0.04233v-0.08467l-0.04233-0.04233v-0.04233l-0.04233-0.08467-0.04233-0.04233v-0.04233l-0.33864-0.33864h-0.04233l-0.08467-0.04233-0.04233-0.04233h-0.04233l-0.04233-0.04233h-0.08467l-0.04233-0.04233h-0.29633" fill="#fff500" fill-rule="evenodd" stroke="#1f1a17" stroke-linecap="round" stroke-linejoin="round" stroke-miterlimit="10" stroke-width=".072813"/>
 <g fill="#848382" fill-rule="evenodd" stroke="#1f1a17" stroke-linecap="round" stroke-linejoin="round" stroke-miterlimit="10" stroke-width=".072813">
  <path d="m6.5134 17.139h-0.127l-0.08467 0.04233h-0.08467l-0.08467 0.04233h-0.04233l-0.04233 0.04233h-0.08467l-0.04233 0.04233h-0.04233l-0.08466 0.08466-0.08467 0.04233-0.08466 0.08466v0.04233l-0.21165 0.21165v0.04233l-0.04233 0.08467v0.04233l-0.04233 0.04233v0.127l-0.04233 0.04233v0.381l0.04233 0.08467v0.08467l0.04233 0.08467v0.04233l0.04233 0.04233v0.04233l0.04233 0.08467 0.16932 0.16932v0.04233l0.08466 0.08466 0.08467 0.04233h0.04233l0.08466 0.08466h0.04233l0.08467 0.04233 0.04233 0.04233h0.127l0.04233 0.04233h0.508l0.04233-0.04233h0.127l0.08466-0.08466h0.04233l0.08467-0.04233 0.04233-0.04233h0.04233l0.29631-0.29631v-0.04233l0.04233-0.08467 0.04233-0.04233v-0.04233l0.04233-0.04233v-0.08467l0.04233-0.04233v-0.59267l-0.04233-0.08467v-0.04233l-0.04233-0.04233v-0.08467l-0.08466-0.08466v-0.04233l-0.38097-0.38097h-0.08467l-0.04233-0.04233h-0.04233l-0.04233-0.04233h-0.08467l-0.04233-0.04233h-0.127l-0.04233-0.04233h-0.127"/>
  <path d="m6.5134 23.15h-0.254l-0.04233 0.04233h-0.08467l-0.04233 0.04233h-0.04233l-0.08467 0.04233h-0.04233l-0.08466 0.08466h-0.04233l-0.08467 0.04233-0.08466 0.08466v0.04233l-0.12699 0.12699-0.04233 0.08467-0.04233 0.04233v0.04233l-0.04233 0.04233v0.04233l-0.04233 0.08467v0.127l-0.04233 0.04233v0.381l0.04233 0.04233v0.127l0.04233 0.04233v0.04233l0.04233 0.08467v0.04233l0.21165 0.21165v0.04233l0.08466 0.08466 0.08467 0.04233 0.08466 0.08466h0.04233l0.04233 0.04233 0.08467 0.04233h0.08467l0.08467 0.04233h0.08467l0.08467 0.04233h0.254l0.04233-0.04233h0.127l0.04233-0.04233h0.127l0.08466-0.08466h0.08467l0.38097-0.38097v-0.04233l0.08466-0.08466v-0.08467l0.04233-0.04233v-0.04233l0.04233-0.08467v-0.59267l-0.04233-0.04233v-0.08467l-0.04233-0.04233v-0.04233l-0.08466-0.08466v-0.08467l-0.29631-0.29631h-0.04233l-0.04233-0.04233-0.08467-0.04233h-0.04233l-0.04233-0.04233h-0.04233l-0.08467-0.04233h-0.04233l-0.04233-0.04233h-0.254"/>
  <path d="m6.5134 26.156h-0.29633l-0.08467 0.04233h-0.04233l-0.04233 0.04233h-0.08467l-0.08466 0.08466h-0.04233l-0.04233 0.04233-0.08467 0.04233-0.08466 0.08466v0.04233l-0.21165 0.21165v0.08467l-0.04233 0.04233v0.04233l-0.04233 0.08467v0.08467l-0.04233 0.08467v0.33867l0.04233 0.08467v0.08467l0.04233 0.08467v0.04233l0.04233 0.04233v0.08467l0.21165 0.21165v0.04233l0.08466 0.08466 0.08467 0.04233 0.04233 0.04233h0.04233l0.08466 0.08466h0.08467l0.04233 0.04233h0.04233l0.08467 0.04233h0.21167l0.08467 0.04233 0.04233-0.04233h0.254l0.04233-0.04233h0.08467l0.04233-0.04233h0.04233l0.04233-0.04233 0.08467-0.04233h0.04233l0.33864-0.33864v-0.04233l0.04233-0.04233 0.04233-0.08467v-0.04233l0.04233-0.04233v-0.08467l0.04233-0.04233v-0.59267l-0.04233-0.04233v-0.08467l-0.04233-0.04233v-0.04233l-0.04233-0.08467-0.04233-0.04233v-0.04233l-0.33864-0.33864h-0.04233l-0.08467-0.04233-0.04233-0.04233h-0.04233l-0.04233-0.04233h-0.08467l-0.04233-0.04233h-0.29633"/>
  <path d="m6.5134 20.145h-0.21167l-0.04233 0.04233h-0.127l-0.04233 0.04233h-0.04233l-0.08467 0.04233h-0.04233l-0.12699 0.12699-0.08467 0.04233h-0.04233l-0.04233 0.04233v0.04233l-0.04233 0.04233-0.04233 0.08467-0.12699 0.12699v0.04233l-0.04233 0.04233v0.08467l-0.04233 0.04233v0.127l-0.04233 0.04233v0.381l0.04233 0.04233v0.127l0.04233 0.04233v0.08467l0.04233 0.04233v0.04233l0.08466 0.08466 0.04233 0.08467 0.08466 0.08466v0.04233l0.08466 0.08466h0.08467l0.12699 0.12699h0.04233l0.08467 0.04233h0.04233l0.04233 0.04233h0.127l0.04233 0.04233h0.381l0.08467-0.04233h0.08467l0.08467-0.04233h0.04233l0.04233-0.04233h0.04233l0.08467-0.04233 0.08466-0.08466h0.04233l0.21165-0.21165 0.04233-0.08467v-0.04233l0.08466-0.08466v-0.04233l0.04233-0.08467v-0.04233l0.04233-0.04233v-0.635l-0.04233-0.04233v-0.04233l-0.04233-0.08467v-0.04233l-0.08466-0.08466v-0.04233l-0.04233-0.04233-0.04233-0.08467-0.12699-0.12699h-0.04233l-0.12699-0.12699-0.08467-0.04233h-0.04233l-0.04233-0.04233h-0.04233l-0.08467-0.04233h-0.08467l-0.08467-0.04233h-0.16933"/>
 </g>
 <g fill="#fff500" fill-rule="evenodd" stroke="#1f1a17" stroke-linecap="round" stroke-linejoin="round" stroke-miterlimit="10" stroke-width=".072813">
  <path d="m3.4654 2.1958h-0.29633l-0.08467 0.042333h-0.04233l-0.04233 0.042333h-0.04233l-0.08467 0.042333-0.04233 0.042333h-0.04233l-0.38097 0.381v0.042333l-0.04233 0.084667v0.042333l-0.04233 0.042333v0.084667l-0.04233 0.042333v0.127l-0.04233 0.042333v0.254l0.04233 0.042333v0.127l0.04233 0.042333v0.084667l0.04233 0.042333v0.042333l0.04233 0.084667v0.042333l0.38097 0.381h0.04233l0.04233 0.042333 0.08467 0.042333h0.04233l0.04233 0.04233h0.04233l0.08467 0.04233h0.254l0.04233 0.04233 0.04233-0.04233h0.254l0.08467-0.04233h0.04233l0.04233-0.04233h0.04233l0.08467-0.042333 0.04233-0.042333h0.04233l0.38097-0.381v-0.042333l0.04233-0.084667v-0.042333l0.04233-0.042333v-0.084667l0.04233-0.042333v-0.127l0.04233-0.042333v-0.254l-0.04233-0.042333v-0.127l-0.04233-0.042333v-0.084667l-0.04233-0.042333v-0.042333l-0.04233-0.084667v-0.042333l-0.38097-0.381h-0.04233l-0.04233-0.042333-0.08467-0.042333h-0.04233l-0.04233-0.042333h-0.04233l-0.08467-0.042333h-0.29633"/>
  <path d="m3.4654 5.1591h-0.127l-0.04233 0.04233h-0.127l-0.08467 0.04233h-0.04233l-0.04233 0.04233h-0.04233l-0.08467 0.04233h-0.04233l-0.4233 0.4233v0.04233l-0.04233 0.04233v0.08467l-0.04233 0.04233v0.04233l-0.04233 0.08467v0.08467l-0.04233 0.08467v0.254l0.04233 0.04233v0.127l0.04233 0.04233v0.08467l0.04233 0.04233v0.04233l0.04233 0.04233v0.08467l0.33864 0.33864h0.04233l0.08466 0.08466h0.08467l0.08466 0.08466h0.127l0.04233 0.04233h0.508l0.04233-0.04233h0.127l0.08466-0.08466h0.08467l0.08466-0.08466h0.04233l0.33864-0.33864v-0.08467l0.04233-0.04233v-0.04233l0.04233-0.04233v-0.08467l0.04233-0.04233v-0.127l0.04233-0.04233v-0.254l-0.04233-0.08467v-0.08467l-0.04233-0.08467v-0.04233l-0.04233-0.04233v-0.08467l-0.04233-0.04233v-0.04233l-0.4233-0.4233h-0.04233l-0.08467-0.04233h-0.04233l-0.04233-0.04233h-0.04233l-0.08467-0.04233h-0.127l-0.04233-0.04233h-0.127"/>
  <path d="m3.4654 8.1648h-0.16933l-0.08467 0.04233h-0.127l-0.04233 0.04233h-0.04233l-0.04233 0.04233-0.08467 0.04233h-0.04233l-0.12699 0.12699h-0.04233l-0.12699 0.12699-0.04233 0.08467-0.08466 0.08466v0.04233l-0.04233 0.04233v0.04233l-0.04233 0.08467v0.04233l-0.04233 0.04233v0.127l-0.04233 0.08467v0.21167l0.04233 0.08467v0.127l0.04233 0.04233v0.04233l0.04233 0.08467v0.04233l0.04233 0.04233v0.04233l0.04233 0.04233 0.04233 0.08467 0.16932 0.16932h0.04233l0.16932 0.16932h0.08467l0.04233 0.04233h0.04233l0.04233 0.04233h0.127l0.08467 0.04233h0.33867l0.08467-0.04233h0.127l0.04233-0.04233h0.04233l0.04233-0.04233h0.08467l0.16932-0.16932h0.04233l0.16932-0.16932 0.04233-0.08467 0.04233-0.04233v-0.04233l0.04233-0.04233v-0.04233l0.04233-0.08467v-0.04233l0.04233-0.04233v-0.127l0.04233-0.08467v-0.21167l-0.04233-0.08467v-0.127l-0.04233-0.04233v-0.04233l-0.04233-0.08467v-0.04233l-0.04233-0.04233v-0.04233l-0.08466-0.08466-0.04233-0.08467-0.12699-0.12699h-0.04233l-0.12699-0.12699h-0.04233l-0.08467-0.04233-0.04233-0.04233h-0.04233l-0.04233-0.04233h-0.127l-0.08467-0.04233h-0.16933"/>
  <path d="m3.4654 11.17h-0.254l-0.04233 0.04233h-0.08467l-0.04233 0.04233h-0.04233l-0.04233 0.04233h-0.08467l-0.08466 0.08466h-0.04233l-0.16932 0.16932-0.04233 0.042-0.08466 0.08466-0.04233 0.08467v0.04233l-0.04233 0.04233v0.04233l-0.04233 0.08467v0.04233l-0.04233 0.04233v0.127l-0.04233 0.04233v0.254l0.04233 0.08467v0.08467l0.04233 0.08467v0.04233l0.04233 0.04233v0.08467l0.04233 0.04233v0.04233l0.4233 0.4233h0.04233l0.08467 0.04233 0.04233 0.04233h0.08467l0.08467 0.04233h0.127l0.04233 0.04233h0.254l0.04233-0.04233h0.127l0.08467-0.04233h0.08467l0.04233-0.04233 0.08467-0.04233h0.04233l0.4233-0.4233v-0.04233l0.04233-0.04233v-0.08467l0.04233-0.04233v-0.04233l0.04233-0.08467v-0.08467l0.04233-0.08467v-0.254l-0.04233-0.04233v-0.127l-0.04233-0.04233v-0.04233l-0.04233-0.08467v-0.04233l-0.04233-0.04233v-0.04233l-0.04233-0.08467-0.08466-0.08466-0.04233-0.042-0.16932-0.16932h-0.04233l-0.08466-0.08466h-0.08467l-0.04233-0.04233h-0.04233l-0.04233-0.04233h-0.08467l-0.04233-0.04233h-0.254"/>
  <path d="m3.4654 14.176h-0.29633l-0.08467 0.04233h-0.04233l-0.04233 0.04233h-0.04233l-0.08467 0.04233-0.04233 0.04233h-0.04233l-0.38097 0.38097v0.04233l-0.04233 0.08467v0.04233l-0.04233 0.04233v0.08467l-0.04233 0.04233v0.127l-0.04233 0.04233v0.254l0.04233 0.04233v0.127l0.04233 0.08467v0.04233l0.04233 0.04233v0.04233l0.04233 0.08467v0.04233l0.38097 0.38097h0.04233l0.04233 0.04233 0.08467 0.04233h0.04233l0.04233 0.04233h0.04233l0.08467 0.04233h0.59267l0.08467-0.04233h0.04233l0.04233-0.04233h0.04233l0.08467-0.04233 0.04233-0.04233h0.04233l0.38097-0.38097v-0.04233l0.04233-0.08467v-0.04233l0.04233-0.04233v-0.04233l0.04233-0.08467v-0.127l0.04233-0.04233v-0.254l-0.04233-0.04233v-0.127l-0.04233-0.04233v-0.08467l-0.04233-0.04233v-0.04233l-0.04233-0.08467v-0.04233l-0.38097-0.38097h-0.04233l-0.04233-0.04233-0.08467-0.04233h-0.04233l-0.04233-0.04233h-0.04233l-0.08467-0.04233h-0.29633"/>
  <path d="m3.4654 17.139h-0.127l-0.04233 0.04233h-0.127l-0.08467 0.04233h-0.04233l-0.04233 0.04233h-0.04233l-0.08467 0.04233h-0.04233l-0.4233 0.4233v0.04233l-0.04233 0.04233v0.08467l-0.04233 0.04233v0.04233l-0.04233 0.08467v0.08467l-0.04233 0.08467v0.254l0.04233 0.04233v0.127l0.04233 0.04233v0.08467l0.04233 0.04233v0.04233l0.04233 0.04233v0.08467l0.33864 0.33864h0.04233l0.08466 0.08466h0.08467l0.08466 0.08466h0.127l0.04233 0.04233h0.508l0.04233-0.04233h0.127l0.08466-0.08466h0.08467l0.08466-0.08466h0.04233l0.33864-0.33864v-0.08467l0.04233-0.04233v-0.04233l0.04233-0.04233v-0.08467l0.04233-0.04233v-0.127l0.04233-0.04233v-0.254l-0.04233-0.08467v-0.08467l-0.04233-0.08467v-0.04233l-0.04233-0.04233v-0.08467l-0.04233-0.04233v-0.04233l-0.4233-0.4233h-0.04233l-0.08467-0.04233h-0.04233l-0.04233-0.04233h-0.04233l-0.08467-0.04233h-0.127l-0.04233-0.04233h-0.127"/>
  <path d="m3.4654 23.15h-0.254l-0.04233 0.04233h-0.08467l-0.04233 0.04233h-0.04233l-0.04233 0.04233h-0.08467l-0.08466 0.08466h-0.04233l-0.29631 0.29631-0.04233 0.08467v0.04233l-0.04233 0.04233v0.04233l-0.04233 0.04233v0.08467l-0.04233 0.04233v0.127l-0.04233 0.04233v0.254l0.04233 0.08467v0.08467l0.04233 0.08467v0.04233l0.04233 0.04233v0.08467l0.04233 0.04233v0.04233l0.4233 0.4233h0.04233l0.08467 0.04233 0.04233 0.04233h0.08467l0.08467 0.04233h0.127l0.04233 0.04233h0.254l0.04233-0.04233h0.127l0.08467-0.04233h0.08467l0.04233-0.04233 0.08467-0.04233h0.04233l0.4233-0.4233v-0.04233l0.04233-0.04233v-0.08467l0.04233-0.04233v-0.04233l0.04233-0.08467v-0.08467l0.04233-0.08467v-0.254l-0.04233-0.04233v-0.127l-0.04233-0.04233v-0.08467l-0.04233-0.04233v-0.04233l-0.04233-0.04233v-0.04233l-0.04233-0.08467-0.29631-0.29631h-0.04233l-0.08466-0.08466h-0.08467l-0.04233-0.04233h-0.04233l-0.04233-0.04233h-0.08467l-0.04233-0.04233h-0.254"/>
  <path d="m3.4654 26.156h-0.29633l-0.08467 0.04233h-0.04233l-0.04233 0.04233h-0.04233l-0.08467 0.04233-0.04233 0.04233h-0.04233l-0.38097 0.38097v0.04233l-0.04233 0.08467v0.04233l-0.04233 0.04233v0.08467l-0.04233 0.04233v0.127l-0.04233 0.04233v0.254l0.04233 0.04233v0.127l0.04233 0.04233v0.08467l0.04233 0.04233v0.04233l0.04233 0.08467v0.04233l0.38097 0.38097h0.04233l0.04233 0.04233 0.08467 0.04233h0.04233l0.04233 0.04233h0.04233l0.08467 0.04233h0.254l0.04233 0.04233 0.04233-0.04233h0.254l0.08467-0.04233h0.04233l0.04233-0.04233h0.04233l0.08467-0.04233 0.04233-0.04233h0.04233l0.38097-0.38097v-0.04233l0.04233-0.08467v-0.04233l0.04233-0.04233v-0.08467l0.04233-0.04233v-0.127l0.04233-0.04233v-0.254l-0.04233-0.04233v-0.127l-0.04233-0.04233v-0.08467l-0.04233-0.04233v-0.04233l-0.04233-0.08467v-0.04233l-0.38097-0.38097h-0.04233l-0.04233-0.04233-0.08467-0.04233h-0.04233l-0.04233-0.04233h-0.04233l-0.08467-0.04233h-0.29633"/>
  <path d="m3.4654 20.145h-0.16933l-0.08467 0.04233h-0.127l-0.04233 0.04233h-0.04233l-0.04233 0.04233h-0.08467l-0.16932 0.16932h-0.04233l-0.12699 0.12699-0.04233 0.08467-0.08466 0.08466v0.04233l-0.04233 0.04233v0.04233l-0.04233 0.08467v0.04233l-0.04233 0.04233v0.127l-0.04233 0.08467v0.21167l0.04233 0.08467v0.127l0.04233 0.04233v0.04233l0.04233 0.08467v0.04233l0.04233 0.04233v0.04233l0.04233 0.04233 0.04233 0.08467 0.21165 0.21165h0.04233l0.12699 0.12699h0.08467l0.04233 0.04233h0.04233l0.04233 0.04233h0.127l0.08467 0.04233h0.33867l0.08467-0.04233h0.127l0.04233-0.04233h0.04233l0.04233-0.04233h0.08467l0.12699-0.12699h0.04233l0.21165-0.21165 0.04233-0.08467 0.04233-0.04233v-0.04233l0.04233-0.04233v-0.04233l0.04233-0.08467v-0.04233l0.04233-0.04233v-0.127l0.04233-0.08467v-0.21167l-0.04233-0.08467v-0.127l-0.04233-0.04233v-0.04233l-0.04233-0.08467v-0.04233l-0.04233-0.04233v-0.04233l-0.08466-0.08466-0.04233-0.08467-0.12699-0.12699h-0.04233l-0.16932-0.16932h-0.08467l-0.04233-0.04233h-0.04233l-0.04233-0.04233h-0.127l-0.08467-0.04233h-0.16933"/>
 </g>
</svg>
