<?xml version="1.0" encoding="UTF-8"?>
<!-- Created with Inkscape (http://www.inkscape.org/) -->
<svg width="18.02mm" height="25.429mm" version="1.1" viewBox="0 0 18.02 25.429" xmlns="http://www.w3.org/2000/svg">
 <g transform="translate(-13.229 -185.21)" fill-rule="evenodd" stroke="#1f1a17" stroke-linecap="round" stroke-linejoin="round" stroke-miterlimit="10" stroke-width=".07112">
  <path d="m13.264 210.6h17.949v-25.358h-17.949z" fill="#848382"/>
  <g fill="#fff">
   <path d="m15.296 189.56-0.04233 0.0423v0.0423l-0.16932 0.1692v0.0423l-0.04233 0.0847v0.0423l-0.04233 0.0423v0.0847l-0.04233 0.0423v0.381l0.04233 0.0423v0.0847l0.04233 0.0423v0.0423l0.04233 0.0423v0.0423l0.08466 0.0846v0.0423l0.16932 0.1692h0.04233l0.08466 0.0846h0.04233l0.04233 0.0423h0.04233l0.04233 0.0423h0.127l0.04233 0.0423h0.254l0.04233-0.0423h0.127l0.04233-0.0423h0.04233l0.04233-0.0423h0.04233l0.04233-0.0423h0.04233l0.12699-0.1269h0.04233l0.08466-0.0846v-0.0423l0.04233-0.0423v-0.0423l0.04233-0.0423v-0.0423l0.04233-0.0423v-0.0423l0.04233-0.0423v-0.21166l0.04233-0.0423v-0.0423l-0.04233-0.0423v-0.254l-0.04233-0.0423v-0.0423l-0.04233-0.0423v-0.0423l-0.04233-0.0423v-0.0423l-0.29631-0.2961h-0.04233l-0.04233-0.0423h-0.04233l-0.04233-0.0423h-0.08467l-0.04233-0.0423h-0.508l-0.04233 0.0423h-0.08467l-0.08466 0.0846h-0.04233l-0.04233 0.0423h-0.04233l-0.04233 0.0423"/>
   <path d="m16.863 191.47v0.0423l-0.08466 0.0846h-0.04233l-0.04233 0.0423v0.0423l-0.04233 0.0423v0.0423l-0.04233 0.0423v0.0423l-0.04233 0.0423v0.16934l-0.04233 0.0423v0.29633l0.04233 0.0423v0.0847l0.04233 0.0423v0.0847l0.08466 0.0846v0.0423l0.08466 0.0846v0.0423l0.12699 0.1269h0.04233l0.04233 0.0423h0.04233l0.08466 0.0846h0.08467l0.04233 0.0423h0.16933l0.08467 0.0423h0.08467l0.04233-0.0423h0.16933l0.04233-0.0423h0.04233l0.04233-0.0423h0.08467l0.04233-0.0423h0.04233v-0.0423l0.12699-0.1269h0.04233l0.04233-0.0423v-0.0423l0.08466-0.0846v-0.0423l0.04233-0.0423v-0.0847l0.04233-0.0423v-0.127l0.04233-0.0423v-0.21167l-0.04233-0.0847v-0.127l-0.04233-0.0423v-0.0423l-0.04233-0.0423v-0.0423l-0.04233-0.0423v-0.0423l-0.12699-0.1269v-0.0423l-0.04233-0.0423h-0.04233l-0.08466-0.0846h-0.04233l-0.04233-0.0423h-0.04233l-0.04233-0.0423h-0.04233l-0.04233-0.0423h-0.508l-0.04233 0.0423h-0.127l-0.04233 0.0423h-0.04233l-0.08466 0.0846h-0.04233l-0.04233 0.0423"/>
   <path d="m18.471 193.37-0.04233 0.0423h-0.04233l-0.08466 0.0846v0.0423l-0.08466 0.0846v0.0423l-0.04233 0.0423v0.0847l-0.04233 0.0423v0.16933l-0.04233 0.0423v0.16934l0.04233 0.0423v0.16933l0.04233 0.0423v0.0423l0.04233 0.0423v0.0423l0.04233 0.0423v0.0423l0.12699 0.1269v0.0423l0.04233 0.0423h0.04233l0.08466 0.0846h0.04233l0.04233 0.0423h0.04233l0.04233 0.0423h0.04233l0.04233 0.0423h0.508l0.04233-0.0423h0.127l0.04233-0.0423h0.04233l0.08466-0.0846h0.04233l0.08466-0.0846v-0.0423l0.08466-0.0846h0.04233v-0.0423l0.04233-0.0423v-0.0423l0.04233-0.0423v-0.0423l0.04233-0.0847v-0.0847l0.04233-0.0423v-0.33866l-0.04233-0.0423v-0.127l-0.04233-0.0423v-0.0423l-0.04233-0.0423v-0.0423l-0.12699-0.1269v-0.0423l-0.12699-0.1269h-0.04233l-0.08466-0.0846h-0.04233l-0.04233-0.0423h-0.08467l-0.04233-0.0423h-0.127l-0.04233-0.0423h-0.21167l-0.04233 0.0423h-0.127l-0.04233 0.0423h-0.04233l-0.04233 0.0423h-0.04233l-0.04233 0.0423h-0.04233l-0.08466 0.0846"/>
   <path d="m20.038 195.28h-0.04233l-0.08466 0.0846v0.0423l-0.08466 0.0846v0.0423l-0.04233 0.0423v0.0423l-0.04233 0.0423v0.0423l-0.04233 0.0423v0.55033l0.04233 0.0423v0.0847l0.04233 0.0423v0.0423l0.08466 0.0846v0.0423l0.25398 0.2538h0.04233l0.04233 0.0423h0.04233l0.04233 0.0423h0.08467l0.08467 0.0423h0.46567l0.04233-0.0423h0.04233l0.04233-0.0423h0.04233l0.04233-0.0423h0.04233l0.04233-0.0423h0.04233l0.12699-0.1269v-0.0423l0.08466-0.0846v-0.0423l0.08466-0.0846v-0.0847l0.04233-0.0423v-0.0847l0.04233-0.0423v-0.381l-0.04233-0.0423v-0.0847l-0.04233-0.0423v-0.0423l-0.04233-0.0423v-0.0847l-0.04233-0.0423h-0.04233v-0.0423l-0.16932-0.1692h-0.04233l-0.08466-0.0846h-0.04233l-0.04233-0.0423h-0.04233l-0.04233-0.0423h-0.127l-0.04233-0.0423h-0.29633l-0.04233 0.0423h-0.08467l-0.04233 0.0423h-0.08467l-0.08466 0.0846h-0.04233l-0.08466 0.0846"/>
   <path d="m21.604 197.14-0.08466 0.0846v0.0423l-0.12699 0.1269v0.0423l-0.04233 0.0423v0.0423l-0.04233 0.0423v0.0847l-0.04233 0.0423v0.46567l0.04233 0.0423v0.0847l0.04233 0.0423v0.0423l0.04233 0.0423v0.0423l0.04233 0.0423v0.0423l0.08466 0.0846h0.04233l0.08466 0.0846v0.0423h0.04233l0.04233 0.0423h0.04233l0.04233 0.0423h0.04233l0.08467 0.0423h0.08467l0.04233 0.0423h0.381l0.04233-0.0423h0.08467l0.04233-0.0423h0.04233l0.04233-0.0423h0.04233l0.08466-0.0846h0.04233l0.12699-0.1269v-0.0423l0.08466-0.0846v-0.0423l0.04233-0.0423v-0.0423l0.04233-0.0423v-0.0847l0.04233-0.0423v-0.46567l-0.04233-0.0423v-0.127l-0.08466-0.0846v-0.0423l-0.04233-0.0423v-0.0423l-0.08466-0.0846h-0.04233l-0.08466-0.0846v-0.0423h-0.04233l-0.04233-0.0423h-0.04233l-0.04233-0.0423h-0.04233l-0.04233-0.0423h-0.127l-0.04233-0.0423h-0.381l-0.04233 0.0423h-0.08467l-0.04233 0.0423h-0.04233l-0.04233 0.0423h-0.04233l-0.08466 0.0846h-0.04233"/>
   <path d="m23.17 199.04-0.08466 0.0846v0.0423l-0.08466 0.0846v0.0423l-0.08466 0.0846v0.0847l-0.04233 0.0423v0.0847l-0.04233 0.0423v0.381l0.04233 0.0423v0.0847l0.04233 0.0423v0.0847l0.04233 0.0423v0.0423l0.29631 0.2961h0.04233l0.04233 0.0423h0.04233l0.04233 0.0423h0.04233l0.04233 0.0423h0.08467l0.04233 0.0423h0.33867l0.04233-0.0423h0.127l0.04233-0.0423h0.04233l0.08466-0.0846h0.04233l0.08466-0.0846h0.04233l0.08466-0.0846v-0.0423l0.08466-0.0846v-0.0423l0.04233-0.0423v-0.0423l0.04233-0.0423v-0.0423l0.04233-0.0423v-0.254l0.04233-0.0423-0.04233-0.0423v-0.16934l-0.04233-0.0847v-0.0847l-0.04233-0.0423v-0.0423l-0.04233-0.0423v-0.0423l-0.25398-0.2538h-0.04233l-0.08466-0.0846h-0.04233l-0.04233-0.0423h-0.08467l-0.04233-0.0423h-0.42333l-0.08467 0.0423h-0.08467l-0.04233 0.0423h-0.04233l-0.04233 0.0423h-0.04233l-0.08466 0.0846h-0.04233"/>
   <path d="m26.345 202.85-0.12699 0.1269h-0.04233v0.0423l-0.08466 0.0846v0.0423l-0.04233 0.0423v0.0847l-0.04233 0.0847v0.127l-0.04233 0.0423v0.16934l0.04233 0.0847v0.127l0.04233 0.0423v0.0423l0.04233 0.0423v0.0423l0.04233 0.0423v0.0423l0.12699 0.1269v0.0423l0.04233 0.0423h0.04233l0.08466 0.0846h0.04233l0.04233 0.0423h0.04233l0.04233 0.0423h0.04233l0.04233 0.0423h0.21167l0.04233 0.0423h0.08467l0.04233-0.0423h0.16933l0.08467-0.0423h0.04233l0.04233-0.0423h0.04233l0.04233-0.0423h0.04233l0.08466-0.0846v-0.0423l0.04233-0.0423h0.04233l0.08466-0.0846v-0.0423l0.04233-0.0423v-0.0423l0.04233-0.0423v-0.0423l0.04233-0.0423v-0.127l0.04233-0.0423v-0.33866l-0.04233-0.0423v-0.127l-0.04233-0.0423v-0.0423l-0.04233-0.0423v-0.0423l-0.12699-0.1269v-0.0423l-0.08466-0.0846h-0.04233l-0.08466-0.0846h-0.04233l-0.04233-0.0423h-0.04233l-0.04233-0.0423h-0.04233l-0.04233-0.0423h-0.16933l-0.04233-0.0423h-0.08467l-0.04233 0.0423h-0.16933l-0.04233 0.0423h-0.08467l-0.04233 0.0423h-0.04233l-0.08466 0.0846h-0.04233l-0.04233 0.0423"/>
   <path d="m27.912 204.76-0.04233 0.0423h-0.04233l-0.04233 0.0423v0.0423l-0.08466 0.0846v0.0423l-0.04233 0.0423v0.0423l-0.04233 0.0423v0.0423l-0.04233 0.0423v0.55033l0.04233 0.0423v0.0847l0.04233 0.0423v0.0423l0.08466 0.0846v0.0423l0.12699 0.1269v0.0423h0.04233l0.08466 0.0846h0.04233l0.04233 0.0423h0.04233l0.04233 0.0423h0.04233l0.04233 0.0423h0.55033l0.04233-0.0423h0.08467l0.04233-0.0423h0.04233l0.08466-0.0846h0.04233l0.12699-0.1269v-0.0423l0.04233-0.0423h0.04233v-0.0423l0.08466-0.0846v-0.0847l0.04233-0.0847v-0.0847l0.04233-0.0423v-0.381l-0.04233-0.0423v-0.0847l-0.04233-0.0423v-0.0423l-0.04233-0.0423v-0.0423l-0.08466-0.0846v-0.0423l-0.16932-0.1692h-0.04233l-0.08466-0.0846h-0.04233l-0.04233-0.0423h-0.08467l-0.04233-0.0423h-0.127l-0.04233-0.0423h-0.21167l-0.04233 0.0423h-0.127l-0.04233 0.0423h-0.04233l-0.04233 0.0423h-0.04233l-0.04233 0.0423h-0.04233l-0.08466 0.0846"/>
   <path d="m24.737 200.95v0.0423l-0.21165 0.2115v0.0423l-0.04233 0.0423v0.0847l-0.04233 0.0423v0.127l-0.04233 0.0423v0.29633l0.04233 0.0423v0.0847l0.04233 0.0423v0.0847l0.08466 0.0846v0.0423l0.08466 0.0846v0.0423l0.12699 0.1269h0.04233l0.08466 0.0846h0.04233l0.04233 0.0423h0.04233l0.04233 0.0423h0.127l0.04233 0.0423h0.254l0.04233-0.0423h0.127l0.04233-0.0423h0.04233l0.04233-0.0423h0.04233l0.04233-0.0423h0.08467v-0.0423l0.08466-0.0846h0.04233l0.08466-0.0846v-0.0423l0.08466-0.0846v-0.0423l0.04233-0.0423v-0.0847l0.04233-0.0423v-0.16933l0.04233-0.0423v-0.16934l-0.04233-0.0423v-0.16933l-0.04233-0.0423v-0.0423l-0.04233-0.0423v-0.0423l-0.04233-0.0423v-0.0423l-0.12699-0.1269v-0.0423l-0.04233-0.0423h-0.04233l-0.08466-0.0846h-0.04233l-0.04233-0.0423h-0.04233l-0.04233-0.0423h-0.08467l-0.04233-0.0423h-0.46567l-0.04233 0.0423h-0.127l-0.04233 0.0423h-0.04233l-0.08466 0.0846h-0.04233l-0.04233 0.0423"/>
   <path d="m15.296 189.56-0.04233 0.0423v0.0423l-0.16932 0.1692v0.0423l-0.04233 0.0847v0.0423l-0.04233 0.0423v0.0847l-0.04233 0.0423v0.381l0.04233 0.0423v0.0847l0.04233 0.0423v0.0423l0.04233 0.0423v0.0423l0.08466 0.0846v0.0423l0.16932 0.1692h0.04233l0.08466 0.0846h0.04233l0.04233 0.0423h0.04233l0.04233 0.0423h0.127l0.04233 0.0423h0.254l0.04233-0.0423h0.127l0.04233-0.0423h0.04233l0.04233-0.0423h0.04233l0.04233-0.0423h0.04233l0.12699-0.1269h0.04233l0.08466-0.0846v-0.0423l0.04233-0.0423v-0.0423l0.04233-0.0423v-0.0423l0.04233-0.0423v-0.0423l0.04233-0.0423v-0.21166l0.04233-0.0423v-0.0423l-0.04233-0.0423v-0.254l-0.04233-0.0423v-0.0423l-0.04233-0.0423v-0.0423l-0.04233-0.0423v-0.0423l-0.29631-0.2961h-0.04233l-0.04233-0.0423h-0.04233l-0.04233-0.0423h-0.08467l-0.04233-0.0423h-0.508l-0.04233 0.0423h-0.08467l-0.08466 0.0846h-0.04233l-0.04233 0.0423h-0.04233l-0.04233 0.0423"/>
   <path d="m16.863 191.47v0.0423l-0.08466 0.0846h-0.04233l-0.04233 0.0423v0.0423l-0.04233 0.0423v0.0423l-0.04233 0.0423v0.0423l-0.04233 0.0423v0.16934l-0.04233 0.0423v0.29633l0.04233 0.0423v0.0847l0.04233 0.0423v0.0847l0.08466 0.0846v0.0423l0.08466 0.0846v0.0423l0.12699 0.1269h0.04233l0.04233 0.0423h0.04233l0.08466 0.0846h0.08467l0.04233 0.0423h0.16933l0.08467 0.0423h0.08467l0.04233-0.0423h0.16933l0.04233-0.0423h0.04233l0.04233-0.0423h0.08467l0.04233-0.0423h0.04233v-0.0423l0.12699-0.1269h0.04233l0.04233-0.0423v-0.0423l0.08466-0.0846v-0.0423l0.04233-0.0423v-0.0847l0.04233-0.0423v-0.127l0.04233-0.0423v-0.21167l-0.04233-0.0847v-0.127l-0.04233-0.0423v-0.0423l-0.04233-0.0423v-0.0423l-0.04233-0.0423v-0.0423l-0.12699-0.1269v-0.0423l-0.04233-0.0423h-0.04233l-0.08466-0.0846h-0.04233l-0.04233-0.0423h-0.04233l-0.04233-0.0423h-0.04233l-0.04233-0.0423h-0.508l-0.04233 0.0423h-0.127l-0.04233 0.0423h-0.04233l-0.08466 0.0846h-0.04233l-0.04233 0.0423"/>
   <path d="m18.471 193.37-0.04233 0.0423h-0.04233l-0.08466 0.0846v0.0423l-0.08466 0.0846v0.0423l-0.04233 0.0423v0.0847l-0.04233 0.0423v0.16933l-0.04233 0.0423v0.16934l0.04233 0.0423v0.16933l0.04233 0.0423v0.0423l0.04233 0.0423v0.0423l0.04233 0.0423v0.0423l0.12699 0.1269v0.0423l0.04233 0.0423h0.04233l0.08466 0.0846h0.04233l0.04233 0.0423h0.04233l0.04233 0.0423h0.04233l0.04233 0.0423h0.508l0.04233-0.0423h0.127l0.04233-0.0423h0.04233l0.08466-0.0846h0.04233l0.08466-0.0846v-0.0423l0.08466-0.0846h0.04233v-0.0423l0.04233-0.0423v-0.0423l0.04233-0.0423v-0.0423l0.04233-0.0847v-0.0847l0.04233-0.0423v-0.33866l-0.04233-0.0423v-0.127l-0.04233-0.0423v-0.0423l-0.04233-0.0423v-0.0423l-0.12699-0.1269v-0.0423l-0.12699-0.1269h-0.04233l-0.08466-0.0846h-0.04233l-0.04233-0.0423h-0.08467l-0.04233-0.0423h-0.127l-0.04233-0.0423h-0.21167l-0.04233 0.0423h-0.127l-0.04233 0.0423h-0.04233l-0.04233 0.0423h-0.04233l-0.04233 0.0423h-0.04233l-0.08466 0.0846"/>
   <path d="m20.038 195.28h-0.04233l-0.08466 0.0846v0.0423l-0.08466 0.0846v0.0423l-0.04233 0.0423v0.0423l-0.04233 0.0423v0.0423l-0.04233 0.0423v0.55033l0.04233 0.0423v0.0847l0.04233 0.0423v0.0423l0.08466 0.0846v0.0423l0.25398 0.2538h0.04233l0.04233 0.0423h0.04233l0.04233 0.0423h0.08467l0.08467 0.0423h0.46567l0.04233-0.0423h0.04233l0.04233-0.0423h0.04233l0.04233-0.0423h0.04233l0.04233-0.0423h0.04233l0.12699-0.1269v-0.0423l0.08466-0.0846v-0.0423l0.08466-0.0846v-0.0847l0.04233-0.0423v-0.0847l0.04233-0.0423v-0.381l-0.04233-0.0423v-0.0847l-0.04233-0.0423v-0.0423l-0.04233-0.0423v-0.0847l-0.04233-0.0423h-0.04233v-0.0423l-0.16932-0.1692h-0.04233l-0.08466-0.0846h-0.04233l-0.04233-0.0423h-0.04233l-0.04233-0.0423h-0.127l-0.04233-0.0423h-0.29633l-0.04233 0.0423h-0.08467l-0.04233 0.0423h-0.08467l-0.08466 0.0846h-0.04233l-0.08466 0.0846"/>
   <path d="m21.604 197.14-0.08466 0.0846v0.0423l-0.12699 0.1269v0.0423l-0.04233 0.0423v0.0423l-0.04233 0.0423v0.0847l-0.04233 0.0423v0.46567l0.04233 0.0423v0.0847l0.04233 0.0423v0.0423l0.04233 0.0423v0.0423l0.04233 0.0423v0.0423l0.08466 0.0846h0.04233l0.08466 0.0846v0.0423h0.04233l0.04233 0.0423h0.04233l0.04233 0.0423h0.04233l0.08467 0.0423h0.08467l0.04233 0.0423h0.381l0.04233-0.0423h0.08467l0.04233-0.0423h0.04233l0.04233-0.0423h0.04233l0.08466-0.0846h0.04233l0.12699-0.1269v-0.0423l0.08466-0.0846v-0.0423l0.04233-0.0423v-0.0423l0.04233-0.0423v-0.0847l0.04233-0.0423v-0.46567l-0.04233-0.0423v-0.127l-0.08466-0.0846v-0.0423l-0.04233-0.0423v-0.0423l-0.08466-0.0846h-0.04233l-0.08466-0.0846v-0.0423h-0.04233l-0.04233-0.0423h-0.04233l-0.04233-0.0423h-0.04233l-0.04233-0.0423h-0.127l-0.04233-0.0423h-0.381l-0.04233 0.0423h-0.08467l-0.04233 0.0423h-0.04233l-0.04233 0.0423h-0.04233l-0.08466 0.0846h-0.04233"/>
   <path d="m23.17 199.04-0.08466 0.0846v0.0423l-0.08466 0.0846v0.0423l-0.08466 0.0846v0.0847l-0.04233 0.0423v0.0847l-0.04233 0.0423v0.381l0.04233 0.0423v0.0847l0.04233 0.0423v0.0847l0.04233 0.0423v0.0423l0.29631 0.2961h0.04233l0.04233 0.0423h0.04233l0.04233 0.0423h0.04233l0.04233 0.0423h0.08467l0.04233 0.0423h0.33867l0.04233-0.0423h0.127l0.04233-0.0423h0.04233l0.08466-0.0846h0.04233l0.08466-0.0846h0.04233l0.08466-0.0846v-0.0423l0.08466-0.0846v-0.0423l0.04233-0.0423v-0.0423l0.04233-0.0423v-0.0423l0.04233-0.0423v-0.254l0.04233-0.0423-0.04233-0.0423v-0.16934l-0.04233-0.0847v-0.0847l-0.04233-0.0423v-0.0423l-0.04233-0.0423v-0.0423l-0.25398-0.2538h-0.04233l-0.08466-0.0846h-0.04233l-0.04233-0.0423h-0.08467l-0.04233-0.0423h-0.42333l-0.08467 0.0423h-0.08467l-0.04233 0.0423h-0.04233l-0.04233 0.0423h-0.04233l-0.08466 0.0846h-0.04233"/>
   <path d="m26.345 202.85-0.12699 0.1269h-0.04233v0.0423l-0.08466 0.0846v0.0423l-0.04233 0.0423v0.0847l-0.04233 0.0847v0.127l-0.04233 0.0423v0.16934l0.04233 0.0847v0.127l0.04233 0.0423v0.0423l0.04233 0.0423v0.0423l0.04233 0.0423v0.0423l0.12699 0.1269v0.0423l0.04233 0.0423h0.04233l0.08466 0.0846h0.04233l0.04233 0.0423h0.04233l0.04233 0.0423h0.04233l0.04233 0.0423h0.21167l0.04233 0.0423h0.08467l0.04233-0.0423h0.16933l0.08467-0.0423h0.04233l0.04233-0.0423h0.04233l0.04233-0.0423h0.04233l0.08466-0.0846v-0.0423l0.04233-0.0423h0.04233l0.08466-0.0846v-0.0423l0.04233-0.0423v-0.0423l0.04233-0.0423v-0.0423l0.04233-0.0423v-0.127l0.04233-0.0423v-0.33866l-0.04233-0.0423v-0.127l-0.04233-0.0423v-0.0423l-0.04233-0.0423v-0.0423l-0.12699-0.1269v-0.0423l-0.08466-0.0846h-0.04233l-0.08466-0.0846h-0.04233l-0.04233-0.0423h-0.04233l-0.04233-0.0423h-0.04233l-0.04233-0.0423h-0.16933l-0.04233-0.0423h-0.08467l-0.04233 0.0423h-0.16933l-0.04233 0.0423h-0.08467l-0.04233 0.0423h-0.04233l-0.08466 0.0846h-0.04233l-0.04233 0.0423"/>
   <path d="m27.912 204.76-0.04233 0.0423h-0.04233l-0.04233 0.0423v0.0423l-0.08466 0.0846v0.0423l-0.04233 0.0423v0.0423l-0.04233 0.0423v0.0423l-0.04233 0.0423v0.55033l0.04233 0.0423v0.0847l0.04233 0.0423v0.0423l0.08466 0.0846v0.0423l0.12699 0.1269v0.0423h0.04233l0.08466 0.0846h0.04233l0.04233 0.0423h0.04233l0.04233 0.0423h0.04233l0.04233 0.0423h0.55033l0.04233-0.0423h0.08467l0.04233-0.0423h0.04233l0.08466-0.0846h0.04233l0.12699-0.1269v-0.0423l0.04233-0.0423h0.04233v-0.0423l0.08466-0.0846v-0.0847l0.04233-0.0847v-0.0847l0.04233-0.0423v-0.381l-0.04233-0.0423v-0.0847l-0.04233-0.0423v-0.0423l-0.04233-0.0423v-0.0423l-0.08466-0.0846v-0.0423l-0.16932-0.1692h-0.04233l-0.08466-0.0846h-0.04233l-0.04233-0.0423h-0.08467l-0.04233-0.0423h-0.127l-0.04233-0.0423h-0.21167l-0.04233 0.0423h-0.127l-0.04233 0.0423h-0.04233l-0.04233 0.0423h-0.04233l-0.04233 0.0423h-0.04233l-0.08466 0.0846"/>
   <path d="m24.737 200.95v0.0423l-0.21165 0.2115v0.0423l-0.04233 0.0423v0.0847l-0.04233 0.0423v0.127l-0.04233 0.0423v0.29633l0.04233 0.0423v0.0847l0.04233 0.0423v0.0847l0.08466 0.0846v0.0423l0.08466 0.0846v0.0423l0.12699 0.1269h0.04233l0.08466 0.0846h0.04233l0.04233 0.0423h0.04233l0.04233 0.0423h0.127l0.04233 0.0423h0.254l0.04233-0.0423h0.127l0.04233-0.0423h0.04233l0.04233-0.0423h0.04233l0.04233-0.0423h0.08467v-0.0423l0.08466-0.0846h0.04233l0.08466-0.0846v-0.0423l0.08466-0.0846v-0.0423l0.04233-0.0423v-0.0847l0.04233-0.0423v-0.16933l0.04233-0.0423v-0.16934l-0.04233-0.0423v-0.16933l-0.04233-0.0423v-0.0423l-0.04233-0.0423v-0.0423l-0.04233-0.0423v-0.0423l-0.12699-0.1269v-0.0423l-0.04233-0.0423h-0.04233l-0.08466-0.0846h-0.04233l-0.04233-0.0423h-0.04233l-0.04233-0.0423h-0.08467l-0.04233-0.0423h-0.46567l-0.04233 0.0423h-0.127l-0.04233 0.0423h-0.04233l-0.08466 0.0846h-0.04233l-0.04233 0.0423"/>
  </g>
 </g>
</svg>
