<?xml version="1.0" encoding="UTF-8"?>
<!-- Created with Inkscape (http://www.inkscape.org/) -->
<svg width="20.139mm" height="30.722mm" version="1.1" viewBox="0 0 20.139 30.722" xmlns="http://www.w3.org/2000/svg">
 <g transform="translate(-22.489 -172.51)">
  <path d="m22.526 203.19h20.066v-30.649h-20.066z" fill="#383431" fill-rule="evenodd" stroke="#1f1a17" stroke-linecap="round" stroke-linejoin="round" stroke-miterlimit="10" stroke-width=".072813"/>
  <path d="m24.219 174.7h1.143l0.04233 0.0423h0.04233v0.0423h0.04233v0.0847h0.04233v1.143l-0.04233 0.0423v0.0423h-0.04233v0.0423l-0.04233 0.0423h-1.27l-0.08466-0.0846v-0.0423h-0.04233v-1.1853l0.04233-0.0423v-0.0423l0.04233-0.0423h0.04233v-0.0423h0.08466" fill="#f8c300" fill-rule="evenodd"/>
  <path d="m24.219 174.7h1.143v0l0.04233 0.0423h0.04233v0.0423h0.04233v0.0847h0.04233v1.143l-0.04233 0.0423v0.0423h-0.04233v0.0423l-0.04233 0.0423h-1.27v0l-0.04233-0.0423v0l-0.04233-0.0423v-0.0423h-0.04233v-1.1853l0.04233-0.0423v-0.0423l0.04233-0.0423h0.04233v-0.0423h0.04233z" fill="none" stroke="#1f1a17" stroke-linecap="round" stroke-linejoin="round" stroke-miterlimit="10" stroke-width=".072813"/>
  <g fill="#f8c300" fill-rule="evenodd">
   <path d="m24.219 177.33h1.143v0.0423h0.08466v0.0423l0.04233 0.0423v0.0423h0.04233v1.1853h-0.04233v0.0423l-0.04233 0.0423v0.0423h-0.08466v0.0423h-1.1853v0l-0.04233-0.0423h-0.04233v-0.0423h-0.04233v-0.0423l-0.04233-0.0423v-1.1853l0.04233-0.0423v-0.0423h0.04233v-0.0423h0.04233v0l0.04233-0.0423h0.04233v0" stroke="#1f1a17" stroke-linecap="round" stroke-linejoin="round" stroke-miterlimit="10" stroke-width=".072813"/>
   <path d="m24.219 180h1.1853v0l0.04233 0.0423v0l0.04233 0.0423v0.0423l0.04233 0.0423v1.143h-0.04233v0.0847h-0.04233v0.0423h-0.04233v0.0423h-1.27v-0.0423h-0.04233v0l-0.04233-0.0423v-0.0423l-0.04233-0.0423v-1.1853h0.04233v-0.0847h0.04233v0l0.04233-0.0423h0.08466v0" stroke="#1f1a17" stroke-linecap="round" stroke-linejoin="round" stroke-miterlimit="10" stroke-width=".072813"/>
   <path d="m24.219 182.62h1.143l0.04233 0.0423h0.04233v0.0423h0.04233v0.0847h0.04233v1.143l-0.04233 0.0423v0.0423l-0.08466 0.0846h-1.27l-0.04233-0.0423h-0.04233v-0.0847h-0.04233v-1.1853l0.04233-0.0423v-0.0423l0.04233-0.0423h0.04233v-0.0423h0.08466"/>
  </g>
  <path d="m24.219 182.62h1.143v0l0.04233 0.0423h0.04233v0.0423h0.04233v0.0847h0.04233v1.143l-0.04233 0.0423v0.0423l-0.04233 0.0423v0l-0.04233 0.0423h-1.27v0l-0.04233-0.0423h-0.04233v-0.0847h-0.04233v-1.1853l0.04233-0.0423v-0.0423l0.04233-0.0423h0.04233v-0.0423h0.04233z" fill="none" stroke="#1f1a17" stroke-linecap="round" stroke-linejoin="round" stroke-miterlimit="10" stroke-width=".072813"/>
  <path d="m24.219 185.24h1.1007l0.04233 0.0423h0.08466v0.0423l0.04233 0.0423v0.0423h0.04233v1.1853h-0.04233v0.0847h-0.04233v0.0423h-0.08466v0.0423h-1.1853l-0.04233-0.0423h-0.04233v-0.0423h-0.04233v-0.0423l-0.04233-0.0423v-1.1853l0.04233-0.0423v-0.0423h0.04233v-0.0423h0.08466v-0.0423h0.04233" fill="#f8c300" fill-rule="evenodd"/>
  <path d="m24.219 185.24h1.1007v0l0.04233 0.0423h0.08466v0.0423l0.04233 0.0423v0.0423h0.04233v1.1853h-0.04233v0.0847h-0.04233v0.0423h-0.08466v0.0423h-1.1853v0l-0.04233-0.0423h-0.04233v-0.0423h-0.04233v-0.0423l-0.04233-0.0423v-1.1853l0.04233-0.0423v-0.0423h0.04233v-0.0423h0.08466v-0.0423z" fill="none" stroke="#1f1a17" stroke-linecap="round" stroke-linejoin="round" stroke-miterlimit="10" stroke-width=".072813"/>
  <path d="m24.219 187.91h1.1853v0.0423h0.04233v0.0423h0.04233v0.0423l0.04233 0.0423v1.143l-0.04233 0.0423v0.0423h-0.04233v0.0423h-0.04233v0.0423h-1.27v-0.0423h-0.04233l-0.04233-0.0423v-0.0423h-0.04233v-1.2277h0.04233v-0.0423l0.04233-0.0423h0.04233v-0.0423h0.08466" fill="#f8c300" fill-rule="evenodd"/>
  <path d="m24.219 187.91h1.1853v0.0423h0.04233v0.0423h0.04233v0.0423l0.04233 0.0423v1.143l-0.04233 0.0423v0.0423h-0.04233v0.0423h-0.04233v0.0423h-1.27v-0.0423h-0.04233v0l-0.04233-0.0423v-0.0423h-0.04233v-1.2277h0.04233v-0.0423l0.04233-0.0423h0.04233v-0.0423h0.04233z" fill="none" stroke="#1f1a17" stroke-linecap="round" stroke-linejoin="round" stroke-miterlimit="10" stroke-width=".072813"/>
  <path d="m24.219 190.54h1.143l0.04233 0.0423h0.04233v0.0423h0.04233v0.0847h0.04233v1.143l-0.04233 0.0423v0.0423l-0.08466 0.0846h-0.08466v0.0423h-1.1007l-0.04233-0.0423h-0.04233l-0.04233-0.0423h-0.04233v-0.0847h-0.04233v-1.1853l0.04233-0.0423v-0.0423h0.04233v-0.0423h0.04233v-0.0423h0.08466" fill="#f8c300" fill-rule="evenodd"/>
  <path d="m24.219 190.54h1.143v0l0.04233 0.0423h0.04233v0.0423h0.04233v0.0847h0.04233v1.143l-0.04233 0.0423v0.0423l-0.04233 0.0423v0l-0.04233 0.0423h-0.08466v0.0423h-1.1007v0l-0.04233-0.0423h-0.04233v0l-0.04233-0.0423h-0.04233v-0.0847h-0.04233v-1.1853l0.04233-0.0423v-0.0423h0.04233v-0.0423h0.04233v-0.0423h0.04233z" fill="none" stroke="#1f1a17" stroke-linecap="round" stroke-linejoin="round" stroke-miterlimit="10" stroke-width=".072813"/>
  <path d="m24.219 193.16h1.1007v0.0423h0.08466v0l0.04233 0.0423v0l0.04233 0.0423v0.0423l0.04233 0.0423v1.143h-0.04233v0.0847h-0.04233v0.0423h-0.04233v0l-0.04233 0.0423h-1.2277v-0.0423h-0.04233v-0.0423h-0.04233v-0.0423l-0.04233-0.0423v-1.1853h0.04233v-0.0847h0.04233v0l0.04233-0.0423h0.04233v0l0.04233-0.0423v0" fill="#f8c300" fill-rule="evenodd" stroke="#1f1a17" stroke-linecap="round" stroke-linejoin="round" stroke-miterlimit="10" stroke-width=".072813"/>
  <path d="m24.219 195.83h1.1853v0.0423h0.04233v0.0423h0.04233v0.0423l0.04233 0.0423v1.143l-0.04233 0.0423v0.0423h-0.04233v0.0423h-0.04233v0.0423h-1.27v-0.0423h-0.04233l-0.04233-0.0423v-0.0423h-0.04233v-1.2277h0.04233v-0.0423l0.04233-0.0423h0.04233v-0.0423h0.08466" fill="#f8c300" fill-rule="evenodd"/>
  <path d="m24.219 195.83h1.1853v0.0423h0.04233v0.0423h0.04233v0.0423l0.04233 0.0423v1.143l-0.04233 0.0423v0.0423h-0.04233v0.0423h-0.04233v0.0423h-1.27v-0.0423h-0.04233v0l-0.04233-0.0423v-0.0423h-0.04233v-1.2277h0.04233v-0.0423l0.04233-0.0423h0.04233v-0.0423h0.04233z" fill="none" stroke="#1f1a17" stroke-linecap="round" stroke-linejoin="round" stroke-miterlimit="10" stroke-width=".072813"/>
  <g fill="#f8c300" fill-rule="evenodd">
   <g stroke="#1f1a17" stroke-linecap="round" stroke-linejoin="round" stroke-miterlimit="10" stroke-width=".072813">
    <path d="m24.219 198.45h1.143v0.0423h0.08466v0.0423h0.04233v0.0847h0.04233v1.1853h-0.04233v0.0423l-0.08466 0.0846h-0.04233l-0.04233 0.0423h-1.143v-0.0423h-0.04233l-0.04233-0.0423h-0.04233v-0.0423l-0.04233-0.0423v-1.1853l0.04233-0.0423v-0.0423h0.04233v-0.0423h0.04233l0.04233-0.0423h0.04233"/>
    <path d="m40.052 176.19h-1.0583l-0.04233-0.0423h-0.04233l-0.04233-0.0423h-0.04233v-0.0847h-0.04233v-1.1853l0.04233-0.0423v-0.0423h0.04233v-0.0423h0.04233v-0.0423h1.2277l0.04233 0.0423h0.04233v0.0423h0.04233v0.0423l0.04233 0.0423v1.1853h-0.04233v0.0847h-0.04233l-0.04233 0.0423h-0.08466v0.0423h-0.04233"/>
    <path d="m38.189 178.05h-1.1007v-0.0423h-0.04233l-0.04233-0.0423h-0.04233v-0.0423l-0.04233-0.0423v-1.1853l0.04233-0.0423v-0.0423h0.04233v-0.0423h0.04233l0.04233-0.0423h1.1853v0.0423h0.08466v0.0423h0.04233v0.0847h0.04233v1.1853h-0.04233v0.0423l-0.08466 0.0846h-0.04233l-0.04233 0.0423h-0.04233"/>
    <path d="m36.326 179.91h-1.1007l-0.04233-0.0423h-0.04233v-0.0423h-0.04233v-0.0423l-0.04233-0.0423v-1.1853l0.04233-0.0423v-0.0423h0.04233v-0.0423h0.08466v-0.0423h1.143l0.04233 0.0423h0.08466v0.0423l0.04233 0.0423v0.0423h0.04233v1.1853h-0.04233v0.0423l-0.04233 0.0423v0.0423h-0.08466v0.0423h-0.08466"/>
    <path d="m34.464 181.77h-1.1007l-0.04233-0.0423h-0.04233v-0.0423h-0.04233v-0.0423l-0.04233-0.0423v-1.1853h0.04233v-0.0847h0.04233v-0.0423h0.08466v-0.0423h1.143l0.04233 0.0423h0.04233l0.08466 0.0846v0.0423l0.04233 0.0423v1.1007l-0.04233 0.0423v0.0847h-0.04233v0.0423h-0.08466v0.0423h-0.08466"/>
    <path d="m32.601 183.64h-1.143v-0.0423h-0.04233v-0.0423h-0.04233v-0.0423h-0.04233v-1.2277l0.04233-0.0423v-0.0423h0.04233v-0.0423h0.12699v-0.0423h1.0583l0.04233 0.0423h0.08466l0.08466 0.0846v0.0847h0.04233v1.1007l-0.04233 0.0423v0.0847h-0.04233v0.0423h-0.04233l-0.04233 0.0423h-0.08466"/>
    <path d="m30.738 185.5h-1.143v-0.0423h-0.04233l-0.04233-0.0423v-0.0423h-0.04233v-1.2277l0.04233-0.0423v-0.0423h0.04233v-0.0423h1.3123l0.08466 0.0846v0.0847l0.04233 0.0423v1.0583h-0.04233v0.127h-0.04233v0.0423h-0.04233l-0.04233 0.0423h-0.08466"/>
    <path d="m28.876 187.36h-1.143l-0.08466-0.0846v-0.0423h-0.04233v-1.2277l0.12699-0.1269h1.27v0.0423h0.04233v0.0423h0.04233v1.3123h-0.04233v0.0423h-0.04233v0.0423h-0.12699"/>
    <path d="m27.013 189.22h-1.143l-0.12699-0.1269v-1.2277l0.12699-0.1269h1.27v0.0423h0.04233v0.0423h0.04233v1.3123h-0.04233v0.0423h-0.04233v0.0423h-0.12699"/>
   </g>
   <path d="m28.664 188.46h1.143l0.08466 0.0846v0.0423h0.04233v1.2277l-0.12699 0.1269h-1.27v-0.0423h-0.04233v-0.0423h-0.04233v-1.3123h0.04233v-0.0423h0.04233v-0.0423h0.12699"/>
  </g>
  <path d="m28.664 188.46h1.143v0l0.04233 0.0423v0l0.04233 0.0423v0.0423h0.04233v1.2277l-0.04233 0.0423v0l-0.04233 0.0423v0l-0.04233 0.0423h-1.27v-0.0423h-0.04233v-0.0423h-0.04233v-1.3123h0.04233v-0.0423h0.04233v-0.0423h0.08466z" fill="none" stroke="#1f1a17" stroke-linecap="round" stroke-linejoin="round" stroke-miterlimit="10" stroke-width=".072813"/>
  <g fill="#f8c300" fill-rule="evenodd">
   <path d="m30.611 190.32h1.016v0.0423h0.04233v0l0.04233 0.0423v0.0847h0.04233v1.143l-0.04233 0.0423v0.0847h-0.04233v0.0423h-1.1853v-0.0423h-0.04233v-0.0423h-0.04233v-1.27l0.04233-0.0423v-0.0423h0.04233v0l0.04233-0.0423h0.08466" stroke="#1f1a17" stroke-linecap="round" stroke-linejoin="round" stroke-miterlimit="10" stroke-width=".072813"/>
   <path d="m32.389 192.19h1.143v0.0423h0.04233v0l0.04233 0.0423v0.0423h0.04233v1.2277l-0.04233 0.0423v0.0423h-0.04233v0.0423h-0.08466v0l-0.04233 0.0423h-1.1007v-0.0423h-0.08466v-0.0423h-0.04233v-0.0423h-0.04233v-1.27l0.04233-0.0423v0l0.04233-0.0423v0l0.04233-0.0423h0.08466" stroke="#1f1a17" stroke-linecap="round" stroke-linejoin="round" stroke-miterlimit="10" stroke-width=".072813"/>
   <path d="m34.252 194.05h1.1007l0.04233 0.0423h0.04233l0.04233 0.0423v0.0423h0.04233v1.2277l-0.04233 0.0423v0.0423h-0.04233v0.0423h-0.08466v0.0423h-1.143l-0.04233-0.0423h-0.04233v-0.0423h-0.04233v-0.0423h-0.04233v-1.27l0.08466-0.0846h0.04233v-0.0423h0.08466"/>
  </g>
  <path d="m34.252 194.05h1.1007v0l0.04233 0.0423h0.04233v0l0.04233 0.0423v0.0423h0.04233v1.2277l-0.04233 0.0423v0.0423h-0.04233v0.0423h-0.08466v0.0423h-1.143v0l-0.04233-0.0423h-0.04233v-0.0423h-0.04233v-0.0423h-0.04233v-1.27l0.04233-0.0423v0l0.04233-0.0423h0.04233v-0.0423h0.04233z" fill="none" stroke="#1f1a17" stroke-linecap="round" stroke-linejoin="round" stroke-miterlimit="10" stroke-width=".072813"/>
  <path d="m36.115 195.91h1.1007l0.04233 0.0423h0.04233l0.08466 0.0846v1.27h-0.04233v0.0423l-0.04233 0.0423h-0.04233l-0.04233 0.0423h-1.1853v-0.0423h-0.04233l-0.04233-0.0423v-0.0423h-0.04233v-1.27l0.08466-0.0846h0.04233v-0.0423h0.08466" fill="#f8c300" fill-rule="evenodd"/>
  <path d="m36.115 195.91h1.1007v0l0.04233 0.0423h0.04233v0l0.04233 0.0423v0l0.04233 0.0423v1.27h-0.04233v0.0423l-0.04233 0.0423h-0.04233v0l-0.04233 0.0423h-1.1853v-0.0423h-0.04233v0l-0.04233-0.0423v-0.0423h-0.04233v-1.27l0.04233-0.0423v0l0.04233-0.0423h0.04233v-0.0423h0.04233z" fill="none" stroke="#1f1a17" stroke-linecap="round" stroke-linejoin="round" stroke-miterlimit="10" stroke-width=".072813"/>
  <path d="m37.977 197.78h1.1007v0.0423h0.08466v0l0.04233 0.0423v0.0423h0.04233v1.27l-0.04233 0.0423v0l-0.04233 0.0423h-0.04233v0l-0.04233 0.0423h-1.1853v-0.0423h-0.04233v0l-0.04233-0.0423v0l-0.04233-0.0423v-1.27h0.04233v-0.0423l0.04233-0.0423h0.04233v0l0.04233-0.0423h0.04233v0" fill="#f8c300" fill-rule="evenodd" stroke="#1f1a17" stroke-linecap="round" stroke-linejoin="round" stroke-miterlimit="10" stroke-width=".072813"/>
  <path d="m39.84 199.64h1.1007l0.04233 0.0423h0.04233v0.0423h0.04233v0.0423h0.04233v1.27l-0.08466 0.0846h-0.04233v0.0423h-1.2277v-0.0423h-0.04233l-0.08466-0.0846v-1.27h0.04233v-0.0423h0.04233v-0.0423h0.08466v-0.0423h0.04233" fill="#f8c300" fill-rule="evenodd"/>
  <path d="m39.84 199.64h1.1007v0l0.04233 0.0423h0.04233v0.0423h0.04233v0.0423h0.04233v1.27l-0.04233 0.0423v0l-0.04233 0.0423h-0.04233v0.0423h-1.2277v-0.0423h-0.04233v0l-0.04233-0.0423v0l-0.04233-0.0423v-1.27h0.04233v-0.0423h0.04233v-0.0423h0.08466v-0.0423z" fill="none" stroke="#1f1a17" stroke-linecap="round" stroke-linejoin="round" stroke-miterlimit="10" stroke-width=".072813"/>
 </g>
</svg>
