<?xml version="1.0" encoding="UTF-8"?>
<!-- Created with Inkscape (http://www.inkscape.org/) -->
<svg width="20.137mm" height="25.175mm" version="1.1" viewBox="0 0 20.137 25.175" xmlns="http://www.w3.org/2000/svg">
 <g transform="translate(-8.9955 -198.44)" fill-rule="evenodd" stroke="#1f1a17" stroke-linecap="round" stroke-linejoin="round" stroke-miterlimit="10" stroke-width=".07112">
  <path d="m9.0311 223.58h20.066v-25.104h-20.066z" fill="#969594"/>
  <g fill="#fff">
   <path d="m25.245 218.71 0.04233-0.0423h0.04233l0.04233-0.0423h0.04233l0.04233-0.0423h0.04233l0.04233-0.0423h0.21167l0.04233-0.0423h0.08467l0.04233 0.0423h0.21167l0.04233 0.0423h0.04233l0.04233 0.0423h0.04233l0.04233 0.0423h0.04233l0.08466 0.0846h0.04233v0.0423l0.12699 0.1269v0.0423l0.08466 0.0846v0.0423l0.04233 0.0423v0.0847l0.04233 0.0423v0.508l-0.04233 0.0423v0.0847l-0.04233 0.0423v0.0423l-0.08466 0.0846v0.0423l-0.08466 0.0846v0.0423h-0.04233l-0.12699 0.1269h-0.04233l-0.04233 0.0423h-0.04233l-0.04233 0.0423h-0.04233l-0.08467 0.0423h-0.127l-0.04233 0.0423h-0.21167l-0.04233-0.0423h-0.127l-0.04233-0.0423h-0.04233l-0.04233-0.0423h-0.04233l-0.04233-0.0423h-0.04233l-0.08466-0.0846h-0.04233l-0.08466-0.0846v-0.0423l-0.12699-0.1269v-0.0423l-0.04233-0.0423v-0.0423l-0.04233-0.0423v-0.16933l-0.04233-0.0423v-0.254l0.04233-0.0847v-0.0847l0.04233-0.0423v-0.0847l0.04233-0.0423v-0.0423l0.08466-0.0846v-0.0423l0.08466-0.0846h0.04233l0.08466-0.0846"/>
   <path d="m26.515 218.5 0.97367-0.71967 0.46567 0.635-0.97367 0.71967-0.46567-0.635"/>
   <path d="m23.678 220.61 0.97367-0.71967 0.46567 0.635-0.97367 0.71967-0.46567-0.635"/>
   <path d="m23.551 216.51 0.08466-0.0846h0.04233l0.04233-0.0423h0.04233l0.04233-0.0423h0.127l0.04233-0.0423h0.29633l0.04233 0.0423h0.127l0.04233 0.0423h0.08467l0.04233 0.0423h0.04233l0.08466 0.0846h0.04233v0.0423l0.16932 0.1692v0.0423l0.08466 0.0846v0.0423l0.04233 0.0423v0.0847l0.04233 0.0423v0.508l-0.04233 0.0423v0.0847l-0.04233 0.0423v0.0423l-0.08466 0.0846v0.0423l-0.08466 0.0846h-0.04233v0.0423l-0.08466 0.0846h-0.04233l-0.08466 0.0846h-0.04233l-0.04233 0.0423h-0.127l-0.04233 0.0423h-0.46567l-0.04233-0.0423h-0.08467l-0.04233-0.0423h-0.04233l-0.08466-0.0846h-0.04233l-0.08466-0.0846h-0.04233l-0.08466-0.0846v-0.0423l-0.08466-0.0846v-0.0423l-0.04233-0.0423v-0.0423l-0.04233-0.0423v-0.127l-0.04233-0.0423v-0.33867l0.04233-0.0423v-0.127l0.04233-0.0423v-0.0423l0.04233-0.0423v-0.0423l0.08466-0.0846v-0.0423l0.12699-0.1269h0.04233l0.04233-0.0423"/>
   <path d="m24.821 216.3 0.97367-0.71967 0.46567 0.59267-0.97367 0.71967-0.46567-0.59267"/>
   <path d="m21.985 218.41 0.97367-0.71967 0.46567 0.59267-0.97367 0.71967-0.46567-0.59267"/>
   <path d="m21.943 214.39 0.04233-0.0423h0.04233l0.04233-0.0423h0.04233l0.04233-0.0423h0.04233l0.04233-0.0423h0.127l0.08467-0.0423h0.127l0.04233 0.0423h0.21167l0.04233 0.0423h0.04233l0.04233 0.0423h0.04233l0.04233 0.0423h0.04233l0.25398 0.2538v0.0423l0.08466 0.0846v0.0423l0.04233 0.0423v0.0847l0.04233 0.0423v0.508l-0.04233 0.0423v0.0847l-0.04233 0.0423v0.0423l-0.08466 0.0846v0.0423l-0.12699 0.1269v0.0423h-0.04233l-0.08466 0.0846h-0.04233l-0.04233 0.0423h-0.04233l-0.04233 0.0423h-0.08467l-0.04233 0.0423h-0.127l-0.04233 0.0423h-0.21167l-0.04233-0.0423h-0.127l-0.04233-0.0423h-0.04233l-0.04233-0.0423h-0.04233l-0.04233-0.0423h-0.04233l-0.08466-0.0846h-0.04233l-0.12699-0.1269v-0.0423l-0.08466-0.0846v-0.0423l-0.04233-0.0423v-0.0423l-0.04233-0.0423v-0.0847l-0.04233-0.0847v-0.33867l0.04233-0.0423v-0.127l0.04233-0.0423v-0.0423l0.04233-0.0423v-0.0423l0.08466-0.0846v-0.0423l0.08466-0.0846h0.04233l0.08466-0.0846"/>
   <path d="m23.213 214.18 0.97367-0.71967 0.42333 0.635-0.93133 0.71967-0.46567-0.635"/>
   <path d="m20.376 216.3 0.97367-0.71967 0.46567 0.635-0.97367 0.71967-0.46567-0.635"/>
   <path d="m20.122 212.27 0.08466-0.0846h0.04233l0.04233-0.0423h0.04233l0.04233-0.0423h0.16933l0.04233-0.0423h0.29633l0.04233 0.0423h0.08467l0.04233 0.0423h0.08467l0.04233 0.0423h0.04233l0.08466 0.0846h0.04233l0.12699 0.1269v0.0423l0.08466 0.0846v0.0423l0.08466 0.0846v0.0847l0.04233 0.0423v0.0847l0.04233 0.0847v0.21167l-0.04233 0.0423v0.16934l-0.04233 0.0423v0.0423l-0.04233 0.0423v0.0423l-0.04233 0.0423v0.0423l-0.08466 0.0846v0.0423h-0.04233l-0.16932 0.1692h-0.04233l-0.04233 0.0423h-0.04233l-0.04233 0.0423h-0.08467l-0.04233 0.0423h-0.508l-0.04233-0.0423h-0.08467l-0.04233-0.0423h-0.04233l-0.04233-0.0423h-0.04233l-0.12699-0.1269h-0.04233v-0.0423l-0.12699-0.1269v-0.0423l-0.04233-0.0423v-0.0423l-0.04233-0.0423v-0.0423l-0.04233-0.0847v-0.21166l-0.04233-0.0423 0.04233-0.0423v-0.254l0.04233-0.0423v-0.0423l0.04233-0.0423v-0.0423l0.04233-0.0423v-0.0423l0.12699-0.1269v-0.0423l0.04233-0.0423h0.04233l0.04233-0.0423"/>
   <path d="m21.392 212.06 0.97367-0.71967 0.46567 0.635-0.97367 0.67734-0.46567-0.59267"/>
   <path d="m18.598 214.18 0.93133-0.71967 0.46567 0.635-0.97367 0.67734-0.42333-0.59267"/>
   <path d="m18.429 210.24 0.04233-0.0423h0.04233l0.04233-0.0423h0.04233l0.04233-0.0423h0.04233l0.04233-0.0423h0.16933l0.08467-0.0423h0.08467l0.04233 0.0423h0.16933l0.04233 0.0423h0.08467l0.04233 0.0423h0.04233l0.04233 0.0423h0.04233l0.04233 0.0423v0.0423h0.04233l0.16932 0.1692v0.0423l0.04233 0.0423v0.0423l0.04233 0.0423v0.0423l0.04233 0.0423v0.0423l0.04233 0.0847v0.42333l-0.04233 0.0423v0.0847l-0.04233 0.0423v0.0423l-0.04233 0.0423v0.0423l-0.04233 0.0423v0.0423l-0.25398 0.2538h-0.04233l-0.08466 0.0846h-0.127l-0.04233 0.0423h-0.127l-0.04233 0.0423h-0.21167l-0.04233-0.0423h-0.127l-0.04233-0.0423h-0.04233l-0.04233-0.0423h-0.04233l-0.04233-0.0423h-0.04233l-0.08466-0.0846h-0.04233l-0.12699-0.1269v-0.0423l-0.08466-0.0846v-0.0423l-0.04233-0.0423v-0.0423l-0.04233-0.0423v-0.0847l-0.04233-0.0847v-0.381l0.04233-0.0423v-0.0847l0.04233-0.0423v-0.0423l0.04233-0.0423v-0.0423l0.08466-0.0846v-0.0423l0.08466-0.0846h0.04233l0.08466-0.0846"/>
   <path d="m19.699 210.03 0.93133-0.71967 0.46567 0.635-0.93133 0.71967-0.46567-0.635"/>
   <path d="m16.863 212.15 0.97367-0.71967 0.46567 0.635-0.97367 0.71967-0.46567-0.635"/>
   <path d="m16.82 208.13h0.04233l0.08466-0.0846h0.04233l0.04233-0.0423h0.08467l0.04233-0.0423h0.46567l0.04233 0.0423h0.127l0.04233 0.0423h0.04233l0.08466 0.0846h0.04233v0.0423l0.08466 0.0846h0.04233l0.08466 0.0846v0.0423l0.04233 0.0423v0.0423l0.04233 0.0423v0.0423l0.04233 0.0847v0.0423l0.04233 0.0423v0.42333l-0.04233 0.0423v0.0847l-0.04233 0.0423v0.0423l-0.04233 0.0423v0.0423l-0.04233 0.0423v0.0423l-0.16932 0.1692v0.0423h-0.04233l-0.08466 0.0846h-0.04233l-0.08467 0.0423h-0.04233l-0.04233 0.0423h-0.08467l-0.04233 0.0423h-0.33867l-0.04233-0.0423h-0.127l-0.04233-0.0423h-0.04233l-0.08467-0.0423-0.08466-0.0846h-0.04233l-0.16932-0.1692v-0.0423l-0.08466-0.0846v-0.0423l-0.04233-0.0423v-0.0423l-0.04233-0.0423v-0.0847l-0.04233-0.0423v-0.381l0.04233-0.0423v-0.127l0.04233-0.0423v-0.0423l0.04233-0.0423v-0.0423l0.04233-0.0423v-0.0423l0.04233-0.0423h0.04233l0.16932-0.1692"/>
   <path d="m18.09 207.91 0.93133-0.71967 0.46567 0.635-0.97367 0.71967-0.42333-0.635"/>
   <path d="m15.254 210.03 0.97367-0.71967 0.46567 0.635-0.97367 0.71967-0.46567-0.635"/>
   <path d="m15.169 206.14 0.08466-0.0846h0.04233l0.04233-0.0423h0.08467l0.08467-0.0423h0.08467l0.04233-0.0423h0.29633l0.04233 0.0423h0.08467l0.04233 0.0423h0.08467l0.04233 0.0423h0.04233l0.08466 0.0846h0.04233l0.12699 0.1269v0.0423l0.12699 0.1269v0.0423l0.04233 0.0423v0.0423l0.04233 0.0423v0.127l0.04233 0.0847v0.254l-0.04233 0.0423v0.16933l-0.04233 0.0423v0.0423l-0.04233 0.0423v0.0423l-0.08466 0.0846v0.0423l-0.04233 0.0423h-0.04233l-0.16932 0.1692h-0.04233l-0.04233 0.0423h-0.04233l-0.04233 0.0423h-0.04233l-0.04233 0.0423h-0.508l-0.08467-0.0423h-0.08467l-0.04233-0.0423h-0.04233l-0.04233-0.0423h-0.04233l-0.25398-0.2538v-0.0423l-0.08466-0.0846v-0.0423l-0.04233-0.0423v-0.127l-0.04233-0.0423v-0.46567l0.04233-0.0423v-0.0847l0.04233-0.0423v-0.0423l0.08466-0.0846v-0.0423l0.12699-0.1269v-0.0423h0.04233l0.04233-0.0423"/>
   <path d="m16.439 205.92 0.97367-0.71967 0.46567 0.59267-0.97367 0.71967-0.46567-0.59267"/>
   <path d="m13.645 208.04 0.97367-0.71967 0.46567 0.635-0.97367 0.67734-0.46567-0.59267"/>
   <path d="m13.476 204.1 0.04233-0.0423h0.04233l0.04233-0.0423h0.04233l0.04233-0.0423h0.04233l0.04233-0.0423h0.21167l0.04233-0.0423h0.04233l0.04233 0.0423h0.254l0.04233 0.0423h0.04233l0.04233 0.0423h0.04233l0.04233 0.0423h0.04233l0.08466 0.0846v0.0423h0.04233l0.12699 0.1269v0.0423l0.08466 0.0846v0.0423l0.04233 0.0423v0.0847l0.04233 0.0847v0.46566l-0.04233 0.0423v0.0847l-0.04233 0.0423v0.0423l-0.08466 0.0846v0.0423l-0.12699 0.1269v0.0423h-0.04233l-0.08466 0.0846h-0.04233l-0.08466 0.0846h-0.127l-0.04233 0.0423h-0.08467l-0.04233 0.0423h-0.254l-0.04233-0.0423h-0.127l-0.04233-0.0423h-0.04233l-0.04233-0.0423h-0.04233l-0.04233-0.0423h-0.04233l-0.08466-0.0846h-0.04233l-0.12699-0.1269v-0.0423l-0.08466-0.0846v-0.0423l-0.04233-0.0423v-0.0423l-0.04233-0.0423v-0.0847l-0.04233-0.0847v-0.29634l0.04233-0.0847v-0.127l0.04233-0.0423v-0.0423l0.04233-0.0423v-0.0423l0.08466-0.0846v-0.0423l0.08466-0.0846h0.04233l0.08466-0.0846"/>
   <path d="m14.746 203.89 0.97367-0.71967 0.46567 0.635-0.97367 0.71967-0.46567-0.635"/>
   <path d="m11.91 206.01 0.97367-0.71967 0.46567 0.635-0.97367 0.71967-0.46567-0.635"/>
   <path d="m11.74 201.99 0.04233-0.0423h0.04233l0.04233-0.0423h0.04233l0.08467-0.0423h0.04233l0.04233-0.0423h0.16933l0.04233-0.0423h0.127l0.04233 0.0423h0.16933l0.04233 0.0423h0.04233l0.04233 0.0423h0.04233l0.04233 0.0423h0.04233l0.12699 0.1269h0.04233l0.08466 0.0846v0.0423l0.08466 0.0846v0.0423l0.04233 0.0423v0.0423l0.04233 0.0423v0.127l0.04233 0.0423v0.381l-0.04233 0.0423v0.0847l-0.04233 0.0423v0.0423l-0.04233 0.0423v0.0423l-0.08466 0.0846v0.0423l-0.12699 0.1269h-0.04233l-0.08466 0.0846h-0.04233l-0.08466 0.0846h-0.08467l-0.04233 0.0423h-0.127l-0.04233 0.0423h-0.21167l-0.04233-0.0423h-0.127l-0.04233-0.0423h-0.08467l-0.04233-0.0423h-0.04233l-0.04233-0.0423h-0.04233l-0.04233-0.0423v-0.0423h-0.04233l-0.16932-0.1692v-0.0423l-0.08466-0.0846v-0.0423l-0.04233-0.0423v-0.0847l-0.04233-0.0423v-0.508l0.04233-0.0423v-0.0423l0.04233-0.0423v-0.0423l0.04233-0.0423v-0.0423l0.04233-0.0423v-0.0423l0.12699-0.1269h0.04233v-0.0423l0.04233-0.0423"/>
   <path d="m13.01 201.78 0.97367-0.71967 0.46567 0.635-0.97367 0.71967-0.46567-0.635"/>
   <path d="m10.216 203.89 0.97367-0.71967 0.46567 0.635-0.97367 0.71967-0.46567-0.635"/>
  </g>
 </g>
</svg>
