<?xml version="1.0" encoding="UTF-8"?>
<!-- Created with Inkscape (http://www.inkscape.org/) -->
<svg width="14.817mm" height="13.504mm" version="1.1" viewBox="0 0 14.817 13.504" xmlns="http://www.w3.org/2000/svg">
 <defs>
  <clipPath id="clipPath1580">
   <path transform="translate(-1192.5 -1812.2)" d="m1105.5 1812.2h175v-159.5h-175z"/>
  </clipPath>
 </defs>
 <path d="m7.366 0.55033h0.127l0.04233 0.042333h0.08467l0.04233 0.042333h0.04233v0.042333h0.04233v0.042333h0.04233v0.042333l0.08466 0.084666v0.042333h0.04233v0.042333l0.04233 0.042333v0.042333h0.04233v0.084667l0.04233 0.084667 0.04233 0.042333 0.04233 0.084667 6.0537 10.837 0.04233 0.04233v0.254h-0.04233v0.08467l-0.21165 0.21165h-0.04233l-0.08466 0.08466h-0.04233l-0.04233 0.04233h-0.08467l-0.04233 0.04233h-12.488l-0.042333-0.04233h-0.084667l-0.042333-0.04233h-0.042333l-0.084666-0.08466h-0.042333l-0.21166-0.21165v-0.08467h-0.042333v-0.254l0.042333-0.04233 6.0113-10.837 0.042333-0.084667v-0.042333l0.042333-0.084667 0.042333-0.042333v-0.042333l0.042333-0.042333v-0.042333h0.042333v-0.042333l0.042333-0.042333v-0.042333h0.04233v-0.042333h0.04233v-0.042333l0.04233-0.042333h0.04233v-0.042333h0.04233l0.04233-0.042333h0.08467v-0.042333h0.16933" fill="#fff" fill-rule="evenodd"/>
 <path transform="matrix(.084667 0 0 -.084667 7.366 0)" d="m0 0h3.5l0.5-0.5h1.5l0.5-0.5h0.5l1-1h0.5l1-1v-0.5h0.5l1-1v-0.5l1-1v-0.5l1-1v-0.5l0.5-0.5v-0.5l1-2-11.5-6-0.5 0.5-0.5 1-0.5 0.5v0.5l-0.5 0.5v0.5h-0.5zm14-11 0.5-0.5v-0.5h0.5v-0.5l-12-6-0.5 0.5v1zm-11-7.5 6 3zm12 6.5 71.5-128.5-11.5-6.5-72 128.5zm71.5-128.5-6-3zm0 0v-0.5h0.5v-1l0.5-0.5v-1.5l0.5-0.5v-1h-13.5v-1h0.5-0.5zm1.5-5v-0.5l-0.5-0.5v-2l-0.5-0.5v-1l-0.5-0.5v-0.5l-1-1v-0.5l-0.5-0.5-10.5 8.5v-1zm-3-7.5-5 4.5zm0 0-1.5-1.5h-0.5v-0.5l-0.5-0.5h-0.5v-0.5h-0.5l-0.5-0.5h-0.5v-0.5h-1l-6 11.5 0.5 0.5h0.5v0.5zm-5.5-4-0.5-0.5h-0.5l-0.5-0.5h-1l-0.5-0.5h-1l-0.5-0.5h-2.5l-0.5-0.5h-0.5v13.5h1v0.5h1zm-8-2.5h-142.5v13.5h142.5zm-142.5 0h-0.5l-0.5 0.5h-2.5l-0.5 0.5h-1l-0.5 0.5h-1l-0.5 0.5h-0.5l-0.5 0.5 6 11.5h1v-0.5h1zm-8 2.5h-1v0.5h-0.5l-0.5 0.5h-0.5v0.5h-0.5l-0.5 0.5v0.5h-0.5l-1.5 1.5 10.5 8.5 0.5-0.5h0.5v-0.5zm-5.5 4 5.5 4.5zm0 0v0.5l-1 1v0.5h-0.5v1h-0.5v1l-0.5 0.5v2.5h-0.5v0.5h13.5v1zm-3 7.5v0.5h0.5v2.5l0.5 0.5v1h0.5v0.5l12-6h-0.5 0.5v1zm1.5 5 6-3zm0 0 71 128.5 11.5-6.5-71-128.5zm71 128.5 6-3.5zm0 0h0.5v1l0.5 0.5 11.5-6.5v-0.5l-0.5-0.5v-0.5h-0.5zm1 1.5 1 2v0.5l1 1v0.5l0.5 0.5v0.5h0.5l0.5 0.5v0.5l1.5 1.5h0.5v0.5l0.5 0.5h0.5l1 1h0.5l0.5 0.5h1.5l0.5 0.5h3.5v-13l-0.5-0.5v-0.5h-0.5l-0.5-1v-0.5l-0.5-0.5-0.5-1-11.5 6.5" clip-path="url(#clipPath1580)" fill="#da251d"/>
 <g fill="#1f1a17">
  <path d="m3.8523 11.049h6.858v-0.59267h-6.858z"/>
  <path d="m3.8523 8.763h6.858v-0.59267h-6.858z"/>
  <g fill-rule="evenodd">
   <path d="m4.445 11.684h0.59267v-4.2333h-0.59267z"/>
   <path d="m4.7413 7.0273 0.29633 0.42333h-0.55033l0.254-0.42333" stroke="#1f1a17" stroke-linecap="round" stroke-linejoin="round" stroke-miterlimit="10" stroke-width=".070273"/>
   <path d="m5.7573 11.684h0.59267v-4.2333h-0.59267z"/>
   <path d="m6.0537 7.0273 0.254 0.42333h-0.55033l0.29633-0.42333" stroke="#1f1a17" stroke-linecap="round" stroke-linejoin="round" stroke-miterlimit="10" stroke-width=".070273"/>
   <path d="m7.0273 11.684h0.59267v-4.2333h-0.59267z"/>
   <path d="m7.3237 7.0273 0.29633 0.42333h-0.59267l0.29633-0.42333"/>
  </g>
 </g>
 <path d="m7.3237 7.0273 0.29633 0.42333h-0.59267z" fill="none" stroke="#1f1a17" stroke-linecap="round" stroke-linejoin="round" stroke-miterlimit="10" stroke-width=".070273"/>
 <path d="m8.2973 11.684h0.59267v-4.2333h-0.59267z" fill="#1f1a17" fill-rule="evenodd"/>
 <path d="m8.5937 7.0273 0.29633 0.42333h-0.59267l0.29633-0.42333" fill="#1f1a17" fill-rule="evenodd"/>
 <path d="m8.5937 7.0273 0.29633 0.42333h-0.59267z" fill="none" stroke="#1f1a17" stroke-linecap="round" stroke-linejoin="round" stroke-miterlimit="10" stroke-width=".070273"/>
 <path d="m9.5673 11.684h0.59267v-4.2333h-0.59267z" fill="#1f1a17" fill-rule="evenodd"/>
 <path d="m9.8637 7.0273 0.29633 0.42333h-0.59267l0.29633-0.42333" fill="#1f1a17" fill-rule="evenodd"/>
 <path d="m9.8637 7.0273 0.29633 0.42333h-0.59267z" fill="none" stroke="#1f1a17" stroke-linecap="round" stroke-linejoin="round" stroke-miterlimit="10" stroke-width=".070273"/>
</svg>
