<?xml version="1.0" encoding="UTF-8"?>
<!-- Created with Inkscape (http://www.inkscape.org/) -->
<svg width="19.08mm" height="30.722mm" version="1.1" viewBox="0 0 19.08 30.722" xmlns="http://www.w3.org/2000/svg">
 <g transform="translate(-18.256 -198.7)" fill-rule="evenodd" stroke="#1f1a17" stroke-linecap="round" stroke-linejoin="round" stroke-miterlimit="10" stroke-width=".072813">
  <path d="m18.292 229.39h19.008v-30.649h-19.008z" fill="#848382"/>
  <path d="m33.871 200.9h-0.29633l-0.04233 0.0423h-0.08467l-0.04233 0.0423h-0.04233l-0.08467 0.0423-0.04233 0.0423h-0.04233l-0.38097 0.3807v0.0423l-0.04233 0.0847v0.0423l-0.04233 0.0423v0.0847l-0.04233 0.0423v0.16933l-0.04233 0.0847v0.127l0.04233 0.0423v0.16934l0.04233 0.0423v0.0847l0.04233 0.0423v0.0423l0.04233 0.0847v0.0423l0.38097 0.3807h0.04233l0.04233 0.0423 0.08467 0.0423h0.04233l0.04233 0.0423h0.08467l0.04233 0.0423h0.254l0.04233 0.0423 0.08467-0.0423h0.21167l0.08467-0.0423h0.04233l0.04233-0.0423h0.08467l0.08466-0.0846h0.04233l0.38097-0.3807v-0.0423l0.04233-0.0847 0.04233-0.0423v-0.127l0.04233-0.0423v-0.127l0.04233-0.0423v-0.254l-0.04233-0.0423v-0.127l-0.04233-0.0423v-0.127l-0.04233-0.0423-0.04233-0.0847v-0.0423l-0.38097-0.3807h-0.04233l-0.08466-0.0846h-0.08467l-0.04233-0.0423h-0.04233l-0.08467-0.0423h-0.29633" fill="#fff"/>
  <g fill="#848382">
   <path d="m33.871 203.86h-0.127l-0.04233 0.0423h-0.127l-0.04233 0.0423h-0.08467l-0.04233 0.0423h-0.04233l-0.08467 0.0423h-0.04233l-0.4233 0.423v0.0423l-0.04233 0.0423v0.0847l-0.04233 0.0423v0.0423l-0.04233 0.0847v0.16934l-0.04233 0.0423v0.127l0.04233 0.0847v0.16933l0.04233 0.0423v0.0847l0.04233 0.0423v0.0423l0.04233 0.0423v0.0847l0.33864 0.3384h0.04233l0.08466 0.0846h0.08467l0.08466 0.0846h0.127l0.04233 0.0423h0.508l0.04233-0.0423h0.127l0.04233-0.0423 0.08467-0.0423h0.04233l0.08466-0.0846h0.04233l0.33864-0.3384v-0.0847l0.08466-0.0846v-0.127l0.04233-0.0423v-0.127l0.04233-0.0423v-0.254l-0.04233-0.0847v-0.0847l-0.04233-0.0847v-0.0847l-0.04233-0.0847-0.04233-0.0423v-0.0423l-0.4233-0.423h-0.04233l-0.04233-0.0423h-0.08467l-0.04233-0.0423h-0.04233l-0.08467-0.0423h-0.127l-0.04233-0.0423h-0.127"/>
   <path d="m33.871 206.87h-0.16933l-0.08467 0.0423h-0.08467l-0.08467 0.0423h-0.04233l-0.04233 0.0423-0.08467 0.0423h-0.04233l-0.12699 0.1269h-0.04233l-0.12699 0.1269-0.04233 0.0847-0.08466 0.0846v0.0423l-0.04233 0.0423v0.0423l-0.04233 0.0847v0.0423l-0.04233 0.0423v0.21167l-0.04233 0.0423v0.127l0.04233 0.0423v0.21167l0.04233 0.0423v0.0423l0.04233 0.0847v0.0423l0.04233 0.0423v0.0423l0.04233 0.0423 0.04233 0.0847 0.16932 0.1692h0.04233l0.16932 0.1692h0.08467l0.04233 0.0423h0.04233l0.08467 0.0423h0.08467l0.08467 0.0423h0.33867l0.08467-0.0423h0.127l0.04233-0.0423h0.04233l0.08467-0.0423h0.04233l0.16932-0.1692h0.04233l0.16932-0.1692 0.04233-0.0847 0.04233-0.0423v-0.0423l0.08466-0.0846v-0.127l0.04233-0.0423v-0.127l0.04233-0.0847v-0.21166l-0.04233-0.0847v-0.127l-0.04233-0.0423v-0.127l-0.08466-0.0846v-0.0423l-0.08466-0.0846-0.04233-0.0847-0.12699-0.1269h-0.04233l-0.12699-0.1269h-0.04233l-0.04233-0.0423-0.08467-0.0423h-0.04233l-0.04233-0.0423h-0.127l-0.08467-0.0423h-0.16933"/>
   <path d="m33.871 209.87h-0.254l-0.04233 0.0423h-0.04233l-0.08467 0.0423h-0.04233l-0.04233 0.0423h-0.08467l-0.08466 0.0846h-0.04233l-0.29631 0.2961-0.04233 0.0847v0.0423l-0.04233 0.0423v0.0423l-0.04233 0.0847v0.0423l-0.04233 0.0423v0.16933l-0.04233 0.0847v0.127l0.04233 0.0423v0.16934l0.04233 0.0847v0.0423l0.04233 0.0423v0.0847l0.04233 0.0423v0.0423l0.4233 0.423h0.04233l0.08467 0.0423 0.04233 0.0423h0.127l0.04233 0.0423h0.127l0.04233 0.0423h0.254l0.04233-0.0423h0.127l0.08467-0.0423h0.08467l0.08467-0.0423 0.04233-0.0423h0.04233l0.4233-0.423v-0.0423l0.04233-0.0423 0.04233-0.0847v-0.0847l0.04233-0.0847v-0.0847l0.04233-0.0847v-0.254l-0.04233-0.0423v-0.127l-0.04233-0.0423v-0.127l-0.08466-0.0846v-0.0423l-0.04233-0.0847-0.29631-0.2961h-0.04233l-0.08466-0.0846h-0.04233l-0.08467-0.0423h-0.04233l-0.04233-0.0423h-0.08467l-0.04233-0.0423h-0.254"/>
   <path d="m33.871 215.84h-0.127l-0.04233 0.0423h-0.127l-0.04233 0.0423h-0.08467l-0.04233 0.0423h-0.04233l-0.08467 0.0423h-0.04233l-0.4233 0.423v0.0423l-0.04233 0.0423v0.0847l-0.04233 0.0423v0.0423l-0.04233 0.0847v0.16934l-0.04233 0.0423v0.127l0.04233 0.0847v0.16933l0.04233 0.0423v0.0847l0.04233 0.0423v0.0423l0.04233 0.0423v0.0847l0.33864 0.3384h0.04233l0.08466 0.0846h0.08467l0.08466 0.0846h0.127l0.04233 0.0423h0.508l0.04233-0.0423h0.127l0.04233-0.0423 0.08467-0.0423h0.04233l0.08466-0.0846h0.04233l0.33864-0.3384v-0.0847l0.08466-0.0846v-0.127l0.04233-0.0423v-0.127l0.04233-0.0423v-0.254l-0.04233-0.0847v-0.0847l-0.04233-0.0847v-0.0847l-0.04233-0.0847-0.04233-0.0423v-0.0423l-0.4233-0.423h-0.04233l-0.04233-0.0423h-0.08467l-0.04233-0.0423h-0.04233l-0.08467-0.0423h-0.127l-0.04233-0.0423h-0.127"/>
   <path d="m33.871 221.85h-0.254l-0.04233 0.0423h-0.04233l-0.08467 0.0423h-0.04233l-0.04233 0.0423h-0.08467l-0.08466 0.0846h-0.04233l-0.29631 0.2961-0.04233 0.0847v0.0423l-0.04233 0.0423v0.0423l-0.04233 0.0423v0.0847l-0.04233 0.0423v0.16933l-0.04233 0.0847v0.127l0.04233 0.0423v0.16934l0.04233 0.0847v0.0423l0.04233 0.0423v0.0847l0.04233 0.0423v0.0423l0.4233 0.423h0.04233l0.08467 0.0423 0.04233 0.0423h0.127l0.04233 0.0423h0.127l0.04233 0.0423h0.254l0.04233-0.0423h0.127l0.08467-0.0423h0.08467l0.08467-0.0423 0.04233-0.0423h0.04233l0.4233-0.423v-0.0423l0.04233-0.0423 0.04233-0.0847v-0.0847l0.04233-0.0847v-0.0847l0.04233-0.0847v-0.254l-0.04233-0.0423v-0.127l-0.04233-0.0423v-0.127l-0.08466-0.0846v-0.0423l-0.04233-0.0847-0.29631-0.2961h-0.04233l-0.08466-0.0846h-0.04233l-0.08467-0.0423h-0.04233l-0.04233-0.0423h-0.08467l-0.04233-0.0423h-0.254"/>
  </g>
  <path d="m33.871 224.86h-0.29633l-0.04233 0.0423h-0.08467l-0.04233 0.0423h-0.04233l-0.08467 0.0423-0.04233 0.0423h-0.04233l-0.38097 0.3807v0.0423l-0.04233 0.0847v0.0423l-0.04233 0.0423v0.0847l-0.04233 0.0423v0.16933l-0.04233 0.0847v0.127l0.04233 0.0423v0.16934l0.04233 0.0423v0.0847l0.04233 0.0423v0.0423l0.04233 0.0847v0.0423l0.38097 0.3807h0.04233l0.04233 0.0423 0.08467 0.0423h0.04233l0.04233 0.0423h0.08467l0.04233 0.0423h0.254l0.04233 0.0423 0.08467-0.0423h0.21167l0.08467-0.0423h0.04233l0.04233-0.0423h0.08467l0.08466-0.0846h0.04233l0.38097-0.3807v-0.0423l0.04233-0.0847 0.04233-0.0423v-0.127l0.04233-0.0423v-0.127l0.04233-0.0423v-0.254l-0.04233-0.0423v-0.127l-0.04233-0.0423v-0.127l-0.04233-0.0423-0.04233-0.0847v-0.0423l-0.38097-0.3807h-0.04233l-0.08466-0.0846h-0.08467l-0.04233-0.0423h-0.04233l-0.08467-0.0423h-0.29633" fill="#fff"/>
  <path d="m33.871 218.85h-0.16933l-0.08467 0.0423h-0.08467l-0.08467 0.0423h-0.04233l-0.04233 0.0423h-0.08467l-0.16932 0.1692h-0.04233l-0.12699 0.1269-0.04233 0.0847-0.08466 0.0846v0.0423l-0.04233 0.0423v0.0423l-0.04233 0.0847v0.0423l-0.04233 0.0423v0.21167l-0.04233 0.0423v0.127l0.04233 0.0423v0.21167l0.04233 0.0423v0.0423l0.04233 0.0847v0.0423l0.04233 0.0423v0.0423l0.04233 0.0423 0.04233 0.0847 0.21165 0.2115h0.04233l0.12699 0.1269h0.08467l0.04233 0.0423h0.04233l0.08467 0.0423h0.08467l0.08467 0.0423h0.33867l0.08467-0.0423h0.127l0.04233-0.0423h0.04233l0.08467-0.0423h0.04233l0.12699-0.1269h0.04233l0.21165-0.2115 0.04233-0.0847 0.04233-0.0423v-0.0423l0.08466-0.0846v-0.127l0.04233-0.0423v-0.127l0.04233-0.0847v-0.21166l-0.04233-0.0847v-0.127l-0.04233-0.0423v-0.127l-0.08466-0.0846v-0.0423l-0.08466-0.0846-0.04233-0.0847-0.12699-0.1269h-0.04233l-0.16932-0.1692h-0.04233l-0.08467-0.0423h-0.04233l-0.04233-0.0423h-0.127l-0.08467-0.0423h-0.16933" fill="#848382"/>
  <path d="m30.823 200.9h-0.29633l-0.04233 0.0423h-0.08467l-0.04233 0.0423h-0.04233l-0.04233 0.0423-0.08467 0.0423h-0.04233l-0.33864 0.3384v0.0423l-0.04233 0.0423-0.04233 0.0847v0.0423l-0.04233 0.0423v0.0847l-0.04233 0.0423v0.59267l0.04233 0.0423v0.0847l0.04233 0.0423v0.0423l0.04233 0.0847 0.04233 0.0423v0.0423l0.33864 0.3384h0.04233l0.08467 0.0423 0.04233 0.0423h0.04233l0.04233 0.0423h0.08467l0.04233 0.0423h0.254l0.04233 0.0423 0.08467-0.0423h0.21167l0.08467-0.0423h0.04233l0.04233-0.0423h0.08467l0.08466-0.0846h0.04233l0.04233-0.0423 0.08467-0.0423 0.12699-0.1269v-0.0423l0.16932-0.1692v-0.0847l0.04233-0.0423v-0.0423l0.04233-0.0847v-0.0847l0.04233-0.0847v-0.33867l-0.04233-0.0847v-0.0847l-0.04233-0.0847v-0.0423l-0.04233-0.0423v-0.0847l-0.16932-0.1692v-0.0423l-0.12699-0.1269-0.08467-0.0423-0.04233-0.0423h-0.04233l-0.08466-0.0846h-0.08467l-0.04233-0.0423h-0.04233l-0.08467-0.0423h-0.29633" fill="#fff"/>
  <g fill="#848382">
   <path d="m30.823 203.86h-0.127l-0.04233 0.0423h-0.127l-0.04233 0.0423h-0.08467l-0.04233 0.0423h-0.04233l-0.04233 0.0423h-0.08467l-0.38097 0.3807v0.0423l-0.08466 0.0846v0.0847l-0.04233 0.0423v0.0423l-0.04233 0.0847v0.59267l0.04233 0.0423v0.0847l0.04233 0.0423v0.0423l0.04233 0.0423 0.04233 0.0847v0.0423l0.29631 0.2961h0.04233l0.04233 0.0423 0.08467 0.0423h0.04233l0.08466 0.0846h0.127l0.08467 0.0423h0.46567l0.04233-0.0423h0.127l0.04233-0.0423 0.08467-0.0423h0.04233l0.08466-0.0846h0.04233l0.08467-0.0423 0.12699-0.1269v-0.0423l0.12699-0.1269 0.04233-0.0847v-0.0423l0.04233-0.0423v-0.0423l0.04233-0.0847v-0.0847l0.04233-0.0847v-0.381l-0.04233-0.0423v-0.127l-0.04233-0.0423v-0.0423l-0.04233-0.0847v-0.0423l-0.16932-0.1692v-0.0423l-0.12699-0.1269-0.08467-0.0423-0.08466-0.0846h-0.04233l-0.04233-0.0423h-0.08467l-0.04233-0.0423h-0.04233l-0.08467-0.0423h-0.08467l-0.08467-0.0423h-0.127"/>
   <path d="m30.823 206.87h-0.16933l-0.04233 0.0423h-0.127l-0.08467 0.0423h-0.04233l-0.08466 0.0846h-0.08467l-0.12699 0.1269h-0.04233l-0.12699 0.1269-0.04233 0.0847-0.04233 0.0423v0.0423l-0.08466 0.0846v0.0423l-0.04233 0.0847v0.0423l-0.04233 0.0423v0.635l0.04233 0.0423v0.0423l0.04233 0.0847v0.0423l0.08466 0.0846v0.0423l0.04233 0.0847 0.16932 0.1692h0.04233l0.12699 0.1269 0.08467 0.0423h0.04233l0.04233 0.0423h0.04233l0.08467 0.0423h0.127l0.04233 0.0423h0.381l0.04233-0.0423h0.127l0.04233-0.0423h0.04233l0.08467-0.0423h0.04233l0.12699-0.1269 0.08467-0.0423h0.04233l0.08466-0.0846v-0.0423l0.04233-0.0423 0.04233-0.0847 0.08466-0.0846v-0.0423l0.04233-0.0423v-0.0847l0.04233-0.0423v-0.127l0.04233-0.0423v-0.381l-0.04233-0.0423v-0.127l-0.04233-0.0423v-0.0847l-0.04233-0.0423v-0.0423l-0.12699-0.1269-0.04233-0.0847v-0.0423l-0.08466-0.0846h-0.04233l-0.08467-0.0423-0.08466-0.0846h-0.04233l-0.04233-0.0423-0.08467-0.0423h-0.04233l-0.04233-0.0423h-0.127l-0.04233-0.0423h-0.21167"/>
   <path d="m30.823 209.87h-0.21167l-0.08467 0.0423h-0.04233l-0.08467 0.0423h-0.04233l-0.04233 0.0423h-0.04233l-0.08467 0.0423-0.04233 0.0423h-0.04233l-0.29631 0.2961v0.0847l-0.08466 0.0846v0.0423l-0.04233 0.0847v0.0423l-0.04233 0.0423v0.59267l0.04233 0.0847v0.0423l0.04233 0.0423v0.0847l0.08466 0.0846v0.0423l0.38097 0.3807h0.08467l0.08466 0.0846h0.127l0.04233 0.0423h0.127l0.04233 0.0423h0.254l0.08467-0.0423h0.08467l0.08467-0.0423h0.08467l0.08467-0.0423 0.04233-0.0423h0.04233l0.08466-0.0846 0.08467-0.0423 0.12699-0.1269v-0.0423l0.16932-0.1692v-0.0423l0.04233-0.0847v-0.0423l0.04233-0.0423v-0.127l0.04233-0.0423v-0.381l-0.04233-0.0423v-0.127l-0.04233-0.0423v-0.0847l-0.04233-0.0423v-0.0423l-0.04233-0.0423-0.04233-0.0847-0.08466-0.0846v-0.0423l-0.12699-0.1269-0.08467-0.0423h-0.04233l-0.08466-0.0846h-0.04233l-0.08467-0.0423h-0.04233l-0.04233-0.0423h-0.08467l-0.04233-0.0423h-0.254"/>
  </g>
  <path d="m30.823 212.88h-0.29633l-0.04233 0.0423h-0.08467l-0.04233 0.0423h-0.04233l-0.04233 0.0423-0.08467 0.0423h-0.04233l-0.33864 0.3384v0.0423l-0.04233 0.0423-0.04233 0.0847v0.0423l-0.04233 0.0423v0.0847l-0.04233 0.0423v0.59267l0.04233 0.0847v0.0423l0.04233 0.0423v0.0423l0.04233 0.0847 0.04233 0.0423v0.0423l0.33864 0.3384h0.04233l0.08467 0.0423 0.04233 0.0423h0.04233l0.04233 0.0423h0.08467l0.04233 0.0423h0.59267l0.08467-0.0423h0.04233l0.04233-0.0423h0.08467l0.08466-0.0846h0.04233l0.04233-0.0423 0.08467-0.0423 0.12699-0.1269v-0.0423l0.16932-0.1692v-0.0847l0.04233-0.0423v-0.0423l0.04233-0.0423v-0.127l0.04233-0.0847v-0.33867l-0.04233-0.0847v-0.0847l-0.04233-0.0847v-0.0423l-0.04233-0.0423v-0.0847l-0.16932-0.1692v-0.0423l-0.12699-0.1269-0.08467-0.0423-0.04233-0.0423h-0.04233l-0.08466-0.0846h-0.08467l-0.04233-0.0423h-0.04233l-0.08467-0.0423h-0.29633" fill="#fff"/>
  <path d="m30.823 215.84h-0.127l-0.04233 0.0423h-0.127l-0.04233 0.0423h-0.08467l-0.04233 0.0423h-0.04233l-0.04233 0.0423h-0.08467l-0.38097 0.3807v0.0423l-0.08466 0.0846v0.0847l-0.04233 0.0423v0.0423l-0.04233 0.0847v0.59267l0.04233 0.0423v0.0847l0.04233 0.0423v0.0423l0.04233 0.0423 0.04233 0.0847v0.0423l0.29631 0.2961h0.04233l0.04233 0.0423 0.08467 0.0423h0.04233l0.08466 0.0846h0.127l0.08467 0.0423h0.46567l0.04233-0.0423h0.127l0.04233-0.0423 0.08467-0.0423h0.04233l0.08466-0.0846h0.04233l0.08467-0.0423 0.12699-0.1269v-0.0423l0.12699-0.1269 0.04233-0.0847v-0.0423l0.04233-0.0423v-0.0423l0.04233-0.0847v-0.0847l0.04233-0.0847v-0.381l-0.04233-0.0423v-0.127l-0.04233-0.0423v-0.0423l-0.04233-0.0847v-0.0423l-0.16932-0.1692v-0.0423l-0.12699-0.1269-0.08467-0.0423-0.08466-0.0846h-0.04233l-0.04233-0.0423h-0.08467l-0.04233-0.0423h-0.04233l-0.08467-0.0423h-0.08467l-0.08467-0.0423h-0.127" fill="#848382"/>
  <path d="m30.823 221.85h-0.21167l-0.08467 0.0423h-0.04233l-0.08467 0.0423h-0.04233l-0.04233 0.0423h-0.04233l-0.08467 0.0423-0.04233 0.0423h-0.04233l-0.29631 0.2961v0.0847l-0.08466 0.0846v0.0423l-0.04233 0.0423v0.0847l-0.04233 0.0423v0.59267l0.04233 0.0847v0.0423l0.04233 0.0423v0.0847l0.08466 0.0846v0.0423l0.38097 0.3807h0.08467l0.08466 0.0846h0.127l0.04233 0.0423h0.127l0.04233 0.0423h0.254l0.08467-0.0423h0.08467l0.08467-0.0423h0.08467l0.08467-0.0423 0.04233-0.0423h0.04233l0.08466-0.0846 0.08467-0.0423 0.12699-0.1269v-0.0423l0.16932-0.1692v-0.0423l0.04233-0.0847v-0.0423l0.04233-0.0423v-0.127l0.04233-0.0423v-0.381l-0.04233-0.0423v-0.127l-0.04233-0.0847v-0.0423l-0.04233-0.0423v-0.0423l-0.04233-0.0423-0.04233-0.0847-0.08466-0.0846v-0.0423l-0.12699-0.1269-0.08467-0.0423h-0.04233l-0.08466-0.0846h-0.04233l-0.08467-0.0423h-0.04233l-0.04233-0.0423h-0.08467l-0.04233-0.0423h-0.254" fill="#848382"/>
  <path d="m30.823 224.86h-0.29633l-0.04233 0.0423h-0.08467l-0.04233 0.0423h-0.04233l-0.04233 0.0423-0.08467 0.0423h-0.04233l-0.33864 0.3384v0.0423l-0.04233 0.0423-0.04233 0.0847v0.0423l-0.04233 0.0423v0.0847l-0.04233 0.0423v0.59267l0.04233 0.0423v0.0847l0.04233 0.0423v0.0423l0.04233 0.0847 0.04233 0.0423v0.0423l0.33864 0.3384h0.04233l0.08467 0.0423 0.04233 0.0423h0.04233l0.04233 0.0423h0.08467l0.04233 0.0423h0.254l0.04233 0.0423 0.08467-0.0423h0.21167l0.08467-0.0423h0.04233l0.04233-0.0423h0.08467l0.08466-0.0846h0.04233l0.04233-0.0423 0.08467-0.0423 0.12699-0.1269v-0.0423l0.16932-0.1692v-0.0847l0.04233-0.0423v-0.0423l0.04233-0.0847v-0.0847l0.04233-0.0847v-0.33867l-0.04233-0.0847v-0.0847l-0.04233-0.0847v-0.0423l-0.04233-0.0423v-0.0847l-0.16932-0.1692v-0.0423l-0.12699-0.1269-0.08467-0.0423-0.04233-0.0423h-0.04233l-0.08466-0.0846h-0.08467l-0.04233-0.0423h-0.04233l-0.08467-0.0423h-0.29633" fill="#fff"/>
  <path d="m30.823 218.85h-0.16933l-0.04233 0.0423h-0.127l-0.08467 0.0423h-0.04233l-0.04233 0.0423h-0.04233l-0.08467 0.0423-0.12699 0.1269h-0.04233l-0.12699 0.1269-0.04233 0.0847-0.04233 0.0423v0.0423l-0.08466 0.0846v0.0423l-0.04233 0.0847v0.0423l-0.04233 0.0423v0.635l0.04233 0.0423v0.0423l0.04233 0.0847v0.0423l0.08466 0.0846v0.0423l0.04233 0.0847 0.21165 0.2115h0.04233l0.08466 0.0846 0.08467 0.0423h0.04233l0.04233 0.0423h0.04233l0.08467 0.0423h0.127l0.04233 0.0423h0.381l0.04233-0.0423h0.127l0.04233-0.0423h0.04233l0.08467-0.0423h0.04233l0.12699-0.1269h0.08467l0.12699-0.1269v-0.0423l0.04233-0.0423 0.04233-0.0847 0.08466-0.0846v-0.0423l0.04233-0.0423v-0.0847l0.04233-0.0423v-0.127l0.04233-0.0423v-0.381l-0.04233-0.0423v-0.127l-0.04233-0.0423v-0.0847l-0.04233-0.0423v-0.0423l-0.12699-0.1269-0.04233-0.0847v-0.0423l-0.08466-0.0846h-0.04233l-0.08467-0.0423-0.12699-0.1269h-0.04233l-0.08467-0.0423h-0.04233l-0.04233-0.0423h-0.127l-0.04233-0.0423h-0.21167" fill="#848382"/>
  <path d="m27.817 200.9h-0.33867l-0.04233 0.0423h-0.04233l-0.08467 0.0423h-0.04233l-0.08466 0.0846h-0.08467l-0.29631 0.2961v0.0423l-0.08466 0.0846v0.0847l-0.04233 0.0423v0.0423l-0.04233 0.0847v0.0423l-0.04233 0.0423v0.508l0.04233 0.0423v0.0423l0.04233 0.0847v0.0423l0.04233 0.0423v0.0847l0.08466 0.0846v0.0423l0.29631 0.2961h0.08467l0.08466 0.0846h0.04233l0.08467 0.0423h0.04233l0.04233 0.0423h0.254l0.08467 0.0423 0.04233-0.0423h0.254l0.04233-0.0423h0.04233l0.08467-0.0423h0.04233l0.08466-0.0846h0.08467l0.29631-0.2961v-0.0423l0.08466-0.0846v-0.0847l0.08466-0.0846v-0.127l0.04233-0.0423v-0.508l-0.04233-0.0423v-0.127l-0.08466-0.0846v-0.0847l-0.08466-0.0846v-0.0423l-0.29631-0.2961h-0.08467l-0.08466-0.0846h-0.04233l-0.08467-0.0423h-0.04233l-0.04233-0.0423h-0.29633" fill="#fff"/>
  <g fill="#848382">
   <path d="m27.817 203.86h-0.127l-0.08467 0.0423h-0.127l-0.04233 0.0423h-0.04233l-0.08467 0.0423h-0.04233l-0.04233 0.0423h-0.04233l-0.08467 0.0423-0.29631 0.2961v0.0423l-0.08466 0.0846v0.0423l-0.04233 0.0847v0.0423l-0.04233 0.0423v0.0847l-0.04233 0.0423v0.508l0.04233 0.0423v0.0423l0.04233 0.0847v0.0423l0.04233 0.0423v0.0423l0.04233 0.0847 0.04233 0.0423v0.0423l0.25398 0.2538h0.04233l0.08467 0.0423 0.04233 0.0423h0.04233l0.04233 0.0423 0.08467 0.0423h0.08467l0.08467 0.0423h0.46567l0.08467-0.0423h0.08467l0.08467-0.0423 0.04233-0.0423h0.04233l0.04233-0.0423 0.08467-0.0423h0.04233l0.25398-0.2538v-0.0423l0.04233-0.0423 0.04233-0.0847v-0.0423l0.08466-0.0846v-0.127l0.04233-0.0423v-0.508l-0.04233-0.0423v-0.127l-0.04233-0.0423-0.04233-0.0847v-0.0423l-0.08466-0.0846v-0.0423l-0.29631-0.2961-0.08467-0.0423h-0.04233l-0.04233-0.0423h-0.04233l-0.08467-0.0423h-0.04233l-0.04233-0.0423h-0.127l-0.08467-0.0423h-0.08467"/>
   <path d="m27.817 206.87h-0.21167l-0.04233 0.0423h-0.127l-0.04233 0.0423h-0.08467l-0.08466 0.0846h-0.04233l-0.08467 0.0423-0.08466 0.0846h-0.04233l-0.12699 0.1269-0.04233 0.0847v0.0423l-0.08466 0.0846v0.0423l-0.04233 0.0423v0.0847l-0.04233 0.0423v0.0423l-0.04233 0.0847v0.46566l0.04233 0.0847v0.0423l0.04233 0.0423v0.0847l0.04233 0.0423v0.0423l0.08466 0.0846v0.0847l0.16932 0.1692h0.04233l0.08466 0.0846 0.08467 0.0423 0.04233 0.0423h0.04233l0.04233 0.0423h0.08467l0.04233 0.0423h0.127l0.04233 0.0423h0.381l0.04233-0.0423h0.127l0.04233-0.0423h0.08467l0.04233-0.0423h0.04233l0.04233-0.0423 0.08467-0.0423 0.08466-0.0846h0.04233l0.16932-0.1692v-0.0847l0.08466-0.0846v-0.0423l0.04233-0.0423 0.04233-0.0847v-0.0847l0.04233-0.0847v-0.46566l-0.04233-0.0847v-0.0847l-0.04233-0.0847-0.04233-0.0423v-0.0423l-0.08466-0.0846v-0.0423l-0.04233-0.0847-0.12699-0.1269h-0.04233l-0.08466-0.0846-0.08467-0.0423h-0.04233l-0.08466-0.0846h-0.08467l-0.04233-0.0423h-0.127l-0.04233-0.0423h-0.16933"/>
   <path d="m27.817 209.87h-0.254l-0.08467 0.0423h-0.04233l-0.04233 0.0423h-0.08467l-0.04233 0.0423h-0.04233l-0.04233 0.0423-0.08467 0.0423h-0.04233l-0.25398 0.2538v0.0423l-0.04233 0.0847-0.04233 0.0423v0.0423l-0.04233 0.0423v0.0847l-0.04233 0.0423v0.0423l-0.04233 0.0847v0.46566l0.04233 0.0423v0.0847l0.04233 0.0423v0.0423l0.04233 0.0847v0.0423l0.08466 0.0846v0.0423l0.29631 0.2961 0.08467 0.0423h0.04233l0.08466 0.0846h0.127l0.04233 0.0423h0.127l0.08467 0.0423h0.21167l0.08467-0.0423h0.127l0.04233-0.0423h0.127l0.08466-0.0846h0.04233l0.08467-0.0423 0.29631-0.2961v-0.0423l0.08466-0.0846v-0.0423l0.04233-0.0847 0.04233-0.0423v-0.127l0.04233-0.0423v-0.46566l-0.04233-0.0847v-0.0847l-0.04233-0.0847-0.04233-0.0423v-0.0423l-0.04233-0.0423-0.04233-0.0847v-0.0423l-0.25398-0.2538h-0.04233l-0.08467-0.0423-0.04233-0.0423h-0.04233l-0.04233-0.0423h-0.08467l-0.04233-0.0423h-0.04233l-0.08467-0.0423h-0.21167"/>
  </g>
  <path d="m27.817 212.88h-0.33867l-0.04233 0.0423h-0.04233l-0.08467 0.0423h-0.04233l-0.08466 0.0846h-0.08467l-0.29631 0.2961v0.0423l-0.08466 0.0846v0.0847l-0.04233 0.0423v0.0423l-0.04233 0.0847v0.0423l-0.04233 0.0423v0.508l0.04233 0.0423v0.0847l0.04233 0.0423v0.0423l0.04233 0.0423v0.0847l0.08466 0.0846v0.0423l0.29631 0.2961h0.08467l0.08466 0.0846h0.04233l0.08467 0.0423h0.04233l0.04233 0.0423h0.635l0.04233-0.0423h0.04233l0.08467-0.0423h0.04233l0.08466-0.0846h0.08467l0.29631-0.2961v-0.0423l0.08466-0.0846v-0.0847l0.08466-0.0846v-0.127l0.04233-0.0423v-0.508l-0.04233-0.0423v-0.127l-0.08466-0.0846v-0.0847l-0.08466-0.0846v-0.0423l-0.29631-0.2961h-0.08467l-0.08466-0.0846h-0.04233l-0.08467-0.0423h-0.04233l-0.04233-0.0423h-0.29633" fill="#fff"/>
  <path d="m27.817 215.84h-0.127l-0.08467 0.0423h-0.127l-0.04233 0.0423h-0.04233l-0.08467 0.0423h-0.04233l-0.04233 0.0423h-0.04233l-0.08467 0.0423-0.29631 0.2961v0.0423l-0.08466 0.0846v0.0423l-0.04233 0.0847v0.0423l-0.04233 0.0423v0.0847l-0.04233 0.0423v0.508l0.04233 0.0423v0.0423l0.04233 0.0847v0.0423l0.04233 0.0423v0.0423l0.04233 0.0847 0.04233 0.0423v0.0423l0.25398 0.2538h0.04233l0.08467 0.0423 0.04233 0.0423h0.04233l0.04233 0.0423 0.08467 0.0423h0.08467l0.08467 0.0423h0.46567l0.08467-0.0423h0.08467l0.08467-0.0423 0.04233-0.0423h0.04233l0.04233-0.0423 0.08467-0.0423h0.04233l0.25398-0.2538v-0.0423l0.04233-0.0423 0.04233-0.0847v-0.0423l0.08466-0.0846v-0.127l0.04233-0.0423v-0.508l-0.04233-0.0423v-0.127l-0.04233-0.0423-0.04233-0.0847v-0.0423l-0.08466-0.0846v-0.0423l-0.29631-0.2961-0.08467-0.0423h-0.04233l-0.04233-0.0423h-0.04233l-0.08467-0.0423h-0.04233l-0.04233-0.0423h-0.127l-0.08467-0.0423h-0.08467" fill="#848382"/>
  <path d="m27.817 221.85h-0.254l-0.08467 0.0423h-0.04233l-0.04233 0.0423h-0.08467l-0.04233 0.0423h-0.04233l-0.04233 0.0423-0.08467 0.0423h-0.04233l-0.25398 0.2538v0.0423l-0.04233 0.0847-0.04233 0.0423v0.0423l-0.04233 0.0423v0.0423l-0.04233 0.0847v0.0423l-0.04233 0.0847v0.46566l0.04233 0.0423v0.0847l0.04233 0.0423v0.0423l0.04233 0.0847v0.0423l0.08466 0.0846v0.0423l0.29631 0.2961 0.08467 0.0423h0.04233l0.08466 0.0846h0.127l0.04233 0.0423h0.127l0.08467 0.0423h0.21167l0.08467-0.0423h0.127l0.04233-0.0423h0.127l0.08466-0.0846h0.04233l0.08467-0.0423 0.29631-0.2961v-0.0423l0.08466-0.0846v-0.0423l0.04233-0.0847 0.04233-0.0423v-0.127l0.04233-0.0423v-0.46566l-0.04233-0.0847v-0.127l-0.08466-0.0846v-0.0423l-0.04233-0.0423-0.04233-0.0847v-0.0423l-0.25398-0.2538h-0.04233l-0.08467-0.0423-0.04233-0.0423h-0.04233l-0.04233-0.0423h-0.08467l-0.04233-0.0423h-0.04233l-0.08467-0.0423h-0.21167" fill="#848382"/>
  <path d="m27.817 224.86h-0.33867l-0.04233 0.0423h-0.04233l-0.08467 0.0423h-0.04233l-0.08466 0.0846h-0.08467l-0.29631 0.2961v0.0423l-0.08466 0.0846v0.0847l-0.04233 0.0423v0.0423l-0.04233 0.0847v0.0423l-0.04233 0.0423v0.508l0.04233 0.0423v0.0423l0.04233 0.0847v0.0423l0.04233 0.0423v0.0847l0.08466 0.0846v0.0423l0.29631 0.2961h0.08467l0.08466 0.0846h0.04233l0.08467 0.0423h0.04233l0.04233 0.0423h0.254l0.08467 0.0423 0.04233-0.0423h0.254l0.04233-0.0423h0.04233l0.08467-0.0423h0.04233l0.08466-0.0846h0.08467l0.29631-0.2961v-0.0423l0.08466-0.0846v-0.0847l0.08466-0.0846v-0.127l0.04233-0.0423v-0.508l-0.04233-0.0423v-0.127l-0.08466-0.0846v-0.0847l-0.08466-0.0846v-0.0423l-0.29631-0.2961h-0.08467l-0.08466-0.0846h-0.04233l-0.08467-0.0423h-0.04233l-0.04233-0.0423h-0.29633" fill="#fff"/>
  <path d="m27.817 218.85h-0.21167l-0.04233 0.0423h-0.127l-0.04233 0.0423h-0.08467l-0.04233 0.0423h-0.04233l-0.04233 0.0423-0.08467 0.0423-0.08466 0.0846h-0.04233l-0.12699 0.1269-0.04233 0.0847v0.0423l-0.08466 0.0846v0.0423l-0.04233 0.0423v0.0847l-0.04233 0.0423v0.0423l-0.04233 0.0847v0.46566l0.04233 0.0847v0.0423l0.04233 0.0423v0.0847l0.04233 0.0423v0.0423l0.08466 0.0846v0.0847l0.21165 0.2115h0.04233l0.04233 0.0423 0.08467 0.0423 0.04233 0.0423h0.04233l0.04233 0.0423h0.08467l0.04233 0.0423h0.127l0.04233 0.0423h0.381l0.04233-0.0423h0.127l0.04233-0.0423h0.08467l0.04233-0.0423h0.04233l0.04233-0.0423 0.08467-0.0423 0.04233-0.0423h0.04233l0.21165-0.2115v-0.0847l0.08466-0.0846v-0.0423l0.04233-0.0423 0.04233-0.0847v-0.0847l0.04233-0.0847v-0.46566l-0.04233-0.0847v-0.0847l-0.04233-0.0847-0.04233-0.0423v-0.0423l-0.08466-0.0846v-0.0423l-0.04233-0.0847-0.12699-0.1269h-0.04233l-0.08466-0.0846-0.08467-0.0423-0.04233-0.0423h-0.04233l-0.04233-0.0423h-0.08467l-0.04233-0.0423h-0.127l-0.04233-0.0423h-0.16933" fill="#848382"/>
  <path d="m24.769 200.9h-0.29633l-0.08467 0.0423h-0.04233l-0.04233 0.0423h-0.08467l-0.08466 0.0846h-0.04233l-0.04233 0.0423-0.08467 0.0423-0.08466 0.0846v0.0423l-0.21165 0.2115v0.0847l-0.04233 0.0423v0.0423l-0.04233 0.0847v0.0847l-0.04233 0.0847v0.33867l0.04233 0.0847v0.0847l0.04233 0.0847v0.0423l0.04233 0.0423v0.0847l0.21165 0.2115v0.0423l0.08466 0.0846 0.08467 0.0423 0.04233 0.0423h0.04233l0.08466 0.0846h0.08467l0.04233 0.0423h0.04233l0.08467 0.0423h0.21167l0.08467 0.0423 0.04233-0.0423h0.254l0.04233-0.0423h0.08467l0.04233-0.0423h0.04233l0.04233-0.0423 0.08467-0.0423h0.04233l0.33864-0.3384v-0.0423l0.04233-0.0423 0.04233-0.0847v-0.0423l0.04233-0.0423v-0.0847l0.04233-0.0423v-0.59267l-0.04233-0.0423v-0.0847l-0.04233-0.0423v-0.0423l-0.04233-0.0847-0.04233-0.0423v-0.0423l-0.33864-0.3384h-0.04233l-0.08467-0.0423-0.04233-0.0423h-0.04233l-0.04233-0.0423h-0.08467l-0.04233-0.0423h-0.29633" fill="#fff"/>
  <g fill="#848382">
   <path d="m24.769 203.86h-0.127l-0.08467 0.0423h-0.08467l-0.08467 0.0423h-0.04233l-0.04233 0.0423h-0.08467l-0.04233 0.0423h-0.04233l-0.08466 0.0846-0.08467 0.0423-0.08466 0.0846v0.0423l-0.21165 0.2115v0.0423l-0.04233 0.0847v0.0423l-0.04233 0.0423v0.127l-0.04233 0.0423v0.381l0.04233 0.0847v0.0847l0.04233 0.0847v0.0423l0.04233 0.0423v0.0423l0.04233 0.0847 0.16932 0.1692v0.0423l0.08466 0.0846 0.08467 0.0423h0.04233l0.08466 0.0846h0.04233l0.08467 0.0423 0.04233 0.0423h0.127l0.04233 0.0423h0.508l0.04233-0.0423h0.127l0.08466-0.0846h0.04233l0.08467-0.0423 0.04233-0.0423h0.04233l0.29631-0.2961v-0.0423l0.04233-0.0847 0.04233-0.0423v-0.0423l0.04233-0.0423v-0.0847l0.04233-0.0423v-0.59267l-0.04233-0.0847v-0.0423l-0.04233-0.0423v-0.0847l-0.08466-0.0846v-0.0423l-0.38097-0.3807h-0.08467l-0.04233-0.0423h-0.04233l-0.04233-0.0423h-0.08467l-0.04233-0.0423h-0.127l-0.04233-0.0423h-0.127"/>
   <path d="m24.769 206.87h-0.21167l-0.04233 0.0423h-0.127l-0.04233 0.0423h-0.04233l-0.08467 0.0423-0.04233 0.0423h-0.04233l-0.08466 0.0846-0.08467 0.0423h-0.04233l-0.04233 0.0423v0.0423l-0.04233 0.0423-0.04233 0.0847-0.12699 0.1269v0.0423l-0.04233 0.0423v0.0847l-0.04233 0.0423v0.127l-0.04233 0.0423v0.381l0.04233 0.0423v0.127l0.04233 0.0423v0.0847l0.04233 0.0423v0.0423l0.08466 0.0846 0.04233 0.0847 0.08466 0.0846v0.0423l0.04233 0.0423h0.04233l0.08467 0.0423 0.12699 0.1269h0.04233l0.08467 0.0423h0.04233l0.04233 0.0423h0.127l0.04233 0.0423h0.381l0.08467-0.0423h0.08467l0.08467-0.0423h0.04233l0.04233-0.0423h0.04233l0.08467-0.0423 0.12699-0.1269h0.04233l0.16932-0.1692 0.04233-0.0847v-0.0423l0.08466-0.0846v-0.0423l0.04233-0.0847v-0.0423l0.04233-0.0423v-0.635l-0.04233-0.0423v-0.0423l-0.04233-0.0847v-0.0423l-0.08466-0.0846v-0.0423l-0.04233-0.0423-0.04233-0.0847-0.12699-0.1269h-0.04233l-0.12699-0.1269h-0.08467l-0.08466-0.0846h-0.04233l-0.08467-0.0423h-0.08467l-0.08467-0.0423h-0.16933"/>
   <path d="m24.769 209.87h-0.254l-0.04233 0.0423h-0.08467l-0.04233 0.0423h-0.04233l-0.08467 0.0423h-0.04233l-0.08466 0.0846h-0.04233l-0.08467 0.0423-0.08466 0.0846v0.0423l-0.12699 0.1269-0.04233 0.0847-0.04233 0.0423v0.0423l-0.04233 0.0423v0.0847l-0.04233 0.0423v0.127l-0.04233 0.0423v0.381l0.04233 0.0423v0.127l0.04233 0.0423v0.0423l0.04233 0.0847v0.0423l0.21165 0.2115v0.0423l0.08466 0.0846 0.08467 0.0423 0.08466 0.0846h0.04233l0.04233 0.0423 0.08467 0.0423h0.08467l0.08467 0.0423h0.08467l0.08467 0.0423h0.254l0.04233-0.0423h0.127l0.04233-0.0423h0.127l0.08466-0.0846h0.08467l0.38097-0.3807v-0.0423l0.08466-0.0846v-0.0847l0.04233-0.0423v-0.0423l0.04233-0.0847v-0.59267l-0.04233-0.0423v-0.0423l-0.04233-0.0847v-0.0423l-0.08466-0.0846v-0.0847l-0.29631-0.2961h-0.04233l-0.04233-0.0423-0.08467-0.0423h-0.04233l-0.04233-0.0423h-0.04233l-0.08467-0.0423h-0.04233l-0.04233-0.0423h-0.254"/>
  </g>
  <path d="m24.769 212.88h-0.29633l-0.08467 0.0423h-0.04233l-0.04233 0.0423h-0.08467l-0.08466 0.0846h-0.04233l-0.04233 0.0423-0.08467 0.0423-0.08466 0.0846v0.0423l-0.21165 0.2115v0.0847l-0.04233 0.0423v0.0423l-0.04233 0.0847v0.0847l-0.04233 0.0847v0.33867l0.04233 0.0847v0.127l0.04233 0.0423v0.0423l0.04233 0.0423v0.0847l0.21165 0.2115v0.0423l0.08466 0.0846 0.08467 0.0423 0.04233 0.0423h0.04233l0.08466 0.0846h0.08467l0.04233 0.0423h0.04233l0.08467 0.0423h0.59267l0.04233-0.0423h0.08467l0.04233-0.0423h0.04233l0.04233-0.0423 0.08467-0.0423h0.04233l0.33864-0.3384v-0.0423l0.04233-0.0423 0.04233-0.0847v-0.0423l0.04233-0.0423v-0.0423l0.04233-0.0847v-0.59267l-0.04233-0.0423v-0.0847l-0.04233-0.0423v-0.0423l-0.04233-0.0847-0.04233-0.0423v-0.0423l-0.33864-0.3384h-0.04233l-0.08467-0.0423-0.04233-0.0423h-0.04233l-0.04233-0.0423h-0.08467l-0.04233-0.0423h-0.29633" fill="#fff"/>
  <path d="m24.769 215.84h-0.127l-0.08467 0.0423h-0.08467l-0.08467 0.0423h-0.04233l-0.04233 0.0423h-0.08467l-0.04233 0.0423h-0.04233l-0.08466 0.0846-0.08467 0.0423-0.08466 0.0846v0.0423l-0.21165 0.2115v0.0423l-0.04233 0.0847v0.0423l-0.04233 0.0423v0.127l-0.04233 0.0423v0.381l0.04233 0.0847v0.0847l0.04233 0.0847v0.0423l0.04233 0.0423v0.0423l0.04233 0.0847 0.16932 0.1692v0.0423l0.08466 0.0846 0.08467 0.0423h0.04233l0.08466 0.0846h0.04233l0.08467 0.0423 0.04233 0.0423h0.127l0.04233 0.0423h0.508l0.04233-0.0423h0.127l0.08466-0.0846h0.04233l0.08467-0.0423 0.04233-0.0423h0.04233l0.29631-0.2961v-0.0423l0.04233-0.0847 0.04233-0.0423v-0.0423l0.04233-0.0423v-0.0847l0.04233-0.0423v-0.59267l-0.04233-0.0847v-0.0423l-0.04233-0.0423v-0.0847l-0.08466-0.0846v-0.0423l-0.38097-0.3807h-0.08467l-0.04233-0.0423h-0.04233l-0.04233-0.0423h-0.08467l-0.04233-0.0423h-0.127l-0.04233-0.0423h-0.127" fill="#848382"/>
  <path d="m24.769 221.85h-0.254l-0.04233 0.0423h-0.08467l-0.04233 0.0423h-0.04233l-0.08467 0.0423h-0.04233l-0.08466 0.0846h-0.04233l-0.08467 0.0423-0.08466 0.0846v0.0423l-0.12699 0.1269-0.04233 0.0847-0.04233 0.0423v0.0423l-0.04233 0.0423v0.0423l-0.04233 0.0847v0.127l-0.04233 0.0423v0.381l0.04233 0.0423v0.127l0.04233 0.0423v0.0423l0.04233 0.0847v0.0423l0.21165 0.2115v0.0423l0.08466 0.0846 0.08467 0.0423 0.08466 0.0846h0.04233l0.04233 0.0423 0.08467 0.0423h0.08467l0.08467 0.0423h0.08467l0.08467 0.0423h0.254l0.04233-0.0423h0.127l0.04233-0.0423h0.127l0.08466-0.0846h0.08467l0.38097-0.3807v-0.0423l0.08466-0.0846v-0.0847l0.04233-0.0423v-0.0423l0.04233-0.0847v-0.59267l-0.04233-0.0423v-0.0847l-0.04233-0.0423v-0.0423l-0.08466-0.0846v-0.0847l-0.29631-0.2961h-0.04233l-0.04233-0.0423-0.08467-0.0423h-0.04233l-0.04233-0.0423h-0.04233l-0.08467-0.0423h-0.04233l-0.04233-0.0423h-0.254" fill="#848382"/>
  <path d="m24.769 224.86h-0.29633l-0.08467 0.0423h-0.04233l-0.04233 0.0423h-0.08467l-0.08466 0.0846h-0.04233l-0.04233 0.0423-0.08467 0.0423-0.08466 0.0846v0.0423l-0.21165 0.2115v0.0847l-0.04233 0.0423v0.0423l-0.04233 0.0847v0.0847l-0.04233 0.0847v0.33867l0.04233 0.0847v0.0847l0.04233 0.0847v0.0423l0.04233 0.0423v0.0847l0.21165 0.2115v0.0423l0.08466 0.0846 0.08467 0.0423 0.04233 0.0423h0.04233l0.08466 0.0846h0.08467l0.04233 0.0423h0.04233l0.08467 0.0423h0.21167l0.08467 0.0423 0.04233-0.0423h0.254l0.04233-0.0423h0.08467l0.04233-0.0423h0.04233l0.04233-0.0423 0.08467-0.0423h0.04233l0.33864-0.3384v-0.0423l0.04233-0.0423 0.04233-0.0847v-0.0423l0.04233-0.0423v-0.0847l0.04233-0.0423v-0.59267l-0.04233-0.0423v-0.0847l-0.04233-0.0423v-0.0423l-0.04233-0.0847-0.04233-0.0423v-0.0423l-0.33864-0.3384h-0.04233l-0.08467-0.0423-0.04233-0.0423h-0.04233l-0.04233-0.0423h-0.08467l-0.04233-0.0423h-0.29633" fill="#fff"/>
  <path d="m24.769 218.85h-0.21167l-0.04233 0.0423h-0.127l-0.04233 0.0423h-0.04233l-0.08467 0.0423h-0.04233l-0.12699 0.1269-0.08467 0.0423h-0.04233l-0.04233 0.0423v0.0423l-0.04233 0.0423-0.04233 0.0847-0.12699 0.1269v0.0423l-0.04233 0.0423v0.0847l-0.04233 0.0423v0.127l-0.04233 0.0423v0.381l0.04233 0.0423v0.127l0.04233 0.0423v0.0847l0.04233 0.0423v0.0423l0.08466 0.0846 0.04233 0.0847 0.08466 0.0846v0.0423l0.08466 0.0846h0.08467l0.12699 0.1269h0.04233l0.08467 0.0423h0.04233l0.04233 0.0423h0.127l0.04233 0.0423h0.381l0.08467-0.0423h0.08467l0.08467-0.0423h0.04233l0.04233-0.0423h0.04233l0.08467-0.0423 0.08466-0.0846h0.04233l0.21165-0.2115 0.04233-0.0847v-0.0423l0.08466-0.0846v-0.0423l0.04233-0.0847v-0.0423l0.04233-0.0423v-0.635l-0.04233-0.0423v-0.0423l-0.04233-0.0847v-0.0423l-0.08466-0.0846v-0.0423l-0.04233-0.0423-0.04233-0.0847-0.12699-0.1269h-0.04233l-0.12699-0.1269-0.08467-0.0423h-0.04233l-0.04233-0.0423h-0.04233l-0.08467-0.0423h-0.08467l-0.08467-0.0423h-0.16933" fill="#848382"/>
  <path d="m21.721 200.9h-0.29633l-0.08467 0.0423h-0.04233l-0.04233 0.0423h-0.04233l-0.08467 0.0423-0.04233 0.0423h-0.04233l-0.38097 0.3807v0.0423l-0.04233 0.0847v0.0423l-0.04233 0.0423v0.0847l-0.04233 0.0423v0.127l-0.04233 0.0423v0.254l0.04233 0.0423v0.127l0.04233 0.0423v0.0847l0.04233 0.0423v0.0423l0.04233 0.0847v0.0423l0.38097 0.3807h0.04233l0.04233 0.0423 0.08467 0.0423h0.04233l0.04233 0.0423h0.04233l0.08467 0.0423h0.254l0.04233 0.0423 0.04233-0.0423h0.254l0.08467-0.0423h0.04233l0.04233-0.0423h0.04233l0.08467-0.0423 0.04233-0.0423h0.04233l0.38097-0.3807v-0.0423l0.04233-0.0847v-0.0423l0.04233-0.0423v-0.0847l0.04233-0.0423v-0.127l0.04233-0.0423v-0.254l-0.04233-0.0423v-0.127l-0.04233-0.0423v-0.0847l-0.04233-0.0423v-0.0423l-0.04233-0.0847v-0.0423l-0.38097-0.3807h-0.04233l-0.04233-0.0423-0.08467-0.0423h-0.04233l-0.04233-0.0423h-0.04233l-0.08467-0.0423h-0.29633" fill="#fff"/>
  <g fill="#848382">
   <path d="m21.721 203.86h-0.127l-0.04233 0.0423h-0.127l-0.08467 0.0423h-0.04233l-0.04233 0.0423h-0.04233l-0.08467 0.0423h-0.04233l-0.4233 0.423v0.0423l-0.04233 0.0423v0.0847l-0.04233 0.0423v0.0423l-0.04233 0.0847v0.0847l-0.04233 0.0847v0.254l0.04233 0.0423v0.127l0.04233 0.0423v0.0847l0.04233 0.0423v0.0423l0.04233 0.0423v0.0847l0.33864 0.3384h0.04233l0.08466 0.0846h0.08467l0.08466 0.0846h0.127l0.04233 0.0423h0.508l0.04233-0.0423h0.127l0.08466-0.0846h0.08467l0.08466-0.0846h0.04233l0.33864-0.3384v-0.0847l0.04233-0.0423v-0.0423l0.04233-0.0423v-0.0847l0.04233-0.0423v-0.127l0.04233-0.0423v-0.254l-0.04233-0.0847v-0.0847l-0.04233-0.0847v-0.0423l-0.04233-0.0423v-0.0847l-0.04233-0.0423v-0.0423l-0.4233-0.423h-0.04233l-0.08467-0.0423h-0.04233l-0.04233-0.0423h-0.04233l-0.08467-0.0423h-0.127l-0.04233-0.0423h-0.127"/>
   <path d="m21.721 206.87h-0.16933l-0.08467 0.0423h-0.127l-0.04233 0.0423h-0.04233l-0.04233 0.0423-0.08467 0.0423h-0.04233l-0.12699 0.1269h-0.04233l-0.12699 0.1269-0.04233 0.0847-0.08466 0.0846v0.0423l-0.04233 0.0423v0.0423l-0.04233 0.0847v0.0423l-0.04233 0.0423v0.127l-0.04233 0.0847v0.21166l0.04233 0.0847v0.127l0.04233 0.0423v0.0423l0.04233 0.0847v0.0423l0.04233 0.0423v0.0423l0.04233 0.0423 0.04233 0.0847 0.16932 0.1692h0.04233l0.16932 0.1692h0.08467l0.04233 0.0423h0.04233l0.04233 0.0423h0.127l0.08467 0.0423h0.33867l0.08467-0.0423h0.127l0.04233-0.0423h0.04233l0.04233-0.0423h0.08467l0.16932-0.1692h0.04233l0.16932-0.1692 0.04233-0.0847 0.04233-0.0423v-0.0423l0.04233-0.0423v-0.0423l0.04233-0.0847v-0.0423l0.04233-0.0423v-0.127l0.04233-0.0847v-0.21166l-0.04233-0.0847v-0.127l-0.04233-0.0423v-0.0423l-0.04233-0.0847v-0.0423l-0.04233-0.0423v-0.0423l-0.08466-0.0846-0.04233-0.0847-0.12699-0.1269h-0.04233l-0.12699-0.1269h-0.04233l-0.08467-0.0423-0.04233-0.0423h-0.04233l-0.04233-0.0423h-0.127l-0.08467-0.0423h-0.16933"/>
   <path d="m21.721 209.87h-0.254l-0.04233 0.0423h-0.08467l-0.04233 0.0423h-0.04233l-0.04233 0.0423h-0.08467l-0.08466 0.0846h-0.04233l-0.29631 0.2961-0.04233 0.0847v0.0423l-0.04233 0.0423v0.0423l-0.04233 0.0847v0.0423l-0.04233 0.0423v0.127l-0.04233 0.0423v0.254l0.04233 0.0847v0.0847l0.04233 0.0847v0.0423l0.04233 0.0423v0.0847l0.04233 0.0423v0.0423l0.4233 0.423h0.04233l0.08467 0.0423 0.04233 0.0423h0.08467l0.08467 0.0423h0.127l0.04233 0.0423h0.254l0.04233-0.0423h0.127l0.08467-0.0423h0.08467l0.04233-0.0423 0.08467-0.0423h0.04233l0.4233-0.423v-0.0423l0.04233-0.0423v-0.0847l0.04233-0.0423v-0.0423l0.04233-0.0847v-0.0847l0.04233-0.0847v-0.254l-0.04233-0.0423v-0.127l-0.04233-0.0423v-0.0423l-0.04233-0.0847v-0.0423l-0.04233-0.0423v-0.0423l-0.04233-0.0847-0.29631-0.2961h-0.04233l-0.08466-0.0846h-0.08467l-0.04233-0.0423h-0.04233l-0.04233-0.0423h-0.08467l-0.04233-0.0423h-0.254"/>
  </g>
  <path d="m21.721 212.88h-0.29633l-0.08467 0.0423h-0.04233l-0.04233 0.0423h-0.04233l-0.08467 0.0423-0.04233 0.0423h-0.04233l-0.38097 0.3807v0.0423l-0.04233 0.0847v0.0423l-0.04233 0.0423v0.0847l-0.04233 0.0423v0.127l-0.04233 0.0423v0.254l0.04233 0.0423v0.127l0.04233 0.0847v0.0423l0.04233 0.0423v0.0423l0.04233 0.0847v0.0423l0.38097 0.3807h0.04233l0.04233 0.0423 0.08467 0.0423h0.04233l0.04233 0.0423h0.04233l0.08467 0.0423h0.59267l0.08467-0.0423h0.04233l0.04233-0.0423h0.04233l0.08467-0.0423 0.04233-0.0423h0.04233l0.38097-0.3807v-0.0423l0.04233-0.0847v-0.0423l0.04233-0.0423v-0.0423l0.04233-0.0847v-0.127l0.04233-0.0423v-0.254l-0.04233-0.0423v-0.127l-0.04233-0.0423v-0.0847l-0.04233-0.0423v-0.0423l-0.04233-0.0847v-0.0423l-0.38097-0.3807h-0.04233l-0.04233-0.0423-0.08467-0.0423h-0.04233l-0.04233-0.0423h-0.04233l-0.08467-0.0423h-0.29633" fill="#fff"/>
  <path d="m21.721 215.84h-0.127l-0.04233 0.0423h-0.127l-0.08467 0.0423h-0.04233l-0.04233 0.0423h-0.04233l-0.08467 0.0423h-0.04233l-0.4233 0.423v0.0423l-0.04233 0.0423v0.0847l-0.04233 0.0423v0.0423l-0.04233 0.0847v0.0847l-0.04233 0.0847v0.254l0.04233 0.0423v0.127l0.04233 0.0423v0.0847l0.04233 0.0423v0.0423l0.04233 0.0423v0.0847l0.33864 0.3384h0.04233l0.08466 0.0846h0.08467l0.08466 0.0846h0.127l0.04233 0.0423h0.508l0.04233-0.0423h0.127l0.08466-0.0846h0.08467l0.08466-0.0846h0.04233l0.33864-0.3384v-0.0847l0.04233-0.0423v-0.0423l0.04233-0.0423v-0.0847l0.04233-0.0423v-0.127l0.04233-0.0423v-0.254l-0.04233-0.0847v-0.0847l-0.04233-0.0847v-0.0423l-0.04233-0.0423v-0.0847l-0.04233-0.0423v-0.0423l-0.4233-0.423h-0.04233l-0.08467-0.0423h-0.04233l-0.04233-0.0423h-0.04233l-0.08467-0.0423h-0.127l-0.04233-0.0423h-0.127" fill="#848382"/>
  <path d="m21.721 221.85h-0.254l-0.04233 0.0423h-0.08467l-0.04233 0.0423h-0.04233l-0.04233 0.0423h-0.08467l-0.08466 0.0846h-0.04233l-0.29631 0.2961-0.04233 0.0847v0.0423l-0.04233 0.0423v0.0423l-0.04233 0.0423v0.0847l-0.04233 0.0423v0.127l-0.04233 0.0423v0.254l0.04233 0.0847v0.0847l0.04233 0.0847v0.0423l0.04233 0.0423v0.0847l0.04233 0.0423v0.0423l0.4233 0.423h0.04233l0.08467 0.0423 0.04233 0.0423h0.08467l0.08467 0.0423h0.127l0.04233 0.0423h0.254l0.04233-0.0423h0.127l0.08467-0.0423h0.08467l0.04233-0.0423 0.08467-0.0423h0.04233l0.4233-0.423v-0.0423l0.04233-0.0423v-0.0847l0.04233-0.0423v-0.0423l0.04233-0.0847v-0.0847l0.04233-0.0847v-0.254l-0.04233-0.0423v-0.127l-0.04233-0.0423v-0.0847l-0.04233-0.0423v-0.0423l-0.04233-0.0423v-0.0423l-0.04233-0.0847-0.29631-0.2961h-0.04233l-0.08466-0.0846h-0.08467l-0.04233-0.0423h-0.04233l-0.04233-0.0423h-0.08467l-0.04233-0.0423h-0.254" fill="#848382"/>
  <path d="m21.721 224.86h-0.29633l-0.08467 0.0423h-0.04233l-0.04233 0.0423h-0.04233l-0.08467 0.0423-0.04233 0.0423h-0.04233l-0.38097 0.3807v0.0423l-0.04233 0.0847v0.0423l-0.04233 0.0423v0.0847l-0.04233 0.0423v0.127l-0.04233 0.0423v0.254l0.04233 0.0423v0.127l0.04233 0.0423v0.0847l0.04233 0.0423v0.0423l0.04233 0.0847v0.0423l0.38097 0.3807h0.04233l0.04233 0.0423 0.08467 0.0423h0.04233l0.04233 0.0423h0.04233l0.08467 0.0423h0.254l0.04233 0.0423 0.04233-0.0423h0.254l0.08467-0.0423h0.04233l0.04233-0.0423h0.04233l0.08467-0.0423 0.04233-0.0423h0.04233l0.38097-0.3807v-0.0423l0.04233-0.0847v-0.0423l0.04233-0.0423v-0.0847l0.04233-0.0423v-0.127l0.04233-0.0423v-0.254l-0.04233-0.0423v-0.127l-0.04233-0.0423v-0.0847l-0.04233-0.0423v-0.0423l-0.04233-0.0847v-0.0423l-0.38097-0.3807h-0.04233l-0.04233-0.0423-0.08467-0.0423h-0.04233l-0.04233-0.0423h-0.04233l-0.08467-0.0423h-0.29633" fill="#fff"/>
  <path d="m21.721 218.85h-0.16933l-0.08467 0.0423h-0.127l-0.04233 0.0423h-0.04233l-0.04233 0.0423h-0.08467l-0.16932 0.1692h-0.04233l-0.12699 0.1269-0.04233 0.0847-0.08466 0.0846v0.0423l-0.04233 0.0423v0.0423l-0.04233 0.0847v0.0423l-0.04233 0.0423v0.127l-0.04233 0.0847v0.21166l0.04233 0.0847v0.127l0.04233 0.0423v0.0423l0.04233 0.0847v0.0423l0.04233 0.0423v0.0423l0.04233 0.0423 0.04233 0.0847 0.21165 0.2115h0.04233l0.12699 0.1269h0.08467l0.04233 0.0423h0.04233l0.04233 0.0423h0.127l0.08467 0.0423h0.33867l0.08467-0.0423h0.127l0.04233-0.0423h0.04233l0.04233-0.0423h0.08467l0.12699-0.1269h0.04233l0.21165-0.2115 0.04233-0.0847 0.04233-0.0423v-0.0423l0.04233-0.0423v-0.0423l0.04233-0.0847v-0.0423l0.04233-0.0423v-0.127l0.04233-0.0847v-0.21166l-0.04233-0.0847v-0.127l-0.04233-0.0423v-0.0423l-0.04233-0.0847v-0.0423l-0.04233-0.0423v-0.0423l-0.08466-0.0846-0.04233-0.0847-0.12699-0.1269h-0.04233l-0.16932-0.1692h-0.08467l-0.04233-0.0423h-0.04233l-0.04233-0.0423h-0.127l-0.08467-0.0423h-0.16933" fill="#848382"/>
  <path d="m33.871 200.9h-0.29633l-0.04233 0.0423h-0.08467l-0.04233 0.0423h-0.04233l-0.08467 0.0423-0.04233 0.0423h-0.04233l-0.38097 0.3807v0.0423l-0.04233 0.0847v0.0423l-0.04233 0.0423v0.0847l-0.04233 0.0423v0.16933l-0.04233 0.0847v0.127l0.04233 0.0423v0.16934l0.04233 0.0423v0.0847l0.04233 0.0423v0.0423l0.04233 0.0847v0.0423l0.38097 0.3807h0.04233l0.04233 0.0423 0.08467 0.0423h0.04233l0.04233 0.0423h0.08467l0.04233 0.0423h0.254l0.04233 0.0423 0.08467-0.0423h0.21167l0.08467-0.0423h0.04233l0.04233-0.0423h0.08467l0.08466-0.0846h0.04233l0.38097-0.3807v-0.0423l0.04233-0.0847 0.04233-0.0423v-0.127l0.04233-0.0423v-0.127l0.04233-0.0423v-0.254l-0.04233-0.0423v-0.127l-0.04233-0.0423v-0.127l-0.04233-0.0423-0.04233-0.0847v-0.0423l-0.38097-0.3807h-0.04233l-0.08466-0.0846h-0.08467l-0.04233-0.0423h-0.04233l-0.08467-0.0423h-0.29633" fill="#848382"/>
  <g fill="#fff500">
   <path d="m33.871 203.86h-0.127l-0.04233 0.0423h-0.127l-0.04233 0.0423h-0.08467l-0.04233 0.0423h-0.04233l-0.08467 0.0423h-0.04233l-0.4233 0.423v0.0423l-0.04233 0.0423v0.0847l-0.04233 0.0423v0.0423l-0.04233 0.0847v0.16934l-0.04233 0.0423v0.127l0.04233 0.0847v0.16933l0.04233 0.0423v0.0847l0.04233 0.0423v0.0423l0.04233 0.0423v0.0847l0.33864 0.3384h0.04233l0.08466 0.0846h0.08467l0.08466 0.0846h0.127l0.04233 0.0423h0.508l0.04233-0.0423h0.127l0.04233-0.0423 0.08467-0.0423h0.04233l0.08466-0.0846h0.04233l0.33864-0.3384v-0.0847l0.08466-0.0846v-0.127l0.04233-0.0423v-0.127l0.04233-0.0423v-0.254l-0.04233-0.0847v-0.0847l-0.04233-0.0847v-0.0847l-0.04233-0.0847-0.04233-0.0423v-0.0423l-0.4233-0.423h-0.04233l-0.04233-0.0423h-0.08467l-0.04233-0.0423h-0.04233l-0.08467-0.0423h-0.127l-0.04233-0.0423h-0.127"/>
   <path d="m33.871 206.87h-0.16933l-0.08467 0.0423h-0.08467l-0.08467 0.0423h-0.04233l-0.04233 0.0423-0.08467 0.0423h-0.04233l-0.12699 0.1269h-0.04233l-0.12699 0.1269-0.04233 0.0847-0.08466 0.0846v0.0423l-0.04233 0.0423v0.0423l-0.04233 0.0847v0.0423l-0.04233 0.0423v0.21167l-0.04233 0.0423v0.127l0.04233 0.0423v0.21167l0.04233 0.0423v0.0423l0.04233 0.0847v0.0423l0.04233 0.0423v0.0423l0.04233 0.0423 0.04233 0.0847 0.16932 0.1692h0.04233l0.16932 0.1692h0.08467l0.04233 0.0423h0.04233l0.08467 0.0423h0.08467l0.08467 0.0423h0.33867l0.08467-0.0423h0.127l0.04233-0.0423h0.04233l0.08467-0.0423h0.04233l0.16932-0.1692h0.04233l0.16932-0.1692 0.04233-0.0847 0.04233-0.0423v-0.0423l0.08466-0.0846v-0.127l0.04233-0.0423v-0.127l0.04233-0.0847v-0.21166l-0.04233-0.0847v-0.127l-0.04233-0.0423v-0.127l-0.08466-0.0846v-0.0423l-0.08466-0.0846-0.04233-0.0847-0.12699-0.1269h-0.04233l-0.12699-0.1269h-0.04233l-0.04233-0.0423-0.08467-0.0423h-0.04233l-0.04233-0.0423h-0.127l-0.08467-0.0423h-0.16933"/>
   <path d="m33.871 209.87h-0.254l-0.04233 0.0423h-0.04233l-0.08467 0.0423h-0.04233l-0.04233 0.0423h-0.08467l-0.08466 0.0846h-0.04233l-0.29631 0.2961-0.04233 0.0847v0.0423l-0.04233 0.0423v0.0423l-0.04233 0.0847v0.0423l-0.04233 0.0423v0.16933l-0.04233 0.0847v0.127l0.04233 0.0423v0.16934l0.04233 0.0847v0.0423l0.04233 0.0423v0.0847l0.04233 0.0423v0.0423l0.4233 0.423h0.04233l0.08467 0.0423 0.04233 0.0423h0.127l0.04233 0.0423h0.127l0.04233 0.0423h0.254l0.04233-0.0423h0.127l0.08467-0.0423h0.08467l0.08467-0.0423 0.04233-0.0423h0.04233l0.4233-0.423v-0.0423l0.04233-0.0423 0.04233-0.0847v-0.0847l0.04233-0.0847v-0.0847l0.04233-0.0847v-0.254l-0.04233-0.0423v-0.127l-0.04233-0.0423v-0.127l-0.08466-0.0846v-0.0423l-0.04233-0.0847-0.29631-0.2961h-0.04233l-0.08466-0.0846h-0.04233l-0.08467-0.0423h-0.04233l-0.04233-0.0423h-0.08467l-0.04233-0.0423h-0.254"/>
   <path d="m33.871 215.84h-0.127l-0.04233 0.0423h-0.127l-0.04233 0.0423h-0.08467l-0.04233 0.0423h-0.04233l-0.08467 0.0423h-0.04233l-0.4233 0.423v0.0423l-0.04233 0.0423v0.0847l-0.04233 0.0423v0.0423l-0.04233 0.0847v0.16934l-0.04233 0.0423v0.127l0.04233 0.0847v0.16933l0.04233 0.0423v0.0847l0.04233 0.0423v0.0423l0.04233 0.0423v0.0847l0.33864 0.3384h0.04233l0.08466 0.0846h0.08467l0.08466 0.0846h0.127l0.04233 0.0423h0.508l0.04233-0.0423h0.127l0.04233-0.0423 0.08467-0.0423h0.04233l0.08466-0.0846h0.04233l0.33864-0.3384v-0.0847l0.08466-0.0846v-0.127l0.04233-0.0423v-0.127l0.04233-0.0423v-0.254l-0.04233-0.0847v-0.0847l-0.04233-0.0847v-0.0847l-0.04233-0.0847-0.04233-0.0423v-0.0423l-0.4233-0.423h-0.04233l-0.04233-0.0423h-0.08467l-0.04233-0.0423h-0.04233l-0.08467-0.0423h-0.127l-0.04233-0.0423h-0.127"/>
   <path d="m33.871 221.85h-0.254l-0.04233 0.0423h-0.04233l-0.08467 0.0423h-0.04233l-0.04233 0.0423h-0.08467l-0.08466 0.0846h-0.04233l-0.29631 0.2961-0.04233 0.0847v0.0423l-0.04233 0.0423v0.0423l-0.04233 0.0423v0.0847l-0.04233 0.0423v0.16933l-0.04233 0.0847v0.127l0.04233 0.0423v0.16934l0.04233 0.0847v0.0423l0.04233 0.0423v0.0847l0.04233 0.0423v0.0423l0.4233 0.423h0.04233l0.08467 0.0423 0.04233 0.0423h0.127l0.04233 0.0423h0.127l0.04233 0.0423h0.254l0.04233-0.0423h0.127l0.08467-0.0423h0.08467l0.08467-0.0423 0.04233-0.0423h0.04233l0.4233-0.423v-0.0423l0.04233-0.0423 0.04233-0.0847v-0.0847l0.04233-0.0847v-0.0847l0.04233-0.0847v-0.254l-0.04233-0.0423v-0.127l-0.04233-0.0423v-0.127l-0.08466-0.0846v-0.0423l-0.04233-0.0847-0.29631-0.2961h-0.04233l-0.08466-0.0846h-0.04233l-0.08467-0.0423h-0.04233l-0.04233-0.0423h-0.08467l-0.04233-0.0423h-0.254"/>
  </g>
  <path d="m33.871 224.86h-0.29633l-0.04233 0.0423h-0.08467l-0.04233 0.0423h-0.04233l-0.08467 0.0423-0.04233 0.0423h-0.04233l-0.38097 0.3807v0.0423l-0.04233 0.0847v0.0423l-0.04233 0.0423v0.0847l-0.04233 0.0423v0.16933l-0.04233 0.0847v0.127l0.04233 0.0423v0.16934l0.04233 0.0423v0.0847l0.04233 0.0423v0.0423l0.04233 0.0847v0.0423l0.38097 0.3807h0.04233l0.04233 0.0423 0.08467 0.0423h0.04233l0.04233 0.0423h0.08467l0.04233 0.0423h0.254l0.04233 0.0423 0.08467-0.0423h0.21167l0.08467-0.0423h0.04233l0.04233-0.0423h0.08467l0.08466-0.0846h0.04233l0.38097-0.3807v-0.0423l0.04233-0.0847 0.04233-0.0423v-0.127l0.04233-0.0423v-0.127l0.04233-0.0423v-0.254l-0.04233-0.0423v-0.127l-0.04233-0.0423v-0.127l-0.04233-0.0423-0.04233-0.0847v-0.0423l-0.38097-0.3807h-0.04233l-0.08466-0.0846h-0.08467l-0.04233-0.0423h-0.04233l-0.08467-0.0423h-0.29633" fill="#848382"/>
  <path d="m33.871 218.85h-0.16933l-0.08467 0.0423h-0.08467l-0.08467 0.0423h-0.04233l-0.04233 0.0423h-0.08467l-0.16932 0.1692h-0.04233l-0.12699 0.1269-0.04233 0.0847-0.08466 0.0846v0.0423l-0.04233 0.0423v0.0423l-0.04233 0.0847v0.0423l-0.04233 0.0423v0.21167l-0.04233 0.0423v0.127l0.04233 0.0423v0.21167l0.04233 0.0423v0.0423l0.04233 0.0847v0.0423l0.04233 0.0423v0.0423l0.04233 0.0423 0.04233 0.0847 0.21165 0.2115h0.04233l0.12699 0.1269h0.08467l0.04233 0.0423h0.04233l0.08467 0.0423h0.08467l0.08467 0.0423h0.33867l0.08467-0.0423h0.127l0.04233-0.0423h0.04233l0.08467-0.0423h0.04233l0.12699-0.1269h0.04233l0.21165-0.2115 0.04233-0.0847 0.04233-0.0423v-0.0423l0.08466-0.0846v-0.127l0.04233-0.0423v-0.127l0.04233-0.0847v-0.21166l-0.04233-0.0847v-0.127l-0.04233-0.0423v-0.127l-0.08466-0.0846v-0.0423l-0.08466-0.0846-0.04233-0.0847-0.12699-0.1269h-0.04233l-0.16932-0.1692h-0.04233l-0.08467-0.0423h-0.04233l-0.04233-0.0423h-0.127l-0.08467-0.0423h-0.16933" fill="#fff500"/>
  <path d="m30.823 200.9h-0.29633l-0.04233 0.0423h-0.08467l-0.04233 0.0423h-0.04233l-0.04233 0.0423-0.08467 0.0423h-0.04233l-0.33864 0.3384v0.0423l-0.04233 0.0423-0.04233 0.0847v0.0423l-0.04233 0.0423v0.0847l-0.04233 0.0423v0.59267l0.04233 0.0423v0.0847l0.04233 0.0423v0.0423l0.04233 0.0847 0.04233 0.0423v0.0423l0.33864 0.3384h0.04233l0.08467 0.0423 0.04233 0.0423h0.04233l0.04233 0.0423h0.08467l0.04233 0.0423h0.254l0.04233 0.0423 0.08467-0.0423h0.21167l0.08467-0.0423h0.04233l0.04233-0.0423h0.08467l0.08466-0.0846h0.04233l0.04233-0.0423 0.08467-0.0423 0.12699-0.1269v-0.0423l0.16932-0.1692v-0.0847l0.04233-0.0423v-0.0423l0.04233-0.0847v-0.0847l0.04233-0.0847v-0.33867l-0.04233-0.0847v-0.0847l-0.04233-0.0847v-0.0423l-0.04233-0.0423v-0.0847l-0.16932-0.1692v-0.0423l-0.12699-0.1269-0.08467-0.0423-0.04233-0.0423h-0.04233l-0.08466-0.0846h-0.08467l-0.04233-0.0423h-0.04233l-0.08467-0.0423h-0.29633" fill="#fff500"/>
  <g fill="#848382">
   <path d="m30.823 203.86h-0.127l-0.04233 0.0423h-0.127l-0.04233 0.0423h-0.08467l-0.04233 0.0423h-0.04233l-0.04233 0.0423h-0.08467l-0.38097 0.3807v0.0423l-0.08466 0.0846v0.0847l-0.04233 0.0423v0.0423l-0.04233 0.0847v0.59267l0.04233 0.0423v0.0847l0.04233 0.0423v0.0423l0.04233 0.0423 0.04233 0.0847v0.0423l0.29631 0.2961h0.04233l0.04233 0.0423 0.08467 0.0423h0.04233l0.08466 0.0846h0.127l0.08467 0.0423h0.46567l0.04233-0.0423h0.127l0.04233-0.0423 0.08467-0.0423h0.04233l0.08466-0.0846h0.04233l0.08467-0.0423 0.12699-0.1269v-0.0423l0.12699-0.1269 0.04233-0.0847v-0.0423l0.04233-0.0423v-0.0423l0.04233-0.0847v-0.0847l0.04233-0.0847v-0.381l-0.04233-0.0423v-0.127l-0.04233-0.0423v-0.0423l-0.04233-0.0847v-0.0423l-0.16932-0.1692v-0.0423l-0.12699-0.1269-0.08467-0.0423-0.08466-0.0846h-0.04233l-0.04233-0.0423h-0.08467l-0.04233-0.0423h-0.04233l-0.08467-0.0423h-0.08467l-0.08467-0.0423h-0.127"/>
   <path d="m30.823 206.87h-0.16933l-0.04233 0.0423h-0.127l-0.08467 0.0423h-0.04233l-0.08466 0.0846h-0.08467l-0.12699 0.1269h-0.04233l-0.12699 0.1269-0.04233 0.0847-0.04233 0.0423v0.0423l-0.08466 0.0846v0.0423l-0.04233 0.0847v0.0423l-0.04233 0.0423v0.635l0.04233 0.0423v0.0423l0.04233 0.0847v0.0423l0.08466 0.0846v0.0423l0.04233 0.0847 0.16932 0.1692h0.04233l0.12699 0.1269 0.08467 0.0423h0.04233l0.04233 0.0423h0.04233l0.08467 0.0423h0.127l0.04233 0.0423h0.381l0.04233-0.0423h0.127l0.04233-0.0423h0.04233l0.08467-0.0423h0.04233l0.12699-0.1269 0.08467-0.0423h0.04233l0.08466-0.0846v-0.0423l0.04233-0.0423 0.04233-0.0847 0.08466-0.0846v-0.0423l0.04233-0.0423v-0.0847l0.04233-0.0423v-0.127l0.04233-0.0423v-0.381l-0.04233-0.0423v-0.127l-0.04233-0.0423v-0.0847l-0.04233-0.0423v-0.0423l-0.12699-0.1269-0.04233-0.0847v-0.0423l-0.08466-0.0846h-0.04233l-0.08467-0.0423-0.08466-0.0846h-0.04233l-0.04233-0.0423-0.08467-0.0423h-0.04233l-0.04233-0.0423h-0.127l-0.04233-0.0423h-0.21167"/>
   <path d="m30.823 209.87h-0.21167l-0.08467 0.0423h-0.04233l-0.08467 0.0423h-0.04233l-0.04233 0.0423h-0.04233l-0.08467 0.0423-0.04233 0.0423h-0.04233l-0.29631 0.2961v0.0847l-0.08466 0.0846v0.0423l-0.04233 0.0847v0.0423l-0.04233 0.0423v0.59267l0.04233 0.0847v0.0423l0.04233 0.0423v0.0847l0.08466 0.0846v0.0423l0.38097 0.3807h0.08467l0.08466 0.0846h0.127l0.04233 0.0423h0.127l0.04233 0.0423h0.254l0.08467-0.0423h0.08467l0.08467-0.0423h0.08467l0.08467-0.0423 0.04233-0.0423h0.04233l0.08466-0.0846 0.08467-0.0423 0.12699-0.1269v-0.0423l0.16932-0.1692v-0.0423l0.04233-0.0847v-0.0423l0.04233-0.0423v-0.127l0.04233-0.0423v-0.381l-0.04233-0.0423v-0.127l-0.04233-0.0423v-0.0847l-0.04233-0.0423v-0.0423l-0.04233-0.0423-0.04233-0.0847-0.08466-0.0846v-0.0423l-0.12699-0.1269-0.08467-0.0423h-0.04233l-0.08466-0.0846h-0.04233l-0.08467-0.0423h-0.04233l-0.04233-0.0423h-0.08467l-0.04233-0.0423h-0.254"/>
  </g>
  <path d="m30.823 212.88h-0.29633l-0.04233 0.0423h-0.08467l-0.04233 0.0423h-0.04233l-0.04233 0.0423-0.08467 0.0423h-0.04233l-0.33864 0.3384v0.0423l-0.04233 0.0423-0.04233 0.0847v0.0423l-0.04233 0.0423v0.0847l-0.04233 0.0423v0.59267l0.04233 0.0847v0.0423l0.04233 0.0423v0.0423l0.04233 0.0847 0.04233 0.0423v0.0423l0.33864 0.3384h0.04233l0.08467 0.0423 0.04233 0.0423h0.04233l0.04233 0.0423h0.08467l0.04233 0.0423h0.59267l0.08467-0.0423h0.04233l0.04233-0.0423h0.08467l0.08466-0.0846h0.04233l0.04233-0.0423 0.08467-0.0423 0.12699-0.1269v-0.0423l0.16932-0.1692v-0.0847l0.04233-0.0423v-0.0423l0.04233-0.0423v-0.127l0.04233-0.0847v-0.33867l-0.04233-0.0847v-0.0847l-0.04233-0.0847v-0.0423l-0.04233-0.0423v-0.0847l-0.16932-0.1692v-0.0423l-0.12699-0.1269-0.08467-0.0423-0.04233-0.0423h-0.04233l-0.08466-0.0846h-0.08467l-0.04233-0.0423h-0.04233l-0.08467-0.0423h-0.29633" fill="#fff500"/>
  <path d="m30.823 215.84h-0.127l-0.04233 0.0423h-0.127l-0.04233 0.0423h-0.08467l-0.04233 0.0423h-0.04233l-0.04233 0.0423h-0.08467l-0.38097 0.3807v0.0423l-0.08466 0.0846v0.0847l-0.04233 0.0423v0.0423l-0.04233 0.0847v0.59267l0.04233 0.0423v0.0847l0.04233 0.0423v0.0423l0.04233 0.0423 0.04233 0.0847v0.0423l0.29631 0.2961h0.04233l0.04233 0.0423 0.08467 0.0423h0.04233l0.08466 0.0846h0.127l0.08467 0.0423h0.46567l0.04233-0.0423h0.127l0.04233-0.0423 0.08467-0.0423h0.04233l0.08466-0.0846h0.04233l0.08467-0.0423 0.12699-0.1269v-0.0423l0.12699-0.1269 0.04233-0.0847v-0.0423l0.04233-0.0423v-0.0423l0.04233-0.0847v-0.0847l0.04233-0.0847v-0.381l-0.04233-0.0423v-0.127l-0.04233-0.0423v-0.0423l-0.04233-0.0847v-0.0423l-0.16932-0.1692v-0.0423l-0.12699-0.1269-0.08467-0.0423-0.08466-0.0846h-0.04233l-0.04233-0.0423h-0.08467l-0.04233-0.0423h-0.04233l-0.08467-0.0423h-0.08467l-0.08467-0.0423h-0.127" fill="#848382"/>
  <path d="m30.823 221.85h-0.21167l-0.08467 0.0423h-0.04233l-0.08467 0.0423h-0.04233l-0.04233 0.0423h-0.04233l-0.08467 0.0423-0.04233 0.0423h-0.04233l-0.29631 0.2961v0.0847l-0.08466 0.0846v0.0423l-0.04233 0.0423v0.0847l-0.04233 0.0423v0.59267l0.04233 0.0847v0.0423l0.04233 0.0423v0.0847l0.08466 0.0846v0.0423l0.38097 0.3807h0.08467l0.08466 0.0846h0.127l0.04233 0.0423h0.127l0.04233 0.0423h0.254l0.08467-0.0423h0.08467l0.08467-0.0423h0.08467l0.08467-0.0423 0.04233-0.0423h0.04233l0.08466-0.0846 0.08467-0.0423 0.12699-0.1269v-0.0423l0.16932-0.1692v-0.0423l0.04233-0.0847v-0.0423l0.04233-0.0423v-0.127l0.04233-0.0423v-0.381l-0.04233-0.0423v-0.127l-0.04233-0.0847v-0.0423l-0.04233-0.0423v-0.0423l-0.04233-0.0423-0.04233-0.0847-0.08466-0.0846v-0.0423l-0.12699-0.1269-0.08467-0.0423h-0.04233l-0.08466-0.0846h-0.04233l-0.08467-0.0423h-0.04233l-0.04233-0.0423h-0.08467l-0.04233-0.0423h-0.254" fill="#848382"/>
  <path d="m30.823 224.86h-0.29633l-0.04233 0.0423h-0.08467l-0.04233 0.0423h-0.04233l-0.04233 0.0423-0.08467 0.0423h-0.04233l-0.33864 0.3384v0.0423l-0.04233 0.0423-0.04233 0.0847v0.0423l-0.04233 0.0423v0.0847l-0.04233 0.0423v0.59267l0.04233 0.0423v0.0847l0.04233 0.0423v0.0423l0.04233 0.0847 0.04233 0.0423v0.0423l0.33864 0.3384h0.04233l0.08467 0.0423 0.04233 0.0423h0.04233l0.04233 0.0423h0.08467l0.04233 0.0423h0.254l0.04233 0.0423 0.08467-0.0423h0.21167l0.08467-0.0423h0.04233l0.04233-0.0423h0.08467l0.08466-0.0846h0.04233l0.04233-0.0423 0.08467-0.0423 0.12699-0.1269v-0.0423l0.16932-0.1692v-0.0847l0.04233-0.0423v-0.0423l0.04233-0.0847v-0.0847l0.04233-0.0847v-0.33867l-0.04233-0.0847v-0.0847l-0.04233-0.0847v-0.0423l-0.04233-0.0423v-0.0847l-0.16932-0.1692v-0.0423l-0.12699-0.1269-0.08467-0.0423-0.04233-0.0423h-0.04233l-0.08466-0.0846h-0.08467l-0.04233-0.0423h-0.04233l-0.08467-0.0423h-0.29633" fill="#fff500"/>
  <path d="m30.823 218.85h-0.16933l-0.04233 0.0423h-0.127l-0.08467 0.0423h-0.04233l-0.04233 0.0423h-0.04233l-0.08467 0.0423-0.12699 0.1269h-0.04233l-0.12699 0.1269-0.04233 0.0847-0.04233 0.0423v0.0423l-0.08466 0.0846v0.0423l-0.04233 0.0847v0.0423l-0.04233 0.0423v0.635l0.04233 0.0423v0.0423l0.04233 0.0847v0.0423l0.08466 0.0846v0.0423l0.04233 0.0847 0.21165 0.2115h0.04233l0.08466 0.0846 0.08467 0.0423h0.04233l0.04233 0.0423h0.04233l0.08467 0.0423h0.127l0.04233 0.0423h0.381l0.04233-0.0423h0.127l0.04233-0.0423h0.04233l0.08467-0.0423h0.04233l0.12699-0.1269h0.08467l0.12699-0.1269v-0.0423l0.04233-0.0423 0.04233-0.0847 0.08466-0.0846v-0.0423l0.04233-0.0423v-0.0847l0.04233-0.0423v-0.127l0.04233-0.0423v-0.381l-0.04233-0.0423v-0.127l-0.04233-0.0423v-0.0847l-0.04233-0.0423v-0.0423l-0.12699-0.1269-0.04233-0.0847v-0.0423l-0.08466-0.0846h-0.04233l-0.08467-0.0423-0.12699-0.1269h-0.04233l-0.08467-0.0423h-0.04233l-0.04233-0.0423h-0.127l-0.04233-0.0423h-0.21167" fill="#848382"/>
  <path d="m27.817 200.9h-0.33867l-0.04233 0.0423h-0.04233l-0.08467 0.0423h-0.04233l-0.08466 0.0846h-0.08467l-0.29631 0.2961v0.0423l-0.08466 0.0846v0.0847l-0.04233 0.0423v0.0423l-0.04233 0.0847v0.0423l-0.04233 0.0423v0.508l0.04233 0.0423v0.0423l0.04233 0.0847v0.0423l0.04233 0.0423v0.0847l0.08466 0.0846v0.0423l0.29631 0.2961h0.08467l0.08466 0.0846h0.04233l0.08467 0.0423h0.04233l0.04233 0.0423h0.254l0.08467 0.0423 0.04233-0.0423h0.254l0.04233-0.0423h0.04233l0.08467-0.0423h0.04233l0.08466-0.0846h0.08467l0.29631-0.2961v-0.0423l0.08466-0.0846v-0.0847l0.08466-0.0846v-0.127l0.04233-0.0423v-0.508l-0.04233-0.0423v-0.127l-0.08466-0.0846v-0.0847l-0.08466-0.0846v-0.0423l-0.29631-0.2961h-0.08467l-0.08466-0.0846h-0.04233l-0.08467-0.0423h-0.04233l-0.04233-0.0423h-0.29633" fill="#fff500"/>
  <g fill="#848382">
   <path d="m27.817 203.86h-0.127l-0.08467 0.0423h-0.127l-0.04233 0.0423h-0.04233l-0.08467 0.0423h-0.04233l-0.04233 0.0423h-0.04233l-0.08467 0.0423-0.29631 0.2961v0.0423l-0.08466 0.0846v0.0423l-0.04233 0.0847v0.0423l-0.04233 0.0423v0.0847l-0.04233 0.0423v0.508l0.04233 0.0423v0.0423l0.04233 0.0847v0.0423l0.04233 0.0423v0.0423l0.04233 0.0847 0.04233 0.0423v0.0423l0.25398 0.2538h0.04233l0.08467 0.0423 0.04233 0.0423h0.04233l0.04233 0.0423 0.08467 0.0423h0.08467l0.08467 0.0423h0.46567l0.08467-0.0423h0.08467l0.08467-0.0423 0.04233-0.0423h0.04233l0.04233-0.0423 0.08467-0.0423h0.04233l0.25398-0.2538v-0.0423l0.04233-0.0423 0.04233-0.0847v-0.0423l0.08466-0.0846v-0.127l0.04233-0.0423v-0.508l-0.04233-0.0423v-0.127l-0.04233-0.0423-0.04233-0.0847v-0.0423l-0.08466-0.0846v-0.0423l-0.29631-0.2961-0.08467-0.0423h-0.04233l-0.04233-0.0423h-0.04233l-0.08467-0.0423h-0.04233l-0.04233-0.0423h-0.127l-0.08467-0.0423h-0.08467"/>
   <path d="m27.817 206.87h-0.21167l-0.04233 0.0423h-0.127l-0.04233 0.0423h-0.08467l-0.08466 0.0846h-0.04233l-0.08467 0.0423-0.08466 0.0846h-0.04233l-0.12699 0.1269-0.04233 0.0847v0.0423l-0.08466 0.0846v0.0423l-0.04233 0.0423v0.0847l-0.04233 0.0423v0.0423l-0.04233 0.0847v0.46566l0.04233 0.0847v0.0423l0.04233 0.0423v0.0847l0.04233 0.0423v0.0423l0.08466 0.0846v0.0847l0.16932 0.1692h0.04233l0.08466 0.0846 0.08467 0.0423 0.04233 0.0423h0.04233l0.04233 0.0423h0.08467l0.04233 0.0423h0.127l0.04233 0.0423h0.381l0.04233-0.0423h0.127l0.04233-0.0423h0.08467l0.04233-0.0423h0.04233l0.04233-0.0423 0.08467-0.0423 0.08466-0.0846h0.04233l0.16932-0.1692v-0.0847l0.08466-0.0846v-0.0423l0.04233-0.0423 0.04233-0.0847v-0.0847l0.04233-0.0847v-0.46566l-0.04233-0.0847v-0.0847l-0.04233-0.0847-0.04233-0.0423v-0.0423l-0.08466-0.0846v-0.0423l-0.04233-0.0847-0.12699-0.1269h-0.04233l-0.08466-0.0846-0.08467-0.0423h-0.04233l-0.08466-0.0846h-0.08467l-0.04233-0.0423h-0.127l-0.04233-0.0423h-0.16933"/>
   <path d="m27.817 209.87h-0.254l-0.08467 0.0423h-0.04233l-0.04233 0.0423h-0.08467l-0.04233 0.0423h-0.04233l-0.04233 0.0423-0.08467 0.0423h-0.04233l-0.25398 0.2538v0.0423l-0.04233 0.0847-0.04233 0.0423v0.0423l-0.04233 0.0423v0.0847l-0.04233 0.0423v0.0423l-0.04233 0.0847v0.46566l0.04233 0.0423v0.0847l0.04233 0.0423v0.0423l0.04233 0.0847v0.0423l0.08466 0.0846v0.0423l0.29631 0.2961 0.08467 0.0423h0.04233l0.08466 0.0846h0.127l0.04233 0.0423h0.127l0.08467 0.0423h0.21167l0.08467-0.0423h0.127l0.04233-0.0423h0.127l0.08466-0.0846h0.04233l0.08467-0.0423 0.29631-0.2961v-0.0423l0.08466-0.0846v-0.0423l0.04233-0.0847 0.04233-0.0423v-0.127l0.04233-0.0423v-0.46566l-0.04233-0.0847v-0.0847l-0.04233-0.0847-0.04233-0.0423v-0.0423l-0.04233-0.0423-0.04233-0.0847v-0.0423l-0.25398-0.2538h-0.04233l-0.08467-0.0423-0.04233-0.0423h-0.04233l-0.04233-0.0423h-0.08467l-0.04233-0.0423h-0.04233l-0.08467-0.0423h-0.21167"/>
  </g>
  <path d="m27.817 212.88h-0.33867l-0.04233 0.0423h-0.04233l-0.08467 0.0423h-0.04233l-0.08466 0.0846h-0.08467l-0.29631 0.2961v0.0423l-0.08466 0.0846v0.0847l-0.04233 0.0423v0.0423l-0.04233 0.0847v0.0423l-0.04233 0.0423v0.508l0.04233 0.0423v0.0847l0.04233 0.0423v0.0423l0.04233 0.0423v0.0847l0.08466 0.0846v0.0423l0.29631 0.2961h0.08467l0.08466 0.0846h0.04233l0.08467 0.0423h0.04233l0.04233 0.0423h0.635l0.04233-0.0423h0.04233l0.08467-0.0423h0.04233l0.08466-0.0846h0.08467l0.29631-0.2961v-0.0423l0.08466-0.0846v-0.0847l0.08466-0.0846v-0.127l0.04233-0.0423v-0.508l-0.04233-0.0423v-0.127l-0.08466-0.0846v-0.0847l-0.08466-0.0846v-0.0423l-0.29631-0.2961h-0.08467l-0.08466-0.0846h-0.04233l-0.08467-0.0423h-0.04233l-0.04233-0.0423h-0.29633" fill="#fff500"/>
  <path d="m27.817 215.84h-0.127l-0.08467 0.0423h-0.127l-0.04233 0.0423h-0.04233l-0.08467 0.0423h-0.04233l-0.04233 0.0423h-0.04233l-0.08467 0.0423-0.29631 0.2961v0.0423l-0.08466 0.0846v0.0423l-0.04233 0.0847v0.0423l-0.04233 0.0423v0.0847l-0.04233 0.0423v0.508l0.04233 0.0423v0.0423l0.04233 0.0847v0.0423l0.04233 0.0423v0.0423l0.04233 0.0847 0.04233 0.0423v0.0423l0.25398 0.2538h0.04233l0.08467 0.0423 0.04233 0.0423h0.04233l0.04233 0.0423 0.08467 0.0423h0.08467l0.08467 0.0423h0.46567l0.08467-0.0423h0.08467l0.08467-0.0423 0.04233-0.0423h0.04233l0.04233-0.0423 0.08467-0.0423h0.04233l0.25398-0.2538v-0.0423l0.04233-0.0423 0.04233-0.0847v-0.0423l0.08466-0.0846v-0.127l0.04233-0.0423v-0.508l-0.04233-0.0423v-0.127l-0.04233-0.0423-0.04233-0.0847v-0.0423l-0.08466-0.0846v-0.0423l-0.29631-0.2961-0.08467-0.0423h-0.04233l-0.04233-0.0423h-0.04233l-0.08467-0.0423h-0.04233l-0.04233-0.0423h-0.127l-0.08467-0.0423h-0.08467" fill="#848382"/>
  <path d="m27.817 221.85h-0.254l-0.08467 0.0423h-0.04233l-0.04233 0.0423h-0.08467l-0.04233 0.0423h-0.04233l-0.04233 0.0423-0.08467 0.0423h-0.04233l-0.25398 0.2538v0.0423l-0.04233 0.0847-0.04233 0.0423v0.0423l-0.04233 0.0423v0.0423l-0.04233 0.0847v0.0423l-0.04233 0.0847v0.46566l0.04233 0.0423v0.0847l0.04233 0.0423v0.0423l0.04233 0.0847v0.0423l0.08466 0.0846v0.0423l0.29631 0.2961 0.08467 0.0423h0.04233l0.08466 0.0846h0.127l0.04233 0.0423h0.127l0.08467 0.0423h0.21167l0.08467-0.0423h0.127l0.04233-0.0423h0.127l0.08466-0.0846h0.04233l0.08467-0.0423 0.29631-0.2961v-0.0423l0.08466-0.0846v-0.0423l0.04233-0.0847 0.04233-0.0423v-0.127l0.04233-0.0423v-0.46566l-0.04233-0.0847v-0.127l-0.08466-0.0846v-0.0423l-0.04233-0.0423-0.04233-0.0847v-0.0423l-0.25398-0.2538h-0.04233l-0.08467-0.0423-0.04233-0.0423h-0.04233l-0.04233-0.0423h-0.08467l-0.04233-0.0423h-0.04233l-0.08467-0.0423h-0.21167" fill="#848382"/>
  <path d="m27.817 224.86h-0.33867l-0.04233 0.0423h-0.04233l-0.08467 0.0423h-0.04233l-0.08466 0.0846h-0.08467l-0.29631 0.2961v0.0423l-0.08466 0.0846v0.0847l-0.04233 0.0423v0.0423l-0.04233 0.0847v0.0423l-0.04233 0.0423v0.508l0.04233 0.0423v0.0423l0.04233 0.0847v0.0423l0.04233 0.0423v0.0847l0.08466 0.0846v0.0423l0.29631 0.2961h0.08467l0.08466 0.0846h0.04233l0.08467 0.0423h0.04233l0.04233 0.0423h0.254l0.08467 0.0423 0.04233-0.0423h0.254l0.04233-0.0423h0.04233l0.08467-0.0423h0.04233l0.08466-0.0846h0.08467l0.29631-0.2961v-0.0423l0.08466-0.0846v-0.0847l0.08466-0.0846v-0.127l0.04233-0.0423v-0.508l-0.04233-0.0423v-0.127l-0.08466-0.0846v-0.0847l-0.08466-0.0846v-0.0423l-0.29631-0.2961h-0.08467l-0.08466-0.0846h-0.04233l-0.08467-0.0423h-0.04233l-0.04233-0.0423h-0.29633" fill="#fff500"/>
  <path d="m27.817 218.85h-0.21167l-0.04233 0.0423h-0.127l-0.04233 0.0423h-0.08467l-0.04233 0.0423h-0.04233l-0.04233 0.0423-0.08467 0.0423-0.08466 0.0846h-0.04233l-0.12699 0.1269-0.04233 0.0847v0.0423l-0.08466 0.0846v0.0423l-0.04233 0.0423v0.0847l-0.04233 0.0423v0.0423l-0.04233 0.0847v0.46566l0.04233 0.0847v0.0423l0.04233 0.0423v0.0847l0.04233 0.0423v0.0423l0.08466 0.0846v0.0847l0.21165 0.2115h0.04233l0.04233 0.0423 0.08467 0.0423 0.04233 0.0423h0.04233l0.04233 0.0423h0.08467l0.04233 0.0423h0.127l0.04233 0.0423h0.381l0.04233-0.0423h0.127l0.04233-0.0423h0.08467l0.04233-0.0423h0.04233l0.04233-0.0423 0.08467-0.0423 0.04233-0.0423h0.04233l0.21165-0.2115v-0.0847l0.08466-0.0846v-0.0423l0.04233-0.0423 0.04233-0.0847v-0.0847l0.04233-0.0847v-0.46566l-0.04233-0.0847v-0.0847l-0.04233-0.0847-0.04233-0.0423v-0.0423l-0.08466-0.0846v-0.0423l-0.04233-0.0847-0.12699-0.1269h-0.04233l-0.08466-0.0846-0.08467-0.0423-0.04233-0.0423h-0.04233l-0.04233-0.0423h-0.08467l-0.04233-0.0423h-0.127l-0.04233-0.0423h-0.16933" fill="#848382"/>
  <path d="m24.769 200.9h-0.29633l-0.08467 0.0423h-0.04233l-0.04233 0.0423h-0.08467l-0.08466 0.0846h-0.04233l-0.04233 0.0423-0.08467 0.0423-0.08466 0.0846v0.0423l-0.21165 0.2115v0.0847l-0.04233 0.0423v0.0423l-0.04233 0.0847v0.0847l-0.04233 0.0847v0.33867l0.04233 0.0847v0.0847l0.04233 0.0847v0.0423l0.04233 0.0423v0.0847l0.21165 0.2115v0.0423l0.08466 0.0846 0.08467 0.0423 0.04233 0.0423h0.04233l0.08466 0.0846h0.08467l0.04233 0.0423h0.04233l0.08467 0.0423h0.21167l0.08467 0.0423 0.04233-0.0423h0.254l0.04233-0.0423h0.08467l0.04233-0.0423h0.04233l0.04233-0.0423 0.08467-0.0423h0.04233l0.33864-0.3384v-0.0423l0.04233-0.0423 0.04233-0.0847v-0.0423l0.04233-0.0423v-0.0847l0.04233-0.0423v-0.59267l-0.04233-0.0423v-0.0847l-0.04233-0.0423v-0.0423l-0.04233-0.0847-0.04233-0.0423v-0.0423l-0.33864-0.3384h-0.04233l-0.08467-0.0423-0.04233-0.0423h-0.04233l-0.04233-0.0423h-0.08467l-0.04233-0.0423h-0.29633" fill="#fff500"/>
  <g fill="#848382">
   <path d="m24.769 203.86h-0.127l-0.08467 0.0423h-0.08467l-0.08467 0.0423h-0.04233l-0.04233 0.0423h-0.08467l-0.04233 0.0423h-0.04233l-0.08466 0.0846-0.08467 0.0423-0.08466 0.0846v0.0423l-0.21165 0.2115v0.0423l-0.04233 0.0847v0.0423l-0.04233 0.0423v0.127l-0.04233 0.0423v0.381l0.04233 0.0847v0.0847l0.04233 0.0847v0.0423l0.04233 0.0423v0.0423l0.04233 0.0847 0.16932 0.1692v0.0423l0.08466 0.0846 0.08467 0.0423h0.04233l0.08466 0.0846h0.04233l0.08467 0.0423 0.04233 0.0423h0.127l0.04233 0.0423h0.508l0.04233-0.0423h0.127l0.08466-0.0846h0.04233l0.08467-0.0423 0.04233-0.0423h0.04233l0.29631-0.2961v-0.0423l0.04233-0.0847 0.04233-0.0423v-0.0423l0.04233-0.0423v-0.0847l0.04233-0.0423v-0.59267l-0.04233-0.0847v-0.0423l-0.04233-0.0423v-0.0847l-0.08466-0.0846v-0.0423l-0.38097-0.3807h-0.08467l-0.04233-0.0423h-0.04233l-0.04233-0.0423h-0.08467l-0.04233-0.0423h-0.127l-0.04233-0.0423h-0.127"/>
   <path d="m24.769 206.87h-0.21167l-0.04233 0.0423h-0.127l-0.04233 0.0423h-0.04233l-0.08467 0.0423-0.04233 0.0423h-0.04233l-0.08466 0.0846-0.08467 0.0423h-0.04233l-0.04233 0.0423v0.0423l-0.04233 0.0423-0.04233 0.0847-0.12699 0.1269v0.0423l-0.04233 0.0423v0.0847l-0.04233 0.0423v0.127l-0.04233 0.0423v0.381l0.04233 0.0423v0.127l0.04233 0.0423v0.0847l0.04233 0.0423v0.0423l0.08466 0.0846 0.04233 0.0847 0.08466 0.0846v0.0423l0.04233 0.0423h0.04233l0.08467 0.0423 0.12699 0.1269h0.04233l0.08467 0.0423h0.04233l0.04233 0.0423h0.127l0.04233 0.0423h0.381l0.08467-0.0423h0.08467l0.08467-0.0423h0.04233l0.04233-0.0423h0.04233l0.08467-0.0423 0.12699-0.1269h0.04233l0.16932-0.1692 0.04233-0.0847v-0.0423l0.08466-0.0846v-0.0423l0.04233-0.0847v-0.0423l0.04233-0.0423v-0.635l-0.04233-0.0423v-0.0423l-0.04233-0.0847v-0.0423l-0.08466-0.0846v-0.0423l-0.04233-0.0423-0.04233-0.0847-0.12699-0.1269h-0.04233l-0.12699-0.1269h-0.08467l-0.08466-0.0846h-0.04233l-0.08467-0.0423h-0.08467l-0.08467-0.0423h-0.16933"/>
   <path d="m24.769 209.87h-0.254l-0.04233 0.0423h-0.08467l-0.04233 0.0423h-0.04233l-0.08467 0.0423h-0.04233l-0.08466 0.0846h-0.04233l-0.08467 0.0423-0.08466 0.0846v0.0423l-0.12699 0.1269-0.04233 0.0847-0.04233 0.0423v0.0423l-0.04233 0.0423v0.0847l-0.04233 0.0423v0.127l-0.04233 0.0423v0.381l0.04233 0.0423v0.127l0.04233 0.0423v0.0423l0.04233 0.0847v0.0423l0.21165 0.2115v0.0423l0.08466 0.0846 0.08467 0.0423 0.08466 0.0846h0.04233l0.04233 0.0423 0.08467 0.0423h0.08467l0.08467 0.0423h0.08467l0.08467 0.0423h0.254l0.04233-0.0423h0.127l0.04233-0.0423h0.127l0.08466-0.0846h0.08467l0.38097-0.3807v-0.0423l0.08466-0.0846v-0.0847l0.04233-0.0423v-0.0423l0.04233-0.0847v-0.59267l-0.04233-0.0423v-0.0423l-0.04233-0.0847v-0.0423l-0.08466-0.0846v-0.0847l-0.29631-0.2961h-0.04233l-0.04233-0.0423-0.08467-0.0423h-0.04233l-0.04233-0.0423h-0.04233l-0.08467-0.0423h-0.04233l-0.04233-0.0423h-0.254"/>
  </g>
  <path d="m24.769 212.88h-0.29633l-0.08467 0.0423h-0.04233l-0.04233 0.0423h-0.08467l-0.08466 0.0846h-0.04233l-0.04233 0.0423-0.08467 0.0423-0.08466 0.0846v0.0423l-0.21165 0.2115v0.0847l-0.04233 0.0423v0.0423l-0.04233 0.0847v0.0847l-0.04233 0.0847v0.33867l0.04233 0.0847v0.127l0.04233 0.0423v0.0423l0.04233 0.0423v0.0847l0.21165 0.2115v0.0423l0.08466 0.0846 0.08467 0.0423 0.04233 0.0423h0.04233l0.08466 0.0846h0.08467l0.04233 0.0423h0.04233l0.08467 0.0423h0.59267l0.04233-0.0423h0.08467l0.04233-0.0423h0.04233l0.04233-0.0423 0.08467-0.0423h0.04233l0.33864-0.3384v-0.0423l0.04233-0.0423 0.04233-0.0847v-0.0423l0.04233-0.0423v-0.0423l0.04233-0.0847v-0.59267l-0.04233-0.0423v-0.0847l-0.04233-0.0423v-0.0423l-0.04233-0.0847-0.04233-0.0423v-0.0423l-0.33864-0.3384h-0.04233l-0.08467-0.0423-0.04233-0.0423h-0.04233l-0.04233-0.0423h-0.08467l-0.04233-0.0423h-0.29633" fill="#fff500"/>
  <path d="m24.769 215.84h-0.127l-0.08467 0.0423h-0.08467l-0.08467 0.0423h-0.04233l-0.04233 0.0423h-0.08467l-0.04233 0.0423h-0.04233l-0.08466 0.0846-0.08467 0.0423-0.08466 0.0846v0.0423l-0.21165 0.2115v0.0423l-0.04233 0.0847v0.0423l-0.04233 0.0423v0.127l-0.04233 0.0423v0.381l0.04233 0.0847v0.0847l0.04233 0.0847v0.0423l0.04233 0.0423v0.0423l0.04233 0.0847 0.16932 0.1692v0.0423l0.08466 0.0846 0.08467 0.0423h0.04233l0.08466 0.0846h0.04233l0.08467 0.0423 0.04233 0.0423h0.127l0.04233 0.0423h0.508l0.04233-0.0423h0.127l0.08466-0.0846h0.04233l0.08467-0.0423 0.04233-0.0423h0.04233l0.29631-0.2961v-0.0423l0.04233-0.0847 0.04233-0.0423v-0.0423l0.04233-0.0423v-0.0847l0.04233-0.0423v-0.59267l-0.04233-0.0847v-0.0423l-0.04233-0.0423v-0.0847l-0.08466-0.0846v-0.0423l-0.38097-0.3807h-0.08467l-0.04233-0.0423h-0.04233l-0.04233-0.0423h-0.08467l-0.04233-0.0423h-0.127l-0.04233-0.0423h-0.127" fill="#848382"/>
  <path d="m24.769 221.85h-0.254l-0.04233 0.0423h-0.08467l-0.04233 0.0423h-0.04233l-0.08467 0.0423h-0.04233l-0.08466 0.0846h-0.04233l-0.08467 0.0423-0.08466 0.0846v0.0423l-0.12699 0.1269-0.04233 0.0847-0.04233 0.0423v0.0423l-0.04233 0.0423v0.0423l-0.04233 0.0847v0.127l-0.04233 0.0423v0.381l0.04233 0.0423v0.127l0.04233 0.0423v0.0423l0.04233 0.0847v0.0423l0.21165 0.2115v0.0423l0.08466 0.0846 0.08467 0.0423 0.08466 0.0846h0.04233l0.04233 0.0423 0.08467 0.0423h0.08467l0.08467 0.0423h0.08467l0.08467 0.0423h0.254l0.04233-0.0423h0.127l0.04233-0.0423h0.127l0.08466-0.0846h0.08467l0.38097-0.3807v-0.0423l0.08466-0.0846v-0.0847l0.04233-0.0423v-0.0423l0.04233-0.0847v-0.59267l-0.04233-0.0423v-0.0847l-0.04233-0.0423v-0.0423l-0.08466-0.0846v-0.0847l-0.29631-0.2961h-0.04233l-0.04233-0.0423-0.08467-0.0423h-0.04233l-0.04233-0.0423h-0.04233l-0.08467-0.0423h-0.04233l-0.04233-0.0423h-0.254" fill="#848382"/>
  <path d="m24.769 224.86h-0.29633l-0.08467 0.0423h-0.04233l-0.04233 0.0423h-0.08467l-0.08466 0.0846h-0.04233l-0.04233 0.0423-0.08467 0.0423-0.08466 0.0846v0.0423l-0.21165 0.2115v0.0847l-0.04233 0.0423v0.0423l-0.04233 0.0847v0.0847l-0.04233 0.0847v0.33867l0.04233 0.0847v0.0847l0.04233 0.0847v0.0423l0.04233 0.0423v0.0847l0.21165 0.2115v0.0423l0.08466 0.0846 0.08467 0.0423 0.04233 0.0423h0.04233l0.08466 0.0846h0.08467l0.04233 0.0423h0.04233l0.08467 0.0423h0.21167l0.08467 0.0423 0.04233-0.0423h0.254l0.04233-0.0423h0.08467l0.04233-0.0423h0.04233l0.04233-0.0423 0.08467-0.0423h0.04233l0.33864-0.3384v-0.0423l0.04233-0.0423 0.04233-0.0847v-0.0423l0.04233-0.0423v-0.0847l0.04233-0.0423v-0.59267l-0.04233-0.0423v-0.0847l-0.04233-0.0423v-0.0423l-0.04233-0.0847-0.04233-0.0423v-0.0423l-0.33864-0.3384h-0.04233l-0.08467-0.0423-0.04233-0.0423h-0.04233l-0.04233-0.0423h-0.08467l-0.04233-0.0423h-0.29633" fill="#fff500"/>
  <path d="m24.769 218.85h-0.21167l-0.04233 0.0423h-0.127l-0.04233 0.0423h-0.04233l-0.08467 0.0423h-0.04233l-0.12699 0.1269-0.08467 0.0423h-0.04233l-0.04233 0.0423v0.0423l-0.04233 0.0423-0.04233 0.0847-0.12699 0.1269v0.0423l-0.04233 0.0423v0.0847l-0.04233 0.0423v0.127l-0.04233 0.0423v0.381l0.04233 0.0423v0.127l0.04233 0.0423v0.0847l0.04233 0.0423v0.0423l0.08466 0.0846 0.04233 0.0847 0.08466 0.0846v0.0423l0.08466 0.0846h0.08467l0.12699 0.1269h0.04233l0.08467 0.0423h0.04233l0.04233 0.0423h0.127l0.04233 0.0423h0.381l0.08467-0.0423h0.08467l0.08467-0.0423h0.04233l0.04233-0.0423h0.04233l0.08467-0.0423 0.08466-0.0846h0.04233l0.21165-0.2115 0.04233-0.0847v-0.0423l0.08466-0.0846v-0.0423l0.04233-0.0847v-0.0423l0.04233-0.0423v-0.635l-0.04233-0.0423v-0.0423l-0.04233-0.0847v-0.0423l-0.08466-0.0846v-0.0423l-0.04233-0.0423-0.04233-0.0847-0.12699-0.1269h-0.04233l-0.12699-0.1269-0.08467-0.0423h-0.04233l-0.04233-0.0423h-0.04233l-0.08467-0.0423h-0.08467l-0.08467-0.0423h-0.16933" fill="#848382"/>
  <path d="m21.721 200.9h-0.29633l-0.08467 0.0423h-0.04233l-0.04233 0.0423h-0.04233l-0.08467 0.0423-0.04233 0.0423h-0.04233l-0.38097 0.3807v0.0423l-0.04233 0.0847v0.0423l-0.04233 0.0423v0.0847l-0.04233 0.0423v0.127l-0.04233 0.0423v0.254l0.04233 0.0423v0.127l0.04233 0.0423v0.0847l0.04233 0.0423v0.0423l0.04233 0.0847v0.0423l0.38097 0.3807h0.04233l0.04233 0.0423 0.08467 0.0423h0.04233l0.04233 0.0423h0.04233l0.08467 0.0423h0.254l0.04233 0.0423 0.04233-0.0423h0.254l0.08467-0.0423h0.04233l0.04233-0.0423h0.04233l0.08467-0.0423 0.04233-0.0423h0.04233l0.38097-0.3807v-0.0423l0.04233-0.0847v-0.0423l0.04233-0.0423v-0.0847l0.04233-0.0423v-0.127l0.04233-0.0423v-0.254l-0.04233-0.0423v-0.127l-0.04233-0.0423v-0.0847l-0.04233-0.0423v-0.0423l-0.04233-0.0847v-0.0423l-0.38097-0.3807h-0.04233l-0.04233-0.0423-0.08467-0.0423h-0.04233l-0.04233-0.0423h-0.04233l-0.08467-0.0423h-0.29633" fill="#848382"/>
  <g fill="#fff500">
   <path d="m21.721 203.86h-0.127l-0.04233 0.0423h-0.127l-0.08467 0.0423h-0.04233l-0.04233 0.0423h-0.04233l-0.08467 0.0423h-0.04233l-0.4233 0.423v0.0423l-0.04233 0.0423v0.0847l-0.04233 0.0423v0.0423l-0.04233 0.0847v0.0847l-0.04233 0.0847v0.254l0.04233 0.0423v0.127l0.04233 0.0423v0.0847l0.04233 0.0423v0.0423l0.04233 0.0423v0.0847l0.33864 0.3384h0.04233l0.08466 0.0846h0.08467l0.08466 0.0846h0.127l0.04233 0.0423h0.508l0.04233-0.0423h0.127l0.08466-0.0846h0.08467l0.08466-0.0846h0.04233l0.33864-0.3384v-0.0847l0.04233-0.0423v-0.0423l0.04233-0.0423v-0.0847l0.04233-0.0423v-0.127l0.04233-0.0423v-0.254l-0.04233-0.0847v-0.0847l-0.04233-0.0847v-0.0423l-0.04233-0.0423v-0.0847l-0.04233-0.0423v-0.0423l-0.4233-0.423h-0.04233l-0.08467-0.0423h-0.04233l-0.04233-0.0423h-0.04233l-0.08467-0.0423h-0.127l-0.04233-0.0423h-0.127"/>
   <path d="m21.721 206.87h-0.16933l-0.08467 0.0423h-0.127l-0.04233 0.0423h-0.04233l-0.04233 0.0423-0.08467 0.0423h-0.04233l-0.12699 0.1269h-0.04233l-0.12699 0.1269-0.04233 0.0847-0.08466 0.0846v0.0423l-0.04233 0.0423v0.0423l-0.04233 0.0847v0.0423l-0.04233 0.0423v0.127l-0.04233 0.0847v0.21166l0.04233 0.0847v0.127l0.04233 0.0423v0.0423l0.04233 0.0847v0.0423l0.04233 0.0423v0.0423l0.04233 0.0423 0.04233 0.0847 0.16932 0.1692h0.04233l0.16932 0.1692h0.08467l0.04233 0.0423h0.04233l0.04233 0.0423h0.127l0.08467 0.0423h0.33867l0.08467-0.0423h0.127l0.04233-0.0423h0.04233l0.04233-0.0423h0.08467l0.16932-0.1692h0.04233l0.16932-0.1692 0.04233-0.0847 0.04233-0.0423v-0.0423l0.04233-0.0423v-0.0423l0.04233-0.0847v-0.0423l0.04233-0.0423v-0.127l0.04233-0.0847v-0.21166l-0.04233-0.0847v-0.127l-0.04233-0.0423v-0.0423l-0.04233-0.0847v-0.0423l-0.04233-0.0423v-0.0423l-0.08466-0.0846-0.04233-0.0847-0.12699-0.1269h-0.04233l-0.12699-0.1269h-0.04233l-0.08467-0.0423-0.04233-0.0423h-0.04233l-0.04233-0.0423h-0.127l-0.08467-0.0423h-0.16933"/>
   <path d="m21.721 209.87h-0.254l-0.04233 0.0423h-0.08467l-0.04233 0.0423h-0.04233l-0.04233 0.0423h-0.08467l-0.08466 0.0846h-0.04233l-0.29631 0.2961-0.04233 0.0847v0.0423l-0.04233 0.0423v0.0423l-0.04233 0.0847v0.0423l-0.04233 0.0423v0.127l-0.04233 0.0423v0.254l0.04233 0.0847v0.0847l0.04233 0.0847v0.0423l0.04233 0.0423v0.0847l0.04233 0.0423v0.0423l0.4233 0.423h0.04233l0.08467 0.0423 0.04233 0.0423h0.08467l0.08467 0.0423h0.127l0.04233 0.0423h0.254l0.04233-0.0423h0.127l0.08467-0.0423h0.08467l0.04233-0.0423 0.08467-0.0423h0.04233l0.4233-0.423v-0.0423l0.04233-0.0423v-0.0847l0.04233-0.0423v-0.0423l0.04233-0.0847v-0.0847l0.04233-0.0847v-0.254l-0.04233-0.0423v-0.127l-0.04233-0.0423v-0.0423l-0.04233-0.0847v-0.0423l-0.04233-0.0423v-0.0423l-0.04233-0.0847-0.29631-0.2961h-0.04233l-0.08466-0.0846h-0.08467l-0.04233-0.0423h-0.04233l-0.04233-0.0423h-0.08467l-0.04233-0.0423h-0.254"/>
  </g>
  <path d="m21.721 212.88h-0.29633l-0.08467 0.0423h-0.04233l-0.04233 0.0423h-0.04233l-0.08467 0.0423-0.04233 0.0423h-0.04233l-0.38097 0.3807v0.0423l-0.04233 0.0847v0.0423l-0.04233 0.0423v0.0847l-0.04233 0.0423v0.127l-0.04233 0.0423v0.254l0.04233 0.0423v0.127l0.04233 0.0847v0.0423l0.04233 0.0423v0.0423l0.04233 0.0847v0.0423l0.38097 0.3807h0.04233l0.04233 0.0423 0.08467 0.0423h0.04233l0.04233 0.0423h0.04233l0.08467 0.0423h0.59267l0.08467-0.0423h0.04233l0.04233-0.0423h0.04233l0.08467-0.0423 0.04233-0.0423h0.04233l0.38097-0.3807v-0.0423l0.04233-0.0847v-0.0423l0.04233-0.0423v-0.0423l0.04233-0.0847v-0.127l0.04233-0.0423v-0.254l-0.04233-0.0423v-0.127l-0.04233-0.0423v-0.0847l-0.04233-0.0423v-0.0423l-0.04233-0.0847v-0.0423l-0.38097-0.3807h-0.04233l-0.04233-0.0423-0.08467-0.0423h-0.04233l-0.04233-0.0423h-0.04233l-0.08467-0.0423h-0.29633" fill="#848382"/>
  <path d="m21.721 215.84h-0.127l-0.04233 0.0423h-0.127l-0.08467 0.0423h-0.04233l-0.04233 0.0423h-0.04233l-0.08467 0.0423h-0.04233l-0.4233 0.423v0.0423l-0.04233 0.0423v0.0847l-0.04233 0.0423v0.0423l-0.04233 0.0847v0.0847l-0.04233 0.0847v0.254l0.04233 0.0423v0.127l0.04233 0.0423v0.0847l0.04233 0.0423v0.0423l0.04233 0.0423v0.0847l0.33864 0.3384h0.04233l0.08466 0.0846h0.08467l0.08466 0.0846h0.127l0.04233 0.0423h0.508l0.04233-0.0423h0.127l0.08466-0.0846h0.08467l0.08466-0.0846h0.04233l0.33864-0.3384v-0.0847l0.04233-0.0423v-0.0423l0.04233-0.0423v-0.0847l0.04233-0.0423v-0.127l0.04233-0.0423v-0.254l-0.04233-0.0847v-0.0847l-0.04233-0.0847v-0.0423l-0.04233-0.0423v-0.0847l-0.04233-0.0423v-0.0423l-0.4233-0.423h-0.04233l-0.08467-0.0423h-0.04233l-0.04233-0.0423h-0.04233l-0.08467-0.0423h-0.127l-0.04233-0.0423h-0.127" fill="#fff500"/>
  <path d="m21.721 221.85h-0.254l-0.04233 0.0423h-0.08467l-0.04233 0.0423h-0.04233l-0.04233 0.0423h-0.08467l-0.08466 0.0846h-0.04233l-0.29631 0.2961-0.04233 0.0847v0.0423l-0.04233 0.0423v0.0423l-0.04233 0.0423v0.0847l-0.04233 0.0423v0.127l-0.04233 0.0423v0.254l0.04233 0.0847v0.0847l0.04233 0.0847v0.0423l0.04233 0.0423v0.0847l0.04233 0.0423v0.0423l0.4233 0.423h0.04233l0.08467 0.0423 0.04233 0.0423h0.08467l0.08467 0.0423h0.127l0.04233 0.0423h0.254l0.04233-0.0423h0.127l0.08467-0.0423h0.08467l0.04233-0.0423 0.08467-0.0423h0.04233l0.4233-0.423v-0.0423l0.04233-0.0423v-0.0847l0.04233-0.0423v-0.0423l0.04233-0.0847v-0.0847l0.04233-0.0847v-0.254l-0.04233-0.0423v-0.127l-0.04233-0.0423v-0.0847l-0.04233-0.0423v-0.0423l-0.04233-0.0423v-0.0423l-0.04233-0.0847-0.29631-0.2961h-0.04233l-0.08466-0.0846h-0.08467l-0.04233-0.0423h-0.04233l-0.04233-0.0423h-0.08467l-0.04233-0.0423h-0.254" fill="#fff500"/>
  <path d="m21.721 224.86h-0.29633l-0.08467 0.0423h-0.04233l-0.04233 0.0423h-0.04233l-0.08467 0.0423-0.04233 0.0423h-0.04233l-0.38097 0.3807v0.0423l-0.04233 0.0847v0.0423l-0.04233 0.0423v0.0847l-0.04233 0.0423v0.127l-0.04233 0.0423v0.254l0.04233 0.0423v0.127l0.04233 0.0423v0.0847l0.04233 0.0423v0.0423l0.04233 0.0847v0.0423l0.38097 0.3807h0.04233l0.04233 0.0423 0.08467 0.0423h0.04233l0.04233 0.0423h0.04233l0.08467 0.0423h0.254l0.04233 0.0423 0.04233-0.0423h0.254l0.08467-0.0423h0.04233l0.04233-0.0423h0.04233l0.08467-0.0423 0.04233-0.0423h0.04233l0.38097-0.3807v-0.0423l0.04233-0.0847v-0.0423l0.04233-0.0423v-0.0847l0.04233-0.0423v-0.127l0.04233-0.0423v-0.254l-0.04233-0.0423v-0.127l-0.04233-0.0423v-0.0847l-0.04233-0.0423v-0.0423l-0.04233-0.0847v-0.0423l-0.38097-0.3807h-0.04233l-0.04233-0.0423-0.08467-0.0423h-0.04233l-0.04233-0.0423h-0.04233l-0.08467-0.0423h-0.29633" fill="#848382"/>
  <path d="m21.721 218.85h-0.16933l-0.08467 0.0423h-0.127l-0.04233 0.0423h-0.04233l-0.04233 0.0423h-0.08467l-0.16932 0.1692h-0.04233l-0.12699 0.1269-0.04233 0.0847-0.08466 0.0846v0.0423l-0.04233 0.0423v0.0423l-0.04233 0.0847v0.0423l-0.04233 0.0423v0.127l-0.04233 0.0847v0.21166l0.04233 0.0847v0.127l0.04233 0.0423v0.0423l0.04233 0.0847v0.0423l0.04233 0.0423v0.0423l0.04233 0.0423 0.04233 0.0847 0.21165 0.2115h0.04233l0.12699 0.1269h0.08467l0.04233 0.0423h0.04233l0.04233 0.0423h0.127l0.08467 0.0423h0.33867l0.08467-0.0423h0.127l0.04233-0.0423h0.04233l0.04233-0.0423h0.08467l0.12699-0.1269h0.04233l0.21165-0.2115 0.04233-0.0847 0.04233-0.0423v-0.0423l0.04233-0.0423v-0.0423l0.04233-0.0847v-0.0423l0.04233-0.0423v-0.127l0.04233-0.0847v-0.21166l-0.04233-0.0847v-0.127l-0.04233-0.0423v-0.0423l-0.04233-0.0847v-0.0423l-0.04233-0.0423v-0.0423l-0.08466-0.0846-0.04233-0.0847-0.12699-0.1269h-0.04233l-0.16932-0.1692h-0.08467l-0.04233-0.0423h-0.04233l-0.04233-0.0423h-0.127l-0.08467-0.0423h-0.16933" fill="#fff500"/>
  <path d="m33.871 212.92h-0.254l-0.04233 0.0423h-0.04233l-0.08467 0.0423h-0.04233l-0.04233 0.0423h-0.08467l-0.08466 0.0846h-0.04233l-0.29631 0.2961-0.04233 0.0847v0.0423l-0.04233 0.0423v0.0423l-0.04233 0.0423v0.0847l-0.04233 0.0423v0.16933l-0.04233 0.0847v0.127l0.04233 0.0423v0.16934l0.04233 0.0847v0.0423l0.04233 0.0423v0.0847l0.04233 0.0423v0.0423l0.4233 0.423h0.04233l0.08467 0.0423h0.04233l0.04233 0.0423h0.08467l0.04233 0.0423h0.127l0.04233 0.0423h0.254l0.04233-0.0423h0.127l0.08467-0.0423h0.04233l0.04233-0.0423h0.08467l0.04233-0.0423h0.04233l0.4233-0.423v-0.0423l0.04233-0.0423 0.04233-0.0847v-0.0847l0.04233-0.0847v-0.0847l0.04233-0.0847v-0.254l-0.04233-0.0423v-0.127l-0.04233-0.0423v-0.127l-0.08466-0.0846v-0.0423l-0.04233-0.0847-0.29631-0.2961h-0.04233l-0.08466-0.0846h-0.04233l-0.08467-0.0423h-0.04233l-0.04233-0.0423h-0.08467l-0.04233-0.0423h-0.254" fill="#848382"/>
 </g>
</svg>
