<?xml version="1.0" encoding="UTF-8"?>
<!-- Created with Inkscape (http://www.inkscape.org/) -->
<svg width="20.139mm" height="30.722mm" version="1.1" viewBox="0 0 20.139 30.722" xmlns="http://www.w3.org/2000/svg">
 <g transform="translate(-35.189 -182.3)">
  <path d="m35.226 212.98h20.066v-30.649h-20.066z" fill="#383431" fill-rule="evenodd" stroke="#1f1a17" stroke-linecap="round" stroke-linejoin="round" stroke-miterlimit="10" stroke-width=".072813"/>
  <path d="m37.046 184.62h0.97366v0.0423h0.04233v0.0847h0.04233v0.97367l-0.04233 0.0423v0.0423h-0.04233v0.0423h-0.04233l-0.04233 0.0423h-0.97366v-0.0423h-0.04233l-0.04233-0.0423v-0.0423h-0.04233v-1.016l0.04233-0.0423v-0.0423h0.04233v-0.0423h0.12699" fill="#fff" fill-rule="evenodd"/>
  <path d="m37.046 184.62h0.97366v0.0423h0.04233v0.0847h0.04233v0.97367l-0.04233 0.0423v0.0423h-0.04233v0.0423h-0.04233v0l-0.04233 0.0423h-0.97366v-0.0423h-0.04233v0l-0.04233-0.0423v-0.0423h-0.04233v-1.016l0.04233-0.0423v-0.0423h0.04233v-0.0423h0.08466z" fill="none" stroke="#1f1a17" stroke-linecap="round" stroke-linejoin="round" stroke-miterlimit="10" stroke-width=".072813"/>
  <path d="m37.046 187.25h0.93133l0.08466 0.0846v0.0423h0.04233v1.016h-0.04233v0.0423l-0.08466 0.0846h-1.0583v-0.0423h-0.04233v-0.0847h-0.04233v-1.016h0.04233v-0.0847h0.04233v-0.0423h0.12699" fill="#fff" fill-rule="evenodd"/>
  <path d="m37.046 187.25h0.93133v0l0.04233 0.0423v0l0.04233 0.0423v0.0423h0.04233v1.016h-0.04233v0.0423l-0.04233 0.0423v0l-0.04233 0.0423h-1.0583v-0.0423h-0.04233v-0.0847h-0.04233v-1.016h0.04233v-0.0847h0.04233v-0.0423h0.08466z" fill="none" stroke="#1f1a17" stroke-linecap="round" stroke-linejoin="round" stroke-miterlimit="10" stroke-width=".072813"/>
  <path d="m37.046 189.87h0.889l0.04233 0.0423h0.04233v0.0423h0.04233v0.0423l0.04233 0.0423v0.97367h-0.04233v0.0847h-0.04233v0.0423h-1.1007v-0.0423h-0.04233v-0.0423l-0.04233-0.0423v-1.016h0.04233v-0.0423l0.04233-0.0423h0.04233v-0.0423h0.08466" fill="#fff" fill-rule="evenodd"/>
  <path d="m37.046 189.87h0.889v0l0.04233 0.0423h0.04233v0.0423h0.04233v0.0423l0.04233 0.0423v0.97367h-0.04233v0.0847h-0.04233v0.0423h-1.1007v-0.0423h-0.04233v-0.0423l-0.04233-0.0423v-1.016h0.04233v-0.0423l0.04233-0.0423h0.04233v-0.0423h0.04233z" fill="none" stroke="#1f1a17" stroke-linecap="round" stroke-linejoin="round" stroke-miterlimit="10" stroke-width=".072813"/>
  <path d="m37.046 192.54h0.97366v0.0423h0.04233v0.0847h0.04233v0.97367l-0.04233 0.0423v0.0423l-0.04233 0.0423h-0.04233l-0.04233 0.0423h-0.97366v-0.0423h-0.08466v-0.0847h-0.04233v-1.016l0.04233-0.0423v-0.0423h0.04233v-0.0423h0.12699" fill="#fff" fill-rule="evenodd"/>
  <path d="m37.046 192.54h0.97366v0.0423h0.04233v0.0847h0.04233v0.97367l-0.04233 0.0423v0.0423l-0.04233 0.0423h-0.04233v0l-0.04233 0.0423h-0.97366v-0.0423h-0.08466v-0.0847h-0.04233v-1.016l0.04233-0.0423v-0.0423h0.04233v-0.0423h0.08466z" fill="none" stroke="#1f1a17" stroke-linecap="round" stroke-linejoin="round" stroke-miterlimit="10" stroke-width=".072813"/>
  <g fill="#fff" fill-rule="evenodd">
   <path d="m37.046 195.16h0.93133v0.0423h0.04233v0l0.04233 0.0423v0.0423l0.04233 0.0423v0.97367h-0.04233v0.0847h-0.04233v0l-0.04233 0.0423h-1.0583v-0.0423h-0.04233v-0.0847h-0.04233v-1.016h0.04233v-0.0847h0.04233v0l0.04233-0.0423h0.08466" stroke="#1f1a17" stroke-linecap="round" stroke-linejoin="round" stroke-miterlimit="10" stroke-width=".072813"/>
   <path d="m37.046 197.79h0.889v0.0423h0.08466v0.0423h0.04233v0.0423l0.04233 0.0423v0.97367h-0.04233v0.0847h-0.04233v0.0423h-0.08466v0.0423h-0.93133v-0.0423h-0.08466v0l-0.04233-0.0423v-0.0423l-0.04233-0.0423v-1.016h0.04233v-0.0423l0.04233-0.0423h0.04233v0l0.04233-0.0423h0.04233" stroke="#1f1a17" stroke-linecap="round" stroke-linejoin="round" stroke-miterlimit="10" stroke-width=".072813"/>
   <path d="m37.046 200.45h0.97366v0.0423h0.04233v0.0847h0.04233v0.97367l-0.04233 0.0423v0.0423l-0.04233 0.0423h-0.04233v0.0423h-1.016l-0.04233-0.0423h-0.04233v-0.0847h-0.04233v-1.016l0.04233-0.0423v-0.0423h0.04233v-0.0423h0.12699"/>
  </g>
  <path d="m37.046 200.45h0.97366v0.0423h0.04233v0.0847h0.04233v0.97367l-0.04233 0.0423v0.0423l-0.04233 0.0423h-0.04233v0.0423h-1.016v0l-0.04233-0.0423h-0.04233v-0.0847h-0.04233v-1.016l0.04233-0.0423v-0.0423h0.04233v-0.0423h0.08466z" fill="none" stroke="#1f1a17" stroke-linecap="round" stroke-linejoin="round" stroke-miterlimit="10" stroke-width=".072813"/>
  <path d="m37.046 203.08h0.93133v0.0423h0.04233v0l0.04233 0.0423v0.0423l0.04233 0.0423v0.97367h-0.04233v0.0847h-0.04233v0.0423h-1.1007v-0.0423h-0.04233v-0.0423l-0.04233-0.0423v-1.016h0.04233v-0.0847h0.04233v0l0.04233-0.0423h0.08466" fill="#fff" fill-rule="evenodd" stroke="#1f1a17" stroke-linecap="round" stroke-linejoin="round" stroke-miterlimit="10" stroke-width=".072813"/>
  <path d="m37.046 205.7h0.889v0.0423h0.08466v0.0423h0.04233v0.0847h0.04233v0.97367l-0.04233 0.0423v0.0423h-0.04233v0.0423h-0.08466v0.0423h-0.93133l-0.04233-0.0423h-0.04233l-0.04233-0.0423v-0.0423h-0.04233v-1.016l0.04233-0.0423v-0.0423l0.04233-0.0423h0.08466v-0.0423h0.04233" fill="#fff" fill-rule="evenodd"/>
  <path d="m37.046 205.7h0.889v0.0423h0.08466v0.0423h0.04233v0.0847h0.04233v0.97367l-0.04233 0.0423v0.0423h-0.04233v0.0423h-0.08466v0.0423h-0.93133v0l-0.04233-0.0423h-0.04233v0l-0.04233-0.0423v-0.0423h-0.04233v-1.016l0.04233-0.0423v-0.0423l0.04233-0.0423h0.08466v-0.0423z" fill="none" stroke="#1f1a17" stroke-linecap="round" stroke-linejoin="round" stroke-miterlimit="10" stroke-width=".072813"/>
  <path d="m37.046 208.37h0.93133l0.04233 0.0423h0.04233v0.0847h0.04233v0.97367l-0.04233 0.0423v0.0423l-0.04233 0.0423h-0.04233v0.0423h-1.016l-0.04233-0.0423h-0.04233v-0.0847h-0.04233v-1.016h0.04233v-0.0847h0.04233v-0.0423h0.12699" fill="#fff" fill-rule="evenodd"/>
  <path d="m37.046 208.37h0.93133v0l0.04233 0.0423h0.04233v0.0847h0.04233v0.97367l-0.04233 0.0423v0.0423l-0.04233 0.0423h-0.04233v0.0423h-1.016v0l-0.04233-0.0423h-0.04233v-0.0847h-0.04233v-1.016h0.04233v-0.0847h0.04233v-0.0423h0.08466z" fill="none" stroke="#1f1a17" stroke-linecap="round" stroke-linejoin="round" stroke-miterlimit="10" stroke-width=".072813"/>
  <g fill="#fff" fill-rule="evenodd">
   <g stroke="#1f1a17" stroke-linecap="round" stroke-linejoin="round" stroke-miterlimit="10" stroke-width=".072813">
    <path d="m52.667 185.85h-0.93133v-0.0423h-0.04233l-0.04233-0.0423v-0.0423h-0.04233v-1.016l0.04233-0.0423v-0.0423h0.04233v-0.0423h1.1007v0.0423h0.04233v0.0847h0.04233v0.97367l-0.04233 0.0423v0.0423l-0.04233 0.0423h-0.04233v0.0423h-0.08466"/>
    <path d="m50.804 187.71h-0.93133v-0.0423h-0.04233l-0.04233-0.0423v-0.0423h-0.04233v-1.016h0.04233v-0.0847h0.04233l0.04233-0.0423h1.016l0.04233 0.0423h0.04233v0.0847h0.04233v1.016h-0.04233v0.0423l-0.04233 0.0423h-0.04233v0.0423h-0.08466"/>
    <path d="m48.942 189.57h-0.93133l-0.04233-0.0423h-0.04233v-0.0847h-0.04233v-1.016h0.04233v-0.0847h0.04233v-0.0423h1.0583l0.08466 0.0846v0.0423l0.04233 0.0423v0.93134l-0.04233 0.0423v0.0423l-0.08466 0.0846h-0.08466"/>
    <path d="m47.079 191.44h-0.97366v-0.0423h-0.04233v-0.0423h-0.04233v-1.0583l0.04233-0.0423v-0.0423h0.04233l0.04233-0.0423h1.016v0.0423h0.04233l0.04233 0.0423v0.0847h0.04233v0.93134l-0.04233 0.0423v0.0847h-0.04233l-0.04233 0.0423h-0.08466"/>
    <path d="m45.216 193.3h-0.97366v-0.0423h-0.04233v-0.0423h-0.04233v-1.0583l0.04233-0.0423v-0.0423h0.04233l0.04233-0.0423h1.016v0.0423h0.04233v0.0423h0.04233v0.0847l0.04233 0.0423v0.889h-0.04233v0.0847l-0.04233 0.0423v0.0423h-0.12699"/>
    <path d="m43.354 195.16h-0.97366v-0.0423h-0.04233v-0.0423h-0.04233v-1.0583h0.04233v-0.0423l0.04233-0.0423h0.04233v-0.0423h0.97366l0.04233 0.0423h0.04233v0.0423h0.04233v1.1007l-0.04233 0.0423v0.0423h-0.12699"/>
    <path d="m41.491 197.07-0.889-0.0423h-0.08466v-0.0423h-0.04233v-0.0423h-0.04233v-1.0583h0.04233v-0.0423l0.04233-0.0423h0.04233l0.04233-0.0423h0.93133v0.0423h0.08466v0.0423h0.04233v1.143h-0.04233l-0.04233 0.0423h-0.08466v0.0423"/>
    <path d="m39.628 198.93h-0.93133v-0.0423h-0.04233l-0.08466-0.0846v-1.0583l0.08466-0.0846h0.04233l0.04233-0.0423h0.93133v0.0423h0.08466v0.0423h0.04233v1.143h-0.04233v0.0423h-0.08466v0.0423h-0.04233"/>
   </g>
   <path d="m41.449 198.34h0.889v0.0423h0.08466l0.04233 0.0423v0.0423h0.04233v1.0583h-0.04233v0.0423l-0.04233 0.0423h-0.04233l-0.04233 0.0423h-0.93133v-0.0423h-0.08466v-0.0423h-0.04233v-1.143h0.04233v-0.0423h0.12699v-0.0423"/>
  </g>
  <path d="m41.449 198.34h0.889v0.0423h0.08466v0l0.04233 0.0423v0.0423h0.04233v1.0583h-0.04233v0.0423l-0.04233 0.0423h-0.04233v0l-0.04233 0.0423h-0.93133v-0.0423h-0.08466v-0.0423h-0.04233v-1.143h0.04233v-0.0423h0.12699z" fill="none" stroke="#1f1a17" stroke-linecap="round" stroke-linejoin="round" stroke-miterlimit="10" stroke-width=".072813"/>
  <path d="m43.311 200.24h0.97366l0.08466 0.0846v1.1007h-0.04233v0.0423h-0.04233l-0.04233 0.0423h-0.97366v-0.0423h-0.08466v-0.0847h-0.04233v-1.0583h0.04233v-0.0423h0.04233v-0.0423h0.08466" fill="#fff" fill-rule="evenodd"/>
  <path d="m43.311 200.24h0.97366v0l0.04233 0.0423v0l0.04233 0.0423v1.1007h-0.04233v0.0423h-0.04233v0l-0.04233 0.0423h-0.97366v-0.0423h-0.08466v-0.0847h-0.04233v-1.0583h0.04233v-0.0423h0.04233v-0.0423h0.04233z" fill="none" stroke="#1f1a17" stroke-linecap="round" stroke-linejoin="round" stroke-miterlimit="10" stroke-width=".072813"/>
  <path d="m45.174 202.1h0.97366v0.0423h0.04233v0.0423h0.04233v1.1007h-0.04233v0.0423h-0.04233v0l-0.04233 0.0423h-1.016v-0.0423h-0.04233v-0.0423h-0.04233v-1.1007l0.04233-0.0423v0l0.04233-0.0423h0.08466v0" fill="#fff" fill-rule="evenodd" stroke="#1f1a17" stroke-linecap="round" stroke-linejoin="round" stroke-miterlimit="10" stroke-width=".072813"/>
  <path d="m47.037 203.97h0.97366v0.0423h0.04233v0.0423h0.04233v1.1007h-0.04233v0.0423h-0.04233l-0.04233 0.0423h-1.016v-0.0423h-0.04233v-0.0423h-0.04233v-1.1007l0.04233-0.0423h0.04233v-0.0423h0.08466" fill="#fff" fill-rule="evenodd"/>
  <path d="m47.037 203.97h0.97366v0.0423h0.04233v0.0423h0.04233v1.1007h-0.04233v0.0423h-0.04233v0l-0.04233 0.0423h-1.016v-0.0423h-0.04233v-0.0423h-0.04233v-1.1007l0.04233-0.0423h0.04233v-0.0423h0.04233z" fill="none" stroke="#1f1a17" stroke-linecap="round" stroke-linejoin="round" stroke-miterlimit="10" stroke-width=".072813"/>
  <path d="m48.899 205.83h0.97366v0.0423h0.04233v0.0423h0.04233v1.1007h-0.04233v0.0423h-0.04233v0.0423h-1.0583v-0.0423h-0.04233v-0.0423h-0.04233v-1.1007l0.04233-0.0423h0.04233v-0.0423h0.08466" fill="#fff" fill-rule="evenodd"/>
  <path d="m48.899 205.83h0.97366v0.0423h0.04233v0.0423h0.04233v1.1007h-0.04233v0.0423h-0.04233v0.0423h-1.0583v-0.0423h-0.04233v-0.0423h-0.04233v-1.1007l0.04233-0.0423h0.04233v-0.0423h0.04233z" fill="none" stroke="#1f1a17" stroke-linecap="round" stroke-linejoin="round" stroke-miterlimit="10" stroke-width=".072813"/>
  <path d="m50.762 207.69h0.93133l0.04233 0.0423h0.04233v0.0423h0.04233v1.1007h-0.04233v0.0423h-0.04233v0.0423h-1.0583v-0.0423h-0.04233v-0.0423h-0.04233v-1.1007h0.04233v-0.0423h0.04233v-0.0423h0.08466" fill="#fff" fill-rule="evenodd"/>
  <path d="m50.762 207.69h0.93133v0l0.04233 0.0423h0.04233v0.0423h0.04233v1.1007h-0.04233v0.0423h-0.04233v0.0423h-1.0583v-0.0423h-0.04233v-0.0423h-0.04233v-1.1007h0.04233v-0.0423h0.04233v-0.0423h0.04233z" fill="none" stroke="#1f1a17" stroke-linecap="round" stroke-linejoin="round" stroke-miterlimit="10" stroke-width=".072813"/>
  <path d="m52.625 209.55h0.97366v0.0423h0.04233v0.0423h0.04233v1.1007h-0.04233v0.0423l-0.04233 0.0423h-1.0583v0l-0.04233-0.0423v-0.0423h-0.04233v-1.1007h0.04233v-0.0423h0.04233v0l0.04233-0.0423h0.04233v0" fill="#fff" fill-rule="evenodd" stroke="#1f1a17" stroke-linecap="round" stroke-linejoin="round" stroke-miterlimit="10" stroke-width=".072813"/>
 </g>
</svg>
