<?xml version="1.0" encoding="UTF-8"?>
<!-- Created with Inkscape (http://www.inkscape.org/) -->
<svg width="6.5523mm" height="27.87mm" version="1.1" viewBox="0 0 6.5523 27.87" xmlns="http://www.w3.org/2000/svg">
 <defs>
  <clipPath id="clipPath502">
   <path transform="translate(-250.32 -391.4)" d="m231.6 390.68h18.78v11.16h-18.78z"/>
  </clipPath>
 </defs>
 <g transform="translate(-59.778 -85.92)">
  <path transform="translate(-1.0833e-6)" d="m63.841 85.996 2.4523 3.8232h-3.8841z" fill="#fff"/>
  <path d="m62.418 113.67h3.8735v-23.855h-3.8735z" fill="#fff"/>
  <path d="m66.291 89.814h-3.8735v23.855h3.8735z" fill="none" stroke="#2b2625" stroke-linecap="round" stroke-linejoin="round" stroke-miterlimit="10" stroke-width=".072672"/>
  <g fill="#2b2625">
   <path d="m62.418 96.313h3.8735v-3.3867h-3.8735z"/>
   <path d="m62.418 103.09h3.8735v-3.3867h-3.8735z"/>
   <path d="m62.418 109.86h3.8735v-3.3867h-3.8735z"/>
  </g>
  <path d="m62.376 89.899-1.6298-1.1642-0.14817-0.127-0.16933-0.10583-0.4445-0.3175v1.4182l-0.02117 0.6985v2.8575l-0.02117 0.71967v2.159l-0.02117 0.71967v2.921l-0.02117 0.74083v1.524l-0.02117 0.74083v2.286l-0.02117 0.762v3.0903l-0.02117 0.78316v1.5452l-0.02117 0.78317 0.16933 0.127 0.08467 0.0423 0.08467 0.0635 0.0635 0.0635 0.08467 0.0423 0.16933 0.127 0.08467 0.0423 0.0635 0.0635 0.08467 0.0635 0.08467 0.0423 0.08467 0.0635 0.0635 0.0635 0.08467 0.0423 0.16933 0.127 0.08467 0.0423 0.0635 0.0635 0.08467 0.0635 0.08467 0.0423 0.08467 0.0635 0.0635 0.0635 0.08467 0.0423 0.16933 0.127 0.08467 0.0423 0.0635 0.0635 0.08467 0.0635 0.08467 0.0423 0.08467 0.0635 0.0635 0.0635v-23.855" fill="#fff" fill-rule="evenodd" stroke="#2b2625" stroke-linecap="round" stroke-linejoin="round" stroke-miterlimit="10" stroke-width=".072672"/>
  <g fill="#2b2625" fill-rule="evenodd">
   <path d="m62.376 92.841-0.59267-0.42333-0.14817-0.127-0.29633-0.21167-0.16933-0.10583-0.889-0.635-0.16933-0.127-0.14817-0.10583v2.2225l-0.02117 0.21167v0.80433l0.14817 0.127 0.16933 0.10583 0.59267 0.42333 0.16933 0.10583 0.14817 0.127 0.4445 0.3175 0.16933 0.10583 0.4445 0.3175 0.14817 0.127v-3.2597"/>
   <path d="m62.376 99.403-0.0635-0.0635-0.08467-0.04233-0.0635-0.0635-0.08467-0.04233-0.08467-0.0635-0.0635-0.0635-0.08467-0.04233-0.08467-0.0635-0.0635-0.04233-0.08467-0.0635-0.08467-0.04233-0.0635-0.0635-0.08467-0.0635-0.0635-0.04233-0.08467-0.0635-0.08467-0.04233-0.0635-0.0635-0.08467-0.0635-0.08467-0.04233-0.0635-0.0635-0.08467-0.04233-0.0635-0.0635-0.08467-0.04233-0.08467-0.0635-0.0635-0.0635-0.08467-0.04233-0.08467-0.0635-0.0635-0.04233-0.16933-0.127-0.0635-0.04233-0.08467-0.0635v1.8838l-0.02117 0.21167v1.27l0.08467 0.0635 0.0635 0.0423 0.16933 0.127 0.0635 0.0423 0.08467 0.0635 0.08467 0.0423 0.0635 0.0635 0.08467 0.0635 0.08467 0.0423 0.0635 0.0635 0.08467 0.0423 0.08467 0.0635 0.0635 0.0635 0.08467 0.0423 0.08467 0.0635 0.0635 0.0423 0.16933 0.127 0.0635 0.0423 0.08467 0.0635 0.08467 0.0423 0.0635 0.0635 0.08467 0.0635 0.08467 0.0423 0.0635 0.0635 0.08467 0.0423 0.08467 0.0635 0.0635 0.0635 0.08467 0.0423 0.08467 0.0635 0.0635 0.0635v-3.3867"/>
   <path d="m62.376 106.22-0.0635-0.0635-0.08467-0.0423-0.08467-0.0635-0.0635-0.0635-0.08467-0.0423-0.08467-0.0635-0.0635-0.0635-0.08467-0.0423-0.08467-0.0635-0.08467-0.0423-0.0635-0.0635-0.08467-0.0635-0.08467-0.0423-0.0635-0.0635-0.08467-0.0635-0.08467-0.0423-0.08467-0.0635-0.0635-0.0423-0.16933-0.127-0.0635-0.0423-0.16933-0.127-0.0635-0.0423-0.08467-0.0635-0.08467-0.0423-0.08467-0.0635-0.0635-0.0635-0.08467-0.0423-0.08467-0.0635-0.0635-0.0635-0.08467-0.0423v1.0795l-0.02117 0.21167v2.2013l0.08467 0.0423 0.0635 0.0635 0.08467 0.0635 0.08467 0.0423 0.0635 0.0635 0.08467 0.0635 0.08467 0.0423 0.08467 0.0635 0.0635 0.0635 0.08467 0.0423 0.08467 0.0635 0.08467 0.0423 0.0635 0.0635 0.08467 0.0635 0.08467 0.0423 0.08467 0.0635 0.0635 0.0635 0.08467 0.0423 0.16933 0.127 0.0635 0.0423 0.16933 0.127 0.08467 0.0423 0.0635 0.0635 0.08467 0.0635 0.08467 0.0423 0.0635 0.0635 0.08467 0.0423 0.16933 0.127 0.0635 0.0423v-3.4925"/>
  </g>
  <path transform="matrix(.35278 0 0 -.35278 66.355 89.603)" d="m-0.17271-0.60448-7.0163 10.962-10.862-6.281 6.8461-4.7727 4.0231 11.028" clip-path="url(#clipPath502)" fill="#fff" stroke="#2b2625" stroke-linecap="round" stroke-linejoin="round" stroke-miterlimit="10" stroke-width=".206"/>
 </g>
</svg>
