<?xml version="1.0" encoding="UTF-8"?>
<!-- Created with Inkscape (http://www.inkscape.org/) -->
<svg width="13.868mm" height="35.208mm" version="1.1" viewBox="0 0 13.868 35.208" xmlns="http://www.w3.org/2000/svg">
 <g transform="translate(-43.638 -76.13)">
  <path d="m49.155 111.3h2.8575v-6.477h-2.8575z" fill="#7e7e7e"/>
  <path d="m49.155 104.82h2.8575v6.477h-2.8575z" fill="none" stroke="#1e1917" stroke-linecap="round" stroke-linejoin="round" stroke-miterlimit="10" stroke-width=".074083"/>
  <path d="m43.736 90.684h13.631v14.118h-13.631zm0.04233-14.457h13.631v14.139h-13.631z" fill="#fff" stroke="#1e1917" stroke-linecap="round" stroke-linejoin="round" stroke-miterlimit="10" stroke-width=".19473"/>
  <path d="m43.736 104.8h13.631v-14.118h-13.631z" fill="#f4f015"/>
  <g fill="#1e1917">
   <path d="m47.588 82.493v-4.445h1.7145l0.127 0.02117c0.20285-0.01658 0.52458 0.09172 0.6985 0.1905l0.02117 0.02117 0.04233 0.02117 0.10584 0.10584 0.02117 0.04233 0.04233 0.02117 0.02117 0.02117 0.04234 0.08466c0.10971 0.13688 0.05856 0.09666 0.10583 0.21167l0.02117 0.02117v0.04233l0.02117 0.04233v0.02117l0.02117 0.04233v0.04233c0.0194 0.13406 0.02681 0.05856 0.02117 0.23283v0.10583l-0.02117 0.02117v0.0635l-0.02117 0.04233v0.04233l-0.02117 0.02117v0.04233l-0.02117 0.02117c-0.11042 0.27305-0.20673 0.30833-0.40217 0.48683h-0.04233l-0.04233 0.04233h-0.02117l0.08467 0.04233 0.04233 0.02117c0.28081 0.13935 0.22578 0.09349 0.4445 0.3175l0.02117 0.02117 0.04234 0.08466 0.04233 0.08467 0.02117 0.02117 0.04234 0.08466v0.04233l0.02117 0.04233v0.04233l0.02117 0.04233v0.10583l0.02117 0.04233v0.16933l-0.02117 0.0635c-0.02963 0.30127-0.14146 0.60607-0.381 0.80433l-0.08467 0.08467c-0.29457 0.18062-0.58984 0.23566-0.93133 0.254zm0.5715-2.5823h1.1007c0.19015-0.0014 0.34008-0.01588 0.508-0.10583l0.04233-0.02117 0.16933-0.16933 0.02117-0.04233v-0.04233l0.02117-0.0635 0.02117-0.04233v-0.10584l0.02117-0.0635-0.02117-0.04233c0.0053-0.19438-0.04057-0.27481-0.14817-0.42333l-0.04233-0.02117-0.02117-0.04233c-0.22225-0.13194-0.35066-0.12735-0.61383-0.14817h-1.0583zm0 2.0532h1.4182l0.02117-0.02117h0.0635l0.04233-0.02117h0.04233l0.08467-0.04233 0.02117-0.02117h0.04233c0.13406-0.0829 0.23883-0.21202 0.29633-0.35983v-0.04233l0.02117-0.04233v-0.0635l0.02117-0.04233v-0.21167l-0.02117-0.0635v-0.0635l-0.02117-0.04233-0.02117-0.0635-0.02117-0.04233-0.04233-0.04233-0.02117-0.04233-0.08467-0.08467c-0.17638-0.1637-0.43461-0.1704-0.65616-0.21168h-1.1853v1.524"/>
   <path d="m53.578 82.493v-0.46567l-0.0635 0.0635c-0.06032 0.11112-0.15522 0.18062-0.254 0.254l-0.02117 0.04233h-0.04233l-0.02117 0.02117-0.04233 0.02117-0.02117 0.02117-0.04233 0.02117h-0.02117l-0.04233 0.02117-0.02117 0.02117h-0.04233l-0.02117 0.02117h-0.08467l-0.02117 0.02117h-0.14817l-0.08467 0.02117-0.0635-0.02117h-0.127l-0.0635-0.02117h-0.08467l-0.04233-0.02117-0.0635-0.02117-0.0635-0.04233-0.0635-0.02117-0.04233-0.02117c-0.21166-0.1129-0.20813-0.20603-0.33866-0.35984l-0.02117-0.04233v-0.0635c-0.06809-0.11112-0.09313-0.37888-0.08467-0.508v-2.159h0.52917v2.0743c-0.0134 0.27552 0.03175 0.07232 0.02117 0.29633l0.02117 0.02117v0.04233l0.02117 0.02117v0.04233l0.02117 0.02117v0.02117l0.04233 0.04233v0.02117l0.02117 0.02117h0.02117l0.02117 0.02117v0.02117l0.04233 0.04233h0.02117l0.04233 0.04233h0.02117l0.02117 0.02117h0.02117l0.04233 0.02117h0.02117l0.04233 0.02117h0.16933c0.22684 0.02434 0.43392-0.08925 0.59267-0.23283l0.02117-0.02117v-0.02117l0.02117-0.02117c0.10513-0.09737-0.02046-0.0088 0.08467-0.10583v-0.02117l0.04234-0.08466 0.02117-0.0635v-0.08467l0.02117-0.0635v-0.08467l0.02117-0.08467v-1.9262h0.52917v3.2173zm-1.0583-3.8523h-0.55033v-0.61383h0.55033zm-0.55033 0m1.6298 0h-0.55033v-0.61383h0.55033z"/>
   <path d="m47.588 89.076v-4.445h1.8415c0.25365 0.0314 0.48013 0.0628 0.6985 0.21167l0.02117 0.02117 0.04233 0.02117 0.02117 0.02117 0.04233 0.02117 0.02117 0.02117 0.02117 0.04233 0.02117 0.02117 0.04233 0.02117 0.02117 0.04233 0.02117 0.02117 0.02117 0.04233c0.06456 0.10478 0.06244 0.09596 0.10583 0.21167l0.02117 0.04233v0.02117l0.02117 0.04233v0.04233l0.02117 0.04233v0.02117c0.02011 0.12524 0.0254 0.08502 0.02117 0.23283v0.10583l-0.02117 0.04233v0.0635l-0.02117 0.02117v0.04233l-0.02117 0.04233v0.02117l-0.02117 0.04233-0.02117 0.02117v0.04233l-0.02117 0.02117-0.02117 0.04233-0.02117 0.02117-0.02117 0.04233-0.04233 0.04233-0.02117 0.04233-0.02117 0.02117-0.04233 0.02117-0.02117 0.02117-0.02117 0.04233-0.04233 0.02117-0.02117 0.02117-0.04233 0.02117-0.02117 0.02117-0.08467 0.04233-0.02117 0.02117 0.04233 0.02117h0.04233l0.254 0.127 0.0635 0.0635 0.04233 0.02117 0.02117 0.04233 0.04233 0.02117 0.02117 0.04233 0.04233 0.02117 0.04233 0.08467 0.02117 0.02117 0.08467 0.16933 0.02117 0.04233v0.04233l0.02117 0.04233v0.04233l0.02117 0.04233v0.08467l0.02117 0.04233v0.16933l-0.02117 0.08467c-0.02011 0.28116-0.16475 0.61383-0.381 0.80433l-0.04233 0.04233-0.04233 0.02117c-0.24553 0.17533-0.63465 0.26741-0.93133 0.254l-0.08467 0.02117zm0.5715-2.5823h1.016c0.41346 0.0056 0.87595-0.11959 0.86783-0.61383l0.02117-0.04233-0.02117-0.0635v-0.04233c-0.01905-0.18803-0.04339-0.27376-0.1905-0.40217l-0.02117-0.04233-0.04233-0.02117c-0.13194-0.09066-0.41698-0.11007-0.5715-0.10583l-0.10583-0.02117h-0.9525zm0 2.0532h1.1853c0.16404-0.0092 0.33302-0.02893 0.48683-0.08467l0.02117-0.02117 0.08467-0.04233 0.02117-0.02117 0.04233-0.02117 0.02117-0.02117 0.02117-0.04233 0.04233-0.02117 0.04234-0.08466 0.0635-0.127v-0.04233l0.02117-0.04233v-0.04233l0.02117-0.04233c0.01023-0.23812-0.0095-0.393-0.14817-0.59267l-0.04233-0.04233-0.04233-0.02117c-0.13617-0.16334-0.45755-0.2159-0.65617-0.21167h-1.1853v1.524"/>
   <path d="m53.578 89.076v-0.48683l-0.0635 0.0635-0.04233 0.0635-0.02117 0.04233-0.02117 0.02117-0.04233 0.02117-0.02117 0.02117-0.02117 0.04233-0.02117 0.02117-0.04233 0.02117-0.04233 0.04233-0.04233 0.02117-0.02117 0.02117-0.04233 0.02117h-0.02117l-0.04233 0.02117-0.02117 0.02117h-0.04233l-0.02117 0.02117h-0.04233l-0.02117 0.02117h-0.04233l-0.04233 0.02117h-0.0635l-0.04233 0.02117h-0.27517l-0.0635-0.02117h-0.0635c-0.25224-0.06914-0.45367-0.1524-0.61383-0.35983l-0.04234-0.08466-0.04233-0.04233-0.02117-0.0635v-0.04233l-0.02117-0.0635-0.02117-0.04233-0.02117-0.0635v-0.10583l-0.02117-0.04233v-2.3495h0.52917v2.2013l0.02117 0.0635v0.08467l0.02117 0.02117v0.0635l0.02117 0.02117v0.02117l0.02117 0.02117v0.02117l0.04233 0.04233v0.02117l0.127 0.127h0.02117l0.04234 0.04234h0.02117l0.02117 0.02117h0.0635l0.04233 0.02117h0.0635l0.04233 0.02117h0.127c0.13758-0.03422 0.13406-0.02752 0.27517-0.08467l0.0635-0.02117 0.04233-0.02117 0.04233-0.04233h0.02117l0.04233-0.02117 0.0635-0.0635v-0.02117l0.0635-0.0635v-0.02117l0.02117-0.04233 0.02117-0.02117v-0.02117l0.02117-0.02117c0.03457-0.07126 0.06985-0.28575 0.0635-0.35983l0.02117-0.08467v-1.905h0.52917v3.2173zm-1.0583-3.8523h-0.55033v-0.635h0.55033zm-0.55033 0m1.6298 0h-0.55033v-0.635h0.55033z"/>
   <path d="m47.546 96.928v-4.445h1.7145l0.127 0.02117c0.3055 0.01446 0.42721 0.06279 0.6985 0.1905l0.02117 0.02117 0.04233 0.02117 0.02117 0.04233 0.04233 0.02117 0.04233 0.04233 0.02117 0.04233 0.04233 0.02117 0.02117 0.04233 0.02117 0.02117 0.02117 0.04233 0.02117 0.02117 0.04233 0.08467 0.02117 0.02117v0.04233l0.02117 0.04233 0.02117 0.02117v0.04233l0.02117 0.04233v0.04233l0.02117 0.02117v0.04233c0.0194 0.1337 0.02716 0.05856 0.02117 0.23283v0.0635l-0.02117 0.04233v0.08467l-0.02117 0.04233v0.04233l-0.02117 0.02117v0.04233l-0.02117 0.02117c-0.12912 0.27834-0.17604 0.29386-0.40217 0.48683l-0.08467 0.04233-0.02117 0.02117h0.04233l0.08467 0.04233c0.21978 0.09843 0.2801 0.14676 0.4445 0.3175l0.02117 0.04233 0.02117 0.02117 0.04233 0.08467 0.04234 0.08466 0.02117 0.02117 0.02117 0.04233v0.04233c0.02752 0.05503 0.0508 0.16898 0.04233 0.23283l0.02117 0.04233v0.16933c-0.11606 0.88865-0.647 1.2079-1.5028 1.2065zm0.5715-2.5612h0.91017l0.10583-0.02117h0.08467c0.19262 0.01446 0.33796-0.01976 0.508-0.10583l0.08467-0.04233 0.02117-0.04233 0.10583-0.10583 0.02117-0.04233v-0.04233l0.02117-0.0635 0.02117-0.04233v-0.16933c0.01023-0.5969-0.43498-0.67275-0.93133-0.67733h-0.9525zm0 2.032h1.1853c0.24095 7.06e-4 0.254 0.01764 0.48683-0.08467h0.02117l0.08467-0.04233 0.02117-0.02117 0.04233-0.02117 0.02117-0.04233 0.08467-0.08467 0.04233-0.08467 0.04234-0.08466v-0.04233l0.02117-0.04233v-0.04233l0.02117-0.0635c0.01588-0.20638-0.03104-0.40534-0.14817-0.5715l-0.08467-0.08467-0.04233-0.02117-0.04233-0.04233-0.08466-0.04234-0.1905-0.0635h-0.0635l-0.08467-0.02117h-0.16933l-0.08467-0.02117h-1.0795v1.524"/>
   <path d="m53.536 96.928v-0.46567l-0.0635 0.0635-0.04233 0.0635-0.02117 0.02117-0.02117 0.04233-0.04233 0.02117-0.04233 0.04233-0.02117 0.04233-0.04233 0.02117-0.04233 0.04233-0.04233 0.02117h-0.02117l-0.04233 0.02117-0.02117 0.02117-0.04233 0.02117h-0.02117l-0.04233 0.02117-0.02117 0.02117h-0.04233l-0.02117 0.02117h-0.08467l-0.02117 0.02117h-0.08467l-0.0635 0.02117h-0.14817l-0.0635-0.02117h-0.0635l-0.08467-0.02117h-0.0635c-0.23424-0.10372-0.35913-0.1464-0.52917-0.33867l-0.02117-0.04233-0.02117-0.0635-0.04233-0.04233-0.02117-0.04233-0.02117-0.0635v-0.04233l-0.02117-0.0635-0.02117-0.04233v-0.10583l-0.02117-0.04233v-2.3707h0.52917v2.2225l0.02117 0.04233v0.10583l0.02117 0.02117v0.04233l0.02117 0.04233v0.02117l0.02117 0.02117v0.02117l0.04233 0.04233v0.02117l0.04233 0.04233h0.02117v0.02117l0.04233 0.04233h0.02117l0.04233 0.04233h0.02117l0.02117 0.02117h0.02117l0.02117 0.02117h0.0635l0.02117 0.02117c0.15028 0.0021 0.30339 0.03246 0.4445-0.04233l0.127-0.04233 0.04233-0.02117 0.02117-0.02117c0.07055-0.06844 0.17004-0.11606 0.21167-0.21167v-0.02117l0.04233-0.04233v-0.02117l0.04233-0.08467 0.02117-0.0635v-0.08467l0.02117-0.0635v-0.08467l0.02117-0.08467v-1.9262h0.52917v3.2173zm-1.0583-3.8523h-0.55033v-0.61383h0.55033zm-0.55033 0m1.6298 0h-0.55033v-0.61383h0.55033z"/>
   <path d="m46.022 103.38h-0.46567v-3.4925l-0.04233 0.0635c-0.22331 0.19368-0.55562 0.45297-0.8255 0.5715l-0.0635 0.0212v-0.508l0.10583-0.0635 0.08467-0.0635c0.16969-0.12312 0.36301-0.22895 0.48683-0.40217l0.14817-0.14817c0.08255-0.14146 0.18909-0.26846 0.254-0.42333l0.02117-0.02117h0.29633v4.4662"/>
   <path d="m48.541 103.38h-0.46567v-3.4925l-0.04233 0.0635c-0.2413 0.23248-0.52176 0.42474-0.8255 0.5715l-0.04233 0.0212v-0.508l0.08467-0.0635 0.10583-0.0635c0.16439-0.1203 0.34325-0.25859 0.48683-0.40217l0.0635-0.08467 0.0635-0.0635c0.09313-0.11183 0.18627-0.28928 0.254-0.42333l0.02117-0.02117h0.29633v4.4662"/>
   <path d="m49.726 102.2 0.4445-0.0635 0.02117 0.0423v0.0635l0.02117 0.0635 0.02117 0.0423c-0.0035 0.084 0.08537 0.29562 0.14817 0.35983l0.02117 0.0423 0.04233 0.0423 0.02117 0.0423 0.02117 0.0212 0.04233 0.0212 0.04233 0.0423h0.02117l0.04233 0.0212 0.02117 0.0212h0.02117l0.04233 0.0212h0.0635l0.02117 0.0212h0.23283l0.02117-0.0212h0.04233l0.04233-0.0212h0.04233l0.02117-0.0212 0.04233-0.0212 0.02117-0.0212 0.04233-0.0212 0.02117-0.0212 0.04233-0.0212 0.02117-0.0423 0.04233-0.0212 0.02117-0.0423 0.02117-0.0212 0.04233-0.0847 0.02117-0.0212 0.0635-0.127c0.04904-0.14076 0.07408-0.2473 0.0635-0.40217v-0.16933l-0.02117-0.0423v-0.0847l-0.04233-0.0847v-0.0423l-0.02117-0.0212-0.04233-0.0847-0.02117-0.0212-0.02117-0.0423-0.02117-0.0212-0.04233-0.0212-0.02117-0.0423-0.02117-0.0212-0.04233-0.0212-0.04233-0.0423-0.04233-0.0212-0.02117-0.0212h-0.04233l-0.04233-0.0212h-0.02117l-0.04233-0.0212h-0.0635l-0.04233-0.0212h-0.08467l-0.04233 0.0212h-0.0635l-0.04233 0.0212h-0.04233l-0.04233 0.0212h-0.0635l0.0635-0.46567h0.16933l0.04233-0.0212h0.0635l0.04233-0.0212h0.04233l0.02117-0.0212h0.04233l0.02117-0.0212 0.04233-0.0212 0.02117-0.0212 0.04233-0.0212 0.04233-0.0423 0.04233-0.0212 0.04233-0.0423 0.02117-0.0423 0.04233-0.0423 0.02117-0.0423c0.09984-0.23883 0.09102-0.54363-0.02117-0.762l-0.0635-0.0635-0.02117-0.04233-0.10583-0.10583h-0.02117l-0.04233-0.02117-0.02117-0.02117h-0.02117l-0.04233-0.02117h-0.04233l-0.04233-0.02117h-0.1905l-0.04233 0.02117h-0.04233l-0.04233 0.02117h-0.02117l-0.02117 0.02117-0.04233 0.02117h-0.02117l-0.0635 0.0635-0.04233 0.02117-0.02117 0.02117-0.02117 0.04233-0.04233 0.04233v0.04233l-0.02117 0.02117-0.04233 0.08467-0.02117 0.02117v0.04233l-0.02117 0.04233v0.04233l-0.02117 0.04233v0.04233l-0.02117 0.0423v0.10583l-0.46567-0.10583v-0.0635l0.04233-0.127c0.03387-0.3556 0.35419-0.76094 0.67733-0.889h0.04233l0.04233-0.02117 0.0635-0.02117h0.04233l0.04233-0.02117h0.3175l0.04233 0.02117h0.0635l0.04233 0.02117h0.04233l0.02117 0.02117h0.04233l0.02117 0.02117 0.04233 0.02117h0.04233l0.02117 0.02117 0.04233 0.02117 0.02117 0.02117 0.04233 0.02117 0.04234 0.04234 0.04233 0.02117 0.02117 0.02117 0.02117 0.04233 0.02117 0.02117 0.04233 0.02117 0.02117 0.02117 0.02117 0.04233 0.02117 0.02117 0.02117 0.04233 0.02117 0.02117v0.04233c0.10901 0.15134 0.14111 0.35313 0.16933 0.52917v0.14817l-0.02117 0.0635c0.0028 0.1397-0.07585 0.29175-0.127 0.42334l-0.04233 0.0423c-0.04586 0.0889-0.1337 0.15416-0.21167 0.21167l-0.02117 0.0212-0.04233 0.0212-0.02117 0.0212-0.04233 0.0212h0.04233l0.127 0.0635h0.04233l0.02117 0.0212 0.04233 0.0212 0.08467 0.0847 0.04233 0.0212 0.02117 0.0423 0.08467 0.0847 0.04234 0.0846 0.02117 0.0212 0.04234 0.0846v0.0423l0.04233 0.0847v0.0423l0.02117 0.0423v0.0423l0.02117 0.0635v0.1905l0.02117 0.0635-0.02117 0.0635v0.14817l-0.02117 0.0635c-0.01623 0.19826-0.10936 0.38629-0.21167 0.55033l-0.02117 0.0423-0.04233 0.0635-0.10583 0.10584c-0.7359 0.69215-1.869 0.31961-2.032-0.762v-0.14817"/>
   <path d="m52.88 103.38v-0.635h0.508v0.86783l-0.02117 0.0635v0.0635l-0.02117 0.0635-0.02117 0.0423v0.0212l-0.02117 0.0423v0.0212l-0.04233 0.0423v0.0212l-0.02117 0.0212-0.02117 0.0423-0.08467 0.0847h-0.02117l-0.08467 0.0847h-0.02117l-0.04233 0.0212-0.127-0.23283 0.04233-0.0212 0.02117-0.0212 0.04233-0.0212 0.02117-0.0212 0.02117-0.0423 0.04233-0.0212 0.02117-0.0423v-0.0212l0.04233-0.0847v-0.0423l0.02117-0.0635v-0.0423l0.02117-0.0635v-0.127h-0.254"/>
   <path d="m56.499 102.86v0.52917h-2.4765v-0.14817c0.07796-0.56374 0.47131-1.0266 0.86783-1.4182l0.35983-0.35983c0.15381-0.15028 0.36371-0.38947 0.48683-0.5715l0.04233-0.0423 0.02117-0.0635 0.02117-0.0212 0.04233-0.0635 0.04234-0.0846v-0.0423l0.02117-0.0212 0.04233-0.0847v-0.0423l0.02117-0.0423v-0.0423l0.02117-0.0423v-0.3175l-0.02117-0.04233v-0.0635l-0.02117-0.04233-0.02117-0.02117v-0.04233l-0.02117-0.02117-0.02117-0.04233-0.02117-0.02117-0.02117-0.04233-0.04233-0.04233-0.02117-0.04233-0.02117-0.02117-0.04233-0.02117-0.04233-0.04233c-0.09948-0.03281-0.17039-0.09772-0.27517-0.08467l-0.02117-0.02117h-0.16933l-0.04233 0.02117h-0.0635l-0.04233 0.02117h-0.04233l-0.02117 0.02117-0.04233 0.02117-0.02117 0.02117-0.04233 0.02117h-0.02117l-0.02117 0.04233-0.04233 0.02117c-0.06209 0.06068-0.10195 0.13935-0.14817 0.21167l-0.04233 0.08467c-0.0085 0.10336-0.05962 0.1838-0.04233 0.29634l-0.02117 0.0635v0.0423l-0.46567-0.0423v-0.0847l0.02117-0.0847v-0.0635c0.09243-0.45967 0.28892-0.83467 0.762-0.99483l0.127-0.04233h0.04233l0.0635-0.02117h0.40217l0.0635 0.02117h0.04233l0.127 0.04233c0.18979 0.06385 0.33126 0.19121 0.46567 0.33867l0.02117 0.04233 0.04233 0.04233 0.02117 0.04233 0.04233 0.0635 0.02117 0.04233c0.20038 0.44344 0.14005 0.95144-0.08467 1.3758l-0.04233 0.0847-0.04233 0.0635c-0.44309 0.62018-1.0926 1.0883-1.4817 1.6722l-0.02117 0.0212-0.04234 0.0846h1.8415"/>
  </g>
  <path d="m43.82 83.297h13.547" fill="none" stroke="#1e1917" stroke-linecap="round" stroke-linejoin="round" stroke-miterlimit="10" stroke-width=".19473"/>
 </g>
</svg>
