<?xml version="1.0" encoding="UTF-8"?>
<!-- Created with Inkscape (http://www.inkscape.org/) -->
<svg width="13.893mm" height="35.231mm" version="1.1" viewBox="0 0 13.893 35.231" xmlns="http://www.w3.org/2000/svg">
 <g transform="translate(-51.311 -72.426)">
  <path d="m51.411 86.665h13.695v-14.139h-13.695z" fill="#fff"/>
  <path d="m51.411 72.525h13.695v14.139h-13.695z" fill="none" stroke="#1e1917" stroke-linecap="round" stroke-linejoin="round" stroke-miterlimit="10" stroke-width=".19861"/>
  <g fill="#1e1917">
   <path d="m55.707 78.833v-4.445h1.7357l0.127 0.02117c0.27411 0.0085 0.45261 0.07655 0.6985 0.1905l0.02117 0.02117 0.04233 0.02117 0.02117 0.04233 0.02117 0.02117 0.04233 0.02117 0.02117 0.02117 0.02117 0.04233 0.04233 0.02117 0.02117 0.04233 0.02117 0.02117 0.02117 0.04233 0.02117 0.02117 0.04233 0.08467 0.02117 0.02117v0.04233l0.02117 0.04233 0.02117 0.02117v0.04233l0.02117 0.04233v0.04233l0.02117 0.02117v0.04233c0.0187 0.11959 0.02611 0.08925 0.02117 0.23283v0.10583l-0.02117 0.02117v0.08467l-0.02117 0.02117v0.04233l-0.02117 0.02117v0.04233l-0.02117 0.02117c-0.05856 0.18521-0.24659 0.37218-0.40217 0.48683l-0.127 0.0635h0.0635l0.08467 0.04233c0.21978 0.09842 0.28011 0.14676 0.4445 0.3175l0.02117 0.04233 0.02117 0.02117 0.08467 0.16933 0.02117 0.02117 0.02117 0.04233v0.04233c0.02752 0.05503 0.0508 0.16898 0.04233 0.23283l0.02117 0.04233v0.16933c-0.11042 0.89958-0.647 1.1994-1.5028 1.2065zm0.5715-2.5612h1.016l0.08467-0.02117c0.21167 0.01094 0.34184-0.01129 0.52917-0.10583l0.08467-0.04233c0.11712-0.16228 0.10513-0.12559 0.1905-0.33867v-0.16933c0.02364-0.57714-0.44626-0.68721-0.93133-0.67733h-0.97367zm0 2.0532h1.2065l0.04233-0.02117h0.21167l0.04233-0.02117h0.0635l0.08467-0.04233h0.04233l0.02117-0.02117 0.04233-0.02117c0.09737-0.02928 0.26352-0.26211 0.29633-0.35983v-0.04233l0.02117-0.04233v-0.04233l0.02117-0.0635c0.01129-0.2032-0.02081-0.42298-0.16933-0.5715l-0.02117-0.04233-0.04233-0.04233-0.04233-0.02117-0.04233-0.04233-0.04233-0.02117-0.0635-0.02117-0.04233-0.02117-0.127-0.04233h-0.0635l-0.08467-0.02117h-0.16933l-0.08467-0.02117h-1.1007v1.5452"/>
   <path d="m61.719 78.833v-0.46567l-0.08467 0.127-0.10584 0.10584-0.02117 0.04233-0.04233 0.02117-0.04233 0.04233-0.04233 0.02117-0.02117 0.02117-0.04233 0.02117h-0.02117l-0.04233 0.02117-0.02117 0.02117h-0.04233l-0.02117 0.02117-0.04233 0.02117h-0.02117l-0.04233 0.02117h-0.04233l-0.02117 0.02117h-0.10583l-0.08467 0.02117h-0.14817l-0.0635-0.02117h-0.0635c-0.70379-0.11536-0.8636-0.56656-0.86783-1.2065v-2.0744h0.52917v2.0743c0.0081 0.05292 0.01658 0.25964 0.04233 0.29633v0.04233l0.02117 0.04233v0.02117l0.02117 0.02117v0.02117l0.02117 0.02117v0.02117l0.04233 0.04233v0.02117c0.05009 0.05539 0.0078-0.02575 0.10583 0.08467l0.02117 0.02117h0.02117l0.02117 0.02117h0.02117l0.02117 0.02117h0.02117l0.02117 0.02117h0.02117l0.04233 0.02117h0.127l0.04233 0.02117 0.0635-0.02117h0.127l0.04233-0.02117 0.0635-0.02117 0.04233-0.02117 0.127-0.04233 0.02117-0.02117c0.09807-0.11077 0.05539-0.02928 0.10583-0.08467l0.08467-0.08467v-0.04233l0.04233-0.04233v-0.02117l0.02117-0.02117v-0.04233l0.02117-0.02117v-0.02117l0.02117-0.04233v-0.02117l0.02117-0.08467 0.02117-0.0635v-0.16933l0.02117-0.10583v-1.8203h0.52917v3.2173zm-1.0583-3.8523h-0.55033v-0.61383h0.55033zm-0.55033 0m1.651 0h-0.55033v-0.61383h0.55033z"/>
   <path d="m53.845 85.416h-0.42333v-3.4713l-0.08467 0.08467c-0.14358 0.11571-0.11042 0.11712-0.254 0.23283l-0.127 0.08467c-0.12136 0.05997-0.18697 0.17357-0.29633 0.1905l-0.04233 0.04233-0.0635 0.02117v-0.52917l0.10583-0.0635c0.37077-0.26211 0.69109-0.58102 0.889-0.99483l0.02117-0.0635h0.27517v4.4662"/>
   <path d="m56.194 85.416h-0.42333v-3.4713l-0.04233 0.04233c-0.24659 0.25612-0.47978 0.39441-0.762 0.59267l-0.0635 0.02117v-0.52917c0.4826-0.34643 0.70908-0.5274 0.99483-1.0583l0.02117-0.0635h0.27517v4.4662"/>
   <path d="m57.295 84.23 0.42333-0.0635v0.0635l0.02117 0.04233v0.0635l0.04234 0.08466v0.0635l0.06351 0.12699v0.04233l0.02117 0.02117 0.02117 0.04233 0.02117 0.02117 0.02117 0.04233 0.02117 0.02117 0.02117 0.04233 0.10583 0.10583 0.04233 0.02117h0.02117l0.02117 0.02117h0.02117l0.04233 0.02117h0.02117l0.02117 0.02117h0.27517l0.04233-0.02117 0.02117-0.02117h0.04233l0.02117-0.02117 0.04233-0.02117 0.02117-0.02117 0.04233-0.02117 0.04233-0.04233 0.04233-0.02117 0.02117-0.04233 0.0635-0.0635 0.02117-0.04233 0.02117-0.02117 0.04233-0.08467v-0.04233l0.02117-0.04233 0.02117-0.02117v-0.04233l0.02117-0.04233v-0.10583l0.02117-0.04233v-0.3175l-0.02117-0.04233v-0.04233l-0.02117-0.04233v-0.04233l-0.02117-0.04233v-0.02117l-0.04233-0.08467-0.02117-0.02117-0.02117-0.04233-0.02117-0.02117c-0.04551-0.10654-0.14605-0.16263-0.23283-0.23283h-0.04233l-0.02117-0.02117h-0.04233l-0.02117-0.02117h-0.29633l-0.02117 0.02117h-0.04233l-0.04233 0.02117h-0.04233l0.04233-0.46567h0.10583c0.09207 0.01199 0.1711-0.03493 0.254-0.0635h0.02117l0.04233-0.02117 0.04233-0.04233h0.04233l0.02117-0.02117 0.02117-0.04233 0.04233-0.02117 0.0635-0.0635 0.02117-0.04233 0.02117-0.02117v-0.04233l0.02117-0.02117 0.02117-0.04233v-0.04233l0.02117-0.04233v-0.08467l0.02117-0.04233v-0.14817l-0.02117-0.04233v-0.10583l-0.02117-0.02117v-0.04233l-0.02117-0.02117v-0.04233l-0.02117-0.02117v-0.02117l-0.02117-0.04233-0.0635-0.0635-0.02117-0.04233-0.0635-0.0635h-0.02117l-0.04233-0.04233h-0.02117l-0.04233-0.02117-0.02117-0.02117h-0.08467l-0.02117-0.02117h-0.127l-0.04233 0.02117h-0.08467l-0.04233 0.04233h-0.02117l-0.02117 0.02117-0.04233 0.02117-0.04234 0.04234h-0.02117l-0.02117 0.02117-0.02117 0.04233-0.0635 0.0635v0.04233l-0.02117 0.04233-0.02117 0.02117-0.02117 0.04233v0.04233l-0.02117 0.02117-0.02117 0.04233v0.04233l-0.02117 0.04233v0.10583l-0.02117 0.04233v0.04233l-0.42333-0.10583v-0.0635l0.04233-0.127c0.03281-0.29669 0.28046-0.73201 0.5715-0.84667l0.08467-0.04233 0.0635-0.02117 0.04233-0.02117h0.08467l0.0635-0.02117h0.23283l0.04233 0.02117h0.0635l0.02117 0.02117h0.04233l0.02117 0.02117 0.04233 0.02117h0.02117l0.04233 0.02117 0.02117 0.02117h0.04233l0.02117 0.02117 0.04233 0.02117 0.02117 0.02117c0.07232 0.06315 0.14252 0.12524 0.1905 0.21167l0.04233 0.04233c0.09701 0.14252 0.12382 0.25435 0.16933 0.42333l0.02117 0.0635v0.14817l0.02117 0.08467c-0.04057 0.21308-0.01764 0.27234-0.127 0.508l-0.02117 0.04233-0.04233 0.04233v0.04233l-0.1905 0.1905-0.0635 0.02117-0.04233 0.04233 0.04233 0.02117h0.02117l0.08467 0.04233 0.02117 0.02117 0.04233 0.02117 0.02117 0.02117 0.04233 0.02117 0.04233 0.04233 0.04233 0.02117 0.02117 0.04233 0.02117 0.02117 0.02117 0.04233 0.0635 0.0635v0.04233l0.02117 0.04233 0.02117 0.02117 0.04234 0.08466v0.04233l0.04234 0.08466v0.10583l0.02117 0.04233v0.14817l0.02117 0.04233v0.0635l-0.02117 0.0635v0.21167c-0.05186 0.20179-0.08819 0.37324-0.21167 0.55033l-0.02117 0.0635-0.08467 0.08467-0.04233 0.0635-0.08467 0.08467c-0.19544 0.14323-0.17568 0.15593-0.42333 0.23283h-0.04233l-0.0635 0.02117h-0.0635l-0.0635 0.02117h-0.127l-0.04233-0.02117h-0.10583l-0.0635-0.02117-0.08467-0.04233-0.0635-0.02117c-0.37712-0.17074-0.58879-0.56021-0.65617-0.9525l-0.02117-0.0635v-0.14817"/>
   <path d="m60.216 85.416v-0.635h0.48683v0.86783l-0.02117 0.0635v0.08467l-0.02117 0.0635-0.02117 0.04233-0.02117 0.0635-0.02117 0.02117v0.02117l-0.02117 0.04233-0.02117 0.02117v0.02117l-0.127 0.127h-0.02117l-0.0635 0.0635h-0.02117l-0.127-0.23283 0.04233-0.02117 0.02117-0.02117c0.12806-0.09596 0.03104 0.0018 0.127-0.127v-0.04233l0.04234-0.08466v-0.04233l0.02117-0.0635v-0.04233l0.02117-0.0635v-0.127h-0.254"/>
   <path d="m62.714 85.416v-1.0583h-1.5028v-0.508l1.5875-2.8787h0.33867v2.8787h0.48683v0.508h-0.48683v1.0583zm0-1.5663v-2.0108l-1.0795 2.0108h1.0795"/>
  </g>
  <path d="m56.893 107.62h2.8787v-20.828h-2.8787z" fill="#7e7e7e"/>
  <path d="m56.893 86.792h2.8787v20.828h-2.8787z" fill="none" stroke="#1e1917" stroke-linecap="round" stroke-linejoin="round" stroke-miterlimit="10" stroke-width=".075494"/>
 </g>
</svg>
