<?xml version="1.0" encoding="UTF-8"?>
<!-- Created with Inkscape (http://www.inkscape.org/) -->
<svg width="17.707mm" height="46.536mm" version="1.1" viewBox="0 0 17.707 46.536" xmlns="http://www.w3.org/2000/svg">
 <defs>
  <clipPath id="clipPath88">
   <path transform="translate(0 2.5e-5)" d="m255.29 620.79h33.42v60.12h-33.42z"/>
  </clipPath>
 </defs>
 <g transform="translate(-67.733 -92.604)">
  <path d="m73.719 113.72h11.684v-21.082h-11.684z" fill="#7e7e7e"/>
  <path transform="matrix(.35278 0 0 -.35278 -16.405 332.81)" d="m255.47 680.79h33.12v-59.76h-33.12z" clip-path="url(#clipPath88)" fill="none" stroke="#1e1917" stroke-linecap="round" stroke-linejoin="round" stroke-miterlimit="10" stroke-width=".214"/>
  <g>
   <path d="m79.54 106.8 0.10583 0.0212h0.127c2.8381 0.39475 2.7249 4.3254-0.127 4.5508h-0.23283c-2.8519-0.2226-2.9478-4.1875-0.10583-4.5508h0.10583l0.127-0.0212" fill="#f4f015" fill-rule="evenodd" stroke="#1e1917" stroke-linecap="round" stroke-linejoin="round" stroke-miterlimit="10" stroke-width=".075494"/>
   <path d="m79.519 95.732h0.16933c1.9851 0.29457 1.9145 3.0092-0.08467 3.1962h-0.16933l-0.0635-0.02117c-0.75706-0.04833-1.379-0.66358-1.4605-1.4182v-0.16933c-0.02081-0.77682 0.61842-1.4736 1.3758-1.5663l0.08467-0.02117h0.14817" fill="#7e7e7e" fill-rule="evenodd" stroke="#1e1917" stroke-linecap="round" stroke-linejoin="round" stroke-miterlimit="10" stroke-width=".075494"/>
   <path d="m78.842 139.1h1.5028v-25.4h-1.5028z" fill="#fff"/>
  </g>
  <path d="m78.842 113.7h1.5028v25.4h-1.5028z" fill="none" stroke="#1e1917" stroke-linecap="round" stroke-linejoin="round" stroke-miterlimit="10" stroke-width=".075494"/>
  <g>
   <path d="m78.842 115.46 1.5028 1.4817v4.7413l-1.5028-1.6298v-4.5932" fill="#1e1917" fill-rule="evenodd"/>
   <path d="m78.842 125.2 1.5028 1.4817v4.7413l-1.5028-1.6298v-4.5932" fill="#1e1917" fill-rule="evenodd"/>
   <path d="m78.842 139.1h1.5028v-5.9267h-1.5028z" fill="#7e7e7e"/>
   <path d="m67.771 100.01h5.9478v-5.8843h-5.9478z" fill="#7e7e7e"/>
  </g>
  <path d="m67.771 94.124h5.9478v5.8843h-5.9478z" fill="none" stroke="#1e1917" stroke-linecap="round" stroke-linejoin="round" stroke-miterlimit="10" stroke-width=".075494"/>
  <path d="m70.756 96.071h0.14817l0.04233 0.02117h0.0635l0.08467 0.04233h0.04233l0.04233 0.02117 0.0635 0.02117 0.02117 0.04233 0.127 0.0635 0.14817 0.14817 0.04234 0.08466 0.0635 0.0635 0.02117 0.0635 0.04233 0.08467v0.04233l0.02117 0.04233 0.02117 0.0635v0.08467l0.02117 0.0635v0.08467l-0.02117 0.0635v0.08467l-0.02117 0.0635-0.02117 0.04233v0.04233l-0.04233 0.08467-0.02117 0.0635-0.02117 0.04233-0.0635 0.0635-0.02117 0.04233-0.14817 0.14817-0.08467 0.04233-0.0635 0.0635-0.0635 0.02117-0.08467 0.04233h-0.04233l-0.04233 0.02117h-0.0635l-0.04233 0.02117h-0.3175l-0.04233-0.02117h-0.04233l-0.0635-0.02117h-0.04233l-0.16933-0.08467-0.04233-0.04233-0.08467-0.04233-0.04233-0.04233-0.02117-0.04233-0.04233-0.02117-0.02117-0.04233-0.0635-0.0635-0.04233-0.08467-0.04233-0.0635v-0.04233l-0.0635-0.127v-0.0635l-0.02117-0.04233v-0.29633l0.02117-0.04233v-0.0635l0.0635-0.127v-0.04233l0.04233-0.0635 0.02117-0.02117 0.04233-0.08467 0.04233-0.04233 0.02117-0.04233 0.04233-0.02117 0.02117-0.04233 0.04233-0.04233 0.127-0.0635 0.04233-0.04233c0.07303-0.04833 0.15522-0.04516 0.23283-0.08467h0.04233l0.04233-0.02117h0.16933" fill="#fff" fill-rule="evenodd" stroke="#1e1917" stroke-linecap="round" stroke-linejoin="round" stroke-miterlimit="10" stroke-width=".075494"/>
 </g>
</svg>
