<?xml version="1.0" encoding="UTF-8"?>
<!-- Created with Inkscape (http://www.inkscape.org/) -->
<svg width="14.359mm" height="35.21mm" version="1.1" viewBox="0 0 14.359 35.21" xmlns="http://www.w3.org/2000/svg">
 <g transform="translate(-49.195 -76.13)">
  <path d="m49.294 90.369h14.16v-14.139h-14.16z" fill="#eeee28"/>
  <path d="m49.294 76.229h14.16v14.139h-14.16z" fill="none" stroke="#2b2625" stroke-linecap="round" stroke-linejoin="round" stroke-miterlimit="10" stroke-width=".19861"/>
  <g fill="#2b2625">
   <path d="m53.591 82.537v-4.445h1.7992l0.10583 0.02117h0.127l0.04233 0.02117h0.10583l0.04233 0.02117h0.0635l0.04233 0.02117h0.04233l0.127 0.0635h0.02117l0.08467 0.04233 0.02117 0.02117 0.08467 0.04233 0.02117 0.04233 0.04233 0.02117 0.10583 0.10583 0.02117 0.04233 0.02117 0.02117 0.02117 0.04233 0.02117 0.02117 0.04234 0.08466 0.02117 0.02117 0.04233 0.08467 0.02117 0.02117v0.04233l0.02117 0.04233v0.04233l0.02117 0.02117v0.127l0.02117 0.02117v0.14817l-0.02117 0.04233v0.10583l-0.02117 0.02117v0.04233l-0.02117 0.04233v0.02117l-0.02117 0.04233v0.02117l-0.02117 0.04233-0.02117 0.02117-0.02117 0.04233-0.02117 0.02117-0.02117 0.04233-0.02117 0.02117-0.02117 0.04233-0.04233 0.04233-0.02117 0.04233-0.02117 0.02117-0.04233 0.02117-0.02117 0.02117-0.04233 0.02117-0.08467 0.08467-0.08466 0.04234h-0.04233l0.0635 0.02117 0.04233 0.02117 0.29633 0.14817 0.0635 0.0635 0.04233 0.02117 0.02117 0.04233 0.04233 0.02117 0.02117 0.04233 0.0635 0.0635 0.0635 0.127 0.02117 0.02117 0.04234 0.08466v0.04233l0.04233 0.08467v0.08467l0.02117 0.0635v0.29633l-0.02117 0.0635-0.02117 0.08467-0.04234 0.127-0.02117 0.08467-0.02117 0.0635-0.08467 0.127-0.02117 0.04233-0.04233 0.0635-0.04233 0.04233-0.04233 0.0635-0.0635 0.04233-0.04233 0.02117-0.04233 0.04233-0.0635 0.04233-0.04233 0.02117-0.0635 0.02117-0.0635 0.04233-0.127 0.04234-0.08467 0.02117h-0.0635l-0.16933 0.04233h-0.08467l-0.10583 0.02117zm0.59267-2.5823h1.3547l0.0635-0.02117h0.0635l0.08467-0.04233 0.0635-0.02117 0.127-0.0635 0.04233-0.04233 0.02117-0.04233 0.04233-0.02117 0.0635-0.127 0.02117-0.0635v-0.04233l0.02117-0.04233v-0.27517l-0.02117-0.0635-0.0635-0.127-0.04234-0.08466-0.10583-0.10583-0.16933-0.08467-0.0635-0.02117h-0.0635l-0.0635-0.02117h-0.08467l-0.08467-0.02117h-1.2065zm0 2.0532h1.4817l0.02117-0.02117h0.0635l0.04233-0.02117h0.04233l0.08467-0.04233h0.04233l0.04233-0.02117 0.02117-0.02117 0.04233-0.02117 0.02117-0.04233 0.04233-0.02117 0.02117-0.02117 0.02117-0.04233 0.04233-0.02117 0.04234-0.08466 0.04233-0.08467v-0.04233l0.02117-0.04233v-0.0635l0.02117-0.04233v-0.21167l-0.02117-0.0635v-0.0635l-0.02117-0.04233-0.02117-0.0635-0.04233-0.04233-0.02117-0.04233-0.04233-0.04233-0.02117-0.04233-0.04233-0.04233-0.04233-0.02117-0.04233-0.04233-0.0635-0.02117-0.04233-0.02117-0.1905-0.0635h-0.0635l-0.08467-0.02117h-0.08467l-0.08467-0.02117h-1.2277v1.524"/>
   <path d="m59.814 82.537v-0.46567l-0.04233 0.0635-0.08467 0.08467-0.02117 0.04233-0.02117 0.02117-0.04233 0.02117-0.12701 0.12701h-0.04233l-0.02117 0.02117-0.04233 0.02117-0.02117 0.02117-0.04233 0.02117h-0.04233l-0.02117 0.02117-0.04233 0.02117h-0.02117l-0.04233 0.02117h-0.08467l-0.02117 0.02117h-0.16933l-0.0635 0.02117-0.08467-0.02117h-0.127l-0.0635-0.02117h-0.08467l-0.127-0.04233-0.0635-0.04233-0.04233-0.02117-0.0635-0.02117-0.04233-0.04233-0.0635-0.02117-0.08466-0.08466-0.02117-0.04233-0.04233-0.02117-0.02117-0.0635-0.04233-0.04233-0.04233-0.08467-0.02117-0.0635-0.02117-0.04233v-0.0635l-0.02117-0.0635v-0.04233l-0.02117-0.04233v-0.254l-0.02117-0.08467v-2.0743h0.55033v1.9897l0.02117 0.08467v0.1905l0.02117 0.0635v0.0635l0.02117 0.02117v0.02117l0.02117 0.04233v0.04233l0.04233 0.04233v0.02117l0.04233 0.04233h0.02117l0.02117 0.02117v0.02117l0.04234 0.04234h0.02117l0.04233 0.04233h0.02117l0.04233 0.02117h0.02117l0.02117 0.02117h0.02117l0.0635 0.02117h0.33867l0.1905-0.0635 0.04233-0.02117 0.0635-0.04233h0.02117l0.08467-0.08467 0.04233-0.02117 0.02117-0.04233 0.08467-0.08467v-0.02117l0.04234-0.04234v-0.04233l0.02117-0.02117v-0.02117l0.02117-0.04233v-0.02117l0.02117-0.08467v-0.0635l0.02117-0.08467v-2.0108h0.55033v3.2173zm-1.1007-3.8523h-0.5715v-0.61383h0.5715zm-0.5715 0m1.7145 0h-0.5715v-0.61383h0.5715z"/>
   <path d="m51.961 88.675h-0.4445v-3.4925l-0.04233 0.0635-0.04233 0.04233-0.0635 0.04233-0.04233 0.04233-0.0635 0.04233-0.04233 0.0635-0.381 0.254-0.0635 0.02117-0.04233 0.04233-0.0635 0.02117-0.04233 0.02117v-0.508l0.508-0.381 0.0635-0.08467 0.08467-0.0635 0.0635-0.08467 0.0635-0.0635 0.04233-0.08467 0.0635-0.0635 0.04233-0.08467 0.04233-0.0635 0.04233-0.08467 0.02117-0.0635h0.29633v4.4662"/>
   <path d="m54.374 88.675h-0.42333v-3.4925l-0.04233 0.0635-0.0635 0.04233-0.08467 0.08467-0.0635 0.04233-0.10583 0.10583-0.3175 0.21167-0.0635 0.02117-0.04233 0.04233-0.0635 0.02117-0.04233 0.02117v-0.508l0.42333-0.3175 0.21167-0.21167 0.0635-0.08467 0.0635-0.0635 0.0635-0.08467 0.0635-0.0635 0.04233-0.08467 0.04233-0.0635 0.02117-0.08467 0.04233-0.0635h0.27517v4.4662"/>
   <path d="m55.517 87.49 0.4445-0.0635 0.02117 0.04233v0.0635l0.02117 0.0635v0.04233l0.04233 0.08467v0.04233l0.02117 0.0635 0.02117 0.02117 0.02117 0.04233v0.04233l0.02117 0.04233 0.02117 0.02117 0.02117 0.04233 0.14817 0.14817h0.02117l0.02117 0.02117 0.04233 0.02117 0.02117 0.02117h0.02117l0.04233 0.02117h0.0635l0.02117 0.02117h0.21167l0.04233-0.02117h0.02117l0.04233-0.02117h0.04233l0.02117-0.02117 0.04233-0.02117 0.02117-0.02117 0.04233-0.02117 0.02117-0.02117 0.04233-0.02117 0.02117-0.04233 0.08467-0.08467 0.04233-0.08467 0.02117-0.02117 0.04233-0.08467v-0.04233l0.04234-0.08466v-0.04233l0.02117-0.04233v-0.127l0.02117-0.0635v-0.127l-0.02117-0.04233v-0.08467l-0.02117-0.04233v-0.04233l-0.02117-0.04233v-0.04233l-0.02117-0.04233-0.02117-0.02117-0.04233-0.08467-0.02117-0.02117-0.02117-0.04233-0.02117-0.02117-0.02117-0.04233-0.02117-0.02117-0.04233-0.02117-0.04234-0.04234-0.04233-0.02117-0.02117-0.02117-0.04233-0.02117h-0.02117l-0.04233-0.02117-0.02117-0.02117h-0.08467l-0.02117-0.02117h-0.14817l-0.04233 0.02117h-0.0635l-0.08466 0.04234h-0.0635l0.0635-0.46567h0.16933l0.04233-0.02117h0.0635l0.02117-0.02117h0.04233l0.02117-0.02117h0.04233l0.02117-0.02117 0.04233-0.02117 0.02117-0.02117 0.04233-0.02117 0.04233-0.04233 0.04233-0.02117 0.04233-0.04233 0.02117-0.04233 0.04233-0.04233 0.02117-0.04233v-0.04233l0.02117-0.02117v-0.04233l0.02117-0.04233v-0.04233l0.02117-0.04233v-0.27517l-0.02117-0.04233v-0.02117l-0.02117-0.04233v-0.0635l-0.04234-0.04234v-0.04233l-0.04233-0.04233-0.02117-0.04233-0.127-0.127h-0.02117l-0.04233-0.02117-0.02117-0.02117h-0.02117l-0.02117-0.02117h-0.0635l-0.04233-0.02117h-0.16933l-0.04233 0.02117h-0.0635l-0.02117 0.02117h-0.02117l-0.02117 0.02117-0.04233 0.02117h-0.02117l-0.10583 0.10583-0.02117 0.04233-0.04233 0.04233-0.02117 0.04233-0.02117 0.02117-0.02117 0.04233v0.04233l-0.02117 0.02117-0.02117 0.04233v0.04233l-0.02117 0.04233v0.04233l-0.02117 0.04233v0.04233l-0.02117 0.04233v0.0635l-0.4445-0.10583 0.02117-0.0635v-0.0635l0.04233-0.127 0.04234-0.127v-0.04233l0.04233-0.0635 0.02117-0.04233 0.02117-0.0635 0.02117-0.04233 0.04233-0.04233 0.04234-0.08466 0.08466-0.08466 0.02117-0.04233 0.04233-0.02117 0.04233-0.04233 0.08467-0.04233 0.04233-0.04233 0.08467-0.04233h0.04233l0.04233-0.02117 0.0635-0.02117h0.04233l0.04233-0.02117h0.29633l0.04233 0.02117h0.0635l0.04233 0.02117h0.04233l0.02117 0.02117h0.04233l0.02117 0.02117 0.04233 0.02117h0.02117l0.04233 0.02117 0.02117 0.02117 0.04233 0.02117 0.02117 0.02117 0.04233 0.02117 0.06351 0.06351 0.02117 0.04233 0.04233 0.02117 0.04234 0.04234 0.02117 0.04233 0.02117 0.02117 0.02117 0.04233 0.02117 0.02117v0.04233l0.02117 0.02117 0.04233 0.08467 0.06351 0.1905 0.02117 0.08467v0.14817l0.02117 0.0635-0.02117 0.08467v0.127l-0.06351 0.1905-0.04233 0.127-0.02117 0.04233-0.0635 0.0635-0.02117 0.04233-0.12702 0.12702-0.04233 0.02117-0.04233 0.04233-0.0635 0.04233h0.04233l0.04233 0.02117 0.02117 0.02117 0.04233 0.02117h0.04233l0.02117 0.02117 0.04233 0.02117 0.08467 0.08467 0.04233 0.02117 0.02117 0.02117 0.02117 0.04233 0.02117 0.02117 0.02117 0.04233 0.04233 0.04233v0.02117l0.02117 0.04233 0.08467 0.16933v0.04233l0.02117 0.04233v0.04233l0.02117 0.04233v0.10583l0.02117 0.04233v0.29633l-0.02117 0.08467v0.0635l-0.02117 0.0635v0.0635l-0.0635 0.1905-0.04233 0.0635-0.02117 0.04233-0.02117 0.0635-0.04233 0.0635-0.04233 0.04233-0.02117 0.0635-0.04233 0.04233-0.0635 0.04233-0.04233 0.0635-0.04233 0.04233-0.04233 0.02117-0.04233 0.04233-0.0635 0.04233-0.04233 0.02117-0.0635 0.04233-0.0635 0.02117-0.04233 0.02117h-0.0635l-0.127 0.04234h-0.35983l-0.04233-0.02117h-0.0635l-0.04233-0.02117-0.0635-0.02117-0.04233-0.02117-0.0635-0.02117-0.08467-0.04233-0.08467-0.08467-0.04233-0.02117-0.127-0.127-0.02117-0.0635-0.04233-0.04233-0.02117-0.04233-0.04233-0.04233-0.04233-0.127-0.04233-0.04233-0.02117-0.0635v-0.0635l-0.02117-0.04233-0.04233-0.127v-0.14817l-0.02117-0.0635"/>
   <path d="m58.565 88.675v-0.635h0.508v0.71967l-0.02117 0.0635v0.14817l-0.0635 0.1905-0.02117 0.0635-0.02117 0.02117v0.02117l-0.04234 0.04234v0.02117l-0.02117 0.02117-0.02117 0.04233h-0.02117l-0.127 0.127h-0.04233l-0.02117 0.02117-0.127-0.23283 0.08466-0.04234 0.04234-0.04234 0.02117-0.04233 0.02117-0.02117 0.02117-0.04233 0.02117-0.02117 0.04233-0.08467v-0.0635l0.02117-0.04233v-0.10583l0.02117-0.0635v-0.0635h-0.254"/>
   <path d="m62.058 88.146v0.52917h-2.3918v-0.14817l0.02117-0.0635v-0.08467l0.04233-0.08467 0.02117-0.08467 0.02117-0.0635 0.02117-0.08467 0.04233-0.0635 0.04233-0.08467 0.04233-0.0635 0.04233-0.08467 0.04233-0.0635 0.0635-0.08467 0.0635-0.0635 0.1905-0.254 0.08467-0.08467 0.08467-0.10583 0.10583-0.08467 0.127-0.14817 0.254-0.254 0.10583-0.127 0.08467-0.127 0.04233-0.04233 0.04233-0.0635 0.08467-0.08467 0.02117-0.04233 0.02117-0.0635 0.02117-0.04233 0.04233-0.04233 0.04233-0.08467v-0.04233l0.04233-0.08467 0.02117-0.02117v-0.04233l0.02117-0.04233v-0.08467l0.02117-0.04233v-0.23283l-0.02117-0.04233v-0.0635l-0.02117-0.04233v-0.04233l-0.02117-0.02117v-0.04233l-0.02117-0.02117-0.02117-0.04233-0.02117-0.02117-0.02117-0.04233-0.04233-0.04233-0.02117-0.04233-0.04234-0.04234-0.04233-0.02117-0.04233-0.04233-0.04233-0.02117h-0.02117l-0.04233-0.02117h-0.02117l-0.04233-0.02117h-0.02117l-0.04233-0.02117h-0.1905l-0.04233 0.02117h-0.0635l-0.04233 0.02117h-0.02117l-0.04233 0.02117-0.02117 0.02117-0.04233 0.02117h-0.02117l-0.127 0.127-0.02117 0.04233-0.02117 0.02117-0.02117 0.04233-0.02117 0.02117-0.06351 0.12699v0.04233l-0.02117 0.04233v0.04233l-0.02117 0.04233v0.1905l-0.02117 0.04233-0.4445-0.04233v-0.08467l0.02117-0.08467v-0.0635l0.02117-0.0635 0.02117-0.08467v-0.0635l0.04234-0.127 0.02117-0.04233 0.02117-0.0635 0.04233-0.0635 0.02117-0.04233 0.04233-0.04233 0.02117-0.0635 0.08467-0.08467 0.02117-0.04233 0.04233-0.02117 0.04233-0.04233 0.04233-0.02117 0.0635-0.04233 0.08467-0.04233 0.0635-0.02117 0.04233-0.02117 0.0635-0.02117 0.04233-0.02117h0.0635l0.0635-0.02117h0.35983l0.0635 0.02117h0.0635l0.04233 0.02117 0.0635 0.02117 0.04233 0.02117 0.0635 0.02117 0.04233 0.02117 0.04233 0.04233 0.04233 0.02117 0.08466 0.08466 0.04233 0.02117 0.04233 0.04233 0.04233 0.0635 0.04233 0.04233 0.04233 0.08467 0.04233 0.0635 0.02117 0.04233 0.02117 0.0635 0.02117 0.04233 0.04234 0.127v0.04233l0.02117 0.0635v0.127l0.02117 0.0635v0.127l-0.02117 0.0635v0.14817l-0.08467 0.254-0.04234 0.127-0.04233 0.0635-0.02117 0.0635-0.04233 0.08467-0.08467 0.127-0.0635 0.0635-0.04233 0.08467-0.0635 0.08467-0.08467 0.08467-0.0635 0.08467-0.10583 0.10583-0.08467 0.10583-0.10583 0.127-0.127 0.10583-0.08467 0.10583-0.16933 0.16933-0.0635 0.08467-0.0635 0.0635-0.04233 0.0635-0.14817 0.14817-0.04233 0.08467-0.04233 0.0635-0.04233 0.08467h1.778"/>
  </g>
  <path d="m54.819 111.3h2.9633v-20.828h-2.9633z" fill="#807d7d"/>
  <path d="m54.819 90.475h2.9633v20.828h-2.9633z" fill="none" stroke="#2b2625" stroke-linecap="round" stroke-linejoin="round" stroke-miterlimit="10" stroke-width=".075494"/>
 </g>
</svg>
