<?xml version="1.0" encoding="UTF-8"?>
<!-- Created with Inkscape (http://www.inkscape.org/) -->
<svg width="15.092mm" height="23.998mm" version="1.1" viewBox="0 0 15.092 23.998" xmlns="http://www.w3.org/2000/svg">
 <g transform="translate(-32.282 -176.48)">
  <path d="m32.345 200.44h0.99483v-14.16h-0.99483z" fill="#7e7e7e"/>
  <path d="m32.345 186.28h0.99483v14.16h-0.99483z" fill="none" stroke="#1e1917" stroke-linecap="round" stroke-linejoin="round" stroke-miterlimit="10" stroke-width=".075494"/>
  <path d="m32.769 176.48h13.547v0.99483h-13.547zm13.547 0h1.0372l-0.65617 0.8255-0.381-0.3175zm0.381 0.8255-3.7677 4.5508-0.762-0.635 3.7677-4.5508zm-4.5297 4.5508-0.254-0.3175 0.254-0.3175 0.381 0.3175zm0.762-0.65616 3.7677 4.4873-0.762 0.635-3.7677-4.4662zm3.7677 4.4873 0.67733 0.80433h-1.0583v-0.48683zm-0.381 0.80433h-13.547v-0.99483h13.547zm-13.547 0h-0.48683v-0.48683h0.48683zm0.508-0.48683h-0.99483v-9.017h0.99483zm-0.99483 0m0.48683-9.017h-0.48683v-0.508h0.48683z" fill="#1e1917"/>
 </g>
</svg>
