<?xml version="1.0" encoding="UTF-8"?>
<!-- Created with Inkscape (http://www.inkscape.org/) -->
<svg width="48.419mm" height="9.5151mm" version="1.1" viewBox="0 0 48.419 9.5151" xmlns="http://www.w3.org/2000/svg">
 <g transform="translate(-22.492 -171.19)" fill="#1e1917" fill-rule="evenodd" stroke="#1e1917" stroke-linecap="round" stroke-linejoin="round" stroke-miterlimit="10" stroke-width=".074436">
  <path d="m30.467 176.83 0.127 0.127 0.04233 0.0635 0.0635 0.0847 0.04233 0.0635 0.04233 0.0847 0.02117 0.0635 0.04233 0.0847 0.02117 0.0635 0.0635 0.254 0.02117 0.0635v0.0847l0.02117 0.0847v0.16934l-0.02117 0.0847v0.0847l-0.02117 0.0635-0.0635 0.254-0.02117 0.0635-0.04233 0.0847-0.02117 0.0847-0.08467 0.127-0.0635 0.0847-0.04233 0.0635-0.254 0.254-0.1905 0.127-0.08467 0.0423-0.0635 0.0423-0.08467 0.0423-0.08467 0.0212-0.0635 0.0212-0.254 0.0635h-0.0635l-0.08467 0.0212h-0.16933l-0.08467-0.0212h-0.08467l-0.0635-0.0212-0.16933-0.0423-0.0635-0.0212-0.08467-0.0212-0.08467-0.0423-0.0635-0.0423-0.08467-0.0423-0.1905-0.127-0.08467-0.0635-0.04233-0.0635-0.127-0.127-0.04233-0.0635-0.0635-0.0847-0.08467-0.127-0.02117-0.0847-0.04233-0.0847-0.02117-0.0635-0.04233-0.0847-0.02117-0.0847v-0.0847l-0.02117-0.0635v-0.0847l-0.02117-0.0847v-0.16934l0.02117-0.0847v-0.0847l0.02117-0.0635v-0.0847l0.02117-0.0847 0.04233-0.0847 0.02117-0.0635 0.04233-0.0847 0.02117-0.0635 0.04233-0.0847 0.04233-0.0635 0.0635-0.0847 0.04233-0.0635 0.127-0.127 0.04233-0.0635 0.08467-0.0635 0.1905-0.127 0.08467-0.0423 0.0635-0.0423 0.08467-0.0423 0.08467-0.0212 0.0635-0.0212 0.16933-0.0423 0.0635-0.0212h0.16933l0.08467-0.0212 0.08467 0.0212h0.14817l0.254 0.0635 0.0635 0.0212 0.08467 0.0212 0.08467 0.0423 0.0635 0.0423 0.08467 0.0423 0.1905 0.127 0.127 0.127"/>
  <path d="m25.408 171.71 0.0635 0.0635 0.0635 0.0847 0.127 0.1905 0.08467 0.16933 0.04233 0.0635 0.04233 0.16933 0.02117 0.0635 0.04233 0.16934v0.48683l-0.04233 0.16933-0.02117 0.0635-0.04234 0.1694-0.04233 0.0635-0.04233 0.0847-0.04233 0.0635-0.04233 0.0847-0.08467 0.127-0.254 0.254-0.0635 0.0423-0.0635 0.0635-0.08467 0.0423-0.0635 0.0423-0.08467 0.0423-0.0635 0.0212-0.08467 0.0423-0.08467 0.0212-0.0635 0.0212-0.08467 0.0212h-0.08467l-0.08467 0.0212h-0.3175l-0.08467-0.0212h-0.08467l-0.0635-0.0212-0.16933-0.0423-0.0635-0.0423-0.08467-0.0212-0.0635-0.0423-0.08467-0.0423-0.0635-0.0423-0.08467-0.0635-0.0635-0.0423-0.1905-0.1905-0.04233-0.0635-0.0635-0.0635-0.04233-0.0635-0.04233-0.0847-0.04233-0.0635-0.04233-0.0847-0.02117-0.0635-0.04233-0.0847-0.02117-0.0847-0.02117-0.0635-0.02117-0.0847v-0.0847l-0.02117-0.0847v-0.3175l0.02117-0.0847v-0.0847l0.02117-0.0847 0.02117-0.0635 0.02117-0.0847 0.04233-0.0847 0.02117-0.0635 0.08467-0.16933 0.08467-0.127 0.0635-0.0635 0.04233-0.0847 0.0635-0.0635 0.0635-0.0423 0.127-0.127 0.08467-0.0423 0.0635-0.0423 0.08467-0.0423 0.0635-0.0423 0.08467-0.0212 0.0635-0.0423 0.16933-0.0423 0.0635-0.0212h0.08467l0.08467-0.0212h0.3175l0.08467 0.0212h0.08467l0.08467 0.0212 0.0635 0.0212 0.08467 0.0212 0.08467 0.0423 0.0635 0.0212 0.08467 0.0423 0.0635 0.0423 0.08467 0.0423 0.0635 0.0423 0.127 0.127 0.0635 0.0423"/>
  <path d="m40.331 176.83 0.127 0.127 0.04233 0.0635 0.04233 0.0847 0.04233 0.0635 0.04233 0.0847 0.04233 0.0635 0.04233 0.0847 0.02117 0.0635 0.04233 0.16933 0.02117 0.0847 0.02117 0.0635v0.508l-0.02117 0.0635-0.02117 0.0847-0.04233 0.16933-0.02117 0.0635-0.08467 0.16933-0.08467 0.127-0.04233 0.0847-0.04233 0.0635-0.254 0.254-0.127 0.0847-0.08467 0.0423-0.0635 0.0423-0.08467 0.0423-0.0635 0.0423-0.16933 0.0423-0.0635 0.0212-0.16933 0.0423h-0.08467l-0.08467 0.0212h-0.14817l-0.08467-0.0212h-0.08467l-0.08467-0.0212-0.0635-0.0212-0.16933-0.0423-0.0635-0.0212-0.16933-0.0847-0.127-0.0847-0.08467-0.0423-0.0635-0.0423-0.1905-0.1905-0.04233-0.0635-0.0635-0.0635-0.04233-0.0847-0.08467-0.127-0.04233-0.0847-0.02117-0.0847-0.04233-0.0635-0.0635-0.254v-0.0635l-0.02117-0.0847v-0.33866l0.02117-0.0847v-0.0635l0.0635-0.254 0.04233-0.0635 0.02117-0.0847 0.04233-0.0635 0.04233-0.0847 0.04233-0.0635 0.04233-0.0847 0.0635-0.0635 0.04233-0.0635 0.1905-0.1905 0.0635-0.0423 0.08467-0.0423 0.127-0.0847 0.16933-0.0847 0.0635-0.0212 0.16933-0.0423 0.0635-0.0212 0.08467-0.0212h0.16933l0.08467-0.0212 0.0635 0.0212h0.16933l0.16933 0.0423 0.0635 0.0212 0.16933 0.0423 0.0635 0.0423 0.08467 0.0423 0.0635 0.0423 0.08467 0.0423 0.127 0.0847 0.127 0.127"/>
  <path d="m35.272 171.71 0.04233 0.0635 0.0635 0.0847 0.0635 0.0635 0.08467 0.127 0.08467 0.16933 0.02117 0.0635 0.04233 0.0847 0.02117 0.0847 0.02117 0.0635 0.02117 0.0847v0.0847l0.02117 0.0847v0.3175l-0.02117 0.0847v0.0847l-0.02117 0.0847-0.02117 0.0635-0.02117 0.0847-0.04233 0.0847-0.02117 0.0635-0.04233 0.0847-0.04233 0.0635-0.04233 0.0847-0.04233 0.0635-0.127 0.127-0.04233 0.0635-0.127 0.127-0.08467 0.0423-0.0635 0.0635-0.0635 0.0423-0.08467 0.0423-0.0635 0.0423-0.08467 0.0212-0.0635 0.0423-0.16933 0.0423-0.0635 0.0212h-0.08467l-0.08467 0.0212h-0.3175l-0.08467-0.0212h-0.08467l-0.08467-0.0212-0.0635-0.0212-0.08467-0.0212-0.08467-0.0423-0.0635-0.0212-0.08467-0.0423-0.0635-0.0423-0.08467-0.0423-0.0635-0.0635-0.0635-0.0423-0.254-0.254-0.08467-0.127-0.04233-0.0847-0.04233-0.0635-0.04233-0.0847-0.04233-0.0635-0.04234-0.1694-0.02117-0.0635-0.04233-0.16933v-0.16933l-0.02117-0.0847 0.02117-0.0635v-0.1695l0.04233-0.16934 0.02117-0.0635 0.04233-0.16933 0.04233-0.0635 0.08467-0.16933 0.127-0.1905 0.0635-0.0847 0.0635-0.0635 0.0635-0.0423 0.127-0.127 0.0635-0.0423 0.08467-0.0423 0.0635-0.0423 0.08467-0.0423 0.0635-0.0212 0.08467-0.0423 0.08467-0.0212 0.0635-0.0212 0.08467-0.0212h0.08467l0.08467-0.0212h0.3175l0.08467 0.0212h0.08467l0.0635 0.0212 0.16933 0.0423 0.0635 0.0423 0.08467 0.0212 0.0635 0.0423 0.08467 0.0423 0.127 0.0847 0.08467 0.0635 0.0635 0.0635 0.0635 0.0423"/>
  <path d="m70.387 176.83 0.0635 0.0635 0.04233 0.0635 0.0635 0.0635 0.04233 0.0847 0.04233 0.0635 0.04233 0.0847 0.04233 0.0635 0.02117 0.0847 0.04233 0.0635 0.0635 0.254v0.0635l0.02117 0.0847v0.33866l-0.02117 0.0847v0.0635l-0.0635 0.254-0.04233 0.0635-0.02117 0.0847-0.04233 0.0847-0.08467 0.127-0.04233 0.0847-0.0635 0.0635-0.04233 0.0635-0.1905 0.1905-0.0635 0.0423-0.08467 0.0423-0.127 0.0847-0.16933 0.0847-0.0635 0.0212-0.16933 0.0423-0.0635 0.0212-0.08467 0.0212h-0.08467l-0.08467 0.0212h-0.14817l-0.08467-0.0212h-0.08467l-0.16933-0.0423-0.0635-0.0212-0.16933-0.0423-0.0635-0.0423-0.08467-0.0423-0.0635-0.0423-0.08467-0.0423-0.127-0.0847-0.254-0.254-0.04233-0.0635-0.04233-0.0847-0.08467-0.127-0.08467-0.16933-0.02117-0.0635-0.02117-0.0847-0.04233-0.16933-0.02117-0.0635v-0.508l0.02117-0.0635 0.04233-0.16933 0.02117-0.0847 0.02117-0.0635 0.04233-0.0847 0.04233-0.0635 0.04233-0.0847 0.04233-0.0635 0.04233-0.0847 0.04233-0.0635 0.254-0.254 0.127-0.0847 0.08467-0.0423 0.0635-0.0423 0.08467-0.0423 0.0635-0.0423 0.16933-0.0423 0.0635-0.0212 0.16933-0.0423h0.16933l0.0635-0.0212 0.08467 0.0212h0.16933l0.08467 0.0212 0.0635 0.0212 0.16933 0.0423 0.0635 0.0212 0.16933 0.0847 0.127 0.0847 0.08467 0.0423 0.0635 0.0423 0.127 0.127"/>
  <path d="m65.307 171.71 0.0635 0.0635 0.0635 0.0847 0.04233 0.0635 0.0635 0.0635 0.04233 0.0635 0.04233 0.0847 0.02117 0.0847 0.04233 0.0635 0.02117 0.0847 0.04233 0.0847 0.02117 0.0635 0.02117 0.0847v0.0847l0.02117 0.0847v0.3175l-0.02117 0.0847v0.0847l-0.02117 0.0847-0.02117 0.0635-0.04233 0.0847-0.02117 0.0847-0.04233 0.0635-0.02117 0.0847-0.04233 0.0635-0.04233 0.0847-0.0635 0.0635-0.04233 0.0635-0.127 0.127-0.04233 0.0635-0.08467 0.0635-0.0635 0.0423-0.0635 0.0635-0.0635 0.0423-0.08467 0.0423-0.0635 0.0423-0.08467 0.0212-0.08467 0.0423-0.0635 0.0212-0.16933 0.0423h-0.0635l-0.08467 0.0212h-0.33867l-0.0635-0.0212h-0.08467l-0.16933-0.0423-0.0635-0.0212-0.08467-0.0423-0.0635-0.0212-0.08467-0.0423-0.0635-0.0423-0.08467-0.0423-0.0635-0.0635-0.0635-0.0423-0.254-0.254-0.08467-0.127-0.0635-0.0847-0.04233-0.0635-0.02117-0.0847-0.04233-0.0635-0.04234-0.1694-0.02117-0.0635-0.04233-0.16933v-0.0847l-0.02117-0.0847v-0.14817l0.02117-0.0847v-0.0847l0.04233-0.16934 0.02117-0.0635 0.04233-0.16933 0.04233-0.0635 0.02117-0.0847 0.04233-0.0847 0.0635-0.0635 0.08467-0.127 0.0635-0.0847 0.0635-0.0635 0.0635-0.0423 0.127-0.127 0.0635-0.0423 0.08467-0.0423 0.0635-0.0423 0.08467-0.0423 0.0635-0.0212 0.08467-0.0423 0.0635-0.0212 0.16933-0.0423h0.08467l0.0635-0.0212h0.33867l0.08467 0.0212h0.0635l0.16933 0.0423 0.0635 0.0212 0.08467 0.0423 0.08467 0.0212 0.0635 0.0423 0.08467 0.0423 0.127 0.0847 0.0635 0.0635 0.08467 0.0635 0.04233 0.0423"/>
  <path d="m50.469 177.76 0.0635 0.0635 0.04233 0.0635 0.0635 0.0635 0.04233 0.0635 0.04233 0.0847 0.04233 0.0635 0.04233 0.0847 0.04233 0.0635 0.06351 0.2541 0.02117 0.0635 0.02117 0.0847v0.48683l-0.0635 0.254-0.02117 0.0635-0.02117 0.0847-0.04233 0.0847-0.04233 0.0635-0.04233 0.0847-0.08467 0.127-0.0635 0.0847-0.04233 0.0635-0.127 0.127-0.0635 0.0423-0.0635 0.0635-0.08467 0.0423-0.127 0.0847-0.08467 0.0423-0.08467 0.0212-0.0635 0.0423-0.16933 0.0423-0.0635 0.0212h-0.08467l-0.08467 0.0212h-0.3175l-0.08467-0.0212h-0.08467l-0.08467-0.0212-0.0635-0.0212-0.08467-0.0212-0.08467-0.0423-0.0635-0.0212-0.08467-0.0423-0.127-0.0847-0.08467-0.0423-0.0635-0.0635-0.0635-0.0423-0.127-0.127-0.04233-0.0635-0.0635-0.0847-0.08467-0.127-0.04233-0.0847-0.04233-0.0635-0.02117-0.0847-0.04233-0.0847-0.02117-0.0635-0.04233-0.16933v-0.0847l-0.02117-0.0847v-0.3175l0.02117-0.0847v-0.0847l0.02117-0.0635 0.04234-0.1694 0.04233-0.0847 0.02117-0.0635 0.04233-0.0847 0.04233-0.0635 0.04233-0.0847 0.04233-0.0635 0.0635-0.0635 0.04233-0.0635 0.1905-0.1905 0.0635-0.0423 0.08467-0.0635 0.127-0.0847 0.08467-0.0212 0.0635-0.0423 0.08467-0.0212 0.08467-0.0423 0.0635-0.0212h0.08467l0.16933-0.0423h0.3175l0.16933 0.0423h0.0635l0.08467 0.0212 0.08467 0.0423 0.0635 0.0212 0.08467 0.0423 0.08467 0.0212 0.127 0.0847 0.08467 0.0635 0.0635 0.0423 0.127 0.127"/>
  <path d="m45.411 172.64 0.04233 0.0635 0.127 0.127 0.04233 0.0847 0.04233 0.0635 0.04233 0.0847 0.04233 0.0635 0.02117 0.0847 0.04233 0.0635 0.06351 0.2541v0.0847l0.02117 0.0635v0.33866l-0.02117 0.0847v0.0635l-0.04233 0.16933-0.02117 0.0847-0.04233 0.0635-0.02117 0.0847-0.04233 0.0635-0.04233 0.0847-0.04233 0.0635-0.04233 0.0847-0.127 0.127-0.04233 0.0635-0.127 0.127-0.08467 0.0423-0.0635 0.0423-0.0635 0.0635-0.08467 0.0212-0.0635 0.0423-0.08467 0.0423-0.0635 0.0212-0.254 0.0635-0.0635 0.0212h-0.16933l-0.08467 0.0212-0.08467-0.0212h-0.14817l-0.254-0.0635-0.0635-0.0212-0.08467-0.0212-0.0635-0.0423-0.08467-0.0423-0.0635-0.0212-0.08467-0.0635-0.127-0.0847-0.254-0.254-0.04233-0.0635-0.04233-0.0847-0.0635-0.0635-0.04233-0.0847-0.02117-0.0635-0.04233-0.0847-0.02117-0.0635-0.04233-0.16933-0.02117-0.0847-0.02117-0.0635v-0.0847l-0.02117-0.0847v-0.16934l0.02117-0.0847v-0.0635l0.08468-0.3388 0.02117-0.0635 0.04233-0.0847 0.02117-0.0635 0.04233-0.0847 0.0635-0.0635 0.04233-0.0847 0.04233-0.0635 0.1905-0.1905 0.0635-0.0423 0.0635-0.0635 0.0635-0.0423 0.08467-0.0423 0.0635-0.0423 0.08467-0.0423 0.0635-0.0423 0.08467-0.0212 0.0635-0.0212 0.254-0.0635h0.48683l0.0635 0.0212 0.254 0.0635 0.0635 0.0212 0.08467 0.0423 0.0635 0.0423 0.08467 0.0423 0.127 0.0847 0.08467 0.0635 0.0635 0.0423 0.0635 0.0635"/>
  <path d="m60.27 176.83 0.127 0.127 0.04233 0.0635 0.04233 0.0847 0.0635 0.0635 0.02117 0.0847 0.04233 0.0635 0.04233 0.0847 0.02117 0.0635 0.06351 0.2541 0.02117 0.0635v0.16933l0.02117 0.0847-0.02117 0.0847v0.16933l-0.02117 0.0635-0.06351 0.2541-0.02117 0.0635-0.08467 0.16933-0.02117 0.0635-0.0635 0.0635-0.04233 0.0847-0.04233 0.0635-0.254 0.254-0.127 0.0847-0.08467 0.0423-0.0635 0.0423-0.08467 0.0423-0.0635 0.0423-0.16933 0.0423-0.0635 0.0212-0.16933 0.0423h-0.08467l-0.0635 0.0212h-0.16933l-0.08467-0.0212h-0.08467l-0.08467-0.0212-0.0635-0.0212-0.16933-0.0423-0.0635-0.0212-0.08467-0.0423-0.0635-0.0423-0.08467-0.0423-0.127-0.0847-0.08467-0.0423-0.1905-0.1905-0.04233-0.0635-0.0635-0.0635-0.04233-0.0847-0.08467-0.127-0.04233-0.0847-0.02117-0.0847-0.04233-0.0635-0.0635-0.254v-0.0635l-0.02117-0.0847v-0.33866l0.02117-0.0847v-0.0635l0.0635-0.254 0.04233-0.0635 0.02117-0.0847 0.04233-0.0635 0.04233-0.0847 0.04233-0.0635 0.04233-0.0847 0.0635-0.0635 0.04233-0.0635 0.1905-0.1905 0.08467-0.0423 0.127-0.0847 0.08467-0.0423 0.0635-0.0423 0.08467-0.0423 0.0635-0.0212 0.16933-0.0423 0.0635-0.0212 0.08467-0.0212h0.16933l0.08467-0.0212 0.08467 0.0212h0.14817l0.16933 0.0423 0.0635 0.0212 0.16933 0.0423 0.0635 0.0423 0.08467 0.0423 0.0635 0.0423 0.08467 0.0423 0.127 0.0847 0.127 0.127"/>
  <path d="m55.211 171.71 0.0635 0.0635 0.04233 0.0847 0.0635 0.0635 0.08467 0.127 0.08467 0.16933 0.02117 0.0635 0.04233 0.0847 0.02117 0.0847 0.02117 0.0635 0.02117 0.0847v0.0847l0.02117 0.0847v0.3175l-0.02117 0.0847v0.0847l-0.02117 0.0847-0.02117 0.0635-0.02117 0.0847-0.04233 0.0847-0.02117 0.0635-0.04233 0.0847-0.04233 0.0635-0.04233 0.0847-0.04233 0.0635-0.0635 0.0635-0.04233 0.0635-0.1905 0.1905-0.0635 0.0423-0.08467 0.0635-0.127 0.0847-0.08467 0.0423-0.08467 0.0212-0.0635 0.0423-0.16933 0.0423-0.0635 0.0212h-0.08467l-0.08467 0.0212h-0.3175l-0.08467-0.0212h-0.08467l-0.08467-0.0212-0.0635-0.0212-0.08467-0.0212-0.08467-0.0423-0.0635-0.0212-0.08467-0.0423-0.0635-0.0423-0.08467-0.0423-0.0635-0.0635-0.0635-0.0423-0.254-0.254-0.08467-0.127-0.04233-0.0847-0.04233-0.0635-0.04233-0.0847-0.04233-0.0635-0.04234-0.1694-0.02117-0.0635-0.04233-0.16933v-0.48713l0.04233-0.16934 0.02117-0.0635 0.04233-0.16933 0.04233-0.0635 0.08466-0.1694 0.127-0.1905 0.0635-0.0847 0.0635-0.0635 0.0635-0.0423 0.127-0.127 0.0635-0.0423 0.08467-0.0423 0.0635-0.0423 0.08467-0.0423 0.0635-0.0212 0.08467-0.0423 0.08467-0.0212 0.0635-0.0212 0.08467-0.0212h0.08467l0.08467-0.0212h0.3175l0.08467 0.0212h0.08467l0.0635 0.0212 0.16933 0.0423 0.0635 0.0423 0.08467 0.0212 0.08467 0.0423 0.127 0.0847 0.08467 0.0423 0.127 0.127 0.0635 0.0423"/>
 </g>
</svg>
