<?xml version="1.0" encoding="UTF-8"?>
<!-- Created with Inkscape (http://www.inkscape.org/) -->
<svg width="15.6mm" height="16.224mm" version="1.1" viewBox="0 0 15.6 16.224" xmlns="http://www.w3.org/2000/svg">
 <defs>
  <clipPath id="clipPath95">
   <path transform="translate(-265.74 -487.52)" d="m261.72 470.24h4.08v17.28h-4.08z"/>
  </clipPath>
 </defs>
 <g transform="translate(-84.402 -157.96)">
  <path d="m91.525 174.18h1.4182v-6.096h-1.4182z" fill="#7e7e7e"/>
  <g stroke="#000" stroke-miterlimit="10">
   <path transform="matrix(.35278 0 0 -.35278 92.943 168.08)" d="m0 0v-17.28h-4.02v17.28h4.02" clip-path="url(#clipPath95)" fill="none" stroke-width=".06"/>
   <g stroke-width=".021167">
    <path d="m88.456 157.97h7.4083l4.1275 4.064v6.3712h-15.579v-6.3712l4.0428-4.064" fill="#7e7e7e" fill-rule="evenodd"/>
    <path d="m88.413 159.45 0.1905 0.0212 0.1905 0.0423c0.85231 0.40534 0.78211 1.6958-0.1905 1.8415l-0.1905 0.0212-0.21167-0.0212c-0.85937-0.15169-0.94615-1.4439-0.14817-1.8415l0.14817-0.0423 0.21167-0.0212" fill="#7e7e7e" fill-rule="evenodd"/>
    <path d="m95.949 159.45 0.21167 0.0212 0.14817 0.0423c0.80398 0.36936 0.76623 1.6732-0.14817 1.8415l-0.21167 0.0212-0.21167-0.0212c-0.92463-0.15769-0.99272-1.4383-0.16933-1.8415l0.16933-0.0423 0.21167-0.0212" fill="none"/>
    <path d="m93.79 159.45 0.21167 0.0212 0.16933 0.0423c0.86395 0.36054 0.80222 1.7057-0.16933 1.8415l-0.21167 0.0212-0.1905-0.0212-0.1905-0.0423-0.14817-0.0635-0.14817-0.127-0.127-0.14817-0.0635-0.14817-0.0635-0.1905-0.02117-0.1905c0.0321-0.35383 0.11148-0.623 0.42333-0.8255l0.14817-0.10583 0.1905-0.0423 0.1905-0.0212" fill="#fff" fill-rule="evenodd"/>
    <path d="m88.413 164.57 0.381 0.0847c0.91828 0.46849 0.71226 1.7032-0.1905 1.8627l-0.1905 0.0212-0.21167-0.0212c-0.84843-0.19297-0.95956-1.4517-0.14817-1.8627l0.14817-0.0423 0.21167-0.0423" fill="#fff" fill-rule="evenodd"/>
   </g>
  </g>
 </g>
</svg>
