<?xml version="1.0" encoding="UTF-8"?>
<!-- Created with Inkscape (http://www.inkscape.org/) -->
<svg width="89.698mm" height="3.55mm" version="1.1" viewBox="0 0 89.698 3.55" xmlns="http://www.w3.org/2000/svg">
 <g transform="translate(-30.956 -177.01)" fill="#1f1a17" stroke-linecap="round" stroke-linejoin="round" stroke-miterlimit="10" stroke-width=".078669">
  <path d="m39.84 177.05h0.16933c2.0951 0.27799 2.0264 3.289-0.08467 3.4713h-0.16933c-2.0503-0.18591-2.14-3.1757-0.08467-3.4713h0.16933"/>
  <path d="m32.664 177.05h0.16933c2.1033 0.28787 2.0175 3.2886-0.08467 3.4713h-0.16933c-2.0567-0.18626-2.1382-3.1803-0.08467-3.4713h0.16933"/>
  <path d="m47.015 177.05h0.16933c1.9547 0.22401 1.8845 3.3528-0.08467 3.4713h-0.16933c-2.05-0.19261-2.1407-3.1679-0.08467-3.4713h0.16933"/>
  <path d="m75.993 177.05h0.1905c2.0761 0.30833 1.9971 3.266-0.08467 3.4713h-0.1905c-2.056-0.20849-2.1368-3.157-0.08467-3.4713h0.16933"/>
  <path d="m68.817 177.05h0.16933c2.1011 0.28116 2.0264 3.289-0.08467 3.4713h-0.16933c-2.0525-0.19685-2.1361-3.1672-0.08467-3.4713h0.16933"/>
  <path d="m83.168 177.05h0.1905c1.941 0.26423 1.8722 3.3126-0.08467 3.4713h-0.1905c-2.0503-0.20496-2.134-3.1591-0.08467-3.4713h0.16933"/>
  <path d="m111.85 177.05h0.16933c2.086 0.28998 2.0045 3.2851-0.0847 3.4713h-0.16934c-2.0712-0.1845-2.1495-3.1845-0.0847-3.4713h0.16933"/>
  <path d="m104.67 177.05h0.16933c2.0856 0.29175 2.002 3.2844-0.0847 3.4713h-0.16934c-2.0701-0.18591-2.1537-3.1799-0.0847-3.4713h0.16933"/>
  <path d="m119.02 177.05h0.16933c1.9424 0.23812 1.875 3.338-0.0847 3.4713h-0.16934c-2.0736-0.18909-2.1477-3.1824-0.0847-3.4713h0.16933"/>
 </g>
</svg>
