<?xml version="1.0" encoding="UTF-8"?>
<!-- Created with Inkscape (http://www.inkscape.org/) -->
<svg width="40.487mm" height="46.943mm" version="1.1" viewBox="0 0 40.487 46.943" xmlns="http://www.w3.org/2000/svg">
 <defs>
  <clipPath id="clipPath188">
   <path transform="translate(-254.82 -432.56)" d="m254.82 432.56h11.94v10.86h-11.94z"/>
  </clipPath>
 </defs>
 <g transform="translate(-57.944 -128.85)">
  <g fill="#1f1a17">
   <path d="m77.057 139.56h-0.4445c-4.2866 0.14287-8.2614 1.7755-11.366 4.7413l-0.29633 0.29634-0.508-0.508 0.3175-0.29634c3.1542-3.0561 7.4373-4.8447 11.832-4.9318l0.46567-0.0212zm-12.107 5.0377-0.29633 0.29633c-2.9404 3.115-4.603 7.1025-4.7202 11.388v0.4445h-0.71967l0.02117-0.4445c0.09419-4.4711 1.8524-8.6431 4.9107-11.896l0.29633-0.29633zm-5.0165 12.128v0.4445c0.1016 4.2654 1.7896 8.3111 4.7202 11.409l0.29633 0.29633-0.508 0.508-0.29633-0.3175c-3.0466-3.1792-4.8313-7.4704-4.9107-11.874l-0.02117-0.46566zm5.0165 12.15 0.29633 0.29634c3.0261 2.915 7.1635 4.6436 11.366 4.7202l0.4445 0.0212v0.6985h-0.46567c-4.3808-0.0811-8.6808-1.8962-11.832-4.9318l-0.3175-0.29634zm12.107 5.0377 0.4445-0.0212c4.2492-0.0914 8.2885-1.7988 11.366-4.7202l0.29633-0.29634 0.48683 0.508-0.29633 0.29634c-3.205 3.0508-7.4016 4.8306-11.832 4.9318h-0.46567zm12.107-5.0377 0.27517-0.29633c2.915-3.0441 4.6464-7.1924 4.7202-11.409l0.02117-0.4445h0.6985v0.46566c-0.10795 4.414-1.8623 8.6967-4.9318 11.874l-0.29633 0.3175zm5.0165-12.15-0.02117-0.4445c-0.07937-4.2065-1.8083-8.3538-4.7202-11.388l-0.27517-0.29633 0.48683-0.508 0.29633 0.29633c3.0678 3.2219 4.8204 7.4464 4.9318 11.896v0.4445zm-5.0165-12.128-0.29633-0.29634c-3.1313-2.9598-7.0608-4.5935-11.366-4.7413h-0.4445v-0.71967l0.46567 0.0212c4.3776 0.084 8.6872 1.8905 11.832 4.9318l0.29633 0.29634-0.48683 0.508"/>
   <g fill-rule="evenodd">
    <path d="m96.044 157.55-1.7568-4.191-2.0743 4.1487 3.8312 0.0423"/>
    <path d="m57.944 155.09 1.7568 4.2122 2.0743-4.1698-3.8312-0.0423"/>
    <path transform="matrix(.35278 0 0 -.35278 75.089 175.79)" d="M 0,0 11.88,4.98 0.12,10.86 0,0" clip-path="url(#clipPath188)"/>
    <path d="m79.894 137.4-4.191 1.7357 4.1698 2.0955 0.02117-3.8312"/>
   </g>
  </g>
  <g fill-rule="evenodd">
   <path d="m77.375 137.08 0.14817-0.10583 0.29633-0.16934c0.71473-0.41945 1.518-0.65122 2.3072-0.889l0.46567-0.127c1.2054-0.36159 2.8787-1.1917 4.0217-1.7992l0.16933-0.0847 0.4445-0.254c1.0149-0.64664 2.2613-1.4912 3.1538-2.2648l0.1905-0.16934 0.21167-0.1905c0.75283-0.69638 1.5311-1.3705 2.4342-1.8627l0.33867-0.16934 0.16933-0.10583 0.42333 0.762c1.9325 3.525 3.8816 7.0407 5.8208 10.562l0.42333 0.762-0.127 0.0847-0.10583 0.0847-0.127 0.0847c-0.61524 0.36477-1.2626 0.66992-1.9473 0.889l-0.254 0.10583-0.27517 0.0847c-1.3667 0.48965-2.6649 1.2407-3.9793 1.8627l-0.40217 0.23284-0.40217 0.21166-0.40217 0.23284-0.40217 0.21166c-1.1211 0.66358-2.3283 1.3261-3.3867 2.0743l-0.16933 0.127-0.16933 0.14816c-0.62759 0.46849-1.2418 0.92252-1.9473 1.27l-0.508 0.254-0.40217-0.762c-1.8979-3.447-3.7437-6.9197-5.6303-10.372l-0.381-0.71967" fill="#fff" stroke="#1f1a17" stroke-linecap="round" stroke-linejoin="round" stroke-miterlimit="10" stroke-width=".075494"/>
   <path d="m78.687 139.52 0.14817-0.10583 0.16933-0.0847 0.14817-0.0847c0.70168-0.36547 1.494-0.75706 2.2437-0.99483l0.21167-0.0847 0.23283-0.0847c1.2714-0.53376 2.7062-1.2788 3.937-1.9262l0.3175-0.16933 0.59267-0.33867c2.1407-1.1719 3.9592-2.8236 6.0748-4.0217l0.33867-0.16933 0.254 0.42333c1.1409 2.0472 2.2715 4.1003 3.429 6.1383l0.23283 0.4445-0.10583 0.0847-0.127 0.0635c-2.0927 1.1906-4.4016 1.9727-6.477 3.2173l-0.40217 0.21166-0.40217 0.23284c-2.4476 1.2298-4.4422 2.6638-6.7522 3.9793l-0.14817 0.0847-0.1905 0.0847-0.23283-0.4445c-1.0682-2.0274-2.2003-4.0217-3.2597-6.0537l-0.23283-0.40217" fill="#da251d"/>
   <path d="m76.592 136.95 0.127-0.0847c0.29139-0.0988 0.48189-0.0547 0.65617 0.21167l10.731 19.833-0.97367 0.52916-10.753-19.833-0.02117-0.0423c-3.53e-4 -0.10301-0.03281-0.0762-0.02117-0.23283v-0.10583c0.03387-0.10196 0.10478-0.15487 0.16933-0.23284l0.08467-0.0423" fill="#848382" stroke-linecap="round" stroke-linejoin="round" stroke-miterlimit="10" stroke-width=".075494"/>
  </g>
 </g>
</svg>
