<?xml version="1.0" encoding="UTF-8"?>
<!-- Created with Inkscape (http://www.inkscape.org/) -->
<svg width="38.121mm" height="40.571mm" version="1.1" viewBox="0 0 38.121 40.571" xmlns="http://www.w3.org/2000/svg">
 <g transform="translate(-57.15 -103.98)">
  <g fill="#1f1a17">
   <path d="m76.285 108.23h-0.4445c-4.2901 0.1016-8.2726 1.8048-11.388 4.7413l-0.29633 0.29634-0.508-0.508 0.3175-0.29634c3.2184-3.0801 7.4013-4.8239 11.853-4.953h0.46567zm-12.128 5.0377-0.27517 0.29633c-2.9379 3.0501-4.6302 7.2016-4.7413 11.43v0.4445h-0.71967l0.02117-0.46567c0.08361-4.3914 1.8782-8.7207 4.9107-11.896l0.29633-0.3175zm-5.0165 12.171v0.4445c0.10866 4.2164 1.7992 8.394 4.7413 11.43l0.27517 0.29633-0.508 0.508-0.29633-0.3175c-3.0427-3.1669-4.8242-7.5054-4.9107-11.896l-0.02117-0.46567zm5.0165 12.171 0.29633 0.29634c3.0854 2.9404 7.1162 4.656 11.388 4.7413h0.4445v0.71966h-0.46567c-4.3847-0.10195-8.709-1.8891-11.853-4.953l-0.3175-0.29634zm12.128 5.0377h0.42333c4.2714-0.0854 8.3023-1.8009 11.388-4.7413l0.29633-0.29634 0.508 0.508-0.3175 0.29634c-3.1415 3.0663-7.4701 4.8496-11.853 4.953h-0.4445zm12.107-5.0377 0.29633-0.29633c2.9108-3.0582 4.6221-7.2111 4.7202-11.43v-0.4445h0.71967l-0.02117 0.46567c-0.07937 4.3752-1.875 8.7415-4.9107 11.896l-0.29633 0.3175zm5.0165-12.171v-0.4445c-0.10901-4.2534-1.802-8.334-4.7202-11.43l-0.29633-0.29633 0.508-0.508 0.29633 0.3175c3.0226 3.157 4.8359 7.5248 4.9107 11.896l0.02117 0.46567zm-5.0165-12.171-0.29633-0.29634c-3.115-2.9365-7.0975-4.6397-11.388-4.7413h-0.42333v-0.71967h0.4445c4.439 0.12665 8.6487 1.8761 11.853 4.953l0.3175 0.29634-0.508 0.508"/>
   <g fill-rule="evenodd">
    <path d="m95.271 126.26-1.7357-4.2122-2.0955 4.1698 3.8312 0.0423"/>
    <path d="m57.15 123.81 1.7568 4.2122 2.0743-4.1698-3.8312-0.0423"/>
    <path d="m74.316 144.55 4.191-1.7568-4.1487-2.0955-0.04233 3.8523"/>
    <path d="m79.121 106.05-4.191 1.7568 4.1487 2.0955 0.04233-3.8523"/>
   </g>
  </g>
  <path d="m83.46 111.13h5.461v-7.112h-5.461z" fill="#848382"/>
  <path d="m83.46 104.02h5.461v7.112h-5.461z" fill="none" stroke="#1f1a17" stroke-linecap="round" stroke-linejoin="round" stroke-miterlimit="10" stroke-width=".074436"/>
  <path d="m86.169 105.14h0.16933c1.9089 0.25682 1.8454 2.9623-0.08467 3.1327h-0.14817c-1.9339-0.15417-2.0034-2.8889-0.08467-3.1327h0.14817" fill="#da251d" stroke-linecap="round" stroke-linejoin="round" stroke-miterlimit="10" stroke-width=".074436"/>
 </g>
</svg>
