<?xml version="1.0" encoding="UTF-8"?>
<!-- Created with Inkscape (http://www.inkscape.org/) -->
<svg width="21.158mm" height="21.868mm" version="1.1" viewBox="0 0 21.158 21.868" xmlns="http://www.w3.org/2000/svg">
 <g transform="translate(-81.227 -115.62)">
  <path d="m91.087 137.44h1.4182v-11.261h-1.4182z" fill="#848382"/>
  <g stroke="#1f1a17" stroke-linecap="round" stroke-linejoin="round" stroke-miterlimit="10">
   <path d="m91.087 126.18h1.4182v11.261h-1.4182z" fill="none" stroke-width=".098778"/>
   <path d="m92.505 126.18" fill="none" stroke-width=".098778"/>
   <path d="m82.239 115.66h19.283l0.0635 0.0212h0.0423l0.0847 0.0423h0.0423l0.127 0.0635 0.0423 0.0423 0.0847 0.0423 0.0212 0.0423 0.0423 0.0212 0.0212 0.0423 0.0423 0.0212 0.0423 0.0847 0.0423 0.0423 0.0635 0.127v0.0423l0.0423 0.0847v0.0423l0.0212 0.0635v9.398l-0.0212 0.0423v0.0423l-0.0212 0.0635-0.0212 0.0423v0.0423c-0.0607 0.10901-0.0314 0.10443-0.127 0.1905l-0.0212 0.0423-0.16933 0.16933-0.16934 0.0847c-0.13229 0.0769-0.11641 0.0441-0.21166 0.0847h-0.0635l-0.0423 0.0212h-19.304c-0.46884-0.049-0.8576-0.38911-0.91017-0.86783v-9.2075c-0.01305-0.23248 0.06809-0.40676 0.1905-0.59267l0.02117-0.0423 0.04233-0.0212 0.02117-0.0423 0.04233-0.0212 0.0635-0.0635 0.04233-0.0212 0.04233-0.0423 0.04233-0.0212c0.16581-0.0935 0.04586 9e-3 0.21167-0.0847h0.04233l0.0635-0.0212h0.14817" fill="#fff" fill-rule="evenodd" stroke-width=".074789"/>
  </g>
  <path d="m83.425 117.18h16.849l0.0423 0.0212h0.0635l0.0212 0.0212h0.0423l0.0212 0.0212 0.0423 0.0212 0.0212 0.0212h0.0212l0.0212 0.0212 0.0423 0.0212 0.0847 0.0847 0.0212 0.0423 0.0423 0.0423v0.0212l0.0212 0.0423 0.0212 0.0212v0.0423l0.0212 0.0212v0.0635l0.0212 0.0212v6.9003l-0.0212 0.0423v0.0635l-0.0212 0.0212v0.0423l-0.0424 0.0424v0.0423l-0.0847 0.0847-0.0212 0.0423-0.0423 0.0423-0.0423 0.0212h-0.0212l-0.0424 0.0424-0.0423 0.0212h-0.0212l-0.0423 0.0212h-0.0212l-0.0423 0.0212h-0.0635l-0.0212 0.0212h-16.891l-0.02117-0.0212h-0.0635l-0.04233-0.0212h-0.02117l-0.04233-0.0212h-0.02117l-0.04233-0.0212-0.04234-0.0424h-0.02117l-0.04233-0.0212-0.04233-0.0423-0.02117-0.0423-0.0635-0.0635v-0.0212l-0.02117-0.0423-0.04233-0.0423v-0.0423l-0.02117-0.0212v-0.0635l-0.02117-0.0423v-6.9003l0.02117-0.0212v-0.0635l0.02117-0.0212v-0.0423l0.02117-0.0212 0.02117-0.0423 0.02117-0.0212v-0.0212l0.02117-0.0212 0.02117-0.0423 0.02117-0.0212c0.06668-0.0744 0.2667-0.20391 0.35983-0.1905l0.04233-0.0212h0.08467" fill="#da251d" fill-rule="evenodd"/>
 </g>
</svg>
