<?xml version="1.0" encoding="UTF-8"?>
<!-- Created with Inkscape (http://www.inkscape.org/) -->
<svg width="24.088mm" height="30.332mm" version="1.1" viewBox="0 0 24.088 30.332" xmlns="http://www.w3.org/2000/svg">
 <defs>
  <clipPath id="clipPath131">
   <path transform="translate(2.5e-5 2.5e-5)" d="m206.88 455.48h68.28v85.98h-68.28z"/>
  </clipPath>
 </defs>
 <g transform="translate(-70.908 -162.45)">
  <path transform="matrix(.35278 0 0 -.35278 -2.0744 353.47)" d="m206.88 455.48h68.28v85.98h-68.28z" clip-path="url(#clipPath131)" fill="#b6b5b4"/>
  <path d="m82.232 190.54h1.397v-11.282h-1.397z" fill="#848382"/>
  <path d="m82.232 179.26h1.397v11.282h-1.397z" fill="none" stroke="#1f1a17" stroke-linecap="round" stroke-linejoin="round" stroke-miterlimit="10" stroke-width=".098425"/>
  <path d="m83.629 179.26z" fill="none" stroke="#1f1a17" stroke-linecap="round" stroke-linejoin="round" stroke-miterlimit="10" stroke-width=".098425"/>
  <g fill-rule="evenodd" stroke="#1f1a17" stroke-linecap="round" stroke-linejoin="round" stroke-miterlimit="10" stroke-width=".072672">
   <path d="m73.385 168.72h19.219l0.04233 0.0212h0.04233l0.04233 0.0212h0.0635l0.254 0.127 0.0635 0.0635 0.04233 0.0212 0.02117 0.0423 0.04233 0.0212 0.02117 0.0423 0.0635 0.0635 0.127 0.254v0.0635l0.02117 0.0423v0.0423l0.02117 0.0423v9.271c-0.0194 0.20073-0.08431 0.42087-0.23283 0.5715l-0.02117 0.0423-0.04233 0.0212c-0.08396 0.13441-0.37359 0.27023-0.52917 0.27517l-0.04233 0.0212h-19.325l-0.04233-0.0212h-0.04233l-0.0635-0.0212h-0.04233l-0.254-0.127-0.0635-0.0635-0.04233-0.0212-0.0635-0.0635-0.02117-0.0423-0.0635-0.0635-0.10585-0.2115-0.04233-0.0847v-0.10583l-0.02117-0.0423v-9.3345l0.02117-0.0423v-0.0847l0.02117-0.0635 0.02117-0.0423c0.03528-0.0706 0.07056-0.14111 0.10583-0.21167l0.0635-0.0635 0.02117-0.0423c0.14323-0.14429 0.3295-0.25541 0.52917-0.29633h0.04233l0.04233-0.0212h0.10583" fill="#848382"/>
   <path d="m82.931 164.72h0.10583l0.08467 0.0212c2.4433 0.30339 2.3812 3.7733-0.08467 3.9793h-0.21167c-2.462-0.19685-2.5492-3.6527-0.10583-3.9793l0.10583-0.0212h0.10583" fill="#848382"/>
   <path d="m82.931 165.21h0.14817c1.845 0.27305 1.797 2.8607-0.0635 3.0268h-0.3175c-0.3242-0.0811-0.52493-0.15981-0.78317-0.381l-0.10583-0.10583-0.04233-0.0635-0.0635-0.0423-0.04233-0.0635-0.02117-0.0635-0.08466-0.127-0.02117-0.0635-0.02117-0.0847-0.04233-0.0635-0.02117-0.0635v-0.0847l-0.02117-0.0635v-0.0847l-0.02117-0.0847v-0.0635c-0.0014-0.72672 0.56021-1.4139 1.2912-1.5028l0.08467-0.0212h0.14817" fill="#da251d"/>
  </g>
 </g>
</svg>
