<?xml version="1.0" encoding="UTF-8"?>
<!-- Created with Inkscape (http://www.inkscape.org/) -->
<svg width="38.194mm" height="36.739mm" version="1.1" viewBox="0 0 38.194 36.739" xmlns="http://www.w3.org/2000/svg">
 <defs>
  <clipPath id="clipPath96-2">
   <path transform="translate(-352.44 -461.18)" d="m346.8 418.16h5.94v43.26h-5.94z"/>
  </clipPath>
  <clipPath id="clipPath98-4">
   <path transform="translate(-352.44 -461.18)" d="m346.8 418.16h5.94v43.26h-5.94z"/>
  </clipPath>
  <clipPath id="clipPath109-5">
   <path transform="translate(-275.16 -461.18)" d="m269.52 418.16h5.94v43.26h-5.94z"/>
  </clipPath>
  <clipPath id="clipPath111-0">
   <path transform="translate(-275.16 -461.18)" d="m269.52 418.16h5.94v43.26h-5.94z"/>
  </clipPath>
 </defs>
 <g transform="translate(-51.329 -70.644)">
  <path d="m83.094 107.34h1.905v-15.134h-1.905z" fill="#807d7d"/>
  <path transform="matrix(.35278 0 0 -.35278 84.999 92.207)" d="m-5.4 0h5.4v-42.9h-5.4z" clip-path="url(#clipPath96-2)" fill="none" stroke="#2b2625" stroke-linecap="round" stroke-linejoin="round" stroke-miterlimit="10" stroke-width=".28"/>
  <path transform="matrix(.35278 0 0 -.35278 84.999 92.207)" d="m0 0z" clip-path="url(#clipPath98-4)" fill="none" stroke="#2b2625" stroke-linecap="round" stroke-linejoin="round" stroke-miterlimit="10" stroke-width=".28"/>
  <g fill="#807d7d" fill-rule="evenodd" stroke="#2b2625" stroke-linecap="round" stroke-linejoin="round" stroke-miterlimit="10">
   <path d="m88.068 70.744h-8.0222l-1.3547 1.3758v20.299h10.732v-20.299l-1.3547-1.3758" stroke-width=".19967"/>
   <path d="m84.047 73.559h0.16933l0.0635 0.02117h0.08467l0.0635 0.02117 0.08467 0.02117 0.127 0.04234 0.0635 0.04233 0.0635 0.02117 0.254 0.16933 0.14817 0.14817 0.08466 0.127 0.04233 0.04233 0.127 0.1905 0.02117 0.08467 0.04233 0.127 0.02117 0.08467 0.02117 0.0635 0.02117 0.08467v0.0635l0.02117 0.08467v0.14817l-0.02117 0.08467v0.08467l-0.02117 0.0635-0.02117 0.08467-0.04233 0.127-0.02117 0.08467-0.02117 0.0635-0.16933 0.254-0.04233 0.04233-0.04233 0.0635-0.14817 0.14817-0.254 0.16933-0.0635 0.02117-0.0635 0.04233-0.127 0.04233-0.08467 0.02117-0.0635 0.02117-0.08467 0.02117h-0.4445l-0.08467-0.02117-0.0635-0.02117-0.08467-0.02117-0.127-0.04233-0.08467-0.04233-0.0635-0.02117-0.0635-0.04233-0.04233-0.04233-0.127-0.08467-0.254-0.254-0.08467-0.127-0.02117-0.0635-0.04233-0.0635-0.02117-0.0635-0.04233-0.08467-0.04233-0.127v-0.08467l-0.02117-0.0635v-0.08467l-0.02117-0.08467v-0.14817l0.02117-0.08467v-0.0635l0.02117-0.08467v-0.0635l0.02117-0.08467 0.02117-0.0635 0.04233-0.0635 0.02117-0.08467 0.04233-0.0635 0.02117-0.0635 0.04233-0.0635 0.04233-0.04233 0.04233-0.0635 0.21167-0.21167 0.127-0.08467 0.04233-0.04233 0.0635-0.04233 0.0635-0.02117 0.08467-0.04233 0.127-0.04234 0.08467-0.02117 0.0635-0.02117h0.08467l0.0635-0.02117h0.14817" stroke-width=".075142"/>
   <path d="m86.523 80.671h0.08467l0.0635 0.02117h0.08467l0.0635 0.02117 0.08467 0.02117h0.0635l0.0635 0.04233 0.08467 0.02117 0.0635 0.02117 0.254 0.16933 0.04233 0.04233 0.0635 0.04233 0.14817 0.14817 0.16933 0.254 0.02117 0.0635 0.04233 0.0635 0.02117 0.0635 0.02117 0.08467 0.02117 0.0635 0.02117 0.08467v0.0635l0.02117 0.08467v0.3175l-0.02117 0.0635v0.08467l-0.02117 0.0635-0.02117 0.08467-0.04234 0.127-0.04233 0.0635-0.02117 0.0635-0.21167 0.3175-0.0635 0.04233-0.14817 0.14817-0.127 0.08467-0.0635 0.02117-0.0635 0.04233-0.0635 0.02117-0.08467 0.04233-0.127 0.04233-0.08467 0.02117h-0.0635l-0.08467 0.02117h-0.29633l-0.08467-0.02117h-0.0635l-0.08467-0.02117-0.0635-0.02117-0.08467-0.02117-0.0635-0.04233-0.0635-0.02117-0.0635-0.04233-0.0635-0.02117-0.127-0.08467-0.14817-0.14817-0.0635-0.04233-0.21167-0.3175-0.02117-0.0635-0.04233-0.0635-0.04234-0.127-0.02117-0.08467-0.02117-0.0635v-0.08467l-0.02117-0.0635v-0.3175l0.02117-0.08467v-0.0635l0.02117-0.08467 0.02117-0.0635 0.02117-0.08467 0.02117-0.0635 0.04233-0.0635 0.02117-0.0635 0.16933-0.254 0.14817-0.14817 0.0635-0.04233 0.04233-0.04233 0.254-0.16933 0.127-0.04233 0.08467-0.04233h0.0635l0.08467-0.02117 0.0635-0.02117h0.08467l0.0635-0.02117h0.08467" stroke-width=".075142"/>
  </g>
  <g fill="#319141">
   <path d="m81.591 80.65h0.14817l0.0635 0.02117h0.08467l0.0635 0.02117 0.08467 0.02117 0.127 0.04233 0.0635 0.04233 0.08467 0.02117 0.0635 0.04233 0.04233 0.04233 0.127 0.08467 0.21167 0.21167 0.04233 0.0635 0.04233 0.04233 0.04233 0.0635 0.02117 0.0635 0.04233 0.0635 0.02117 0.08467 0.02117 0.0635 0.04233 0.0635 0.02117 0.08467v0.0635l0.02117 0.08467v0.0635l0.02117 0.08467v0.14817l-0.02117 0.08467v0.08467l-0.02117 0.0635v0.08467l-0.02117 0.0635-0.04233 0.0635-0.02117 0.08467-0.02117 0.0635-0.04233 0.0635-0.02117 0.0635-0.08467 0.127-0.254 0.254-0.127 0.08467-0.04233 0.04233-0.0635 0.04233-0.08467 0.02117-0.0635 0.04233-0.127 0.04233-0.08467 0.02117-0.0635 0.02117-0.08467 0.02117h-0.4445l-0.08467-0.02117-0.0635-0.02117-0.08467-0.02117-0.127-0.04233-0.0635-0.04233-0.0635-0.02117-0.254-0.16933-0.14817-0.14817-0.04233-0.0635-0.04233-0.04233-0.16934-0.254-0.02117-0.0635-0.02117-0.08467-0.04233-0.127-0.02117-0.08467-0.02117-0.0635v-0.08467l-0.02117-0.08467v-0.14817l0.02117-0.08467v-0.0635l0.02117-0.08467 0.02117-0.0635 0.02117-0.08467 0.04234-0.127 0.02117-0.08467 0.04233-0.0635 0.08467-0.127 0.04233-0.04233 0.08467-0.127 0.14817-0.14817 0.254-0.16933 0.0635-0.02117 0.0635-0.04233 0.127-0.04233 0.08467-0.02117 0.0635-0.02117h0.08467l0.0635-0.02117h0.16933" fill-rule="evenodd" stroke="#2b2625" stroke-linecap="round" stroke-linejoin="round" stroke-miterlimit="10" stroke-width=".075142"/>
   <g>
    <path d="m82.502 80.713 1.1218-1.143 0.48683 0.48683-1.1218 1.143-0.48683-0.48683"/>
    <path d="m79.496 79.549 1.1218 1.1218-0.48683 0.508-1.143-1.143 0.508-0.48683"/>
    <path d="m79.009 84.269 1.1218-1.143 0.508 0.508-1.143 1.143-0.48683-0.508"/>
    <path d="m83.031 83.126 1.1218 1.143-0.48683 0.48683-1.1218-1.143 0.48683-0.48683"/>
   </g>
  </g>
  <path d="m55.832 107.34h1.905v-15.134h-1.905z" fill="#807d7d"/>
  <path transform="matrix(.35278 0 0 -.35278 57.737 92.207)" d="m-5.4 0h5.4v-42.9h-5.4z" clip-path="url(#clipPath109-5)" fill="none" stroke="#2b2625" stroke-linecap="round" stroke-linejoin="round" stroke-miterlimit="10" stroke-width=".28"/>
  <path transform="matrix(.35278 0 0 -.35278 57.737 92.207)" d="m0 0z" clip-path="url(#clipPath111-0)" fill="none" stroke="#2b2625" stroke-linecap="round" stroke-linejoin="round" stroke-miterlimit="10" stroke-width=".28"/>
  <g fill-rule="evenodd" stroke="#2b2625" stroke-linecap="round" stroke-linejoin="round" stroke-miterlimit="10">
   <path d="m60.806 70.744h-8.0222l-1.3547 1.3758v20.299h10.71v-20.299l-1.3335-1.3758" fill="#807d7d" stroke-width=".19967"/>
   <g stroke-width=".075142">
    <path d="m56.784 73.559h0.16933l0.0635 0.02117h0.0635l0.08467 0.02117 0.0635 0.02117 0.08467 0.02117 0.0635 0.02117 0.0635 0.04233 0.0635 0.02117 0.1905 0.127 0.04233 0.04233 0.0635 0.04233 0.04233 0.0635 0.0635 0.04233 0.08466 0.127 0.04233 0.04233 0.08467 0.127 0.02117 0.0635 0.04233 0.08467 0.04233 0.127 0.02117 0.08467 0.02117 0.0635 0.02117 0.08467v0.46567l-0.02117 0.0635-0.02117 0.08467-0.04233 0.127-0.02117 0.08467-0.04233 0.0635-0.02117 0.0635-0.04233 0.0635-0.08467 0.127-0.04233 0.04233-0.04233 0.0635-0.0635 0.04233-0.04233 0.0635-0.0635 0.04233-0.04233 0.04233-0.1905 0.127-0.0635 0.02117-0.0635 0.04233-0.0635 0.02117-0.08467 0.02117-0.0635 0.02117-0.08467 0.02117-0.0635 0.02117h-0.46567l-0.0635-0.02117-0.08467-0.02117-0.127-0.04233-0.08467-0.02117-0.0635-0.04233-0.0635-0.02117-0.127-0.08467-0.04233-0.04233-0.127-0.08467-0.04233-0.0635-0.0635-0.04233-0.04233-0.0635-0.04233-0.04233-0.08467-0.127-0.02117-0.0635-0.04233-0.0635-0.02117-0.0635-0.04233-0.08467-0.04233-0.127-0.02117-0.08467v-0.0635l-0.02117-0.08467v-0.3175l0.02117-0.0635v-0.08467l0.02117-0.0635 0.02117-0.08467 0.02117-0.0635 0.04233-0.0635 0.02117-0.08467 0.04233-0.0635 0.02117-0.0635 0.04233-0.0635 0.04233-0.04233 0.08466-0.127 0.0635-0.04233 0.04233-0.0635 0.127-0.08467 0.04233-0.04233 0.127-0.08467 0.0635-0.02117 0.0635-0.04233 0.08467-0.02117 0.127-0.04233 0.08467-0.02117h0.0635l0.08467-0.02117h0.14817" fill="#807d7d"/>
    <path d="m54.392 80.671h0.08467l0.0635 0.02117h0.08467l0.0635 0.02117 0.08467 0.02117h0.0635l0.0635 0.04233 0.08467 0.02117 0.0635 0.02117 0.1905 0.127 0.04233 0.04233 0.127 0.08467 0.14817 0.14817 0.127 0.1905 0.02117 0.0635 0.04233 0.0635 0.02117 0.0635 0.04233 0.0635 0.02117 0.08467 0.02117 0.0635 0.02117 0.08467v0.0635l0.02117 0.08467v0.3175l-0.02117 0.0635v0.08467l-0.02117 0.0635-0.02117 0.08467-0.02117 0.0635-0.04233 0.0635-0.02117 0.0635-0.04233 0.0635-0.02117 0.0635-0.16933 0.254-0.0635 0.04233-0.10583 0.10583-0.0635 0.04233-0.04233 0.04233-0.0635 0.04233-0.0635 0.02117-0.0635 0.04233-0.0635 0.02117-0.08467 0.04233-0.127 0.04233-0.08467 0.02117h-0.0635l-0.08467 0.02117h-0.29633l-0.08467-0.02117h-0.0635l-0.08467-0.02117-0.0635-0.02117-0.08467-0.02117-0.0635-0.04233-0.0635-0.02117-0.0635-0.04233-0.0635-0.02117-0.127-0.08467-0.14817-0.14817-0.0635-0.04233-0.21167-0.3175-0.02117-0.0635-0.04233-0.0635-0.04234-0.127-0.02117-0.08467-0.02117-0.0635-0.02117-0.08467v-0.46567l0.02117-0.0635 0.02117-0.08467 0.02117-0.0635 0.02117-0.08467 0.02117-0.0635 0.04233-0.0635 0.02117-0.0635 0.16933-0.254 0.14817-0.14817 0.0635-0.04233 0.04233-0.04233 0.254-0.16933 0.127-0.04233 0.08467-0.04233h0.0635l0.08467-0.02117 0.0635-0.02117h0.08467l0.0635-0.02117h0.08467" fill="#319141"/>
    <path d="m59.261 80.671h0.0635l0.08467 0.02117h0.08467l0.0635 0.02117 0.08467 0.02117h0.0635l0.0635 0.04233 0.0635 0.02117 0.08467 0.02117 0.127 0.08467 0.04233 0.04233 0.1905 0.127 0.04233 0.04233 0.04233 0.0635 0.0635 0.04233 0.127 0.1905 0.02117 0.0635 0.04233 0.0635 0.02117 0.0635 0.04233 0.0635 0.02117 0.08467 0.02117 0.0635v0.08467l0.02117 0.0635 0.02117 0.08467v0.3175l-0.02117 0.0635-0.02117 0.08467v0.0635l-0.02117 0.08467-0.02117 0.0635-0.04233 0.0635-0.02117 0.0635-0.04233 0.0635-0.02117 0.0635-0.127 0.1905-0.21167 0.21167-0.127 0.08467-0.04233 0.04233-0.0635 0.02117-0.0635 0.04233-0.08467 0.02117-0.0635 0.04233-0.127 0.04233-0.08467 0.02117h-0.0635l-0.08467 0.02117h-0.3175l-0.0635-0.02117h-0.08467l-0.0635-0.02117-0.08467-0.02117-0.0635-0.02117-0.0635-0.04233-0.0635-0.02117-0.0635-0.04233-0.0635-0.02117-0.1905-0.127-0.04233-0.0635-0.0635-0.04233-0.04233-0.04233-0.21167-0.3175-0.02117-0.0635-0.04233-0.0635-0.04234-0.127-0.02117-0.08467-0.02117-0.0635-0.02117-0.08467v-0.46567l0.02117-0.0635 0.02117-0.08467 0.02117-0.0635 0.02117-0.08467 0.02117-0.0635 0.04233-0.0635 0.02117-0.0635 0.16933-0.254 0.04233-0.04233 0.04233-0.0635 0.0635-0.04233 0.04233-0.04233 0.3175-0.21167 0.127-0.04233 0.0635-0.04233h0.08467l0.0635-0.02117 0.08467-0.02117h0.0635l0.08467-0.02117h0.08467" fill="#807d7d"/>
   </g>
  </g>
 </g>
</svg>
