<?xml version="1.0" encoding="UTF-8"?>
<!-- Created with Inkscape (http://www.inkscape.org/) -->
<svg width="10.929mm" height="36.738mm" version="1.1" viewBox="0 0 10.929 36.738" xmlns="http://www.w3.org/2000/svg">
 <defs>
  <clipPath id="clipPath134">
   <path transform="translate(-313.8 -204.56)" d="m308.16 161.54h5.94v43.26h-5.94z"/>
  </clipPath>
  <clipPath id="clipPath136">
   <path transform="translate(-313.8 -204.56)" d="m308.16 161.54h5.94v43.26h-5.94z"/>
  </clipPath>
 </defs>
 <g transform="translate(-56.092 -74.612)">
  <path d="m60.593 111.31h1.905v-15.134h-1.905z" fill="#807d7d"/>
  <path transform="matrix(.35278 0 0 -.35278 62.498 96.174)" d="m-5.4 0h5.4v-42.9h-5.4z" clip-path="url(#clipPath134)" fill="none" stroke="#2b2625" stroke-linecap="round" stroke-linejoin="round" stroke-miterlimit="10" stroke-width=".283"/>
  <path transform="matrix(.35278 0 0 -.35278 62.498 96.174)" d="m0 0z" clip-path="url(#clipPath136)" fill="none" stroke="#2b2625" stroke-linecap="round" stroke-linejoin="round" stroke-miterlimit="10" stroke-width=".283"/>
  <g fill="#807d7d" fill-rule="evenodd" stroke="#2b2625" stroke-linecap="round" stroke-linejoin="round" stroke-miterlimit="10">
   <path d="m65.567 74.711h-8.0222l-1.3547 1.3758v20.299h10.732v-20.299l-1.3547-1.3758" stroke-width=".19791"/>
   <path d="m61.546 77.527h0.23283l0.08467 0.02117 0.127 0.04233 0.08467 0.02117 0.0635 0.02117 0.0635 0.04233 0.0635 0.02117 0.254 0.16933 0.14817 0.14817 0.08467 0.127 0.04233 0.04233 0.127 0.1905 0.02117 0.08467 0.04234 0.127 0.02117 0.08467 0.02117 0.0635 0.02117 0.08467v0.14817l0.02117 0.08467-0.02117 0.0635v0.16933l-0.02117 0.0635-0.02117 0.08467-0.04234 0.127-0.02117 0.08467-0.02117 0.0635-0.16933 0.254-0.04233 0.04233-0.04233 0.0635-0.14817 0.14817-0.254 0.16933-0.0635 0.02117-0.0635 0.04233-0.0635 0.02117-0.08467 0.02117-0.127 0.04233-0.08467 0.02117h-0.46567l-0.0635-0.02117-0.08467-0.02117-0.1905-0.0635-0.08467-0.04233-0.0635-0.02117-0.127-0.08467-0.04233-0.04233-0.127-0.08467-0.04233-0.0635-0.14817-0.14817-0.08467-0.127-0.02117-0.0635-0.04233-0.0635-0.02117-0.0635-0.04233-0.08467-0.04233-0.127-0.02117-0.08467v-0.0635l-0.02117-0.08467v-0.3175l0.02117-0.0635v-0.08467l0.02117-0.0635 0.02117-0.08467 0.02117-0.0635 0.04233-0.0635 0.02117-0.08467 0.04233-0.0635 0.02117-0.0635 0.04233-0.0635 0.04233-0.04233 0.04233-0.0635 0.10583-0.10583 0.04233-0.0635 0.127-0.08467 0.04233-0.04233 0.127-0.08467 0.0635-0.02117 0.08467-0.04233 0.1905-0.0635 0.08467-0.02117 0.0635-0.02117h0.23283" stroke-width=".073378"/>
   <path d="m59.154 84.639h0.08467l0.0635 0.02117h0.08467l0.0635 0.02117h0.08467l0.0635 0.02117 0.0635 0.04233 0.08467 0.02117 0.0635 0.02117 0.254 0.16933 0.04233 0.04233 0.0635 0.04233 0.14817 0.14817 0.16933 0.254 0.02117 0.0635 0.04233 0.0635 0.02117 0.0635 0.02117 0.08467 0.02117 0.0635 0.02117 0.08467v0.0635l0.02117 0.08467v0.29633l-0.02117 0.08467v0.08467l-0.02117 0.0635-0.02117 0.08467-0.04233 0.127-0.04233 0.0635-0.02117 0.0635-0.21167 0.3175-0.0635 0.04233-0.14817 0.14817-0.127 0.08467-0.0635 0.02117-0.0635 0.04233-0.0635 0.02117-0.08467 0.04233-0.127 0.04233-0.08467 0.02117h-0.0635l-0.08467 0.02117h-0.29633l-0.08467-0.02117h-0.0635l-0.08467-0.02117-0.0635-0.02117-0.08467-0.02117-0.0635-0.04233-0.0635-0.02117-0.0635-0.04233-0.0635-0.02117-0.127-0.08467-0.14817-0.14817-0.0635-0.04233-0.21167-0.3175-0.02117-0.0635-0.04233-0.0635-0.04233-0.127-0.02117-0.08467-0.02117-0.0635v-0.08467l-0.02117-0.08467v-0.29633l0.02117-0.08467v-0.0635l0.02117-0.08467 0.02117-0.0635 0.02117-0.08467 0.02117-0.0635 0.04233-0.0635 0.02117-0.0635 0.16933-0.254 0.14817-0.14817 0.0635-0.04233 0.04233-0.04233 0.254-0.16933 0.127-0.04233 0.08467-0.04233 0.0635-0.02117h0.08467l0.0635-0.02117h0.08467l0.0635-0.02117h0.08467" stroke-width=".073378"/>
  </g>
  <path d="m64.022 84.639h0.0635l0.08467 0.02117h0.08467l0.0635 0.02117h0.08467l0.0635 0.02117 0.0635 0.04233 0.08467 0.02117 0.0635 0.02117 0.1905 0.127 0.04233 0.04233 0.127 0.08467 0.14817 0.14817 0.127 0.1905 0.02117 0.0635 0.04233 0.0635 0.02117 0.0635 0.04233 0.0635 0.02117 0.08467 0.02117 0.0635 0.02117 0.08467v0.0635l0.02117 0.08467v0.29633l-0.02117 0.08467v0.08467l-0.02117 0.0635-0.02117 0.08467-0.02117 0.0635-0.04233 0.0635-0.02117 0.0635-0.04233 0.0635-0.02117 0.0635-0.16933 0.254-0.0635 0.04233-0.10583 0.10583-0.0635 0.04233-0.04233 0.04233-0.0635 0.04233-0.0635 0.02117-0.0635 0.04233-0.0635 0.02117-0.08467 0.04233-0.127 0.04233-0.08467 0.02117h-0.0635l-0.08467 0.02117h-0.29634l-0.08467-0.02117h-0.0635l-0.08467-0.02117-0.0635-0.02117-0.08467-0.02117-0.0635-0.04233-0.0635-0.02117-0.0635-0.04233-0.0635-0.02117-0.127-0.08467-0.10583-0.10583-0.0635-0.04233-0.04233-0.04233-0.21167-0.3175-0.02117-0.0635-0.04233-0.0635-0.04233-0.127-0.02117-0.08467-0.02117-0.0635-0.02117-0.08467v-0.46567l0.02117-0.0635 0.02117-0.08467 0.02117-0.0635 0.02117-0.08467 0.02117-0.0635 0.04233-0.0635 0.02117-0.0635 0.04233-0.0635 0.127-0.1905 0.04233-0.04233 0.04233-0.0635 0.127-0.08467 0.04233-0.04233 0.254-0.16933 0.127-0.04233 0.08467-0.04233 0.0635-0.02117h0.08467l0.0635-0.02117h0.08467l0.0635-0.02117h0.08467" fill="#eeee28" fill-rule="evenodd" stroke="#2b2625" stroke-linecap="round" stroke-linejoin="round" stroke-miterlimit="10" stroke-width=".073378"/>
 </g>
</svg>
