<?xml version="1.0" encoding="UTF-8"?>
<!-- Created with Inkscape (http://www.inkscape.org/) -->
<svg width="9.9148mm" height="33.225mm" version="1.1" viewBox="0 0 9.9148 33.225" xmlns="http://www.w3.org/2000/svg">
 <defs>
  <clipPath id="clipPath53-8">
   <path transform="translate(-290.88 -242.42)" d="m285.78 203.54h5.4v39.12h-5.4z"/>
  </clipPath>
  <clipPath id="clipPath55-6">
   <path transform="translate(-290.88 -242.42)" d="m285.78 203.54h5.4v39.12h-5.4z"/>
  </clipPath>
 </defs>
 <g transform="translate(-97.102 -132.03)">
  <path d="m101.2 165.21h1.7145v-13.674h-1.7145z" fill="#807d7d"/>
  <path transform="matrix(.35278 0 0 -.35278 102.92 151.54)" d="m-4.86 0h4.86v-38.76h-4.86z" clip-path="url(#clipPath53-8)" fill="none" stroke="#2b2625" stroke-linecap="round" stroke-linejoin="round" stroke-miterlimit="10" stroke-width=".282"/>
  <path transform="matrix(.35278 0 0 -.35278 102.92 151.54)" d="m0 0z" clip-path="url(#clipPath55-6)" fill="none" stroke="#2b2625" stroke-linecap="round" stroke-linejoin="round" stroke-miterlimit="10" stroke-width=".282"/>
  <g fill="#807d7d" fill-rule="evenodd" stroke="#2b2625" stroke-linecap="round" stroke-linejoin="round" stroke-miterlimit="10">
   <path d="m105.69 132.13h-7.239l-1.2488 1.2488v18.352h9.7155v-18.352l-1.2277-1.2488" stroke-width=".19932"/>
   <path d="m102.07 134.69h0.21167l0.127 0.0423h0.0635l0.0635 0.0423 0.127 0.0423 0.0423 0.0212 0.127 0.0847 0.0423 0.0212 0.0635 0.0423 0.0423 0.0423 0.0423 0.0635 0.0847 0.0847 0.0423 0.0635 0.0423 0.0423 0.0423 0.0635 0.0212 0.0635 0.0423 0.0423 0.10583 0.3175v0.0847l0.0212 0.0635v0.27516l-0.0212 0.0635v0.0847l-0.0636 0.1905-0.0423 0.127-0.0423 0.0635-0.0212 0.0423-0.0423 0.0635-0.0423 0.0423-0.0423 0.0635-0.0423 0.0423-0.0423 0.0635-0.0847 0.0847-0.0635 0.0423-0.0423 0.0212-0.127 0.0847-0.0423 0.0212-0.0635 0.0212-0.0635 0.0423-0.0635 0.0212h-0.0635l-0.127 0.0423h-0.14817l-0.0635 0.0212-0.0847-0.0212h-0.127l-0.127-0.0423h-0.0635l-0.0635-0.0212-0.0635-0.0423-0.127-0.0423-0.0635-0.0423-0.0423-0.0423-0.0635-0.0212-0.0423-0.0423-0.0635-0.0423-0.0423-0.0423-0.0423-0.0635-0.0423-0.0423-0.0423-0.0635-0.0423-0.0423-0.0212-0.0635-0.0423-0.0423-0.0212-0.0635-0.0423-0.0635-0.0636-0.1905v-0.0635l-0.0212-0.0847v-0.0635l-0.0212-0.0635v-0.14816l0.0212-0.0635v-0.0635l0.0212-0.0847v-0.0635l0.0635-0.1905 0.0423-0.0635 0.0212-0.0423 0.0423-0.0635 0.0212-0.0635 0.0423-0.0423 0.0423-0.0635 0.0847-0.0847 0.0423-0.0635 0.0635-0.0423 0.0423-0.0423 0.0635-0.0212 0.0423-0.0423 0.0635-0.0423 0.1905-0.0635 0.0635-0.0423h0.0635l0.127-0.0423h0.21167" stroke-width=".075142"/>
   <path d="m99.89 141.12h0.21167l0.381 0.127 0.0635 0.0423 0.0635 0.0212 0.0423 0.0423 0.0635 0.0423 0.0423 0.0423 0.0635 0.0423 0.127 0.127 0.0423 0.0635 0.0423 0.0423 0.0212 0.0635 0.0423 0.0635 0.0212 0.0423 0.0423 0.0635 0.0636 0.1905v0.0847l0.0212 0.0635v0.0635l0.0212 0.0635v0.14816l-0.0212 0.0635v0.0847l-0.0212 0.0635v0.0635l-0.0636 0.1905-0.0423 0.0635-0.0212 0.0635-0.0423 0.0423-0.0212 0.0635-0.0423 0.0635-0.0847 0.0847-0.0423 0.0635-0.0423 0.0423-0.0635 0.0423-0.0423 0.0423-0.0635 0.0423-0.0423 0.0212-0.0635 0.0423-0.0635 0.0212-0.0635 0.0423-0.1905 0.0635h-0.0635l-0.0635 0.0212h-0.0635l-0.0635 0.0212h-0.14817l-0.0635-0.0212h-0.08467l-0.0635-0.0212h-0.0635l-0.1905-0.0635-0.0635-0.0423-0.04233-0.0212-0.0635-0.0423-0.0635-0.0212-0.04233-0.0423-0.0635-0.0423-0.08467-0.0847-0.04233-0.0635-0.08467-0.0847-0.08466-0.127-0.02117-0.0423-0.04233-0.0635-0.0635-0.1905-0.04234-0.127v-0.0635l-0.02117-0.0847v-0.27516l0.02117-0.0635v-0.0635l0.02117-0.0847 0.08467-0.254 0.04233-0.0423 0.02117-0.0635 0.04233-0.0635 0.04233-0.0423 0.04233-0.0635 0.16933-0.16933 0.0635-0.0423 0.04233-0.0423 0.0635-0.0423 0.0635-0.0212 0.04233-0.0423 0.381-0.127h0.21167" stroke-width=".075142"/>
  </g>
  <path d="m104.29 141.12h0.21167l0.381 0.127 0.0635 0.0423 0.0635 0.0212 0.0423 0.0423 0.0635 0.0423 0.0847 0.0847 0.0635 0.0423 0.0847 0.0847 0.0423 0.0635 0.0423 0.0423 0.0212 0.0635 0.0423 0.0635 0.0212 0.0423 0.0423 0.0635 0.0635 0.1905v0.0847l0.0212 0.0635v0.0635l0.0212 0.0635v0.14816l-0.0212 0.0635v0.0847l-0.0212 0.0635v0.0635l-0.0212 0.0635-0.0423 0.127-0.0423 0.0635-0.0212 0.0635-0.0423 0.0423-0.0212 0.0635-0.0423 0.0635-0.0847 0.0847-0.0423 0.0635-0.0635 0.0423-0.0847 0.0847-0.0635 0.0423-0.0423 0.0212-0.0635 0.0423-0.0635 0.0212-0.0635 0.0423-0.1905 0.0635h-0.0635l-0.0635 0.0212h-0.0635l-0.0635 0.0212h-0.14817l-0.0635-0.0212h-0.0847l-0.0635-0.0212h-0.0635l-0.1905-0.0635-0.0635-0.0423-0.0635-0.0212-0.0423-0.0423-0.0635-0.0212-0.0423-0.0423-0.0635-0.0423-0.0847-0.0847-0.0423-0.0635-0.0635-0.0423-0.0212-0.0423-0.0847-0.127-0.0423-0.0423-0.0423-0.127-0.0636-0.1905-0.0423-0.127v-0.42333l0.0212-0.0635 0.0212-0.0847 0.0423-0.127 0.0424-0.127 0.0212-0.0423 0.0847-0.127 0.0423-0.0423 0.0212-0.0635 0.0635-0.0423 0.127-0.127 0.0635-0.0423 0.0423-0.0423 0.0635-0.0423 0.0423-0.0212 0.0635-0.0423 0.381-0.127h0.21167" fill="#eeee28" fill-rule="evenodd" stroke="#2b2625" stroke-linecap="round" stroke-linejoin="round" stroke-miterlimit="10" stroke-width=".075142"/>
  <path d="m98.218 133.46 0.04233-0.0423 0.04233-0.0212 0.02117-0.0423 0.254-0.127h0.04233l0.04233-0.0212h0.04233l0.04233-0.0212h0.21167l0.04233 0.0212h0.08467l0.08467 0.0423h0.04233l0.16933 0.0847 0.0635 0.0635 0.04233 0.0212 0.02117 0.0423 0.10583 0.10583 0.0635 0.127 0.02117 0.0212 0.04234 0.0846v0.0423l0.02117 0.0423v0.0423l0.02117 0.0635v0.21166l-0.02117 0.0423v0.0847l-0.04234 0.0846v0.0423l-0.08467 0.16934-0.0635 0.0635-0.02117 0.0423-0.04233 0.0423-0.04233 0.0212-0.02117 0.0423-0.16933 0.0847-0.02117 0.0212-0.08467 0.0423h-0.04233l-0.04233 0.0212h-0.04233l-0.04233 0.0212h-0.27517l-0.04233-0.0212h-0.04233l-0.04233-0.0212h-0.04233l-0.127-0.0635-0.02117-0.0212-0.04233-0.0212-0.04233-0.0423-0.04233-0.0212-0.02117-0.0212-0.04233-0.0423-0.04233-0.0212-0.04233-0.0847-0.04233-0.0423-0.04233-0.0847-0.02117-0.0212v-0.0423l-0.04234-0.0846v-0.0423l-0.02117-0.0423v-0.35983l0.02117-0.0423v-0.0423l0.06351-0.1269 0.0635-0.127 0.02117-0.0212 0.02117-0.0423 0.0635-0.0635" fill="#fff" fill-rule="evenodd" stroke="#2b2625" stroke-linecap="round" stroke-linejoin="round" stroke-miterlimit="10" stroke-width=".075142"/>
 </g>
</svg>
