<?xml version="1.0" encoding="UTF-8"?>
<!-- Created with Inkscape (http://www.inkscape.org/) -->
<svg width="9.8937mm" height="33.247mm" version="1.1" viewBox="0 0 9.8937 33.247" xmlns="http://www.w3.org/2000/svg">
 <defs>
  <clipPath id="clipPath80-9">
   <path transform="translate(-313.56 -651.14)" d="m308.4 612.26h5.46v39.12h-5.46z"/>
  </clipPath>
  <clipPath id="clipPath82-9">
   <path transform="translate(-313.56 -651.14)" d="m308.4 612.26h5.46v39.12h-5.46z"/>
  </clipPath>
 </defs>
 <g transform="translate(-66.41 -148.96)">
  <path d="m70.489 182.16h1.7357v-13.674h-1.7357z" fill="#807d7d"/>
  <path transform="matrix(.35278 0 0 -.35278 72.225 168.49)" d="m-4.92 0h4.92v-38.76h-4.92z" clip-path="url(#clipPath80-9)" fill="none" stroke="#2b2625" stroke-linecap="round" stroke-linejoin="round" stroke-miterlimit="10" stroke-width=".282"/>
  <path transform="matrix(.35278 0 0 -.35278 72.225 168.49)" d="m0 0z" clip-path="url(#clipPath82-9)" fill="none" stroke="#2b2625" stroke-linecap="round" stroke-linejoin="round" stroke-miterlimit="10" stroke-width=".282"/>
  <g fill-rule="evenodd" stroke="#2b2625" stroke-linecap="round" stroke-linejoin="round" stroke-miterlimit="10">
   <path d="m74.977 149.06h-7.239l-1.2277 1.2488v18.352h9.6943v-18.352l-1.2277-1.2488" fill="#807d7d" stroke-width=".19932"/>
   <g stroke-width=".075142">
    <path d="m69.198 158.06h0.14817l0.0635 0.0212h0.0635l0.1905 0.0636 0.127 0.0423 0.0635 0.0423 0.04233 0.0212 0.0635 0.0423 0.04233 0.0423 0.0635 0.0423 0.08467 0.0847 0.0635 0.0423 0.04233 0.0635 0.04233 0.0423 0.02117 0.0635 0.04233 0.0423 0.02117 0.0635 0.04233 0.0635 0.12702 0.381v0.42333l-0.02117 0.0635-0.10583 0.3175-0.04233 0.0635-0.02117 0.0635-0.04233 0.0423-0.02117 0.0635-0.04233 0.0423-0.04233 0.0635-0.0635 0.0423-0.08467 0.0847-0.0635 0.0423-0.04233 0.0423-0.0635 0.0423-0.04233 0.0212-0.0635 0.0423-0.0635 0.0212-0.254 0.0847h-0.0635l-0.0635 0.0212h-0.29635l-0.0635-0.0212h-0.0635l-0.3175-0.10583-0.0635-0.0423-0.04233-0.0212-0.127-0.0847-0.08467-0.0847-0.0635-0.0423-0.04233-0.0423-0.04233-0.0635-0.04233-0.0423-0.02117-0.0635-0.04233-0.0423-0.04233-0.0635-0.127-0.381-0.02117-0.0635v-0.42333l0.10585-0.3175 0.04233-0.127 0.04233-0.0635 0.04233-0.0423 0.02117-0.0635 0.04233-0.0423 0.04233-0.0635 0.04233-0.0423 0.0635-0.0423 0.08467-0.0847 0.127-0.0847 0.04233-0.0212 0.0635-0.0423 0.127-0.0423 0.1905-0.0636h0.0635l0.0635-0.0212h0.14817" fill="#807d7d"/>
    <path d="m73.58 158.06h0.14817l0.0635 0.0212h0.0635l0.0635 0.0212 0.08467 0.0212 0.127 0.0424 0.04233 0.0212 0.0635 0.0423 0.0635 0.0212 0.04233 0.0423 0.0635 0.0423 0.04233 0.0423 0.0635 0.0423 0.08467 0.0847 0.04233 0.0635 0.04233 0.0423 0.04233 0.0635 0.02117 0.0423 0.04233 0.0635 0.02117 0.0635 0.04233 0.0635 0.06351 0.1905v0.0635l0.02117 0.0635v0.0635l0.02117 0.0847v0.127l-0.02117 0.0847v0.0635l-0.02117 0.0635v0.0635l-0.02117 0.0635-0.04233 0.127-0.04233 0.0635-0.02117 0.0635-0.04233 0.0635-0.02117 0.0423-0.04233 0.0635-0.04233 0.0423-0.04233 0.0635-0.08467 0.0847-0.0635 0.0423-0.04233 0.0423-0.0635 0.0423-0.04233 0.0423-0.0635 0.0212-0.0635 0.0423-0.04233 0.0212-0.127 0.0423-0.08467 0.0212-0.0635 0.0212h-0.0635l-0.0635 0.0212h-0.27517l-0.0635-0.0212h-0.0635l-0.08467-0.0212-0.1905-0.0635-0.04233-0.0212-0.0635-0.0423-0.0635-0.0212-0.04233-0.0423-0.0635-0.0423-0.04233-0.0423-0.0635-0.0423-0.08467-0.0847-0.04233-0.0635-0.04233-0.0423-0.04233-0.0635-0.04233-0.0423-0.04234-0.127-0.04233-0.0635-0.0635-0.1905-0.02117-0.0635v-0.127l-0.02117-0.0847v-0.127l0.02117-0.0847v-0.127l0.08468-0.254 0.04233-0.0635 0.04233-0.127 0.04233-0.0423 0.04233-0.0635 0.04233-0.0423 0.04233-0.0635 0.08467-0.0847 0.0635-0.0423 0.04233-0.0423 0.0635-0.0423 0.04233-0.0423 0.0635-0.0212 0.0635-0.0423 0.04233-0.0212 0.1905-0.0636 0.08467-0.0212h0.0635l0.0635-0.0212h0.127" fill="#eeee28"/>
    <path d="m67.526 164.02 0.04233-0.0423 0.04233-0.0212 0.02117-0.0423 0.254-0.127h0.04233l0.04233-0.0212h0.08467l0.04233-0.0212h0.16933l0.04233 0.0212h0.08467l0.08467 0.0423h0.04233l0.16933 0.0847 0.02117 0.0423 0.08466 0.0424 0.02117 0.0423 0.0635 0.0635 0.02117 0.0423 0.04233 0.0423 0.08467 0.16933v0.0423l0.02117 0.0423v0.0423l0.02117 0.0423v0.0847l0.02117 0.0423v0.0847l-0.02117 0.0423v0.0847l-0.02117 0.0423v0.0423l-0.0635 0.127v0.0423l-0.02117 0.0423-0.04233 0.0423-0.02117 0.0423-0.0635 0.0635-0.02117 0.0423-0.04233 0.0212-0.02117 0.0423-0.21167 0.10584-0.08466 0.0424-0.02117 0.0212h-0.10583l-0.04233 0.0212h-0.254l-0.04233-0.0212h-0.04233l-0.04233-0.0212h-0.04233l-0.08466-0.0424-0.08467-0.0423-0.02117-0.0212-0.04233-0.0212-0.04233-0.0423-0.04233-0.0212-0.02117-0.0423-0.04233-0.0212-0.04233-0.0847-0.0635-0.0635-0.06351-0.1269v-0.0423l-0.02117-0.0423v-0.0423l-0.02117-0.0423v-0.0847l-0.02117-0.0635v-0.0847l0.02117-0.0423v-0.0847l0.02117-0.0423v-0.0423l0.0635-0.127v-0.0423l0.04233-0.0423 0.02117-0.0423 0.02117-0.0212 0.02117-0.0423 0.04233-0.0423 0.02117-0.0212" fill="#fff"/>
   </g>
  </g>
 </g>
</svg>
