<?xml version="1.0" encoding="UTF-8" standalone="no"?>
<!-- Created with Inkscape (http://www.inkscape.org/) -->

<svg
   width="38.19384mm"
   height="36.739338mm"
   viewBox="0 0 38.19384 36.739338"
   version="1.1"
   id="svg1"
   xmlns="http://www.w3.org/2000/svg"
   xmlns:svg="http://www.w3.org/2000/svg">
  <defs
     id="defs1">
    <clipPath
       clipPathUnits="userSpaceOnUse"
       id="clipPath53">
      <path
         d="m 285.78,203.54 h 5.4 v 39.12 h -5.4 z"
         transform="translate(-290.88001,-242.42001)"
         id="path53" />
    </clipPath>
    <clipPath
       clipPathUnits="userSpaceOnUse"
       id="clipPath55">
      <path
         d="m 285.78,203.54 h 5.4 v 39.12 h -5.4 z"
         transform="translate(-290.88001,-242.42001)"
         id="path55" />
    </clipPath>
    <clipPath
       clipPathUnits="userSpaceOnUse"
       id="clipPath80">
      <path
         d="m 308.4,612.26 h 5.46 v 39.12 h -5.46 z"
         transform="translate(-313.56003,-651.14002)"
         id="path80" />
    </clipPath>
    <clipPath
       clipPathUnits="userSpaceOnUse"
       id="clipPath82">
      <path
         d="m 308.4,612.26 h 5.46 v 39.12 h -5.46 z"
         transform="translate(-313.56003,-651.14002)"
         id="path82" />
    </clipPath>
    <clipPath
       clipPathUnits="userSpaceOnUse"
       id="clipPath53-8">
      <path
         d="m 285.78,203.54 h 5.4 v 39.12 h -5.4 z"
         transform="translate(-290.88001,-242.42001)"
         id="path53-4" />
    </clipPath>
    <clipPath
       clipPathUnits="userSpaceOnUse"
       id="clipPath55-6">
      <path
         d="m 285.78,203.54 h 5.4 v 39.12 h -5.4 z"
         transform="translate(-290.88001,-242.42001)"
         id="path55-8" />
    </clipPath>
    <clipPath
       clipPathUnits="userSpaceOnUse"
       id="clipPath80-9">
      <path
         d="m 308.4,612.26 h 5.46 v 39.12 h -5.46 z"
         transform="translate(-313.56003,-651.14002)"
         id="path80-5" />
    </clipPath>
    <clipPath
       clipPathUnits="userSpaceOnUse"
       id="clipPath82-9">
      <path
         d="m 308.4,612.26 h 5.46 v 39.12 h -5.46 z"
         transform="translate(-313.56003,-651.14002)"
         id="path82-2" />
    </clipPath>
    <clipPath
       clipPathUnits="userSpaceOnUse"
       id="clipPath96">
      <path
         d="m 346.8,418.16 h 5.94 v 43.26 h -5.94 z"
         transform="translate(-352.44003,-461.18001)"
         id="path96" />
    </clipPath>
    <clipPath
       clipPathUnits="userSpaceOnUse"
       id="clipPath98">
      <path
         d="m 346.8,418.16 h 5.94 v 43.26 h -5.94 z"
         transform="translate(-352.44003,-461.18001)"
         id="path98" />
    </clipPath>
    <clipPath
       clipPathUnits="userSpaceOnUse"
       id="clipPath109">
      <path
         d="m 269.52,418.16 h 5.94 v 43.26 h -5.94 z"
         transform="translate(-275.16003,-461.18001)"
         id="path109" />
    </clipPath>
    <clipPath
       clipPathUnits="userSpaceOnUse"
       id="clipPath111">
      <path
         d="m 269.52,418.16 h 5.94 v 43.26 h -5.94 z"
         transform="translate(-275.16003,-461.18001)"
         id="path111" />
    </clipPath>
    <clipPath
       clipPathUnits="userSpaceOnUse"
       id="clipPath96-2">
      <path
         d="m 346.8,418.16 h 5.94 v 43.26 h -5.94 z"
         transform="translate(-352.44003,-461.18001)"
         id="path96-9" />
    </clipPath>
    <clipPath
       clipPathUnits="userSpaceOnUse"
       id="clipPath98-4">
      <path
         d="m 346.8,418.16 h 5.94 v 43.26 h -5.94 z"
         transform="translate(-352.44003,-461.18001)"
         id="path98-2" />
    </clipPath>
    <clipPath
       clipPathUnits="userSpaceOnUse"
       id="clipPath109-5">
      <path
         d="m 269.52,418.16 h 5.94 v 43.26 h -5.94 z"
         transform="translate(-275.16003,-461.18001)"
         id="path109-8" />
    </clipPath>
    <clipPath
       clipPathUnits="userSpaceOnUse"
       id="clipPath111-0">
      <path
         d="m 269.52,418.16 h 5.94 v 43.26 h -5.94 z"
         transform="translate(-275.16003,-461.18001)"
         id="path111-0" />
    </clipPath>
  </defs>
  <g
     id="layer1"
     transform="translate(-51.329151,-70.643749)">
    <path
       id="path94"
       d="m 83.094308,107.34077 h 1.905 V 92.206603 h -1.905 z"
       style="fill:#807d7d;fill-opacity:1;fill-rule:nonzero;stroke:none;stroke-width:0.352778" />
    <path
       id="path95"
       d="M -5.4,0 H 0 v -42.9 h -5.4 z"
       style="fill:none;stroke:#2b2625;stroke-width:0.28;stroke-linecap:round;stroke-linejoin:round;stroke-miterlimit:10;stroke-dasharray:none;stroke-opacity:1"
       transform="matrix(0.35277776,0,0,-0.35277776,84.99932,92.206585)"
       clip-path="url(#clipPath96-2)" />
    <path
       id="path97"
       d="M 0,0 Z"
       style="fill:none;stroke:#2b2625;stroke-width:0.28;stroke-linecap:round;stroke-linejoin:round;stroke-miterlimit:10;stroke-dasharray:none;stroke-opacity:1"
       transform="matrix(0.35277776,0,0,-0.35277776,84.99932,92.206585)"
       clip-path="url(#clipPath98-4)" />
    <path
       id="path99"
       d="m 88.068487,70.743585 h -8.022166 l -1.354667,1.375833 v 20.298833 h 10.7315 V 72.119418 l -1.354667,-1.375833"
       style="fill:#807d7d;fill-opacity:1;fill-rule:evenodd;stroke:#2b2625;stroke-width:0.199672;stroke-linecap:round;stroke-linejoin:round;stroke-miterlimit:10;stroke-dasharray:none;stroke-opacity:1" />
    <path
       id="path100"
       d="m 84.04682,73.558752 h 0.169333 l 0.0635,0.02117 h 0.08467 l 0.0635,0.02117 0.08467,0.02117 0.0635,0.02117 0.0635,0.02117 0.0635,0.04233 0.0635,0.02117 0.254,0.169334 0.148166,0.148166 0.04233,0.0635 0.04233,0.0635 0.04233,0.04233 0.127,0.1905 0.02117,0.08467 0.04233,0.127 0.02117,0.08467 0.02117,0.0635 0.02117,0.08467 v 0.0635 l 0.02117,0.08467 v 0.148167 l -0.02117,0.08467 v 0.08467 l -0.02117,0.0635 -0.02117,0.08467 -0.04233,0.127 -0.02117,0.08467 -0.02117,0.0635 -0.169333,0.254 -0.04233,0.04233 -0.04233,0.0635 -0.148166,0.148167 -0.254,0.169333 -0.0635,0.02117 -0.0635,0.04233 -0.127,0.04233 -0.08467,0.02117 -0.0635,0.02117 -0.08467,0.02117 h -0.4445 l -0.08467,-0.02117 -0.0635,-0.02117 -0.08467,-0.02117 -0.127,-0.04233 -0.08467,-0.04233 -0.0635,-0.02117 -0.0635,-0.04233 -0.04233,-0.04233 -0.127,-0.08467 -0.254,-0.254 -0.08467,-0.127 -0.02117,-0.0635 -0.04233,-0.0635 -0.02117,-0.0635 -0.04233,-0.08467 -0.04233,-0.127 v -0.08467 l -0.02117,-0.0635 v -0.08467 l -0.02117,-0.08467 v -0.148167 l 0.02117,-0.08467 v -0.0635 l 0.02117,-0.08467 v -0.0635 l 0.02117,-0.08467 0.02117,-0.0635 0.04233,-0.0635 0.02117,-0.08467 0.04233,-0.0635 0.02117,-0.0635 0.04233,-0.0635 0.04233,-0.04233 0.04233,-0.0635 0.211667,-0.211666 0.127,-0.08467 0.04233,-0.04233 0.0635,-0.04233 0.0635,-0.02117 0.08467,-0.04233 0.0635,-0.02117 0.0635,-0.02117 0.08467,-0.02117 0.0635,-0.02117 h 0.08467 l 0.0635,-0.02117 h 0.148167"
       style="fill:#807d7d;fill-opacity:1;fill-rule:evenodd;stroke:#2b2625;stroke-width:0.0751417;stroke-linecap:round;stroke-linejoin:round;stroke-miterlimit:10;stroke-dasharray:none;stroke-opacity:1" />
    <path
       id="path101"
       d="m 86.52332,80.670751 h 0.08467 l 0.0635,0.02117 h 0.08467 l 0.0635,0.02117 0.08467,0.02117 h 0.0635 l 0.0635,0.04233 0.08467,0.02117 0.0635,0.02117 0.254,0.169333 0.04233,0.04233 0.0635,0.04233 0.148167,0.148166 0.169333,0.254 0.02117,0.0635 0.04233,0.0635 0.02117,0.0635 0.02117,0.08467 0.02117,0.0635 0.02117,0.08467 v 0.0635 l 0.02117,0.08467 v 0.3175 l -0.02117,0.0635 v 0.08467 l -0.02117,0.0635 -0.02117,0.08467 -0.02117,0.0635 -0.02117,0.0635 -0.04233,0.0635 -0.02117,0.0635 -0.211667,0.3175 -0.0635,0.04233 -0.148166,0.148167 -0.127,0.08467 -0.0635,0.02117 -0.0635,0.04233 -0.0635,0.02117 -0.08467,0.04233 -0.127,0.04233 -0.08467,0.02117 h -0.0635 l -0.08467,0.02117 h -0.296334 l -0.08467,-0.02117 h -0.0635 l -0.08467,-0.02117 -0.0635,-0.02117 -0.08467,-0.02117 -0.0635,-0.04233 -0.0635,-0.02117 -0.0635,-0.04233 -0.0635,-0.02117 -0.127,-0.08467 -0.148166,-0.148167 -0.0635,-0.04233 -0.211667,-0.3175 -0.02117,-0.0635 -0.04233,-0.0635 -0.02117,-0.0635 -0.02117,-0.0635 -0.02117,-0.08467 -0.02117,-0.0635 v -0.08467 l -0.02117,-0.0635 v -0.3175 l 0.02117,-0.08467 v -0.0635 l 0.02117,-0.08467 0.02117,-0.0635 0.02117,-0.08467 0.02117,-0.0635 0.04233,-0.0635 0.02117,-0.0635 0.169333,-0.254 0.148167,-0.148166 0.0635,-0.04233 0.04233,-0.04233 0.254,-0.169333 0.127,-0.04233 0.08467,-0.04233 h 0.0635 l 0.08467,-0.02117 0.0635,-0.02117 h 0.08467 l 0.0635,-0.02117 h 0.08467"
       style="fill:#807d7d;fill-opacity:1;fill-rule:evenodd;stroke:#2b2625;stroke-width:0.0751417;stroke-linecap:round;stroke-linejoin:round;stroke-miterlimit:10;stroke-dasharray:none;stroke-opacity:1" />
    <path
       id="path102"
       d="m 81.591487,80.649585 h 0.148167 l 0.0635,0.02117 h 0.08467 l 0.0635,0.02117 0.08467,0.02117 0.127,0.04233 0.0635,0.04233 0.08467,0.02117 0.0635,0.04233 0.04233,0.04233 0.127,0.08467 0.211667,0.211666 0.04233,0.0635 0.04233,0.04233 0.04233,0.0635 0.02117,0.0635 0.04233,0.0635 0.02117,0.08467 0.02117,0.0635 0.04233,0.0635 0.02117,0.08467 v 0.0635 l 0.02117,0.08467 v 0.0635 l 0.02117,0.08467 v 0.148167 l -0.02117,0.08467 v 0.08467 l -0.02117,0.0635 v 0.08467 l -0.02117,0.0635 -0.04233,0.0635 -0.02117,0.08467 -0.02117,0.0635 -0.04233,0.0635 -0.02117,0.0635 -0.08467,0.127 -0.254,0.254 -0.127,0.08467 -0.04233,0.04233 -0.0635,0.04233 -0.08467,0.02117 -0.0635,0.04233 -0.127,0.04233 -0.08467,0.02117 -0.0635,0.02117 -0.08467,0.02117 h -0.4445 l -0.08467,-0.02117 -0.0635,-0.02117 -0.08467,-0.02117 -0.127,-0.04233 -0.0635,-0.04233 -0.0635,-0.02117 -0.254,-0.169333 -0.148166,-0.148167 -0.04233,-0.0635 -0.04233,-0.04233 -0.08467,-0.127 -0.08467,-0.127 -0.02117,-0.0635 -0.02117,-0.08467 -0.04233,-0.127 -0.02117,-0.08467 -0.02117,-0.0635 v -0.08467 l -0.02117,-0.08467 v -0.148167 l 0.02117,-0.08467 v -0.0635 l 0.02117,-0.08467 0.02117,-0.0635 0.02117,-0.08467 0.02117,-0.0635 0.02117,-0.0635 0.02117,-0.08467 0.04233,-0.0635 0.08467,-0.127 0.04233,-0.04233 0.08467,-0.127 0.148166,-0.148166 0.254,-0.169334 0.0635,-0.02117 0.0635,-0.04233 0.127,-0.04233 0.08467,-0.02117 0.0635,-0.02117 h 0.08467 l 0.0635,-0.02117 h 0.169333"
       style="fill:#319141;fill-opacity:1;fill-rule:evenodd;stroke:#2b2625;stroke-width:0.0751417;stroke-linecap:round;stroke-linejoin:round;stroke-miterlimit:10;stroke-dasharray:none;stroke-opacity:1">
       <animate
          attributeName="fill"
          values="#319141;#807d7d"
          dur="1.5s"
          calcMode="discrete"
          repeatCount="indefinite" />
    </path>
    <path
       id="path107"
       d="m 55.831643,107.34077 h 1.904999 V 92.206603 h -1.904999 z"
       style="fill:#807d7d;fill-opacity:1;fill-rule:nonzero;stroke:none;stroke-width:0.352778" />
    <path
       id="path108"
       d="M -5.4,0 H 0 v -42.9 h -5.4 z"
       style="fill:none;stroke:#2b2625;stroke-width:0.28;stroke-linecap:round;stroke-linejoin:round;stroke-miterlimit:10;stroke-dasharray:none;stroke-opacity:1"
       transform="matrix(0.35277776,0,0,-0.35277776,57.736654,92.206585)"
       clip-path="url(#clipPath109-5)" />
    <path
       id="path110"
       d="M 0,0 Z"
       style="fill:none;stroke:#2b2625;stroke-width:0.28;stroke-linecap:round;stroke-linejoin:round;stroke-miterlimit:10;stroke-dasharray:none;stroke-opacity:1"
       transform="matrix(0.35277776,0,0,-0.35277776,57.736654,92.206585)"
       clip-path="url(#clipPath111-0)" />
    <path
       id="path112"
       d="m 60.80582,70.743585 h -8.022166 l -1.354667,1.375833 V 92.418251 H 62.13932 V 72.119418 l -1.3335,-1.375833"
       style="fill:#807d7d;fill-opacity:1;fill-rule:evenodd;stroke:#2b2625;stroke-width:0.199672;stroke-linecap:round;stroke-linejoin:round;stroke-miterlimit:10;stroke-dasharray:none;stroke-opacity:1" />
    <path
       id="path113"
       d="m 56.784154,73.558752 h 0.169333 l 0.0635,0.02117 h 0.0635 l 0.08467,0.02117 0.0635,0.02117 0.08467,0.02117 0.0635,0.02117 0.0635,0.04233 0.0635,0.02117 0.1905,0.127 0.04233,0.04233 0.0635,0.04233 0.04233,0.0635 0.0635,0.04233 0.04233,0.0635 0.04233,0.0635 0.04233,0.04233 0.08467,0.127 0.02117,0.0635 0.04233,0.08467 0.04233,0.127 0.02117,0.08467 0.02117,0.0635 0.02117,0.08467 v 0.465666 l -0.02117,0.0635 -0.02117,0.08467 -0.04233,0.127 -0.02117,0.08467 -0.04233,0.0635 -0.02117,0.0635 -0.04233,0.0635 -0.08467,0.127 -0.04233,0.04233 -0.04233,0.0635 -0.0635,0.04233 -0.04233,0.0635 -0.0635,0.04233 -0.04233,0.04233 -0.1905,0.127 -0.0635,0.02117 -0.0635,0.04233 -0.0635,0.02117 -0.08467,0.02117 -0.0635,0.02117 -0.08467,0.02117 -0.0635,0.02117 h -0.465666 l -0.0635,-0.02117 -0.08467,-0.02117 -0.127,-0.04233 -0.08467,-0.02117 -0.0635,-0.04233 -0.0635,-0.02117 -0.127,-0.08467 -0.04233,-0.04233 -0.127,-0.08467 -0.04233,-0.0635 -0.0635,-0.04233 -0.04233,-0.0635 -0.04233,-0.04233 -0.08467,-0.127 -0.02117,-0.0635 -0.04233,-0.0635 -0.02117,-0.0635 -0.04233,-0.08467 -0.04233,-0.127 -0.02117,-0.08467 v -0.0635 l -0.02117,-0.08467 v -0.3175 l 0.02117,-0.0635 v -0.08467 l 0.02117,-0.0635 0.02117,-0.08467 0.02117,-0.0635 0.04233,-0.0635 0.02117,-0.08467 0.04233,-0.0635 0.02117,-0.0635 0.04233,-0.0635 0.04233,-0.04233 0.04233,-0.0635 0.04233,-0.0635 0.0635,-0.04233 0.04233,-0.0635 0.127,-0.08467 0.04233,-0.04233 0.127,-0.08467 0.0635,-0.02117 0.0635,-0.04233 0.08467,-0.02117 0.127,-0.04233 0.08467,-0.02117 h 0.0635 l 0.08467,-0.02117 h 0.148167"
       style="fill:#807d7d;fill-opacity:1;fill-rule:evenodd;stroke:#2b2625;stroke-width:0.0751417;stroke-linecap:round;stroke-linejoin:round;stroke-miterlimit:10;stroke-dasharray:none;stroke-opacity:1" />
    <path
       id="path114"
       d="m 54.39232,80.670751 h 0.08467 l 0.0635,0.02117 h 0.08467 l 0.0635,0.02117 0.08467,0.02117 h 0.0635 l 0.0635,0.04233 0.08467,0.02117 0.0635,0.02117 0.1905,0.127 0.04233,0.04233 0.127,0.08467 0.148167,0.148166 0.127,0.1905 0.02117,0.0635 0.04233,0.0635 0.02117,0.0635 0.04233,0.0635 0.02117,0.08467 0.02117,0.0635 0.02117,0.08467 v 0.0635 l 0.02117,0.08467 v 0.3175 l -0.02117,0.0635 v 0.08467 l -0.02117,0.0635 -0.02117,0.08467 -0.02117,0.0635 -0.04233,0.0635 -0.02117,0.0635 -0.04233,0.0635 -0.02117,0.0635 -0.169334,0.254 -0.0635,0.04233 -0.105833,0.105833 -0.0635,0.04233 -0.04233,0.04233 -0.0635,0.04233 -0.0635,0.02117 -0.0635,0.04233 -0.0635,0.02117 -0.08467,0.04233 -0.127,0.04233 -0.08467,0.02117 h -0.0635 l -0.08467,0.02117 h -0.296334 l -0.08467,-0.02117 h -0.0635 l -0.08467,-0.02117 -0.0635,-0.02117 -0.08467,-0.02117 -0.0635,-0.04233 -0.0635,-0.02117 -0.0635,-0.04233 -0.0635,-0.02117 -0.127,-0.08467 -0.148166,-0.148167 -0.0635,-0.04233 -0.211667,-0.3175 -0.02117,-0.0635 -0.04233,-0.0635 -0.02117,-0.0635 -0.02117,-0.0635 -0.02117,-0.08467 -0.02117,-0.0635 -0.02117,-0.08467 v -0.465666 l 0.02117,-0.0635 0.02117,-0.08467 0.02117,-0.0635 0.02117,-0.08467 0.02117,-0.0635 0.04233,-0.0635 0.02117,-0.0635 0.169333,-0.254 0.148167,-0.148166 0.0635,-0.04233 0.04233,-0.04233 0.254,-0.169333 0.127,-0.04233 0.08467,-0.04233 h 0.0635 l 0.08467,-0.02117 0.0635,-0.02117 h 0.08467 l 0.0635,-0.02117 h 0.08467"
       style="fill:#319141;fill-opacity:1;fill-rule:evenodd;stroke:#2b2625;stroke-width:0.0751417;stroke-linecap:round;stroke-linejoin:round;stroke-miterlimit:10;stroke-dasharray:none;stroke-opacity:1" />
    <path
       id="path115"
       d="m 59.260654,80.670751 h 0.0635 l 0.08467,0.02117 h 0.08467 l 0.0635,0.02117 0.08467,0.02117 h 0.0635 l 0.0635,0.04233 0.0635,0.02117 0.08467,0.02117 0.127,0.08467 0.04233,0.04233 0.1905,0.127 0.04233,0.04233 0.04233,0.0635 0.0635,0.04233 0.127,0.1905 0.02117,0.0635 0.04233,0.0635 0.02117,0.0635 0.04233,0.0635 0.02117,0.08467 0.02117,0.0635 v 0.08467 l 0.02117,0.0635 0.02117,0.08467 v 0.3175 l -0.02117,0.0635 -0.02117,0.08467 v 0.0635 l -0.02117,0.08467 -0.02117,0.0635 -0.04233,0.0635 -0.02117,0.0635 -0.04233,0.0635 -0.02117,0.0635 -0.127,0.1905 -0.211667,0.211666 -0.127,0.08467 -0.04233,0.04233 -0.0635,0.02117 -0.0635,0.04233 -0.08467,0.02117 -0.0635,0.04233 -0.127,0.04233 -0.08467,0.02117 h -0.0635 l -0.08467,0.02117 h -0.3175 l -0.0635,-0.02117 h -0.08467 l -0.0635,-0.02117 -0.08467,-0.02117 -0.0635,-0.02117 -0.0635,-0.04233 -0.0635,-0.02117 -0.0635,-0.04233 -0.0635,-0.02117 -0.1905,-0.127 -0.04233,-0.0635 -0.0635,-0.04233 -0.04233,-0.04233 -0.211667,-0.3175 -0.02117,-0.0635 -0.04233,-0.0635 -0.02117,-0.0635 -0.02117,-0.0635 -0.02117,-0.08467 -0.02117,-0.0635 -0.02117,-0.08467 v -0.465666 l 0.02117,-0.0635 0.02117,-0.08467 0.02117,-0.0635 0.02117,-0.08467 0.02117,-0.0635 0.04233,-0.0635 0.02117,-0.0635 0.169333,-0.254 0.04233,-0.04233 0.04233,-0.0635 0.0635,-0.04233 0.04233,-0.04233 0.3175,-0.211666 0.127,-0.04233 0.0635,-0.04233 h 0.08467 l 0.0635,-0.02117 0.08467,-0.02117 h 0.0635 l 0.08467,-0.02117 h 0.08467"
       style="fill:#807d7d;fill-opacity:1;fill-rule:evenodd;stroke:#2b2625;stroke-width:0.0751417;stroke-linecap:round;stroke-linejoin:round;stroke-miterlimit:10;stroke-dasharray:none;stroke-opacity:1" />
  </g>
</svg>
