<?xml version="1.0" encoding="UTF-8"?>
<!-- Created with Inkscape (http://www.inkscape.org/) -->
<svg width="9.8721mm" height="32.527mm" version="1.1" viewBox="0 0 9.8721 32.527" xmlns="http://www.w3.org/2000/svg">
 <defs>
  <clipPath id="clipPath36">
   <path transform="translate(-266.1 -609.02)" d="m261 574.04h5.4v35.22h-5.4z"/>
  </clipPath>
  <clipPath id="clipPath38">
   <path transform="translate(-266.1 -609.02)" d="m261 574.04h5.4v35.22h-5.4z"/>
  </clipPath>
  <clipPath id="clipPath41">
   <path transform="translate(-277.38 -606.86)" d="m249.78 588.26h27.72v18.96h-27.72z"/>
  </clipPath>
  <clipPath id="clipPath43">
   <path transform="translate(-277.38 -606.86)" d="m249.78 588.26h27.72v18.96h-27.72z"/>
  </clipPath>
 </defs>
 <g transform="translate(-62.971 -72.76)">
  <g fill="#fff500">
   <path d="m66.542 74.68 1.0372-1.0372 0.35983 0.35983-1.0372 1.0372-0.35983-0.35983"/>
   <path d="m63.853 73.728 1.0372 1.0372-0.35983 0.35983-1.0372-1.016 0.35983-0.381"/>
   <path d="m63.621 78.194 1.0372-1.0372 0.35983 0.35983-1.0372 1.0372-0.35983-0.35983"/>
   <path d="m66.817 77.199 1.016 1.016-0.35983 0.35983-1.016-1.016 0.35983-0.35983"/>
  </g>
  <g fill="#00923f">
   <path d="m70.965 74.68 1.0372-1.0372 0.35983 0.35983-1.0372 1.0372-0.35983-0.35983"/>
   <path d="m68.277 73.728 1.0372 1.0372-0.35983 0.35983-1.0372-1.016 0.35983-0.381"/>
   <path d="m68.044 78.194 1.016-1.0372 0.35983 0.35983-1.016 1.0372-0.35983-0.35983"/>
   <path d="m71.241 77.199 1.016 1.016-0.35983 0.35983-1.016-1.016 0.35983-0.35983"/>
  </g>
  <g fill="#fff500">
   <path d="m70.965 87.105 1.0372-1.016 0.35983 0.35983-1.0372 1.016-0.35983-0.35983"/>
   <path d="m68.277 86.174 1.0372 1.0372-0.35983 0.35983-1.0372-1.0372 0.35983-0.35983"/>
   <path d="m68.044 90.619 1.016-1.016 0.35983 0.35983-1.016 1.016-0.35983-0.35983"/>
   <path d="m71.241 89.624 1.016 1.0372-0.35983 0.35983-1.016-1.0372 0.35983-0.35983"/>
  </g>
  <path d="m67.05 105.24h1.7145v-12.298h-1.7145z" fill="#848382"/>
  <path transform="matrix(.35278 0 0 -.35278 68.764 92.947)" d="m-4.86 0h4.86v-34.86h-4.86z" clip-path="url(#clipPath36)" fill="none" stroke="#1f1a17" stroke-linecap="round" stroke-linejoin="round" stroke-miterlimit="10" stroke-width=".282"/>
  <path transform="matrix(.35278 0 0 -.35278 68.764 92.947)" d="m0 0z" clip-path="url(#clipPath38)" fill="none" stroke="#1f1a17" stroke-linecap="round" stroke-linejoin="round" stroke-miterlimit="10" stroke-width=".282"/>
  <path d="m63.049 100.12h9.6943v-6.4135h-9.6943z" fill="#848382"/>
  <path transform="matrix(.35278 0 0 -.35278 72.743 93.709)" d="m-27.48 0h27.48v-18.18h-27.48z" clip-path="url(#clipPath41)" fill="none" stroke="#1f1a17" stroke-linecap="round" stroke-linejoin="round" stroke-miterlimit="10" stroke-width=".564"/>
  <path transform="matrix(.35278 0 0 -.35278 72.743 93.709)" d="m0 0z" clip-path="url(#clipPath43)" fill="none" stroke="#1f1a17" stroke-linecap="round" stroke-linejoin="round" stroke-miterlimit="10" stroke-width=".564"/>
  <g fill="#848382" fill-rule="evenodd" stroke="#1f1a17" stroke-linecap="round" stroke-linejoin="round" stroke-miterlimit="10">
   <g stroke-width=".021167">
    <path d="m71.071 94.386h-0.1905l-0.02117 0.02117h-0.04233l-0.02117 0.02117-0.04233 0.02117h-0.02117l-0.04233 0.02117-0.04233 0.04233-0.04233 0.02117c-0.0956 0.08678-0.1143 0.12277-0.1905 0.21167v0.04233l-0.02117 0.02117v0.04233l-0.02117 0.02117v0.04233l-0.02117 0.02117v0.21167l0.02117 0.02117v0.04233l0.02117 0.04233v0.02117l0.02117 0.02117v0.04233l0.04233 0.04233 0.02117 0.04233 0.10584 0.10584 0.02117 0.04233h0.04233l0.04233 0.04233 0.04233 0.02117 0.02117 0.02117h0.04233l0.02117 0.02117h0.04233l0.02117 0.02117h0.08467l0.04233 0.02117c0.18627 0.01235 0.10089-0.02223 0.21167-0.02117h0.02117l0.04233-0.02117h0.04233l0.02117-0.02117h0.04233l0.02117-0.02117 0.04233-0.02117 0.04233-0.04233h0.02117l0.0635-0.0635c0.08043-0.0769 0.06491-0.06421 0.127-0.14817v-0.02117l0.02117-0.04233 0.02117-0.02117v-0.02117l0.02117-0.04233v-0.0635l0.02117-0.04233v-0.127l-0.02117-0.04233v-0.0635l-0.02117-0.02117v-0.04233l-0.02117-0.02117-0.02117-0.04233v-0.02117l-0.02117-0.02117-0.02117-0.04233-0.04234-0.04234c-0.08326-0.09596-0.08008-0.05009-0.14817-0.127l-0.02117-0.02117-0.04233-0.02117h-0.02117l-0.04233-0.02117-0.02117-0.02117h-0.04233l-0.04233-0.02117h-0.16933"/>
    <path d="m69.039 94.386h-0.08467c-0.06879-0.0039-0.1397 0.0035-0.1905 0.04233l-0.04233 0.02117h-0.02117c-0.06914 0.03951-0.11677 0.06703-0.16933 0.127l-0.02117 0.02117-0.04233 0.02117v0.02117l-0.02117 0.02117-0.02117 0.04233-0.04234 0.04234-0.02117 0.04233v0.02117l-0.02117 0.04233v0.02117l-0.02117 0.04233v0.254l0.02117 0.04233v0.04233l0.02117 0.02117v0.02117l0.02117 0.04233 0.04234 0.04234 0.02117 0.04233 0.02117 0.02117v0.02117l0.04233 0.02117 0.04233 0.04233 0.02117 0.04233h0.02117l0.04233 0.02117 0.02117 0.02117 0.04233 0.02117 0.02117 0.02117h0.04233l0.02117 0.02117h0.04233l0.02117 0.02117h0.0635l0.04233 0.02117h0.14817l0.04233-0.02117h0.0635l0.04233-0.02117h0.02117l0.04233-0.02117h0.02117l0.04233-0.02117 0.02117-0.02117 0.04233-0.02117 0.02117-0.02117h0.02117l0.02117-0.04233 0.04233-0.02117 0.08467-0.08467 0.02117-0.04233v-0.02117l0.02117-0.02117 0.02117-0.04233 0.02117-0.02117v-0.0635l0.02117-0.04233v-0.0635l0.02117-0.02117v-0.0635l-0.02117-0.04233v-0.0635l-0.02117-0.04233v-0.0635l-0.02117-0.02117-0.02117-0.04233-0.02117-0.02117v-0.02117l-0.02117-0.04233-0.08467-0.08467-0.04233-0.02117-0.0635-0.0635c-0.09419-0.04304-0.18521-0.10936-0.29633-0.10583h-0.10583"/>
    <path d="m66.944 94.386h-0.16933l-0.02117 0.02117h-0.04233l-0.02117 0.02117-0.04233 0.02117h-0.02117l-0.02117 0.02117-0.04233 0.02117-0.16934 0.16934-0.02117 0.04233-0.02117 0.02117v0.02117l-0.02117 0.04233-0.02117 0.02117v0.04233l-0.02117 0.02117v0.14817l-0.02117 0.02117 0.02117 0.04233v0.02117c7.06e-4 0.07655-0.01129 0.12488 0.04233 0.1905l0.02117 0.04233v0.02117c0.06209 0.08396 0.04657 0.07126 0.127 0.14817l0.02117 0.02117 0.02117 0.04233h0.02117l0.02117 0.02117 0.04233 0.02117 0.04233 0.04233h0.04233l0.02117 0.02117h0.04233l0.02117 0.02117h0.0635l0.04233 0.02117h0.127l0.04233-0.02117h0.0635l0.02117-0.02117h0.04233l0.02117-0.02117h0.02117l0.04233-0.02117 0.04233-0.04233 0.04233-0.02117h0.02117l0.02117-0.04233 0.04233-0.04233c0.0829-0.05927 0.09419-0.15946 0.14817-0.23283v-0.04233l0.02117-0.04233v-0.254l-0.02117-0.04233v-0.02117l-0.02117-0.04233v-0.02117l-0.02117-0.04233-0.02117-0.02117v-0.02117l-0.02117-0.04233-0.14817-0.14817-0.04233-0.02117-0.04233-0.04233h-0.04233l-0.04233-0.04233h-0.04233l-0.02117-0.02117h-0.16933"/>
    <path d="m64.912 94.386h-0.16933l-0.04233 0.02117h-0.02117l-0.04233 0.02117-0.02117 0.02117h-0.02117l-0.04233 0.02117-0.08467 0.08467-0.04233 0.02117-0.0635 0.0635v0.02117l-0.02117 0.04233-0.04234 0.04234v0.04233l-0.02117 0.02117v0.04233l-0.02117 0.02117v0.0635l-0.02117 0.04233v0.127l0.02117 0.04233v0.0635l0.02117 0.04233v0.02117l0.02117 0.02117v0.04233l0.04233 0.04233 0.02117 0.04233v0.02117l0.0635 0.0635 0.04233 0.02117 0.02117 0.04233h0.02117l0.04233 0.04233 0.04233 0.02117 0.02117 0.02117h0.02117l0.04233 0.02117h0.02117l0.04233 0.02117h0.0635l0.02117 0.02117h0.14817l0.02117-0.02117h0.0635l0.04233-0.02117h0.02117l0.04233-0.02117h0.02117l0.02117-0.02117 0.04233-0.02117 0.04233-0.04233h0.02117l0.14817-0.14817v-0.04233l0.04233-0.04233v-0.04233l0.02117-0.02117v-0.02117l0.02117-0.04233v-0.04233l0.02117-0.02117v-0.21167l-0.02117-0.02117v-0.04233l-0.02117-0.02117v-0.04233l-0.02117-0.02117v-0.04233l-0.04234-0.04234v-0.04233l-0.04234-0.04234c-0.08326-0.09596-0.08008-0.05009-0.14817-0.127l-0.02117-0.02117-0.04233-0.02117h-0.02117l-0.02117-0.02117-0.04233-0.02117h-0.02117l-0.04233-0.02117h-0.14817"/>
    <path d="m71.071 97.35h-0.14817l-0.04233 0.02117h-0.02117l-0.04233 0.02117h-0.02117l-0.04233 0.02117-0.02117 0.02117h-0.04233l-0.04233 0.04233-0.04233 0.02117-0.04234 0.04234-0.02117 0.04233-0.02117 0.02117c-0.08537 0.06315-0.15769 0.28187-0.16933 0.381v0.16933l0.02117 0.04233v0.04233l0.02117 0.02117v0.04233l0.02117 0.02117v0.04233l0.02117 0.02117 0.02117 0.04233 0.04234 0.04234 0.02117 0.04233 0.08468 0.08468 0.04233 0.02117 0.04233 0.04233 0.04233 0.02117h0.02117l0.04233 0.02117 0.02117 0.02117h0.04233l0.02117 0.02117h0.08467l0.04233 0.02117h0.127l0.04233-0.02117h0.0635l0.04233-0.02117h0.04233l0.02117-0.02117 0.04233-0.02117h0.02117l0.04233-0.02117 0.0635-0.0635 0.04233-0.02117 0.06351-0.06351 0.02117-0.04233 0.04233-0.04233 0.02117-0.04233v-0.02117l0.02117-0.04233 0.02117-0.02117v-0.04233l0.02117-0.02117v-0.08467l0.02117-0.02117v-0.14817l-0.02117-0.04233v-0.0635l-0.02117-0.04233v-0.02117l-0.02117-0.04233-0.02117-0.02117v-0.04233l-0.02117-0.02117-0.02117-0.04233-0.0635-0.0635-0.02117-0.04233-0.02117-0.02117-0.04233-0.02117-0.0635-0.0635h-0.04233l-0.02117-0.02117-0.04233-0.02117h-0.02117l-0.04233-0.02117h-0.04233l-0.02117-0.02117h-0.14817"/>
    <path d="m69.039 97.35h-0.14817l-0.04233 0.02117h-0.02117l-0.04233 0.02117h-0.02117l-0.04233 0.02117-0.02117 0.02117h-0.04233l-0.02117 0.02117-0.04233 0.02117-0.06351 0.06351-0.02117 0.04233-0.04233 0.02117v0.02117c-0.19685 0.21943-0.21661 0.6223 0 0.84667v0.04233l0.04233 0.02117 0.06351 0.06351c0.05503 0.05186 0.12171 0.08043 0.1905 0.10583l0.02117 0.02117h0.04233l0.02117 0.02117h0.0635l0.04233 0.02117h0.14817l0.04233-0.02117h0.0635l0.04233-0.02117h0.02117l0.04233-0.02117 0.02117-0.02117h0.04233l0.02117-0.02117 0.04233-0.02117 0.06351-0.06351 0.04233-0.02117 0.04234-0.04234 0.02117-0.04233 0.04233-0.04233v-0.04233l0.02117-0.02117 0.02117-0.04233 0.02117-0.02117v-0.0635l0.02117-0.04233v-0.0635l0.02117-0.04233v-0.08467l-0.02117-0.02117v-0.08467l-0.02117-0.02117v-0.0635l-0.02117-0.04233-0.02117-0.02117-0.02117-0.04233v-0.02117l-0.02117-0.04233-0.02117-0.02117c-0.12136-0.139-0.0085-0.02681-0.14817-0.14817l-0.02117-0.02117-0.04233-0.02117h-0.02117l-0.04233-0.02117-0.02117-0.02117h-0.04233l-0.02117-0.02117h-0.04233l-0.04233-0.02117h-0.127"/>
    <path d="m66.944 97.35h-0.127l-0.04233 0.02117h-0.02117l-0.04233 0.02117h-0.02117l-0.04233 0.02117-0.02117 0.02117h-0.02117l-0.04233 0.02117-0.08468 0.08468-0.02117 0.04233-0.0635 0.0635-0.02117 0.04233-0.02117 0.02117v0.04233l-0.02117 0.02117-0.02117 0.04233v0.02117l-0.02117 0.04233v0.127l-0.02117 0.04233 0.02117 0.04233v0.14817l0.02117 0.02117v0.04233l0.02117 0.02117 0.02117 0.04233v0.02117l0.02117 0.04233 0.04233 0.04233 0.02117 0.04233 0.12702 0.12702 0.04233 0.02117 0.02117 0.02117h0.02117l0.04233 0.02117 0.02117 0.02117h0.04233l0.02117 0.02117h0.0635l0.04233 0.02117h0.127l0.04233-0.02117h0.0635l0.02117-0.02117h0.04233l0.04233-0.04233h0.04233l0.04233-0.04233 0.04233-0.02117 0.10585-0.10585 0.02117-0.04233 0.04233-0.04233v-0.04233l0.02117-0.02117 0.02117-0.04233v-0.02117l0.02117-0.04233v-0.02117l0.02117-0.04233v-0.29633l-0.02117-0.02117v-0.04233l-0.02117-0.02117v-0.04233l-0.02117-0.02117-0.02117-0.04233v-0.02117l-0.02117-0.04233-0.0635-0.0635-0.02117-0.04233-0.06351-0.06351c-0.10336-0.06068-0.16298-0.08643-0.27517-0.127h-0.127"/>
    <path d="m64.912 97.35h-0.14817l-0.02117 0.02117h-0.04233l-0.02117 0.02117h-0.04233l-0.04234 0.04234h-0.04233l-0.0635 0.0635-0.04233 0.02117-0.02117 0.02117-0.02117 0.04233-0.04233 0.04233v0.02117l-0.02117 0.04233-0.02117 0.02117-0.02117 0.04233v0.02117l-0.02117 0.04233v0.02117l-0.02117 0.04233v0.0635l-0.02117 0.04233v0.14817l0.02117 0.02117v0.08467l0.02117 0.02117v0.04233l0.02117 0.02117v0.04233l0.02117 0.02117 0.02117 0.04233 0.02117 0.02117v0.02117l0.02117 0.04233 0.06351 0.06351 0.04233 0.02117 0.0635 0.0635 0.04233 0.02117h0.02117l0.02117 0.02117 0.04233 0.02117h0.02117l0.04233 0.02117h0.0635l0.02117 0.02117h0.14817l0.02117-0.02117h0.0635l0.04233-0.02117h0.02117l0.04233-0.02117 0.02117-0.02117h0.02117l0.04233-0.02117 0.0635-0.0635 0.04233-0.02117 0.06351-0.06351 0.02117-0.04233v-0.02117l0.02117-0.02117 0.02117-0.04233 0.02117-0.02117v-0.04233l0.02117-0.02117v-0.04233l0.02117-0.02117v-0.08467l0.02117-0.02117v-0.14817l-0.02117-0.04233v-0.0635l-0.02117-0.04233v-0.02117l-0.02117-0.04233v-0.02117l-0.02117-0.04233-0.02117-0.02117-0.02117-0.04233v-0.02117l-0.04233-0.04233-0.02117-0.04233-0.02117-0.02117-0.04233-0.02117-0.0635-0.0635h-0.04233l-0.04234-0.04234h-0.04233l-0.02117-0.02117h-0.04233l-0.02117-0.02117h-0.127"/>
   </g>
   <path d="m71.516 72.86h-7.2178l-1.2277 1.2277v19.198h9.6732v-19.198l-1.2277-1.2277" stroke-width=".19897"/>
   <g stroke-width=".075494">
    <path d="m70.14 87.19 0.0635 0.02117h0.14817c0.64982 0.12806 1.0851 0.60889 1.143 1.27v0.14817c-0.02293 0.63923-0.57961 1.246-1.2277 1.27l-0.0635 0.02117h-0.127c-1.6976-0.1644-1.7212-2.4934-0.08467-2.7093h0.08467l0.0635-0.02117"/>
    <path d="m65.716 74.765h0.14817c1.6732 0.28363 1.5794 2.5559-0.08467 2.7093h-0.127c-1.6792-0.16051-1.7339-2.461-0.0635-2.7093h0.127"/>
    <path d="m65.758 87.253h0.127l0.0635 0.02117h0.08467c0.30409 0.09102 0.44626 0.16192 0.67733 0.381l0.08467 0.08467c0.16722 0.20955 0.29492 0.46849 0.29633 0.74083l0.02117 0.0635v0.127c-0.06738 0.7052-0.51823 1.1984-1.2277 1.2912h-0.27517c-0.64735-0.08184-1.1458-0.55457-1.2065-1.2065v-0.08467l-0.02117-0.0635 0.02117-0.0635v-0.14817l0.02117-0.0635v-0.0635l0.04234-0.127 0.04233-0.0635 0.02117-0.0635 0.02117-0.04233 0.04233-0.0635 0.02117-0.0635 0.04233-0.04233 0.04233-0.0635 0.04233-0.04233c0.27905-0.26599 0.37677-0.3115 0.74083-0.42333h0.0635l0.0635-0.02117h0.14817"/>
   </g>
  </g>
  <path d="m67.939 81.263h0.0635l0.08467 0.02117c1.626 0.20144 1.6231 2.5418-0.08467 2.7093h-0.127l-0.0635-0.02117h-0.08467l-0.0635-0.02117h-0.0635l-0.1905-0.0635-0.0635-0.04233-0.04233-0.02117-0.0635-0.04233-0.0635-0.02117-0.04233-0.04233-0.0635-0.04233-0.127-0.127c-0.1711-0.20426-0.32103-0.44556-0.33867-0.71967l-0.02117-0.0635v-0.21167c0.01517-0.26494 0.11007-0.53305 0.27517-0.74083l0.04233-0.04233 0.04233-0.0635c0.16475-0.18098 0.47237-0.38594 0.71967-0.40217l0.0635-0.02117h0.08467l0.0635-0.02117z" fill="none" stroke="#1f1a17" stroke-linecap="round" stroke-linejoin="round" stroke-miterlimit="10" stroke-width=".075494"/>
  <path d="m70.14 74.765h0.127c1.6679 0.25823 1.6087 2.5421-0.0635 2.7093h-0.14817c-1.6693-0.17604-1.7237-2.4451-0.0635-2.7093h0.14817" fill="#00923f" fill-rule="evenodd" stroke="#1f1a17" stroke-linecap="round" stroke-linejoin="round" stroke-miterlimit="10" stroke-width=".075494"/>
 </g>
</svg>
