<?xml version="1.0" encoding="UTF-8"?>
<!-- Created with Inkscape (http://www.inkscape.org/) -->
<svg width="9.8933mm" height="32.484mm" version="1.1" viewBox="0 0 9.8933 32.484" xmlns="http://www.w3.org/2000/svg">
 <defs>
  <clipPath id="clipPath126">
   <path transform="translate(-266.1 -251.96)" d="m260.94 217.04h5.46v35.16h-5.46z"/>
  </clipPath>
  <clipPath id="clipPath128">
   <path transform="translate(-266.1 -251.96)" d="m260.94 217.04h5.46v35.16h-5.46z"/>
  </clipPath>
  <clipPath id="clipPath131">
   <path transform="translate(-277.38 -249.86)" d="m249.72 231.2h27.78v19.02h-27.78z"/>
  </clipPath>
  <clipPath id="clipPath133">
   <path transform="translate(-277.38 -249.86)" d="m249.72 231.2h27.78v19.02h-27.78z"/>
  </clipPath>
 </defs>
 <g transform="translate(-58.208 -121.44)">
  <g fill="#00923f">
   <path d="m66.224 123.34 1.016-1.016 0.381 0.35983-1.0372 1.016-0.35983-0.35983"/>
   <path d="m63.536 122.41 1.016 1.0372-0.35983 0.35983-1.0372-1.0372 0.381-0.35983"/>
   <path d="m63.282 126.86 1.0372-1.016 0.35983 0.35983-1.0372 1.016-0.35983-0.35983"/>
   <path d="m66.478 125.86 1.0372 1.0372-0.35983 0.35983-1.0372-1.0372 0.35983-0.35983"/>
  </g>
  <g fill="#fff500">
   <path d="m61.8 123.34 1.016-1.016 0.35983 0.35983-1.016 1.016-0.35983-0.35983"/>
   <path d="m59.091 122.41 1.0372 1.0372-0.35983 0.35983-1.0372-1.0372 0.35983-0.35983"/>
   <path d="m58.858 126.86 1.0372-1.016 0.35983 0.35983-1.0372 1.016-0.35983-0.35983"/>
   <path d="m62.054 125.86 1.0372 1.0372-0.35983 0.35983-1.0372-1.0372 0.35983-0.35983"/>
   <path d="m66.224 135.77 1.016-1.016 0.381 0.35983-1.0372 1.016-0.35983-0.35983"/>
   <path d="m63.536 134.84 1.016 1.0372-0.35983 0.35983-1.0372-1.0372 0.381-0.35983"/>
   <path d="m63.282 139.28 1.0372-1.016 0.35983 0.35983-1.0372 1.016-0.35983-0.35983"/>
   <path d="m66.478 138.29 1.0372 1.0372-0.35983 0.35983-1.0372-1.0372 0.35983-0.35983"/>
  </g>
  <path d="m62.287 153.89h1.7357v-12.277h-1.7357z" fill="#848382"/>
  <path transform="matrix(.35278 0 0 -.35278 64.023 141.61)" d="m-4.92 0h4.92v-34.8h-4.92z" clip-path="url(#clipPath126)" fill="none" stroke="#1f1a17" stroke-linecap="round" stroke-linejoin="round" stroke-miterlimit="10" stroke-width=".282"/>
  <path transform="matrix(.35278 0 0 -.35278 64.023 141.61)" d="m0 0z" clip-path="url(#clipPath128)" fill="none" stroke="#1f1a17" stroke-linecap="round" stroke-linejoin="round" stroke-miterlimit="10" stroke-width=".282"/>
  <path d="m58.287 148.78h9.7155v-6.4347h-9.7155z" fill="#848382"/>
  <path transform="matrix(.35278 0 0 -.35278 68.002 142.35)" d="m-27.54 0h27.54v-18.24h-27.54z" clip-path="url(#clipPath131)" fill="none" stroke="#1f1a17" stroke-linecap="round" stroke-linejoin="round" stroke-miterlimit="10" stroke-width=".564"/>
  <path transform="matrix(.35278 0 0 -.35278 68.002 142.35)" d="m0 0z" clip-path="url(#clipPath133)" fill="none" stroke="#1f1a17" stroke-linecap="round" stroke-linejoin="round" stroke-miterlimit="10" stroke-width=".564"/>
  <g fill="#848382" fill-rule="evenodd" stroke="#1f1a17" stroke-linecap="round" stroke-linejoin="round" stroke-miterlimit="10">
   <g stroke-width=".021167">
    <path d="m66.33 143.03h-0.08467l-0.02117 0.0212h-0.08467l-0.02117 0.0212h-0.04233l-0.02117 0.0212h-0.04233l-0.02117 0.0212-0.04233 0.0212-0.02117 0.0212h-0.04233l-0.0635 0.0635-0.02117 0.0423-0.02117 0.0212-0.04233 0.0212v0.0212l-0.02117 0.0212-0.02117 0.0423-0.04233 0.0423v0.0423l-0.02117 0.0212v0.0635l-0.02117 0.0423v0.21167l0.02117 0.0212v0.0635l0.02117 0.0423v0.0212l0.02117 0.0212 0.02117 0.0423 0.04233 0.0423v0.0423l0.04233 0.0212 0.10583 0.10583 0.04233 0.0212 0.02117 0.0212h0.04233l0.02117 0.0212 0.04233 0.0212h0.02117c0.13758 0.06 0.11077 0.0388 0.254 0.0423h0.14817l0.02117-0.0212h0.04233l0.02117-0.0212h0.04233l0.04233-0.0212 0.02117-0.0212h0.02117l0.04233-0.0212c0.06456-0.0688 0.08784-0.0529 0.16933-0.14817l0.02117-0.0423 0.04233-0.0423v-0.0423l0.04233-0.0423v-0.0423l0.02117-0.0212v-0.0635l0.02117-0.0423v-0.127l-0.02117-0.0423v-0.0635l-0.02117-0.0423v-0.0212l-0.02117-0.0423-0.02117-0.0212v-0.0212l-0.02117-0.0423-0.08467-0.0847-0.02117-0.0423-0.02117-0.0212-0.04233-0.0212-0.02117-0.0212h-0.02117l-0.04233-0.0212-0.04233-0.0423h-0.04233l-0.04233-0.0212h-0.02117l-0.04233-0.0212h-0.0635l-0.04233-0.0212h-0.0635"/>
    <path d="m64.277 143.03h-0.0635l-0.04233 0.0212h-0.04233c-0.04833 8e-3 -0.14288 0.0437-0.1905 0.0635l-0.02117 0.0212-0.04233 0.0212h-0.02117l-0.02117 0.0212-0.04233 0.0212-0.02117 0.0212-0.02117 0.0423-0.08467 0.0847-0.02117 0.0423v0.0212l-0.02117 0.0212-0.02117 0.0423v0.0212l-0.02117 0.0423v0.10583l-0.02117 0.0212v0.0635l0.02117 0.0423v0.10584l0.02117 0.0212v0.0423l0.04233 0.0423v0.0423l0.04234 0.0424 0.02117 0.0423 0.08467 0.0847 0.04233 0.0212 0.04233 0.0423c0.08326 0.0265 0.14887 0.0811 0.23283 0.0847l0.02117 0.0212h0.29633l0.04233-0.0212h0.02117l0.04233-0.0212h0.04233l0.04233-0.0423h0.04233l0.02117-0.0212 0.04233-0.0212 0.08467-0.0847 0.04233-0.0212v-0.0212l0.02117-0.0423c0.08149-0.0688 0.14252-0.23143 0.127-0.33867v-0.16933l-0.02117-0.0212v-0.0423l-0.02117-0.0212v-0.0423l-0.04233-0.0423-0.02117-0.0423-0.04233-0.0423v-0.0212l-0.04233-0.0212-0.02117-0.0423c-0.10336-0.11606-0.04551-0.018-0.16933-0.10583l-0.02117-0.0212h-0.02117l-0.04233-0.0212h-0.04233l-0.02117-0.0212h-0.08467l-0.02117-0.0212h-0.08467"/>
    <path d="m62.181 143.03h-0.0635l-0.04233 0.0212h-0.0635l-0.02117 0.0212h-0.04233l-0.02117 0.0212h-0.02117l-0.04233 0.0212-0.04233 0.0423h-0.04233l-0.02117 0.0212-0.04233 0.0423-0.02117 0.0423-0.08467 0.0847v0.0423l-0.04233 0.0423v0.0423l-0.02117 0.0212v0.0423l-0.02117 0.0212v0.21166c-0.01446 0.0843 0.09278 0.29845 0.14817 0.35984l0.08467 0.0847 0.02117 0.0212 0.04233 0.0212 0.02117 0.0212h0.02117l0.04233 0.0212 0.02117 0.0212h0.02117l0.04233 0.0212h0.02117l0.04233 0.0212h0.27517l0.02117-0.0212h0.04233l0.02117-0.0212h0.02117l0.04233-0.0212 0.02117-0.0212h0.02117l0.04233-0.0212 0.04234-0.0424 0.10583-0.10583 0.02117-0.0423 0.04233-0.0423 0.02117-0.0423v-0.0212l0.02117-0.0212v-0.0423l0.02117-0.0212v-0.10584l0.02117-0.0423v-0.0635l-0.02117-0.0212v-0.10583l-0.02117-0.0423v-0.0212l-0.02117-0.0423v-0.0212l-0.02117-0.0212-0.02117-0.0423-0.08467-0.0847-0.02117-0.0423-0.04233-0.0423-0.02117-0.0212h-0.02117l-0.04233-0.0212-0.04233-0.0423h-0.04233l-0.02117-0.0212h-0.02117l-0.04233-0.0212h-0.0635l-0.04233-0.0212h-0.0635"/>
    <path d="m60.149 143.03h-0.0635l-0.04233 0.0212h-0.0635l-0.04233 0.0212h-0.02117l-0.02117 0.0212h-0.04233l-0.02117 0.0212-0.04233 0.0212-0.02117 0.0212h-0.02117l-0.10583 0.10583v0.0212l-0.02117 0.0212-0.04233 0.0423-0.02117 0.0423-0.02117 0.0212v0.0212l-0.02117 0.0423v0.0212l-0.02117 0.0423v0.0635l-0.02117 0.0423v0.127l0.02117 0.0423c0.0049 0.0864 0.03669 0.1905 0.10583 0.254l0.02117 0.0423 0.02117 0.0212v0.0212l0.04233 0.0212 0.10583 0.10583h0.04233l0.02117 0.0212 0.04233 0.0212h0.02117l0.02117 0.0212h0.04233l0.02117 0.0212h0.27517c0.21555-0.0857 0.2981-0.10971 0.4445-0.3175v-0.0212l0.02117-0.0423 0.02117-0.0212v-0.0212l0.02117-0.0423c-0.0074-0.1651 0.02999 0.037 0.02117-0.1905v-0.10583l-0.02117-0.0423v-0.0635l-0.02117-0.0212v-0.0423l-0.04233-0.0423v-0.0423l-0.04234-0.0424c-0.07691-0.0681-0.03104-0.0649-0.127-0.14817h-0.04233l-0.04234-0.0424-0.04233-0.0212h-0.02117l-0.04233-0.0212h-0.02117l-0.02117-0.0212h-0.0635l-0.04233-0.0212h-0.0635"/>
    <path d="m66.33 145.99h-0.10583l-0.04233 0.0212h-0.04233l-0.02117 0.0212h-0.04233l-0.02117 0.0212h-0.04233l-0.02117 0.0212-0.04233 0.0212-0.02117 0.0212-0.04233 0.0212-0.14817 0.14816v0.0212l-0.02117 0.0212-0.02117 0.0423-0.02117 0.0212-0.02117 0.0423v0.0212l-0.02117 0.0423v0.0635l-0.02117 0.0423v0.21167l0.02117 0.0212v0.0847l0.02117 0.0212v0.0423l0.02117 0.0212 0.02117 0.0423 0.04233 0.0423v0.0423l0.04233 0.0212 0.0635 0.0635 0.02117 0.0423h0.02117l0.04233 0.0212 0.02117 0.0212 0.04233 0.0212c0.04904 0.0557 0.13088 0.0476 0.1905 0.0847h0.0635 0.23283l0.02117-0.0212h0.04233l0.02117-0.0212h0.04233c0.06279-0.0222 0.10372-0.0984 0.16933-0.10583l0.0635-0.0635c0.09596-0.0833 0.05009-0.0801 0.127-0.14817v-0.0423l0.02117-0.0212 0.02117-0.0423v-0.0212l0.02117-0.0423v-0.0635l0.02117-0.0423v-0.14817l-0.02117-0.0212v-0.0847l-0.02117-0.0212v-0.0423l-0.02117-0.0212-0.02117-0.0423v-0.0212l-0.02117-0.0423-0.04233-0.0423-0.02117-0.0423c-0.08325-0.096-0.08008-0.0501-0.14817-0.127l-0.04233-0.0212-0.04233-0.0423h-0.04233l-0.04233-0.0212h-0.02117l-0.04233-0.0212h-0.02117l-0.04233-0.0212h-0.10583"/>
    <path d="m64.277 145.99h-0.10583l-0.04233 0.0212c-0.04833 8e-3 -0.14288 0.0437-0.1905 0.0635l-0.02117 0.0212-0.04233 0.0212c-0.06809 0.0769-0.06491 0.031-0.14817 0.127l-0.02117 0.0423-0.04233 0.0423-0.02117 0.0423v0.0212l-0.02117 0.0423-0.02117 0.0212v0.0423l-0.02117 0.0212v0.10583c-0.06385 0.10795 0.01729 0.10689 0 0.21167v0.0423l0.02117 0.0423v0.0212l0.02117 0.0423 0.02117 0.0212v0.0423c0.07691 0.0681 0.03104 0.0649 0.127 0.14817l0.0635 0.0635h0.02117l0.02117 0.0212 0.04233 0.0212 0.02117 0.0212 0.04233 0.0212 0.02117 0.0212h0.04233l0.02117 0.0212h0.04233l0.02117 0.0212h0.23283 0.0635l0.04233-0.0212h0.02117l0.04233-0.0212h0.04233l0.04233-0.0423 0.04233-0.0212 0.02117-0.0212 0.04233-0.0212h0.02117l0.02117-0.0423 0.04233-0.0423 0.04233-0.0212v-0.0212l0.02117-0.0423 0.04233-0.0423 0.02117-0.0423 0.02117-0.0212v-0.0423l0.02117-0.0212v-0.0423l0.02117-0.0423v-0.16934c0.01517-0.10689-0.05327-0.28504-0.127-0.35983l-0.02117-0.0212v-0.0423l-0.04233-0.0212c-0.12841-0.14605-0.30339-0.21907-0.48683-0.23283h-0.04233"/>
    <path d="m62.181 145.99h-0.10583l-0.02117 0.0212h-0.04233l-0.02117 0.0212h-0.04233l-0.02117 0.0212h-0.02117l-0.04233 0.0212-0.04233 0.0423-0.04233 0.0212-0.02117 0.0212-0.08467 0.0847-0.02117 0.0423-0.04233 0.0423v0.0423l-0.02117 0.0212-0.02117 0.0423v0.0212l-0.02117 0.0423v0.0212l-0.02117 0.0423v0.27517l0.02117 0.0423v0.0423l0.02117 0.0212v0.0423l0.02117 0.0212 0.02117 0.0423v0.0212l0.02117 0.0212 0.02117 0.0423 0.08467 0.0847 0.02117 0.0423h0.02117l0.04233 0.0212c0.06879 0.0815 0.23142 0.14252 0.33867 0.127h0.16933l0.02117-0.0212h0.04233l0.02117-0.0212h0.02117l0.04233-0.0212 0.04233-0.0423 0.04233-0.0212 0.02117-0.0212h0.02117l0.02117-0.0423 0.08467-0.0847 0.02117-0.0423 0.04233-0.0423 0.02117-0.0423v-0.0212l0.02117-0.0423v-0.0212l0.02117-0.0423v-0.10583l0.02117-0.0423v-0.0635l-0.02117-0.0423v-0.10583l-0.02117-0.0212v-0.0423l-0.02117-0.0212v-0.0423c-0.06315-0.078-0.11183-0.16616-0.1905-0.23284l-0.04234-0.0424-0.04233-0.0212-0.04233-0.0423h-0.04233l-0.02117-0.0212h-0.02117l-0.04233-0.0212h-0.02117l-0.04233-0.0212h-0.10583"/>
    <path d="m60.149 145.99h-0.10583c-0.09313 0.0448-0.19967 0.0497-0.27517 0.127l-0.08467 0.0847-0.04233 0.0212-0.02117 0.0212v0.0423l-0.04234 0.0424-0.02117 0.0423-0.02117 0.0212v0.0423l-0.02117 0.0212v0.0423l-0.02117 0.0212v0.0847l-0.02117 0.0212v0.14817l0.02117 0.0423v0.0635l0.02117 0.0423v0.0212l0.02117 0.0423v0.0212l0.02117 0.0423 0.04233 0.0423 0.02117 0.0423v0.0212l0.02117 0.0212 0.04233 0.0212 0.02117 0.0212 0.02117 0.0423h0.02117l0.04233 0.0423 0.04233 0.0212 0.04233 0.0423h0.04233l0.02117 0.0212h0.04233l0.02117 0.0212h0.27517l0.04233-0.0212h0.02117l0.02117-0.0212h0.04233l0.02117-0.0212 0.04233-0.0212 0.02117-0.0212 0.04233-0.0423h0.04233l0.02117-0.0423 0.08467-0.0847 0.02117-0.0423 0.02117-0.0212v-0.0212l0.02117-0.0423 0.02117-0.0212v-0.0423l0.02117-0.0212v-0.0847l0.02117-0.0212v-0.21167l-0.02117-0.0423v-0.0635l-0.02117-0.0423v-0.0212l-0.02117-0.0423-0.02117-0.0212v-0.0423l-0.04233-0.0423-0.02117-0.0423-0.08467-0.0847-0.04233-0.0212-0.04233-0.0423-0.02117-0.0212-0.04233-0.0212h-0.02117l-0.04233-0.0212h-0.02117l-0.02117-0.0212h-0.04233l-0.04233-0.0212h-0.08467"/>
   </g>
   <path d="m66.774 121.54h-7.239l-1.2277 1.2277v19.177h9.6943v-19.177l-1.2277-1.2277" stroke-width=".19897"/>
  </g>
  <g fill-rule="evenodd" stroke="#1f1a17" stroke-linecap="round" stroke-linejoin="round" stroke-miterlimit="10" stroke-width=".075494">
   <path d="m60.996 135.87h0.21167c0.63676 0.13123 1.0929 0.61277 1.143 1.27v0.14817c-0.02293 0.63923-0.57961 1.246-1.2277 1.27l-0.0635 0.0212h-0.14817l-0.0635-0.0212c-0.62089-0.0367-1.168-0.58844-1.2065-1.2065v-0.127c-0.01094-0.71191 0.46355-1.2114 1.143-1.3547h0.21167" fill="#fff500"/>
   <path d="m60.954 123.45h0.14817l0.0635 0.0212h0.0635c0.18944 0.0448 0.60431 0.21449 0.6985 0.381l0.08467 0.0847c0.16686 0.22754 0.28293 0.42757 0.29633 0.71967l0.02117 0.0635v0.14817l-0.02117 0.0635c0.0046 0.27587-0.1397 0.52528-0.29633 0.74083l-0.08467 0.0847c-0.20849 0.19967-0.47061 0.35277-0.762 0.381h-0.0635l-0.0635 0.0212h-0.14817l-0.0635-0.0212c-0.60431 2e-3 -1.1737-0.6029-1.2277-1.2065v-0.127c-0.01058-0.65053 0.51611-1.2735 1.1642-1.3335l0.0635-0.0212h0.127" fill="#848382"/>
   <path d="m65.272 135.92h0.08467l0.0635 0.0212c1.6612 0.1972 1.6041 2.558-0.0635 2.6882h-0.14817c-1.6842-0.13652-1.7286-2.4917-0.0635-2.6882l0.0635-0.0212h0.0635" fill="#848382"/>
  </g>
  <path d="m63.197 129.95h0.127l0.0635 0.0212c0.6283 0.0589 1.1426 0.64029 1.1642 1.27v0.1905c-0.03704 0.27375-0.13688 0.53163-0.3175 0.74083l-0.08467 0.0847c-0.16792 0.18909-0.50906 0.37676-0.762 0.381l-0.0635 0.0212h-0.21166c-1.6739-0.1785-1.7272-2.4504-0.0635-2.7093z" fill="none" stroke="#1f1a17" stroke-linecap="round" stroke-linejoin="round" stroke-miterlimit="10" stroke-width=".075494"/>
  <path d="m65.377 123.45h0.14817l0.0635 0.0212h0.0635c0.18944 0.0448 0.60431 0.21449 0.6985 0.381l0.08467 0.0847c0.16686 0.22754 0.28293 0.42757 0.29633 0.71967l0.02117 0.0635v0.14817l-0.02117 0.0635c0.0046 0.27622-0.1397 0.52528-0.29633 0.74083l-0.08467 0.0847c-0.20849 0.19967-0.47061 0.35277-0.762 0.381h-0.0635l-0.0635 0.0212h-0.14817l-0.0635-0.0212c-0.60431 4e-3 -1.1793-0.60396-1.2277-1.2065v-0.127c-0.01482-0.64947 0.51541-1.2753 1.1642-1.3335l0.0635-0.0212h0.127" fill="#00923f" fill-rule="evenodd" stroke="#1f1a17" stroke-linecap="round" stroke-linejoin="round" stroke-miterlimit="10" stroke-width=".075494"/>
 </g>
</svg>
