<?xml version="1.0" encoding="UTF-8"?>
<!-- Created with Inkscape (http://www.inkscape.org/) -->
<svg width="9.8933mm" height="32.534mm" version="1.1" viewBox="0 0 9.8933 32.534" xmlns="http://www.w3.org/2000/svg">
 <defs>
  <clipPath id="clipPath548">
   <path transform="translate(-2.5e-5 2.5e-5)" d="m249.71 588.33h27.78v18.96h-27.78z"/>
  </clipPath>
 </defs>
 <g transform="translate(-53.446 -79.904)">
  <g fill="#f4f015">
   <path d="m57.038 81.824 1.016-1.0372 0.35983 0.35983-1.016 1.0372-0.35983-0.35983"/>
   <path d="m54.328 80.871 1.0372 1.0372-0.35983 0.35983-1.0372-1.016 0.35983-0.381"/>
   <path d="m54.095 85.338 1.0372-1.0372 0.35983 0.35983-1.0372 1.0372-0.35983-0.35983"/>
   <path d="m57.291 84.343 1.0372 1.016-0.35983 0.35983-1.0372-1.016 0.35983-0.35983"/>
   <path d="m61.462 94.249 1.016-1.016 0.381 0.35983-1.0372 1.016-0.35983-0.35983"/>
   <path d="m58.773 93.317 1.016 1.0372-0.35983 0.35983-1.0372-1.0372 0.381-0.35983"/>
   <path d="m58.519 97.762 1.0372-1.016 0.35983 0.35983-1.0372 1.016-0.35983-0.35983"/>
   <path d="m61.716 96.768 1.0372 1.0372-0.35983 0.35983-1.0372-1.0372 0.35983-0.35983"/>
  </g>
  <g fill="#299540">
   <path d="m61.462 81.824 1.016-1.0372 0.381 0.35983-1.0372 1.0372-0.35983-0.35983"/>
   <path d="m58.773 80.871 1.016 1.0372-0.35983 0.35983-1.0372-1.016 0.381-0.381"/>
   <path d="m58.519 85.338 1.0372-1.0372 0.35983 0.35983-1.0372 1.0372-0.35983-0.35983"/>
   <path d="m61.716 84.343 1.0372 1.016-0.35983 0.35983-1.0372-1.016 0.35983-0.35983"/>
  </g>
  <path d="m57.525 112.39h1.7357v-12.298h-1.7357z" fill="#7e7e7e"/>
  <path d="m57.525 100.09h1.7357v12.298h-1.7357zm1.7357 0z" fill="none" stroke="#1e1917" stroke-linecap="round" stroke-linejoin="round" stroke-miterlimit="10" stroke-width=".099483"/>
  <path d="m53.524 107.27h9.7155v-6.4135h-9.7155z" fill="#7e7e7e"/>
  <path transform="matrix(.35278 0 0 -.35278 -34.611 314.96)" d="m249.83 606.93h27.54v-18.18h-27.54zm27.541 0z" clip-path="url(#clipPath548)" fill="none" stroke="#1e1917" stroke-linecap="round" stroke-linejoin="round" stroke-miterlimit="10" stroke-width=".564"/>
  <g fill="#7e7e7e" fill-rule="evenodd" stroke="#1e1917" stroke-linecap="round" stroke-linejoin="round" stroke-miterlimit="10">
   <g stroke-width=".021167">
    <path d="m61.567 101.53h-0.08467c-0.06844-4e-3 -0.1397 4e-3 -0.1905 0.0423l-0.04233 0.0212h-0.02117c-0.09031 0.0501-0.12136 0.0741-0.1905 0.14817l-0.02117 0.0212-0.04233 0.0212v0.0212l-0.02117 0.0423-0.04234 0.0424-0.02117 0.0423v0.0212l-0.02117 0.0423v0.0635l-0.02117 0.0212v0.21167l0.02117 0.0212v0.0847l0.02117 0.0212v0.0212l0.02117 0.0423 0.04233 0.0423 0.02117 0.0423v0.0212l0.04233 0.0212 0.0635 0.0635 0.02117 0.0423h0.02117l0.04233 0.0212 0.02117 0.0212 0.04233 0.0212 0.02117 0.0212h0.04233l0.02117 0.0212h0.04233l0.02117 0.0212h0.08467l0.02117 0.0212c0.17427 6e-3 0.09878-2e-3 0.23283-0.0212h0.02117l0.04233-0.0212h0.02117l0.04233-0.0212h0.04233l0.04233-0.0423 0.04233-0.0212 0.02117-0.0212h0.02117l0.0635-0.0635c0.08043-0.0769 0.06491-0.0642 0.127-0.14816v-0.0212l0.02117-0.0423 0.02117-0.0212v-0.0212l0.02117-0.0423v-0.0635l0.02117-0.0423v-0.127l-0.02117-0.0423v-0.0635l-0.02117-0.0212v-0.0423l-0.02117-0.0212-0.02117-0.0423v-0.0212l-0.02117-0.0212-0.02117-0.0423-0.02117-0.0212c-0.11536-0.1203-0.29633-0.25329-0.46567-0.254h-0.10583"/>
    <path d="m59.514 101.53h-0.16933l-0.04233 0.0212h-0.02117l-0.04233 0.0212-0.02117 0.0212h-0.04233l-0.02117 0.0212-0.04233 0.0212c-0.06809 0.0769-0.06491 0.031-0.14817 0.127l-0.04233 0.0423-0.02117 0.0423-0.02117 0.0212v0.0212l-0.02117 0.0423-0.02117 0.0212v0.0423l-0.02117 0.0212v0.10584l-0.02117 0.0423v0.0635l0.02117 0.0212v0.10583l0.02117 0.0423v0.0212l0.02117 0.0212 0.02117 0.0423v0.0212c0.06209 0.084 0.04657 0.0713 0.127 0.14816l0.0635 0.0635h0.02117l0.02117 0.0212 0.04233 0.0212 0.02117 0.0212 0.04233 0.0212h0.02117l0.04233 0.0212h0.02117l0.04233 0.0212h0.02117c0.11959 0.0187 0.08925 0.0261 0.23283 0.0212l0.02117-0.0212h0.08467l0.02117-0.0212h0.04233l0.04233-0.0212h0.02117l0.02117-0.0212 0.04233-0.0212 0.02117-0.0212 0.04233-0.0212h0.02117l0.02117-0.0423 0.04233-0.0423 0.04233-0.0212v-0.0212l0.02117-0.0212 0.02117-0.0423 0.04233-0.0423 0.02117-0.0423v-0.0212l0.02117-0.0212v-0.0423l0.02117-0.0423v-0.254l-0.02117-0.0423v-0.0212l-0.02117-0.0423v-0.0212l-0.02117-0.0423-0.04234-0.0424-0.02117-0.0423-0.02117-0.0212v-0.0212l-0.04233-0.0212-0.02117-0.0212c-0.05256-0.06-0.10019-0.0875-0.16933-0.127h-0.02117l-0.02117-0.0212c-0.07055-0.0293-0.13194-0.0497-0.21167-0.0423h-0.08467"/>
    <path d="m57.418 101.53h-0.16933l-0.02117 0.0212h-0.04233l-0.04233 0.0423h-0.04233l-0.04233 0.0423-0.04233 0.0212-0.14817 0.14817-0.02117 0.0423v0.0212l-0.02117 0.0212-0.02117 0.0423v0.0212l-0.02117 0.0423v0.0212l-0.02117 0.0423v0.254l0.02117 0.0423v0.0423c0.05398 0.0734 0.06526 0.17357 0.14817 0.23284l0.04233 0.0423 0.02117 0.0423h0.02117l0.04233 0.0212 0.04233 0.0423 0.04233 0.0212h0.02117l0.02117 0.0212h0.04233l0.02117 0.0212h0.0635l0.04233 0.0212h0.127l0.04233-0.0212h0.0635l0.04233-0.0212h0.02117l0.02117-0.0212h0.04233l0.04233-0.0423 0.04233-0.0212 0.02117-0.0212h0.02117l0.02117-0.0423 0.10583-0.10583 0.02117-0.0423 0.04233-0.0423v-0.0423l0.02117-0.0212v-0.0212l0.02117-0.0423v-0.10583l0.02117-0.0212v-0.0635l-0.02117-0.0423v-0.10584l-0.02117-0.0212v-0.0423l-0.02117-0.0212v-0.0423c-0.0762-0.0889-0.0949-0.12488-0.1905-0.21166l-0.04233-0.0423-0.04233-0.0212-0.02117-0.0212h-0.02117l-0.04233-0.0212-0.02117-0.0212h-0.02117l-0.04233-0.0212h-0.16933"/>
    <path d="m55.386 101.53h-0.16933l-0.04233 0.0212h-0.02117l-0.02117 0.0212-0.04233 0.0212h-0.02117l-0.04233 0.0212-0.10583 0.10583-0.04233 0.0212v0.0212l-0.04233 0.0423-0.02117 0.0423-0.04233 0.0423v0.0423l-0.02117 0.0212v0.0423l-0.02117 0.0212v0.0635l-0.02117 0.0423v0.127l0.02117 0.0423v0.0635l0.02117 0.0423v0.0212l0.02117 0.0212v0.0423l0.04233 0.0423 0.02117 0.0423 0.04233 0.0423v0.0212l0.04233 0.0212 0.02117 0.0212 0.02117 0.0423h0.02117l0.04233 0.0423 0.04233 0.0212 0.02117 0.0212h0.04233l0.02117 0.0212h0.02117l0.04233 0.0212h0.0635l0.04233 0.0212h0.127l0.04233-0.0212h0.0635l0.02117-0.0212h0.02117l0.04233-0.0212h0.02117l0.04233-0.0212 0.04234-0.0424 0.04233-0.0212h0.02117l0.02117-0.0423 0.04233-0.0423c0.0829-0.0593 0.09419-0.15946 0.14817-0.23284v-0.0847l0.02117-0.0212v-0.21167l-0.02117-0.0212v-0.0635l-0.02117-0.0423v-0.0212l-0.02117-0.0423-0.02117-0.0212v-0.0212l-0.02117-0.0423-0.14817-0.14817-0.04233-0.0212-0.04234-0.0424h-0.04233l-0.02117-0.0212-0.04233-0.0212h-0.02117l-0.02117-0.0212h-0.16933"/>
    <path d="m61.567 104.49h-0.14817l-0.04233 0.0212h-0.02117l-0.04233 0.0212h-0.02117l-0.04233 0.0212-0.02117 0.0212h-0.04233l-0.02117 0.0212-0.04233 0.0212-0.0635 0.0635-0.02117 0.0423-0.02117 0.0212-0.04233 0.0212v0.0212l-0.02117 0.0423-0.02117 0.0212-0.02117 0.0423-0.02117 0.0212v0.0423l-0.02117 0.0212v0.0635l-0.02117 0.0423v0.21166l0.02117 0.0423v0.0635l0.02117 0.0423v0.0212l0.02117 0.0423 0.02117 0.0212 0.02117 0.0423 0.02117 0.0212v0.0212l0.04233 0.0423 0.02117 0.0212 0.08467 0.0847 0.04233 0.0212 0.02117 0.0212 0.04233 0.0212h0.02117l0.04233 0.0212 0.02117 0.0212h0.04233l0.02117 0.0212h0.08467l0.02117 0.0212h0.14817l0.04233-0.0212h0.0635l0.04233-0.0212h0.02117l0.08467-0.0423h0.02117l0.02117-0.0212 0.04233-0.0212 0.04234-0.0424 0.04233-0.0212 0.02117-0.0212 0.04233-0.0423 0.02117-0.0423 0.04233-0.0423 0.02117-0.0423v-0.0212l0.02117-0.0423 0.02117-0.0212v-0.0423l0.02117-0.0212v-0.0847l0.02117-0.0212v-0.14817l-0.02117-0.0423v-0.0635l-0.02117-0.0423v-0.0212l-0.02117-0.0423-0.02117-0.0212v-0.0423l-0.02117-0.0212-0.02117-0.0423-0.0635-0.0635-0.02117-0.0423-0.02117-0.0212-0.04233-0.0212-0.04233-0.0423-0.04233-0.0212h-0.02117l-0.02117-0.0212-0.04233-0.0212h-0.04233l-0.02117-0.0212h-0.04233l-0.02117-0.0212h-0.14817"/>
    <path d="m59.514 104.49h-0.14817l-0.02117 0.0212h-0.04233l-0.02117 0.0212h-0.04233l-0.02117 0.0212-0.04233 0.0212h-0.02117l-0.04233 0.0212-0.04233 0.0423-0.04233 0.0212-0.02117 0.0212-0.02117 0.0423-0.0635 0.0635-0.02117 0.0423-0.02117 0.0212v0.0423l-0.02117 0.0212-0.02117 0.0423v0.0212l-0.02117 0.0423v0.10583l-0.02117 0.0212v0.0847l0.02117 0.0423v0.10583l0.02117 0.0212v0.0423l0.02117 0.0212 0.02117 0.0423v0.0212l0.02117 0.0423 0.02117 0.0212c0.0441 0.0526 0.07585 0.12488 0.14817 0.14816l0.04234 0.0424 0.04233 0.0212 0.02117 0.0212h0.04233l0.02117 0.0212 0.04233 0.0212h0.02117l0.04233 0.0212h0.0635l0.04233 0.0212h0.04233c0.2346 9e-3 0.0078-0.0293 0.21167-0.0212l0.02117-0.0212h0.04233c0.0702-0.0452 0.14887-0.067 0.21167-0.127l0.0635-0.0635 0.04233-0.0212v-0.0423c0.21661-0.22436 0.19685-0.62724 0-0.84666v-0.0212l-0.04233-0.0212-0.02117-0.0423-0.0635-0.0635-0.04233-0.0212-0.02117-0.0212h-0.04233l-0.04234-0.0424h-0.04233l-0.04233-0.0212h-0.02117l-0.04233-0.0212h-0.14817"/>
    <path d="m57.418 104.49h-0.127c-0.12206 0.0487-0.24765 0.0857-0.33867 0.1905l-0.02117 0.0423-0.0635 0.0635-0.02117 0.0423v0.0212l-0.02117 0.0423-0.02117 0.0212v0.0423l-0.02117 0.0212v0.0423l-0.02117 0.0212v0.29634l0.02117 0.0423v0.0212l0.02117 0.0423v0.0212l0.02117 0.0423 0.02117 0.0212v0.0423l0.04233 0.0423 0.02117 0.0423 0.0635 0.0635 0.04234 0.0424 0.04233 0.0212 0.04233 0.0423h0.04233l0.04233 0.0423h0.04233l0.02117 0.0212h0.0635l0.04233 0.0212h0.127l0.04233-0.0212h0.0635l0.04233-0.0212h0.02117l0.02117-0.0212 0.04233-0.0212h0.02117l0.02117-0.0212 0.04233-0.0212 0.04233-0.0423 0.02117-0.0212 0.04233-0.0423c0.09631-0.11536 0.1718-0.23283 0.16933-0.381v-0.0212l0.02117-0.0423v-0.0847l-0.02117-0.0212v-0.10583l-0.02117-0.0423v-0.0212l-0.02117-0.0423v-0.0212l-0.02117-0.0423-0.02117-0.0212-0.02117-0.0423-0.0635-0.0635-0.02117-0.0423-0.04234-0.0424-0.04233-0.0423-0.04233-0.0212h-0.02117l-0.02117-0.0212-0.04233-0.0212h-0.02117l-0.02117-0.0212h-0.04233l-0.02117-0.0212h-0.14817"/>
    <path d="m55.386 104.49h-0.14817l-0.02117 0.0212h-0.04233l-0.02117 0.0212h-0.04233l-0.04234 0.0424h-0.04233l-0.16933 0.16933v0.0212l-0.02117 0.0212-0.02117 0.0423-0.02117 0.0212-0.02117 0.0423v0.0212l-0.02117 0.0423v0.0212l-0.02117 0.0423v0.0635l-0.02117 0.0423v0.14817l0.02117 0.0212v0.0847l0.02117 0.0212v0.0423l0.02117 0.0212v0.0423l0.02117 0.0212 0.02117 0.0423 0.04233 0.0423v0.0423l0.02117 0.0212 0.04233 0.0212 0.10583 0.10583 0.04233 0.0212h0.02117l0.02117 0.0212 0.04233 0.0212h0.02117l0.04233 0.0212h0.0635l0.02117 0.0212h0.14817l0.02117-0.0212h0.08467l0.02117-0.0212h0.02117l0.04233-0.0212 0.02117-0.0212h0.04233l0.06351-0.0636 0.04233-0.0212 0.08467-0.0847 0.02117-0.0423 0.04234-0.0424v-0.0423l0.02117-0.0212 0.02117-0.0423v-0.0212l0.02117-0.0423v-0.0635l0.02117-0.0423v-0.21166l-0.02117-0.0423v-0.0635l-0.02117-0.0212v-0.0423l-0.02117-0.0212-0.02117-0.0423v-0.0212l-0.02117-0.0423-0.0635-0.0635-0.02117-0.0423-0.04233-0.0423-0.04233-0.0212-0.04234-0.0424h-0.02117l-0.04233-0.0212-0.02117-0.0212h-0.04233l-0.02117-0.0212h-0.02117l-0.04233-0.0212h-0.127"/>
   </g>
   <path d="m62.012 80.004h-7.239l-1.2277 1.2277v19.198h9.6943v-19.198l-1.2277-1.2277" stroke-width=".19897"/>
   <path d="m60.636 94.333 0.0635 0.02117h0.127c0.62406 0.08749 1.1328 0.63641 1.1642 1.27v0.14817c-0.02293 0.64382-0.58244 1.2404-1.2277 1.27l-0.0635 0.02117h-0.14817l-0.0635-0.02117c-0.61489-0.0314-1.1811-0.59161-1.2065-1.2065l-0.02117-0.0635v-0.14817c0.06562-0.35631 0.07126-0.4191 0.27517-0.74083l0.04233-0.04233 0.04233-0.0635 0.08467-0.08467 0.0635-0.04233 0.04233-0.04233 0.0635-0.04233 0.04233-0.02117 0.0635-0.04233 0.127-0.04233 0.04233-0.04233 0.0635-0.02117h0.08467l0.127-0.04233h0.127l0.08467-0.02117" stroke-width=".075494"/>
  </g>
  <g stroke="#1e1917" stroke-linecap="round" stroke-linejoin="round" stroke-miterlimit="10" stroke-width=".075494">
   <path d="m56.191 81.909h0.14817c1.6641 0.26564 1.6101 2.5319-0.0635 2.7093h-0.14817c-1.6785-0.17216-1.7336-2.4486-0.0635-2.7093h0.127" fill="#f4f015" fill-rule="evenodd"/>
   <path d="m56.233 94.397h0.127l0.08467 0.02117c0.62265 0.08325 1.1183 0.63818 1.143 1.27v0.127c-0.02505 0.67204-0.55598 1.2315-1.2277 1.2912h-0.1905c-1.6704-0.11465-1.7477-2.4574-0.08467-2.7093h0.14817" fill="#7e7e7e" fill-rule="evenodd"/>
   <path d="m58.434 88.407h0.0635l0.0635 0.02117h0.0635c0.62512 0.07267 1.1366 0.64594 1.1642 1.27v0.14817c-0.02822 0.64064-0.57503 1.2446-1.2277 1.27l-0.0635 0.02117h-0.14817l-0.0635-0.02117c-0.61701-0.03598-1.1772-0.58738-1.2065-1.2065l-0.02117-0.0635v-0.08467c0.02752-0.68192 0.48648-1.2199 1.1642-1.3335h0.0635l0.0635-0.02117z" fill="none"/>
   <path d="m60.615 81.909h0.14817c1.6641 0.26564 1.6101 2.5319-0.0635 2.7093h-0.14817c-1.6806-0.17216-1.7367-2.4483-0.0635-2.7093h0.127" fill="#7e7e7e" fill-rule="evenodd"/>
  </g>
 </g>
</svg>
