<?xml version="1.0" encoding="UTF-8"?>
<!-- Created with Inkscape (http://www.inkscape.org/) -->
<svg width="9.8933mm" height="32.534mm" version="1.1" viewBox="0 0 9.8933 32.534" xmlns="http://www.w3.org/2000/svg">
 <defs>
  <clipPath id="clipPath494">
   <path transform="translate(-2.5e-5 2.5e-5)" d="m227.09 236.85h27.78v18.96h-27.78z"/>
  </clipPath>
 </defs>
 <g transform="translate(-56.092 -83.079)">
  <g fill="#f4f015">
   <path d="m64.107 97.424 1.016-1.016 0.381 0.35983-1.0372 1.016-0.35983-0.35983"/>
   <path d="m61.419 96.492 1.016 1.0372-0.35983 0.35983-1.0372-1.0372 0.381-0.35983"/>
   <path d="m61.165 100.94 1.0372-1.016 0.35983 0.35983-1.0372 1.016-0.35983-0.35983"/>
   <path d="m64.361 99.943 1.0372 1.0372-0.35983 0.35983-1.0372-1.0372 0.35983-0.35983"/>
  </g>
  <g fill="#299540">
   <path d="m64.107 84.999 1.016-1.0372 0.381 0.35983-1.0372 1.0372-0.35983-0.35983"/>
   <path d="m61.419 84.046 1.016 1.0372-0.35983 0.35983-1.0372-1.016 0.381-0.381"/>
   <path d="m61.165 88.513 1.0372-1.0372 0.35983 0.35983-1.0372 1.0372-0.35983-0.35983"/>
   <path d="m64.361 87.518 1.0372 1.016-0.35983 0.35983-1.0372-1.016 0.35983-0.35983"/>
  </g>
  <path d="m60.17 115.56h1.7357v-12.298h-1.7357z" fill="#7e7e7e"/>
  <path d="m60.17 103.27h1.7357v12.298h-1.7357zm1.7357 0z" fill="none" stroke="#1e1917" stroke-linecap="round" stroke-linejoin="round" stroke-miterlimit="10" stroke-width=".099483"/>
  <path d="m56.17 110.44h9.7155v-6.4135h-9.7155z" fill="#7e7e7e"/>
  <path transform="matrix(.35278 0 0 -.35278 -23.985 194.14)" d="m227.21 255.45h27.54v-18.18h-27.54zm27.54 0z" clip-path="url(#clipPath494)" fill="none" stroke="#1e1917" stroke-linecap="round" stroke-linejoin="round" stroke-miterlimit="10" stroke-width=".564"/>
  <g fill="#f4f015" fill-rule="evenodd" stroke="#1e1917" stroke-linecap="round" stroke-linejoin="round" stroke-miterlimit="10" stroke-width=".021167">
   <path d="m64.213 104.71h-0.08467c-0.06844-4e-3 -0.1397 4e-3 -0.1905 0.0423l-0.04233 0.0212h-0.02117c-0.09031 0.0501-0.12136 0.0741-0.1905 0.14817l-0.02117 0.0212-0.04233 0.0212v0.0212l-0.02117 0.0423-0.04233 0.0423-0.02117 0.0423v0.0212l-0.02117 0.0423v0.0635l-0.02117 0.0212v0.21167l0.02117 0.0212v0.0847l0.02117 0.0212v0.0212l0.02117 0.0423 0.04233 0.0423 0.02117 0.0423v0.0212l0.04233 0.0212 0.0635 0.0635 0.02117 0.0423h0.02117l0.04233 0.0212 0.02117 0.0212 0.04233 0.0212 0.02117 0.0212h0.04233l0.02117 0.0212h0.04233l0.02117 0.0212h0.08467l0.02117 0.0212c0.17427 6e-3 0.09878-2e-3 0.23283-0.0212h0.02117l0.04233-0.0212h0.02117l0.04233-0.0212h0.04233l0.04233-0.0423 0.04233-0.0212 0.02117-0.0212h0.02117l0.0635-0.0635c0.08043-0.0769 0.06491-0.0642 0.127-0.14816v-0.0212l0.02117-0.0423 0.02117-0.0212v-0.0212l0.02117-0.0423v-0.0635l0.02117-0.0423v-0.127l-0.02117-0.0423v-0.0635l-0.02117-0.0212v-0.0423l-0.02117-0.0212-0.02117-0.0423v-0.0212l-0.02117-0.0212-0.02117-0.0423-0.02117-0.0212c-0.11536-0.1203-0.29633-0.25329-0.46567-0.254h-0.10583"/>
   <path d="m62.16 104.71h-0.16933l-0.04233 0.0212h-0.02117l-0.04233 0.0212-0.02117 0.0212h-0.04233l-0.02117 0.0212-0.04233 0.0212c-0.06809 0.0769-0.06491 0.031-0.14817 0.127l-0.04233 0.0423-0.02117 0.0423-0.02117 0.0212v0.0212l-0.02117 0.0423-0.02117 0.0212v0.0423l-0.02117 0.0212v0.10584l-0.02117 0.0423v0.0635l0.02117 0.0212v0.10583l0.02117 0.0423v0.0212l0.02117 0.0212 0.02117 0.0423v0.0212c0.06209 0.084 0.04657 0.0713 0.127 0.14816l0.0635 0.0635h0.02117l0.02117 0.0212 0.04233 0.0212 0.02117 0.0212 0.04233 0.0212h0.02117l0.04233 0.0212h0.02117l0.04233 0.0212h0.02117c0.11959 0.0187 0.08925 0.0261 0.23283 0.0212l0.02117-0.0212h0.08467l0.02117-0.0212h0.04233l0.04233-0.0212h0.02117l0.02117-0.0212 0.04233-0.0212 0.02117-0.0212 0.04233-0.0212h0.02117l0.02117-0.0423 0.04233-0.0423 0.04233-0.0212v-0.0212l0.02117-0.0212 0.02117-0.0423 0.04233-0.0423 0.02117-0.0423v-0.0212l0.02117-0.0212v-0.0423l0.02117-0.0423v-0.254l-0.02117-0.0423v-0.0212l-0.02117-0.0423v-0.0212l-0.02117-0.0423-0.04233-0.0423-0.02117-0.0423-0.02117-0.0212v-0.0212l-0.04233-0.0212-0.02117-0.0212c-0.05256-0.06-0.10019-0.0878-0.16933-0.127h-0.02117l-0.02117-0.0212c-0.07055-0.0293-0.13194-0.0497-0.21167-0.0423h-0.08467"/>
   <path d="m60.065 104.71h-0.16933l-0.02117 0.0212h-0.04233l-0.04233 0.0423h-0.04233l-0.04233 0.0423-0.04233 0.0212-0.14817 0.14817-0.02117 0.0423v0.0212l-0.02117 0.0212-0.02117 0.0423v0.0212l-0.02117 0.0423v0.0212l-0.02117 0.0423v0.254l0.02117 0.0423v0.0423c0.05398 0.0734 0.06526 0.17357 0.14817 0.23284l0.04233 0.0423 0.02117 0.0423h0.02117l0.04233 0.0212 0.04233 0.0423 0.04233 0.0212h0.02117l0.02117 0.0212h0.04233l0.02117 0.0212h0.0635l0.04233 0.0212h0.127l0.04233-0.0212h0.0635l0.04233-0.0212h0.02117l0.02117-0.0212h0.04233l0.04233-0.0423 0.04233-0.0212 0.02117-0.0212h0.02117l0.02117-0.0423 0.10583-0.10583 0.02117-0.0423 0.04233-0.0423v-0.0423l0.02117-0.0212v-0.0212l0.02117-0.0423v-0.10583l0.02117-0.0212v-0.0635l-0.02117-0.0423v-0.10584l-0.02117-0.0212v-0.0423l-0.02117-0.0212v-0.0423c-0.0762-0.0889-0.0949-0.12488-0.1905-0.21166l-0.04233-0.0423-0.04233-0.0212-0.02117-0.0212h-0.02117l-0.04233-0.0212-0.02117-0.0212h-0.02117l-0.04233-0.0212h-0.16933"/>
   <path d="m58.033 104.71h-0.16933l-0.04233 0.0212h-0.02117l-0.02117 0.0212-0.04233 0.0212h-0.02117l-0.04233 0.0212-0.10583 0.10583-0.04233 0.0212v0.0212l-0.04234 0.0424-0.02117 0.0423-0.04233 0.0423v0.0423l-0.02117 0.0212v0.0423l-0.02117 0.0212v0.0635l-0.02117 0.0423v0.127l0.02117 0.0423v0.0635l0.02117 0.0423v0.0212l0.02117 0.0212v0.0423l0.04233 0.0423 0.02117 0.0423 0.04233 0.0423v0.0212l0.04233 0.0212 0.02117 0.0212 0.02117 0.0423h0.02117l0.04233 0.0423 0.04233 0.0212 0.02117 0.0212h0.04233l0.02117 0.0212h0.02117l0.04233 0.0212h0.0635l0.04233 0.0212h0.127l0.04233-0.0212h0.0635l0.02117-0.0212h0.02117l0.04233-0.0212h0.02117l0.04233-0.0212 0.04233-0.0423 0.04233-0.0212h0.02117l0.02117-0.0423 0.04233-0.0423c0.0829-0.0593 0.09419-0.15946 0.14817-0.23284v-0.0847l0.02117-0.0212v-0.21167l-0.02117-0.0212v-0.0635l-0.02117-0.0423v-0.0212l-0.02117-0.0423-0.02117-0.0212v-0.0212l-0.02117-0.0423-0.14817-0.14817-0.04233-0.0212-0.04233-0.0423h-0.04233l-0.02117-0.0212-0.04233-0.0212h-0.02117l-0.02117-0.0212h-0.16933"/>
  </g>
  <g fill="#7e7e7e" fill-rule="evenodd" stroke="#1e1917" stroke-linecap="round" stroke-linejoin="round" stroke-miterlimit="10">
   <g stroke-width=".021167">
    <path d="m64.213 107.67h-0.14817l-0.04233 0.0212h-0.02117l-0.04233 0.0212h-0.02117l-0.04233 0.0212-0.02117 0.0212h-0.04233l-0.02117 0.0212-0.04233 0.0212-0.0635 0.0635-0.02117 0.0423-0.02117 0.0212-0.04233 0.0212v0.0212l-0.02117 0.0423-0.02117 0.0212-0.02117 0.0423-0.02117 0.0212v0.0423l-0.02117 0.0212v0.0635l-0.02117 0.0423v0.21166l0.02117 0.0423v0.0635l0.02117 0.0423v0.0212l0.02117 0.0423 0.02117 0.0212 0.02117 0.0423 0.02117 0.0212v0.0212l0.14817 0.14817 0.04233 0.0212 0.02117 0.0212 0.04233 0.0212h0.02117l0.04233 0.0212 0.02117 0.0212h0.04233l0.02117 0.0212h0.08467l0.02117 0.0212h0.14817l0.04233-0.0212h0.0635l0.04233-0.0212h0.02117l0.08467-0.0423h0.02117l0.02117-0.0212 0.04233-0.0212 0.04233-0.0423 0.04233-0.0212 0.0635-0.0635 0.02117-0.0423 0.04233-0.0423 0.02117-0.0423v-0.0212l0.02117-0.0423 0.02117-0.0212v-0.0423l0.02117-0.0212v-0.0847l0.02117-0.0212v-0.14817l-0.02117-0.0423v-0.0635l-0.02117-0.0423v-0.0212l-0.02117-0.0423-0.02117-0.0212v-0.0423l-0.02117-0.0212-0.02117-0.0423-0.0635-0.0635-0.02117-0.0423-0.02117-0.0212-0.04233-0.0212-0.04233-0.0423-0.04233-0.0212h-0.02117l-0.02117-0.0212-0.04233-0.0212h-0.04233l-0.02117-0.0212h-0.04233l-0.02117-0.0212h-0.14817"/>
    <path d="m62.16 107.67h-0.14817l-0.02117 0.0212h-0.04233l-0.02117 0.0212h-0.04233l-0.02117 0.0212-0.04233 0.0212h-0.02117l-0.04233 0.0212-0.04233 0.0423-0.04233 0.0212-0.02117 0.0212-0.02117 0.0423-0.0635 0.0635-0.02117 0.0423-0.02117 0.0212v0.0423l-0.02117 0.0212-0.02117 0.0423v0.0212l-0.02117 0.0423v0.10583l-0.02117 0.0212v0.0847l0.02117 0.0423v0.10583l0.02117 0.0212v0.0423l0.02117 0.0212 0.02117 0.0423v0.0212l0.02117 0.0423 0.02117 0.0212c0.0441 0.0526 0.07585 0.12488 0.14817 0.14816l0.04233 0.0423 0.04233 0.0212 0.02117 0.0212h0.04233l0.02117 0.0212 0.04233 0.0212h0.02117l0.04233 0.0212h0.0635l0.04233 0.0212h0.04233c0.2346 9e-3 0.0078-0.0293 0.21167-0.0212l0.02117-0.0212h0.04233c0.0702-0.0451 0.14922-0.067 0.21167-0.127l0.0635-0.0635 0.04233-0.0212v-0.0423c0.21661-0.22436 0.19685-0.62724 0-0.84666v-0.0212l-0.04233-0.0212-0.02117-0.0423-0.0635-0.0635-0.04233-0.0212-0.02117-0.0212h-0.04233l-0.04233-0.0423h-0.04233l-0.04233-0.0212h-0.02117l-0.04233-0.0212h-0.14817"/>
    <path d="m60.065 107.67h-0.127c-0.12206 0.0483-0.24765 0.0857-0.33867 0.1905l-0.02117 0.0423-0.0635 0.0635-0.02117 0.0423v0.0212l-0.02117 0.0423-0.02117 0.0212v0.0423l-0.02117 0.0212v0.0423l-0.02117 0.0212v0.29634l0.02117 0.0423v0.0212l0.02117 0.0423v0.0212l0.02117 0.0423 0.02117 0.0212v0.0423l0.04233 0.0423 0.02117 0.0423 0.10583 0.10583 0.04233 0.0212 0.04233 0.0423h0.04233l0.04233 0.0423h0.04233l0.02117 0.0212h0.0635l0.04233 0.0212h0.127l0.04233-0.0212h0.0635l0.04233-0.0212h0.02117l0.02117-0.0212 0.04233-0.0212h0.02117l0.02117-0.0212 0.04233-0.0212 0.10583-0.10584c0.09631-0.11536 0.1718-0.23283 0.16933-0.381v-0.0212l0.02117-0.0423v-0.0847l-0.02117-0.0212v-0.10583l-0.02117-0.0423v-0.0212l-0.02117-0.0423v-0.0212l-0.02117-0.0423-0.02117-0.0212-0.02117-0.0423-0.0635-0.0635-0.02117-0.0423-0.08467-0.0847-0.04233-0.0212h-0.02117l-0.02117-0.0212-0.04233-0.0212h-0.02117l-0.02117-0.0212h-0.04233l-0.02117-0.0212h-0.14817"/>
    <path d="m58.033 107.67h-0.14817l-0.02117 0.0212h-0.04233l-0.02117 0.0212h-0.04233l-0.04233 0.0423h-0.04233l-0.16933 0.16933v0.0212l-0.02117 0.0212-0.02117 0.0423-0.02117 0.0212-0.02117 0.0423v0.0212l-0.02117 0.0423v0.0212l-0.02117 0.0423v0.0635l-0.02117 0.0423v0.14817l0.02117 0.0212v0.0847l0.02117 0.0212v0.0423l0.02117 0.0212v0.0423l0.02117 0.0212 0.02117 0.0423 0.04233 0.0423v0.0423l0.02117 0.0212 0.04233 0.0212 0.10583 0.10583 0.04233 0.0212h0.02117l0.02117 0.0212 0.04233 0.0212h0.02117l0.04233 0.0212h0.0635l0.02117 0.0212h0.14817l0.02117-0.0212h0.08467l0.02117-0.0212h0.02117l0.04233-0.0212 0.02117-0.0212h0.04233l0.0635-0.0635 0.04233-0.0212 0.08467-0.0847 0.02117-0.0423 0.04233-0.0423v-0.0423l0.02117-0.0212 0.02117-0.0423v-0.0212l0.02117-0.0423v-0.0635l0.02117-0.0423v-0.21166l-0.02117-0.0423v-0.0635l-0.02117-0.0212v-0.0423l-0.02117-0.0212-0.02117-0.0423v-0.0212l-0.02117-0.0423-0.0635-0.0635-0.02117-0.0423-0.04233-0.0423-0.04233-0.0212-0.04233-0.0423h-0.02117l-0.04233-0.0212-0.02117-0.0212h-0.04233l-0.02117-0.0212h-0.02117l-0.04233-0.0212h-0.127"/>
   </g>
   <path d="m64.658 83.179h-7.239l-1.2277 1.2277v19.198h9.6943v-19.198l-1.2277-1.2277" stroke-width=".19897"/>
  </g>
  <g fill="#f4f015">
   <path d="m58.879 97.614h0.1905c0.6417 0.09666 1.1183 0.62301 1.1642 1.27v0.14817c-0.0247 0.63747-0.57538 1.2495-1.2277 1.27l-0.0635 0.0212h-0.14817l-0.0635-0.0212c-0.61877-0.0332-1.1776-0.58702-1.2065-1.2065v-0.0635l-0.02117-0.0635 0.02117-0.08467c-0.0127-0.27023 0.1076-0.51999 0.254-0.74083l0.08467-0.08467c0.15416-0.22296 0.48472-0.375 0.74083-0.42333l0.0635-0.02117h0.21167" fill-rule="evenodd" stroke="#1e1917" stroke-linecap="round" stroke-linejoin="round" stroke-miterlimit="10" stroke-width=".075494"/>
   <g>
    <path d="m59.684 84.999 1.016-1.0372 0.35983 0.35983-1.016 1.0372-0.35983-0.35983"/>
    <path d="m56.974 84.046 1.0372 1.0372-0.35983 0.35983-1.0372-1.016 0.35983-0.381"/>
    <path d="m56.741 88.513 1.0372-1.0372 0.35983 0.35983-1.0372 1.0372-0.35983-0.35983"/>
    <path d="m59.938 87.518 1.0372 1.016-0.35983 0.35983-1.0372-1.016 0.35983-0.35983"/>
   </g>
   <path d="m58.837 85.084h0.14817c1.6641 0.26564 1.6101 2.5319-0.0635 2.7093h-0.14817c-1.6785-0.17216-1.7336-2.4486-0.0635-2.7093h0.127" fill-rule="evenodd" stroke="#1e1917" stroke-linecap="round" stroke-linejoin="round" stroke-miterlimit="10" stroke-width=".075494"/>
  </g>
  <g stroke="#1e1917" stroke-linecap="round" stroke-linejoin="round" stroke-miterlimit="10" stroke-width=".075494">
   <path d="m63.367 97.657h0.127c1.6552 0.21978 1.621 2.5827-0.0635 2.7093h-0.14817c-1.6662-0.14711-1.7163-2.4585-0.0635-2.7093h0.14817" fill="#7e7e7e" fill-rule="evenodd"/>
   <path d="m61.081 91.582h0.0635l0.0635 0.02117h0.0635c0.62512 0.07232 1.1366 0.64594 1.1642 1.27v0.14817c-0.02822 0.64064-0.57503 1.2446-1.2277 1.27l-0.0635 0.02117h-0.14817l-0.0635-0.02117c-0.61701-0.03598-1.1772-0.58738-1.2065-1.2065l-0.02117-0.0635v-0.08467c0.02752-0.68192 0.48648-1.2199 1.1642-1.3335h0.0635l0.0635-0.02117z" fill="none"/>
   <path d="m63.261 85.084h0.14817c1.6641 0.26564 1.6101 2.5319-0.0635 2.7093h-0.14817c-1.6806-0.17216-1.7367-2.4483-0.0635-2.7093h0.127" fill="#7e7e7e" fill-rule="evenodd"/>
  </g>
 </g>
</svg>
