<?xml version="1.0" encoding="UTF-8"?>
<!-- Created with Inkscape (http://www.inkscape.org/) -->
<svg width="9.8721mm" height="32.535mm" version="1.1" viewBox="0 0 9.8721 32.535" xmlns="http://www.w3.org/2000/svg">
 <defs>
  <clipPath id="clipPath582">
   <path transform="translate(-2.5e-5 2.5e-5)" d="m249.77 406.29h27.72v18.96h-27.72z"/>
  </clipPath>
 </defs>
 <g transform="translate(-52.123 -76.465)">
  <g fill="#f4f015">
   <path d="m60.117 90.809 1.0372-1.016 0.35983 0.35983-1.0372 1.016-0.35983-0.35983"/>
   <path d="m57.429 89.878 1.0372 1.0372-0.35983 0.35983-1.0372-1.0372 0.35983-0.35983"/>
   <path d="m57.196 94.323 1.016-1.016 0.35983 0.35983-1.016 1.016-0.35983-0.35983"/>
   <path d="m60.393 93.328 1.016 1.0372-0.35983 0.35983-1.016-1.0372 0.35983-0.35983"/>
   <path d="m55.694 78.384 1.0372-1.0372 0.35983 0.35983-1.0372 1.0372-0.35983-0.35983"/>
   <path d="m53.005 77.432 1.0372 1.0372-0.35983 0.35983-1.0372-1.016 0.35983-0.381"/>
   <path d="m52.772 81.898 1.0372-1.0372 0.35983 0.35983-1.0372 1.0372-0.35983-0.35983"/>
   <path d="m55.968 80.903 1.016 1.016-0.35983 0.35983-1.016-1.016 0.35983-0.35983"/>
  </g>
  <g fill="#299540">
   <path d="m60.117 78.384 1.0372-1.0372 0.35983 0.35983-1.0372 1.0372-0.35983-0.35983"/>
   <path d="m57.429 77.432 1.0372 1.0372-0.35983 0.35983-1.0372-1.016 0.35983-0.381"/>
   <path d="m57.196 81.898 1.016-1.0372 0.35983 0.35983-1.016 1.0372-0.35983-0.35983"/>
   <path d="m60.393 80.903 1.016 1.016-0.35983 0.35983-1.016-1.016 0.35983-0.35983"/>
  </g>
  <path d="m56.201 108.95h1.7145v-12.298h-1.7145z" fill="#7e7e7e"/>
  <path d="m56.201 96.652h1.7145v12.298h-1.7145zm1.7149 0z" fill="none" stroke="#1e1917" stroke-linecap="round" stroke-linejoin="round" stroke-miterlimit="10" stroke-width=".099483"/>
  <path d="m52.201 103.83h9.6943v-6.4135h-9.6943z" fill="#7e7e7e"/>
  <path transform="matrix(.35278 0 0 -.35278 -35.955 247.3)" d="m249.89 424.89h27.48v-18.18h-27.48zm27.481 0z" clip-path="url(#clipPath582)" fill="none" stroke="#1e1917" stroke-linecap="round" stroke-linejoin="round" stroke-miterlimit="10" stroke-width=".564"/>
  <g fill="#7e7e7e" fill-rule="evenodd" stroke="#1e1917" stroke-linecap="round" stroke-linejoin="round" stroke-miterlimit="10" stroke-width=".021167">
   <path d="m60.223 98.091h-0.1905l-0.02117 0.02117h-0.04233l-0.02117 0.02117-0.04233 0.02117h-0.02117l-0.04233 0.02117-0.04233 0.04233-0.04233 0.02117c-0.0956 0.08678-0.1143 0.12277-0.1905 0.21167v0.04233l-0.02117 0.02117v0.04233l-0.02117 0.02117v0.04233l-0.02117 0.02117v0.21167l0.02117 0.02117v0.04233l0.02117 0.04233v0.02117l0.02117 0.02117v0.04233l0.04233 0.04233 0.02117 0.04233 0.10583 0.10583 0.02117 0.04233h0.04233l0.04233 0.04233 0.04233 0.02117 0.02117 0.02117h0.04233l0.02117 0.02117h0.04233l0.02117 0.02117h0.08467l0.04233 0.02117c0.18627 0.01199 0.10089-0.02187 0.21167-0.02117h0.02117l0.04233-0.02117h0.04233l0.02117-0.02117h0.04233l0.02117-0.02117 0.04233-0.02117 0.04233-0.04233h0.02117l0.0635-0.0635c0.08043-0.07691 0.06491-0.06421 0.127-0.14817v-0.02117l0.02117-0.04233 0.02117-0.02117v-0.02117l0.02117-0.04233v-0.0635l0.02117-0.04233v-0.127l-0.02117-0.04233v-0.0635l-0.02117-0.02117v-0.04233l-0.02117-0.02117-0.02117-0.04233v-0.02117l-0.02117-0.02117-0.02117-0.04233-0.04233-0.04233c-0.08325-0.09595-0.08008-0.05009-0.14817-0.127l-0.02117-0.02117-0.04233-0.02117h-0.02117l-0.04233-0.02117-0.02117-0.02117h-0.04233l-0.04233-0.02117h-0.16933"/>
   <path d="m58.191 98.091h-0.08467c-0.06879-0.0039-0.1397 0.0035-0.1905 0.04233l-0.04233 0.02117h-0.02117c-0.06914 0.03916-0.11677 0.06703-0.16933 0.127l-0.02117 0.02117-0.04233 0.02117v0.02117l-0.02117 0.02117-0.02117 0.04233-0.04233 0.04233-0.02117 0.04233v0.02117l-0.02117 0.04233v0.02117l-0.02117 0.04233v0.254l0.02117 0.04233v0.04233l0.02117 0.02117v0.02117l0.02117 0.04233 0.04234 0.04234 0.02117 0.04233 0.02117 0.02117v0.02117l0.04233 0.02117 0.04233 0.04233 0.02117 0.04233h0.02117l0.04233 0.02117 0.02117 0.02117 0.04233 0.02117 0.02117 0.02117h0.04233l0.02117 0.02117h0.04233l0.02117 0.02117h0.0635l0.04233 0.02117h0.14817l0.04233-0.02117h0.0635l0.04233-0.02117h0.02117l0.04233-0.02117h0.02117l0.04233-0.02117 0.02117-0.02117 0.04233-0.02117 0.02117-0.02117h0.02117l0.02117-0.04233 0.04233-0.02117 0.08467-0.08467 0.02117-0.04233v-0.02117l0.02117-0.02117 0.02117-0.04233 0.02117-0.02117v-0.0635l0.02117-0.04233v-0.0635l0.02117-0.02117v-0.0635l-0.02117-0.04233v-0.0635l-0.02117-0.04233v-0.0635l-0.02117-0.02117-0.02117-0.04233-0.02117-0.02117v-0.02117l-0.02117-0.04233-0.08467-0.08467-0.04233-0.02117-0.0635-0.0635c-0.09419-0.04304-0.18521-0.10936-0.29633-0.10583h-0.10583"/>
   <path d="m56.095 98.091h-0.16933l-0.02117 0.02117h-0.04233l-0.02117 0.02117-0.04233 0.02117h-0.02117l-0.02117 0.02117-0.04233 0.02117-0.16933 0.16933-0.02117 0.04233-0.02117 0.02117v0.02117l-0.02117 0.04233-0.02117 0.02117v0.04233l-0.02117 0.02117v0.14817l-0.02117 0.02117 0.02117 0.04233v0.02117c7.06e-4 0.07655-0.01129 0.12453 0.04233 0.1905l0.02117 0.04233v0.02117c0.06209 0.08396 0.04657 0.07126 0.127 0.14817l0.02117 0.02117 0.02117 0.04233h0.02117l0.02117 0.02117 0.04233 0.02117 0.04233 0.04233h0.04233l0.02117 0.02117h0.04233l0.02117 0.02117h0.0635l0.04233 0.02117h0.127l0.04233-0.02117h0.0635l0.02117-0.02117h0.04233l0.02117-0.02117h0.02117l0.04233-0.02117 0.04233-0.04233 0.04233-0.02117h0.02117l0.02117-0.04233 0.04233-0.04233c0.0829-0.05927 0.09419-0.15946 0.14817-0.23283v-0.04233l0.02117-0.04233v-0.254l-0.02117-0.04233v-0.02117l-0.02117-0.04233v-0.02117l-0.02117-0.04233-0.02117-0.02117v-0.02117l-0.02117-0.04233-0.14817-0.14817-0.04233-0.02117-0.04234-0.04234h-0.04233l-0.04233-0.04233h-0.04233l-0.02117-0.02117h-0.1693"/>
   <path d="m54.063 98.091h-0.16933l-0.04233 0.02117h-0.02117l-0.04233 0.02117-0.02117 0.02117h-0.02117l-0.04233 0.02117-0.08467 0.08467-0.04233 0.02117-0.0635 0.0635v0.02117l-0.02117 0.04233-0.04233 0.04233v0.04233l-0.02117 0.02117v0.04233l-0.02117 0.02117v0.0635l-0.02117 0.04233v0.127l0.02117 0.04233v0.0635l0.02117 0.04233v0.02117l0.02117 0.02117v0.04233l0.04233 0.04233 0.02117 0.04233v0.02117l0.0635 0.0635 0.04233 0.02117 0.02117 0.04233h0.02117l0.04233 0.04233 0.04233 0.02117 0.02117 0.02117h0.02117l0.04233 0.02117h0.02117l0.04233 0.02117h0.0635l0.02117 0.02117h0.14817l0.02117-0.02117h0.0635l0.04233-0.02117h0.02117l0.04233-0.02117h0.02117l0.02117-0.02117 0.04233-0.02117 0.04233-0.04233h0.02117l0.14817-0.14817v-0.04233l0.04233-0.04233v-0.04233l0.02117-0.02117v-0.02117l0.02117-0.04233v-0.04233l0.02117-0.02117v-0.21167l-0.02117-0.02117v-0.04233l-0.02117-0.02117v-0.04233l-0.02117-0.02117v-0.04233l-0.04234-0.04234v-0.04233l-0.04234-0.04234c-0.08326-0.09595-0.08008-0.05009-0.14817-0.127l-0.02117-0.02117-0.04233-0.02117h-0.02117l-0.02117-0.02117-0.04233-0.02117h-0.02117l-0.04233-0.02117h-0.14815"/>
  </g>
  <g fill="#299540" fill-rule="evenodd" stroke="#1e1917" stroke-linecap="round" stroke-linejoin="round" stroke-miterlimit="10" stroke-width=".021167">
   <path d="m60.223 101.05h-0.14817l-0.04233 0.0212h-0.02117l-0.04233 0.0212h-0.02117l-0.04233 0.0212-0.02117 0.0212h-0.04233l-0.04233 0.0423-0.04233 0.0212-0.04233 0.0423-0.02117 0.0423-0.02117 0.0212c-0.08537 0.0631-0.15769 0.28187-0.16933 0.381v0.16933l0.02117 0.0423v0.0423l0.02117 0.0212v0.0423l0.02117 0.0212v0.0423l0.02117 0.0212 0.02117 0.0423 0.04233 0.0423 0.02117 0.0423 0.08467 0.0847 0.04233 0.0212 0.04233 0.0423 0.04233 0.0212h0.02117l0.04233 0.0212 0.02117 0.0212h0.04233l0.02117 0.0212h0.08467l0.04233 0.0212h0.127l0.04233-0.0212h0.0635l0.04233-0.0212h0.04233l0.02117-0.0212 0.04233-0.0212h0.02117l0.04233-0.0212 0.0635-0.0635 0.04233-0.0212 0.0635-0.0635 0.02117-0.0423 0.04234-0.0424 0.02117-0.0423v-0.0212l0.02117-0.0423 0.02117-0.0212v-0.0423l0.02117-0.0212v-0.0847l0.02117-0.0212v-0.14817l-0.02117-0.0423v-0.0635l-0.02117-0.0423v-0.0212l-0.02117-0.0423-0.02117-0.0212v-0.0423l-0.02117-0.0212-0.02117-0.0423-0.0635-0.0635-0.02117-0.0423-0.02117-0.0212-0.04233-0.0212-0.0635-0.0635h-0.04233l-0.02117-0.0212-0.04233-0.0212h-0.02117l-0.04233-0.0212h-0.04233l-0.02117-0.0212h-0.14817"/>
   <path d="m58.191 101.05h-0.14817l-0.04233 0.0212h-0.02117l-0.04233 0.0212h-0.02117l-0.04233 0.0212-0.02117 0.0212h-0.04233l-0.02117 0.0212-0.04233 0.0212-0.0635 0.0635-0.02117 0.0423-0.04233 0.0212v0.0212c-0.19685 0.21942-0.21661 0.6223 0 0.84666v0.0423l0.04233 0.0212 0.0635 0.0635c0.05503 0.0519 0.12171 0.0804 0.1905 0.10584l0.02117 0.0212h0.04233l0.02117 0.0212h0.0635l0.04233 0.0212h0.14817l0.04233-0.0212h0.0635l0.04233-0.0212h0.02117l0.04233-0.0212 0.02117-0.0212h0.04233l0.02117-0.0212 0.04233-0.0212 0.0635-0.0635 0.04233-0.0212 0.04233-0.0423 0.02117-0.0423 0.04233-0.0423v-0.0423l0.02117-0.0212 0.02117-0.0423 0.02117-0.0212v-0.0635l0.02117-0.0423v-0.0635l0.02117-0.0423v-0.0847l-0.02117-0.0212v-0.0847l-0.02117-0.0212v-0.0635l-0.02117-0.0423-0.02117-0.0212-0.02117-0.0423v-0.0212l-0.02117-0.0423-0.02117-0.0212c-0.12136-0.139-0.0092-0.0268-0.14817-0.14817l-0.02117-0.0212-0.04233-0.0212h-0.02117l-0.04233-0.0212-0.02117-0.0212h-0.04233l-0.02117-0.0212h-0.04233l-0.04233-0.0212h-0.127"/>
   <path d="m56.095 101.05h-0.127l-0.04233 0.0212h-0.02117l-0.04233 0.0212h-0.02117l-0.04233 0.0212-0.02117 0.0212h-0.02117l-0.04233 0.0212-0.08467 0.0847-0.02117 0.0423-0.0635 0.0635-0.02117 0.0423-0.02117 0.0212v0.0423l-0.02117 0.0212-0.02117 0.0423v0.0212l-0.02117 0.0423v0.127l-0.02117 0.0423 0.02117 0.0423v0.14817l0.02117 0.0212v0.0423l0.02117 0.0212 0.02117 0.0423v0.0212l0.02117 0.0423 0.04233 0.0423 0.02117 0.0423 0.0635 0.0635 0.02117 0.0212 0.04233 0.0423 0.04233 0.0212 0.02117 0.0212h0.02117l0.04233 0.0212 0.02117 0.0212h0.04233l0.02117 0.0212h0.0635l0.04233 0.0212h0.127l0.04233-0.0212h0.0635l0.02117-0.0212h0.04233l0.04234-0.0424h0.04233l0.04233-0.0423 0.04233-0.0212 0.10583-0.10583 0.02117-0.0423 0.04234-0.0424v-0.0423l0.02117-0.0212 0.02117-0.0423v-0.0212l0.02117-0.0423v-0.0212l0.02117-0.0423v-0.29634l-0.02117-0.0212v-0.0423l-0.02117-0.0212v-0.0423l-0.02117-0.0212-0.02117-0.0423v-0.0212l-0.02117-0.0423-0.0635-0.0635-0.02117-0.0423-0.0635-0.0635c-0.10336-0.0607-0.16298-0.0864-0.27517-0.127h-0.127"/>
   <path d="m54.063 101.05h-0.14817l-0.02117 0.0212h-0.04233l-0.02117 0.0212h-0.04233l-0.04233 0.0423h-0.04233l-0.0635 0.0635-0.04233 0.0212-0.02117 0.0212-0.02117 0.0423-0.04233 0.0423v0.0212l-0.02117 0.0423-0.02117 0.0212-0.02117 0.0423v0.0212l-0.02117 0.0423v0.0212l-0.02117 0.0423v0.0635l-0.02117 0.0423v0.14817l0.02117 0.0212v0.0847l0.02117 0.0212v0.0423l0.02117 0.0212v0.0423l0.02117 0.0212 0.02117 0.0423 0.02117 0.0212v0.0212l0.02117 0.0423 0.0635 0.0635 0.04233 0.0212 0.0635 0.0635 0.04233 0.0212h0.02117l0.02117 0.0212 0.04233 0.0212h0.02117l0.04233 0.0212h0.0635l0.02117 0.0212h0.14817l0.02117-0.0212h0.0635l0.04233-0.0212h0.02117l0.04233-0.0212 0.02117-0.0212h0.02117l0.04233-0.0212 0.0635-0.0635 0.04233-0.0212 0.0635-0.0635 0.02117-0.0423v-0.0212l0.02117-0.0212 0.02117-0.0423 0.02117-0.0212v-0.0423l0.02117-0.0212v-0.0423l0.02117-0.0212v-0.0847l0.02117-0.0212v-0.14817l-0.02117-0.0423v-0.0635l-0.02117-0.0423v-0.0212l-0.02117-0.0423v-0.0212l-0.02117-0.0423-0.02117-0.0212-0.02117-0.0423v-0.0212l-0.04233-0.0423-0.02117-0.0423-0.02117-0.0212-0.04233-0.0212-0.0635-0.0635h-0.04233l-0.04233-0.0423h-0.04233l-0.02117-0.0212h-0.04233l-0.02117-0.0212h-0.127"/>
  </g>
  <g fill-rule="evenodd" stroke="#1e1917" stroke-linecap="round" stroke-linejoin="round" stroke-miterlimit="10">
   <path d="m60.668 76.564h-7.2178l-1.2277 1.2277v19.198h9.6732v-19.198l-1.2277-1.2277" fill="#7e7e7e" stroke-width=".19897"/>
   <g stroke-width=".075494">
    <path d="m54.889 90.894 0.08467 0.02117h0.127l0.127 0.04233h0.08467l0.0635 0.02117 0.04233 0.04233 0.127 0.04233 0.0635 0.04233 0.04233 0.02117 0.0635 0.04233 0.04233 0.04233 0.0635 0.04233 0.08467 0.08467 0.04233 0.0635c0.15804 0.17639 0.29316 0.48189 0.29633 0.71967l0.02117 0.0635v0.14817l-0.02117 0.0635c0.0018 0.26564-0.13053 0.52035-0.29633 0.71967l-0.04233 0.0635-0.08467 0.08467-0.0635 0.04233-0.04233 0.04233-0.0635 0.04233-0.04233 0.02117-0.0635 0.04233-0.0635 0.02117-0.0635 0.04233-0.04233 0.02117-0.0635 0.02117-0.08467 0.02117h-0.0635l-0.0635 0.02117h-0.0635l-0.0635 0.02117h-0.14817l-0.0635-0.02117c-0.61524-0.02752-1.179-0.59126-1.2065-1.2065l-0.02117-0.0635v-0.0635c0.02328-0.6925 0.47554-1.2379 1.1642-1.3547h0.127l0.0635-0.02117" fill="#f4f015"/>
    <path d="m54.868 78.469h0.14817c1.6729 0.28328 1.5797 2.5559-0.08467 2.7093h-0.127c-1.6792-0.16051-1.7339-2.461-0.0635-2.7093h0.127" fill="#f4f015"/>
    <path d="m59.186 90.957h0.127l0.0635 0.02117h0.08467c0.30409 0.09102 0.44626 0.16192 0.67733 0.381l0.08467 0.08467c0.17604 0.20814 0.29245 0.46461 0.29633 0.74083l0.02117 0.0635v0.127c-0.06032 0.70626-0.52458 1.1994-1.2277 1.2912h-0.21167c-1.6648-0.1464-1.718-2.4578-0.0635-2.7093h0.14817" fill="#7e7e7e"/>
   </g>
  </g>
  <path d="m57.091 84.967h0.0635l0.08467 0.02117c1.626 0.20144 1.6231 2.5418-0.08467 2.7093h-0.127l-0.0635-0.02117h-0.08467l-0.0635-0.02117h-0.0635l-0.1905-0.0635-0.0635-0.04233-0.04233-0.02117-0.0635-0.04233-0.0635-0.02117-0.04233-0.04233-0.0635-0.04233-0.127-0.127c-0.1711-0.20426-0.32103-0.44556-0.33867-0.71967l-0.02117-0.0635v-0.21167c0.01517-0.26494 0.11007-0.53305 0.27517-0.74083l0.04233-0.04233 0.04233-0.0635c0.16475-0.18098 0.47237-0.38594 0.71967-0.40217l0.0635-0.02117h0.08467l0.0635-0.02117z" fill="none" stroke="#1e1917" stroke-linecap="round" stroke-linejoin="round" stroke-miterlimit="10" stroke-width=".075494"/>
  <path d="m59.292 78.469h0.127c1.6676 0.25823 1.6087 2.5421-0.0635 2.7093h-0.14817c-1.6693-0.17604-1.7233-2.4451-0.0635-2.7093h0.14817" fill="#7e7e7e" fill-rule="evenodd" stroke="#1e1917" stroke-linecap="round" stroke-linejoin="round" stroke-miterlimit="10" stroke-width=".075494"/>
 </g>
</svg>
