<?xml version="1.0" encoding="UTF-8"?>
<!-- Created with Inkscape (http://www.inkscape.org/) -->
<svg width="9.8933mm" height="32.513mm" version="1.1" viewBox="0 0 9.8933 32.513" xmlns="http://www.w3.org/2000/svg">
 <defs>
  <clipPath id="clipPath215">
   <path transform="translate(-2.5e-6 2.5e-5)" d="m227.09 404.01h27.78v18.96h-27.78z"/>
  </clipPath>
 </defs>
 <g transform="translate(-83.344 -99.219)">
  <g fill="#f4f015">
   <path d="m86.936 101.14 1.016-1.0372 0.35983 0.35984-1.016 1.0372-0.35983-0.35983"/>
   <path d="m84.226 100.19 1.0372 1.0372-0.35983 0.35983-1.0372-1.0372 0.35983-0.35983"/>
   <path d="m83.994 104.63 1.0372-1.016 0.35983 0.35983-1.0372 1.016-0.35983-0.35983"/>
   <path d="m87.19 103.64 1.0372 1.0372-0.35983 0.35983-1.0372-1.0372 0.35983-0.35983"/>
   <path d="m91.36 113.56 1.016-1.0372 0.381 0.35984-1.0372 1.0372-0.35983-0.35983"/>
   <path d="m88.671 112.63 1.016 1.016-0.35983 0.35983-1.0372-1.016 0.381-0.35983"/>
   <path d="m88.417 117.08 1.0372-1.0372 0.35983 0.35984-1.0372 1.0372-0.35983-0.35983"/>
   <path d="m91.614 116.08 1.0372 1.016-0.35983 0.35983-1.0372-1.016 0.35983-0.35983"/>
  </g>
  <path d="m87.423 131.68h1.7357v-12.277h-1.7357z" fill="#7e7e7e"/>
  <path d="m87.423 119.41h1.7357v12.277h-1.7357zm1.7357 0z" fill="none" stroke="#1e1917" stroke-linecap="round" stroke-linejoin="round" stroke-miterlimit="10" stroke-width=".099483"/>
  <path d="m83.422 126.56h9.7155v-6.4135h-9.7155z" fill="#7e7e7e"/>
  <path transform="matrix(.35278 0 0 -.35278 3.2674 269.23)" d="m227.21 422.61h27.54v-18.18h-27.54zm27.54 0z" clip-path="url(#clipPath215)" fill="none" stroke="#1e1917" stroke-linecap="round" stroke-linejoin="round" stroke-miterlimit="10" stroke-width=".564"/>
  <g fill="#7e7e7e" fill-rule="evenodd" stroke="#1e1917" stroke-linecap="round" stroke-linejoin="round" stroke-miterlimit="10">
   <g stroke-width=".021167">
    <path d="m91.465 120.82h-0.10583l-0.04233 0.0212h-0.0635l-0.04233 0.0212h-0.02117l-0.04233 0.0212-0.02117 0.0212c-0.07902-5e-3 -0.13547 0.0765-0.1905 0.127l-0.02117 0.0212-0.04233 0.0212v0.0423l-0.04233 0.0423-0.02117 0.0423-0.02117 0.0212v0.0423l-0.02117 0.0212v0.0635l-0.02117 0.0423v0.1905l0.02117 0.0423v0.0635l0.02117 0.0212v0.0423l0.02117 0.0212 0.02117 0.0423 0.04233 0.0423v0.0212l0.04233 0.0212 0.02117 0.0423 0.08467 0.0847 0.04233 0.0212h0.02117l0.04233 0.0212 0.02117 0.0212h0.04233l0.02117 0.0212 0.04233 0.0212h0.0635l0.04233 0.0212h0.21167l0.04233-0.0212h0.0635l0.02117-0.0212 0.04233-0.0212h0.04233l0.04233-0.0423h0.04233l0.04233-0.0423 0.04233-0.0212 0.04233-0.0423 0.02117-0.0423 0.08467-0.0847v-0.0423l0.02117-0.0212 0.02117-0.0423v-0.0212l0.02117-0.0423v-0.0635l0.02117-0.0212v-0.14816l-0.02117-0.0212v-0.0635l-0.02117-0.0423v-0.0212l-0.02117-0.0423-0.02117-0.0212v-0.0423l-0.04233-0.0423c-0.03069-0.0773-0.1083-0.12171-0.16933-0.16933l-0.02117-0.0212-0.04233-0.0212h-0.02117l-0.02117-0.0212-0.04233-0.0212h-0.04233l-0.02117-0.0212h-0.0635l-0.04233-0.0212h-0.10583"/>
    <path d="m89.412 120.82h-0.10583l-0.04233 0.0212h-0.0635l-0.02117 0.0212h-0.04233l-0.02117 0.0212-0.04233 0.0212h-0.02117l-0.04233 0.0212-0.04233 0.0423-0.04233 0.0212-0.08467 0.0847-0.02117 0.0423-0.04233 0.0423v0.0423l-0.02117 0.0212-0.02117 0.0423v0.0212l-0.02117 0.0423v0.0847l-0.02117 0.0423v0.0635l0.02117 0.0423v0.0847l0.02117 0.0423v0.0212l0.02117 0.0423 0.02117 0.0212v0.0423l0.08467 0.0847 0.02117 0.0423 0.04233 0.0423 0.04233 0.0212 0.04233 0.0423h0.04233l0.02117 0.0212 0.04233 0.0212h0.02117l0.04233 0.0212 0.02117 0.0212h0.0635l0.04233 0.0212h0.21167l0.04233-0.0212h0.0635l0.08467-0.0423h0.02117l0.02117-0.0212 0.04233-0.0212h0.02117l0.04233-0.0212 0.127-0.127v-0.0212c0.19297-0.14887 0.19685-0.57079 0.04233-0.74083l-0.02117-0.0212-0.02117-0.0423v-0.0212l-0.04233-0.0212-0.08467-0.0847-0.04233-0.0212-0.02117-0.0212h-0.04233l-0.04233-0.0423h-0.04233l-0.04233-0.0212h-0.0635l-0.04233-0.0212h-0.10583"/>
    <path d="m87.317 120.82h-0.10583l-0.02117 0.0212h-0.0635l-0.04233 0.0212h-0.02117l-0.02117 0.0212-0.04233 0.0212h-0.02117l-0.02117 0.0212-0.04233 0.0212-0.10583 0.10583c-0.05927 0.0579-0.15593 0.2854-0.14817 0.35984v0.21166l0.02117 0.0212v0.0423l0.02117 0.0212v0.0423l0.02117 0.0212 0.02117 0.0423v0.0212l0.0635 0.0635 0.02117 0.0423 0.08467 0.0847 0.04233 0.0212h0.02117l0.02117 0.0212 0.04233 0.0212h0.02117l0.02117 0.0212 0.04233 0.0212h0.0635l0.02117 0.0212h0.21167l0.04233-0.0212h0.0635l0.04233-0.0423h0.04233l0.04233-0.0423h0.04233l0.10583-0.10584 0.02117-0.0423 0.08467-0.0847 0.02117-0.0423v-0.0212l0.02117-0.0423v-0.0212l0.02117-0.0423v-0.0847l0.02117-0.0423v-0.0635l-0.02117-0.0423v-0.0847l-0.02117-0.0423v-0.0212l-0.02117-0.0423v-0.0212l-0.02117-0.0423-0.04233-0.0423-0.02117-0.0423-0.14817-0.14817-0.04233-0.0212h-0.02117l-0.02117-0.0212-0.04233-0.0212h-0.02117l-0.02117-0.0212h-0.0635l-0.04233-0.0212h-0.10583"/>
    <path d="m85.285 120.82h-0.10583l-0.04233 0.0212h-0.0635l-0.02117 0.0212h-0.02117l-0.04233 0.0212-0.02117 0.0212h-0.04233l-0.10583 0.10583-0.04233 0.0212v0.0212l-0.02117 0.0212-0.02117 0.0423-0.04233 0.0423-0.02117 0.0423v0.0212l-0.02117 0.0423v0.0212l-0.02117 0.0423v0.0635l-0.02117 0.0212v0.14816l0.02117 0.0212v0.0635l0.02117 0.0423v0.0212l0.02117 0.0423v0.0212l0.02117 0.0423 0.08467 0.0847v0.0423l0.04233 0.0212 0.08467 0.0847h0.02117l0.04233 0.0212 0.02117 0.0212h0.04233l0.04233 0.0423h0.0635l0.04233 0.0212h0.21167l0.02117-0.0212h0.0635l0.02117-0.0212 0.04233-0.0212h0.02117l0.04233-0.0212 0.02117-0.0212h0.02117l0.04233-0.0212c0.09525-0.0815 0.07937-0.10478 0.14817-0.16933l0.02117-0.0212v-0.0212l0.02117-0.0423 0.02117-0.0212v-0.0423l0.02117-0.0212c-0.0081-0.13476 0.03246-0.0282 0.02117-0.21166v-0.0847l-0.02117-0.0423v-0.0635l-0.02117-0.0212v-0.0423l-0.02117-0.0212-0.02117-0.0423v-0.0212l-0.02117-0.0212-0.02117-0.0423c-0.04233-0.0423-0.08467-0.0847-0.127-0.127l-0.04233-0.0212-0.02117-0.0212h-0.02117l-0.04233-0.0212-0.02117-0.0212h-0.04233l-0.02117-0.0212h-0.0635l-0.02117-0.0212h-0.10583"/>
    <path d="m91.465 123.79h-0.10583l-0.04233 0.0212h-0.0635l-0.04233 0.0212h-0.02117l-0.04233 0.0212-0.02117 0.0212-0.04233 0.0212-0.02117 0.0212-0.04233 0.0212h-0.02117l-0.02117 0.0423-0.0635 0.0635-0.04233 0.0212v0.0423l-0.04233 0.0423-0.02117 0.0423-0.02117 0.0212v0.0423l-0.02117 0.0212v0.0847l-0.02117 0.0212v0.23283l0.02117 0.0212v0.0635l0.02117 0.0423v0.0212l0.02117 0.0423 0.02117 0.0212 0.02117 0.0423 0.02117 0.0212v0.0212l0.08467 0.0847c0.08255 0.0836 0.18627 0.15981 0.29633 0.16933l0.02117 0.0212h0.04233l0.04233 0.0212h0.21167l0.04233-0.0212h0.02117l0.04233-0.0212h0.02117l0.04233-0.0212h0.04233l0.04234-0.0424 0.04233-0.0212 0.04233-0.0423 0.04233-0.0212 0.0635-0.0635 0.02117-0.0423 0.04233-0.0423 0.02117-0.0423v-0.0212l0.02117-0.0423 0.02117-0.0212v-0.0423l0.02117-0.0212v-0.0635l0.02117-0.0423v-0.14817l-0.02117-0.0423v-0.0635l-0.02117-0.0423v-0.0212l-0.02117-0.0423-0.02117-0.0212v-0.0423l-0.04233-0.0423-0.02117-0.0423-0.127-0.127h-0.02117l-0.02117-0.0212-0.04233-0.0212-0.04233-0.0423-0.04233-0.0212h-0.04233l-0.02117-0.0212h-0.0635l-0.04233-0.0212h-0.10583"/>
    <path d="m89.412 123.79h-0.10583l-0.04233 0.0212c-0.05398-9e-3 -0.14464 0.0328-0.1905 0.0635l-0.02117 0.0212-0.04233 0.0212-0.02117 0.0212h-0.02117l-0.127 0.127-0.02117 0.0423-0.04233 0.0423v0.0423l-0.02117 0.0212-0.02117 0.0423v0.0212l-0.02117 0.0423v0.10583l-0.02117 0.0423v0.0635l0.02117 0.0423v0.10583l0.02117 0.0212v0.0423l0.02117 0.0212 0.02117 0.0423v0.0212l0.02117 0.0423 0.02117 0.0212c0.0441 0.0526 0.07585 0.12488 0.14817 0.14816l0.04233 0.0423c0.12347 0.0822 0.11112 0.0533 0.23283 0.10583h0.02117l0.04233 0.0212h0.04233c0.18874 0.0166 0.41804-0.0543 0.55033-0.1905l0.04233-0.0423 0.04233-0.0212v-0.0423l0.04233-0.0423 0.02117-0.0423 0.02117-0.0212 0.02117-0.0423v-0.0212l0.02117-0.0423v-0.0212l0.02117-0.0423v-0.27517l-0.02117-0.0423v-0.0423l-0.02117-0.0212v-0.0423l-0.02117-0.0212-0.02117-0.0423-0.04233-0.0423-0.02117-0.0423v-0.0212l-0.04233-0.0212-0.04233-0.0423-0.02117-0.0423h-0.02117l-0.04233-0.0212-0.02117-0.0212-0.04233-0.0212-0.04233-0.0423h-0.04233l-0.04233-0.0212h-0.0635l-0.04233-0.0212h-0.10583"/>
    <path d="m87.317 123.79h-0.10583l-0.02117 0.0212h-0.0635l-0.04233 0.0212h-0.02117l-0.02117 0.0212-0.04233 0.0212-0.04233 0.0423-0.04233 0.0212h-0.02117l-0.02117 0.0423-0.08467 0.0847-0.02117 0.0423-0.02117 0.0212v0.0212l-0.02117 0.0423-0.02117 0.0212v0.0423l-0.02117 0.0212v0.0423l-0.02117 0.0423v0.27517l0.02117 0.0423v0.0212l0.02117 0.0423v0.0212l0.02117 0.0423 0.02117 0.0212v0.0423l0.04234 0.0424 0.02117 0.0423 0.10583 0.10583 0.04233 0.0212 0.04233 0.0423 0.04233 0.0212h0.02117l0.02117 0.0212h0.04233l0.02117 0.0212h0.04233l0.02117 0.0212h0.21167l0.04233-0.0212h0.02117l0.04233-0.0212h0.02117l0.02117-0.0212h0.04233l0.04233-0.0423 0.04233-0.0212 0.02117-0.0212c0.07408-0.0677 0.14076-0.14781 0.1905-0.23283l0.02117-0.0212v-0.0423l0.02117-0.0212v-0.0423l0.02117-0.0212v-0.10583l0.02117-0.0423v-0.0635l-0.02117-0.0423v-0.10583c-0.0695-0.17675-0.02293-0.1143-0.14817-0.27517l-0.0635-0.0635-0.02117-0.0423h-0.02117l-0.02117-0.0212-0.04233-0.0212-0.04233-0.0423-0.04233-0.0212h-0.02117l-0.02117-0.0212h-0.0635l-0.04233-0.0212h-0.10583"/>
    <path d="m85.285 123.79h-0.10583l-0.04233 0.0212h-0.0635l-0.02117 0.0212h-0.04233l-0.04233 0.0423-0.04233 0.0212-0.04233 0.0423h-0.02117l-0.02117 0.0423-0.02117 0.0212-0.04233 0.0212-0.02117 0.0212v0.0212l-0.02117 0.0423-0.04233 0.0423-0.02117 0.0423v0.0212l-0.02117 0.0423v0.0212l-0.02117 0.0423v0.0635l-0.02117 0.0423v0.14817l0.02117 0.0423v0.0635l0.02117 0.0212v0.0423l0.02117 0.0212v0.0423l0.02117 0.0212 0.02117 0.0423 0.04233 0.0423v0.0423l0.02117 0.0212 0.04233 0.0212 0.08467 0.0847c0.07549 0.0773 0.18203 0.0822 0.27517 0.127h0.1905l0.04233-0.0212h0.04233l0.02117-0.0212h0.02117l0.04233-0.0212h0.02117l0.04233-0.0212 0.0635-0.0635 0.04233-0.0212 0.08467-0.0847 0.02117-0.0423 0.04234-0.0424v-0.0423l0.02117-0.0212 0.02117-0.0423v-0.0212l0.02117-0.0423v-0.0635l0.02117-0.0212v-0.23283l-0.02117-0.0212v-0.0423c-0.0095-0.0896-0.06703-0.20003-0.127-0.27517l-0.0635-0.0635-0.02117-0.0423h-0.04233l-0.0635-0.0635-0.04233-0.0212-0.02117-0.0212h-0.04233l-0.02117-0.0212h-0.0635l-0.04233-0.0212h-0.08467"/>
   </g>
   <path d="m91.91 99.318h-7.239l-1.2277 1.2277v19.177h9.6943v-19.177l-1.2277-1.2277" stroke-width=".19897"/>
   <g stroke-width=".075494">
    <path d="m90.534 113.65h0.127c1.6856 0.27093 1.6048 2.5513-0.0635 2.7093h-0.14817c-1.6686-0.1531-1.7258-2.4571-0.0635-2.7093h0.14817"/>
    <path d="m86.089 101.22h0.14817c1.6633 0.25717 1.6101 2.5329-0.0635 2.7093h-0.14817c-1.6768-0.16933-1.7339-2.4578-0.0635-2.7093h0.127"/>
    <path d="m86.131 113.71h0.21167c0.67275 0.16334 1.0728 0.57891 1.143 1.27v0.14817c-0.02222 0.64629-0.57115 1.251-1.2277 1.27l-0.0635 0.0212h-0.127c-1.682-0.15346-1.7438-2.467-0.08467-2.7093h0.14817"/>
   </g>
  </g>
  <path d="m88.333 107.72h0.127l0.0635 0.0212c0.6096 0.0497 1.1518 0.65475 1.1642 1.27v0.127c-0.03598 0.67909-0.5461 1.2213-1.2277 1.2912h-0.27517c-0.62371-0.0674-1.1677-0.5715-1.2065-1.2065l-0.02117-0.0847v-0.0635c0.01341-0.67099 0.49812-1.2418 1.1642-1.3335l0.0635-0.0212z" fill="none" stroke="#1e1917" stroke-linecap="round" stroke-linejoin="round" stroke-miterlimit="10" stroke-width=".075494"/>
  <g fill="#299540">
   <g>
    <path d="m91.36 101.14 1.016-1.0372 0.381 0.35984-1.0372 1.0372-0.35983-0.35983"/>
    <path d="m88.671 100.19 1.016 1.0372-0.35983 0.35983-1.0372-1.0372 0.381-0.35983"/>
    <path d="m88.417 104.63 1.0372-1.016 0.35983 0.35983-1.0372 1.016-0.35983-0.35983"/>
    <path d="m91.614 103.64 1.0372 1.0372-0.35983 0.35983-1.0372-1.0372 0.35983-0.35983"/>
   </g>
   <path d="m90.513 101.22h0.14817c1.6633 0.25717 1.6101 2.5329-0.0635 2.7093h-0.14817c-1.6778-0.16898-1.7385-2.4557-0.0635-2.7093h0.127" fill-rule="evenodd" stroke="#1e1917" stroke-linecap="round" stroke-linejoin="round" stroke-miterlimit="10" stroke-width=".075494"/>
  </g>
 </g>
</svg>
