<?xml version="1.0" encoding="UTF-8" standalone="no"?>
<!-- Created with Inkscape (http://www.inkscape.org/) -->

<svg
   width="9.8721342mm"
   height="32.534237mm"
   viewBox="0 0 9.8721341 32.534238"
   version="1.1"
   id="svg1"
   xmlns="http://www.w3.org/2000/svg"
   xmlns:svg="http://www.w3.org/2000/svg">
  <defs
     id="defs1">
    <clipPath
       clipPathUnits="userSpaceOnUse"
       id="clipPath53">
      <path
         d="m 285.78,203.54 h 5.4 v 39.12 h -5.4 z"
         transform="translate(-290.88001,-242.42001)"
         id="path53" />
    </clipPath>
    <clipPath
       clipPathUnits="userSpaceOnUse"
       id="clipPath55">
      <path
         d="m 285.78,203.54 h 5.4 v 39.12 h -5.4 z"
         transform="translate(-290.88001,-242.42001)"
         id="path55" />
    </clipPath>
    <clipPath
       clipPathUnits="userSpaceOnUse"
       id="clipPath80">
      <path
         d="m 308.4,612.26 h 5.46 v 39.12 h -5.46 z"
         transform="translate(-313.56003,-651.14002)"
         id="path80" />
    </clipPath>
    <clipPath
       clipPathUnits="userSpaceOnUse"
       id="clipPath82">
      <path
         d="m 308.4,612.26 h 5.46 v 39.12 h -5.46 z"
         transform="translate(-313.56003,-651.14002)"
         id="path82" />
    </clipPath>
    <clipPath
       clipPathUnits="userSpaceOnUse"
       id="clipPath53-8">
      <path
         d="m 285.78,203.54 h 5.4 v 39.12 h -5.4 z"
         transform="translate(-290.88001,-242.42001)"
         id="path53-4" />
    </clipPath>
    <clipPath
       clipPathUnits="userSpaceOnUse"
       id="clipPath55-6">
      <path
         d="m 285.78,203.54 h 5.4 v 39.12 h -5.4 z"
         transform="translate(-290.88001,-242.42001)"
         id="path55-8" />
    </clipPath>
    <clipPath
       clipPathUnits="userSpaceOnUse"
       id="clipPath80-9">
      <path
         d="m 308.4,612.26 h 5.46 v 39.12 h -5.46 z"
         transform="translate(-313.56003,-651.14002)"
         id="path80-5" />
    </clipPath>
    <clipPath
       clipPathUnits="userSpaceOnUse"
       id="clipPath82-9">
      <path
         d="m 308.4,612.26 h 5.46 v 39.12 h -5.46 z"
         transform="translate(-313.56003,-651.14002)"
         id="path82-2" />
    </clipPath>
    <clipPath
       clipPathUnits="userSpaceOnUse"
       id="clipPath96">
      <path
         d="m 346.8,418.16 h 5.94 v 43.26 h -5.94 z"
         transform="translate(-352.44003,-461.18001)"
         id="path96" />
    </clipPath>
    <clipPath
       clipPathUnits="userSpaceOnUse"
       id="clipPath98">
      <path
         d="m 346.8,418.16 h 5.94 v 43.26 h -5.94 z"
         transform="translate(-352.44003,-461.18001)"
         id="path98" />
    </clipPath>
    <clipPath
       clipPathUnits="userSpaceOnUse"
       id="clipPath109">
      <path
         d="m 269.52,418.16 h 5.94 v 43.26 h -5.94 z"
         transform="translate(-275.16003,-461.18001)"
         id="path109" />
    </clipPath>
    <clipPath
       clipPathUnits="userSpaceOnUse"
       id="clipPath111">
      <path
         d="m 269.52,418.16 h 5.94 v 43.26 h -5.94 z"
         transform="translate(-275.16003,-461.18001)"
         id="path111" />
    </clipPath>
    <clipPath
       clipPathUnits="userSpaceOnUse"
       id="clipPath96-2">
      <path
         d="m 346.8,418.16 h 5.94 v 43.26 h -5.94 z"
         transform="translate(-352.44003,-461.18001)"
         id="path96-9" />
    </clipPath>
    <clipPath
       clipPathUnits="userSpaceOnUse"
       id="clipPath98-4">
      <path
         d="m 346.8,418.16 h 5.94 v 43.26 h -5.94 z"
         transform="translate(-352.44003,-461.18001)"
         id="path98-2" />
    </clipPath>
    <clipPath
       clipPathUnits="userSpaceOnUse"
       id="clipPath109-5">
      <path
         d="m 269.52,418.16 h 5.94 v 43.26 h -5.94 z"
         transform="translate(-275.16003,-461.18001)"
         id="path109-8" />
    </clipPath>
    <clipPath
       clipPathUnits="userSpaceOnUse"
       id="clipPath111-0">
      <path
         d="m 269.52,418.16 h 5.94 v 43.26 h -5.94 z"
         transform="translate(-275.16003,-461.18001)"
         id="path111-0" />
    </clipPath>
    <clipPath
       clipPathUnits="userSpaceOnUse"
       id="clipPath134">
      <path
         d="m 308.16,161.54 h 5.94 v 43.26 h -5.94 z"
         transform="translate(-313.80003,-204.56001)"
         id="path134" />
    </clipPath>
    <clipPath
       clipPathUnits="userSpaceOnUse"
       id="clipPath136">
      <path
         d="m 308.16,161.54 h 5.94 v 43.26 h -5.94 z"
         transform="translate(-313.80003,-204.56001)"
         id="path136" />
    </clipPath>
    <clipPath
       clipPathUnits="userSpaceOnUse"
       id="clipPath36">
      <path
         d="m 261,574.04 h 5.4 v 35.22 H 261 Z"
         transform="translate(-266.10001,-609.02002)"
         id="path36" />
    </clipPath>
    <clipPath
       clipPathUnits="userSpaceOnUse"
       id="clipPath38">
      <path
         d="m 261,574.04 h 5.4 v 35.22 H 261 Z"
         transform="translate(-266.10001,-609.02002)"
         id="path38" />
    </clipPath>
    <clipPath
       clipPathUnits="userSpaceOnUse"
       id="clipPath41">
      <path
         d="m 249.78,588.26 h 27.72 v 18.96 h -27.72 z"
         transform="translate(-277.38001,-606.86002)"
         id="path41" />
    </clipPath>
    <clipPath
       clipPathUnits="userSpaceOnUse"
       id="clipPath43">
      <path
         d="m 249.78,588.26 h 27.72 v 18.96 h -27.72 z"
         transform="translate(-277.38001,-606.86002)"
         id="path43" />
    </clipPath>
    <clipPath
       clipPathUnits="userSpaceOnUse"
       id="clipPath81">
      <path
         d="m 261,395.54 h 5.4 V 430.7 H 261 Z"
         transform="translate(-266.10001,-430.46001)"
         id="path81" />
    </clipPath>
    <clipPath
       clipPathUnits="userSpaceOnUse"
       id="clipPath83">
      <path
         d="m 261,395.54 h 5.4 V 430.7 H 261 Z"
         transform="translate(-266.10001,-430.46001)"
         id="path83" />
    </clipPath>
    <clipPath
       clipPathUnits="userSpaceOnUse"
       id="clipPath86">
      <path
         d="m 249.78,409.7 h 27.72 v 19.02 h -27.72 z"
         transform="translate(-277.38001,-428.36001)"
         id="path86" />
    </clipPath>
    <clipPath
       clipPathUnits="userSpaceOnUse"
       id="clipPath88">
      <path
         d="m 249.78,409.7 h 27.72 v 19.02 h -27.72 z"
         transform="translate(-277.38001,-428.36001)"
         id="path88" />
    </clipPath>
    <clipPath
       clipPathUnits="userSpaceOnUse"
       id="clipPath182">
      <path
         d="m 227.09,591.81 h 27.78 v 18.96 h -27.78 z"
         transform="translate(-2.5000001e-6,2.5000001e-5)"
         id="path182" />
    </clipPath>
    <clipPath
       clipPathUnits="userSpaceOnUse"
       id="clipPath215">
      <path
         d="m 227.09,404.009 h 27.78 v 18.96 h -27.78 z"
         transform="translate(-2.5000001e-6,2.5000001e-5)"
         id="path215" />
    </clipPath>
    <clipPath
       clipPathUnits="userSpaceOnUse"
       id="clipPath249">
      <path
         d="m 227.09,225.389 h 27.78 v 18.96 h -27.78 z"
         transform="translate(-2.5000001e-6,2.5000001e-5)"
         id="path249" />
    </clipPath>
    <clipPath
       clipPathUnits="userSpaceOnUse"
       id="clipPath299">
      <path
         d="m 249.77,588.33 h 27.72 v 18.96 h -27.72 z"
         transform="translate(-2.5000001e-5,2.5000001e-5)"
         id="path299" />
    </clipPath>
    <clipPath
       clipPathUnits="userSpaceOnUse"
       id="clipPath335">
      <path
         d="m 249.77,406.289 h 27.72 v 18.96 h -27.72 z"
         transform="translate(-2.5000001e-5,2.5000001e-5)"
         id="path335" />
    </clipPath>
    <clipPath
       clipPathUnits="userSpaceOnUse"
       id="clipPath377">
      <path
         d="m 249.77,224.249 h 27.72 v 18.96 h -27.72 z"
         transform="translate(-2.5000001e-5,2.5000001e-5)"
         id="path377" />
    </clipPath>
  </defs>
  <g
     id="layer1"
     transform="translate(-67.733283,-87.841676)">
    <path
       id="path360"
       d="m 75.727933,89.761493 1.037167,-1.037167 0.359833,0.359834 -1.037167,1.037166 -0.359833,-0.359833"
       style="fill:#299540;fill-opacity:1;fill-rule:nonzero;stroke:none;stroke-width:0.352778" />
    <path
       id="path361"
       d="m 73.039766,88.808993 1.037167,1.037167 -0.359834,0.359833 -1.037166,-1.016 0.359833,-0.381"
       style="fill:#299540;fill-opacity:1;fill-rule:nonzero;stroke:none;stroke-width:0.352778" />
    <path
       id="path362"
       d="m 72.806562,93.275159 1.016,-1.037167 0.359833,0.359834 -1.016,1.037166 -0.359833,-0.359833"
       style="fill:#299540;fill-opacity:1;fill-rule:nonzero;stroke:none;stroke-width:0.352778" />
    <path
       id="path363"
       d="m 76.003099,92.280326 1.016,1.016 -0.359833,0.359833 -1.016,-1.016 0.359833,-0.359833"
       style="fill:#299540;fill-opacity:1;fill-rule:nonzero;stroke:none;stroke-width:0.352778" />
    <path
       id="path364"
       d="m 75.727933,102.18633 1.037167,-1.016 0.359833,0.35983 -1.037167,1.016 -0.359833,-0.35983"
       style="fill:#f4f015;fill-opacity:1;fill-rule:nonzero;stroke:none;stroke-width:0.352778" />
    <path
       id="path365"
       d="m 73.039766,101.25499 1.037167,1.03717 -0.359834,0.35983 -1.037166,-1.03717 0.359833,-0.35983"
       style="fill:#f4f015;fill-opacity:1;fill-rule:nonzero;stroke:none;stroke-width:0.352778" />
    <path
       id="path366"
       d="m 72.806562,105.69999 1.016,-1.016 0.359833,0.35983 -1.016,1.016 -0.359833,-0.35983"
       style="fill:#f4f015;fill-opacity:1;fill-rule:nonzero;stroke:none;stroke-width:0.352778" />
    <path
       id="path367"
       d="m 76.003099,104.70516 1.016,1.03717 -0.359833,0.35983 -1.016,-1.03717 0.359833,-0.35983"
       style="fill:#f4f015;fill-opacity:1;fill-rule:nonzero;stroke:none;stroke-width:0.352778" />
    <path
       id="path368"
       d="m 76.278266,87.941159 h -7.217833 l -1.227667,1.227667 v 19.198164 h 9.673167 V 89.168826 l -1.227667,-1.227667"
       style="fill:#7e7e7e;fill-opacity:1;fill-rule:evenodd;stroke:#1e1917;stroke-width:0.198967;stroke-linecap:round;stroke-linejoin:round;stroke-miterlimit:10;stroke-dasharray:none;stroke-opacity:1" />
    <path
       id="path373"
       d="m 71.811743,120.32617 h 1.7145 v -12.29784 h -1.7145 z"
       style="fill:#7e7e7e;fill-opacity:1;fill-rule:nonzero;stroke:none;stroke-width:0.352778" />
    <path
       id="path374"
       d="m 71.811743,108.02833 h 1.7145 v 12.29784 h -1.7145 z m 1.714853,0 z"
       style="fill:none;stroke:#1e1917;stroke-width:0.0994833;stroke-linecap:round;stroke-linejoin:round;stroke-miterlimit:10;stroke-dasharray:none;stroke-opacity:1" />
    <path
       id="path375"
       d="m 67.811243,115.20383 h 9.694333 v -6.4135 h -9.694333 z"
       style="fill:#7e7e7e;fill-opacity:1;fill-rule:nonzero;stroke:none;stroke-width:0.352778" />
    <path
       id="path376"
       d="m 249.89,242.849 h 27.48 v -18.18 h -27.48 z m 27.481,0 z"
       style="fill:none;stroke:#1e1917;stroke-width:0.564;stroke-linecap:round;stroke-linejoin:round;stroke-miterlimit:10;stroke-dasharray:none;stroke-opacity:1"
       transform="matrix(0.35277776,0,0,-0.35277776,-20.344391,194.46206)"
       clip-path="url(#clipPath377)" />
    <path
       id="path378"
       d="m 75.833766,109.46766 h -0.1905 l -0.02117,0.0212 h -0.04233 l -0.02117,0.0212 -0.04233,0.0212 h -0.02117 l -0.04233,0.0212 -0.04233,0.0423 -0.04233,0.0212 c -0.0956,0.0868 -0.1143,0.12276 -0.1905,0.21166 v 0.0423 l -0.02117,0.0212 v 0.0423 l -0.02117,0.0212 v 0.0423 l -0.02117,0.0212 v 0.21167 l 0.02117,0.0212 v 0.0423 l 0.02117,0.0423 v 0.0212 l 0.02117,0.0212 v 0.0423 l 0.04233,0.0423 0.02117,0.0423 0.105834,0.10583 0.02117,0.0423 h 0.04233 l 0.04233,0.0423 0.04233,0.0212 0.02117,0.0212 h 0.04233 l 0.02117,0.0212 h 0.04233 l 0.02117,0.0212 h 0.08467 l 0.04233,0.0212 c 0.186267,0.012 0.100894,-0.0219 0.211667,-0.0212 h 0.02117 l 0.04233,-0.0212 h 0.04233 l 0.02117,-0.0212 h 0.04233 l 0.02117,-0.0212 0.04233,-0.0212 0.04233,-0.0423 h 0.02117 l 0.0635,-0.0635 c 0.08043,-0.0769 0.06491,-0.0642 0.127,-0.14816 v -0.0212 l 0.02117,-0.0423 0.02117,-0.0212 v -0.0212 l 0.02117,-0.0423 v -0.0635 l 0.02117,-0.0423 v -0.127 l -0.02117,-0.0423 v -0.0635 l -0.02117,-0.0212 v -0.0423 l -0.02117,-0.0212 -0.02117,-0.0423 v -0.0212 l -0.02117,-0.0212 -0.02117,-0.0423 -0.04233,-0.0423 c -0.08326,-0.096 -0.08008,-0.0501 -0.148166,-0.127 l -0.02117,-0.0212 -0.04233,-0.0212 h -0.02117 l -0.04233,-0.0212 -0.02117,-0.0212 h -0.04233 l -0.04233,-0.0212 h -0.169333"
       style="fill:#7e7e7e;fill-opacity:1;fill-rule:evenodd;stroke:#1e1917;stroke-width:0.0211667;stroke-linecap:round;stroke-linejoin:round;stroke-miterlimit:10;stroke-dasharray:none;stroke-opacity:1" />
    <path
       id="path379"
       d="m 73.801766,109.46766 h -0.08467 c -0.06879,-0.004 -0.1397,0.004 -0.1905,0.0423 l -0.04233,0.0212 h -0.02117 c -0.06914,0.0395 -0.116769,0.067 -0.169333,0.127 l -0.02117,0.0212 -0.04233,0.0212 v 0.0212 l -0.02117,0.0212 -0.02117,0.0423 -0.02117,0.0212 -0.02117,0.0212 -0.02117,0.0423 v 0.0212 l -0.02117,0.0423 v 0.0212 l -0.02117,0.0423 v 0.254 l 0.02117,0.0423 v 0.0423 l 0.02117,0.0212 v 0.0212 l 0.02117,0.0423 0.02117,0.0212 0.02117,0.0212 0.02117,0.0423 0.02117,0.0212 v 0.0212 l 0.04233,0.0212 0.04233,0.0423 0.02117,0.0423 h 0.02117 l 0.04233,0.0212 0.02117,0.0212 0.04233,0.0212 0.02117,0.0212 h 0.04233 l 0.02117,0.0212 h 0.04233 l 0.02117,0.0212 h 0.0635 l 0.04233,0.0212 h 0.148167 l 0.04233,-0.0212 h 0.0635 l 0.04233,-0.0212 h 0.02117 l 0.04233,-0.0212 h 0.02117 l 0.04233,-0.0212 0.02117,-0.0212 0.04233,-0.0212 0.02117,-0.0212 h 0.02117 l 0.02117,-0.0423 0.04233,-0.0212 0.08467,-0.0847 0.02117,-0.0423 v -0.0212 l 0.02117,-0.0212 0.02117,-0.0423 0.02117,-0.0212 v -0.0635 l 0.02117,-0.0423 v -0.0635 l 0.02117,-0.0212 v -0.0635 l -0.02117,-0.0423 v -0.0635 l -0.02117,-0.0423 v -0.0635 l -0.02117,-0.0212 -0.02117,-0.0423 -0.02117,-0.0212 v -0.0212 l -0.02117,-0.0423 -0.08467,-0.0847 -0.04233,-0.0212 -0.0635,-0.0635 c -0.09419,-0.043 -0.185209,-0.10936 -0.296334,-0.10583 h -0.105833"
       style="fill:#7e7e7e;fill-opacity:1;fill-rule:evenodd;stroke:#1e1917;stroke-width:0.0211667;stroke-linecap:round;stroke-linejoin:round;stroke-miterlimit:10;stroke-dasharray:none;stroke-opacity:1" />
    <path
       id="path380"
       d="m 71.705896,109.46766 h -0.169333 l -0.02117,0.0212 h -0.04233 l -0.02117,0.0212 -0.04233,0.0212 h -0.02117 l -0.02117,0.0212 -0.04233,0.0212 -0.169333,0.16934 -0.02117,0.0423 -0.02117,0.0212 v 0.0212 l -0.02117,0.0423 -0.02117,0.0212 v 0.0423 l -0.02117,0.0212 v 0.14817 l -0.02117,0.0212 0.02117,0.0423 v 0.0212 c 7.06e-4,0.0765 -0.01129,0.12453 0.04233,0.1905 l 0.02117,0.0423 v 0.0212 c 0.06209,0.084 0.04657,0.0713 0.127,0.14816 l 0.02117,0.0212 0.02117,0.0423 h 0.02117 l 0.02117,0.0212 0.04233,0.0212 0.04233,0.0423 h 0.04233 l 0.02117,0.0212 h 0.04233 l 0.02117,0.0212 h 0.0635 l 0.04233,0.0212 h 0.127 l 0.04233,-0.0212 h 0.0635 l 0.02117,-0.0212 h 0.04233 l 0.02117,-0.0212 h 0.02117 l 0.04233,-0.0212 0.04233,-0.0423 0.04233,-0.0212 h 0.02117 l 0.02117,-0.0423 0.04233,-0.0423 c 0.0829,-0.0593 0.09419,-0.15946 0.148167,-0.23284 v -0.0423 l 0.02117,-0.0423 v -0.254 l -0.02117,-0.0423 v -0.0212 l -0.02117,-0.0423 v -0.0212 l -0.02117,-0.0423 -0.02117,-0.0212 v -0.0212 l -0.02117,-0.0423 -0.148166,-0.14817 -0.04233,-0.0212 -0.04233,-0.0423 h -0.04233 l -0.04233,-0.0423 h -0.04233 l -0.02117,-0.0212 h -0.169333"
       style="fill:#7e7e7e;fill-opacity:1;fill-rule:evenodd;stroke:#1e1917;stroke-width:0.0211667;stroke-linecap:round;stroke-linejoin:round;stroke-miterlimit:10;stroke-dasharray:none;stroke-opacity:1" />
    <path
       id="path381"
       d="m 69.673896,109.46766 h -0.169333 l -0.04233,0.0212 h -0.02117 l -0.04233,0.0212 -0.02117,0.0212 h -0.02117 l -0.04233,0.0212 -0.08467,0.0847 -0.04233,0.0212 -0.0635,0.0635 v 0.0212 l -0.02117,0.0423 -0.04233,0.0423 v 0.0423 l -0.02117,0.0212 v 0.0423 l -0.02117,0.0212 v 0.0635 l -0.02117,0.0423 v 0.127 l 0.02117,0.0423 v 0.0635 l 0.02117,0.0423 v 0.0212 l 0.02117,0.0212 v 0.0423 l 0.04233,0.0423 0.02117,0.0423 v 0.0212 l 0.0635,0.0635 0.04233,0.0212 0.02117,0.0423 h 0.02117 l 0.04233,0.0423 0.04233,0.0212 0.02117,0.0212 h 0.02117 l 0.04233,0.0212 h 0.02117 l 0.04233,0.0212 h 0.0635 l 0.02117,0.0212 H 69.7374 l 0.02117,-0.0212 h 0.0635 l 0.04233,-0.0212 h 0.02117 l 0.04233,-0.0212 h 0.02117 l 0.02117,-0.0212 0.04233,-0.0212 0.04233,-0.0423 h 0.02117 l 0.148166,-0.14816 v -0.0423 l 0.04233,-0.0423 v -0.0423 l 0.02117,-0.0212 v -0.0212 l 0.02117,-0.0423 v -0.0423 l 0.02117,-0.0212 v -0.21167 l -0.02117,-0.0212 v -0.0423 l -0.02117,-0.0212 v -0.0423 l -0.02117,-0.0212 v -0.0423 l -0.04233,-0.0423 v -0.0423 l -0.02117,-0.0212 -0.02117,-0.0212 c -0.08326,-0.096 -0.08008,-0.0501 -0.148167,-0.127 l -0.02117,-0.0212 -0.04233,-0.0212 h -0.02117 l -0.02117,-0.0212 -0.04233,-0.0212 h -0.02117 l -0.04233,-0.0212 h -0.148167"
       style="fill:#7e7e7e;fill-opacity:1;fill-rule:evenodd;stroke:#1e1917;stroke-width:0.0211667;stroke-linecap:round;stroke-linejoin:round;stroke-miterlimit:10;stroke-dasharray:none;stroke-opacity:1" />
    <path
       id="path382"
       d="m 75.833766,112.43099 h -0.148167 l -0.04233,0.0212 h -0.02117 l -0.04233,0.0212 h -0.02117 l -0.04233,0.0212 -0.02117,0.0212 h -0.04233 l -0.04233,0.0423 -0.04233,0.0212 -0.04233,0.0423 -0.02117,0.0423 -0.02117,0.0212 c -0.08537,0.0632 -0.157692,0.28187 -0.169334,0.381 v 0.16933 l 0.02117,0.0423 v 0.0423 l 0.02117,0.0212 v 0.0423 l 0.02117,0.0212 v 0.0423 l 0.02117,0.0212 0.02117,0.0423 0.04233,0.0423 0.02117,0.0423 0.08467,0.0847 0.04233,0.0212 0.04233,0.0423 0.04233,0.0212 h 0.02117 l 0.04233,0.0212 0.02117,0.0212 h 0.04233 l 0.02117,0.0212 h 0.08467 l 0.04233,0.0212 h 0.127 l 0.04233,-0.0212 h 0.0635 l 0.04233,-0.0212 h 0.04233 l 0.02117,-0.0212 0.04233,-0.0212 h 0.02117 l 0.04233,-0.0212 0.0635,-0.0635 0.04233,-0.0212 0.0635,-0.0635 0.02117,-0.0423 0.04233,-0.0423 0.02117,-0.0423 v -0.0212 l 0.02117,-0.0423 0.02117,-0.0212 v -0.0423 l 0.02117,-0.0212 v -0.0847 l 0.02117,-0.0212 v -0.14817 l -0.02117,-0.0423 v -0.0635 l -0.02117,-0.0423 v -0.0212 l -0.02117,-0.0423 -0.02117,-0.0212 v -0.0423 l -0.02117,-0.0212 -0.02117,-0.0423 -0.0635,-0.0635 -0.02117,-0.0423 -0.02117,-0.0212 -0.04233,-0.0212 -0.0635,-0.0635 h -0.04233 l -0.02117,-0.0212 -0.04233,-0.0212 h -0.02117 l -0.04233,-0.0212 h -0.04233 l -0.02117,-0.0212 h -0.148167"
       style="fill:#7e7e7e;fill-opacity:1;fill-rule:evenodd;stroke:#1e1917;stroke-width:0.0211667;stroke-linecap:round;stroke-linejoin:round;stroke-miterlimit:10;stroke-dasharray:none;stroke-opacity:1" />
    <path
       id="path383"
       d="m 73.801766,112.43099 h -0.148167 l -0.04233,0.0212 h -0.02117 l -0.04233,0.0212 h -0.02117 l -0.04233,0.0212 -0.02117,0.0212 h -0.04233 l -0.02117,0.0212 -0.04233,0.0212 -0.0635,0.0635 -0.02117,0.0423 -0.04233,0.0212 v 0.0212 c -0.19685,0.21942 -0.216606,0.6223 0,0.84666 v 0.0423 l 0.04233,0.0212 0.0635,0.0635 c 0.05503,0.0519 0.121709,0.0804 0.1905,0.10584 l 0.02117,0.0212 h 0.04233 l 0.02117,0.0212 h 0.0635 l 0.04233,0.0212 h 0.148167 l 0.04233,-0.0212 h 0.0635 l 0.04233,-0.0212 h 0.02117 l 0.04233,-0.0212 0.02117,-0.0212 h 0.04233 l 0.02117,-0.0212 0.04233,-0.0212 0.0635,-0.0635 0.04233,-0.0212 0.04233,-0.0423 0.02117,-0.0423 0.04233,-0.0423 v -0.0423 l 0.02117,-0.0212 0.02117,-0.0423 0.02117,-0.0212 v -0.0635 l 0.02117,-0.0423 v -0.0635 l 0.02117,-0.0423 v -0.0847 l -0.02117,-0.0212 v -0.0847 l -0.02117,-0.0212 v -0.0635 l -0.02117,-0.0423 -0.02117,-0.0212 -0.02117,-0.0423 v -0.0212 l -0.02117,-0.0423 -0.02117,-0.0212 c -0.121356,-0.139 -0.0092,-0.0268 -0.148167,-0.14817 l -0.02117,-0.0212 -0.04233,-0.0212 h -0.02117 l -0.04233,-0.0212 -0.02117,-0.0212 h -0.04233 l -0.02117,-0.0212 h -0.04233 l -0.04233,-0.0212 h -0.127"
       style="fill:#7e7e7e;fill-opacity:1;fill-rule:evenodd;stroke:#1e1917;stroke-width:0.0211667;stroke-linecap:round;stroke-linejoin:round;stroke-miterlimit:10;stroke-dasharray:none;stroke-opacity:1" />
    <path
       id="path384"
       d="m 71.705896,112.43099 h -0.127 l -0.04233,0.0212 h -0.02117 l -0.04233,0.0212 h -0.02117 l -0.04233,0.0212 -0.02117,0.0212 h -0.02117 l -0.04233,0.0212 -0.04233,0.0423 -0.02117,0.0212 -0.02117,0.0212 -0.02117,0.0423 -0.0635,0.0635 -0.02117,0.0423 -0.02117,0.0212 v 0.0423 l -0.02117,0.0212 -0.02117,0.0423 v 0.0212 l -0.02117,0.0423 v 0.127 l -0.02117,0.0423 0.02117,0.0423 v 0.14817 l 0.02117,0.0212 v 0.0423 l 0.02117,0.0212 0.02117,0.0423 v 0.0212 l 0.02117,0.0423 0.04233,0.0423 0.02117,0.0423 0.127,0.127 0.04233,0.0212 0.02117,0.0212 h 0.02117 l 0.04233,0.0212 0.02117,0.0212 h 0.04233 l 0.02117,0.0212 h 0.0635 l 0.04233,0.0212 h 0.127 l 0.04233,-0.0212 h 0.0635 l 0.02117,-0.0212 h 0.04233 l 0.04233,-0.0423 h 0.04233 l 0.04233,-0.0423 0.04233,-0.0212 0.105833,-0.10583 0.02117,-0.0423 0.04233,-0.0423 v -0.0423 l 0.02117,-0.0212 0.02117,-0.0423 v -0.0212 l 0.02117,-0.0423 v -0.0212 l 0.02117,-0.0423 v -0.29634 l -0.02117,-0.0212 v -0.0423 l -0.02117,-0.0212 v -0.0423 l -0.02117,-0.0212 -0.02117,-0.0423 v -0.0212 l -0.02117,-0.0423 -0.0635,-0.0635 -0.02117,-0.0423 -0.0635,-0.0635 c -0.103364,-0.0607 -0.162984,-0.0864 -0.275167,-0.127 h -0.127"
       style="fill:#7e7e7e;fill-opacity:1;fill-rule:evenodd;stroke:#1e1917;stroke-width:0.0211667;stroke-linecap:round;stroke-linejoin:round;stroke-miterlimit:10;stroke-dasharray:none;stroke-opacity:1" />
    <path
       id="path385"
       d="m 69.673896,112.43099 h -0.148167 l -0.02117,0.0212 h -0.04233 l -0.02117,0.0212 h -0.04233 l -0.04233,0.0423 h -0.04233 l -0.0635,0.0635 -0.04233,0.0212 -0.02117,0.0212 -0.02117,0.0423 -0.04233,0.0423 v 0.0212 l -0.02117,0.0423 -0.02117,0.0212 -0.02117,0.0423 v 0.0212 l -0.02117,0.0423 v 0.0212 l -0.02117,0.0423 v 0.0635 l -0.02117,0.0423 v 0.14817 l 0.02117,0.0212 v 0.0847 l 0.02117,0.0212 v 0.0423 l 0.02117,0.0212 v 0.0423 l 0.02117,0.0212 0.02117,0.0423 0.02117,0.0212 v 0.0212 l 0.02117,0.0423 0.0635,0.0635 0.04233,0.0212 0.0635,0.0635 0.04233,0.0212 h 0.02117 l 0.02117,0.0212 0.04233,0.0212 h 0.02117 l 0.04233,0.0212 h 0.0635 l 0.02117,0.0212 h 0.148167 l 0.02117,-0.0212 h 0.0635 l 0.04233,-0.0212 h 0.02117 l 0.04233,-0.0212 0.02117,-0.0212 h 0.02117 l 0.04233,-0.0212 0.0635,-0.0635 0.04233,-0.0212 0.0635,-0.0635 0.02117,-0.0423 v -0.0212 l 0.02117,-0.0212 0.02117,-0.0423 0.02117,-0.0212 v -0.0423 l 0.02117,-0.0212 v -0.0423 l 0.02117,-0.0212 v -0.0847 l 0.02117,-0.0212 v -0.14817 l -0.02117,-0.0423 v -0.0635 l -0.02117,-0.0423 v -0.0212 l -0.02117,-0.0423 v -0.0212 l -0.02117,-0.0423 -0.02117,-0.0212 -0.02117,-0.0423 v -0.0212 l -0.04233,-0.0423 -0.02117,-0.0423 -0.02117,-0.0212 -0.04233,-0.0212 -0.0635,-0.0635 h -0.04233 l -0.04233,-0.0423 h -0.04233 l -0.02117,-0.0212 h -0.04233 l -0.02117,-0.0212 h -0.127"
       style="fill:#7e7e7e;fill-opacity:1;fill-rule:evenodd;stroke:#1e1917;stroke-width:0.0211667;stroke-linecap:round;stroke-linejoin:round;stroke-miterlimit:10;stroke-dasharray:none;stroke-opacity:1" />
    <path
       id="path386"
       d="m 74.902433,102.27099 0.0635,0.0212 H 75.1141 c 0.649816,0.12805 1.085144,0.60889 1.143,1.27 v 0.14816 c -0.02293,0.63924 -0.579614,1.24601 -1.227667,1.27 l -0.0635,0.0212 h -0.127 c -1.697567,-0.16439 -1.721203,-2.49343 -0.08467,-2.70933 h 0.08467 l 0.0635,-0.0212"
       style="fill:#7e7e7e;fill-opacity:1;fill-rule:evenodd;stroke:#1e1917;stroke-width:0.0754944;stroke-linecap:round;stroke-linejoin:round;stroke-miterlimit:10;stroke-dasharray:none;stroke-opacity:1" />
    <path
       id="path387"
       d="m 70.478599,89.846159 h 0.148167 c 1.673225,0.283633 1.579386,2.555875 -0.08467,2.709333 h -0.127 c -1.679222,-0.160514 -1.733903,-2.460977 -0.0635,-2.709333 h 0.127"
       style="fill:#f4f015;fill-opacity:1;fill-rule:evenodd;stroke:#1e1917;stroke-width:0.0754944;stroke-linecap:round;stroke-linejoin:round;stroke-miterlimit:10;stroke-dasharray:none;stroke-opacity:1" >
       <animate
          attributeName="fill"
          values="#f4f015;#7e7e7e"
          dur="1.5s"
          calcMode="discrete"
          repeatCount="indefinite" />
    </path>
    <path
       id="path388"
       d="m 70.520562,102.33449 h 0.127 l 0.0635,0.0212 h 0.08467 c 0.304094,0.091 0.446264,0.16192 0.677333,0.381 l 0.08467,0.0847 c 0.167216,0.20955 0.294922,0.46849 0.296333,0.74084 l 0.02117,0.0635 v 0.127 c -0.06738,0.70555 -0.518231,1.19838 -1.227667,1.29116 h -0.275167 c -0.647347,-0.0818 -1.145822,-0.55456 -1.2065,-1.2065 v -0.0847 l -0.02117,-0.0635 0.02117,-0.0635 v -0.14817 l 0.02117,-0.0635 v -0.0635 l 0.04233,-0.127 0.04233,-0.0635 0.02117,-0.0635 0.02117,-0.0423 0.04233,-0.0635 0.02117,-0.0635 0.04233,-0.0423 0.04233,-0.0635 0.04233,-0.0423 c 0.279047,-0.26599 0.376767,-0.3115 0.740833,-0.42333 h 0.0635 l 0.0635,-0.0212 h 0.148167"
       style="fill:#7e7e7e;fill-opacity:1;fill-rule:evenodd;stroke:#1e1917;stroke-width:0.0754944;stroke-linecap:round;stroke-linejoin:round;stroke-miterlimit:10;stroke-dasharray:none;stroke-opacity:1" />
    <path
       id="path389"
       d="m 72.700729,96.344326 h 0.0635 l 0.08467,0.02117 c 1.625952,0.201436 1.62313,2.541763 -0.08467,2.709333 h -0.127 l -0.0635,-0.02117 h -0.08467 l -0.0635,-0.02117 h -0.0635 l -0.1905,-0.0635 -0.0635,-0.04233 -0.04233,-0.02117 -0.0635,-0.04233 -0.0635,-0.02117 -0.04233,-0.04233 -0.0635,-0.04233 -0.127,-0.127 c -0.171097,-0.204258 -0.321028,-0.445558 -0.338667,-0.719667 l -0.02117,-0.0635 v -0.211666 c 0.01517,-0.264936 0.110067,-0.533048 0.275167,-0.740834 l 0.04233,-0.04233 0.04233,-0.0635 c 0.164747,-0.180975 0.472369,-0.385939 0.719666,-0.402167 l 0.0635,-0.02117 h 0.08467 l 0.0635,-0.02117 z"
       style="fill:none;stroke:#1e1917;stroke-width:0.0754944;stroke-linecap:round;stroke-linejoin:round;stroke-miterlimit:10;stroke-dasharray:none;stroke-opacity:1" />
    <path
       id="path390"
       d="m 74.902433,89.846159 h 0.127 c 1.66758,0.258233 1.608667,2.542117 -0.0635,2.709333 h -0.148167 c -1.669344,-0.176036 -1.723319,-2.445102 -0.0635,-2.709333 h 0.148167"
       style="fill:#7e7e7e;fill-opacity:1;fill-rule:evenodd;stroke:#1e1917;stroke-width:0.0754944;stroke-linecap:round;stroke-linejoin:round;stroke-miterlimit:10;stroke-dasharray:none;stroke-opacity:1" />
  </g>
</svg>
