<?xml version="1.0" encoding="UTF-8"?>
<!-- Created with Inkscape (http://www.inkscape.org/) -->
<svg width="9.8721mm" height="32.534mm" version="1.1" viewBox="0 0 9.8721 32.534" xmlns="http://www.w3.org/2000/svg">
 <defs>
  <clipPath id="clipPath458">
   <path transform="translate(-2.5e-5 2.5e-5)" d="m227.15 418.95h27.72v18.96h-27.72z"/>
  </clipPath>
 </defs>
 <g transform="translate(-62.442 -81.756)">
  <g fill="#f4f015">
   <path d="m70.436 96.101 1.0372-1.016 0.35983 0.35983-1.0372 1.016-0.35983-0.35983"/>
   <path d="m67.748 95.17 1.0372 1.0372-0.35983 0.35983-1.0372-1.0372 0.35983-0.35983"/>
   <path d="m67.515 99.615 1.016-1.016 0.35983 0.35983-1.016 1.016-0.35983-0.35983"/>
   <path d="m70.711 98.62 1.016 1.0372-0.35983 0.35983-1.016-1.0372 0.35983-0.35983"/>
  </g>
  <g fill="#299540">
   <path d="m70.436 83.676 1.0372-1.0372 0.35983 0.35983-1.0372 1.0372-0.35983-0.35983"/>
   <path d="m67.748 82.724 1.0372 1.0372-0.35983 0.35983-1.0372-1.016 0.35983-0.381"/>
   <path d="m67.515 87.19 1.016-1.0372 0.35983 0.35983-1.016 1.0372-0.35983-0.35983"/>
   <path d="m70.711 86.195 1.016 1.016-0.35983 0.35983-1.016-1.016 0.35983-0.35983"/>
  </g>
  <path d="m66.52 114.24h1.7145v-12.298h-1.7145z" fill="#7e7e7e"/>
  <path d="m66.52 101.94h1.7145v12.298h-1.7145zm1.7145 0z" fill="none" stroke="#1e1917" stroke-linecap="round" stroke-linejoin="round" stroke-miterlimit="10" stroke-width=".099483"/>
  <path d="m62.52 109.12h9.6943v-6.4135h-9.6943z" fill="#7e7e7e"/>
  <path transform="matrix(.35278 0 0 -.35278 -17.656 257.06)" d="m227.27 437.55h27.48v-18.18h-27.48zm27.48 0z" clip-path="url(#clipPath458)" fill="none" stroke="#1e1917" stroke-linecap="round" stroke-linejoin="round" stroke-miterlimit="10" stroke-width=".564"/>
  <g fill="#7e7e7e" fill-rule="evenodd" stroke="#1e1917" stroke-linecap="round" stroke-linejoin="round" stroke-miterlimit="10">
   <g stroke-width=".021167">
    <path d="m70.542 103.38h-0.1905l-0.02117 0.0212h-0.04233l-0.02117 0.0212-0.04233 0.0212h-0.02117l-0.04233 0.0212-0.04233 0.0423-0.04233 0.0212c-0.0956 0.0868-0.1143 0.12276-0.1905 0.21166v0.0423l-0.02117 0.0212v0.0423l-0.02117 0.0212v0.0423l-0.02117 0.0212v0.21167l0.02117 0.0212v0.0423l0.02117 0.0423v0.0212l0.02117 0.0212v0.0423l0.04233 0.0423 0.02117 0.0423 0.10583 0.10583 0.02117 0.0423h0.04233l0.04233 0.0423 0.04233 0.0212 0.02117 0.0212h0.04233l0.02117 0.0212h0.04233l0.02117 0.0212h0.08467l0.04233 0.0212c0.18627 0.012 0.10089-0.0219 0.21167-0.0212h0.02117l0.04233-0.0212h0.04233l0.02117-0.0212h0.04233l0.02117-0.0212 0.04233-0.0212 0.04233-0.0423h0.02117l0.0635-0.0635c0.08043-0.0769 0.06491-0.0642 0.127-0.14816v-0.0212l0.02117-0.0423 0.02117-0.0212v-0.0212l0.02117-0.0423v-0.0635l0.02117-0.0423v-0.127l-0.02117-0.0423v-0.0635l-0.02117-0.0212v-0.0423l-0.02117-0.0212-0.02117-0.0423v-0.0212l-0.02117-0.0212-0.02117-0.0423-0.04233-0.0423c-0.08325-0.096-0.08008-0.0501-0.14817-0.127l-0.02117-0.0212-0.04233-0.0212h-0.02117l-0.04233-0.0212-0.02117-0.0212h-0.04233l-0.04233-0.0212h-0.16934"/>
    <path d="m68.51 103.38h-0.08467c-0.06879-4e-3 -0.1397 4e-3 -0.1905 0.0423l-0.04233 0.0212h-0.02117c-0.06914 0.0392-0.11677 0.067-0.16933 0.127l-0.02117 0.0212-0.04233 0.0212v0.0212l-0.02117 0.0212-0.02117 0.0423-0.04234 0.0424-0.02117 0.0423v0.0212l-0.02117 0.0423v0.0212l-0.02117 0.0423v0.254l0.02117 0.0423v0.0423l0.02117 0.0212v0.0212l0.02117 0.0423 0.04233 0.0423 0.02117 0.0423 0.02117 0.0212v0.0212l0.04233 0.0212 0.04233 0.0423 0.02117 0.0423h0.02117l0.04233 0.0212 0.02117 0.0212 0.04233 0.0212 0.02117 0.0212h0.04233l0.02117 0.0212h0.04233l0.02117 0.0212h0.0635l0.04233 0.0212h0.14817l0.04233-0.0212h0.0635l0.04233-0.0212h0.02117l0.04233-0.0212h0.02117l0.04233-0.0212 0.02117-0.0212 0.04233-0.0212 0.02117-0.0212h0.02117l0.02117-0.0423 0.04233-0.0212 0.08467-0.0847 0.02117-0.0423v-0.0212l0.02117-0.0212 0.02117-0.0423 0.02117-0.0212v-0.0635l0.02117-0.0423v-0.0635l0.02117-0.0212v-0.0635l-0.02117-0.0423v-0.0635l-0.02117-0.0423v-0.0635l-0.02117-0.0212-0.02117-0.0423-0.02117-0.0212v-0.0212l-0.02117-0.0423-0.08467-0.0847-0.04233-0.0212-0.0635-0.0635c-0.09419-0.043-0.18521-0.10936-0.29633-0.10583h-0.10582"/>
    <path d="m66.415 103.38h-0.16933l-0.02117 0.0212h-0.04233l-0.02117 0.0212-0.04233 0.0212h-0.02117l-0.02117 0.0212-0.04233 0.0212-0.16933 0.16934-0.02117 0.0423-0.02117 0.0212v0.0212l-0.02117 0.0423-0.02117 0.0212v0.0423l-0.02117 0.0212v0.14817l-0.02117 0.0212 0.02117 0.0423v0.0212c7.06e-4 0.0765-0.01129 0.12453 0.04233 0.1905l0.02117 0.0423v0.0212c0.06209 0.084 0.04657 0.0713 0.127 0.14816l0.02117 0.0212 0.02117 0.0423h0.02117l0.02117 0.0212 0.04233 0.0212 0.04233 0.0423h0.04233l0.02117 0.0212h0.04233l0.02117 0.0212h0.0635l0.04233 0.0212h0.127l0.04233-0.0212h0.0635l0.02117-0.0212h0.04233l0.02117-0.0212h0.02117l0.04233-0.0212 0.04233-0.0423 0.04233-0.0212h0.02117l0.02117-0.0423 0.04233-0.0423c0.0829-0.0593 0.09419-0.15946 0.14817-0.23284v-0.0423l0.02117-0.0423v-0.254l-0.02117-0.0423v-0.0212l-0.02117-0.0423v-0.0212l-0.02117-0.0423-0.02117-0.0212v-0.0212l-0.02117-0.0423-0.14817-0.14817-0.04233-0.0212-0.04233-0.0423h-0.04233l-0.04233-0.0423h-0.04233l-0.02117-0.0212h-0.16932"/>
    <path d="m64.383 103.38h-0.16933l-0.04233 0.0212h-0.02117l-0.04233 0.0212-0.02117 0.0212h-0.02117l-0.04233 0.0212-0.08467 0.0847-0.04233 0.0212-0.0635 0.0635v0.0212l-0.02117 0.0423-0.04234 0.0424v0.0423l-0.02117 0.0212v0.0423l-0.02117 0.0212v0.0635l-0.02117 0.0423v0.127l0.02117 0.0423v0.0635l0.02117 0.0423v0.0212l0.02117 0.0212v0.0423l0.04233 0.0423 0.02117 0.0423v0.0212l0.0635 0.0635 0.04233 0.0212 0.02117 0.0423h0.02117l0.04233 0.0423 0.04233 0.0212 0.02117 0.0212h0.02117l0.04233 0.0212h0.02117l0.04233 0.0212h0.0635l0.02117 0.0212h0.14817l0.02117-0.0212h0.0635l0.04233-0.0212h0.02117l0.04233-0.0212h0.02117l0.02117-0.0212 0.04233-0.0212 0.04233-0.0423h0.02117l0.14817-0.14816v-0.0423l0.04233-0.0423v-0.0423l0.02117-0.0212v-0.0212l0.02117-0.0423v-0.0423l0.02117-0.0212v-0.21167l-0.02117-0.0212v-0.0423l-0.02117-0.0212v-0.0423l-0.02117-0.0212v-0.0423l-0.04234-0.0424v-0.0423l-0.04233-0.0423c-0.08326-0.096-0.08008-0.0501-0.14817-0.127l-0.02117-0.0212-0.04233-0.0212h-0.02117l-0.02117-0.0212-0.04233-0.0212h-0.02117l-0.04233-0.0212h-0.14815"/>
    <path d="m70.542 106.35h-0.14817l-0.04233 0.0212h-0.02117l-0.04233 0.0212h-0.02117l-0.04233 0.0212-0.02117 0.0212h-0.04233l-0.04233 0.0423-0.04233 0.0212-0.04233 0.0423-0.02117 0.0423-0.02117 0.0212c-0.08537 0.0631-0.15769 0.28187-0.16933 0.381v0.16933l0.02117 0.0423v0.0423l0.02117 0.0212v0.0423l0.02117 0.0212v0.0423l0.02117 0.0212 0.02117 0.0423 0.04233 0.0423 0.02117 0.0423 0.08467 0.0847 0.04233 0.0212 0.04233 0.0423 0.04233 0.0212h0.02117l0.04233 0.0212 0.02117 0.0212h0.04233l0.02117 0.0212h0.08467l0.04233 0.0212h0.127l0.04233-0.0212h0.0635l0.04233-0.0212h0.04233l0.02117-0.0212 0.04233-0.0212h0.02117l0.04233-0.0212 0.0635-0.0635 0.04233-0.0212 0.0635-0.0635 0.02117-0.0423 0.04233-0.0423 0.02117-0.0423v-0.0212l0.02117-0.0423 0.02117-0.0212v-0.0423l0.02117-0.0212v-0.0847l0.02117-0.0212v-0.14817l-0.02117-0.0423v-0.0635l-0.02117-0.0423v-0.0212l-0.02117-0.0423-0.02117-0.0212v-0.0423l-0.02117-0.0212-0.02117-0.0423-0.0635-0.0635-0.02117-0.0423-0.02117-0.0212-0.04233-0.0212-0.0635-0.0635h-0.04233l-0.02117-0.0212-0.04233-0.0212h-0.02117l-0.04233-0.0212h-0.04233l-0.02117-0.0212h-0.14817"/>
    <path d="m68.51 106.35h-0.14817l-0.04233 0.0212h-0.02117l-0.04233 0.0212h-0.02117l-0.04233 0.0212-0.02117 0.0212h-0.04233l-0.02117 0.0212-0.04233 0.0212-0.0635 0.0635-0.02117 0.0423-0.04233 0.0212v0.0212c-0.19685 0.21942-0.21661 0.6223 0 0.84666v0.0423l0.04233 0.0212 0.0635 0.0635c0.05503 0.0519 0.12136 0.0804 0.1905 0.10584l0.02117 0.0212h0.04233l0.02117 0.0212h0.0635l0.04233 0.0212h0.14817l0.04233-0.0212h0.0635l0.04233-0.0212h0.02117l0.04233-0.0212 0.02117-0.0212h0.04233l0.02117-0.0212 0.04233-0.0212 0.0635-0.0635 0.04233-0.0212 0.04234-0.0424 0.02117-0.0423 0.04233-0.0423v-0.0423l0.02117-0.0212 0.02117-0.0423 0.02117-0.0212v-0.0635l0.02117-0.0423v-0.0635l0.02117-0.0423v-0.0847l-0.02117-0.0212v-0.0847l-0.02117-0.0212v-0.0635l-0.02117-0.0423-0.02117-0.0212-0.02117-0.0423v-0.0212l-0.02117-0.0423-0.02117-0.0212c-0.12136-0.13935-0.0092-0.0268-0.14817-0.14817l-0.02117-0.0212-0.04233-0.0212h-0.02117l-0.04233-0.0212-0.02117-0.0212h-0.04233l-0.02117-0.0212h-0.04233l-0.04233-0.0212h-0.127"/>
    <path d="m66.415 106.35h-0.127l-0.04233 0.0212h-0.02117l-0.04233 0.0212h-0.02117l-0.04233 0.0212-0.02117 0.0212h-0.02117l-0.04233 0.0212-0.08467 0.0847-0.02117 0.0423-0.0635 0.0635-0.02117 0.0423-0.02117 0.0212v0.0423l-0.02117 0.0212-0.02117 0.0423v0.0212l-0.02117 0.0423v0.127l-0.02117 0.0423 0.02117 0.0423v0.14817l0.02117 0.0212v0.0423l0.02117 0.0212 0.02117 0.0423v0.0212l0.02117 0.0423 0.04233 0.0423 0.02117 0.0423 0.127 0.127 0.04233 0.0212 0.02117 0.0212h0.02117l0.04233 0.0212 0.02117 0.0212h0.04233l0.02117 0.0212h0.0635l0.04233 0.0212h0.127l0.04233-0.0212h0.0635l0.02117-0.0212h0.04233l0.04233-0.0423h0.04233l0.04233-0.0423 0.04233-0.0212 0.10583-0.10583 0.02117-0.0423 0.04233-0.0423v-0.0423l0.02117-0.0212 0.02117-0.0423v-0.0212l0.02117-0.0423v-0.0212l0.02117-0.0423v-0.29634l-0.02117-0.0212v-0.0423l-0.02117-0.0212v-0.0423l-0.02117-0.0212-0.02117-0.0423v-0.0212l-0.02117-0.0423-0.0635-0.0635-0.02117-0.0423-0.0635-0.0635c-0.10336-0.0607-0.16298-0.0864-0.27517-0.127h-0.127"/>
    <path d="m64.383 106.35h-0.14817l-0.02117 0.0212h-0.04233l-0.02117 0.0212h-0.04233l-0.04233 0.0423h-0.04233l-0.0635 0.0635-0.04233 0.0212-0.02117 0.0212-0.02117 0.0423-0.04233 0.0423v0.0212l-0.02117 0.0423-0.02117 0.0212-0.02117 0.0423v0.0212l-0.02117 0.0423v0.0212l-0.02117 0.0423v0.0635l-0.02117 0.0423v0.14817l0.02117 0.0212v0.0847l0.02117 0.0212v0.0423l0.02117 0.0212v0.0423l0.02117 0.0212 0.02117 0.0423 0.02117 0.0212v0.0212l0.02117 0.0423 0.0635 0.0635 0.04233 0.0212 0.0635 0.0635 0.04233 0.0212h0.02117l0.02117 0.0212 0.04233 0.0212h0.02117l0.04233 0.0212h0.0635l0.02117 0.0212h0.14817l0.02117-0.0212h0.0635l0.04233-0.0212h0.02117l0.04233-0.0212 0.02117-0.0212h0.02117l0.04233-0.0212 0.0635-0.0635 0.04233-0.0212 0.0635-0.0635 0.02117-0.0423v-0.0212l0.02117-0.0212 0.02117-0.0423 0.02117-0.0212v-0.0423l0.02117-0.0212v-0.0423l0.02117-0.0212v-0.0847l0.02117-0.0212v-0.14817l-0.02117-0.0423v-0.0635l-0.02117-0.0423v-0.0212l-0.02117-0.0423v-0.0212l-0.02117-0.0423-0.02117-0.0212-0.02117-0.0423v-0.0212l-0.04233-0.0423-0.02117-0.0423-0.02117-0.0212-0.04233-0.0212-0.0635-0.0635h-0.04233l-0.04233-0.0423h-0.04233l-0.02117-0.0212h-0.04233l-0.02117-0.0212h-0.127"/>
   </g>
   <path d="m70.987 81.856h-7.2178l-1.2277 1.2277v19.198h9.6732v-19.198l-1.2277-1.2277" stroke-width=".19897"/>
  </g>
  <g fill="#f4f015">
   <path d="m65.208 96.313h0.14817c1.6626 0.25329 1.6097 2.5361-0.0635 2.7093h-0.14817c-1.6722-0.16757-1.7254-2.461-0.0635-2.7093h0.127" fill-rule="evenodd" stroke="#1e1917" stroke-linecap="round" stroke-linejoin="round" stroke-miterlimit="10" stroke-width=".075494"/>
   <g>
    <path d="m66.012 83.676 1.0372-1.0372 0.35983 0.35983-1.0372 1.0372-0.35983-0.35983"/>
    <path d="m63.324 82.724 1.0372 1.0372-0.35983 0.35983-1.0372-1.016 0.35983-0.381"/>
    <path d="m63.091 87.19 1.0372-1.0372 0.35983 0.35983-1.0372 1.0372-0.35983-0.35983"/>
    <path d="m66.288 86.195 1.016 1.016-0.35983 0.35983-1.016-1.016 0.35983-0.35983"/>
   </g>
   <path d="m65.187 83.761h0.14817c1.6729 0.28328 1.5797 2.5559-0.08467 2.7093h-0.127c-1.6792-0.16051-1.7339-2.461-0.0635-2.7093h0.127" fill-rule="evenodd" stroke="#1e1917" stroke-linecap="round" stroke-linejoin="round" stroke-miterlimit="10" stroke-width=".075494"/>
  </g>
  <g stroke="#1e1917" stroke-linecap="round" stroke-linejoin="round" stroke-miterlimit="10" stroke-width=".075494">
   <path d="m69.611 96.355h0.0635l0.08467 0.02117c1.6524 0.2219 1.5808 2.5622-0.08467 2.7093h-0.127c-1.6641-0.15416-1.7367-2.4797-0.08467-2.7093l0.08467-0.02117h0.0635" fill="#7e7e7e" fill-rule="evenodd"/>
   <path d="m67.409 90.259h0.0635l0.08467 0.02117c1.626 0.20144 1.6231 2.5418-0.08467 2.7093h-0.127l-0.0635-0.02117h-0.08467l-0.0635-0.02117h-0.0635l-0.1905-0.0635-0.0635-0.04233-0.04233-0.02117-0.0635-0.04233-0.0635-0.02117-0.04233-0.04233-0.0635-0.04233-0.127-0.127c-0.1711-0.20426-0.32103-0.44556-0.33867-0.71967l-0.02117-0.0635v-0.21167c0.01517-0.26494 0.11007-0.53305 0.27517-0.74083l0.04233-0.04233 0.04233-0.0635c0.16616-0.18203 0.4706-0.38488 0.71967-0.40217l0.0635-0.02117h0.08467l0.0635-0.02117z" fill="none"/>
   <path d="m69.611 83.761h0.127c1.6676 0.25823 1.6087 2.5421-0.0635 2.7093h-0.14817c-1.6693-0.17604-1.7233-2.4448-0.0635-2.7093h0.14817" fill="#7e7e7e" fill-rule="evenodd"/>
  </g>
 </g>
</svg>
