<?xml version="1.0" encoding="UTF-8"?>
<!-- Created with Inkscape (http://www.inkscape.org/) -->
<svg width="9.8721mm" height="32.535mm" version="1.1" viewBox="0 0 9.8721 32.535" xmlns="http://www.w3.org/2000/svg">
 <defs>
  <clipPath id="clipPath335">
   <path transform="translate(-2.5e-5 2.5e-5)" d="m249.77 406.29h27.72v18.96h-27.72z"/>
  </clipPath>
 </defs>
 <g transform="translate(-65.881 -88.635)">
  <g fill="#f4f015">
   <path d="m69.452 90.555 1.0372-1.0372 0.35983 0.35983-1.0372 1.0372-0.35983-0.35983"/>
   <path d="m66.763 89.603 1.0372 1.0372-0.35983 0.35983-1.0372-1.016 0.35983-0.381"/>
   <path d="m66.531 94.069 1.0372-1.0372 0.35983 0.35983-1.0372 1.0372-0.35983-0.35983"/>
   <path d="m69.727 93.074 1.016 1.016-0.35983 0.35983-1.016-1.016 0.35983-0.35983"/>
   <path d="m73.876 102.98 1.0372-1.016 0.35983 0.35983-1.0372 1.016-0.35983-0.35983"/>
   <path d="m71.188 102.05 1.0372 1.0372-0.35983 0.35983-1.0372-1.0372 0.35983-0.35983"/>
   <path d="m70.954 106.49 1.016-1.016 0.35983 0.35983-1.016 1.016-0.35983-0.35983"/>
   <path d="m74.151 105.5 1.016 1.0372-0.35983 0.35983-1.016-1.0372 0.35983-0.35983"/>
  </g>
  <path d="m69.96 121.12h1.7145v-12.298h-1.7145z" fill="#7e7e7e"/>
  <path d="m69.96 108.82h1.7145v12.298h-1.7145zm1.7149 0z" fill="none" stroke="#1e1917" stroke-linecap="round" stroke-linejoin="round" stroke-miterlimit="10" stroke-width=".099483"/>
  <path d="m65.959 116h9.6943v-6.4135h-9.6943z" fill="#7e7e7e"/>
  <path transform="matrix(.35278 0 0 -.35278 -22.196 259.48)" d="m249.89 424.89h27.48v-18.18h-27.48zm27.481 0z" clip-path="url(#clipPath335)" fill="none" stroke="#1e1917" stroke-linecap="round" stroke-linejoin="round" stroke-miterlimit="10" stroke-width=".564"/>
  <g fill="#f4f015" fill-rule="evenodd" stroke="#1e1917" stroke-linecap="round" stroke-linejoin="round" stroke-miterlimit="10" stroke-width=".021167">
   <path d="m73.982 110.26h-0.1905l-0.02117 0.0212h-0.04233l-0.02117 0.0212-0.04233 0.0212h-0.02117l-0.04233 0.0212-0.04233 0.0423-0.04233 0.0212c-0.0956 0.0868-0.1143 0.12276-0.1905 0.21166v0.0423l-0.02117 0.0212v0.0423l-0.02117 0.0212v0.0423l-0.02117 0.0212v0.21167l0.02117 0.0212v0.0423l0.02117 0.0423v0.0212l0.02117 0.0212v0.0423l0.04233 0.0423 0.02117 0.0423 0.10583 0.10583 0.02117 0.0423h0.04233l0.04233 0.0423 0.04233 0.0212 0.02117 0.0212h0.04233l0.02117 0.0212h0.04233l0.02117 0.0212h0.08467l0.04233 0.0212c0.18627 0.012 0.10089-0.0219 0.21167-0.0212h0.02117l0.04233-0.0212h0.04233l0.02117-0.0212h0.04233l0.02117-0.0212 0.04233-0.0212 0.04233-0.0423h0.02117l0.0635-0.0635c0.08043-0.0769 0.06491-0.0642 0.127-0.14816v-0.0212l0.02117-0.0423 0.02117-0.0212v-0.0212l0.02117-0.0423v-0.0635l0.02117-0.0423v-0.127l-0.02117-0.0423v-0.0635l-0.02117-0.0212v-0.0423l-0.02117-0.0212-0.02117-0.0423v-0.0212l-0.02117-0.0212-0.02117-0.0423-0.04233-0.0423c-0.08325-0.096-0.08008-0.0501-0.14817-0.127l-0.02117-0.0212-0.04233-0.0212h-0.02117l-0.04233-0.0212-0.02117-0.0212h-0.04233l-0.04233-0.0212h-0.16933"/>
   <path d="m71.95 110.26h-0.08467c-0.06879-4e-3 -0.1397 4e-3 -0.1905 0.0423l-0.04233 0.0212h-0.02117c-0.06914 0.0392-0.11677 0.067-0.16933 0.127l-0.02117 0.0212-0.04233 0.0212v0.0212l-0.02117 0.0212-0.02117 0.0423-0.04233 0.0423-0.02117 0.0423v0.0212l-0.02117 0.0423v0.0212l-0.02117 0.0423v0.254l0.02117 0.0423v0.0423l0.02117 0.0212v0.0212l0.02117 0.0423 0.04234 0.0424 0.02117 0.0423 0.02117 0.0212v0.0212l0.04233 0.0212 0.04233 0.0423 0.02117 0.0423h0.02117l0.04233 0.0212 0.02117 0.0212 0.04233 0.0212 0.02117 0.0212h0.04233l0.02117 0.0212h0.04233l0.02117 0.0212h0.0635l0.04233 0.0212h0.14817l0.04233-0.0212h0.0635l0.04233-0.0212h0.02117l0.04233-0.0212h0.02117l0.04233-0.0212 0.02117-0.0212 0.04233-0.0212 0.02117-0.0212h0.02117l0.02117-0.0423 0.04233-0.0212 0.08467-0.0847 0.02117-0.0423v-0.0212l0.02117-0.0212 0.02117-0.0423 0.02117-0.0212v-0.0635l0.02117-0.0423v-0.0635l0.02117-0.0212v-0.0635l-0.02117-0.0423v-0.0635l-0.02117-0.0423v-0.0635l-0.02117-0.0212-0.02117-0.0423-0.02117-0.0212v-0.0212l-0.02117-0.0423-0.08467-0.0847-0.04233-0.0212-0.0635-0.0635c-0.09419-0.043-0.18521-0.10936-0.29633-0.10583h-0.10583"/>
   <path d="m69.854 110.26h-0.16933l-0.02117 0.0212h-0.04233l-0.02117 0.0212-0.04233 0.0212h-0.02117l-0.02117 0.0212-0.04233 0.0212-0.16933 0.16934-0.02117 0.0423-0.02117 0.0212v0.0212l-0.02117 0.0423-0.02117 0.0212v0.0423l-0.02117 0.0212v0.14817l-0.02117 0.0212 0.02117 0.0423v0.0212c7.06e-4 0.0765-0.01129 0.12453 0.04233 0.1905l0.02117 0.0423v0.0212c0.06209 0.084 0.04657 0.0713 0.127 0.14816l0.02117 0.0212 0.02117 0.0423h0.02117l0.02117 0.0212 0.04233 0.0212 0.04233 0.0423h0.04233l0.02117 0.0212h0.04233l0.02117 0.0212h0.0635l0.04233 0.0212h0.127l0.04233-0.0212h0.0635l0.02117-0.0212h0.04233l0.02117-0.0212h0.02117l0.04233-0.0212 0.04233-0.0423 0.04233-0.0212h0.02117l0.02117-0.0423 0.04233-0.0423c0.0829-0.0593 0.09419-0.15946 0.14817-0.23284v-0.0423l0.02117-0.0423v-0.254l-0.02117-0.0423v-0.0212l-0.02117-0.0423v-0.0212l-0.02117-0.0423-0.02117-0.0212v-0.0212l-0.02117-0.0423-0.14817-0.14817-0.04233-0.0212-0.04234-0.0424h-0.04233l-0.04233-0.0423h-0.04233l-0.02117-0.0212h-0.16933"/>
   <path d="m67.822 110.26h-0.16933l-0.04233 0.0212h-0.02117l-0.04233 0.0212-0.02117 0.0212h-0.02117l-0.04233 0.0212-0.08467 0.0847-0.04233 0.0212-0.0635 0.0635v0.0212l-0.02117 0.0423-0.04233 0.0423v0.0423l-0.02117 0.0212v0.0423l-0.02117 0.0212v0.0635l-0.02117 0.0423v0.127l0.02117 0.0423v0.0635l0.02117 0.0423v0.0212l0.02117 0.0212v0.0423l0.04233 0.0423 0.02117 0.0423v0.0212l0.0635 0.0635 0.04233 0.0212 0.02117 0.0423h0.02117l0.04233 0.0423 0.04233 0.0212 0.02117 0.0212h0.02117l0.04233 0.0212h0.02117l0.04233 0.0212h0.0635l0.02117 0.0212h0.14817l0.02117-0.0212h0.0635l0.04233-0.0212h0.02117l0.04233-0.0212h0.02117l0.02117-0.0212 0.04233-0.0212 0.04233-0.0423h0.02117l0.14817-0.14816v-0.0423l0.04233-0.0423v-0.0423l0.02117-0.0212v-0.0212l0.02117-0.0423v-0.0423l0.02117-0.0212v-0.21167l-0.02117-0.0212v-0.0423l-0.02117-0.0212v-0.0423l-0.02117-0.0212v-0.0423l-0.04234-0.0424v-0.0423l-0.04234-0.0424c-0.08326-0.096-0.08008-0.0501-0.14817-0.127l-0.02117-0.0212-0.04233-0.0212h-0.02117l-0.02117-0.0212-0.04233-0.0212h-0.02117l-0.04233-0.0212h-0.14817"/>
  </g>
  <g fill="#7e7e7e" fill-rule="evenodd" stroke="#1e1917" stroke-linecap="round" stroke-linejoin="round" stroke-miterlimit="10">
   <g stroke-width=".021167">
    <path d="m73.982 113.23h-0.14817l-0.04233 0.0212h-0.02117l-0.04233 0.0212h-0.02117l-0.04233 0.0212-0.02117 0.0212h-0.04233l-0.04233 0.0423-0.04233 0.0212-0.04233 0.0423-0.02117 0.0423-0.02117 0.0212c-0.08537 0.0631-0.15769 0.28187-0.16933 0.381v0.16933l0.02117 0.0423v0.0423l0.02117 0.0212v0.0423l0.02117 0.0212v0.0423l0.02117 0.0212 0.02117 0.0423 0.04233 0.0423 0.02117 0.0423 0.08467 0.0847 0.04233 0.0212 0.04233 0.0423 0.04233 0.0212h0.02117l0.04233 0.0212 0.02117 0.0212h0.04233l0.02117 0.0212h0.08467l0.04233 0.0212h0.127l0.04233-0.0212h0.0635l0.04233-0.0212h0.04233l0.02117-0.0212 0.04233-0.0212h0.02117l0.04233-0.0212 0.0635-0.0635 0.04233-0.0212 0.0635-0.0635 0.02117-0.0423 0.04234-0.0424 0.02117-0.0423v-0.0212l0.02117-0.0423 0.02117-0.0212v-0.0423l0.02117-0.0212v-0.0847l0.02117-0.0212v-0.14817l-0.02117-0.0423v-0.0635l-0.02117-0.0423v-0.0212l-0.02117-0.0423-0.02117-0.0212v-0.0423l-0.02117-0.0212-0.02117-0.0423-0.0635-0.0635-0.02117-0.0423-0.02117-0.0212-0.04233-0.0212-0.0635-0.0635h-0.04233l-0.02117-0.0212-0.04233-0.0212h-0.02117l-0.04233-0.0212h-0.04233l-0.02117-0.0212h-0.14817"/>
    <path d="m71.95 113.23h-0.14817l-0.04233 0.0212h-0.02117l-0.04233 0.0212h-0.02117l-0.04233 0.0212-0.02117 0.0212h-0.04233l-0.02117 0.0212-0.04233 0.0212-0.0635 0.0635-0.02117 0.0423-0.04233 0.0212v0.0212c-0.19685 0.21942-0.21661 0.6223 0 0.84666v0.0423l0.04233 0.0212 0.0635 0.0635c0.05503 0.0519 0.12171 0.0804 0.1905 0.10584l0.02117 0.0212h0.04233l0.02117 0.0212h0.0635l0.04233 0.0212h0.14817l0.04233-0.0212h0.0635l0.04233-0.0212h0.02117l0.04233-0.0212 0.02117-0.0212h0.04233l0.02117-0.0212 0.04233-0.0212 0.0635-0.0635 0.04233-0.0212 0.04233-0.0423 0.02117-0.0423 0.04233-0.0423v-0.0423l0.02117-0.0212 0.02117-0.0423 0.02117-0.0212v-0.0635l0.02117-0.0423v-0.0635l0.02117-0.0423v-0.0847l-0.02117-0.0212v-0.0847l-0.02117-0.0212v-0.0635l-0.02117-0.0423-0.02117-0.0212-0.02117-0.0423v-0.0212l-0.02117-0.0423-0.02117-0.0212c-0.12136-0.139-0.0092-0.0268-0.14817-0.14817l-0.02117-0.0212-0.04233-0.0212h-0.02117l-0.04233-0.0212-0.02117-0.0212h-0.04233l-0.02117-0.0212h-0.04233l-0.04233-0.0212h-0.127"/>
    <path d="m69.854 113.23h-0.127l-0.04233 0.0212h-0.02117l-0.04233 0.0212h-0.02117l-0.04233 0.0212-0.02117 0.0212h-0.02117l-0.04233 0.0212-0.08467 0.0847-0.02117 0.0423-0.0635 0.0635-0.02117 0.0423-0.02117 0.0212v0.0423l-0.02117 0.0212-0.02117 0.0423v0.0212l-0.02117 0.0423v0.127l-0.02117 0.0423 0.02117 0.0423v0.14817l0.02117 0.0212v0.0423l0.02117 0.0212 0.02117 0.0423v0.0212l0.02117 0.0423 0.04233 0.0423 0.02117 0.0423 0.0635 0.0635 0.02117 0.0212 0.04233 0.0423 0.04233 0.0212 0.02117 0.0212h0.02117l0.04233 0.0212 0.02117 0.0212h0.04233l0.02117 0.0212h0.0635l0.04233 0.0212h0.127l0.04233-0.0212h0.0635l0.02117-0.0212h0.04233l0.04234-0.0424h0.04233l0.04233-0.0423 0.04233-0.0212 0.10583-0.10583 0.02117-0.0423 0.04234-0.0424v-0.0423l0.02117-0.0212 0.02117-0.0423v-0.0212l0.02117-0.0423v-0.0212l0.02117-0.0423v-0.29634l-0.02117-0.0212v-0.0423l-0.02117-0.0212v-0.0423l-0.02117-0.0212-0.02117-0.0423v-0.0212l-0.02117-0.0423-0.0635-0.0635-0.02117-0.0423-0.0635-0.0635c-0.10336-0.0607-0.16298-0.0864-0.27517-0.127h-0.127"/>
    <path d="m67.822 113.23h-0.14817l-0.02117 0.0212h-0.04233l-0.02117 0.0212h-0.04233l-0.04233 0.0423h-0.04233l-0.0635 0.0635-0.04233 0.0212-0.02117 0.0212-0.02117 0.0423-0.04233 0.0423v0.0212l-0.02117 0.0423-0.02117 0.0212-0.02117 0.0423v0.0212l-0.02117 0.0423v0.0212l-0.02117 0.0423v0.0635l-0.02117 0.0423v0.14817l0.02117 0.0212v0.0847l0.02117 0.0212v0.0423l0.02117 0.0212v0.0423l0.02117 0.0212 0.02117 0.0423 0.02117 0.0212v0.0212l0.02117 0.0423 0.0635 0.0635 0.04233 0.0212 0.0635 0.0635 0.04233 0.0212h0.02117l0.02117 0.0212 0.04233 0.0212h0.02117l0.04233 0.0212h0.0635l0.02117 0.0212h0.14817l0.02117-0.0212h0.0635l0.04233-0.0212h0.02117l0.04233-0.0212 0.02117-0.0212h0.02117l0.04233-0.0212 0.0635-0.0635 0.04233-0.0212 0.0635-0.0635 0.02117-0.0423v-0.0212l0.02117-0.0212 0.02117-0.0423 0.02117-0.0212v-0.0423l0.02117-0.0212v-0.0423l0.02117-0.0212v-0.0847l0.02117-0.0212v-0.14817l-0.02117-0.0423v-0.0635l-0.02117-0.0423v-0.0212l-0.02117-0.0423v-0.0212l-0.02117-0.0423-0.02117-0.0212-0.02117-0.0423v-0.0212l-0.04233-0.0423-0.02117-0.0423-0.02117-0.0212-0.04233-0.0212-0.0635-0.0635h-0.04233l-0.04233-0.0423h-0.04233l-0.02117-0.0212h-0.04233l-0.02117-0.0212h-0.127"/>
   </g>
   <path d="m74.426 88.735h-7.2178l-1.2277 1.2277v19.198h9.6732v-19.198l-1.2277-1.2277" stroke-width=".19897"/>
  </g>
  <g fill-rule="evenodd" stroke="#1e1917" stroke-linecap="round" stroke-linejoin="round" stroke-miterlimit="10" stroke-width=".075494">
   <path d="m68.647 103.06 0.08467 0.0212h0.127l0.127 0.0423h0.08467l0.0635 0.0212 0.04233 0.0423 0.127 0.0423 0.0635 0.0423 0.04233 0.0212 0.0635 0.0423 0.04233 0.0423 0.0635 0.0423 0.08467 0.0847 0.04233 0.0635c0.15804 0.17639 0.29316 0.48189 0.29633 0.71967l0.02117 0.0635v0.14816l-0.02117 0.0635c0.0018 0.26564-0.13053 0.52035-0.29633 0.71967l-0.04233 0.0635-0.08467 0.0847-0.0635 0.0423-0.04233 0.0423-0.0635 0.0423-0.04233 0.0212-0.0635 0.0423-0.0635 0.0212-0.0635 0.0423-0.04233 0.0212-0.0635 0.0212-0.08467 0.0212h-0.0635l-0.0635 0.0212h-0.0635l-0.0635 0.0212h-0.14817l-0.0635-0.0212c-0.61524-0.0275-1.179-0.59125-1.2065-1.2065l-0.02117-0.0635v-0.0635c0.02328-0.6925 0.47554-1.2379 1.1642-1.3547h0.127l0.0635-0.0212" fill="#f4f015"/>
   <path d="m68.627 90.64h0.14817c1.6729 0.28328 1.5797 2.5559-0.08467 2.7093h-0.127c-1.6792-0.16051-1.7339-2.461-0.0635-2.7093h0.127" fill="#7e7e7e"/>
   <path d="m73.05 103.02h0.14817c1.6499 0.25082 1.5861 2.5622-0.08467 2.7093h-0.127c-1.6679-0.14852-1.7325-2.4571-0.08467-2.7093h0.14817" fill="#7e7e7e"/>
  </g>
  <path d="m70.849 97.138h0.0635l0.08467 0.02117c1.626 0.20144 1.6231 2.5418-0.08467 2.7093h-0.127l-0.0635-0.02117h-0.08467l-0.0635-0.02117h-0.0635l-0.1905-0.0635-0.0635-0.04233-0.04233-0.02117-0.0635-0.04233-0.0635-0.02117-0.04233-0.04233-0.0635-0.04233-0.127-0.127c-0.1711-0.20426-0.32103-0.44556-0.33867-0.71967l-0.02117-0.0635v-0.21167c0.01517-0.26494 0.11007-0.53305 0.27517-0.74083l0.04233-0.04233 0.04233-0.0635c0.16475-0.18098 0.47237-0.38594 0.71967-0.40217l0.0635-0.02117h0.08467l0.0635-0.02117z" fill="none" stroke="#1e1917" stroke-linecap="round" stroke-linejoin="round" stroke-miterlimit="10" stroke-width=".075494"/>
  <g fill="#299540">
   <g>
    <path d="m73.876 90.555 1.0372-1.0372 0.35983 0.35983-1.0372 1.0372-0.35983-0.35983"/>
    <path d="m71.188 89.603 1.0372 1.0372-0.35983 0.35983-1.0372-1.016 0.35983-0.381"/>
    <path d="m70.954 94.069 1.016-1.0372 0.35983 0.35983-1.016 1.0372-0.35983-0.35983"/>
    <path d="m74.151 93.074 1.016 1.016-0.35983 0.35983-1.016-1.016 0.35983-0.35983"/>
   </g>
   <path d="m73.05 90.64h0.127c1.6676 0.25823 1.6087 2.5421-0.0635 2.7093h-0.14817c-1.6693-0.17604-1.7233-2.4451-0.0635-2.7093h0.14817" fill-rule="evenodd" stroke="#1e1917" stroke-linecap="round" stroke-linejoin="round" stroke-miterlimit="10" stroke-width=".075494"/>
  </g>
 </g>
</svg>
