<?xml version="1.0" encoding="UTF-8" standalone="no"?>
<!-- Created with Inkscape (http://www.inkscape.org/) -->

<svg
   width="9.8933001mm"
   height="32.513062mm"
   viewBox="0 0 9.8932999 32.513063"
   version="1.1"
   id="svg1"
   xmlns="http://www.w3.org/2000/svg"
   xmlns:svg="http://www.w3.org/2000/svg">
  <defs
     id="defs1">
    <clipPath
       clipPathUnits="userSpaceOnUse"
       id="clipPath53">
      <path
         d="m 285.78,203.54 h 5.4 v 39.12 h -5.4 z"
         transform="translate(-290.88001,-242.42001)"
         id="path53" />
    </clipPath>
    <clipPath
       clipPathUnits="userSpaceOnUse"
       id="clipPath55">
      <path
         d="m 285.78,203.54 h 5.4 v 39.12 h -5.4 z"
         transform="translate(-290.88001,-242.42001)"
         id="path55" />
    </clipPath>
    <clipPath
       clipPathUnits="userSpaceOnUse"
       id="clipPath80">
      <path
         d="m 308.4,612.26 h 5.46 v 39.12 h -5.46 z"
         transform="translate(-313.56003,-651.14002)"
         id="path80" />
    </clipPath>
    <clipPath
       clipPathUnits="userSpaceOnUse"
       id="clipPath82">
      <path
         d="m 308.4,612.26 h 5.46 v 39.12 h -5.46 z"
         transform="translate(-313.56003,-651.14002)"
         id="path82" />
    </clipPath>
    <clipPath
       clipPathUnits="userSpaceOnUse"
       id="clipPath53-8">
      <path
         d="m 285.78,203.54 h 5.4 v 39.12 h -5.4 z"
         transform="translate(-290.88001,-242.42001)"
         id="path53-4" />
    </clipPath>
    <clipPath
       clipPathUnits="userSpaceOnUse"
       id="clipPath55-6">
      <path
         d="m 285.78,203.54 h 5.4 v 39.12 h -5.4 z"
         transform="translate(-290.88001,-242.42001)"
         id="path55-8" />
    </clipPath>
    <clipPath
       clipPathUnits="userSpaceOnUse"
       id="clipPath80-9">
      <path
         d="m 308.4,612.26 h 5.46 v 39.12 h -5.46 z"
         transform="translate(-313.56003,-651.14002)"
         id="path80-5" />
    </clipPath>
    <clipPath
       clipPathUnits="userSpaceOnUse"
       id="clipPath82-9">
      <path
         d="m 308.4,612.26 h 5.46 v 39.12 h -5.46 z"
         transform="translate(-313.56003,-651.14002)"
         id="path82-2" />
    </clipPath>
    <clipPath
       clipPathUnits="userSpaceOnUse"
       id="clipPath96">
      <path
         d="m 346.8,418.16 h 5.94 v 43.26 h -5.94 z"
         transform="translate(-352.44003,-461.18001)"
         id="path96" />
    </clipPath>
    <clipPath
       clipPathUnits="userSpaceOnUse"
       id="clipPath98">
      <path
         d="m 346.8,418.16 h 5.94 v 43.26 h -5.94 z"
         transform="translate(-352.44003,-461.18001)"
         id="path98" />
    </clipPath>
    <clipPath
       clipPathUnits="userSpaceOnUse"
       id="clipPath109">
      <path
         d="m 269.52,418.16 h 5.94 v 43.26 h -5.94 z"
         transform="translate(-275.16003,-461.18001)"
         id="path109" />
    </clipPath>
    <clipPath
       clipPathUnits="userSpaceOnUse"
       id="clipPath111">
      <path
         d="m 269.52,418.16 h 5.94 v 43.26 h -5.94 z"
         transform="translate(-275.16003,-461.18001)"
         id="path111" />
    </clipPath>
    <clipPath
       clipPathUnits="userSpaceOnUse"
       id="clipPath96-2">
      <path
         d="m 346.8,418.16 h 5.94 v 43.26 h -5.94 z"
         transform="translate(-352.44003,-461.18001)"
         id="path96-9" />
    </clipPath>
    <clipPath
       clipPathUnits="userSpaceOnUse"
       id="clipPath98-4">
      <path
         d="m 346.8,418.16 h 5.94 v 43.26 h -5.94 z"
         transform="translate(-352.44003,-461.18001)"
         id="path98-2" />
    </clipPath>
    <clipPath
       clipPathUnits="userSpaceOnUse"
       id="clipPath109-5">
      <path
         d="m 269.52,418.16 h 5.94 v 43.26 h -5.94 z"
         transform="translate(-275.16003,-461.18001)"
         id="path109-8" />
    </clipPath>
    <clipPath
       clipPathUnits="userSpaceOnUse"
       id="clipPath111-0">
      <path
         d="m 269.52,418.16 h 5.94 v 43.26 h -5.94 z"
         transform="translate(-275.16003,-461.18001)"
         id="path111-0" />
    </clipPath>
    <clipPath
       clipPathUnits="userSpaceOnUse"
       id="clipPath134">
      <path
         d="m 308.16,161.54 h 5.94 v 43.26 h -5.94 z"
         transform="translate(-313.80003,-204.56001)"
         id="path134" />
    </clipPath>
    <clipPath
       clipPathUnits="userSpaceOnUse"
       id="clipPath136">
      <path
         d="m 308.16,161.54 h 5.94 v 43.26 h -5.94 z"
         transform="translate(-313.80003,-204.56001)"
         id="path136" />
    </clipPath>
    <clipPath
       clipPathUnits="userSpaceOnUse"
       id="clipPath36">
      <path
         d="m 261,574.04 h 5.4 v 35.22 H 261 Z"
         transform="translate(-266.10001,-609.02002)"
         id="path36" />
    </clipPath>
    <clipPath
       clipPathUnits="userSpaceOnUse"
       id="clipPath38">
      <path
         d="m 261,574.04 h 5.4 v 35.22 H 261 Z"
         transform="translate(-266.10001,-609.02002)"
         id="path38" />
    </clipPath>
    <clipPath
       clipPathUnits="userSpaceOnUse"
       id="clipPath41">
      <path
         d="m 249.78,588.26 h 27.72 v 18.96 h -27.72 z"
         transform="translate(-277.38001,-606.86002)"
         id="path41" />
    </clipPath>
    <clipPath
       clipPathUnits="userSpaceOnUse"
       id="clipPath43">
      <path
         d="m 249.78,588.26 h 27.72 v 18.96 h -27.72 z"
         transform="translate(-277.38001,-606.86002)"
         id="path43" />
    </clipPath>
    <clipPath
       clipPathUnits="userSpaceOnUse"
       id="clipPath81">
      <path
         d="m 261,395.54 h 5.4 V 430.7 H 261 Z"
         transform="translate(-266.10001,-430.46001)"
         id="path81" />
    </clipPath>
    <clipPath
       clipPathUnits="userSpaceOnUse"
       id="clipPath83">
      <path
         d="m 261,395.54 h 5.4 V 430.7 H 261 Z"
         transform="translate(-266.10001,-430.46001)"
         id="path83" />
    </clipPath>
    <clipPath
       clipPathUnits="userSpaceOnUse"
       id="clipPath86">
      <path
         d="m 249.78,409.7 h 27.72 v 19.02 h -27.72 z"
         transform="translate(-277.38001,-428.36001)"
         id="path86" />
    </clipPath>
    <clipPath
       clipPathUnits="userSpaceOnUse"
       id="clipPath88">
      <path
         d="m 249.78,409.7 h 27.72 v 19.02 h -27.72 z"
         transform="translate(-277.38001,-428.36001)"
         id="path88" />
    </clipPath>
    <clipPath
       clipPathUnits="userSpaceOnUse"
       id="clipPath182">
      <path
         d="m 227.09,591.81 h 27.78 v 18.96 h -27.78 z"
         transform="translate(-2.5000001e-6,2.5000001e-5)"
         id="path182" />
    </clipPath>
    <clipPath
       clipPathUnits="userSpaceOnUse"
       id="clipPath215">
      <path
         d="m 227.09,404.009 h 27.78 v 18.96 h -27.78 z"
         transform="translate(-2.5000001e-6,2.5000001e-5)"
         id="path215" />
    </clipPath>
  </defs>
  <g
     id="layer1"
     transform="translate(-83.343726,-99.218769)">
    <path
       id="path203"
       d="m 86.935709,101.13858 1.016,-1.03717 0.359833,0.35984 -1.016,1.03716 -0.359833,-0.35983"
       style="fill:#f4f015;fill-opacity:1;fill-rule:nonzero;stroke:none;stroke-width:0.352778" />
    <path
       id="path204"
       d="m 84.226375,100.18608 1.037167,1.03717 -0.359834,0.35983 -1.037166,-1.03717 0.359833,-0.35983"
       style="fill:#f4f015;fill-opacity:1;fill-rule:nonzero;stroke:none;stroke-width:0.352778" />
    <path
       id="path205"
       d="m 83.993542,104.63108 1.037167,-1.016 0.359833,0.35983 -1.037167,1.016 -0.359833,-0.35983"
       style="fill:#f4f015;fill-opacity:1;fill-rule:nonzero;stroke:none;stroke-width:0.352778" />
    <path
       id="path206"
       d="m 87.189709,103.63625 1.037167,1.03717 -0.359834,0.35983 -1.037166,-1.03717 0.359833,-0.35983"
       style="fill:#f4f015;fill-opacity:1;fill-rule:nonzero;stroke:none;stroke-width:0.352778" />
    <path
       id="path207"
       d="m 91.359542,113.56342 1.016,-1.03717 0.381,0.35984 -1.037167,1.03716 -0.359833,-0.35983"
       style="fill:#f4f015;fill-opacity:1;fill-rule:nonzero;stroke:none;stroke-width:0.352778" />
    <path
       id="path208"
       d="m 88.671375,112.63208 1.016,1.016 -0.359833,0.35983 -1.037167,-1.016 0.381,-0.35983"
       style="fill:#f4f015;fill-opacity:1;fill-rule:nonzero;stroke:none;stroke-width:0.352778" />
    <path
       id="path209"
       d="m 88.417375,117.07708 1.037167,-1.03717 0.359833,0.35984 -1.037167,1.03716 -0.359833,-0.35983"
       style="fill:#f4f015;fill-opacity:1;fill-rule:nonzero;stroke:none;stroke-width:0.352778" />
    <path
       id="path210"
       d="m 91.613542,116.08225 1.037167,1.016 -0.359834,0.35983 -1.037166,-1.016 0.359833,-0.35983"
       style="fill:#f4f015;fill-opacity:1;fill-rule:nonzero;stroke:none;stroke-width:0.352778" />
    <path
       id="path211"
       d="m 87.422548,131.68245 h 1.735667 v -12.27667 h -1.735667 z"
       style="fill:#7e7e7e;fill-opacity:1;fill-rule:nonzero;stroke:none;stroke-width:0.352778" />
    <path
       id="path212"
       d="m 87.422548,119.40543 h 1.735667 v 12.27666 h -1.735667 z m 1.735667,0 z"
       style="fill:none;stroke:#1e1917;stroke-width:0.0994833;stroke-linecap:round;stroke-linejoin:round;stroke-miterlimit:10;stroke-dasharray:none;stroke-opacity:1" />
    <path
       id="path213"
       d="m 83.422049,126.56011 h 9.715499 v -6.4135 h -9.715499 z"
       style="fill:#7e7e7e;fill-opacity:1;fill-rule:nonzero;stroke:none;stroke-width:0.352778" />
    <path
       id="path214"
       d="m 227.21,422.609 h 27.54 v -18.18 h -27.54 z m 27.54,0 z"
       style="fill:none;stroke:#1e1917;stroke-width:0.564;stroke-linecap:round;stroke-linejoin:round;stroke-miterlimit:10;stroke-dasharray:none;stroke-opacity:1"
       transform="matrix(0.35277776,0,0,-0.35277776,3.2674137,269.23367)"
       clip-path="url(#clipPath215)" />
    <path
       id="path216"
       d="m 91.465375,120.82394 h -0.105833 l -0.04233,0.0212 h -0.0635 l -0.04233,0.0212 h -0.02117 l -0.04233,0.0212 -0.02117,0.0212 c -0.07902,-0.005 -0.135466,0.0765 -0.1905,0.127 l -0.02117,0.0212 -0.04233,0.0212 v 0.0423 l -0.04233,0.0423 -0.02117,0.0423 -0.02117,0.0212 v 0.0423 l -0.02117,0.0212 v 0.0635 l -0.02117,0.0423 v 0.1905 l 0.02117,0.0423 v 0.0635 l 0.02117,0.0212 v 0.0423 l 0.02117,0.0212 0.02117,0.0423 0.04233,0.0423 v 0.0212 l 0.04233,0.0212 0.02117,0.0423 0.08467,0.0847 0.04233,0.0212 h 0.02117 l 0.04233,0.0212 0.02117,0.0212 h 0.04233 l 0.02117,0.0212 0.04233,0.0212 h 0.0635 l 0.04233,0.0212 h 0.211666 l 0.04233,-0.0212 h 0.0635 l 0.02117,-0.0212 0.04233,-0.0212 h 0.04233 l 0.04233,-0.0423 h 0.04233 l 0.04233,-0.0423 0.04233,-0.0212 0.04233,-0.0423 0.02117,-0.0423 0.08467,-0.0847 v -0.0423 l 0.02117,-0.0212 0.02117,-0.0423 v -0.0212 l 0.02117,-0.0423 v -0.0635 l 0.02117,-0.0212 v -0.14816 l -0.02117,-0.0212 v -0.0635 l -0.02117,-0.0423 v -0.0212 l -0.02117,-0.0423 -0.02117,-0.0212 v -0.0423 l -0.04233,-0.0423 c -0.03069,-0.0773 -0.108303,-0.12171 -0.169334,-0.16933 l -0.02117,-0.0212 -0.04233,-0.0212 h -0.02117 l -0.02117,-0.0212 -0.04233,-0.0212 h -0.04233 l -0.02117,-0.0212 h -0.0635 l -0.04233,-0.0212 h -0.105833"
       style="fill:#7e7e7e;fill-opacity:1;fill-rule:evenodd;stroke:#1e1917;stroke-width:0.0211667;stroke-linecap:round;stroke-linejoin:round;stroke-miterlimit:10;stroke-dasharray:none;stroke-opacity:1" />
    <path
       id="path217"
       d="m 89.412208,120.82394 h -0.105833 l -0.04233,0.0212 h -0.0635 l -0.02117,0.0212 h -0.04233 l -0.02117,0.0212 -0.04233,0.0212 h -0.02117 l -0.04233,0.0212 -0.04233,0.0423 -0.04233,0.0212 -0.08467,0.0847 -0.02117,0.0423 -0.04233,0.0423 v 0.0423 l -0.02117,0.0212 -0.02117,0.0423 v 0.0212 l -0.02117,0.0423 v 0.0847 l -0.02117,0.0423 v 0.0635 l 0.02117,0.0423 v 0.0847 l 0.02117,0.0423 v 0.0212 l 0.02117,0.0423 0.02117,0.0212 v 0.0423 l 0.08467,0.0847 0.02117,0.0423 0.04233,0.0423 0.04233,0.0212 0.04233,0.0423 h 0.04233 l 0.02117,0.0212 0.04233,0.0212 h 0.02117 l 0.04233,0.0212 0.02117,0.0212 h 0.0635 l 0.04233,0.0212 h 0.211666 l 0.04233,-0.0212 h 0.0635 l 0.08467,-0.0423 h 0.02117 l 0.02117,-0.0212 0.04233,-0.0212 h 0.02117 l 0.04233,-0.0212 0.127,-0.127 v -0.0212 c 0.192969,-0.14887 0.19685,-0.57079 0.04233,-0.74083 l -0.02117,-0.0212 -0.02117,-0.0423 v -0.0212 l -0.04233,-0.0212 -0.08467,-0.0847 -0.04233,-0.0212 -0.02117,-0.0212 h -0.04233 l -0.04233,-0.0423 h -0.04233 l -0.04233,-0.0212 h -0.0635 l -0.04233,-0.0212 h -0.105833"
       style="fill:#7e7e7e;fill-opacity:1;fill-rule:evenodd;stroke:#1e1917;stroke-width:0.0211667;stroke-linecap:round;stroke-linejoin:round;stroke-miterlimit:10;stroke-dasharray:none;stroke-opacity:1" />
    <path
       id="path218"
       d="m 87.316709,120.82394 h -0.105833 l -0.02117,0.0212 h -0.0635 l -0.04233,0.0212 h -0.02117 l -0.02117,0.0212 -0.04233,0.0212 h -0.02117 l -0.02117,0.0212 -0.04233,0.0212 -0.105833,0.10583 c -0.05927,0.0579 -0.155928,0.2854 -0.148167,0.35984 v 0.21166 l 0.02117,0.0212 v 0.0423 l 0.02117,0.0212 v 0.0423 l 0.02117,0.0212 0.02117,0.0423 v 0.0212 l 0.0635,0.0635 0.02117,0.0423 0.08467,0.0847 0.04233,0.0212 h 0.02117 l 0.02117,0.0212 0.04233,0.0212 h 0.02117 l 0.02117,0.0212 0.04233,0.0212 h 0.0635 l 0.02117,0.0212 h 0.211666 l 0.04233,-0.0212 h 0.0635 l 0.04233,-0.0423 h 0.04233 l 0.04233,-0.0423 h 0.04233 l 0.105833,-0.10584 0.02117,-0.0423 0.08467,-0.0847 0.02117,-0.0423 v -0.0212 l 0.02117,-0.0423 v -0.0212 l 0.02117,-0.0423 v -0.0847 l 0.02117,-0.0423 v -0.0635 l -0.02117,-0.0423 v -0.0847 l -0.02117,-0.0423 v -0.0212 l -0.02117,-0.0423 v -0.0212 l -0.02117,-0.0423 -0.04233,-0.0423 -0.02117,-0.0423 -0.148167,-0.14817 -0.04233,-0.0212 h -0.02117 l -0.02117,-0.0212 -0.04233,-0.0212 h -0.02117 l -0.02117,-0.0212 h -0.0635 l -0.04233,-0.0212 h -0.105833"
       style="fill:#7e7e7e;fill-opacity:1;fill-rule:evenodd;stroke:#1e1917;stroke-width:0.0211667;stroke-linecap:round;stroke-linejoin:round;stroke-miterlimit:10;stroke-dasharray:none;stroke-opacity:1" />
    <path
       id="path219"
       d="m 85.284709,120.82394 h -0.105833 l -0.04233,0.0212 h -0.0635 l -0.02117,0.0212 h -0.02117 l -0.04233,0.0212 -0.02117,0.0212 h -0.04233 l -0.105834,0.10583 -0.04233,0.0212 v 0.0212 l -0.02117,0.0212 -0.02117,0.0423 -0.04233,0.0423 -0.02117,0.0423 v 0.0212 l -0.02117,0.0423 v 0.0212 l -0.02117,0.0423 v 0.0635 l -0.02117,0.0212 v 0.14816 l 0.02117,0.0212 v 0.0635 l 0.02117,0.0423 v 0.0212 l 0.02117,0.0423 v 0.0212 l 0.02117,0.0423 0.08467,0.0847 v 0.0423 l 0.04233,0.0212 0.08467,0.0847 h 0.02117 l 0.04233,0.0212 0.02117,0.0212 h 0.04233 l 0.04233,0.0423 h 0.0635 l 0.04233,0.0212 h 0.211666 l 0.02117,-0.0212 h 0.0635 l 0.02117,-0.0212 0.04233,-0.0212 h 0.02117 l 0.04233,-0.0212 0.02117,-0.0212 h 0.02117 l 0.04233,-0.0212 c 0.09525,-0.0815 0.07937,-0.10478 0.148166,-0.16933 l 0.02117,-0.0212 v -0.0212 l 0.02117,-0.0423 0.02117,-0.0212 v -0.0423 l 0.02117,-0.0212 c -0.0081,-0.13476 0.03246,-0.0282 0.02117,-0.21166 v -0.0847 l -0.02117,-0.0423 v -0.0635 l -0.02117,-0.0212 v -0.0423 l -0.02117,-0.0212 -0.02117,-0.0423 v -0.0212 l -0.02117,-0.0212 -0.02117,-0.0423 c -0.04233,-0.0423 -0.08467,-0.0847 -0.127,-0.127 l -0.04233,-0.0212 -0.02117,-0.0212 h -0.02117 l -0.04233,-0.0212 -0.02117,-0.0212 h -0.04233 l -0.02117,-0.0212 h -0.0635 l -0.02117,-0.0212 h -0.105833"
       style="fill:#7e7e7e;fill-opacity:1;fill-rule:evenodd;stroke:#1e1917;stroke-width:0.0211667;stroke-linecap:round;stroke-linejoin:round;stroke-miterlimit:10;stroke-dasharray:none;stroke-opacity:1" />
    <path
       id="path220"
       d="m 91.465375,123.78727 h -0.105833 l -0.04233,0.0212 h -0.0635 l -0.04233,0.0212 h -0.02117 l -0.04233,0.0212 -0.02117,0.0212 -0.04233,0.0212 -0.02117,0.0212 -0.04233,0.0212 h -0.02117 l -0.02117,0.0423 -0.0635,0.0635 -0.04233,0.0212 v 0.0423 l -0.04233,0.0423 -0.02117,0.0423 -0.02117,0.0212 v 0.0423 l -0.02117,0.0212 v 0.0847 l -0.02117,0.0212 v 0.23283 l 0.02117,0.0212 v 0.0635 l 0.02117,0.0423 v 0.0212 l 0.02117,0.0423 0.02117,0.0212 0.02117,0.0423 0.02117,0.0212 v 0.0212 l 0.08467,0.0847 c 0.08255,0.0836 0.186267,0.15981 0.296333,0.16933 l 0.02117,0.0212 h 0.04233 l 0.04233,0.0212 h 0.211666 l 0.04233,-0.0212 h 0.02117 l 0.04233,-0.0212 h 0.02117 l 0.04233,-0.0212 h 0.04233 l 0.02117,-0.0212 0.02117,-0.0212 0.04233,-0.0212 0.04233,-0.0423 0.04233,-0.0212 0.0635,-0.0635 0.02117,-0.0423 0.04233,-0.0423 0.02117,-0.0423 v -0.0212 l 0.02117,-0.0423 0.02117,-0.0212 v -0.0423 l 0.02117,-0.0212 v -0.0635 l 0.02117,-0.0423 v -0.14817 l -0.02117,-0.0423 v -0.0635 l -0.02117,-0.0423 v -0.0212 l -0.02117,-0.0423 -0.02117,-0.0212 v -0.0423 l -0.04233,-0.0423 -0.02117,-0.0423 -0.127,-0.127 h -0.02117 l -0.02117,-0.0212 -0.04233,-0.0212 -0.04233,-0.0423 -0.04233,-0.0212 h -0.04233 l -0.02117,-0.0212 h -0.0635 l -0.04233,-0.0212 h -0.105833"
       style="fill:#7e7e7e;fill-opacity:1;fill-rule:evenodd;stroke:#1e1917;stroke-width:0.0211667;stroke-linecap:round;stroke-linejoin:round;stroke-miterlimit:10;stroke-dasharray:none;stroke-opacity:1" />
    <path
       id="path221"
       d="m 89.412208,123.78727 h -0.105833 l -0.04233,0.0212 c -0.05398,-0.009 -0.144639,0.0328 -0.1905,0.0635 l -0.02117,0.0212 -0.04233,0.0212 -0.02117,0.0212 h -0.02117 l -0.127,0.127 -0.02117,0.0423 -0.04233,0.0423 v 0.0423 l -0.02117,0.0212 -0.02117,0.0423 v 0.0212 l -0.02117,0.0423 v 0.10583 l -0.02117,0.0423 v 0.0635 l 0.02117,0.0423 v 0.10583 l 0.02117,0.0212 v 0.0423 l 0.02117,0.0212 0.02117,0.0423 v 0.0212 l 0.02117,0.0423 0.02117,0.0212 c 0.0441,0.0526 0.07585,0.12488 0.148167,0.14816 l 0.04233,0.0423 c 0.123473,0.0822 0.111125,0.0533 0.232834,0.10583 h 0.02117 l 0.04233,0.0212 h 0.04233 c 0.188736,0.0166 0.418042,-0.0543 0.550333,-0.1905 l 0.04233,-0.0423 0.04233,-0.0212 v -0.0423 l 0.04233,-0.0423 0.02117,-0.0423 0.02117,-0.0212 0.02117,-0.0423 v -0.0212 l 0.02117,-0.0423 v -0.0212 l 0.02117,-0.0423 v -0.27517 l -0.02117,-0.0423 v -0.0423 l -0.02117,-0.0212 v -0.0423 l -0.02117,-0.0212 -0.02117,-0.0423 -0.04233,-0.0423 -0.02117,-0.0423 v -0.0212 l -0.04233,-0.0212 -0.04233,-0.0423 -0.02117,-0.0423 h -0.02117 l -0.04233,-0.0212 -0.02117,-0.0212 -0.04233,-0.0212 -0.04233,-0.0423 h -0.04233 l -0.04233,-0.0212 h -0.0635 l -0.04233,-0.0212 h -0.105833"
       style="fill:#7e7e7e;fill-opacity:1;fill-rule:evenodd;stroke:#1e1917;stroke-width:0.0211667;stroke-linecap:round;stroke-linejoin:round;stroke-miterlimit:10;stroke-dasharray:none;stroke-opacity:1" />
    <path
       id="path222"
       d="m 87.316709,123.78727 h -0.105833 l -0.02117,0.0212 h -0.0635 l -0.04233,0.0212 h -0.02117 l -0.02117,0.0212 -0.04233,0.0212 -0.04233,0.0423 -0.04233,0.0212 h -0.02117 l -0.02117,0.0423 -0.08467,0.0847 -0.02117,0.0423 -0.02117,0.0212 v 0.0212 l -0.02117,0.0423 -0.02117,0.0212 v 0.0423 l -0.02117,0.0212 v 0.0423 l -0.02117,0.0423 v 0.27517 l 0.02117,0.0423 v 0.0212 l 0.02117,0.0423 v 0.0212 l 0.02117,0.0423 0.02117,0.0212 v 0.0423 l 0.02117,0.0212 0.02117,0.0212 0.02117,0.0423 0.105833,0.10583 0.04233,0.0212 0.04233,0.0423 0.04233,0.0212 h 0.02117 l 0.02117,0.0212 h 0.04233 l 0.02117,0.0212 h 0.04233 l 0.02117,0.0212 h 0.211666 l 0.04233,-0.0212 h 0.02117 l 0.04233,-0.0212 h 0.02117 l 0.02117,-0.0212 h 0.04233 l 0.04233,-0.0423 0.04233,-0.0212 0.02117,-0.0212 c 0.07408,-0.0677 0.140758,-0.14781 0.1905,-0.23283 l 0.02117,-0.0212 v -0.0423 l 0.02117,-0.0212 v -0.0423 l 0.02117,-0.0212 v -0.10583 l 0.02117,-0.0423 v -0.0635 l -0.02117,-0.0423 v -0.10583 c -0.0695,-0.17675 -0.02293,-0.1143 -0.148167,-0.27517 l -0.0635,-0.0635 -0.02117,-0.0423 h -0.02117 l -0.02117,-0.0212 -0.04233,-0.0212 -0.04233,-0.0423 -0.04233,-0.0212 h -0.02117 l -0.02117,-0.0212 h -0.0635 l -0.04233,-0.0212 h -0.105833"
       style="fill:#7e7e7e;fill-opacity:1;fill-rule:evenodd;stroke:#1e1917;stroke-width:0.0211667;stroke-linecap:round;stroke-linejoin:round;stroke-miterlimit:10;stroke-dasharray:none;stroke-opacity:1" />
    <path
       id="path223"
       d="m 85.284709,123.78727 h -0.105833 l -0.04233,0.0212 h -0.0635 l -0.02117,0.0212 h -0.04233 l -0.04233,0.0423 -0.04233,0.0212 -0.04233,0.0423 h -0.02117 l -0.02117,0.0423 -0.02117,0.0212 -0.04233,0.0212 -0.02117,0.0212 v 0.0212 l -0.02117,0.0423 -0.04233,0.0423 -0.02117,0.0423 v 0.0212 l -0.02117,0.0423 v 0.0212 l -0.02117,0.0423 v 0.0635 l -0.02117,0.0423 v 0.14817 l 0.02117,0.0423 v 0.0635 l 0.02117,0.0212 v 0.0423 l 0.02117,0.0212 v 0.0423 l 0.02117,0.0212 0.02117,0.0423 0.04233,0.0423 v 0.0423 l 0.02117,0.0212 0.04233,0.0212 0.08467,0.0847 c 0.07549,0.0773 0.182033,0.0822 0.275167,0.127 h 0.1905 l 0.04233,-0.0212 h 0.04233 l 0.02117,-0.0212 h 0.02117 l 0.04233,-0.0212 h 0.02117 l 0.04233,-0.0212 0.0635,-0.0635 0.04233,-0.0212 0.08467,-0.0847 0.02117,-0.0423 0.02117,-0.0212 0.02117,-0.0212 v -0.0423 l 0.02117,-0.0212 0.02117,-0.0423 v -0.0212 l 0.02117,-0.0423 v -0.0635 l 0.02117,-0.0212 v -0.23283 l -0.02117,-0.0212 v -0.0423 c -0.0095,-0.0896 -0.06703,-0.20003 -0.127,-0.27517 l -0.0635,-0.0635 -0.02117,-0.0423 h -0.04233 l -0.0635,-0.0635 -0.04233,-0.0212 -0.02117,-0.0212 h -0.04233 l -0.02117,-0.0212 h -0.0635 l -0.04233,-0.0212 h -0.08467"
       style="fill:#7e7e7e;fill-opacity:1;fill-rule:evenodd;stroke:#1e1917;stroke-width:0.0211667;stroke-linecap:round;stroke-linejoin:round;stroke-miterlimit:10;stroke-dasharray:none;stroke-opacity:1" />
    <path
       id="path224"
       d="m 91.909875,99.318252 h -7.239 l -1.227666,1.227668 v 19.177 h 9.694333 v -19.177 l -1.227667,-1.227668"
       style="fill:#7e7e7e;fill-opacity:1;fill-rule:evenodd;stroke:#1e1917;stroke-width:0.198967;stroke-linecap:round;stroke-linejoin:round;stroke-miterlimit:10;stroke-dasharray:none;stroke-opacity:1" />
    <path
       id="path225"
       d="m 90.534042,113.64808 h 0.127 c 1.685572,0.27093 1.604786,2.55129 -0.0635,2.70933 h -0.148167 c -1.668638,-0.1531 -1.725788,-2.45709 -0.0635,-2.70933 h 0.148167"
       style="fill:#7e7e7e;fill-opacity:1;fill-rule:evenodd;stroke:#1e1917;stroke-width:0.0754944;stroke-linecap:round;stroke-linejoin:round;stroke-miterlimit:10;stroke-dasharray:none;stroke-opacity:1" />
    <path
       id="path226"
       d="m 86.089042,101.22325 h 0.148167 c 1.663347,0.25717 1.610077,2.53294 -0.0635,2.70933 h -0.148167 c -1.676753,-0.16933 -1.733903,-2.4578 -0.0635,-2.70933 h 0.127"
       style="fill:#7e7e7e;fill-opacity:1;fill-rule:evenodd;stroke:#1e1917;stroke-width:0.0754944;stroke-linecap:round;stroke-linejoin:round;stroke-miterlimit:10;stroke-dasharray:none;stroke-opacity:1" />
    <path
       id="path227"
       d="m 86.131375,113.71158 h 0.211667 c 0.672747,0.16334 1.072797,0.57891 1.143,1.27 v 0.14817 c -0.02222,0.64629 -0.571148,1.25095 -1.227667,1.27 l -0.0635,0.0212 h -0.127 c -1.682044,-0.15346 -1.74378,-2.46697 -0.08467,-2.70933 h 0.148167"
       style="fill:#7e7e7e;fill-opacity:1;fill-rule:evenodd;stroke:#1e1917;stroke-width:0.0754944;stroke-linecap:round;stroke-linejoin:round;stroke-miterlimit:10;stroke-dasharray:none;stroke-opacity:1" />
    <path
       id="path228"
       d="m 88.332709,107.72142 h 0.127 l 0.0635,0.0212 c 0.6096,0.0497 1.151819,0.65475 1.164167,1.27 v 0.127 c -0.03598,0.67909 -0.5461,1.22131 -1.227667,1.29116 h -0.275167 c -0.623711,-0.0674 -1.167694,-0.5715 -1.2065,-1.2065 l -0.02117,-0.0847 v -0.0635 c 0.01341,-0.67099 0.498122,-1.24178 1.164166,-1.3335 l 0.0635,-0.0212 z"
       style="fill:none;stroke:#1e1917;stroke-width:0.0754944;stroke-linecap:round;stroke-linejoin:round;stroke-miterlimit:10;stroke-dasharray:none;stroke-opacity:1" />
    <path
       id="path233"
       d="m 90.512875,101.22325 h 0.148167 c 1.663347,0.25717 1.610077,2.53294 -0.0635,2.70933 h -0.148167 c -1.677811,-0.16898 -1.738489,-2.45568 -0.0635,-2.70933 h 0.127"
       style="fill:#299540;fill-opacity:1;fill-rule:evenodd;stroke:#1e1917;stroke-width:0.0754944;stroke-linecap:round;stroke-linejoin:round;stroke-miterlimit:10;stroke-dasharray:none;stroke-opacity:1" >
       <animate
          attributeName="fill"
          values="#299540;#7e7e7e"
          dur="1.5s"
          calcMode="discrete"
          repeatCount="indefinite" />
    </path>
  </g>
</svg>
