<?xml version="1.0" encoding="UTF-8"?>
<!-- Created with Inkscape (http://www.inkscape.org/) -->
<svg width="9.8721mm" height="32.534mm" version="1.1" viewBox="0 0 9.8721 32.534" xmlns="http://www.w3.org/2000/svg">
 <defs>
  <clipPath id="clipPath377">
   <path transform="translate(-2.5e-5 2.5e-5)" d="m249.77 224.25h27.72v18.96h-27.72z"/>
  </clipPath>
 </defs>
 <g transform="translate(-67.733 -87.842)">
  <g fill="#299540">
   <path d="m75.728 89.761 1.0372-1.0372 0.35983 0.35983-1.0372 1.0372-0.35983-0.35983"/>
   <path d="m73.04 88.809 1.0372 1.0372-0.35983 0.35983-1.0372-1.016 0.35983-0.381"/>
   <path d="m72.807 93.275 1.016-1.0372 0.35983 0.35983-1.016 1.0372-0.35983-0.35983"/>
   <path d="m76.003 92.28 1.016 1.016-0.35983 0.35983-1.016-1.016 0.35983-0.35983"/>
  </g>
  <g fill="#f4f015">
   <path d="m75.728 102.19 1.0372-1.016 0.35983 0.35983-1.0372 1.016-0.35983-0.35983"/>
   <path d="m73.04 101.25 1.0372 1.0372-0.35983 0.35983-1.0372-1.0372 0.35983-0.35983"/>
   <path d="m72.807 105.7 1.016-1.016 0.35983 0.35983-1.016 1.016-0.35983-0.35983"/>
   <path d="m76.003 104.71 1.016 1.0372-0.35983 0.35983-1.016-1.0372 0.35983-0.35983"/>
  </g>
  <path d="m76.278 87.941h-7.2178l-1.2277 1.2277v19.198h9.6732v-19.198l-1.2277-1.2277" fill="#7e7e7e" fill-rule="evenodd" stroke="#1e1917" stroke-linecap="round" stroke-linejoin="round" stroke-miterlimit="10" stroke-width=".19897"/>
  <g fill="#f4f015">
   <path d="m71.304 89.761 1.0372-1.0372 0.35983 0.35983-1.0372 1.0372-0.35983-0.35983"/>
   <path d="m68.616 88.809 1.0372 1.0372-0.35983 0.35983-1.0372-1.016 0.35983-0.381"/>
   <path d="m68.383 93.275 1.0372-1.0372 0.35983 0.35983-1.0372 1.0372-0.35983-0.35983"/>
   <path d="m71.579 92.28 1.016 1.016-0.35983 0.35983-1.016-1.016 0.35983-0.35983"/>
  </g>
  <path d="m71.812 120.33h1.7145v-12.298h-1.7145z" fill="#7e7e7e"/>
  <path d="m71.812 108.03h1.7145v12.298h-1.7145zm1.7149 0z" fill="none" stroke="#1e1917" stroke-linecap="round" stroke-linejoin="round" stroke-miterlimit="10" stroke-width=".099483"/>
  <path d="m67.811 115.2h9.6943v-6.4135h-9.6943z" fill="#7e7e7e"/>
  <path transform="matrix(.35278 0 0 -.35278 -20.344 194.46)" d="m249.89 242.85h27.48v-18.18h-27.48zm27.481 0z" clip-path="url(#clipPath377)" fill="none" stroke="#1e1917" stroke-linecap="round" stroke-linejoin="round" stroke-miterlimit="10" stroke-width=".564"/>
  <g fill="#7e7e7e" fill-rule="evenodd" stroke="#1e1917" stroke-linecap="round" stroke-linejoin="round" stroke-miterlimit="10">
   <g stroke-width=".021167">
    <path d="m75.834 109.47h-0.1905l-0.02117 0.0212h-0.04233l-0.02117 0.0212-0.04233 0.0212h-0.02117l-0.04233 0.0212-0.04233 0.0423-0.04233 0.0212c-0.0956 0.0868-0.1143 0.12276-0.1905 0.21166v0.0423l-0.02117 0.0212v0.0423l-0.02117 0.0212v0.0423l-0.02117 0.0212v0.21167l0.02117 0.0212v0.0423l0.02117 0.0423v0.0212l0.02117 0.0212v0.0423l0.04233 0.0423 0.02117 0.0423 0.10583 0.10583 0.02117 0.0423h0.04233l0.04233 0.0423 0.04233 0.0212 0.02117 0.0212h0.04233l0.02117 0.0212h0.04233l0.02117 0.0212h0.08467l0.04233 0.0212c0.18627 0.012 0.10089-0.0219 0.21167-0.0212h0.02117l0.04233-0.0212h0.04233l0.02117-0.0212h0.04233l0.02117-0.0212 0.04233-0.0212 0.04233-0.0423h0.02117l0.0635-0.0635c0.08043-0.0769 0.06491-0.0642 0.127-0.14816v-0.0212l0.02117-0.0423 0.02117-0.0212v-0.0212l0.02117-0.0423v-0.0635l0.02117-0.0423v-0.127l-0.02117-0.0423v-0.0635l-0.02117-0.0212v-0.0423l-0.02117-0.0212-0.02117-0.0423v-0.0212l-0.02117-0.0212-0.02117-0.0423-0.04233-0.0423c-0.08326-0.096-0.08008-0.0501-0.14817-0.127l-0.02117-0.0212-0.04233-0.0212h-0.02117l-0.04233-0.0212-0.02117-0.0212h-0.04233l-0.04233-0.0212h-0.16933"/>
    <path d="m73.802 109.47h-0.08467c-0.06879-4e-3 -0.1397 4e-3 -0.1905 0.0423l-0.04233 0.0212h-0.02117c-0.06914 0.0395-0.11677 0.067-0.16933 0.127l-0.02117 0.0212-0.04233 0.0212v0.0212l-0.02117 0.0212-0.02117 0.0423-0.04234 0.0424-0.02117 0.0423v0.0212l-0.02117 0.0423v0.0212l-0.02117 0.0423v0.254l0.02117 0.0423v0.0423l0.02117 0.0212v0.0212l0.02117 0.0423 0.04234 0.0424 0.02117 0.0423 0.02117 0.0212v0.0212l0.04233 0.0212 0.04233 0.0423 0.02117 0.0423h0.02117l0.04233 0.0212 0.02117 0.0212 0.04233 0.0212 0.02117 0.0212h0.04233l0.02117 0.0212h0.04233l0.02117 0.0212h0.0635l0.04233 0.0212h0.14817l0.04233-0.0212h0.0635l0.04233-0.0212h0.02117l0.04233-0.0212h0.02117l0.04233-0.0212 0.02117-0.0212 0.04233-0.0212 0.02117-0.0212h0.02117l0.02117-0.0423 0.04233-0.0212 0.08467-0.0847 0.02117-0.0423v-0.0212l0.02117-0.0212 0.02117-0.0423 0.02117-0.0212v-0.0635l0.02117-0.0423v-0.0635l0.02117-0.0212v-0.0635l-0.02117-0.0423v-0.0635l-0.02117-0.0423v-0.0635l-0.02117-0.0212-0.02117-0.0423-0.02117-0.0212v-0.0212l-0.02117-0.0423-0.08467-0.0847-0.04233-0.0212-0.0635-0.0635c-0.09419-0.043-0.18521-0.10936-0.29633-0.10583h-0.10583"/>
    <path d="m71.706 109.47h-0.16933l-0.02117 0.0212h-0.04233l-0.02117 0.0212-0.04233 0.0212h-0.02117l-0.02117 0.0212-0.04233 0.0212-0.16933 0.16934-0.02117 0.0423-0.02117 0.0212v0.0212l-0.02117 0.0423-0.02117 0.0212v0.0423l-0.02117 0.0212v0.14817l-0.02117 0.0212 0.02117 0.0423v0.0212c7.06e-4 0.0765-0.01129 0.12453 0.04233 0.1905l0.02117 0.0423v0.0212c0.06209 0.084 0.04657 0.0713 0.127 0.14816l0.02117 0.0212 0.02117 0.0423h0.02117l0.02117 0.0212 0.04233 0.0212 0.04233 0.0423h0.04233l0.02117 0.0212h0.04233l0.02117 0.0212h0.0635l0.04233 0.0212h0.127l0.04233-0.0212h0.0635l0.02117-0.0212h0.04233l0.02117-0.0212h0.02117l0.04233-0.0212 0.04233-0.0423 0.04233-0.0212h0.02117l0.02117-0.0423 0.04233-0.0423c0.0829-0.0593 0.09419-0.15946 0.14817-0.23284v-0.0423l0.02117-0.0423v-0.254l-0.02117-0.0423v-0.0212l-0.02117-0.0423v-0.0212l-0.02117-0.0423-0.02117-0.0212v-0.0212l-0.02117-0.0423-0.14817-0.14817-0.04233-0.0212-0.04233-0.0423h-0.04233l-0.04233-0.0423h-0.04233l-0.02117-0.0212h-0.16933"/>
    <path d="m69.674 109.47h-0.16933l-0.04233 0.0212h-0.02117l-0.04233 0.0212-0.02117 0.0212h-0.02117l-0.04233 0.0212-0.08467 0.0847-0.04233 0.0212-0.0635 0.0635v0.0212l-0.02117 0.0423-0.04233 0.0423v0.0423l-0.02117 0.0212v0.0423l-0.02117 0.0212v0.0635l-0.02117 0.0423v0.127l0.02117 0.0423v0.0635l0.02117 0.0423v0.0212l0.02117 0.0212v0.0423l0.04233 0.0423 0.02117 0.0423v0.0212l0.0635 0.0635 0.04233 0.0212 0.02117 0.0423h0.02117l0.04233 0.0423 0.04233 0.0212 0.02117 0.0212h0.02117l0.04233 0.0212h0.02117l0.04233 0.0212h0.0635l0.02117 0.0212h0.14817l0.02117-0.0212h0.0635l0.04233-0.0212h0.02117l0.04233-0.0212h0.02117l0.02117-0.0212 0.04233-0.0212 0.04233-0.0423h0.02117l0.14817-0.14816v-0.0423l0.04233-0.0423v-0.0423l0.02117-0.0212v-0.0212l0.02117-0.0423v-0.0423l0.02117-0.0212v-0.21167l-0.02117-0.0212v-0.0423l-0.02117-0.0212v-0.0423l-0.02117-0.0212v-0.0423l-0.04233-0.0423v-0.0423l-0.04234-0.0424c-0.08326-0.096-0.08008-0.0501-0.14817-0.127l-0.02117-0.0212-0.04233-0.0212h-0.02117l-0.02117-0.0212-0.04233-0.0212h-0.02117l-0.04233-0.0212h-0.14817"/>
    <path d="m75.834 112.43h-0.14817l-0.04233 0.0212h-0.02117l-0.04233 0.0212h-0.02117l-0.04233 0.0212-0.02117 0.0212h-0.04233l-0.04233 0.0423-0.04233 0.0212-0.04233 0.0423-0.02117 0.0423-0.02117 0.0212c-0.08537 0.0632-0.15769 0.28187-0.16933 0.381v0.16933l0.02117 0.0423v0.0423l0.02117 0.0212v0.0423l0.02117 0.0212v0.0423l0.02117 0.0212 0.02117 0.0423 0.04233 0.0423 0.02117 0.0423 0.08467 0.0847 0.04233 0.0212 0.04233 0.0423 0.04233 0.0212h0.02117l0.04233 0.0212 0.02117 0.0212h0.04233l0.02117 0.0212h0.08467l0.04233 0.0212h0.127l0.04233-0.0212h0.0635l0.04233-0.0212h0.04233l0.02117-0.0212 0.04233-0.0212h0.02117l0.04233-0.0212 0.0635-0.0635 0.04233-0.0212 0.0635-0.0635 0.02117-0.0423 0.04233-0.0423 0.02117-0.0423v-0.0212l0.02117-0.0423 0.02117-0.0212v-0.0423l0.02117-0.0212v-0.0847l0.02117-0.0212v-0.14817l-0.02117-0.0423v-0.0635l-0.02117-0.0423v-0.0212l-0.02117-0.0423-0.02117-0.0212v-0.0423l-0.02117-0.0212-0.02117-0.0423-0.0635-0.0635-0.02117-0.0423-0.02117-0.0212-0.04233-0.0212-0.0635-0.0635h-0.04233l-0.02117-0.0212-0.04233-0.0212h-0.02117l-0.04233-0.0212h-0.04233l-0.02117-0.0212h-0.14817"/>
    <path d="m73.802 112.43h-0.14817l-0.04233 0.0212h-0.02117l-0.04233 0.0212h-0.02117l-0.04233 0.0212-0.02117 0.0212h-0.04233l-0.02117 0.0212-0.04233 0.0212-0.0635 0.0635-0.02117 0.0423-0.04233 0.0212v0.0212c-0.19685 0.21942-0.21661 0.6223 0 0.84666v0.0423l0.04233 0.0212 0.0635 0.0635c0.05503 0.0519 0.12171 0.0804 0.1905 0.10584l0.02117 0.0212h0.04233l0.02117 0.0212h0.0635l0.04233 0.0212h0.14817l0.04233-0.0212h0.0635l0.04233-0.0212h0.02117l0.04233-0.0212 0.02117-0.0212h0.04233l0.02117-0.0212 0.04233-0.0212 0.0635-0.0635 0.04233-0.0212 0.04233-0.0423 0.02117-0.0423 0.04233-0.0423v-0.0423l0.02117-0.0212 0.02117-0.0423 0.02117-0.0212v-0.0635l0.02117-0.0423v-0.0635l0.02117-0.0423v-0.0847l-0.02117-0.0212v-0.0847l-0.02117-0.0212v-0.0635l-0.02117-0.0423-0.02117-0.0212-0.02117-0.0423v-0.0212l-0.02117-0.0423-0.02117-0.0212c-0.12136-0.139-0.0092-0.0268-0.14817-0.14817l-0.02117-0.0212-0.04233-0.0212h-0.02117l-0.04233-0.0212-0.02117-0.0212h-0.04233l-0.02117-0.0212h-0.04233l-0.04233-0.0212h-0.127"/>
    <path d="m71.706 112.43h-0.127l-0.04233 0.0212h-0.02117l-0.04233 0.0212h-0.02117l-0.04233 0.0212-0.02117 0.0212h-0.02117l-0.04233 0.0212-0.04233 0.0423-0.04234 0.0424-0.02117 0.0423-0.0635 0.0635-0.02117 0.0423-0.02117 0.0212v0.0423l-0.02117 0.0212-0.02117 0.0423v0.0212l-0.02117 0.0423v0.127l-0.02117 0.0423 0.02117 0.0423v0.14817l0.02117 0.0212v0.0423l0.02117 0.0212 0.02117 0.0423v0.0212l0.02117 0.0423 0.04233 0.0423 0.02117 0.0423 0.127 0.127 0.04233 0.0212 0.02117 0.0212h0.02117l0.04233 0.0212 0.02117 0.0212h0.04233l0.02117 0.0212h0.0635l0.04233 0.0212h0.127l0.04233-0.0212h0.0635l0.02117-0.0212h0.04233l0.04233-0.0423h0.04233l0.04233-0.0423 0.04233-0.0212 0.10583-0.10583 0.02117-0.0423 0.04233-0.0423v-0.0423l0.02117-0.0212 0.02117-0.0423v-0.0212l0.02117-0.0423v-0.0212l0.02117-0.0423v-0.29634l-0.02117-0.0212v-0.0423l-0.02117-0.0212v-0.0423l-0.02117-0.0212-0.02117-0.0423v-0.0212l-0.02117-0.0423-0.0635-0.0635-0.02117-0.0423-0.0635-0.0635c-0.10336-0.0607-0.16298-0.0864-0.27517-0.127h-0.127"/>
    <path d="m69.674 112.43h-0.14817l-0.02117 0.0212h-0.04233l-0.02117 0.0212h-0.04233l-0.04233 0.0423h-0.04233l-0.0635 0.0635-0.04233 0.0212-0.02117 0.0212-0.02117 0.0423-0.04233 0.0423v0.0212l-0.02117 0.0423-0.02117 0.0212-0.02117 0.0423v0.0212l-0.02117 0.0423v0.0212l-0.02117 0.0423v0.0635l-0.02117 0.0423v0.14817l0.02117 0.0212v0.0847l0.02117 0.0212v0.0423l0.02117 0.0212v0.0423l0.02117 0.0212 0.02117 0.0423 0.02117 0.0212v0.0212l0.02117 0.0423 0.0635 0.0635 0.04233 0.0212 0.0635 0.0635 0.04233 0.0212h0.02117l0.02117 0.0212 0.04233 0.0212h0.02117l0.04233 0.0212h0.0635l0.02117 0.0212h0.14817l0.02117-0.0212h0.0635l0.04233-0.0212h0.02117l0.04233-0.0212 0.02117-0.0212h0.02117l0.04233-0.0212 0.0635-0.0635 0.04233-0.0212 0.0635-0.0635 0.02117-0.0423v-0.0212l0.02117-0.0212 0.02117-0.0423 0.02117-0.0212v-0.0423l0.02117-0.0212v-0.0423l0.02117-0.0212v-0.0847l0.02117-0.0212v-0.14817l-0.02117-0.0423v-0.0635l-0.02117-0.0423v-0.0212l-0.02117-0.0423v-0.0212l-0.02117-0.0423-0.02117-0.0212-0.02117-0.0423v-0.0212l-0.04233-0.0423-0.02117-0.0423-0.02117-0.0212-0.04233-0.0212-0.0635-0.0635h-0.04233l-0.04233-0.0423h-0.04233l-0.02117-0.0212h-0.04233l-0.02117-0.0212h-0.127"/>
   </g>
   <path d="m74.902 102.27 0.0635 0.0212h0.14817c0.64982 0.12805 1.0851 0.60889 1.143 1.27v0.14816c-0.02293 0.63924-0.57961 1.246-1.2277 1.27l-0.0635 0.0212h-0.127c-1.6976-0.16439-1.7212-2.4934-0.08467-2.7093h0.08467l0.0635-0.0212" stroke-width=".075494"/>
  </g>
  <g stroke="#1e1917" stroke-linecap="round" stroke-linejoin="round" stroke-miterlimit="10" stroke-width=".075494">
   <path d="m70.479 89.846h0.14817c1.6732 0.28363 1.5794 2.5559-0.08467 2.7093h-0.127c-1.6792-0.16051-1.7339-2.461-0.0635-2.7093h0.127" fill="#f4f015" fill-rule="evenodd"/>
   <path d="m70.521 102.33h0.127l0.0635 0.0212h0.08467c0.30409 0.091 0.44626 0.16192 0.67733 0.381l0.08467 0.0847c0.16722 0.20955 0.29492 0.46849 0.29633 0.74084l0.02117 0.0635v0.127c-0.06738 0.70555-0.51823 1.1984-1.2277 1.2912h-0.27517c-0.64735-0.0818-1.1458-0.55456-1.2065-1.2065v-0.0847l-0.02117-0.0635 0.02117-0.0635v-0.14817l0.02117-0.0635v-0.0635l0.04233-0.127 0.04233-0.0635 0.02117-0.0635 0.02117-0.0423 0.04233-0.0635 0.02117-0.0635 0.04233-0.0423 0.04233-0.0635 0.04233-0.0423c0.27905-0.26599 0.37677-0.3115 0.74083-0.42333h0.0635l0.0635-0.0212h0.14817" fill="#7e7e7e" fill-rule="evenodd"/>
   <path d="m72.701 96.344h0.0635l0.08467 0.02117c1.626 0.20144 1.6231 2.5418-0.08467 2.7093h-0.127l-0.0635-0.02117h-0.08467l-0.0635-0.02117h-0.0635l-0.1905-0.0635-0.0635-0.04233-0.04233-0.02117-0.0635-0.04233-0.0635-0.02117-0.04233-0.04233-0.0635-0.04233-0.127-0.127c-0.1711-0.20426-0.32103-0.44556-0.33867-0.71967l-0.02117-0.0635v-0.21167c0.01517-0.26494 0.11007-0.53305 0.27517-0.74083l0.04233-0.04233 0.04233-0.0635c0.16475-0.18098 0.47237-0.38594 0.71967-0.40217l0.0635-0.02117h0.08467l0.0635-0.02117z" fill="none"/>
   <path d="m74.902 89.846h0.127c1.6676 0.25823 1.6087 2.5421-0.0635 2.7093h-0.14817c-1.6693-0.17604-1.7233-2.4451-0.0635-2.7093h0.14817" fill="#7e7e7e" fill-rule="evenodd"/>
  </g>
 </g>
</svg>
