<?xml version="1.0" encoding="UTF-8"?>
<!-- Created with Inkscape (http://www.inkscape.org/) -->
<svg width="9.8721mm" height="32.484mm" version="1.1" viewBox="0 0 9.8721 32.484" xmlns="http://www.w3.org/2000/svg">
 <defs>
  <clipPath id="clipPath81">
   <path transform="translate(-266.1 -430.46)" d="m261 395.54h5.4v35.16h-5.4z"/>
  </clipPath>
  <clipPath id="clipPath83">
   <path transform="translate(-266.1 -430.46)" d="m261 395.54h5.4v35.16h-5.4z"/>
  </clipPath>
  <clipPath id="clipPath86">
   <path transform="translate(-277.38 -428.36)" d="m249.78 409.7h27.72v19.02h-27.72z"/>
  </clipPath>
  <clipPath id="clipPath88">
   <path transform="translate(-277.38 -428.36)" d="m249.78 409.7h27.72v19.02h-27.72z"/>
  </clipPath>
 </defs>
 <g transform="translate(-70.908 -116.68)">
  <g fill="#00923f">
   <path d="m78.903 118.58 1.0372-1.016 0.35983 0.35983-1.0372 1.016-0.35983-0.35983"/>
   <path d="m76.215 117.65 1.0372 1.0372-0.35983 0.35983-1.0372-1.0372 0.35983-0.35983"/>
   <path d="m75.982 122.09 1.016-1.016 0.35983 0.35983-1.016 1.016-0.35983-0.35983"/>
   <path d="m79.178 121.1 1.016 1.0372-0.35983 0.35983-1.016-1.0372 0.35983-0.35983"/>
  </g>
  <g fill="#fff500">
   <path d="m74.479 118.58 1.0372-1.016 0.35983 0.35983-1.0372 1.016-0.35983-0.35983"/>
   <path d="m71.791 117.65 1.0372 1.0372-0.35983 0.35983-1.0372-1.0372 0.35983-0.35983"/>
   <path d="m71.558 122.09 1.0372-1.016 0.35983 0.35983-1.0372 1.016-0.35983-0.35983"/>
   <path d="m74.754 121.1 1.016 1.0372-0.35983 0.35983-1.016-1.0372 0.35983-0.35983"/>
   <path d="m78.903 131 1.0372-1.016 0.35983 0.35983-1.0372 1.016-0.35983-0.35983"/>
   <path d="m76.215 130.07 1.0372 1.0372-0.35983 0.35983-1.0372-1.0372 0.35983-0.35983"/>
   <path d="m75.982 134.52 1.016-1.016 0.35983 0.35983-1.016 1.016-0.35983-0.35983"/>
   <path d="m79.178 133.52 1.016 1.0372-0.35983 0.35983-1.016-1.0372 0.35983-0.35983"/>
  </g>
  <path d="m74.987 149.12h1.7145v-12.277h-1.7145z" fill="#848382"/>
  <path transform="matrix(.35278 0 0 -.35278 76.702 136.85)" d="m-4.86 0h4.86v-34.8h-4.86z" clip-path="url(#clipPath81)" fill="none" stroke="#1f1a17" stroke-linecap="round" stroke-linejoin="round" stroke-miterlimit="10" stroke-width=".282"/>
  <path transform="matrix(.35278 0 0 -.35278 76.702 136.85)" d="m0 0z" clip-path="url(#clipPath83)" fill="none" stroke="#1f1a17" stroke-linecap="round" stroke-linejoin="round" stroke-miterlimit="10" stroke-width=".282"/>
  <path d="m70.987 144.02h9.6943v-6.4347h-9.6943z" fill="#848382"/>
  <path transform="matrix(.35278 0 0 -.35278 80.681 137.59)" d="m-27.48 0h27.48v-18.24h-27.48z" clip-path="url(#clipPath86)" fill="none" stroke="#1f1a17" stroke-linecap="round" stroke-linejoin="round" stroke-miterlimit="10" stroke-width=".564"/>
  <path transform="matrix(.35278 0 0 -.35278 80.681 137.59)" d="m0 0z" clip-path="url(#clipPath88)" fill="none" stroke="#1f1a17" stroke-linecap="round" stroke-linejoin="round" stroke-miterlimit="10" stroke-width=".564"/>
  <g fill="#848382" fill-rule="evenodd" stroke="#1f1a17" stroke-linecap="round" stroke-linejoin="round" stroke-miterlimit="10" stroke-width=".021167">
   <path d="m79.009 138.26h-0.0635l-0.04233 0.0212h-0.08467l-0.02117 0.0212h-0.04233l-0.02117 0.0212h-0.04233l-0.02117 0.0212-0.04233 0.0212-0.02117 0.0212h-0.02117l-0.04233 0.0212-0.04233 0.0423-0.02117 0.0423-0.02117 0.0212c-0.09878 0.073-0.15275 0.24659-0.16933 0.35983v0.16934l0.02117 0.0212v0.0423l0.02117 0.0212v0.0423l0.02117 0.0212v0.0212l0.02117 0.0423 0.04233 0.0423 0.02117 0.0423 0.10583 0.10583 0.04233 0.0212 0.04233 0.0423h0.04233l0.02117 0.0212c0.05397 0.0293 0.11536 0.0342 0.16933 0.0635h0.29633l0.02117-0.0212h0.04233l0.04233-0.0212h0.02117l0.04233-0.0212 0.02117-0.0212h0.04233l0.0635-0.0635 0.04233-0.0212 0.08467-0.0847 0.02117-0.0423 0.04233-0.0423v-0.0423l0.04233-0.0423v-0.0423l0.02117-0.0212v-0.0635l0.02117-0.0423v-0.127l-0.02117-0.0423v-0.0635l-0.02117-0.0423v-0.0212l-0.02117-0.0423-0.02117-0.0212v-0.0212l-0.02117-0.0423-0.04233-0.0423-0.04234-0.0424-0.02117-0.0423-0.02117-0.0212-0.04233-0.0212-0.02117-0.0212h-0.02117l-0.02117-0.0212-0.04233-0.0212-0.02117-0.0212h-0.04233l-0.02117-0.0212h-0.04233l-0.04233-0.0212h-0.0635l-0.04233-0.0212h-0.0635"/>
   <path d="m76.977 138.26h-0.08467l-0.04233 0.0212h-0.0635l-0.02117 0.0212h-0.04233l-0.02117 0.0212h-0.04233l-0.02117 0.0212c-0.12382 0.0878-0.06597-0.0102-0.16933 0.10583l-0.02117 0.0423-0.04233 0.0212v0.0212l-0.04233 0.0423-0.02117 0.0423-0.04234 0.0424v0.0423l-0.02117 0.0212v0.0423l-0.02117 0.0212v0.16933c-0.01552 0.10724 0.04551 0.26987 0.127 0.33867l0.02117 0.0423v0.0212l0.04233 0.0212 0.0635 0.0635c0.12524 0.10513 0.07126 0.024 0.1905 0.10584h0.02117l0.04233 0.0212h0.02117l0.04233 0.0212h0.27517l0.04233-0.0212h0.04233l0.02117-0.0212h0.04233l0.02117-0.0212 0.04233-0.0212h0.02117l0.04233-0.0212 0.02117-0.0212c0.05151-0.0635 0.13018-0.0699 0.16933-0.16933l0.02117-0.0212v-0.0212l0.02117-0.0423 0.04234-0.0424v-0.0635l0.02117-0.0423v-0.0635l0.02117-0.0423v-0.0635l-0.02117-0.0212v-0.0847l-0.02117-0.0212v-0.0635l-0.02117-0.0423-0.04234-0.0424v-0.0423l-0.04233-0.0423c-0.12136-0.13935-0.0092-0.0268-0.14817-0.14817h-0.02117l-0.04233-0.0212-0.02117-0.0212-0.04233-0.0212h-0.02117l-0.04233-0.0212h-0.02117l-0.04233-0.0212h-0.0635l-0.04233-0.0212h-0.0635"/>
   <path d="m74.881 138.26h-0.0635l-0.04233 0.0212h-0.0635l-0.02117 0.0212h-0.04233l-0.02117 0.0212h-0.04233l-0.04233 0.0423-0.04233 0.0212h-0.02117l-0.06351 0.0636-0.02117 0.0423-0.04234 0.0424-0.04233 0.0423-0.02117 0.0423v0.0212l-0.02117 0.0212-0.02117 0.0423v0.0212l-0.02117 0.0423v0.127l-0.02117 0.0423 0.02117 0.0212v0.14817l0.02117 0.0212v0.0423l0.04233 0.0423v0.0423l0.04233 0.0423 0.02117 0.0423 0.08467 0.0847 0.02117 0.0212 0.04233 0.0423 0.04233 0.0212h0.02117l0.02117 0.0212 0.04233 0.0212h0.02117l0.04233 0.0212h0.02117l0.04233 0.0212h0.254c0.11218-0.0406 0.1718-0.0663 0.27517-0.127l0.127-0.127 0.02117-0.0423 0.02117-0.0212v-0.0212l0.02117-0.0423 0.02117-0.0212v-0.0212l0.02117-0.0423v-0.0212l0.02117-0.0423v-0.27516l-0.02117-0.0212v-0.0423l-0.02117-0.0212v-0.0423l-0.04233-0.0423v-0.0423l-0.04233-0.0423-0.04234-0.0424-0.02117-0.0423-0.0635-0.0635h-0.04233l-0.04233-0.0423-0.04233-0.0212h-0.02117l-0.02117-0.0212h-0.04233l-0.02117-0.0212h-0.0635l-0.04233-0.0212h-0.0635"/>
   <path d="m72.849 138.26h-0.08467l-0.02117 0.0212h-0.0635l-0.04233 0.0212h-0.02117l-0.04233 0.0212h-0.02117l-0.02117 0.0212-0.04233 0.0212-0.02117 0.0212h-0.02117l-0.04233 0.0423-0.04233 0.0212-0.02117 0.0423-0.04234 0.0424v0.0212l-0.02117 0.0212-0.02117 0.0423-0.02117 0.0212v0.0212l-0.02117 0.0423v0.0212l-0.02117 0.0423v0.0635l-0.02117 0.0423v0.127l0.02117 0.0423v0.0635l0.02117 0.0212v0.0423l0.02117 0.0212v0.0212l0.02117 0.0423 0.04233 0.0423v0.0423l0.0635 0.0635 0.04233 0.0212 0.08467 0.0847h0.04233l0.04233 0.0423h0.04233l0.02117 0.0212h0.04233l0.02117 0.0212h0.27517l0.02117-0.0212h0.04233l0.02117-0.0212h0.04233l0.04233-0.0423h0.04233l0.0635-0.0635 0.04233-0.0212 0.08467-0.0847 0.02117-0.0423v-0.0212l0.02117-0.0212 0.02117-0.0423v-0.0212l0.02117-0.0212v-0.0423l0.02117-0.0212v-0.0423l0.02117-0.0212v-0.21167l-0.02117-0.0423v-0.0212l-0.02117-0.0423v-0.0212l-0.02117-0.0423v-0.0212l-0.02117-0.0212-0.02117-0.0423v-0.0212l-0.06351-0.0636-0.02117-0.0423-0.02117-0.0212-0.04233-0.0212-0.02117-0.0212h-0.02117l-0.02117-0.0212-0.04233-0.0212-0.02117-0.0212h-0.02117l-0.04233-0.0212h-0.02117l-0.04233-0.0212h-0.0635l-0.02117-0.0212h-0.0635"/>
  </g>
  <g fill="#00923f" fill-rule="evenodd" stroke="#1f1a17" stroke-linecap="round" stroke-linejoin="round" stroke-miterlimit="10" stroke-width=".021167">
   <path d="m79.009 141.23h-0.10583c-0.10266 0.0473-0.20955 0.0427-0.29633 0.127l-0.02117 0.0212-0.04233 0.0212c-0.07867 0.0667-0.12735 0.15487-0.1905 0.23284v0.0423l-0.02117 0.0212v0.0423l-0.02117 0.0212v0.0423l-0.02117 0.0423v0.21167l0.02117 0.0212v0.0423l0.02117 0.0423v0.0212l0.02117 0.0423v0.0212l0.02117 0.0423 0.04233 0.0423 0.02117 0.0423 0.08467 0.0847 0.02117 0.0423h0.04233l0.04233 0.0423 0.04233 0.0212c0.04904 0.0557 0.13088 0.0476 0.1905 0.0847h0.08467 0.21167l0.02117-0.0212h0.04233l0.04233-0.0212h0.02117l0.04233-0.0212 0.02117-0.0212 0.04233-0.0212 0.04233-0.0423h0.02117l0.0635-0.0635c0.09596-0.0833 0.05009-0.0801 0.127-0.14817v-0.0423l0.02117-0.0212 0.02117-0.0423v-0.0212l0.02117-0.0423v-0.0635l0.02117-0.0423v-0.14817l-0.02117-0.0212v-0.0847l-0.02117-0.0212v-0.0423l-0.02117-0.0212-0.02117-0.0423v-0.0212l-0.02117-0.0423-0.04233-0.0423-0.02117-0.0423c-0.08326-0.096-0.08008-0.0501-0.14817-0.127l-0.02117-0.0212-0.04233-0.0212-0.02117-0.0212h-0.04233l-0.02117-0.0212h-0.04233l-0.04233-0.0212h-0.02117l-0.04233-0.0212h-0.10583"/>
   <path d="m76.977 141.23h-0.04233c-0.17251 0.0106-0.36266 0.0903-0.48683 0.23283l-0.04233 0.0212v0.0423l-0.02117 0.0212c-0.07373 0.0748-0.14217 0.25294-0.127 0.35983v0.16934l0.02117 0.0423v0.0423l0.02117 0.0212v0.0423l0.02117 0.0212 0.02117 0.0423 0.04233 0.0423 0.02117 0.0423v0.0212l0.04233 0.0212 0.04233 0.0423 0.02117 0.0423h0.02117l0.04233 0.0212 0.02117 0.0212 0.04233 0.0212 0.02117 0.0212 0.04233 0.0212h0.02117l0.04233 0.0212h0.02117l0.04233 0.0212h0.16933c0.14711 0.0102 0.26352-0.0476 0.381-0.127l0.02117-0.0212h0.02117l0.02117-0.0423 0.04233-0.0212 0.0635-0.0635 0.02117-0.0423 0.02117-0.0212v-0.0212l0.02117-0.0423 0.02117-0.0212 0.02117-0.0423v-0.0635l0.02117-0.0423v-0.0635l0.02117-0.0423v-0.0635l-0.02117-0.0423v-0.0635l-0.02117-0.0423v-0.0635l-0.02117-0.0212-0.02117-0.0423-0.02117-0.0212v-0.0423l-0.04233-0.0423-0.02117-0.0423-0.04233-0.0423-0.04233-0.0212-0.0635-0.0635-0.04233-0.0212-0.02117-0.0212-0.04233-0.0212h-0.02117l-0.04233-0.0212h-0.02117l-0.04233-0.0212h-0.04233l-0.02117-0.0212h-0.10583"/>
   <path d="m74.881 141.23h-0.10583l-0.02117 0.0212h-0.04233l-0.02117 0.0212h-0.04233l-0.02117 0.0212h-0.04233c-0.07161 0.0815-0.05539 0.0243-0.127 0.10583l-0.04234 0.0424-0.04233 0.0423-0.02117 0.0423-0.04233 0.0423-0.02117 0.0423v0.0212l-0.02117 0.0423c-0.03387 0.0462-0.04621 0.10724-0.04233 0.16933v0.0635l-0.02117 0.0423 0.02117 0.0212v0.0423c-0.0018 0.12594-0.0053 0.0921 0.04233 0.21166l0.02117 0.0212v0.0423c0.07691 0.0681 0.03104 0.0649 0.127 0.14817l0.02117 0.0212 0.02117 0.0423h0.02117l0.02117 0.0212 0.04233 0.0212 0.04233 0.0423 0.04233 0.0212h0.02117l0.04233 0.0212h0.02117l0.04233 0.0212h0.14817c0.10724 0.0155 0.26988-0.0455 0.33867-0.127l0.04233-0.0212h0.02117l0.02117-0.0423 0.08467-0.0847 0.02117-0.0423 0.02117-0.0212v-0.0212l0.02117-0.0423 0.02117-0.0212v-0.0423l0.02117-0.0212v-0.0423l0.02117-0.0423v-0.27517l-0.02117-0.0423v-0.0212l-0.02117-0.0423v-0.0212l-0.02117-0.0423-0.02117-0.0212v-0.0423l-0.04233-0.0423-0.02117-0.0423-0.04233-0.0423-0.02117-0.0212-0.04233-0.0423-0.04233-0.0212-0.04233-0.0423-0.04233-0.0212h-0.02117l-0.02117-0.0212h-0.04233l-0.02117-0.0212h-0.04233l-0.02117-0.0212h-0.10583"/>
   <path d="m72.849 141.23h-0.10583l-0.04233 0.0212h-0.02117l-0.04233 0.0212h-0.02117l-0.04233 0.0212h-0.02117l-0.02117 0.0212-0.04233 0.0212-0.0635 0.0635-0.04233 0.0212-0.02117 0.0212-0.04233 0.0423-0.02117 0.0423v0.0212l-0.02117 0.0212-0.02117 0.0423-0.02117 0.0212v0.0423l-0.02117 0.0212v0.0423l-0.02117 0.0212v0.0847l-0.02117 0.0212v0.14817l0.02117 0.0423v0.0635l0.02117 0.0423v0.0212l0.02117 0.0423v0.0212l0.02117 0.0423 0.04233 0.0423v0.0423l0.127 0.127h0.02117l0.04233 0.0423 0.04233 0.0212 0.04233 0.0423h0.04233l0.02117 0.0212h0.04233l0.02117 0.0212h0.27517l0.02117-0.0212h0.04233l0.02117-0.0212h0.04233l0.04233-0.0423 0.04233-0.0212 0.04233-0.0423h0.02117l0.127-0.127v-0.0423l0.04234-0.0424 0.02117-0.0423v-0.0212l0.02117-0.0423v-0.0212l0.02117-0.0423v-0.0635l0.02117-0.0423v-0.14817l-0.02117-0.0212v-0.0847l-0.02117-0.0212v-0.0423l-0.02117-0.0212v-0.0423l-0.02117-0.0212-0.02117-0.0423-0.02117-0.0212v-0.0212l-0.02117-0.0423-0.04233-0.0423-0.02117-0.0212-0.04233-0.0212-0.0635-0.0635-0.04233-0.0212-0.02117-0.0212h-0.02117l-0.04233-0.0212h-0.02117l-0.04233-0.0212h-0.02117l-0.04233-0.0212h-0.08467"/>
  </g>
  <g fill-rule="evenodd" stroke="#1f1a17" stroke-linecap="round" stroke-linejoin="round" stroke-miterlimit="10">
   <path d="m79.453 116.78h-7.2178l-1.2277 1.2277v19.177h9.6732v-19.177l-1.2277-1.2277" fill="#848382" stroke-width=".19897"/>
   <g stroke-width=".075494">
    <path d="m73.357 131.11h0.1905l0.0635 0.0212c0.21802 0.0261 0.5401 0.20637 0.6985 0.35983l0.04233 0.0635 0.04233 0.0423c0.15804 0.17639 0.29316 0.4819 0.29633 0.71967l0.02117 0.0635v0.14817l-0.02117 0.0635c0.0018 0.26564-0.13053 0.52034-0.29633 0.71966l-0.04233 0.0635-0.08467 0.0847-0.0635 0.0423-0.04233 0.0423-0.0635 0.0423-0.04233 0.0212-0.0635 0.0423-0.0635 0.0212-0.0635 0.0423-0.04233 0.0212-0.127 0.0423h-0.08467l-0.0635 0.0212h-0.0635l-0.0635 0.0212h-0.14817l-0.0635-0.0212c-0.61348-0.0293-1.1815-0.59267-1.2065-1.2065l-0.02117-0.0635v-0.0635c0.01799-0.69674 0.48754-1.2287 1.1642-1.3547h0.21167" fill="#fff500"/>
    <path d="m73.654 118.69h0.14817l0.0635 0.0212c0.62124 0.073 1.1187 0.62865 1.143 1.2488v0.14817c-6e-3 0.63535-0.56727 1.2456-1.2065 1.27l-0.08467 0.0212h-0.127l-0.0635-0.0212c-0.61172 2e-3 -1.1755-0.60043-1.2277-1.2065v-0.127c-0.01129-0.647 0.49706-1.257 1.143-1.3335l0.08467-0.0212h0.127" fill="#848382"/>
    <path d="m78.077 131.15h0.0635l0.08467 0.0212c1.6471 0.19544 1.5815 2.5837-0.08467 2.6882h-0.127c-1.6743-0.12947-1.7307-2.4719-0.08467-2.6882l0.08467-0.0212h0.0635" fill="#848382"/>
   </g>
  </g>
  <path d="m75.876 125.18h0.14817c1.6655 0.26 1.585 2.5647-0.08467 2.7093h-0.127c-1.6796-0.16086-1.7336-2.468-0.0635-2.7093z" fill="none" stroke="#1f1a17" stroke-linecap="round" stroke-linejoin="round" stroke-miterlimit="10" stroke-width=".075494"/>
  <path d="m78.077 118.69h0.127l0.0635 0.0212h0.08467c0.18944 0.0508 0.57926 0.21096 0.67733 0.381l0.08467 0.0847c0.16792 0.19932 0.28646 0.45861 0.29633 0.71967l0.02117 0.0635v0.14817l-0.02117 0.0635c-0.0014 0.27234-0.12912 0.53128-0.29633 0.74083l-0.08467 0.0847c-0.19332 0.19261-0.48366 0.369-0.762 0.381h-0.0635l-0.0635 0.0212h-0.14817l-0.0635-0.0212c-0.61313-0.0162-1.185-0.59973-1.2065-1.2065v-0.0635l-0.02117-0.0635 0.02117-0.0847c-0.02117-0.23001 0.11994-0.54786 0.254-0.71967l0.04233-0.0635 0.04233-0.0423c0.17815-0.23707 0.46284-0.33726 0.74083-0.42333h0.0635l0.0635-0.0212h0.14817" fill="#00923f" fill-rule="evenodd" stroke="#1f1a17" stroke-linecap="round" stroke-linejoin="round" stroke-miterlimit="10" stroke-width=".075494"/>
 </g>
</svg>
