<?xml version="1.0" encoding="UTF-8" standalone="no"?>
<!-- Created with Inkscape (http://www.inkscape.org/) -->

<svg
   width="9.8933001mm"
   height="32.534237mm"
   viewBox="0 0 9.8932999 32.534238"
   version="1.1"
   id="svg1"
   xmlns="http://www.w3.org/2000/svg"
   xmlns:svg="http://www.w3.org/2000/svg">
  <defs
     id="defs1">
    <clipPath
       clipPathUnits="userSpaceOnUse"
       id="clipPath53">
      <path
         d="m 285.78,203.54 h 5.4 v 39.12 h -5.4 z"
         transform="translate(-290.88001,-242.42001)"
         id="path53" />
    </clipPath>
    <clipPath
       clipPathUnits="userSpaceOnUse"
       id="clipPath55">
      <path
         d="m 285.78,203.54 h 5.4 v 39.12 h -5.4 z"
         transform="translate(-290.88001,-242.42001)"
         id="path55" />
    </clipPath>
    <clipPath
       clipPathUnits="userSpaceOnUse"
       id="clipPath80">
      <path
         d="m 308.4,612.26 h 5.46 v 39.12 h -5.46 z"
         transform="translate(-313.56003,-651.14002)"
         id="path80" />
    </clipPath>
    <clipPath
       clipPathUnits="userSpaceOnUse"
       id="clipPath82">
      <path
         d="m 308.4,612.26 h 5.46 v 39.12 h -5.46 z"
         transform="translate(-313.56003,-651.14002)"
         id="path82" />
    </clipPath>
    <clipPath
       clipPathUnits="userSpaceOnUse"
       id="clipPath53-8">
      <path
         d="m 285.78,203.54 h 5.4 v 39.12 h -5.4 z"
         transform="translate(-290.88001,-242.42001)"
         id="path53-4" />
    </clipPath>
    <clipPath
       clipPathUnits="userSpaceOnUse"
       id="clipPath55-6">
      <path
         d="m 285.78,203.54 h 5.4 v 39.12 h -5.4 z"
         transform="translate(-290.88001,-242.42001)"
         id="path55-8" />
    </clipPath>
    <clipPath
       clipPathUnits="userSpaceOnUse"
       id="clipPath80-9">
      <path
         d="m 308.4,612.26 h 5.46 v 39.12 h -5.46 z"
         transform="translate(-313.56003,-651.14002)"
         id="path80-5" />
    </clipPath>
    <clipPath
       clipPathUnits="userSpaceOnUse"
       id="clipPath82-9">
      <path
         d="m 308.4,612.26 h 5.46 v 39.12 h -5.46 z"
         transform="translate(-313.56003,-651.14002)"
         id="path82-2" />
    </clipPath>
    <clipPath
       clipPathUnits="userSpaceOnUse"
       id="clipPath96">
      <path
         d="m 346.8,418.16 h 5.94 v 43.26 h -5.94 z"
         transform="translate(-352.44003,-461.18001)"
         id="path96" />
    </clipPath>
    <clipPath
       clipPathUnits="userSpaceOnUse"
       id="clipPath98">
      <path
         d="m 346.8,418.16 h 5.94 v 43.26 h -5.94 z"
         transform="translate(-352.44003,-461.18001)"
         id="path98" />
    </clipPath>
    <clipPath
       clipPathUnits="userSpaceOnUse"
       id="clipPath109">
      <path
         d="m 269.52,418.16 h 5.94 v 43.26 h -5.94 z"
         transform="translate(-275.16003,-461.18001)"
         id="path109" />
    </clipPath>
    <clipPath
       clipPathUnits="userSpaceOnUse"
       id="clipPath111">
      <path
         d="m 269.52,418.16 h 5.94 v 43.26 h -5.94 z"
         transform="translate(-275.16003,-461.18001)"
         id="path111" />
    </clipPath>
    <clipPath
       clipPathUnits="userSpaceOnUse"
       id="clipPath96-2">
      <path
         d="m 346.8,418.16 h 5.94 v 43.26 h -5.94 z"
         transform="translate(-352.44003,-461.18001)"
         id="path96-9" />
    </clipPath>
    <clipPath
       clipPathUnits="userSpaceOnUse"
       id="clipPath98-4">
      <path
         d="m 346.8,418.16 h 5.94 v 43.26 h -5.94 z"
         transform="translate(-352.44003,-461.18001)"
         id="path98-2" />
    </clipPath>
    <clipPath
       clipPathUnits="userSpaceOnUse"
       id="clipPath109-5">
      <path
         d="m 269.52,418.16 h 5.94 v 43.26 h -5.94 z"
         transform="translate(-275.16003,-461.18001)"
         id="path109-8" />
    </clipPath>
    <clipPath
       clipPathUnits="userSpaceOnUse"
       id="clipPath111-0">
      <path
         d="m 269.52,418.16 h 5.94 v 43.26 h -5.94 z"
         transform="translate(-275.16003,-461.18001)"
         id="path111-0" />
    </clipPath>
    <clipPath
       clipPathUnits="userSpaceOnUse"
       id="clipPath134">
      <path
         d="m 308.16,161.54 h 5.94 v 43.26 h -5.94 z"
         transform="translate(-313.80003,-204.56001)"
         id="path134" />
    </clipPath>
    <clipPath
       clipPathUnits="userSpaceOnUse"
       id="clipPath136">
      <path
         d="m 308.16,161.54 h 5.94 v 43.26 h -5.94 z"
         transform="translate(-313.80003,-204.56001)"
         id="path136" />
    </clipPath>
    <clipPath
       clipPathUnits="userSpaceOnUse"
       id="clipPath36">
      <path
         d="m 261,574.04 h 5.4 v 35.22 H 261 Z"
         transform="translate(-266.10001,-609.02002)"
         id="path36" />
    </clipPath>
    <clipPath
       clipPathUnits="userSpaceOnUse"
       id="clipPath38">
      <path
         d="m 261,574.04 h 5.4 v 35.22 H 261 Z"
         transform="translate(-266.10001,-609.02002)"
         id="path38" />
    </clipPath>
    <clipPath
       clipPathUnits="userSpaceOnUse"
       id="clipPath41">
      <path
         d="m 249.78,588.26 h 27.72 v 18.96 h -27.72 z"
         transform="translate(-277.38001,-606.86002)"
         id="path41" />
    </clipPath>
    <clipPath
       clipPathUnits="userSpaceOnUse"
       id="clipPath43">
      <path
         d="m 249.78,588.26 h 27.72 v 18.96 h -27.72 z"
         transform="translate(-277.38001,-606.86002)"
         id="path43" />
    </clipPath>
    <clipPath
       clipPathUnits="userSpaceOnUse"
       id="clipPath81">
      <path
         d="m 261,395.54 h 5.4 V 430.7 H 261 Z"
         transform="translate(-266.10001,-430.46001)"
         id="path81" />
    </clipPath>
    <clipPath
       clipPathUnits="userSpaceOnUse"
       id="clipPath83">
      <path
         d="m 261,395.54 h 5.4 V 430.7 H 261 Z"
         transform="translate(-266.10001,-430.46001)"
         id="path83" />
    </clipPath>
    <clipPath
       clipPathUnits="userSpaceOnUse"
       id="clipPath86">
      <path
         d="m 249.78,409.7 h 27.72 v 19.02 h -27.72 z"
         transform="translate(-277.38001,-428.36001)"
         id="path86" />
    </clipPath>
    <clipPath
       clipPathUnits="userSpaceOnUse"
       id="clipPath88">
      <path
         d="m 249.78,409.7 h 27.72 v 19.02 h -27.72 z"
         transform="translate(-277.38001,-428.36001)"
         id="path88" />
    </clipPath>
    <clipPath
       clipPathUnits="userSpaceOnUse"
       id="clipPath182">
      <path
         d="m 227.09,591.81 h 27.78 v 18.96 h -27.78 z"
         transform="translate(-2.5000001e-6,2.5000001e-5)"
         id="path182" />
    </clipPath>
    <clipPath
       clipPathUnits="userSpaceOnUse"
       id="clipPath215">
      <path
         d="m 227.09,404.009 h 27.78 v 18.96 h -27.78 z"
         transform="translate(-2.5000001e-6,2.5000001e-5)"
         id="path215" />
    </clipPath>
    <clipPath
       clipPathUnits="userSpaceOnUse"
       id="clipPath249">
      <path
         d="m 227.09,225.389 h 27.78 v 18.96 h -27.78 z"
         transform="translate(-2.5000001e-6,2.5000001e-5)"
         id="path249" />
    </clipPath>
  </defs>
  <g
     id="layer1"
     transform="translate(-73.024976,-93.662517)">
    <path
       id="path237"
       d="m 76.616959,95.582333 1.016,-1.037167 0.359833,0.359834 -1.016,1.037166 -0.359833,-0.359833"
       style="fill:#f4f015;fill-opacity:1;fill-rule:nonzero;stroke:none;stroke-width:0.352778" />
    <path
       id="path238"
       d="m 73.907625,94.629833 1.037167,1.037167 -0.359834,0.359833 -1.037166,-1.016 0.359833,-0.381"
       style="fill:#f4f015;fill-opacity:1;fill-rule:nonzero;stroke:none;stroke-width:0.352778" />
    <path
       id="path239"
       d="m 73.674792,99.096 1.037167,-1.037167 0.359833,0.359834 -1.037167,1.037166 L 73.674792,99.096"
       style="fill:#f4f015;fill-opacity:1;fill-rule:nonzero;stroke:none;stroke-width:0.352778" />
    <path
       id="path240"
       d="m 76.870959,98.101166 1.037167,1.016 -0.359834,0.359833 -1.037166,-1.016 0.359833,-0.359833"
       style="fill:#f4f015;fill-opacity:1;fill-rule:nonzero;stroke:none;stroke-width:0.352778" />
    <path
       id="path241"
       d="m 81.040792,108.00717 1.016,-1.016 0.381,0.35983 -1.037167,1.016 -0.359833,-0.35983"
       style="fill:#f4f015;fill-opacity:1;fill-rule:nonzero;stroke:none;stroke-width:0.352778" />
    <path
       id="path242"
       d="m 78.352625,107.07583 1.016,1.03717 -0.359833,0.35983 -1.037167,-1.03717 0.381,-0.35983"
       style="fill:#f4f015;fill-opacity:1;fill-rule:nonzero;stroke:none;stroke-width:0.352778" />
    <path
       id="path243"
       d="m 78.098625,111.52083 1.037167,-1.016 0.359833,0.35983 -1.037167,1.016 -0.359833,-0.35983"
       style="fill:#f4f015;fill-opacity:1;fill-rule:nonzero;stroke:none;stroke-width:0.352778" />
    <path
       id="path244"
       d="m 81.294792,110.526 1.037167,1.03717 -0.359834,0.35983 -1.037166,-1.03717 0.359833,-0.35983"
       style="fill:#f4f015;fill-opacity:1;fill-rule:nonzero;stroke:none;stroke-width:0.352778" />
    <path
       id="path245"
       d="m 77.103798,126.14701 h 1.735667 v -12.29783 h -1.735667 z"
       style="fill:#7e7e7e;fill-opacity:1;fill-rule:nonzero;stroke:none;stroke-width:0.352778" />
    <path
       id="path246"
       d="m 77.103798,113.84918 h 1.735667 v 12.29783 h -1.735667 z m 1.735667,0 z"
       style="fill:none;stroke:#1e1917;stroke-width:0.0994833;stroke-linecap:round;stroke-linejoin:round;stroke-miterlimit:10;stroke-dasharray:none;stroke-opacity:1" />
    <path
       id="path247"
       d="m 73.103299,121.02468 h 9.715499 v -6.4135 h -9.715499 z"
       style="fill:#7e7e7e;fill-opacity:1;fill-rule:nonzero;stroke:none;stroke-width:0.352778" />
    <path
       id="path248"
       d="m 227.21,243.989 h 27.54 v -18.18 h -27.54 z m 27.54,0 z"
       style="fill:none;stroke:#1e1917;stroke-width:0.564;stroke-linecap:round;stroke-linejoin:round;stroke-miterlimit:10;stroke-dasharray:none;stroke-opacity:1"
       transform="matrix(0.35277776,0,0,-0.35277776,-7.0513363,200.68507)"
       clip-path="url(#clipPath249)" />
    <path
       id="path250"
       d="m 81.146625,115.2885 h -0.08467 c -0.06844,-0.004 -0.1397,0.004 -0.1905,0.0423 l -0.04233,0.0212 h -0.02117 c -0.09031,0.0501 -0.121355,0.0741 -0.1905,0.14817 l -0.02117,0.0212 -0.04233,0.0212 v 0.0212 l -0.02117,0.0423 -0.04233,0.0423 -0.02117,0.0423 v 0.0212 l -0.02117,0.0423 v 0.0635 l -0.02117,0.0212 v 0.21167 l 0.02117,0.0212 v 0.0847 l 0.02117,0.0212 v 0.0212 l 0.02117,0.0423 0.04233,0.0423 0.02117,0.0423 v 0.0212 l 0.04233,0.0212 0.0635,0.0635 0.02117,0.0423 h 0.02117 l 0.04233,0.0212 0.02117,0.0212 0.04233,0.0212 0.02117,0.0212 h 0.04233 l 0.02117,0.0212 h 0.04233 l 0.02117,0.0212 h 0.08467 l 0.02117,0.0212 c 0.174273,0.006 0.09878,-0.002 0.232834,-0.0212 h 0.02117 l 0.04233,-0.0212 h 0.02117 l 0.04233,-0.0212 h 0.04233 l 0.04233,-0.0423 0.04233,-0.0212 0.02117,-0.0212 h 0.02117 l 0.0635,-0.0635 c 0.08043,-0.0769 0.06491,-0.0642 0.127,-0.14816 v -0.0212 l 0.02117,-0.0423 0.02117,-0.0212 v -0.0212 l 0.02117,-0.0423 v -0.0635 l 0.02117,-0.0423 v -0.127 l -0.02117,-0.0423 v -0.0635 l -0.02117,-0.0212 v -0.0423 l -0.02117,-0.0212 -0.02117,-0.0423 v -0.0212 l -0.02117,-0.0212 -0.02117,-0.0423 -0.02117,-0.0212 c -0.115358,-0.1203 -0.296333,-0.25329 -0.465667,-0.254 h -0.105833"
       style="fill:#7e7e7e;fill-opacity:1;fill-rule:evenodd;stroke:#1e1917;stroke-width:0.0211667;stroke-linecap:round;stroke-linejoin:round;stroke-miterlimit:10;stroke-dasharray:none;stroke-opacity:1" />
    <path
       id="path251"
       d="m 79.093458,115.2885 h -0.169333 l -0.04233,0.0212 h -0.02117 l -0.04233,0.0212 -0.02117,0.0212 h -0.04233 l -0.02117,0.0212 -0.04233,0.0212 c -0.06809,0.0769 -0.06491,0.0311 -0.148166,0.127 l -0.04233,0.0423 -0.02117,0.0423 -0.02117,0.0212 v 0.0212 l -0.02117,0.0423 -0.02117,0.0212 v 0.0423 l -0.02117,0.0212 v 0.10584 l -0.02117,0.0423 v 0.0635 l 0.02117,0.0212 v 0.10583 l 0.02117,0.0423 v 0.0212 l 0.02117,0.0212 0.02117,0.0423 v 0.0212 c 0.06209,0.084 0.04657,0.0713 0.127,0.14816 l 0.0635,0.0635 h 0.02117 l 0.02117,0.0212 0.04233,0.0212 0.02117,0.0212 0.04233,0.0212 h 0.02117 l 0.04233,0.0212 h 0.02117 l 0.04233,0.0212 h 0.02117 c 0.119592,0.0187 0.08925,0.0261 0.232834,0.0212 l 0.02117,-0.0212 h 0.08467 l 0.02117,-0.0212 h 0.04233 l 0.04233,-0.0212 h 0.02117 l 0.02117,-0.0212 0.04233,-0.0212 0.02117,-0.0212 0.04233,-0.0212 h 0.02117 l 0.02117,-0.0423 0.04233,-0.0423 0.04233,-0.0212 v -0.0212 l 0.02117,-0.0212 0.02117,-0.0423 0.04233,-0.0423 0.02117,-0.0423 v -0.0212 l 0.02117,-0.0212 v -0.0423 l 0.02117,-0.0423 v -0.254 l -0.02117,-0.0423 v -0.0212 l -0.02117,-0.0423 v -0.0212 l -0.02117,-0.0423 -0.04233,-0.0423 -0.02117,-0.0423 -0.02117,-0.0212 v -0.0212 l -0.04233,-0.0212 -0.02117,-0.0212 c -0.05256,-0.06 -0.100189,-0.0878 -0.169333,-0.127 h -0.02117 l -0.02117,-0.0212 c -0.07055,-0.0293 -0.131939,-0.0497 -0.211666,-0.0423 h -0.08467"
       style="fill:#7e7e7e;fill-opacity:1;fill-rule:evenodd;stroke:#1e1917;stroke-width:0.0211667;stroke-linecap:round;stroke-linejoin:round;stroke-miterlimit:10;stroke-dasharray:none;stroke-opacity:1" />
    <path
       id="path252"
       d="m 76.997959,115.2885 h -0.169333 l -0.02117,0.0212 h -0.04233 l -0.04233,0.0423 h -0.04233 l -0.04233,0.0423 -0.04233,0.0212 -0.148166,0.14817 -0.02117,0.0423 v 0.0212 l -0.02117,0.0212 -0.02117,0.0423 v 0.0212 l -0.02117,0.0423 v 0.0212 l -0.02117,0.0423 v 0.254 l 0.02117,0.0423 v 0.0423 c 0.05397,0.0734 0.06526,0.17357 0.148167,0.23284 l 0.04233,0.0423 0.02117,0.0423 h 0.02117 l 0.04233,0.0212 0.04233,0.0423 0.04233,0.0212 h 0.02117 l 0.02117,0.0212 h 0.04233 l 0.02117,0.0212 h 0.0635 l 0.04233,0.0212 h 0.127 l 0.04233,-0.0212 h 0.0635 l 0.04233,-0.0212 h 0.02117 l 0.02117,-0.0212 h 0.04233 l 0.04233,-0.0423 0.04233,-0.0212 0.02117,-0.0212 h 0.02117 l 0.02117,-0.0423 0.105833,-0.10583 0.02117,-0.0423 0.04233,-0.0423 v -0.0423 l 0.02117,-0.0212 v -0.0212 l 0.02117,-0.0423 v -0.10583 l 0.02117,-0.0212 v -0.0635 l -0.02117,-0.0423 v -0.10584 l -0.02117,-0.0212 v -0.0423 l -0.02117,-0.0212 v -0.0423 c -0.0762,-0.0889 -0.0949,-0.12488 -0.1905,-0.21166 l -0.04233,-0.0423 -0.04233,-0.0212 -0.02117,-0.0212 h -0.02117 l -0.04233,-0.0212 -0.02117,-0.0212 h -0.02117 l -0.04233,-0.0212 h -0.169333"
       style="fill:#7e7e7e;fill-opacity:1;fill-rule:evenodd;stroke:#1e1917;stroke-width:0.0211667;stroke-linecap:round;stroke-linejoin:round;stroke-miterlimit:10;stroke-dasharray:none;stroke-opacity:1" />
    <path
       id="path253"
       d="m 74.965959,115.2885 h -0.169333 l -0.04233,0.0212 h -0.02117 l -0.02117,0.0212 -0.04233,0.0212 h -0.02117 l -0.04233,0.0212 -0.105834,0.10583 -0.04233,0.0212 v 0.0212 l -0.04233,0.0423 -0.02117,0.0423 -0.04233,0.0423 v 0.0423 l -0.02117,0.0212 v 0.0423 l -0.02117,0.0212 v 0.0635 l -0.02117,0.0423 v 0.127 l 0.02117,0.0423 v 0.0635 l 0.02117,0.0423 v 0.0212 l 0.02117,0.0212 v 0.0423 l 0.04233,0.0423 0.02117,0.0423 0.04233,0.0423 v 0.0212 l 0.04233,0.0212 0.02117,0.0212 0.02117,0.0423 h 0.02117 l 0.04233,0.0423 0.04233,0.0212 0.02117,0.0212 h 0.04233 l 0.02117,0.0212 h 0.02117 l 0.04233,0.0212 h 0.0635 l 0.04233,0.0212 h 0.127 l 0.04233,-0.0212 h 0.0635 l 0.02117,-0.0212 h 0.02117 l 0.04233,-0.0212 h 0.02117 l 0.04233,-0.0212 0.04233,-0.0423 0.04233,-0.0212 h 0.02117 l 0.02117,-0.0423 0.04233,-0.0423 c 0.0829,-0.0593 0.09419,-0.15946 0.148167,-0.23284 v -0.0847 l 0.02117,-0.0212 v -0.21167 l -0.02117,-0.0212 v -0.0635 l -0.02117,-0.0423 v -0.0212 l -0.02117,-0.0423 -0.02117,-0.0212 v -0.0212 l -0.02117,-0.0423 -0.148166,-0.14817 -0.04233,-0.0212 -0.04233,-0.0423 h -0.04233 l -0.02117,-0.0212 -0.04233,-0.0212 h -0.02117 l -0.02117,-0.0212 H 74.96595"
       style="fill:#7e7e7e;fill-opacity:1;fill-rule:evenodd;stroke:#1e1917;stroke-width:0.0211667;stroke-linecap:round;stroke-linejoin:round;stroke-miterlimit:10;stroke-dasharray:none;stroke-opacity:1" />
    <path
       id="path254"
       d="m 81.146625,118.25183 h -0.148167 l -0.04233,0.0212 h -0.02117 l -0.04233,0.0212 h -0.02117 l -0.04233,0.0212 -0.02117,0.0212 h -0.04233 l -0.02117,0.0212 -0.04233,0.0212 -0.0635,0.0635 -0.02117,0.0423 -0.02117,0.0212 -0.04233,0.0212 v 0.0212 l -0.02117,0.0423 -0.02117,0.0212 -0.02117,0.0423 -0.02117,0.0212 v 0.0423 l -0.02117,0.0212 v 0.0635 l -0.02117,0.0423 v 0.21166 l 0.02117,0.0423 v 0.0635 l 0.02117,0.0423 v 0.0212 l 0.02117,0.0423 0.02117,0.0212 0.02117,0.0423 0.02117,0.0212 v 0.0212 l 0.148167,0.14817 0.04233,0.0212 0.02117,0.0212 0.04233,0.0212 h 0.02117 l 0.04233,0.0212 0.02117,0.0212 h 0.04233 l 0.02117,0.0212 h 0.08467 l 0.02117,0.0212 h 0.148167 l 0.04233,-0.0212 h 0.0635 l 0.04233,-0.0212 h 0.02117 l 0.08467,-0.0423 h 0.02117 l 0.02117,-0.0212 0.04233,-0.0212 0.04233,-0.0423 0.04233,-0.0212 0.0635,-0.0635 0.02117,-0.0423 0.04233,-0.0423 0.02117,-0.0423 v -0.0212 l 0.02117,-0.0423 0.02117,-0.0212 v -0.0423 l 0.02117,-0.0212 v -0.0847 l 0.02117,-0.0212 v -0.14817 l -0.02117,-0.0423 v -0.0635 l -0.02117,-0.0423 v -0.0212 l -0.02117,-0.0423 -0.02117,-0.0212 v -0.0423 l -0.02117,-0.0212 -0.02117,-0.0423 -0.0635,-0.0635 -0.02117,-0.0423 -0.02117,-0.0212 -0.04233,-0.0212 -0.04233,-0.0423 -0.04233,-0.0212 h -0.02117 l -0.02117,-0.0212 -0.04233,-0.0212 h -0.04233 l -0.02117,-0.0212 h -0.04233 l -0.02117,-0.0212 h -0.148167"
       style="fill:#299540;fill-opacity:1;fill-rule:evenodd;stroke:#1e1917;stroke-width:0.0211667;stroke-linecap:round;stroke-linejoin:round;stroke-miterlimit:10;stroke-dasharray:none;stroke-opacity:1" />
    <path
       id="path255"
       d="m 79.093458,118.25183 h -0.148167 l -0.02117,0.0212 h -0.04233 l -0.02117,0.0212 h -0.04233 l -0.02117,0.0212 -0.04233,0.0212 h -0.02117 l -0.04233,0.0212 -0.04233,0.0423 -0.04233,0.0212 -0.02117,0.0212 -0.02117,0.0423 -0.0635,0.0635 -0.02117,0.0423 -0.02117,0.0212 v 0.0423 l -0.02117,0.0212 -0.02117,0.0423 v 0.0212 l -0.02117,0.0423 v 0.10583 l -0.02117,0.0212 v 0.0847 l 0.02117,0.0423 v 0.10583 l 0.02117,0.0212 v 0.0423 l 0.02117,0.0212 0.02117,0.0423 v 0.0212 l 0.02117,0.0423 0.02117,0.0212 c 0.0441,0.0526 0.07585,0.12488 0.148167,0.14816 l 0.04233,0.0423 0.04233,0.0212 0.02117,0.0212 h 0.04233 l 0.02117,0.0212 0.04233,0.0212 h 0.02117 l 0.04233,0.0212 h 0.0635 l 0.04233,0.0212 h 0.04233 c 0.234598,0.009 0.0078,-0.0293 0.211667,-0.0212 l 0.02117,-0.0212 h 0.04233 c 0.0702,-0.0452 0.149225,-0.067 0.211667,-0.127 l 0.0635,-0.0635 0.04233,-0.0212 v -0.0423 c 0.216606,-0.22436 0.19685,-0.62724 0,-0.84666 v -0.0212 l -0.04233,-0.0212 -0.02117,-0.0423 -0.0635,-0.0635 -0.04233,-0.0212 -0.02117,-0.0212 h -0.04233 l -0.04233,-0.0423 h -0.04233 l -0.04233,-0.0212 h -0.02117 l -0.04233,-0.0212 h -0.148167"
       style="fill:#299540;fill-opacity:1;fill-rule:evenodd;stroke:#1e1917;stroke-width:0.0211667;stroke-linecap:round;stroke-linejoin:round;stroke-miterlimit:10;stroke-dasharray:none;stroke-opacity:1" />
    <path
       id="path256"
       d="m 76.997959,118.25183 h -0.127 c -0.122061,0.0483 -0.24765,0.0857 -0.338667,0.1905 l -0.02117,0.0423 -0.0635,0.0635 -0.02117,0.0423 v 0.0212 l -0.02117,0.0423 -0.02117,0.0212 v 0.0423 l -0.02117,0.0212 v 0.0423 l -0.02117,0.0212 v 0.29634 l 0.02117,0.0423 v 0.0212 l 0.02117,0.0423 v 0.0212 l 0.02117,0.0423 0.02117,0.0212 v 0.0423 l 0.04233,0.0423 0.02117,0.0423 0.105833,0.10583 0.04233,0.0212 0.04233,0.0423 h 0.04233 l 0.04233,0.0423 h 0.04233 l 0.02117,0.0212 h 0.0635 l 0.04233,0.0212 h 0.127 l 0.04233,-0.0212 h 0.0635 l 0.04233,-0.0212 h 0.02117 l 0.02117,-0.0212 0.04233,-0.0212 h 0.02117 l 0.02117,-0.0212 0.04233,-0.0212 0.105833,-0.10584 c 0.09631,-0.11536 0.171803,-0.23283 0.169334,-0.381 v -0.0212 l 0.02117,-0.0423 v -0.0847 l -0.02117,-0.0212 V 118.781 l -0.02117,-0.0423 v -0.0212 l -0.02117,-0.0423 v -0.0212 l -0.02117,-0.0423 -0.02117,-0.0212 -0.02117,-0.0423 -0.0635,-0.0635 -0.02117,-0.0423 -0.08467,-0.0847 -0.04233,-0.0212 h -0.02117 l -0.02117,-0.0212 -0.04233,-0.0212 h -0.02117 l -0.02117,-0.0212 h -0.04233 l -0.02117,-0.0212 h -0.148167"
       style="fill:#299540;fill-opacity:1;fill-rule:evenodd;stroke:#1e1917;stroke-width:0.0211667;stroke-linecap:round;stroke-linejoin:round;stroke-miterlimit:10;stroke-dasharray:none;stroke-opacity:1" />
    <path
       id="path257"
       d="m 74.965959,118.25183 h -0.148167 l -0.02117,0.0212 h -0.04233 l -0.02117,0.0212 h -0.04233 l -0.04233,0.0423 h -0.04233 l -0.169334,0.16933 v 0.0212 l -0.02117,0.0212 -0.02117,0.0423 -0.02117,0.0212 -0.02117,0.0423 v 0.0212 l -0.02117,0.0423 v 0.0212 l -0.02117,0.0423 v 0.0635 l -0.02117,0.0423 v 0.14817 l 0.02117,0.0212 v 0.0847 l 0.02117,0.0212 v 0.0423 l 0.02117,0.0212 v 0.0423 l 0.02117,0.0212 0.02117,0.0423 0.04233,0.0423 v 0.0423 l 0.02117,0.0212 0.04233,0.0212 0.105834,0.10583 0.04233,0.0212 h 0.02117 l 0.02117,0.0212 0.04233,0.0212 h 0.02117 l 0.04233,0.0212 h 0.0635 l 0.02117,0.0212 h 0.148167 l 0.02117,-0.0212 h 0.08467 l 0.02117,-0.0212 h 0.02117 l 0.04233,-0.0212 0.02117,-0.0212 h 0.04233 l 0.0635,-0.0635 0.04233,-0.0212 0.08467,-0.0847 0.02117,-0.0423 0.04233,-0.0423 v -0.0423 l 0.02117,-0.0212 0.02117,-0.0423 v -0.0212 l 0.02117,-0.0423 v -0.0635 l 0.02117,-0.0423 v -0.21166 l -0.02117,-0.0423 v -0.0635 l -0.02117,-0.0212 v -0.0423 l -0.02117,-0.0212 -0.02117,-0.0423 v -0.0212 l -0.02117,-0.0423 -0.0635,-0.0635 -0.02117,-0.0423 -0.04233,-0.0423 -0.04233,-0.0212 -0.04233,-0.0423 h -0.02117 l -0.04233,-0.0212 -0.02117,-0.0212 h -0.04233 l -0.02117,-0.0212 h -0.02117 l -0.04233,-0.0212 h -0.127"
       style="fill:#299540;fill-opacity:1;fill-rule:evenodd;stroke:#1e1917;stroke-width:0.0211667;stroke-linecap:round;stroke-linejoin:round;stroke-miterlimit:10;stroke-dasharray:none;stroke-opacity:1" />
    <path
       id="path258"
       d="m 81.591125,93.762 h -7.239 l -1.227666,1.227667 v 19.198163 h 9.694333 V 94.989667 L 81.591125,93.762"
       style="fill:#7e7e7e;fill-opacity:1;fill-rule:evenodd;stroke:#1e1917;stroke-width:0.198967;stroke-linecap:round;stroke-linejoin:round;stroke-miterlimit:10;stroke-dasharray:none;stroke-opacity:1" />
    <path
       id="path259"
       d="m 75.685625,108.21883 h 0.148167 c 1.662641,0.25329 1.609725,2.53612 -0.0635,2.70933 h -0.211667 l -0.0635,-0.0212 c -0.202142,0.009 -0.583847,-0.18874 -0.719667,-0.33867 l -0.08467,-0.0847 c -0.166864,-0.16369 -0.322792,-0.46531 -0.338667,-0.6985 v -0.0635 l -0.02117,-0.0847 v -0.0635 c -0.0032,-0.66605 0.505178,-1.26189 1.164167,-1.3335 l 0.0635,-0.0212 h 0.127"
       style="fill:#f4f015;fill-opacity:1;fill-rule:evenodd;stroke:#1e1917;stroke-width:0.0754944;stroke-linecap:round;stroke-linejoin:round;stroke-miterlimit:10;stroke-dasharray:none;stroke-opacity:1" />
    <path
       id="path260"
       d="m 75.770292,95.667 h 0.148167 c 1.664052,0.265642 1.610077,2.531886 -0.0635,2.709333 h -0.148167 c -1.678517,-0.172155 -1.73355,-2.44863 -0.0635,-2.709333 h 0.127"
       style="fill:#7e7e7e;fill-opacity:1;fill-rule:evenodd;stroke:#1e1917;stroke-width:0.0754944;stroke-linecap:round;stroke-linejoin:round;stroke-miterlimit:10;stroke-dasharray:none;stroke-opacity:1" />
    <path
       id="path261"
       d="m 80.321125,108.15533 h 0.148167 c 1.662288,0.25435 1.583972,2.59327 -0.08467,2.70933 h -0.275167 c -0.329141,-0.11465 -0.4191,-0.10301 -0.6985,-0.33866 l -0.105833,-0.10584 c -0.147461,-0.16862 -0.303036,-0.47413 -0.3175,-0.6985 l -0.02117,-0.0635 V 109.51 c -0.01129,-0.64629 0.495653,-1.25201 1.143,-1.3335 l 0.08467,-0.0212 h 0.127"
       style="fill:#7e7e7e;fill-opacity:1;fill-rule:evenodd;stroke:#1e1917;stroke-width:0.0754944;stroke-linecap:round;stroke-linejoin:round;stroke-miterlimit:10;stroke-dasharray:none;stroke-opacity:1" />
    <path
       id="path262"
       d="m 78.013959,102.16517 h 0.0635 l 0.0635,0.0212 h 0.0635 c 0.625122,0.0727 1.13665,0.64593 1.164167,1.27 v 0.14816 c -0.02822,0.64065 -0.575028,1.2446 -1.227667,1.27 l -0.0635,0.0212 h -0.148167 l -0.0635,-0.0212 c -0.617008,-0.036 -1.177219,-0.58737 -1.2065,-1.2065 l -0.02117,-0.0635 v -0.0847 c 0.02752,-0.68192 0.48648,-1.21991 1.164166,-1.3335 h 0.0635 l 0.0635,-0.0212 z"
       style="fill:none;stroke:#1e1917;stroke-width:0.0754944;stroke-linecap:round;stroke-linejoin:round;stroke-miterlimit:10;stroke-dasharray:none;stroke-opacity:1" />
    <path
       id="path267"
       d="m 80.194125,95.667 h 0.148167 c 1.664052,0.265642 1.610077,2.531886 -0.0635,2.709333 H 80.130625 C 78.449992,98.204178 78.3939,95.928056 80.067125,95.667 h 0.127"
       style="fill:#299540;fill-opacity:1;fill-rule:evenodd;stroke:#1e1917;stroke-width:0.0754944;stroke-linecap:round;stroke-linejoin:round;stroke-miterlimit:10;stroke-dasharray:none;stroke-opacity:1" >
       <animate
          attributeName="fill"
          values="#299540;#7e7e7e"
          dur="1.5s"
          calcMode="discrete"
          repeatCount="indefinite" />
    </path>
  </g>
</svg>
