<?xml version="1.0" encoding="UTF-8" standalone="no"?>
<!-- Created with Inkscape (http://www.inkscape.org/) -->

<svg
   width="9.8721342mm"
   height="32.534588mm"
   viewBox="0 0 9.8721341 32.534589"
   version="1.1"
   id="svg1"
   xmlns="http://www.w3.org/2000/svg"
   xmlns:svg="http://www.w3.org/2000/svg">
  <defs
     id="defs1">
    <clipPath
       clipPathUnits="userSpaceOnUse"
       id="clipPath53">
      <path
         d="m 285.78,203.54 h 5.4 v 39.12 h -5.4 z"
         transform="translate(-290.88001,-242.42001)"
         id="path53" />
    </clipPath>
    <clipPath
       clipPathUnits="userSpaceOnUse"
       id="clipPath55">
      <path
         d="m 285.78,203.54 h 5.4 v 39.12 h -5.4 z"
         transform="translate(-290.88001,-242.42001)"
         id="path55" />
    </clipPath>
    <clipPath
       clipPathUnits="userSpaceOnUse"
       id="clipPath80">
      <path
         d="m 308.4,612.26 h 5.46 v 39.12 h -5.46 z"
         transform="translate(-313.56003,-651.14002)"
         id="path80" />
    </clipPath>
    <clipPath
       clipPathUnits="userSpaceOnUse"
       id="clipPath82">
      <path
         d="m 308.4,612.26 h 5.46 v 39.12 h -5.46 z"
         transform="translate(-313.56003,-651.14002)"
         id="path82" />
    </clipPath>
    <clipPath
       clipPathUnits="userSpaceOnUse"
       id="clipPath53-8">
      <path
         d="m 285.78,203.54 h 5.4 v 39.12 h -5.4 z"
         transform="translate(-290.88001,-242.42001)"
         id="path53-4" />
    </clipPath>
    <clipPath
       clipPathUnits="userSpaceOnUse"
       id="clipPath55-6">
      <path
         d="m 285.78,203.54 h 5.4 v 39.12 h -5.4 z"
         transform="translate(-290.88001,-242.42001)"
         id="path55-8" />
    </clipPath>
    <clipPath
       clipPathUnits="userSpaceOnUse"
       id="clipPath80-9">
      <path
         d="m 308.4,612.26 h 5.46 v 39.12 h -5.46 z"
         transform="translate(-313.56003,-651.14002)"
         id="path80-5" />
    </clipPath>
    <clipPath
       clipPathUnits="userSpaceOnUse"
       id="clipPath82-9">
      <path
         d="m 308.4,612.26 h 5.46 v 39.12 h -5.46 z"
         transform="translate(-313.56003,-651.14002)"
         id="path82-2" />
    </clipPath>
    <clipPath
       clipPathUnits="userSpaceOnUse"
       id="clipPath96">
      <path
         d="m 346.8,418.16 h 5.94 v 43.26 h -5.94 z"
         transform="translate(-352.44003,-461.18001)"
         id="path96" />
    </clipPath>
    <clipPath
       clipPathUnits="userSpaceOnUse"
       id="clipPath98">
      <path
         d="m 346.8,418.16 h 5.94 v 43.26 h -5.94 z"
         transform="translate(-352.44003,-461.18001)"
         id="path98" />
    </clipPath>
    <clipPath
       clipPathUnits="userSpaceOnUse"
       id="clipPath109">
      <path
         d="m 269.52,418.16 h 5.94 v 43.26 h -5.94 z"
         transform="translate(-275.16003,-461.18001)"
         id="path109" />
    </clipPath>
    <clipPath
       clipPathUnits="userSpaceOnUse"
       id="clipPath111">
      <path
         d="m 269.52,418.16 h 5.94 v 43.26 h -5.94 z"
         transform="translate(-275.16003,-461.18001)"
         id="path111" />
    </clipPath>
    <clipPath
       clipPathUnits="userSpaceOnUse"
       id="clipPath96-2">
      <path
         d="m 346.8,418.16 h 5.94 v 43.26 h -5.94 z"
         transform="translate(-352.44003,-461.18001)"
         id="path96-9" />
    </clipPath>
    <clipPath
       clipPathUnits="userSpaceOnUse"
       id="clipPath98-4">
      <path
         d="m 346.8,418.16 h 5.94 v 43.26 h -5.94 z"
         transform="translate(-352.44003,-461.18001)"
         id="path98-2" />
    </clipPath>
    <clipPath
       clipPathUnits="userSpaceOnUse"
       id="clipPath109-5">
      <path
         d="m 269.52,418.16 h 5.94 v 43.26 h -5.94 z"
         transform="translate(-275.16003,-461.18001)"
         id="path109-8" />
    </clipPath>
    <clipPath
       clipPathUnits="userSpaceOnUse"
       id="clipPath111-0">
      <path
         d="m 269.52,418.16 h 5.94 v 43.26 h -5.94 z"
         transform="translate(-275.16003,-461.18001)"
         id="path111-0" />
    </clipPath>
    <clipPath
       clipPathUnits="userSpaceOnUse"
       id="clipPath134">
      <path
         d="m 308.16,161.54 h 5.94 v 43.26 h -5.94 z"
         transform="translate(-313.80003,-204.56001)"
         id="path134" />
    </clipPath>
    <clipPath
       clipPathUnits="userSpaceOnUse"
       id="clipPath136">
      <path
         d="m 308.16,161.54 h 5.94 v 43.26 h -5.94 z"
         transform="translate(-313.80003,-204.56001)"
         id="path136" />
    </clipPath>
    <clipPath
       clipPathUnits="userSpaceOnUse"
       id="clipPath36">
      <path
         d="m 261,574.04 h 5.4 v 35.22 H 261 Z"
         transform="translate(-266.10001,-609.02002)"
         id="path36" />
    </clipPath>
    <clipPath
       clipPathUnits="userSpaceOnUse"
       id="clipPath38">
      <path
         d="m 261,574.04 h 5.4 v 35.22 H 261 Z"
         transform="translate(-266.10001,-609.02002)"
         id="path38" />
    </clipPath>
    <clipPath
       clipPathUnits="userSpaceOnUse"
       id="clipPath41">
      <path
         d="m 249.78,588.26 h 27.72 v 18.96 h -27.72 z"
         transform="translate(-277.38001,-606.86002)"
         id="path41" />
    </clipPath>
    <clipPath
       clipPathUnits="userSpaceOnUse"
       id="clipPath43">
      <path
         d="m 249.78,588.26 h 27.72 v 18.96 h -27.72 z"
         transform="translate(-277.38001,-606.86002)"
         id="path43" />
    </clipPath>
    <clipPath
       clipPathUnits="userSpaceOnUse"
       id="clipPath81">
      <path
         d="m 261,395.54 h 5.4 V 430.7 H 261 Z"
         transform="translate(-266.10001,-430.46001)"
         id="path81" />
    </clipPath>
    <clipPath
       clipPathUnits="userSpaceOnUse"
       id="clipPath83">
      <path
         d="m 261,395.54 h 5.4 V 430.7 H 261 Z"
         transform="translate(-266.10001,-430.46001)"
         id="path83" />
    </clipPath>
    <clipPath
       clipPathUnits="userSpaceOnUse"
       id="clipPath86">
      <path
         d="m 249.78,409.7 h 27.72 v 19.02 h -27.72 z"
         transform="translate(-277.38001,-428.36001)"
         id="path86" />
    </clipPath>
    <clipPath
       clipPathUnits="userSpaceOnUse"
       id="clipPath88">
      <path
         d="m 249.78,409.7 h 27.72 v 19.02 h -27.72 z"
         transform="translate(-277.38001,-428.36001)"
         id="path88" />
    </clipPath>
    <clipPath
       clipPathUnits="userSpaceOnUse"
       id="clipPath182">
      <path
         d="m 227.09,591.81 h 27.78 v 18.96 h -27.78 z"
         transform="translate(-2.5000001e-6,2.5000001e-5)"
         id="path182" />
    </clipPath>
    <clipPath
       clipPathUnits="userSpaceOnUse"
       id="clipPath215">
      <path
         d="m 227.09,404.009 h 27.78 v 18.96 h -27.78 z"
         transform="translate(-2.5000001e-6,2.5000001e-5)"
         id="path215" />
    </clipPath>
    <clipPath
       clipPathUnits="userSpaceOnUse"
       id="clipPath249">
      <path
         d="m 227.09,225.389 h 27.78 v 18.96 h -27.78 z"
         transform="translate(-2.5000001e-6,2.5000001e-5)"
         id="path249" />
    </clipPath>
    <clipPath
       clipPathUnits="userSpaceOnUse"
       id="clipPath299">
      <path
         d="m 249.77,588.33 h 27.72 v 18.96 h -27.72 z"
         transform="translate(-2.5000001e-5,2.5000001e-5)"
         id="path299" />
    </clipPath>
    <clipPath
       clipPathUnits="userSpaceOnUse"
       id="clipPath335">
      <path
         d="m 249.77,406.289 h 27.72 v 18.96 h -27.72 z"
         transform="translate(-2.5000001e-5,2.5000001e-5)"
         id="path335" />
    </clipPath>
  </defs>
  <g
     id="layer1"
     transform="translate(-65.881213,-88.635433)">
    <path
       id="path323"
       d="m 69.452029,90.555249 1.037167,-1.037167 0.359833,0.359834 -1.037167,1.037166 -0.359833,-0.359833"
       style="fill:#f4f015;fill-opacity:1;fill-rule:nonzero;stroke:none;stroke-width:0.352778" />
    <path
       id="path324"
       d="m 66.763492,89.602749 1.037167,1.037167 -0.359834,0.359833 -1.037166,-1.016 0.359833,-0.381"
       style="fill:#f4f015;fill-opacity:1;fill-rule:nonzero;stroke:none;stroke-width:0.352778" />
    <path
       id="path325"
       d="m 66.530659,94.068915 1.037167,-1.037167 0.359833,0.359834 -1.037167,1.037166 -0.359833,-0.359833"
       style="fill:#f4f015;fill-opacity:1;fill-rule:nonzero;stroke:none;stroke-width:0.352778" />
    <path
       id="path326"
       d="m 69.726826,93.074082 1.016,1.016 -0.359833,0.359833 -1.016,-1.016 0.359833,-0.359833"
       style="fill:#f4f015;fill-opacity:1;fill-rule:nonzero;stroke:none;stroke-width:0.352778" />
    <path
       id="path327"
       d="m 73.875863,102.98008 1.037167,-1.016 0.359833,0.35983 -1.037167,1.016 -0.359833,-0.35983"
       style="fill:#f4f015;fill-opacity:1;fill-rule:nonzero;stroke:none;stroke-width:0.352778" />
    <path
       id="path328"
       d="m 71.187696,102.04875 1.037167,1.03717 -0.359834,0.35983 -1.037166,-1.03717 0.359833,-0.35983"
       style="fill:#f4f015;fill-opacity:1;fill-rule:nonzero;stroke:none;stroke-width:0.352778" />
    <path
       id="path329"
       d="m 70.954492,106.49375 1.016,-1.016 0.359833,0.35983 -1.016,1.016 -0.359833,-0.35983"
       style="fill:#f4f015;fill-opacity:1;fill-rule:nonzero;stroke:none;stroke-width:0.352778" />
    <path
       id="path330"
       d="m 74.151029,105.49892 1.016,1.03717 -0.359833,0.35983 -1.016,-1.03717 0.359833,-0.35983"
       style="fill:#f4f015;fill-opacity:1;fill-rule:nonzero;stroke:none;stroke-width:0.352778" />
    <path
       id="path331"
       d="m 69.959673,121.12028 h 1.7145 v -12.29783 h -1.7145 z"
       style="fill:#7e7e7e;fill-opacity:1;fill-rule:nonzero;stroke:none;stroke-width:0.352778" />
    <path
       id="path332"
       d="m 69.959673,108.82245 h 1.7145 v 12.29783 h -1.7145 z m 1.714853,0 z"
       style="fill:none;stroke:#1e1917;stroke-width:0.0994833;stroke-linecap:round;stroke-linejoin:round;stroke-miterlimit:10;stroke-dasharray:none;stroke-opacity:1" />
    <path
       id="path333"
       d="m 65.959173,115.99795 h 9.694333 v -6.4135 h -9.694333 z"
       style="fill:#7e7e7e;fill-opacity:1;fill-rule:nonzero;stroke:none;stroke-width:0.352778" />
    <path
       id="path334"
       d="m 249.89,424.89 h 27.48 v -18.18 h -27.48 z m 27.481,0 z"
       style="fill:none;stroke:#1e1917;stroke-width:0.564;stroke-linecap:round;stroke-linejoin:round;stroke-miterlimit:10;stroke-dasharray:none;stroke-opacity:1"
       transform="matrix(0.35277776,0,0,-0.35277776,-22.196461,259.47584)"
       clip-path="url(#clipPath335)" />
    <path
       id="path336"
       d="m 73.981696,110.26177 h -0.1905 l -0.02117,0.0212 h -0.04233 l -0.02117,0.0212 -0.04233,0.0212 h -0.02117 l -0.04233,0.0212 -0.04233,0.0423 -0.04233,0.0212 c -0.0956,0.0868 -0.1143,0.12276 -0.1905,0.21166 v 0.0423 l -0.02117,0.0212 v 0.0423 l -0.02117,0.0212 v 0.0423 l -0.02117,0.0212 v 0.21167 l 0.02117,0.0212 v 0.0423 l 0.02117,0.0423 v 0.0212 l 0.02117,0.0212 v 0.0423 l 0.04233,0.0423 0.02117,0.0423 0.105834,0.10583 0.02117,0.0423 h 0.04233 l 0.04233,0.0423 0.04233,0.0212 0.02117,0.0212 h 0.04233 l 0.02117,0.0212 h 0.04233 l 0.02117,0.0212 h 0.08467 l 0.04233,0.0212 c 0.186267,0.012 0.100894,-0.0219 0.211667,-0.0212 h 0.02117 l 0.04233,-0.0212 h 0.04233 l 0.02117,-0.0212 h 0.04233 l 0.02117,-0.0212 0.04233,-0.0212 0.04233,-0.0423 h 0.02117 l 0.0635,-0.0635 c 0.08043,-0.0769 0.06491,-0.0642 0.127,-0.14816 v -0.0212 l 0.02117,-0.0423 0.02117,-0.0212 v -0.0212 l 0.02117,-0.0423 v -0.0635 l 0.02117,-0.0423 v -0.127 l -0.02117,-0.0423 v -0.0635 l -0.02117,-0.0212 v -0.0423 l -0.02117,-0.0212 -0.02117,-0.0423 v -0.0212 l -0.02117,-0.0212 -0.02117,-0.0423 -0.04233,-0.0423 c -0.08325,-0.096 -0.08008,-0.0501 -0.148166,-0.127 l -0.02117,-0.0212 -0.04233,-0.0212 h -0.02117 l -0.04233,-0.0212 -0.02117,-0.0212 h -0.04233 l -0.04233,-0.0212 h -0.169333"
       style="fill:#f4f015;fill-opacity:1;fill-rule:evenodd;stroke:#1e1917;stroke-width:0.0211667;stroke-linecap:round;stroke-linejoin:round;stroke-miterlimit:10;stroke-dasharray:none;stroke-opacity:1" />
    <path
       id="path337"
       d="m 71.949696,110.26177 h -0.08467 c -0.06879,-0.004 -0.1397,0.004 -0.1905,0.0423 l -0.04233,0.0212 h -0.02117 c -0.06914,0.0392 -0.116769,0.067 -0.169333,0.127 l -0.02117,0.0212 -0.04233,0.0212 v 0.0212 l -0.02117,0.0212 -0.02117,0.0423 -0.04233,0.0423 -0.02117,0.0423 v 0.0212 l -0.02117,0.0423 v 0.0212 l -0.02117,0.0423 v 0.254 l 0.02117,0.0423 v 0.0423 l 0.02117,0.0212 v 0.0212 l 0.02117,0.0423 0.02117,0.0212 0.02117,0.0212 0.02117,0.0423 0.02117,0.0212 v 0.0212 l 0.04233,0.0212 0.04233,0.0423 0.02117,0.0423 h 0.02117 l 0.04233,0.0212 0.02117,0.0212 0.04233,0.0212 0.02117,0.0212 h 0.04233 l 0.02117,0.0212 h 0.04233 l 0.02117,0.0212 h 0.0635 l 0.04233,0.0212 H 72.0132 l 0.04233,-0.0212 h 0.0635 l 0.04233,-0.0212 h 0.02117 l 0.04233,-0.0212 h 0.02117 l 0.04233,-0.0212 0.02117,-0.0212 0.04233,-0.0212 0.02117,-0.0212 h 0.02117 l 0.02117,-0.0423 0.04233,-0.0212 0.08467,-0.0847 0.02117,-0.0423 v -0.0212 l 0.02117,-0.0212 0.02117,-0.0423 0.02117,-0.0212 v -0.0635 l 0.02117,-0.0423 v -0.0635 l 0.02117,-0.0212 v -0.0635 l -0.02117,-0.0423 v -0.0635 l -0.02117,-0.0423 v -0.0635 l -0.02117,-0.0212 -0.02117,-0.0423 -0.02117,-0.0212 v -0.0212 l -0.02117,-0.0423 -0.08467,-0.0847 -0.04233,-0.0212 -0.0635,-0.0635 c -0.09419,-0.043 -0.185209,-0.10936 -0.296334,-0.10583 h -0.105833"
       style="fill:#f4f015;fill-opacity:1;fill-rule:evenodd;stroke:#1e1917;stroke-width:0.0211667;stroke-linecap:round;stroke-linejoin:round;stroke-miterlimit:10;stroke-dasharray:none;stroke-opacity:1" />
    <path
       id="path338"
       d="m 69.853826,110.26177 h -0.169333 l -0.02117,0.0212 h -0.04233 l -0.02117,0.0212 -0.04233,0.0212 h -0.02117 l -0.02117,0.0212 -0.04233,0.0212 -0.169333,0.16934 -0.02117,0.0423 -0.02117,0.0212 v 0.0212 l -0.02117,0.0423 -0.02117,0.0212 v 0.0423 l -0.02117,0.0212 v 0.14817 l -0.02117,0.0212 0.02117,0.0423 v 0.0212 c 7.06e-4,0.0765 -0.01129,0.12453 0.04233,0.1905 l 0.02117,0.0423 v 0.0212 c 0.06209,0.084 0.04657,0.0713 0.127,0.14816 l 0.02117,0.0212 0.02117,0.0423 h 0.02117 l 0.02117,0.0212 0.04233,0.0212 0.04233,0.0423 h 0.04233 l 0.02117,0.0212 h 0.04233 l 0.02117,0.0212 h 0.0635 l 0.04233,0.0212 h 0.127 l 0.04233,-0.0212 h 0.0635 l 0.02117,-0.0212 h 0.04233 l 0.02117,-0.0212 h 0.02117 l 0.04233,-0.0212 0.04233,-0.0423 0.04233,-0.0212 h 0.02117 l 0.02117,-0.0423 0.04233,-0.0423 c 0.0829,-0.0593 0.09419,-0.15946 0.148167,-0.23284 v -0.0423 l 0.02117,-0.0423 v -0.254 l -0.02117,-0.0423 v -0.0212 l -0.02117,-0.0423 v -0.0212 l -0.02117,-0.0423 -0.02117,-0.0212 v -0.0212 l -0.02117,-0.0423 -0.148166,-0.14817 -0.04233,-0.0212 -0.02117,-0.0212 -0.02117,-0.0212 h -0.04233 l -0.04233,-0.0423 h -0.04233 l -0.02117,-0.0212 h -0.169333"
       style="fill:#f4f015;fill-opacity:1;fill-rule:evenodd;stroke:#1e1917;stroke-width:0.0211667;stroke-linecap:round;stroke-linejoin:round;stroke-miterlimit:10;stroke-dasharray:none;stroke-opacity:1" />
    <path
       id="path339"
       d="m 67.821826,110.26177 h -0.169333 l -0.04233,0.0212 h -0.02117 l -0.04233,0.0212 -0.02117,0.0212 h -0.02117 l -0.04233,0.0212 -0.08467,0.0847 -0.04233,0.0212 -0.0635,0.0635 v 0.0212 l -0.02117,0.0423 -0.04233,0.0423 v 0.0423 l -0.02117,0.0212 v 0.0423 l -0.02117,0.0212 v 0.0635 l -0.02117,0.0423 v 0.127 l 0.02117,0.0423 v 0.0635 l 0.02117,0.0423 v 0.0212 l 0.02117,0.0212 v 0.0423 l 0.04233,0.0423 0.02117,0.0423 v 0.0212 l 0.0635,0.0635 0.04233,0.0212 0.02117,0.0423 h 0.02117 l 0.04233,0.0423 0.04233,0.0212 0.02117,0.0212 h 0.02117 l 0.04233,0.0212 h 0.02117 l 0.04233,0.0212 h 0.0635 l 0.02117,0.0212 h 0.148167 l 0.02117,-0.0212 H 67.97 l 0.04233,-0.0212 h 0.02117 l 0.04233,-0.0212 H 68.097 l 0.02117,-0.0212 0.04233,-0.0212 0.04233,-0.0423 H 68.224 l 0.148166,-0.14816 v -0.0423 l 0.04233,-0.0423 v -0.0423 l 0.02117,-0.0212 v -0.0212 l 0.02117,-0.0423 v -0.0423 l 0.02117,-0.0212 v -0.21167 l -0.02117,-0.0212 v -0.0423 l -0.02117,-0.0212 v -0.0423 l -0.02117,-0.0212 v -0.0423 l -0.02117,-0.0212 -0.02117,-0.0212 v -0.0423 l -0.02117,-0.0212 -0.02117,-0.0212 c -0.08326,-0.096 -0.08008,-0.0501 -0.148167,-0.127 l -0.02117,-0.0212 -0.04233,-0.0212 h -0.02117 l -0.02117,-0.0212 -0.04233,-0.0212 h -0.02117 l -0.04233,-0.0212 h -0.148167"
       style="fill:#f4f015;fill-opacity:1;fill-rule:evenodd;stroke:#1e1917;stroke-width:0.0211667;stroke-linecap:round;stroke-linejoin:round;stroke-miterlimit:10;stroke-dasharray:none;stroke-opacity:1" />
    <path
       id="path340"
       d="m 73.981696,113.2251 h -0.148167 l -0.04233,0.0212 h -0.02117 l -0.04233,0.0212 h -0.02117 l -0.04233,0.0212 -0.02117,0.0212 h -0.04233 l -0.04233,0.0423 -0.04233,0.0212 -0.04233,0.0423 -0.02117,0.0423 -0.02117,0.0212 c -0.08537,0.0631 -0.157692,0.28187 -0.169334,0.381 v 0.16933 l 0.02117,0.0423 v 0.0423 l 0.02117,0.0212 v 0.0423 l 0.02117,0.0212 v 0.0423 l 0.02117,0.0212 0.02117,0.0423 0.04233,0.0423 0.02117,0.0423 0.08467,0.0847 0.04233,0.0212 0.04233,0.0423 0.04233,0.0212 h 0.02117 l 0.04233,0.0212 0.02117,0.0212 h 0.04233 l 0.02117,0.0212 h 0.08467 l 0.04233,0.0212 h 0.127 l 0.04233,-0.0212 h 0.0635 l 0.04233,-0.0212 h 0.04233 l 0.02117,-0.0212 0.04233,-0.0212 h 0.02117 l 0.04233,-0.0212 0.0635,-0.0635 0.04233,-0.0212 0.0635,-0.0635 0.02117,-0.0423 0.02117,-0.0212 0.02117,-0.0212 0.02117,-0.0423 v -0.0212 l 0.02117,-0.0423 0.02117,-0.0212 v -0.0423 l 0.02117,-0.0212 v -0.0847 l 0.02117,-0.0212 v -0.14817 l -0.02117,-0.0423 v -0.0635 l -0.02117,-0.0423 v -0.0212 l -0.02117,-0.0423 -0.02117,-0.0212 v -0.0423 l -0.02117,-0.0212 -0.02117,-0.0423 -0.0635,-0.0635 -0.02117,-0.0423 -0.02117,-0.0212 -0.04233,-0.0212 -0.0635,-0.0635 h -0.04233 l -0.02117,-0.0212 -0.04233,-0.0212 h -0.02117 l -0.04233,-0.0212 h -0.04233 l -0.02117,-0.0212 h -0.148167"
       style="fill:#7e7e7e;fill-opacity:1;fill-rule:evenodd;stroke:#1e1917;stroke-width:0.0211667;stroke-linecap:round;stroke-linejoin:round;stroke-miterlimit:10;stroke-dasharray:none;stroke-opacity:1" />
    <path
       id="path341"
       d="m 71.949696,113.2251 h -0.148167 l -0.04233,0.0212 h -0.02117 l -0.04233,0.0212 h -0.02117 l -0.04233,0.0212 -0.02117,0.0212 h -0.04233 l -0.02117,0.0212 -0.04233,0.0212 -0.0635,0.0635 -0.02117,0.0423 -0.04233,0.0212 v 0.0212 c -0.19685,0.21942 -0.216606,0.6223 0,0.84666 v 0.0423 l 0.04233,0.0212 0.0635,0.0635 c 0.05503,0.0519 0.121709,0.0804 0.1905,0.10584 l 0.02117,0.0212 h 0.04233 l 0.02117,0.0212 h 0.0635 l 0.04233,0.0212 h 0.148167 l 0.04233,-0.0212 h 0.0635 l 0.04233,-0.0212 h 0.02117 l 0.04233,-0.0212 0.02117,-0.0212 h 0.04233 l 0.02117,-0.0212 0.04233,-0.0212 0.0635,-0.0635 0.04233,-0.0212 0.04233,-0.0423 0.02117,-0.0423 0.04233,-0.0423 v -0.0423 l 0.02117,-0.0212 0.02117,-0.0423 0.02117,-0.0212 v -0.0635 l 0.02117,-0.0423 v -0.0635 l 0.02117,-0.0423 v -0.0847 l -0.02117,-0.0212 v -0.0847 l -0.02117,-0.0212 v -0.0635 l -0.02117,-0.0423 -0.02117,-0.0212 -0.02117,-0.0423 v -0.0212 l -0.02117,-0.0423 -0.02117,-0.0212 c -0.121356,-0.139 -0.0092,-0.0268 -0.148167,-0.14817 l -0.02117,-0.0212 -0.04233,-0.0212 h -0.02117 l -0.04233,-0.0212 -0.02117,-0.0212 h -0.04233 l -0.02117,-0.0212 h -0.04233 l -0.04233,-0.0212 h -0.127"
       style="fill:#7e7e7e;fill-opacity:1;fill-rule:evenodd;stroke:#1e1917;stroke-width:0.0211667;stroke-linecap:round;stroke-linejoin:round;stroke-miterlimit:10;stroke-dasharray:none;stroke-opacity:1" />
    <path
       id="path342"
       d="m 69.853826,113.2251 h -0.127 l -0.04233,0.0212 h -0.02117 l -0.04233,0.0212 h -0.02117 l -0.04233,0.0212 -0.02117,0.0212 h -0.02117 l -0.04233,0.0212 -0.08467,0.0847 -0.02117,0.0423 -0.0635,0.0635 -0.02117,0.0423 -0.02117,0.0212 v 0.0423 l -0.02117,0.0212 -0.02117,0.0423 v 0.0212 l -0.02117,0.0423 v 0.127 l -0.02117,0.0423 0.02117,0.0423 v 0.14817 l 0.02117,0.0212 v 0.0423 l 0.02117,0.0212 0.02117,0.0423 v 0.0212 l 0.02117,0.0423 0.04233,0.0423 0.02117,0.0423 0.0635,0.0635 0.02117,0.0212 0.04233,0.0423 0.04233,0.0212 0.02117,0.0212 h 0.02117 l 0.04233,0.0212 0.02117,0.0212 h 0.04233 l 0.02117,0.0212 h 0.0635 l 0.04233,0.0212 h 0.127 l 0.04233,-0.0212 h 0.0635 l 0.02117,-0.0212 h 0.04233 l 0.02117,-0.0212 0.02117,-0.0212 h 0.04233 l 0.04233,-0.0423 0.04233,-0.0212 0.105833,-0.10583 0.02117,-0.0423 0.02117,-0.0212 0.02117,-0.0212 v -0.0423 l 0.02117,-0.0212 0.02117,-0.0423 v -0.0212 l 0.02117,-0.0423 v -0.0212 l 0.02117,-0.0423 v -0.29634 l -0.02117,-0.0212 v -0.0423 l -0.02117,-0.0212 v -0.0423 l -0.02117,-0.0212 -0.02117,-0.0423 v -0.0212 l -0.02117,-0.0423 -0.0635,-0.0635 -0.02117,-0.0423 -0.0635,-0.0635 c -0.103364,-0.0607 -0.162984,-0.0864 -0.275167,-0.127 h -0.127"
       style="fill:#7e7e7e;fill-opacity:1;fill-rule:evenodd;stroke:#1e1917;stroke-width:0.0211667;stroke-linecap:round;stroke-linejoin:round;stroke-miterlimit:10;stroke-dasharray:none;stroke-opacity:1" />
    <path
       id="path343"
       d="m 67.821826,113.2251 h -0.148167 l -0.02117,0.0212 h -0.04233 l -0.02117,0.0212 h -0.04233 l -0.04233,0.0423 h -0.04233 l -0.0635,0.0635 -0.04233,0.0212 -0.02117,0.0212 -0.02117,0.0423 -0.04233,0.0423 v 0.0212 l -0.02117,0.0423 -0.02117,0.0212 -0.02117,0.0423 v 0.0212 l -0.02117,0.0423 v 0.0212 l -0.02117,0.0423 v 0.0635 l -0.02117,0.0423 v 0.14817 l 0.02117,0.0212 v 0.0847 l 0.02117,0.0212 v 0.0423 l 0.02117,0.0212 v 0.0423 l 0.02117,0.0212 0.02117,0.0423 0.02117,0.0212 v 0.0212 l 0.02117,0.0423 0.0635,0.0635 0.04233,0.0212 0.0635,0.0635 0.04233,0.0212 h 0.02117 l 0.02117,0.0212 0.04233,0.0212 h 0.02117 l 0.04233,0.0212 h 0.0635 l 0.02117,0.0212 h 0.148167 l 0.02117,-0.0212 h 0.0635 l 0.04233,-0.0212 h 0.02117 l 0.04233,-0.0212 0.02117,-0.0212 h 0.02117 l 0.04233,-0.0212 0.0635,-0.0635 0.04233,-0.0212 0.0635,-0.0635 0.02117,-0.0423 v -0.0212 l 0.02117,-0.0212 0.02117,-0.0423 0.02117,-0.0212 v -0.0423 l 0.02117,-0.0212 v -0.0423 l 0.02117,-0.0212 v -0.0847 l 0.02117,-0.0212 v -0.14817 l -0.02117,-0.0423 v -0.0635 l -0.02117,-0.0423 v -0.0212 l -0.02117,-0.0423 v -0.0212 l -0.02117,-0.0423 -0.02117,-0.0212 -0.02117,-0.0423 v -0.0212 l -0.04233,-0.0423 -0.02117,-0.0423 -0.02117,-0.0212 -0.04233,-0.0212 -0.0635,-0.0635 h -0.04233 l -0.04233,-0.0423 h -0.04233 l -0.02117,-0.0212 h -0.04233 l -0.02117,-0.0212 h -0.127"
       style="fill:#7e7e7e;fill-opacity:1;fill-rule:evenodd;stroke:#1e1917;stroke-width:0.0211667;stroke-linecap:round;stroke-linejoin:round;stroke-miterlimit:10;stroke-dasharray:none;stroke-opacity:1" />
    <path
       id="path344"
       d="m 74.426196,88.734916 h -7.217833 l -1.227667,1.227667 v 19.198167 h 9.673167 V 89.962583 l -1.227667,-1.227667"
       style="fill:#7e7e7e;fill-opacity:1;fill-rule:evenodd;stroke:#1e1917;stroke-width:0.198967;stroke-linecap:round;stroke-linejoin:round;stroke-miterlimit:10;stroke-dasharray:none;stroke-opacity:1" />
    <path
       id="path345"
       d="m 68.647326,103.06475 0.08467,0.0212 h 0.127 l 0.127,0.0423 h 0.08467 l 0.0635,0.0212 0.04233,0.0423 0.127,0.0423 0.0635,0.0423 0.04233,0.0212 0.0635,0.0423 0.04233,0.0423 0.0635,0.0423 0.08467,0.0847 0.04233,0.0635 c 0.158045,0.17639 0.293159,0.48189 0.296334,0.71967 l 0.02117,0.0635 v 0.14816 l -0.02117,0.0635 c 0.0018,0.26564 -0.130528,0.52035 -0.296334,0.71967 l -0.04233,0.0635 -0.08467,0.0847 -0.0635,0.0423 -0.04233,0.0423 -0.0635,0.0423 -0.04233,0.0212 -0.0635,0.0423 -0.0635,0.0212 -0.0635,0.0423 -0.04233,0.0212 -0.0635,0.0212 -0.08467,0.0212 h -0.0635 l -0.0635,0.0212 h -0.0635 l -0.0635,0.0212 h -0.148167 l -0.0635,-0.0212 c -0.615244,-0.0275 -1.178983,-0.59125 -1.2065,-1.2065 l -0.02117,-0.0635 v -0.0635 c 0.02328,-0.6925 0.475545,-1.23789 1.164167,-1.35466 h 0.127 l 0.0635,-0.0212"
       style="fill:#f4f015;fill-opacity:1;fill-rule:evenodd;stroke:#1e1917;stroke-width:0.0754944;stroke-linecap:round;stroke-linejoin:round;stroke-miterlimit:10;stroke-dasharray:none;stroke-opacity:1" />
    <path
       id="path346"
       d="m 68.626529,90.639915 h 0.148167 c 1.672872,0.283281 1.579738,2.555875 -0.08467,2.709333 h -0.127 c -1.679222,-0.160514 -1.733903,-2.460977 -0.0635,-2.709333 h 0.127"
       style="fill:#7e7e7e;fill-opacity:1;fill-rule:evenodd;stroke:#1e1917;stroke-width:0.0754944;stroke-linecap:round;stroke-linejoin:round;stroke-miterlimit:10;stroke-dasharray:none;stroke-opacity:1" />
    <path
       id="path347"
       d="m 73.050363,103.02242 h 0.148167 c 1.649941,0.25082 1.586088,2.56222 -0.08467,2.70933 h -0.127 c -1.667933,-0.14852 -1.732492,-2.45709 -0.08467,-2.70933 h 0.148167"
       style="fill:#7e7e7e;fill-opacity:1;fill-rule:evenodd;stroke:#1e1917;stroke-width:0.0754944;stroke-linecap:round;stroke-linejoin:round;stroke-miterlimit:10;stroke-dasharray:none;stroke-opacity:1" />
    <path
       id="path348"
       d="m 70.849029,97.138082 h 0.0635 l 0.08467,0.02117 c 1.625952,0.201436 1.62313,2.541763 -0.08467,2.709333 h -0.127 l -0.0635,-0.02117 h -0.08467 l -0.0635,-0.02117 h -0.0635 l -0.1905,-0.0635 -0.0635,-0.04233 -0.04233,-0.02117 -0.0635,-0.04233 -0.0635,-0.02117 -0.04233,-0.04233 -0.0635,-0.04233 -0.127,-0.127 c -0.171097,-0.204258 -0.321028,-0.445558 -0.338667,-0.719667 l -0.02117,-0.0635 v -0.211666 c 0.01517,-0.264936 0.110067,-0.533048 0.275167,-0.740834 l 0.04233,-0.04233 0.04233,-0.0635 c 0.164747,-0.180975 0.472369,-0.385939 0.719666,-0.402167 l 0.0635,-0.02117 h 0.08467 l 0.0635,-0.02117 z"
       style="fill:none;stroke:#1e1917;stroke-width:0.0754944;stroke-linecap:round;stroke-linejoin:round;stroke-miterlimit:10;stroke-dasharray:none;stroke-opacity:1" />
    <path
       id="path353"
       d="m 73.050363,90.639915 h 0.127 c 1.66758,0.258233 1.608667,2.542117 -0.0635,2.709333 h -0.148167 c -1.669344,-0.176036 -1.723319,-2.445102 -0.0635,-2.709333 h 0.148167"
       style="fill:#299540;fill-opacity:1;fill-rule:evenodd;stroke:#1e1917;stroke-width:0.0754944;stroke-linecap:round;stroke-linejoin:round;stroke-miterlimit:10;stroke-dasharray:none;stroke-opacity:1" >
       <animate
          attributeName="fill"
          values="#299540;#7e7e7e"
          dur="1.5s"
          calcMode="discrete"
          repeatCount="indefinite" />
    </path>
  </g>
</svg>
