<?xml version="1.0" encoding="UTF-8"?>
<!-- Created with Inkscape (http://www.inkscape.org/) -->
<svg width="9.8933mm" height="32.513mm" version="1.1" viewBox="0 0 9.8933 32.513" xmlns="http://www.w3.org/2000/svg">
 <defs>
  <clipPath id="clipPath182">
   <path transform="translate(-2.5e-6 2.5e-5)" d="m227.09 591.81h27.78v18.96h-27.78z"/>
  </clipPath>
 </defs>
 <g transform="translate(-92.075 -98.425)">
  <g fill="#299540">
   <path d="m100.09 100.34 1.016-1.0372 0.381 0.35983-1.0372 1.0372-0.35983-0.35983"/>
   <path d="m97.403 99.392 1.016 1.0372-0.35983 0.35984-1.0372-1.0372 0.381-0.35983"/>
   <path d="m97.149 103.84 1.0372-1.016 0.35983 0.35983-1.0372 1.016-0.35983-0.35983"/>
   <path d="m100.34 102.84 1.0372 1.0372-0.35984 0.35983-1.0372-1.0372 0.35983-0.35983"/>
  </g>
  <g fill="#f4f015">
   <path d="m95.667 100.34 1.016-1.0372 0.35983 0.35983-1.016 1.0372-0.35983-0.35983"/>
   <path d="m92.958 99.392 1.0372 1.0372-0.35983 0.35984-1.0372-1.0372 0.35983-0.35983"/>
   <path d="m92.725 103.84 1.0372-1.016 0.35983 0.35983-1.0372 1.016-0.35983-0.35983"/>
   <path d="m95.921 102.84 1.0372 1.0372-0.35983 0.35983-1.0372-1.0372 0.35983-0.35983"/>
   <path d="m100.09 112.77 1.016-1.0372 0.381 0.35984-1.0372 1.0372-0.35983-0.35983"/>
   <path d="m97.403 111.84 1.016 1.016-0.35983 0.35983-1.0372-1.016 0.381-0.35983"/>
   <path d="m97.149 116.28 1.0372-1.0372 0.35983 0.35984-1.0372 1.0372-0.35983-0.35983"/>
   <path d="m100.34 115.29 1.0372 1.016-0.35984 0.35983-1.0372-1.016 0.35983-0.35983"/>
  </g>
  <path d="m96.154 130.89h1.7357v-12.277h-1.7357z" fill="#7e7e7e"/>
  <path d="m96.154 118.61h1.7357v12.277h-1.7357zm1.7357 0z" fill="none" stroke="#1e1917" stroke-linecap="round" stroke-linejoin="round" stroke-miterlimit="10" stroke-width=".099483"/>
  <path d="m92.153 125.77h9.7155v-6.4135h-9.7155z" fill="#7e7e7e"/>
  <path transform="matrix(.35278 0 0 -.35278 11.999 334.69)" d="m227.21 610.41h27.54v-18.18h-27.54zm27.54 0z" clip-path="url(#clipPath182)" fill="none" stroke="#1e1917" stroke-linecap="round" stroke-linejoin="round" stroke-miterlimit="10" stroke-width=".564"/>
  <g fill="#f4f015" fill-rule="evenodd" stroke="#1e1917" stroke-linecap="round" stroke-linejoin="round" stroke-miterlimit="10" stroke-width=".021167">
   <path d="m100.2 120.03h-0.10583l-0.0423 0.0212h-0.0635l-0.04233 0.0212h-0.02117l-0.04233 0.0212-0.02117 0.0212c-0.07902-4e-3 -0.13547 0.0765-0.1905 0.127l-0.02117 0.0212-0.04233 0.0212v0.0423l-0.04233 0.0423-0.02117 0.0423-0.02117 0.0212v0.0423l-0.02117 0.0212v0.0635l-0.02117 0.0423v0.1905l0.02117 0.0423v0.0635l0.02117 0.0212v0.0423l0.02117 0.0212 0.02117 0.0423 0.04233 0.0423v0.0212l0.04233 0.0212 0.02117 0.0423 0.08467 0.0847 0.04233 0.0212h0.02117l0.04233 0.0212 0.02117 0.0212h0.04233l0.02117 0.0212 0.04233 0.0212h0.0635l0.0423 0.0212h0.21166l0.0423-0.0212h0.0635l0.0212-0.0212 0.0423-0.0212h0.0423l0.0423-0.0423h0.0423l0.0423-0.0423 0.0423-0.0212 0.0423-0.0423 0.0212-0.0423 0.0847-0.0847v-0.0423l0.0212-0.0212 0.0212-0.0423v-0.0212l0.0212-0.0423v-0.0635l0.0212-0.0212v-0.14816l-0.0212-0.0212v-0.0635l-0.0212-0.0423v-0.0212l-0.0212-0.0423-0.0212-0.0212v-0.0423l-0.0423-0.0423c-0.0307-0.0773-0.10831-0.12171-0.16934-0.16933l-0.0212-0.0212-0.0423-0.0212h-0.0212l-0.0212-0.0212-0.0423-0.0212h-0.0423l-0.0212-0.0212h-0.0635l-0.0423-0.0212h-0.10583"/>
   <path d="m98.143 120.03h-0.10583l-0.04233 0.0212h-0.0635l-0.02117 0.0212h-0.04233l-0.02117 0.0212-0.04233 0.0212h-0.02117l-0.04233 0.0212-0.04233 0.0423-0.04233 0.0212-0.08467 0.0847-0.02117 0.0423-0.04233 0.0423v0.0423l-0.02117 0.0212-0.02117 0.0423v0.0212l-0.02117 0.0423v0.0847l-0.02117 0.0423v0.0635l0.02117 0.0423v0.0847l0.02117 0.0423v0.0212l0.02117 0.0423 0.02117 0.0212v0.0423l0.0635 0.0635 0.02117 0.0212 0.02117 0.0423 0.04233 0.0423 0.04233 0.0212 0.04233 0.0423h0.04233l0.02117 0.0212 0.04233 0.0212h0.02117l0.04233 0.0212 0.02117 0.0212h0.0635l0.04233 0.0212h0.21167l0.04233-0.0212h0.0635l0.08467-0.0423h0.02117l0.02117-0.0212 0.04233-0.0212h0.02117l0.04233-0.0212 0.127-0.127v-0.0212c0.19297-0.14887 0.19685-0.57079 0.04233-0.74083l-0.02117-0.0212-0.02117-0.0423v-0.0212l-0.04233-0.0212-0.08467-0.0847-0.04233-0.0212-0.02117-0.0212h-0.04233l-0.04234-0.0424h-0.04233l-0.04233-0.0212h-0.0635l-0.04233-0.0212h-0.10583"/>
   <path d="m96.048 120.03h-0.10583l-0.02117 0.0212h-0.0635l-0.04233 0.0212h-0.02117l-0.02117 0.0212-0.04233 0.0212h-0.02117l-0.02117 0.0212-0.04233 0.0212-0.10583 0.10583c-0.05962 0.0582-0.15558 0.28505-0.14817 0.35984v0.21166l0.02117 0.0212v0.0423l0.02117 0.0212v0.0423l0.02117 0.0212 0.02117 0.0423v0.0212l0.04233 0.0423 0.02117 0.0212 0.02117 0.0423 0.08467 0.0847 0.04233 0.0212h0.02117l0.02117 0.0212 0.04233 0.0212h0.02117l0.02117 0.0212 0.04233 0.0212h0.0635l0.02117 0.0212h0.21167l0.04233-0.0212h0.0635l0.04233-0.0423h0.04233l0.04233-0.0423h0.04233l0.10583-0.10584 0.02117-0.0423 0.02117-0.0212 0.0635-0.0635 0.02117-0.0423v-0.0212l0.02117-0.0423v-0.0212l0.02117-0.0423v-0.0847l0.02117-0.0423v-0.0635l-0.02117-0.0423v-0.0847l-0.02117-0.0423v-0.0212l-0.02117-0.0423v-0.0212l-0.02117-0.0423-0.04233-0.0423-0.02117-0.0423-0.14817-0.14817-0.04233-0.0212h-0.02117l-0.02117-0.0212-0.04233-0.0212h-0.02117l-0.02117-0.0212h-0.0635l-0.04233-0.0212h-0.10583"/>
   <path d="m94.016 120.03h-0.10583l-0.04233 0.0212h-0.0635l-0.02117 0.0212h-0.02117l-0.04233 0.0212-0.02117 0.0212h-0.04233l-0.10583 0.10583-0.04233 0.0212v0.0212l-0.02117 0.0212-0.02117 0.0423-0.04233 0.0423-0.02117 0.0423v0.0212l-0.02117 0.0423v0.0212l-0.02117 0.0423v0.0635l-0.02117 0.0212v0.14816l0.02117 0.0212v0.0635l0.02117 0.0423v0.0212l0.02117 0.0423v0.0212l0.02117 0.0423 0.0635 0.0635 0.02117 0.0212v0.0423l0.04233 0.0212 0.08467 0.0847h0.02117l0.04233 0.0212 0.02117 0.0212h0.04233l0.04233 0.0423h0.0635l0.04233 0.0212h0.21167l0.02117-0.0212h0.0635l0.02117-0.0212 0.04233-0.0212h0.02117l0.04233-0.0212 0.02117-0.0212h0.02117l0.04233-0.0212c0.09525-0.0815 0.07937-0.10478 0.14817-0.16933l0.02117-0.0212v-0.0212l0.02117-0.0423 0.02117-0.0212v-0.0423l0.02117-0.0212c-0.0081-0.13476 0.03246-0.0282 0.02117-0.21166v-0.0847l-0.02117-0.0423v-0.0635l-0.02117-0.0212v-0.0423l-0.02117-0.0212-0.02117-0.0423v-0.0212l-0.02117-0.0212-0.02117-0.0423c-0.04233-0.0423-0.08467-0.0847-0.127-0.127l-0.04233-0.0212-0.02117-0.0212h-0.02117l-0.04233-0.0212-0.02117-0.0212h-0.04233l-0.02117-0.0212h-0.0635l-0.02117-0.0212h-0.10583"/>
  </g>
  <g fill="#7e7e7e" fill-rule="evenodd" stroke="#1e1917" stroke-linecap="round" stroke-linejoin="round" stroke-miterlimit="10">
   <g stroke-width=".021167">
    <path d="m100.2 122.99h-0.10583l-0.0423 0.0212h-0.0635l-0.04233 0.0212h-0.02117l-0.04233 0.0212-0.02117 0.0212-0.04233 0.0212-0.02117 0.0212-0.04233 0.0212h-0.02117l-0.02117 0.0423-0.06351 0.0636-0.04233 0.0212v0.0423l-0.04233 0.0423-0.02117 0.0423-0.02117 0.0212v0.0423l-0.02117 0.0212v0.0847l-0.02117 0.0212v0.23283l0.02117 0.0212v0.0635l0.02117 0.0423v0.0212l0.02117 0.0423 0.02117 0.0212 0.02117 0.0423 0.02117 0.0212v0.0212l0.0635 0.0635 0.02117 0.0212c0.08255 0.0836 0.18627 0.15981 0.29633 0.16933l0.02117 0.0212h0.0423l0.0423 0.0212h0.21166l0.0423-0.0212h0.0212l0.0423-0.0212h0.0212l0.0423-0.0212h0.0423l0.0423-0.0423 0.0423-0.0212 0.0424-0.0424 0.0423-0.0212 0.0636-0.0636 0.0212-0.0423 0.0423-0.0423 0.0212-0.0423v-0.0212l0.0212-0.0423 0.0212-0.0212v-0.0423l0.0212-0.0212v-0.0635l0.0212-0.0423v-0.14817l-0.0212-0.0423v-0.0635l-0.0212-0.0423v-0.0212l-0.0212-0.0423-0.0212-0.0212v-0.0423l-0.0423-0.0423-0.0212-0.0423-0.1271-0.1271h-0.0212l-0.0212-0.0212-0.0423-0.0212-0.0423-0.0423-0.0423-0.0212h-0.0423l-0.0212-0.0212h-0.0635l-0.0423-0.0212h-0.10583"/>
    <path d="m98.143 122.99h-0.10583l-0.04233 0.0212c-0.05397-9e-3 -0.14464 0.0328-0.1905 0.0635l-0.02117 0.0212-0.04233 0.0212-0.02117 0.0212h-0.02117l-0.04233 0.0423-0.08468 0.0848-0.02117 0.0423-0.04233 0.0423v0.0423l-0.02117 0.0212-0.02117 0.0423v0.0212l-0.02117 0.0423v0.10583l-0.02117 0.0423v0.0635l0.02117 0.0423v0.10583l0.02117 0.0212v0.0423l0.02117 0.0212 0.02117 0.0423v0.0212l0.02117 0.0423 0.02117 0.0212c0.0441 0.0526 0.07585 0.12488 0.14817 0.14816l0.04234 0.0424c0.12347 0.0822 0.11112 0.0533 0.23283 0.10583h0.02117l0.04233 0.0212h0.04233c0.18838 0.0166 0.41804-0.0543 0.55033-0.1905l0.04234-0.0424 0.04233-0.0212v-0.0423l0.04233-0.0423 0.02117-0.0423 0.02117-0.0212 0.02117-0.0423v-0.0212l0.02117-0.0423v-0.0212l0.02117-0.0423v-0.27517l-0.02117-0.0423v-0.04255l-0.02117-0.0212v-0.0423l-0.02117-0.0212-0.02117-0.0423-0.04233-0.0423-0.02117-0.0423v-0.0212l-0.04233-0.0212-0.04234-0.0424-0.02117-0.0423h-0.02117l-0.04233-0.0212-0.02117-0.0212-0.04233-0.0212-0.04233-0.0423h-0.04233l-0.04233-0.0212h-0.0635l-0.04233-0.0212h-0.10583"/>
    <path d="m96.048 122.99h-0.10583l-0.02117 0.0212h-0.0635l-0.04233 0.0212h-0.02117l-0.02117 0.0212-0.04233 0.0212-0.04233 0.0423-0.04233 0.0212h-0.02117l-0.02117 0.0423-0.08468 0.0848-0.02117 0.0423-0.02117 0.0212v0.0212l-0.02117 0.0423-0.02117 0.0212v0.0423l-0.02117 0.0212v0.0423l-0.02117 0.0423v0.27517l0.02117 0.0423v0.0212l0.02117 0.0423v0.0212l0.02117 0.0423 0.02117 0.0212v0.0423l0.04233 0.0423 0.02117 0.0423 0.10585 0.106 0.04233 0.0212 0.04233 0.0423 0.04233 0.0212h0.02117l0.02117 0.0212h0.04233l0.02117 0.0212h0.04233l0.02117 0.0212h0.21167l0.04233-0.0212h0.02117l0.04233-0.0212h0.02117l0.02117-0.0212h0.04233l0.04233-0.0423 0.04233-0.0212 0.02117-0.0212c0.07408-0.0677 0.14076-0.14781 0.1905-0.23283l0.02117-0.0212v-0.0423l0.02117-0.0212v-0.0423l0.02117-0.0212v-0.10583l0.02117-0.0423v-0.0635l-0.02117-0.0423v-0.10583c-0.0695-0.1771-0.02258-0.1143-0.14817-0.27517l-0.06351-0.0636-0.02117-0.0423h-0.02117l-0.02117-0.0212-0.04233-0.0212-0.04233-0.0423-0.04233-0.0212h-0.02117l-0.02117-0.0212h-0.0635l-0.04233-0.0212h-0.10583"/>
    <path d="m94.016 122.99h-0.10583l-0.04233 0.0212h-0.0635l-0.02117 0.0212h-0.04233l-0.04233 0.0423-0.04233 0.0212-0.04234 0.0424h-0.02117l-0.02117 0.0423-0.02117 0.0212-0.04233 0.0212-0.02117 0.0212v0.0212l-0.02117 0.0423-0.04233 0.0423-0.02117 0.0423v0.0212l-0.02117 0.0423v0.0212l-0.02117 0.0423v0.0635l-0.02117 0.0423v0.14817l0.02117 0.0423v0.0635l0.02117 0.0212v0.0423l0.02117 0.0212v0.0423l0.02117 0.0212 0.02117 0.0423 0.04233 0.0423v0.0423l0.02117 0.0212 0.04233 0.0212 0.08468 0.0848c0.07549 0.0773 0.18203 0.0822 0.27517 0.127h0.1905l0.04233-0.0212h0.04233l0.02117-0.0212h0.02117l0.04233-0.0212h0.02117l0.04233-0.0212 0.06351-0.0636 0.04233-0.0212 0.08468-0.0848 0.02117-0.0423 0.04233-0.0423v-0.0423l0.02117-0.0212 0.02117-0.0423v-0.0212l0.02117-0.0423v-0.0635l0.02117-0.0212v-0.23283l-0.02117-0.0212v-0.0423c-0.0095-0.0896-0.06703-0.20003-0.127-0.27517l-0.06351-0.0636-0.02117-0.0423h-0.04233l-0.02117-0.0212-0.04233-0.0423-0.04233-0.0212-0.02117-0.0212h-0.04233l-0.02117-0.0212h-0.0635l-0.04233-0.0212h-0.08467"/>
   </g>
   <path d="m100.64 98.525h-7.239l-1.2277 1.2277v19.177h9.6943v-19.177l-1.2277-1.2277" stroke-width=".19897"/>
  </g>
  <g fill-rule="evenodd" stroke="#1e1917" stroke-linecap="round" stroke-linejoin="round" stroke-miterlimit="10" stroke-width=".075494">
   <path d="m94.63 112.96h0.0635l0.08467 0.0212c1.6577 0.19896 1.5829 2.606-0.08467 2.6882l-0.0635 0.0212-0.0635-0.0212c-1.6732-0.0825-1.729-2.5192-0.0635-2.6882l0.0635-0.0212h0.0635" fill="#f4f015"/>
   <path d="m94.82 100.43h0.14817c1.6633 0.25682 1.6101 2.5329-0.0635 2.7093h-0.14817c-1.6768-0.16933-1.7339-2.4578-0.0635-2.7093h0.127" fill="#7e7e7e"/>
   <path d="m99.265 112.92h0.1905c0.65052 0.11994 1.1162 0.61172 1.1642 1.27v0.14817c-0.0124 0.62794-0.58879 1.2633-1.2277 1.27l-0.0635 0.0212h-0.14817l-0.0635-0.0212c-0.61348-0.0275-1.1846-0.59126-1.2065-1.2065v-0.0635l-0.02117-0.0635 0.02117-0.0847c-0.0127-0.27023 0.10795-0.51999 0.254-0.74083l0.08467-0.0847c0.17956-0.23566 0.45896-0.34396 0.74083-0.42333l0.0635-0.0212h0.21167" fill="#7e7e7e"/>
  </g>
  <path d="m97.064 106.93h0.127l0.0635 0.0212c0.6096 0.0497 1.1518 0.65475 1.1642 1.27v0.127c-0.03598 0.67909-0.5461 1.2213-1.2277 1.2912h-0.27517c-0.62371-0.0674-1.1677-0.5715-1.2065-1.2065l-0.02117-0.0847v-0.0635c0.01341-0.67099 0.49812-1.2418 1.1642-1.3335l0.0635-0.0212z" fill="none" stroke="#1e1917" stroke-linecap="round" stroke-linejoin="round" stroke-miterlimit="10" stroke-width=".075494"/>
  <path d="m99.244 100.43h0.14817c1.6633 0.25682 1.6101 2.5329-0.0635 2.7093h-0.14817c-1.6778-0.16898-1.7385-2.4557-0.0635-2.7093h0.127" fill="#299540" fill-rule="evenodd" stroke="#1e1917" stroke-linecap="round" stroke-linejoin="round" stroke-miterlimit="10" stroke-width=".075494"/>
 </g>
</svg>
