<?xml version="1.0" encoding="UTF-8" standalone="no"?>
<!-- Created with Inkscape (http://www.inkscape.org/) -->

<svg
   width="40.470665mm"
   height="18.3515mm"
   viewBox="0 0 40.470667 18.3515"
   version="1.1"
   id="svg1"
   inkscape:version="1.3 (0e150ed6c4, 2023-07-21)"
   sodipodi:docname="301_0801_Wn2_4.svg"
   xmlns:inkscape="http://www.inkscape.org/namespaces/inkscape"
   xmlns:sodipodi="http://sodipodi.sourceforge.net/DTD/sodipodi-0.dtd"
   xmlns="http://www.w3.org/2000/svg"
   xmlns:svg="http://www.w3.org/2000/svg">
  <sodipodi:namedview
     id="namedview1"
     pagecolor="#ffffff"
     bordercolor="#000000"
     borderopacity="0.25"
     inkscape:showpageshadow="2"
     inkscape:pageopacity="0.0"
     inkscape:pagecheckerboard="0"
     inkscape:deskcolor="#d1d1d1"
     inkscape:document-units="mm"
     inkscape:zoom="1.6284792"
     inkscape:cx="176.54508"
     inkscape:cy="-141.85014"
     inkscape:window-width="1918"
     inkscape:window-height="2054"
     inkscape:window-x="7670"
     inkscape:window-y="1604"
     inkscape:window-maximized="0"
     inkscape:current-layer="layer1" />
  <defs
     id="defs1">
    <clipPath
       clipPathUnits="userSpaceOnUse"
       id="clipPath55">
      <path
         d="m 224.88,383.24 h 32.22 v 42.72 h -32.22 z"
         transform="translate(0,2.5000001e-5)"
         id="path55" />
    </clipPath>
    <clipPath
       clipPathUnits="userSpaceOnUse"
       id="clipPath65">
      <path
         d="m 275.7,268.04 h 3.3 v 14.46 h -3.3 z"
         transform="translate(0,2.5000001e-5)"
         id="path65" />
    </clipPath>
    <clipPath
       clipPathUnits="userSpaceOnUse"
       id="clipPath68">
      <path
         d="m 255.48,281 h 42.9 v 42.96 h -42.9 z"
         transform="translate(0,2.5000001e-5)"
         id="path68" />
    </clipPath>
    <clipPath
       clipPathUnits="userSpaceOnUse"
       id="clipPath118">
      <path
         d="m 226.44,570.2 h 3.3 v 3.66 h -3.3 z"
         transform="translate(-2.5000001e-6,2.5000001e-5)"
         id="path118" />
    </clipPath>
    <clipPath
       clipPathUnits="userSpaceOnUse"
       id="clipPath121">
      <path
         d="m 206.22,579.32 h 43.08 v 42.84 h -43.08 z"
         transform="translate(-2.5000001e-6,2.5000001e-5)"
         id="path121" />
    </clipPath>
    <clipPath
       clipPathUnits="userSpaceOnUse"
       id="clipPath132">
      <path
         d="M 277.98,579.38 H 321 v 42.78 h -43.02 z"
         transform="translate(-2.5000001e-6,2.5000001e-5)"
         id="path132" />
    </clipPath>
    <clipPath
       clipPathUnits="userSpaceOnUse"
       id="clipPath139">
      <path
         d="m 226.44,464.24 h 3.24 v 14.4 h -3.24 z"
         transform="translate(-2.5000001e-6,2.5000001e-5)"
         id="path139" />
    </clipPath>
    <clipPath
       clipPathUnits="userSpaceOnUse"
       id="clipPath142">
      <path
         d="m 206.22,477.2 h 43.08 v 42.9 h -43.08 z"
         transform="translate(-2.5000001e-6,2.5000001e-5)"
         id="path142" />
    </clipPath>
    <clipPath
       clipPathUnits="userSpaceOnUse"
       id="clipPath150">
      <path
         d="M 277.98,477.32 H 321 v 42.84 h -43.02 z"
         transform="translate(-2.5000001e-6,2.5000001e-5)"
         id="path150" />
    </clipPath>
    <clipPath
       clipPathUnits="userSpaceOnUse"
       id="clipPath174">
      <path
         d="M 242.22,283.64 H 285 v 42.9 h -42.78 z"
         transform="translate(-2.5000001e-6,2.5000001e-5)"
         id="path174" />
    </clipPath>
    <clipPath
       clipPathUnits="userSpaceOnUse"
       id="clipPath187">
      <path
         d="m 226.5,172.46 h 3.3 v 3.66 h -3.3 z"
         transform="translate(-2.5000001e-6,2.5000001e-5)"
         id="path187" />
    </clipPath>
    <clipPath
       clipPathUnits="userSpaceOnUse"
       id="clipPath190">
      <path
         d="m 206.28,181.58 h 43.08 v 42.9 h -43.08 z"
         transform="translate(-2.5000001e-6,2.5000001e-5)"
         id="path190" />
    </clipPath>
    <clipPath
       clipPathUnits="userSpaceOnUse"
       id="clipPath201">
      <path
         d="M 277.98,181.7 H 321 v 42.78 h -43.02 z"
         transform="translate(-2.5000001e-6,2.5000001e-5)"
         id="path201" />
    </clipPath>
  </defs>
  <g
     inkscape:label="Ebene 1"
     inkscape:groupmode="layer"
     id="layer1"
     transform="translate(-58.472839,-186.00208)">
    <path
       id="path181"
       d="m 62.79084,201.62309 h 6.477 v -0.78317 h -6.477 z"
       style="fill:#7e7e7e;fill-opacity:1;fill-rule:nonzero;stroke:none;stroke-width:0.352778" />
    <path
       id="path182"
       d="m 62.79084,200.83992 h 6.477 v 0.78317 h -6.477 z"
       style="fill:none;stroke:#1e1917;stroke-width:0.0991305;stroke-linecap:round;stroke-linejoin:round;stroke-miterlimit:10;stroke-dasharray:none;stroke-opacity:1" />
    <path
       id="path183"
       d="m 64.420673,203.14709 h 3.4925 v -1.524 h -3.4925 z"
       style="fill:#7e7e7e;fill-opacity:1;fill-rule:nonzero;stroke:none;stroke-width:0.352778" />
    <path
       id="path184"
       d="m 64.420673,201.62309 h 3.4925 v 1.524 h -3.4925 z"
       style="fill:none;stroke:#1e1917;stroke-width:0.0991305;stroke-linecap:round;stroke-linejoin:round;stroke-miterlimit:10;stroke-dasharray:none;stroke-opacity:1" />
    <path
       id="path185"
       d="m 65.690673,204.31125 h 0.973667 v -1.16416 h -0.973667 z"
       style="fill:#7e7e7e;fill-opacity:1;fill-rule:nonzero;stroke:none;stroke-width:0.352778" />
    <path
       id="path186"
       d="m 226.74,175.88 h 2.76 v -3.3 h -2.76 z"
       style="fill:none;stroke:#1e1917;stroke-width:0.281;stroke-linecap:round;stroke-linejoin:round;stroke-miterlimit:10;stroke-dasharray:none;stroke-opacity:1"
       transform="matrix(0.35277776,0,0,-0.35277776,-14.298156,265.19364)"
       clip-path="url(#clipPath187)" />
    <path
       id="path188"
       d="M 58.515174,201.03042 H 73.564673 V 186.08676 H 58.515174 Z"
       style="fill:#1e1917;fill-opacity:1;fill-rule:nonzero;stroke:none;stroke-width:0.352778" />
    <path
       id="path189"
       d="m 206.4,224.24 h 42.66 V 181.88 H 206.4 Z"
       style="fill:none;stroke:#1e1917;stroke-width:0.281;stroke-linecap:round;stroke-linejoin:round;stroke-miterlimit:10;stroke-dasharray:none;stroke-opacity:1"
       transform="matrix(0.35277776,0,0,-0.35277776,-14.298156,265.19364)"
       clip-path="url(#clipPath190)" />
    <path
       id="path191"
       d="m 66.050517,188.58441 0.762,0.0635 0.232833,0.0423 0.254,0.0635 0.232834,0.0635 0.465666,0.16934 0.211667,0.10583 0.232833,0.10583 0.211667,0.10584 0.1905,0.127 0.5715,0.4445 0.338666,0.33866 0.4445,0.5715 0.127,0.1905 0.127,0.21167 0.105834,0.21167 0.105833,0.23283 0.08467,0.21167 0.08467,0.23283 0.0635,0.23283 0.0635,0.254 0.04233,0.23284 0.04233,0.508 v 0.508 l -0.04233,0.508 -0.04233,0.23283 -0.0635,0.254 -0.0635,0.23283 -0.08467,0.23284 -0.08467,0.21166 -0.105833,0.23284 -0.105834,0.21166 -0.127,0.21167 -0.127,0.1905 -0.148166,0.21167 -0.148167,0.16933 -0.148167,0.1905 -0.338666,0.33867 -0.5715,0.4445 -0.1905,0.127 -0.211667,0.10583 -0.232833,0.127 -0.211667,0.0847 -0.232833,0.10583 -0.465667,0.127 -0.254,0.0635 -0.232833,0.0423 -0.254,0.0423 h -0.254 l -0.254,0.0212 -0.254,-0.0212 h -0.254 l -0.508,-0.0847 -0.6985,-0.1905 -0.232833,-0.10583 -0.232834,-0.0847 -0.211666,-0.127 -0.211667,-0.10583 -0.1905,-0.127 -0.211667,-0.14817 -0.1905,-0.14817 -0.169333,-0.14816 -0.338666,-0.33867 -0.169334,-0.1905 -0.148166,-0.16933 -0.127,-0.21167 -0.127,-0.1905 -0.127,-0.21167 -0.105834,-0.21166 -0.105833,-0.23284 -0.08467,-0.21166 -0.08467,-0.23284 -0.0635,-0.23283 -0.0635,-0.254 -0.04233,-0.23283 -0.04233,-0.508 -0.02117,-0.254 0.02117,-0.254 0.04233,-0.508 0.04233,-0.23284 0.0635,-0.254 0.0635,-0.23283 0.08467,-0.23283 0.08467,-0.21167 0.105833,-0.23283 0.105834,-0.21167 0.127,-0.21167 0.254,-0.381 0.148166,-0.1905 0.169334,-0.1905 0.338666,-0.33866 0.169333,-0.14817 0.1905,-0.14817 0.211667,-0.14816 0.1905,-0.127 0.423333,-0.21167 0.232834,-0.10583 0.465666,-0.16934 0.465667,-0.127 0.254,-0.0423 0.762,-0.0635"
       style="fill:#ffffff;fill-opacity:1;fill-rule:evenodd;stroke:none;stroke-width:0.352778" />
    <path
       id="path192"
       d="m 63.531684,186.08675 -0.931333,0.91017 z m 0,0 0.1905,0.1905 0.169333,0.1905 0.1905,0.21167 0.169334,0.21166 0.169333,0.1905 0.169333,0.21167 0.148167,0.23283 0.296333,0.42334 0.381,0.6985 0.127,0.21166 0.105834,0.23284 0.105833,0.254 0.211667,0.46566 0.08467,0.254 0.08467,0.23284 0.0635,0.254 0.0635,0.23283 0.127,0.508 0.0635,0.23283 0.08467,0.508 0.02117,0.254 0.04233,0.254 0.02117,0.254 v 0.254 l 0.02117,0.254 v 0.254 h -1.291167 l -0.02117,-0.23283 v -0.4445 l -0.02117,-0.21167 -0.04233,-0.23283 -0.02117,-0.21167 -0.04233,-0.21166 -0.02117,-0.23284 -0.0635,-0.21166 -0.04233,-0.23284 -0.254,-0.84666 -0.338667,-0.84667 -0.105833,-0.21167 -0.105834,-0.1905 -0.105833,-0.21166 -0.105833,-0.1905 -0.127,-0.1905 -0.127,-0.21167 -0.127,-0.1905 -0.148167,-0.1905 -0.127,-0.1905 -0.148167,-0.16933 -0.169333,-0.1905 -0.148167,-0.16934 -0.338666,-0.33866 z m 3.1115,7.47183 v 0.254 l -0.02117,0.254 v 0.254 l -0.02117,0.254 -0.04233,0.254 -0.02117,0.254 -0.08467,0.508 -0.0635,0.23284 -0.127,0.508 -0.0635,0.23283 -0.0635,0.254 -0.08467,0.254 -0.08467,0.23283 -0.211667,0.46567 -0.105833,0.254 -0.105834,0.23283 -0.127,0.23284 -0.127,0.21166 -0.254,0.46567 -0.148166,0.21167 -0.148167,0.23283 -0.148167,0.21167 -0.338666,0.42333 -0.169334,0.1905 -0.1905,0.21167 -0.169333,0.1905 -0.1905,0.21166 -0.931333,-0.93133 0.338666,-0.33867 0.148167,-0.16933 0.169333,-0.1905 0.148167,-0.16933 0.127,-0.1905 0.148167,-0.1905 0.254,-0.381 0.127,-0.21167 0.105833,-0.1905 0.105833,-0.21167 0.105834,-0.1905 0.105833,-0.21166 0.169333,-0.42334 0.08467,-0.1905 0.08467,-0.23283 0.254,-0.84667 0.04233,-0.23283 0.0635,-0.21167 0.02117,-0.21166 0.04233,-0.23284 0.02117,-0.21166 0.04233,-0.23284 0.02117,-0.21166 v -0.4445 l 0.02117,-0.23284 z m -3.1115,7.493 -0.931333,-0.93133 0.931333,0.93133"
       style="fill:#1e1917;fill-opacity:1;fill-rule:nonzero;stroke:none;stroke-width:0.352778" />
    <path
       id="path193"
       d="m 88.106172,201.58075 h 6.498167 v -0.78316 h -6.498167 z"
       style="fill:#7e7e7e;fill-opacity:1;fill-rule:nonzero;stroke:none;stroke-width:0.352778" />
    <path
       id="path194"
       d="m 88.106172,200.79759 h 6.498167 v 0.78316 h -6.498167 z"
       style="fill:none;stroke:#1e1917;stroke-width:0.0991305;stroke-linecap:round;stroke-linejoin:round;stroke-miterlimit:10;stroke-dasharray:none;stroke-opacity:1" />
    <path
       id="path195"
       d="m 89.736005,203.10475 h 3.4925 v -1.524 h -3.4925 z"
       style="fill:#7e7e7e;fill-opacity:1;fill-rule:nonzero;stroke:none;stroke-width:0.352778" />
    <path
       id="path196"
       d="m 89.736005,201.58075 h 3.4925 v 1.524 h -3.4925 z"
       style="fill:none;stroke:#1e1917;stroke-width:0.0991305;stroke-linecap:round;stroke-linejoin:round;stroke-miterlimit:10;stroke-dasharray:none;stroke-opacity:1" />
    <path
       id="path197"
       d="m 91.006005,204.26892 h 0.973667 v -1.16417 h -0.973667 z"
       style="fill:#7e7e7e;fill-opacity:1;fill-rule:nonzero;stroke:none;stroke-width:0.352778" />
    <path
       id="path198"
       d="m 91.006005,203.10475 h 0.973667 v 1.16417 h -0.973667 z"
       style="fill:none;stroke:#1e1917;stroke-width:0.0991305;stroke-linecap:round;stroke-linejoin:round;stroke-miterlimit:10;stroke-dasharray:none;stroke-opacity:1" />
    <path
       id="path199"
       d="m 83.851672,200.98809 h 15.0495 v -14.94367 h -15.0495 z"
       style="fill:#1e1917;fill-opacity:1;fill-rule:nonzero;stroke:none;stroke-width:0.352778" />
    <path
       id="path200"
       d="m 278.22,224.36 h 42.66 V 182 h -42.66 z"
       style="fill:none;stroke:#1e1917;stroke-width:0.281;stroke-linecap:round;stroke-linejoin:round;stroke-miterlimit:10;stroke-dasharray:none;stroke-opacity:1"
       transform="matrix(0.35277776,0,0,-0.35277776,-14.298156,265.19364)"
       clip-path="url(#clipPath201)" />
    <path
       id="path202"
       d="m 91.36585,188.54208 0.762,0.0635 0.254,0.0423 0.232833,0.0635 0.254,0.0635 0.232834,0.0847 0.211666,0.0847 0.232834,0.10583 0.423333,0.21167 0.1905,0.127 0.211667,0.14816 0.1905,0.14817 0.169333,0.14817 0.338666,0.33866 0.169334,0.1905 0.148166,0.1905 0.254,0.381 0.127,0.21167 0.105834,0.21167 0.105833,0.23283 0.08467,0.21167 0.08467,0.23283 0.0635,0.23283 0.0635,0.254 0.04233,0.23284 0.04233,0.254 v 0.254 l 0.02117,0.254 -0.02117,0.254 v 0.254 l -0.04233,0.254 -0.04233,0.23283 -0.0635,0.254 -0.0635,0.23283 -0.08467,0.23284 -0.08467,0.21166 -0.105833,0.23284 -0.105834,0.21166 -0.127,0.21167 -0.127,0.1905 -0.127,0.21167 -0.148166,0.16933 -0.169334,0.1905 -0.338666,0.33867 -0.169333,0.14816 -0.1905,0.14817 -0.211667,0.14817 -0.1905,0.127 -0.211667,0.10583 -0.211666,0.127 -0.232834,0.0847 -0.211666,0.10583 -0.232834,0.0635 -0.254,0.0635 -0.232833,0.0635 -0.508,0.0847 -0.254,0.0212 h -0.508 l -0.254,-0.0212 -0.508,-0.0847 -0.6985,-0.1905 -0.232833,-0.10583 -0.211667,-0.0847 -0.232833,-0.127 -0.1905,-0.10583 -0.211667,-0.127 -0.5715,-0.4445 -0.338666,-0.33867 -0.148167,-0.1905 -0.148167,-0.16933 -0.148166,-0.21167 -0.127,-0.1905 -0.127,-0.21167 -0.105834,-0.21166 -0.105833,-0.23284 -0.08467,-0.21166 -0.08467,-0.23284 -0.0635,-0.23283 -0.0635,-0.254 -0.04233,-0.23283 -0.04233,-0.508 v -0.508 l 0.04233,-0.508 0.04233,-0.23284 0.0635,-0.254 0.0635,-0.23283 0.08467,-0.23283 0.08467,-0.21167 0.105833,-0.23283 0.105834,-0.21167 0.127,-0.21167 0.127,-0.1905 0.4445,-0.5715 0.338666,-0.33866 0.5715,-0.4445 0.211667,-0.127 0.1905,-0.10584 0.232833,-0.10583 0.211667,-0.10583 0.465666,-0.16934 0.465667,-0.127 0.254,-0.0423 0.762,-0.0635"
       style="fill:#ffffff;fill-opacity:1;fill-rule:evenodd;stroke:none;stroke-width:0.352778" />
    <path
       id="path203"
       d="m 93.884684,201.00925 0.931333,-0.91017 z m 0,0 -0.1905,-0.21167 -0.1905,-0.1905 -0.169333,-0.21166 -0.169334,-0.1905 -0.338666,-0.42334 -0.148167,-0.21166 -0.148167,-0.23284 -0.148166,-0.21166 -0.254,-0.46567 -0.127,-0.21167 -0.127,-0.23283 -0.211667,-0.46567 -0.105833,-0.254 -0.08467,-0.23283 -0.105833,-0.23283 -0.08467,-0.254 -0.0635,-0.23284 -0.127,-0.508 -0.0635,-0.254 -0.0635,-0.23283 -0.08467,-0.508 -0.02117,-0.254 -0.04233,-0.254 -0.02117,-0.254 v -0.254 l -0.02117,-0.254 v -0.254 h 1.291167 l 0.02117,0.23283 v 0.21167 l 0.02117,0.23283 0.02117,0.21167 0.02117,0.23283 0.02117,0.21167 0.04233,0.23283 0.02117,0.21167 0.0635,0.21167 0.04233,0.23283 0.0635,0.21167 0.127,0.42333 0.0635,0.23283 0.08467,0.1905 0.254,0.635 0.105833,0.21167 0.105834,0.1905 0.105833,0.21167 0.127,0.1905 0.105833,0.21166 0.254,0.381 0.148167,0.1905 0.127,0.1905 0.148167,0.16934 0.169333,0.1905 0.148167,0.16933 0.169333,0.1905 0.169333,0.16933 z m -3.1115,-7.493 v -0.254 l 0.02117,-0.254 v -0.254 l 0.02117,-0.254 0.04233,-0.254 0.02117,-0.254 0.04233,-0.254 0.04233,-0.23283 0.0635,-0.254 0.0635,-0.254 0.0635,-0.254 0.0635,-0.23284 0.0635,-0.254 0.08467,-0.23283 0.105833,-0.254 0.08467,-0.23283 0.211666,-0.46567 0.105834,-0.254 0.127,-0.21167 0.381,-0.6985 0.296333,-0.42333 0.148167,-0.23283 0.169333,-0.21167 0.169333,-0.1905 0.338667,-0.42333 0.381,-0.381 0.931333,0.91016 -0.338666,0.33867 -0.148167,0.16933 -0.169333,0.1905 -0.148167,0.1905 -0.127,0.16934 -0.148167,0.1905 -0.127,0.1905 -0.127,0.21166 -0.105833,0.1905 -0.127,0.1905 -0.105833,0.21167 -0.105834,0.1905 -0.105833,0.21167 -0.338667,0.84666 -0.1905,0.635 -0.0635,0.21167 -0.04233,0.23283 -0.0635,0.21167 -0.02117,0.23283 -0.04233,0.21167 -0.02117,0.23283 -0.02117,0.21167 -0.02117,0.21167 -0.02117,0.23283 v 0.23283 l -0.02117,0.21167 z m 3.1115,-7.47183 0.931333,0.91016 -0.931333,-0.91016"
       style="fill:#1e1917;fill-opacity:1;fill-rule:nonzero;stroke:none;stroke-width:0.352778" />
  </g>
</svg>
