<?xml version="1.0" encoding="UTF-8"?>
<!-- Created with Inkscape (http://www.inkscape.org/) -->
<svg width="40.499mm" height="19.727mm" version="1.1" viewBox="0 0 40.499 19.727" xmlns="http://www.w3.org/2000/svg">
 <defs>
  <clipPath id="clipPath65">
   <path transform="translate(0 2.5e-5)" d="m275.7 268.04h3.3v14.46h-3.3z"/>
  </clipPath>
  <clipPath id="clipPath68">
   <path transform="translate(0 2.5e-5)" d="m255.48 281h42.9v42.96h-42.9z"/>
  </clipPath>
 </defs>
 <g transform="translate(-103.72 -199.5)">
  <path d="m136.3 219.18h0.97367v-4.9742h-0.97367z" fill="#7e7e7e"/>
  <path transform="matrix(.35278 0 0 -.35278 38.954 313.78)" d="m275.94 282.26h2.76v-14.1h-2.76z" clip-path="url(#clipPath65)" fill="none" stroke="#1e1917" stroke-linecap="round" stroke-linejoin="round" stroke-miterlimit="10" stroke-width=".281"/>
  <path d="m129.17 214.55h15.007v-15.007h-15.007z" fill="#7e7e7e"/>
  <path transform="matrix(.35278 0 0 -.35278 38.954 313.78)" d="m255.72 323.84h42.54v-42.54h-42.54z" clip-path="url(#clipPath68)" fill="none" stroke="#1e1917" stroke-linecap="round" stroke-linejoin="round" stroke-miterlimit="10" stroke-width=".281"/>
  <g>
   <g fill-rule="evenodd" stroke="#1e1917" stroke-linecap="round" stroke-linejoin="round" stroke-miterlimit="10" stroke-width=".09913">
    <path d="m132.62 201.08 0.10583 0.0212h0.0847l0.10583 0.0212h0.0847l0.10583 0.0212 0.0847 0.0423 0.10583 0.0212 0.42334 0.21167 0.0847 0.0635 0.127 0.127 0.0847 0.0635 0.127 0.127 0.0423 0.0847 0.0635 0.0847 0.0423 0.0635 0.0635 0.0847 0.0847 0.16933 0.0212 0.10583 0.0423 0.0847 0.0212 0.0847 0.0424 0.21166v0.0847l0.0212 0.10583v0.21167l-0.0212 0.0847v0.10583l-0.0212 0.10583-0.0424 0.1694-0.0423 0.10583-0.0212 0.0847-0.0847 0.16933-0.0635 0.0847-0.0423 0.0847-0.0635 0.0847-0.0423 0.0635-0.0635 0.0635-0.0635 0.0847-0.0847 0.0635-0.127 0.127-0.0847 0.0423-0.0847 0.0635-0.254 0.127-0.0847 0.0212-0.10583 0.0423-0.0847 0.0212-0.10583 0.0212-0.0847 0.0212-0.10583 0.0212h-0.40217l-0.10583-0.0212-0.0847-0.0212-0.10583-0.0212-0.0847-0.0212-0.0847-0.0423-0.10584-0.0212-0.254-0.127-0.0847-0.0635-0.0635-0.0423-0.0847-0.0635-0.21167-0.21167-0.0423-0.0635-0.0635-0.0635-0.0635-0.0847-0.0847-0.16933-0.0635-0.0847-0.0212-0.0847-0.0423-0.0847-0.0423-0.10583-0.0424-0.1694-0.0212-0.10583v-0.10583l-0.0212-0.0847v-0.21167l0.0212-0.10583v-0.0847l0.0424-0.21166 0.0212-0.0847 0.0423-0.0847 0.0423-0.10583 0.0212-0.0847 0.0635-0.0847 0.0423-0.0847 0.0423-0.0635 0.127-0.16933 0.0423-0.0635 0.0847-0.0635 0.127-0.127 0.0847-0.0635 0.0635-0.0635 0.33866-0.16934 0.10584-0.0423 0.0847-0.0212 0.0847-0.0423 0.10583-0.0212h0.0847l0.10583-0.0212h0.10584l0.10583-0.0212" fill="#fff"/>
    <path d="m132.62 209.04h0.10583l0.10584 0.0212h0.10583l0.0847 0.0212 0.10583 0.0212 0.0847 0.0212 0.0847 0.0423 0.10584 0.0423 0.0847 0.0212 0.0847 0.0423 0.0847 0.0635 0.0847 0.0423 0.0635 0.0635 0.0847 0.0635 0.0635 0.0635 0.0847 0.0635 0.127 0.127 0.0635 0.0847 0.0423 0.0847 0.0635 0.0635 0.0847 0.16933 0.0423 0.10584 0.0423 0.0847 0.0212 0.0847 0.0212 0.10583 0.0212 0.0847 0.0212 0.10583 0.0212 0.0847v0.42333l-0.0212 0.0847-0.0212 0.10583-0.0212 0.10584-0.0424 0.1694-0.0423 0.10583-0.127 0.254-0.0635 0.0847-0.0423 0.0635-0.0635 0.0847-0.27517 0.27516-0.0847 0.0423-0.0635 0.0635-0.0847 0.0423-0.0847 0.0635-0.16933 0.0847-0.10584 0.0212-0.0847 0.0423-0.0847 0.0212-0.10583 0.0212-0.0847 0.0212h-0.10583l-0.10584 0.0212h-0.21166l-0.0847-0.0212h-0.10583l-0.10584-0.0212-0.0847-0.0212-0.10584-0.0212-0.0847-0.0423-0.0847-0.0212-0.10583-0.0423-0.0847-0.0423-0.0635-0.0635-0.0847-0.0423-0.0847-0.0635-0.0847-0.0423-0.0635-0.0635-0.0635-0.0847-0.127-0.127-0.0635-0.0847-0.0635-0.0635-0.0847-0.16933-0.0846-0.1694-0.0423-0.10583-0.0212-0.0847-0.0423-0.0847-0.0212-0.10584-0.0212-0.10583v-0.0847l-0.0212-0.10583v-0.21167l0.0212-0.10583v-0.0847l0.0212-0.10583 0.0212-0.0847 0.0423-0.10583 0.0212-0.0847 0.0423-0.0847 0.0423-0.10584 0.0847-0.16933 0.0423-0.0635 0.127-0.16933 0.254-0.254 0.16933-0.127 0.0847-0.0423 0.0635-0.0635 0.0847-0.0423 0.10583-0.0212 0.16933-0.0847 0.10584-0.0212 0.0847-0.0212 0.10584-0.0212h0.10583l0.0847-0.0212h0.10583" fill="#fff"/>
    <path d="m140.62 209.02h0.21167l0.0847 0.0212 0.21167 0.0423 0.0847 0.0212 0.0847 0.0423 0.10584 0.0212 0.16933 0.0847 0.0847 0.0635 0.0847 0.0423 0.0847 0.0635 0.0635 0.0635 0.0847 0.0635 0.1905 0.1905 0.0635 0.0847 0.0423 0.0847 0.0635 0.0635 0.0423 0.0847 0.0423 0.10583 0.0846 0.1694 0.0212 0.0847 0.0423 0.10583 0.0212 0.0847v0.10583l0.0212 0.10584v0.10583l0.0212 0.0847-0.0212 0.10583v0.10583l-0.0212 0.10584v0.10583l-0.0212 0.0847-0.0423 0.10583-0.0212 0.0847-0.0423 0.0847-0.0847 0.16934-0.0423 0.10583-0.0635 0.0635-0.0423 0.0847-0.0635 0.0847-0.1905 0.1905-0.0847 0.0635-0.0635 0.0635-0.0847 0.0635-0.0847 0.0423-0.0847 0.0635-0.16933 0.0847-0.10584 0.0212-0.0847 0.0423-0.0847 0.0212-0.21167 0.0423h-0.0847l-0.10584 0.0212h-0.21166l-0.10584-0.0212h-0.0847l-0.21167-0.0423-0.0847-0.0212-0.10583-0.0423-0.0847-0.0212-0.16933-0.0847-0.0847-0.0635-0.0847-0.0423-0.0847-0.0635-0.0635-0.0635-0.0847-0.0635-0.1905-0.1905-0.0635-0.0847-0.0423-0.0847-0.0635-0.0635-0.0423-0.10583-0.1269-0.2541-0.0212-0.0847-0.0423-0.10583-0.0212-0.0847v-0.10606l-0.0212-0.10584v-0.10583l-0.0212-0.10583 0.0212-0.0847v-0.1058l0.0212-0.10584v-0.10583l0.0212-0.0847 0.0423-0.10583 0.0212-0.0847 0.0846-0.1694 0.0423-0.10583 0.0423-0.0847 0.0635-0.0635 0.0423-0.0847 0.0635-0.0847 0.1905-0.1905 0.0847-0.0635 0.0635-0.0635 0.0847-0.0635 0.0847-0.0423 0.0847-0.0635 0.16933-0.0847 0.0847-0.0212 0.10583-0.0423 0.0847-0.0212 0.21167-0.0423 0.0847-0.0212h0.21167" fill="#7e7e7e"/>
   </g>
   <path d="m110.67 219.01h0.97367v-4.953h-0.97367z" fill="#7e7e7e"/>
  </g>
  <path d="m111.64 214.06h-0.97367v4.953h0.97367z" fill="none" stroke="#1e1917" stroke-linecap="round" stroke-linejoin="round" stroke-miterlimit="10" stroke-width=".09913"/>
  <g fill-rule="evenodd" stroke="#1e1917" stroke-linecap="round" stroke-linejoin="round" stroke-miterlimit="10" stroke-width=".09913">
   <path d="m118.77 199.64h-15.007l0.0423 14.605h15.007l-0.0423-14.605" fill="#7e7e7e"/>
   <path d="m115.32 200.94h-0.1905l-0.10583 0.0212-0.0847 0.0212-0.10583 0.0212-0.0847 0.0212-0.10583 0.0423-0.0847 0.0212-0.254 0.127-0.0847 0.0635-0.0635 0.0423-0.0847 0.0635-0.0635 0.0635-0.0847 0.0635-0.0635 0.0635-0.0635 0.0847-0.0423 0.0635-0.127 0.16933-0.0423 0.0847-0.0847 0.16933-0.0212 0.0847-0.0423 0.0847-0.0212 0.10584-0.0212 0.0847-0.0212 0.10584-0.0212 0.10583v0.40217l0.0212 0.0847 0.0212 0.10584 0.0212 0.10583 0.0212 0.0847 0.0423 0.0847 0.0212 0.10584 0.127 0.254 0.0635 0.0635 0.0635 0.0847 0.0423 0.0847 0.127 0.127 0.0847 0.0635 0.0635 0.0635 0.0847 0.0635 0.0635 0.0635 0.42334 0.21167 0.10583 0.0212 0.0847 0.0423 0.10583 0.0212h0.0847l0.10583 0.0212h0.10583l0.0847 0.0212 0.10583-0.0212h0.10584l0.10583-0.0212h0.0847l0.10583-0.0212 0.0847-0.0423 0.10583-0.0212 0.42333-0.21167 0.0635-0.0635 0.0847-0.0635 0.127-0.127 0.0847-0.0635 0.0423-0.0635 0.127-0.16933 0.0423-0.0635 0.0423-0.0847 0.0635-0.0847 0.0212-0.0847 0.0423-0.10584 0.0423-0.0847 0.0212-0.0847 0.0212-0.10583 0.0212-0.10584v-0.0847l0.0212-0.10584v-0.21166l-0.0212-0.0847v-0.10583l-0.0212-0.10584-0.0212-0.0847-0.0212-0.10584-0.0846-0.1694-0.0212-0.0847-0.0635-0.0847-0.0846-0.1694-0.0635-0.0847-0.0635-0.0635-0.0423-0.0847-0.0847-0.0635-0.127-0.127-0.0847-0.0635-0.0635-0.0423-0.0847-0.0635-0.254-0.127-0.0847-0.0212-0.10583-0.0423-0.0847-0.0212-0.10583-0.0212-0.0847-0.0212-0.10583-0.0212h-0.21167" fill="#fff"/>
   <path d="m115.32 208.89h-0.21167l-0.0847 0.0212h-0.10584l-0.10583 0.0423-0.0847 0.0212-0.10583 0.0212-0.33867 0.16934-0.0847 0.0635-0.0635 0.0423-0.0847 0.0635-0.0635 0.0635-0.0847 0.0635-0.0635 0.0635-0.0635 0.0847-0.0423 0.0635-0.127 0.16933-0.127 0.254-0.0212 0.0847-0.0423 0.10583-0.0212 0.0847-0.0212 0.10583-0.0212 0.0847-0.0212 0.10583v0.40217l0.0212 0.10583 0.0212 0.0847 0.0212 0.10583 0.0212 0.0847 0.0423 0.10583 0.0212 0.0847 0.127 0.254 0.127 0.16933 0.0423 0.0635 0.0635 0.0847 0.0635 0.0635 0.0847 0.0635 0.0635 0.0635 0.0847 0.0635 0.0635 0.0423 0.0847 0.0635 0.33867 0.16933 0.10583 0.0212 0.0847 0.0423h0.10583l0.10584 0.0212 0.0847 0.0212h0.40217l0.21167-0.0423h0.0847l0.10584-0.0423 0.0847-0.0212 0.0847-0.0423 0.10583-0.0423 0.16934-0.0847 0.0635-0.0635 0.0847-0.0423 0.0847-0.0635 0.1905-0.1905 0.0635-0.0847 0.0635-0.0635 0.0635-0.0847 0.0847-0.16933 0.0635-0.0847 0.0212-0.0847 0.0423-0.0847 0.0423-0.10583 0.0212-0.0847 0.0212-0.10583 0.0212-0.0847v-0.10602l0.0212-0.10584v-0.1905l-0.0212-0.10583v-0.10583l-0.0212-0.0847-0.0212-0.10583-0.0212-0.0847-0.0423-0.10583-0.0423-0.0847-0.0212-0.0847-0.0635-0.0847-0.0846-0.1694-0.0635-0.0847-0.0635-0.0635-0.0635-0.0847-0.1905-0.1905-0.0847-0.0635-0.0847-0.0423-0.0635-0.0635-0.16934-0.0847-0.10583-0.0423-0.0847-0.0423-0.0847-0.0212-0.10584-0.0212-0.0847-0.0423h-0.10584l-0.10583-0.0212h-0.1905" fill="#fff"/>
   <path d="m107.32 208.85h-0.10583l-0.10584 0.0212h-0.0847l-0.21167 0.0423-0.0847 0.0423-0.0847 0.0212-0.10584 0.0423-0.254 0.127-0.0847 0.0635-0.0847 0.0423-0.0635 0.0635-0.0847 0.0635-0.127 0.127-0.0635 0.0847-0.0635 0.0635-0.0423 0.0847-0.0635 0.0847-0.16933 0.33866-0.0212 0.10584-0.0423 0.0847-0.0212 0.10584v0.10583l-0.0212 0.0847v0.10583l-0.0212 0.10583 0.0212 0.10584v0.10583l0.0212 0.0847v0.10583l0.0212 0.10583 0.0423 0.0847 0.0212 0.0847 0.0423 0.10583 0.127 0.254 0.0635 0.0847 0.0423 0.0635 0.0635 0.0847 0.0635 0.0635 0.0635 0.0847 0.0635 0.0635 0.0847 0.0635 0.0635 0.0635 0.0847 0.0423 0.0847 0.0635 0.254 0.127 0.10584 0.0423 0.16933 0.0423 0.21167 0.0423 0.0847 0.0212h0.42334l0.10583-0.0212 0.0847-0.0212 0.10583-0.0212 0.0847-0.0212 0.10583-0.0212 0.33867-0.16934 0.0847-0.0635 0.0847-0.0423 0.0635-0.0635 0.0847-0.0635 0.0635-0.0635 0.0635-0.0847 0.0635-0.0635 0.0635-0.0847 0.0423-0.0635 0.0635-0.0847 0.127-0.254 0.0423-0.10583 0.0212-0.0847 0.0423-0.0847 0.0424-0.21166v-0.0847l0.0212-0.10583v-0.21167l-0.0212-0.10583v-0.0847l-0.0212-0.10583-0.0212-0.10584-0.0423-0.0847-0.0212-0.10584-0.16933-0.33866-0.0635-0.0847-0.0423-0.0847-0.0635-0.0635-0.0635-0.0847-0.127-0.127-0.0847-0.0635-0.0635-0.0635-0.0847-0.0423-0.0847-0.0635-0.33867-0.16933-0.10583-0.0212-0.0847-0.0423-0.10583-0.0212-0.0847-0.0212h-0.10583l-0.10584-0.0212h-0.10583" fill="#7e7e7e"/>
  </g>
 </g>
</svg>
