<?xml version="1.0" encoding="UTF-8"?>
<!-- Created with Inkscape (http://www.inkscape.org/) -->
<svg width="15.092mm" height="19.733mm" version="1.1" viewBox="0 0 15.092 19.733" xmlns="http://www.w3.org/2000/svg">
 <defs>
  <clipPath id="clipPath333">
   <path transform="translate(0 2.5e-5)" d="m242.22 233.9h42.78v42.96h-42.78z"/>
  </clipPath>
 </defs>
 <g transform="translate(-60.325 -160.07)">
  <path d="m67.522 179.76h0.9525v-4.9742h-0.9525z" fill="#7e7e7e"/>
  <path d="m67.522 174.78h0.9525v4.9742h-0.9525z" fill="none" stroke="#1e1917" stroke-linecap="round" stroke-linejoin="round" stroke-miterlimit="10" stroke-width=".095603"/>
  <path d="m60.367 175.12h15.007v-15.007h-15.007z" fill="#7e7e7e"/>
  <g stroke="#1e1917" stroke-linecap="round" stroke-linejoin="round" stroke-miterlimit="10">
   <path transform="matrix(.35278 0 0 -.35278 -25.125 257.74)" d="m242.34 276.74h42.54v-42.54h-42.54z" clip-path="url(#clipPath333)" fill="none" stroke-width=".271"/>
   <path d="m63.817 161.66 0.10583 0.0212h0.10583l0.08467 0.0212h0.10583l0.08467 0.0212 0.10583 0.0423 0.08467 0.0212 0.08467 0.0423 0.10583 0.0423 0.08467 0.0423 0.0635 0.0423 0.08467 0.0423 0.08467 0.0635 0.0635 0.0635 0.08467 0.0635 0.1905 0.1905 0.0635 0.0847 0.04233 0.0847 0.0635 0.0635 0.127 0.254 0.04233 0.10583 0.04234 0.1694 0.04233 0.10583v0.10583l0.02117 0.0847v0.40217l-0.02117 0.10583v0.10583l-0.04233 0.0847-0.02117 0.10583-0.02117 0.0847-0.16933 0.33867-0.0635 0.0847-0.04233 0.0847-0.0635 0.0635-0.0635 0.0847-0.127 0.127-0.08467 0.0635-0.0635 0.0635-0.08467 0.0423-0.08467 0.0635-0.0635 0.0423-0.08467 0.0423-0.10583 0.0423-0.08467 0.0212-0.08467 0.0423-0.10583 0.0212-0.08467 0.0212-0.10583 0.0212-0.08467 0.0212h-0.40217l-0.21167-0.0423-0.08467-0.0212-0.10583-0.0212-0.08467-0.0423-0.08467-0.0212-0.254-0.127-0.08467-0.0635-0.08467-0.0423-0.0635-0.0635-0.08467-0.0635-0.127-0.127-0.0635-0.0847-0.0635-0.0635-0.04233-0.0847-0.0635-0.0847-0.16932-0.3388-0.02117-0.0847-0.02117-0.10583-0.02117-0.0847-0.04234-0.21166v-0.40217l0.02117-0.0847 0.04233-0.21166 0.04234-0.1694 0.04233-0.10583 0.04233-0.0847 0.08467-0.16933 0.0635-0.0635 0.04233-0.0847 0.0635-0.0847 0.1905-0.1905 0.08467-0.0635 0.0635-0.0635 0.08467-0.0635 0.42333-0.21167 0.08467-0.0212 0.10583-0.0423 0.08467-0.0212h0.10583l0.10583-0.0212h0.08467l0.10583-0.0212" fill="#7e7e7e" fill-rule="evenodd" stroke-width=".095603"/>
   <path d="m63.839 169.62h0.10583l0.08467 0.0212h0.10583l0.10583 0.0212 0.08467 0.0212 0.10583 0.0212 0.16933 0.0847 0.08467 0.0212 0.08467 0.0423 0.08467 0.0635 0.08467 0.0423 0.08467 0.0635 0.0635 0.0635 0.08467 0.0635 0.1905 0.1905 0.127 0.16933 0.04233 0.0635 0.127 0.254 0.04233 0.10583 0.02117 0.0847 0.04233 0.10583 0.02117 0.0847v0.10583l0.02117 0.0847v0.10583l0.02117 0.10584-0.02117 0.10583v0.10583l-0.02117 0.0847v0.10583l-0.02117 0.10584-0.04233 0.0847-0.02117 0.0847-0.04233 0.10583-0.16933 0.33867-0.0635 0.0635-0.0635 0.0847-0.127 0.127-0.0635 0.0847-0.08467 0.0635-0.0635 0.0423-0.08467 0.0635-0.08467 0.0423-0.08467 0.0635-0.16933 0.0847-0.08467 0.0212-0.08467 0.0423-0.10583 0.0212-0.08467 0.0212-0.21167 0.0423h-0.40217l-0.10583-0.0212-0.08467-0.0212-0.10583-0.0212-0.08467-0.0212-0.10583-0.0423-0.08467-0.0212-0.16933-0.0847-0.08467-0.0635-0.08467-0.0423-0.0635-0.0635-0.08467-0.0423-0.27517-0.27516-0.0635-0.0847-0.04233-0.0635-0.0635-0.0847-0.127-0.254-0.04233-0.10583-0.04233-0.16933-0.04233-0.21167-0.02117-0.0847v-0.42333l0.02117-0.0847 0.02117-0.10583 0.02117-0.0847 0.02117-0.10583 0.02117-0.0847 0.04233-0.10583 0.127-0.254 0.0635-0.0635 0.04233-0.0847 0.0635-0.0847 0.127-0.127 0.08467-0.0635 0.0635-0.0635 0.08467-0.0635 0.0635-0.0635 0.08467-0.0423 0.08467-0.0635 0.08467-0.0423 0.08467-0.0212 0.08467-0.0423 0.10583-0.0423 0.08467-0.0212 0.10583-0.0212 0.08467-0.0212h0.10583l0.10583-0.0212h0.10583" fill="#7e7e7e" fill-rule="evenodd" stroke-width=".095603"/>
  </g>
  <g fill="#fff" fill-rule="evenodd" stroke="#1e1917" stroke-linecap="round" stroke-linejoin="round" stroke-miterlimit="10" stroke-width=".095603">
   <path d="m71.818 161.66 0.10583 0.0212h0.10583l0.08467 0.0212h0.10583l0.10583 0.0212 0.08467 0.0423 0.10583 0.0212 0.33867 0.16933 0.08467 0.0635 0.08467 0.0423 0.0635 0.0635 0.08467 0.0635 0.127 0.127 0.0635 0.0847 0.0635 0.0635 0.04233 0.0847 0.0635 0.0847 0.16933 0.33866 0.02117 0.10584 0.04233 0.0847 0.04233 0.21167v0.1905l0.02117 0.10583-0.02117 0.10584v0.1905l-0.04234 0.21166-0.04233 0.0847-0.02117 0.0847-0.04233 0.10583-0.04233 0.0847-0.08467 0.16933-0.0635 0.0847-0.04233 0.0635-0.0635 0.0847-0.0635 0.0635-0.0635 0.0847-0.0635 0.0635-0.08467 0.0635-0.0635 0.0635-0.08467 0.0423-0.08467 0.0635-0.33867 0.16934-0.10583 0.0212-0.08467 0.0212-0.10583 0.0423h-0.10583l-0.08467 0.0212h-0.42333l-0.08467-0.0212h-0.10583l-0.08467-0.0423-0.10583-0.0212-0.08467-0.0212-0.10583-0.0423-0.254-0.127-0.08467-0.0635-0.0635-0.0423-0.08467-0.0635-0.0635-0.0635-0.08467-0.0635-0.0635-0.0847-0.0635-0.0635-0.0635-0.0847-0.04233-0.0635-0.0635-0.0847-0.127-0.254-0.04233-0.10583-0.04233-0.16934-0.04234-0.21166-0.02117-0.0847v-0.42333l0.02117-0.0847 0.04233-0.21167 0.02117-0.0847 0.02117-0.10584 0.04233-0.0847 0.127-0.254 0.0635-0.0847 0.04233-0.0847 0.0635-0.0635 0.0635-0.0847 0.0635-0.0635 0.08467-0.0635 0.0635-0.0635 0.08467-0.0635 0.0635-0.0423 0.08467-0.0635 0.254-0.127 0.10583-0.0423 0.08467-0.0212 0.10583-0.0423 0.08467-0.0212h0.10583l0.08467-0.0212h0.10583l0.10583-0.0212"/>
   <path d="m71.818 169.6h0.21167l0.08467 0.0212 0.21167 0.0423 0.08467 0.0212 0.10583 0.0423 0.08467 0.0212 0.16933 0.0847 0.08467 0.0635 0.08467 0.0423 0.08467 0.0635 0.0635 0.0635 0.08467 0.0635 0.1905 0.1905 0.0635 0.0847 0.04233 0.0847 0.0635 0.0635 0.08467 0.16933 0.04233 0.10584 0.04233 0.0847 0.02117 0.0847 0.04233 0.10583 0.02117 0.0847 0.02117 0.10583v0.21167l0.02117 0.0847-0.02117 0.10583v0.21167l-0.02117 0.0847-0.02117 0.10584-0.04233 0.10583-0.02117 0.0847-0.08467 0.16933-0.04233 0.10583-0.04233 0.0635-0.0635 0.0847-0.04233 0.0847-0.0635 0.0847-0.1905 0.1905-0.08467 0.0635-0.0635 0.0635-0.08467 0.0635-0.08467 0.0423-0.08467 0.0635-0.16933 0.0847-0.08467 0.0212-0.10583 0.0423-0.08467 0.0212-0.21167 0.0423h-0.08467l-0.10583 0.0212h-0.21167l-0.10583-0.0212h-0.08467l-0.10583-0.0212-0.08467-0.0212-0.10583-0.0212-0.08467-0.0423-0.10583-0.0212-0.16933-0.0847-0.08467-0.0635-0.08467-0.0423-0.0635-0.0635-0.08467-0.0635-0.0635-0.0635-0.08467-0.0635-0.127-0.127-0.0635-0.0847-0.04233-0.0847-0.0635-0.0847-0.04233-0.0635-0.04233-0.10583-0.08466-0.1694-0.02117-0.0847-0.04233-0.21167-0.02117-0.0847-0.02117-0.10584v-0.40216l0.04233-0.21167 0.02117-0.0847 0.02117-0.10583 0.02117-0.0847 0.04233-0.0847 0.04233-0.10584 0.08467-0.16933 0.0635-0.0635 0.04233-0.0847 0.0635-0.0847 0.127-0.127 0.08467-0.0635 0.0635-0.0635 0.08467-0.0635 0.0635-0.0635 0.08467-0.0423 0.08467-0.0635 0.16933-0.0847 0.10583-0.0212 0.08467-0.0423 0.10583-0.0212 0.08467-0.0212 0.10583-0.0212 0.08467-0.0212h0.21167"/>
   <path d="m67.839 165.62h0.10583l0.10583 0.0212h0.10583l0.08467 0.0212 0.10583 0.0212 0.08467 0.0212 0.10583 0.0423 0.08467 0.0423 0.08467 0.0212 0.08467 0.0635 0.16933 0.0847 0.08467 0.0635 0.0635 0.0635 0.08467 0.0635 0.127 0.127 0.0635 0.0847 0.0635 0.0635 0.0635 0.0847 0.127 0.254 0.08466 0.1694 0.04233 0.10584 0.02117 0.0847 0.02117 0.10584 0.02117 0.0847v0.10584l0.02117 0.10583v0.1905l-0.02117 0.10583v0.10584l-0.02117 0.10583-0.02117 0.0847-0.02117 0.10583-0.08467 0.16933-0.04233 0.10584-0.08467 0.16933-0.04233 0.0635-0.127 0.16933-0.127 0.127-0.0635 0.0847-0.08467 0.0635-0.0635 0.0423-0.08467 0.0635-0.08467 0.0423-0.08467 0.0635-0.16933 0.0847-0.08467 0.0212-0.10583 0.0423-0.08467 0.0212-0.10583 0.0212-0.08467 0.0212-0.10583 0.0212h-0.40217l-0.21167-0.0423-0.08467-0.0212-0.10583-0.0212-0.08467-0.0423-0.08467-0.0212-0.10583-0.0423-0.08467-0.0423-0.08467-0.0635-0.08467-0.0423-0.0635-0.0635-0.08467-0.0423-0.27517-0.27517-0.04233-0.0847-0.0635-0.0847-0.04233-0.0635-0.0635-0.0847-0.04233-0.0847-0.04233-0.10584-0.02117-0.0847-0.04233-0.0847-0.02117-0.10583-0.02117-0.0847-0.04233-0.21167v-0.40216l0.02117-0.10584 0.02117-0.0847 0.02117-0.10584 0.02117-0.0847 0.04233-0.10584 0.02117-0.0847 0.08467-0.16934 0.0635-0.0847 0.04233-0.0847 0.0635-0.0847 0.04233-0.0635 0.0635-0.0847 0.0635-0.0635 0.08467-0.0635 0.0635-0.0635 0.08467-0.0635 0.0635-0.0635 0.16933-0.0847 0.08467-0.0635 0.10583-0.0212 0.16933-0.0847 0.10583-0.0212 0.08467-0.0212 0.10583-0.0212h0.10583l0.08467-0.0212h0.10583"/>
  </g>
 </g>
</svg>
