<?xml version="1.0" encoding="UTF-8"?>
<!-- Created with Inkscape (http://www.inkscape.org/) -->
<svg width="40.492mm" height="19.727mm" version="1.1" viewBox="0 0 40.492 19.727" xmlns="http://www.w3.org/2000/svg">
 <defs>
  <clipPath id="clipPath139">
   <path transform="translate(-2.5e-6 2.5e-5)" d="m226.44 464.24h3.24v14.4h-3.24z"/>
  </clipPath>
  <clipPath id="clipPath142">
   <path transform="translate(-2.5e-6 2.5e-5)" d="m206.22 477.2h43.08v42.9h-43.08z"/>
  </clipPath>
  <clipPath id="clipPath150">
   <path transform="translate(-2.5e-6 2.5e-5)" d="m277.98 477.32h43.02v42.84h-43.02z"/>
  </clipPath>
 </defs>
 <g transform="translate(-30.162 -180.98)">
  <path d="m37.38 200.66h0.9525v-4.953h-0.9525z" fill="#7e7e7e"/>
  <path transform="matrix(.35278 0 0 -.35278 -42.587 364.48)" d="m226.68 478.4h2.7v-14.04h-2.7z" clip-path="url(#clipPath139)" fill="none" stroke="#1e1917" stroke-linecap="round" stroke-linejoin="round" stroke-miterlimit="10" stroke-width=".281"/>
  <path d="m30.205 196.02h15.049v-14.944h-15.049z" fill="#7e7e7e"/>
  <path transform="matrix(.35278 0 0 -.35278 -42.587 364.48)" d="m206.34 519.86h42.66v-42.36h-42.66z" clip-path="url(#clipPath142)" fill="none" stroke="#1e1917" stroke-linecap="round" stroke-linejoin="round" stroke-miterlimit="10" stroke-width=".281"/>
  <g>
   <g fill-rule="evenodd" stroke="#1e1917" stroke-linecap="round" stroke-linejoin="round" stroke-miterlimit="10" stroke-width=".09913">
    <path d="m33.676 190.56h0.21167l0.10583 0.0212h0.08467l0.10583 0.0423 0.08467 0.0212 0.10583 0.0212 0.33867 0.16934 0.08467 0.0635 0.08467 0.0423 0.127 0.127 0.08467 0.0635 0.0635 0.0635 0.0635 0.0847 0.0635 0.0635 0.04233 0.0847 0.0635 0.0847 0.16933 0.33867 0.02117 0.0847 0.02117 0.10584 0.02117 0.0847 0.02117 0.10584 0.02117 0.10583v0.40217l-0.02117 0.0847-0.02117 0.10584-0.02117 0.10583-0.04234 0.1694-0.04233 0.10584-0.127 0.254-0.0635 0.0847-0.04233 0.0635-0.0635 0.0847-0.27517 0.27517-0.0635 0.0423-0.08467 0.0635-0.16933 0.0847-0.08467 0.0635-0.08467 0.0423-0.08467 0.0212-0.10583 0.0423-0.08467 0.0212-0.10583 0.0212-0.08467 0.0212h-0.10583l-0.10583 0.0212h-0.21167l-0.08467-0.0212h-0.10583l-0.10583-0.0212-0.08467-0.0212-0.10583-0.0212-0.08467-0.0423-0.08467-0.0212-0.10583-0.0423-0.08467-0.0635-0.16933-0.0847-0.0635-0.0635-0.08467-0.0423-0.0635-0.0635-0.0635-0.0847-0.127-0.127-0.0635-0.0847-0.0635-0.0635-0.04233-0.0847-0.0635-0.0847-0.08467-0.16933-0.02117-0.10584-0.04233-0.0847-0.02117-0.0847-0.02117-0.10583-0.02117-0.10584-0.02117-0.0847v-0.40217l0.02117-0.10583 0.02117-0.10584 0.02117-0.0847 0.02117-0.10584 0.04233-0.0847 0.02117-0.0847 0.08467-0.16933 0.0635-0.0847 0.04233-0.0847 0.0635-0.0847 0.0635-0.0635 0.0635-0.0847 0.1905-0.1905 0.08467-0.0635 0.0635-0.0423 0.08467-0.0635 0.16933-0.0847 0.10583-0.0423 0.08467-0.0423 0.08467-0.0212 0.10583-0.0212 0.08467-0.0423h0.10583l0.10583-0.0212h0.1905" fill="#fff"/>
    <path d="m41.698 182.63h0.1905l0.21167 0.0423 0.08467 0.0212 0.10583 0.0212 0.08467 0.0423 0.10583 0.0212 0.16933 0.0847 0.08467 0.0635 0.08467 0.0423 0.0635 0.0635 0.08467 0.0423 0.0635 0.0635 0.08467 0.0635 0.0635 0.0847 0.0635 0.0635 0.0635 0.0847 0.04233 0.0847 0.0635 0.0635 0.12699 0.2541 0.04233 0.10583 0.02117 0.0847 0.02117 0.10583 0.04233 0.0847v0.10583l0.02117 0.10584v0.40216l-0.02117 0.0847v0.10583l-0.04233 0.10584-0.02117 0.0847-0.02117 0.10584-0.04233 0.0847-0.127 0.254-0.0635 0.0847-0.04233 0.0847-0.0635 0.0635-0.0635 0.0847-0.0635 0.0635-0.08467 0.0635-0.0635 0.0635-0.08467 0.0635-0.0635 0.0423-0.08467 0.0635-0.254 0.127-0.10583 0.0423-0.08467 0.0212-0.10583 0.0212-0.08467 0.0212-0.21167 0.0423h-0.40216l-0.10583-0.0212-0.08467-0.0212-0.10583-0.0212-0.08467-0.0212-0.10583-0.0212-0.33867-0.16933-0.08467-0.0635-0.08467-0.0423-0.08467-0.0635-0.1905-0.1905-0.0635-0.0847-0.0635-0.0635-0.0635-0.0847-0.04233-0.0847-0.0635-0.0847-0.08467-0.16934-0.02117-0.0847-0.04233-0.10584-0.02117-0.0847-0.02117-0.10584-0.02117-0.10583-0.02117-0.0847v-0.40216l0.02117-0.10584 0.02117-0.10583 0.02117-0.0847 0.02117-0.10583 0.04233-0.0847 0.02117-0.10583 0.08466-0.1694 0.0635-0.0847 0.04233-0.0635 0.127-0.16933 0.0635-0.0635 0.0635-0.0847 0.127-0.127 0.08467-0.0423 0.08467-0.0635 0.08467-0.0423 0.08467-0.0635 0.16933-0.0847 0.08467-0.0212 0.10583-0.0423 0.08467-0.0212 0.10583-0.0212 0.08467-0.0212 0.10583-0.0212h0.21167" fill="#7e7e7e"/>
    <path d="m41.698 190.52h0.10583l0.08467 0.0212h0.10583l0.10583 0.0212 0.08467 0.0212 0.10583 0.0423 0.08467 0.0212 0.10583 0.0423 0.254 0.127 0.08467 0.0635 0.0635 0.0423 0.08467 0.0635 0.0635 0.0635 0.08467 0.0635 0.0635 0.0635 0.0635 0.0847 0.0635 0.0635 0.04233 0.0847 0.0635 0.0847 0.16933 0.33866 0.02117 0.10584 0.02117 0.0847 0.04233 0.10584v0.0847l0.02117 0.10584v0.40216l-0.02117 0.10584v0.10583l-0.04233 0.0847-0.02117 0.10583-0.02117 0.0847-0.16933 0.33866-0.0635 0.0847-0.04233 0.0847-0.0635 0.0847-0.127 0.127-0.08467 0.0635-0.0635 0.0635-0.08467 0.0635-0.0635 0.0635-0.16933 0.0847-0.08467 0.0635-0.08467 0.0212-0.10583 0.0423-0.08467 0.0423-0.10583 0.0212-0.08467 0.0212-0.10583 0.0212h-0.10583l-0.08467 0.0212h-0.21167l-0.10583-0.0212h-0.10583l-0.08467-0.0212-0.10583-0.0212-0.08467-0.0212-0.10583-0.0423-0.08467-0.0423-0.08467-0.0212-0.08467-0.0635-0.16933-0.0847-0.16933-0.127-0.254-0.254-0.127-0.16933-0.04233-0.0847-0.0635-0.0847-0.08466-0.1694-0.02117-0.0847-0.04233-0.0847-0.02117-0.10583-0.02117-0.0847-0.02117-0.10583-0.02117-0.10584v-0.40216l0.02117-0.10584 0.02117-0.0847 0.02117-0.10584 0.02117-0.0847 0.04233-0.10584 0.02117-0.0847 0.08466-0.1694 0.0635-0.0847 0.04233-0.0847 0.0635-0.0847 0.0635-0.0635 0.0635-0.0847 0.1905-0.1905 0.08467-0.0635 0.08467-0.0423 0.08467-0.0635 0.33867-0.16933 0.10583-0.0212 0.08467-0.0423 0.10583-0.0212 0.08467-0.0212h0.10583l0.10583-0.0212h0.10583" fill="#fff"/>
   </g>
   <path d="m62.738 200.6h0.9525v-4.953h-0.9525z" fill="#7e7e7e"/>
  </g>
  <path d="m62.738 195.64h0.9525v4.953h-0.9525z" fill="none" stroke="#1e1917" stroke-linecap="round" stroke-linejoin="round" stroke-miterlimit="10" stroke-width=".09913"/>
  <path d="m55.562 195.98h15.05v-14.965h-15.05z" fill="#7e7e7e"/>
  <path transform="matrix(.35278 0 0 -.35278 -42.587 364.48)" d="m278.22 520.04h42.66v-42.42h-42.66z" clip-path="url(#clipPath150)" fill="none" stroke="#1e1917" stroke-linecap="round" stroke-linejoin="round" stroke-miterlimit="10" stroke-width=".281"/>
  <g fill-rule="evenodd" stroke="#1e1917" stroke-linecap="round" stroke-linejoin="round" stroke-miterlimit="10" stroke-width=".09913">
   <path d="m59.034 182.56h0.08467l0.10583 0.0212h0.10583l0.08467 0.0212 0.10583 0.0212 0.08467 0.0212 0.10583 0.0423 0.08467 0.0423 0.08467 0.0212 0.08467 0.0423 0.08467 0.0635 0.08467 0.0423 0.0635 0.0635 0.08467 0.0423 0.27517 0.27517 0.04233 0.0847 0.0635 0.0635 0.0635 0.0847 0.127 0.254 0.02117 0.0847 0.04233 0.10583 0.04234 0.1694 0.02117 0.10584 0.02117 0.10583v0.40217l-0.02117 0.0847-0.02117 0.10584-0.02117 0.10583-0.02117 0.0847-0.04233 0.0847-0.02117 0.10584-0.127 0.254-0.0635 0.0635-0.0635 0.0847-0.04233 0.0635-0.0635 0.0847-0.0635 0.0635-0.08467 0.0635-0.0635 0.0635-0.08467 0.0635-0.0635 0.0423-0.08467 0.0635-0.33867 0.16934-0.10583 0.0212-0.08467 0.0212-0.10583 0.0212-0.08467 0.0212-0.10583 0.0212h-0.40218l-0.10583-0.0212-0.08467-0.0212-0.10583-0.0212-0.08467-0.0212-0.10583-0.0212-0.33867-0.16934-0.08467-0.0635-0.08467-0.0423-0.127-0.127-0.08467-0.0635-0.0635-0.0635-0.0635-0.0847-0.04233-0.0635-0.0635-0.0847-0.0635-0.0635-0.127-0.254-0.02117-0.10584-0.04233-0.0847-0.02117-0.0847-0.02117-0.10583-0.02117-0.10584-0.02117-0.0847v-0.40217l0.02117-0.10583 0.02117-0.10584 0.04233-0.16933 0.04233-0.10583 0.02117-0.0847 0.12699-0.2541 0.0635-0.0847 0.0635-0.0635 0.04233-0.0847 0.27517-0.27517 0.0635-0.0423 0.08467-0.0635 0.08467-0.0423 0.08467-0.0635 0.08467-0.0423 0.08467-0.0212 0.08467-0.0423 0.10583-0.0423 0.08467-0.0212 0.10583-0.0212 0.08467-0.0212h0.10583l0.10583-0.0212h0.10583" fill="#7e7e7e"/>
   <path d="m59.034 190.5h0.21167l0.08467 0.0212 0.21167 0.0423 0.08467 0.0212 0.08467 0.0423 0.10583 0.0212 0.254 0.127 0.08467 0.0635 0.0635 0.0423 0.08467 0.0635 0.0635 0.0635 0.08467 0.0635 0.0635 0.0635 0.0635 0.0847 0.0635 0.0635 0.04233 0.0847 0.0635 0.0847 0.16933 0.33867 0.02117 0.10583 0.02117 0.0847 0.02117 0.10583 0.02117 0.0847 0.02117 0.10583v0.40217l-0.02117 0.10583-0.02117 0.0847-0.02117 0.10583-0.02117 0.0847-0.02117 0.10583-0.16933 0.33867-0.0635 0.0847-0.04233 0.0635-0.0635 0.0847-0.0635 0.0635-0.0635 0.0847-0.08467 0.0635-0.0635 0.0635-0.08467 0.0635-0.0635 0.0423-0.08467 0.0635-0.254 0.127-0.10583 0.0212-0.08467 0.0423-0.08467 0.0212-0.21167 0.0423-0.08467 0.0212h-0.42333l-0.08467-0.0212-0.10583-0.0212-0.08467-0.0212-0.10583-0.0212-0.08467-0.0423-0.10583-0.0212-0.254-0.127-0.08467-0.0635-0.0635-0.0423-0.08467-0.0635-0.27517-0.27517-0.04233-0.0847-0.0635-0.0635-0.04233-0.0847-0.0635-0.0847-0.08467-0.16933-0.02117-0.0847-0.04233-0.10583-0.02117-0.0847-0.02117-0.10583-0.02117-0.0847-0.02117-0.10583v-0.4022l0.02117-0.10583 0.02117-0.0847 0.02117-0.10583 0.02117-0.0847 0.04233-0.10583 0.02117-0.0847 0.08467-0.16933 0.0635-0.0847 0.04233-0.0847 0.0635-0.0847 0.04233-0.0635 0.0635-0.0847 0.08467-0.0635 0.127-0.127 0.08467-0.0635 0.0635-0.0423 0.08467-0.0635 0.254-0.127 0.10583-0.0212 0.08467-0.0423 0.10583-0.0212 0.08467-0.0212 0.10583-0.0212 0.08467-0.0212h0.21167" fill="#fff"/>
   <path d="m67.056 190.48h0.1905l0.21167 0.0423 0.08467 0.0212 0.10583 0.0212 0.08467 0.0212 0.08467 0.0423 0.10583 0.0423 0.16933 0.0847 0.08467 0.0635 0.0635 0.0423 0.08467 0.0635 0.0635 0.0635 0.08467 0.0635 0.0635 0.0847 0.0635 0.0635 0.0635 0.0847 0.04233 0.0635 0.0635 0.0847 0.08467 0.16933 0.08466 0.1694 0.02117 0.10583 0.02117 0.0847 0.04234 0.21166 0.02117 0.0847v0.42333l-0.02117 0.0847-0.02117 0.10583-0.02117 0.0847-0.02117 0.10583-0.02117 0.0847-0.04233 0.10583-0.04233 0.0847-0.08467 0.16933-0.0635 0.0847-0.04233 0.0635-0.0635 0.0847-0.27517 0.27516-0.08467 0.0423-0.0635 0.0635-0.08467 0.0635-0.16933 0.0847-0.10583 0.0423-0.08467 0.0212-0.08467 0.0423-0.10583 0.0212-0.08467 0.0212-0.21167 0.0423h-0.40217l-0.10583-0.0212-0.08467-0.0212-0.21167-0.0423-0.08467-0.0423-0.08467-0.0212-0.08467-0.0423-0.10583-0.0423-0.0635-0.0423-0.16933-0.127-0.08467-0.0423-0.0635-0.0635-0.0635-0.0847-0.08467-0.0635-0.0635-0.0635-0.04233-0.0847-0.0635-0.0635-0.04233-0.0847-0.0635-0.0847-0.08467-0.16934-0.02117-0.10583-0.04233-0.0847-0.02117-0.10583-0.02117-0.0847-0.02117-0.10583-0.02117-0.0847v-0.42333l0.02117-0.0847 0.04234-0.21166 0.02117-0.0847 0.04233-0.10583 0.02117-0.0847 0.08467-0.16933 0.0635-0.0847 0.04233-0.0847 0.0635-0.0635 0.04233-0.0847 0.27517-0.27517 0.08467-0.0635 0.08467-0.0423 0.08467-0.0635 0.0635-0.0423 0.10583-0.0423 0.16933-0.0847 0.08467-0.0212 0.21167-0.0423 0.08467-0.0212 0.10583-0.0212h0.21167" fill="#fff"/>
  </g>
 </g>
</svg>
