<?xml version="1.0" encoding="UTF-8"?>
<!-- Created with Inkscape (http://www.inkscape.org/) -->
<svg width="15.092mm" height="18.378mm" version="1.1" viewBox="0 0 15.092 18.378" xmlns="http://www.w3.org/2000/svg">
 <defs>
  <clipPath id="clipPath174">
   <path transform="translate(-2.5e-6 2.5e-5)" d="m242.22 283.64h42.78v42.9h-42.78z"/>
  </clipPath>
 </defs>
 <g transform="translate(-60.06 -120.39)">
  <path d="m64.357 136.03h6.4558v-0.78317h-6.4558z" fill="#7e7e7e"/>
  <path d="m64.357 135.24h6.4558v0.78317h-6.4558z" fill="none" stroke="#1e1917" stroke-linecap="round" stroke-linejoin="round" stroke-miterlimit="10" stroke-width=".094897"/>
  <path d="m65.987 137.55h3.4713v-1.524h-3.4713z" fill="#7e7e7e"/>
  <path d="m65.987 136.03h3.4713v1.524h-3.4713z" fill="none" stroke="#1e1917" stroke-linecap="round" stroke-linejoin="round" stroke-miterlimit="10" stroke-width=".094897"/>
  <path d="m67.257 138.72h0.9525v-1.1642h-0.9525z" fill="#7e7e7e"/>
  <path d="m67.257 137.55h0.9525v1.1642h-0.9525z" fill="none" stroke="#1e1917" stroke-linecap="round" stroke-linejoin="round" stroke-miterlimit="10" stroke-width=".094897"/>
  <path d="m60.103 135.41h15.007v-14.986h-15.007z" fill="#1e1917"/>
  <path transform="matrix(.35278 0 0 -.35278 -25.389 235.58)" d="m242.34 326.42h42.54v-42.48h-42.54z" clip-path="url(#clipPath174)" fill="none" stroke="#1e1917" stroke-linecap="round" stroke-linejoin="round" stroke-miterlimit="10" stroke-width=".269"/>
  <path d="m67.617 122.95h0.254l0.254 0.0212 0.23283 0.0423 0.254 0.0423 0.23283 0.0423 0.254 0.0635 0.23283 0.0847 0.21167 0.0847 0.23283 0.10583 0.21167 0.10584 0.21167 0.127 0.1905 0.127 0.21167 0.14816 0.16933 0.14817 0.1905 0.14817 0.33867 0.33866 0.14817 0.1905 0.14817 0.16934 0.14817 0.21166 0.127 0.1905 0.127 0.21167 0.10583 0.21167 0.10583 0.23283 0.08467 0.21167 0.08467 0.23283 0.0635 0.23283 0.04233 0.254 0.04233 0.23284 0.04233 0.254 0.02117 0.254v0.508l-0.02117 0.254-0.08467 0.508-0.04233 0.23283-0.0635 0.23283-0.16933 0.46567-0.10583 0.21167-0.10583 0.23283-0.127 0.1905-0.127 0.21167-0.4445 0.5715-0.33867 0.33866-0.1905 0.14817-0.16933 0.14817-0.21167 0.14816-0.1905 0.127-0.21167 0.10584-0.21167 0.127-0.23283 0.0847-0.21167 0.10584-0.23283 0.0635-0.254 0.0635-0.23283 0.0635-0.254 0.0423-0.23283 0.0423-0.254 0.0212h-0.52917l-0.254-0.0212-0.23283-0.0423-0.254-0.0423-0.23283-0.0635-0.254-0.0635-0.21167-0.0635-0.23283-0.10584-0.23283-0.0847-0.21167-0.127-0.21167-0.10584-0.1905-0.127-0.5715-0.4445-0.33867-0.33866-0.4445-0.5715-0.127-0.21167-0.127-0.1905-0.10583-0.23283-0.10583-0.21167-0.16933-0.46567-0.0635-0.23283-0.04233-0.23283-0.08467-0.508-0.02117-0.254v-0.508l0.02117-0.254 0.04233-0.254 0.04233-0.23284 0.04233-0.254 0.0635-0.23283 0.08467-0.23283 0.08467-0.21167 0.10583-0.23283 0.10583-0.21167 0.127-0.21167 0.127-0.1905 0.14817-0.21166 0.14817-0.16934 0.14817-0.1905 0.33867-0.33866 0.5715-0.4445 0.1905-0.127 0.21167-0.127 0.21167-0.10584 0.23283-0.10583 0.23283-0.0847 0.21167-0.0847 0.254-0.0635 0.23283-0.0423 0.254-0.0423 0.23283-0.0423 0.254-0.0212h0.27517" fill="#fff" fill-rule="evenodd"/>
 </g>
</svg>
