<?xml version="1.0" encoding="UTF-8"?>
<!-- Created with Inkscape (http://www.inkscape.org/) -->
<svg width="15.092mm" height="19.733mm" version="1.1" viewBox="0 0 15.092 19.733" xmlns="http://www.w3.org/2000/svg">
 <defs>
  <clipPath id="clipPath310">
   <path transform="translate(0 2.5e-5)" d="m242.22 501.5h42.78v42.96h-42.78z"/>
  </clipPath>
 </defs>
 <g transform="translate(-49.212 -148.17)">
  <path d="m56.409 167.85h0.9525v-4.9742h-0.9525z" fill="#7e7e7e"/>
  <path d="m56.409 162.88h0.9525v4.9742h-0.9525z" fill="none" stroke="#1e1917" stroke-linecap="round" stroke-linejoin="round" stroke-miterlimit="10" stroke-width=".095603"/>
  <path d="m49.255 163.22h15.007v-15.007h-15.007z" fill="#7e7e7e"/>
  <path transform="matrix(.35278 0 0 -.35278 -36.237 340.24)" d="m242.34 544.34h42.54v-42.54h-42.54z" clip-path="url(#clipPath310)" fill="none" stroke="#1e1917" stroke-linecap="round" stroke-linejoin="round" stroke-miterlimit="10" stroke-width=".271"/>
  <g fill-rule="evenodd" stroke="#1e1917" stroke-linecap="round" stroke-linejoin="round" stroke-miterlimit="10" stroke-width=".095603">
   <path d="m52.705 149.75 0.10583 0.0212h0.10583l0.08467 0.0212h0.10583l0.08467 0.0212 0.10583 0.0423 0.08467 0.0212 0.08467 0.0423 0.10583 0.0423 0.08467 0.0423 0.0635 0.0423 0.08467 0.0423 0.08467 0.0635 0.0635 0.0635 0.08467 0.0635 0.1905 0.1905 0.0635 0.0847 0.04233 0.0847 0.0635 0.0635 0.127 0.254 0.04233 0.10583 0.04234 0.1694 0.04233 0.10583v0.10583l0.02117 0.0847v0.40217l-0.02117 0.10583v0.10583l-0.04233 0.0847-0.02117 0.10583-0.02117 0.0847-0.08467 0.16933-0.08466 0.1694-0.0635 0.0847-0.04233 0.0847-0.0635 0.0635-0.0635 0.0847-0.127 0.127-0.08467 0.0635-0.0635 0.0635-0.08467 0.0423-0.08467 0.0635-0.0635 0.0423-0.08467 0.0423-0.10583 0.0423-0.08467 0.0212-0.08467 0.0423-0.10583 0.0212-0.08467 0.0212-0.10583 0.0212-0.08467 0.0212h-0.40217l-0.21167-0.0423-0.08467-0.0212-0.10583-0.0212-0.08467-0.0423-0.08467-0.0212-0.254-0.127-0.08467-0.0635-0.08467-0.0423-0.0635-0.0635-0.08467-0.0635-0.127-0.127-0.0635-0.0847-0.0635-0.0635-0.04233-0.0847-0.0635-0.0847-0.16933-0.33867-0.02117-0.0847-0.02117-0.10583-0.02117-0.0847-0.04234-0.21166v-0.40217l0.02117-0.0847 0.04233-0.21166 0.04234-0.1694 0.04233-0.10583 0.127-0.254 0.0635-0.0635 0.04233-0.0847 0.0635-0.0847 0.1905-0.1905 0.08467-0.0635 0.0635-0.0635 0.08467-0.0635 0.42333-0.21167 0.08467-0.0212 0.10583-0.0423 0.08467-0.0212h0.10583l0.10583-0.0212h0.08467l0.10583-0.0212" fill="#fff"/>
   <path d="m52.726 157.71h0.10583l0.08467 0.0212h0.10583l0.10583 0.0212 0.08467 0.0212 0.10583 0.0212 0.16933 0.0847 0.08467 0.0212 0.08467 0.0423 0.08467 0.0635 0.08467 0.0423 0.08467 0.0635 0.0635 0.0635 0.08467 0.0635 0.1905 0.1905 0.127 0.1694 0.04233 0.0635 0.127 0.254 0.04233 0.10583 0.02117 0.0847 0.04233 0.10583 0.02117 0.0847v0.10583l0.02117 0.0847v0.10583l0.02117 0.10584-0.02117 0.10583v0.10583l-0.02117 0.0847v0.10583l-0.02117 0.10584-0.04233 0.0847-0.02117 0.0847-0.04233 0.10583-0.16933 0.33867-0.0635 0.0635-0.0635 0.0847-0.127 0.127-0.0635 0.0847-0.08467 0.0635-0.0635 0.0423-0.08467 0.0635-0.08467 0.0423-0.08467 0.0635-0.16933 0.0847-0.08467 0.0212-0.08467 0.0423-0.10583 0.0212-0.08467 0.0212-0.21167 0.0423h-0.40217l-0.10583-0.0212-0.08467-0.0212-0.10583-0.0212-0.08467-0.0212-0.10583-0.0423-0.08467-0.0212-0.16933-0.0847-0.08467-0.0635-0.08467-0.0423-0.0635-0.0635-0.08467-0.0423-0.27517-0.27516-0.0635-0.0847-0.04233-0.0635-0.0635-0.0847-0.12699-0.2541-0.04233-0.10583-0.04233-0.16933-0.02117-0.10584-0.02117-0.10583-0.02117-0.0847v-0.42333l0.02117-0.0847 0.02117-0.10583 0.02117-0.0847 0.02117-0.10583 0.02117-0.0847 0.04233-0.10583 0.127-0.254 0.0635-0.0635 0.04233-0.0847 0.0635-0.0847 0.127-0.127 0.08467-0.0635 0.0635-0.0635 0.08467-0.0635 0.0635-0.0635 0.08467-0.0423 0.08467-0.0635 0.08467-0.0423 0.08467-0.0212 0.08467-0.0423 0.10583-0.0423 0.08467-0.0212 0.10583-0.0212 0.08467-0.0212h0.10583l0.10583-0.0212h0.10583" fill="#fff"/>
   <path d="m60.706 149.75 0.10583 0.0212h0.10583l0.08467 0.0212h0.10583l0.10583 0.0212 0.08467 0.0423 0.10583 0.0212 0.33867 0.16933 0.08467 0.0635 0.08467 0.0423 0.0635 0.0635 0.08467 0.0635 0.127 0.127 0.0635 0.0847 0.0635 0.0635 0.04233 0.0847 0.0635 0.0847 0.08467 0.16933 0.08466 0.1694 0.02117 0.10584 0.04233 0.0847 0.04233 0.21167v0.1905l0.02117 0.10583-0.02117 0.10584v0.1905l-0.04234 0.21166-0.04233 0.0847-0.02117 0.0847-0.04233 0.10583-0.127 0.254-0.0635 0.0847-0.04233 0.0635-0.0635 0.0847-0.0635 0.0635-0.0635 0.0847-0.0635 0.0635-0.08467 0.0635-0.0635 0.0635-0.08467 0.0423-0.08467 0.0635-0.33867 0.16934-0.10583 0.0212-0.08467 0.0212-0.10583 0.0423h-0.10583l-0.08467 0.0212h-0.42333l-0.08467-0.0212h-0.10583l-0.08467-0.0423-0.10583-0.0212-0.08467-0.0212-0.10583-0.0423-0.254-0.127-0.08467-0.0635-0.0635-0.0423-0.08467-0.0635-0.0635-0.0635-0.08467-0.0635-0.0635-0.0847-0.0635-0.0635-0.0635-0.0847-0.04233-0.0635-0.0635-0.0847-0.08467-0.16933-0.04233-0.0847-0.04233-0.10583-0.04233-0.16934-0.04234-0.21166-0.02117-0.0847v-0.42333l0.02117-0.0847 0.04233-0.21167 0.02117-0.0847 0.02117-0.10584 0.04233-0.0847 0.127-0.254 0.0635-0.0847 0.04233-0.0847 0.0635-0.0635 0.0635-0.0847 0.0635-0.0635 0.08467-0.0635 0.0635-0.0635 0.08467-0.0635 0.0635-0.0423 0.08467-0.0635 0.254-0.127 0.10583-0.0423 0.08467-0.0212 0.10583-0.0423 0.08467-0.0212h0.10583l0.08467-0.0212h0.10583l0.10583-0.0212" fill="#7e7e7e"/>
   <path d="m60.706 157.69h0.21167l0.08467 0.0212 0.21167 0.0423 0.08467 0.0212 0.10583 0.0423 0.08467 0.0212 0.16933 0.0847 0.08467 0.0635 0.08467 0.0423 0.08467 0.0635 0.0635 0.0635 0.08467 0.0635 0.1905 0.1905 0.0635 0.0847 0.04233 0.0847 0.0635 0.0635 0.08467 0.16933 0.04233 0.10584 0.04233 0.0847 0.02117 0.0847 0.04233 0.10583 0.02117 0.0847 0.02117 0.10583v0.21167l0.02117 0.0847-0.02117 0.10583v0.21167l-0.02117 0.0847-0.02117 0.10584-0.04233 0.10583-0.02117 0.0847-0.08467 0.16933-0.04233 0.10583-0.04233 0.0635-0.0635 0.0847-0.04233 0.0847-0.0635 0.0847-0.1905 0.1905-0.08467 0.0635-0.0635 0.0635-0.08467 0.0635-0.08467 0.0423-0.08467 0.0635-0.16933 0.0847-0.08467 0.0212-0.10583 0.0423-0.08467 0.0212-0.21167 0.0423h-0.08467l-0.10583 0.0212h-0.21167l-0.10583-0.0212h-0.08467l-0.10583-0.0212-0.08467-0.0212-0.10583-0.0212-0.08467-0.0423-0.10583-0.0212-0.16933-0.0847-0.08467-0.0635-0.08467-0.0423-0.0635-0.0635-0.08467-0.0635-0.0635-0.0635-0.08467-0.0635-0.127-0.127-0.0635-0.0847-0.04233-0.0847-0.0635-0.0847-0.04233-0.0635-0.04233-0.10583-0.08466-0.1694-0.02117-0.0847-0.02117-0.10583-0.02117-0.10584-0.02117-0.0847-0.02117-0.10584v-0.40216l0.04233-0.21167 0.02117-0.0847 0.02117-0.10583 0.02117-0.0847 0.04233-0.0847 0.04233-0.10584 0.08467-0.16933 0.0635-0.0635 0.04233-0.0847 0.0635-0.0847 0.127-0.127 0.08467-0.0635 0.0635-0.0635 0.08467-0.0635 0.0635-0.0635 0.08467-0.0423 0.08467-0.0635 0.16933-0.0847 0.10583-0.0212 0.08467-0.0423 0.10583-0.0212 0.08467-0.0212 0.10583-0.0212 0.08467-0.0212h0.21167" fill="#7e7e7e"/>
   <path d="m56.727 153.71h0.10583l0.10583 0.0212h0.10583l0.08467 0.0212 0.10583 0.0212 0.08467 0.0212 0.10583 0.0423 0.08467 0.0423 0.08467 0.0212 0.08467 0.0635 0.16933 0.0847 0.08467 0.0635 0.0635 0.0635 0.08467 0.0635 0.127 0.127 0.0635 0.0847 0.0635 0.0635 0.0635 0.0847 0.08467 0.16933 0.12699 0.2541 0.04233 0.10584 0.02117 0.0847 0.02117 0.10584 0.02117 0.0847v0.10584l0.02117 0.10583v0.1905l-0.02117 0.10583v0.10584l-0.02117 0.10583-0.02117 0.0847-0.02117 0.10583-0.08466 0.1694-0.04233 0.10584-0.08467 0.16933-0.04233 0.0635-0.127 0.1694-0.127 0.127-0.0635 0.0847-0.08467 0.0635-0.0635 0.0423-0.08467 0.0635-0.08467 0.0423-0.08467 0.0635-0.16933 0.0847-0.08467 0.0212-0.10583 0.0423-0.08467 0.0212-0.10583 0.0212-0.08467 0.0212-0.10583 0.0212h-0.40217l-0.21167-0.0423-0.08467-0.0212-0.10583-0.0212-0.08467-0.0423-0.08467-0.0212-0.10583-0.0423-0.08467-0.0423-0.08467-0.0635-0.08467-0.0423-0.0635-0.0635-0.08467-0.0423-0.27517-0.27517-0.04233-0.0847-0.0635-0.0847-0.04233-0.0635-0.0635-0.0847-0.04233-0.0847-0.04233-0.10584-0.02117-0.0847-0.04233-0.0847-0.02117-0.10583-0.02117-0.0847-0.04233-0.21167v-0.40216l0.02117-0.10584 0.02117-0.0847 0.02117-0.10584 0.02117-0.0847 0.04233-0.10584 0.02117-0.0847 0.08466-0.1694 0.0635-0.0847 0.04233-0.0847 0.0635-0.0847 0.04233-0.0635 0.0635-0.0847 0.0635-0.0635 0.08467-0.0635 0.0635-0.0635 0.08467-0.0635 0.0635-0.0635 0.16933-0.0847 0.08467-0.0635 0.10583-0.0212 0.16933-0.0847 0.10583-0.0212 0.08467-0.0212 0.10583-0.0212h0.10583l0.08467-0.0212h0.10583" fill="#fff"/>
  </g>
 </g>
</svg>
