<?xml version="1.0" encoding="UTF-8"?>
<!-- Created with Inkscape (http://www.inkscape.org/) -->
<svg width="13.483mm" height="18.362mm" version="1.1" viewBox="0 0 13.483 18.362" xmlns="http://www.w3.org/2000/svg">
 <defs>
  <clipPath id="clipPath364">
   <path transform="translate(-244.86 -643.64)" d="m238.14 601.46h6.78v42.18h-6.78z"/>
  </clipPath>
 </defs>
 <g transform="translate(-54.239 -132.29)">
  <path transform="matrix(.35278 0 0 -.35278 62.336 135.77)" d="m0 0v-42.18h-6.72v42.18h6.72" clip-path="url(#clipPath364)" fill="none" stroke="#000" stroke-miterlimit="10" stroke-width=".06"/>
  <path d="m59.965 150.65h2.3707v-14.88h-2.3707z" fill="#7e7e7e"/>
  <path d="m54.25 145.62h13.462v-13.314h-13.462z"/>
  <path d="m54.25 132.3h13.462v13.314h-13.462v-13.314" fill="none" stroke="#000" stroke-miterlimit="10" stroke-width=".021167"/>
  <path d="m60.981 134.16 0.48683 0.0212 0.48683 0.0635 0.508 0.16933 0.40217 0.14817 0.4445 0.16933 0.40217 0.254 0.40217 0.29633 0.33867 0.27517 0.29633 0.35983 0.254 0.35984 0.27517 0.40216 0.1905 0.42334 0.127 0.42333 0.16933 0.508 0.0635 0.4445 0.04233 0.48683-0.04233 0.46567-0.0635 0.48683-0.16933 0.48684-0.127 0.40216-0.1905 0.4445-0.27517 0.40217-0.254 0.381-0.29633 0.33867-0.33867 0.29633-0.80433 0.508-0.4445 0.21167-0.40217 0.127-0.508 0.14816-0.48683 0.0847-0.48683 0.0212-0.46567-0.0212-0.46567-0.0847-0.508-0.14816-0.42333-0.127-0.4445-0.21167-0.40217-0.254-0.35983-0.254-0.35983-0.29633-0.29633-0.33867-0.27517-0.381-0.254-0.40217-0.1905-0.4445-0.14817-0.40216-0.14817-0.48684-0.08467-0.48683-0.02117-0.46567 0.02117-0.48683 0.08467-0.4445 0.14817-0.508 0.14817-0.42333 0.1905-0.42334 0.254-0.40216 0.27517-0.35984 0.29633-0.35983 0.35983-0.27517 0.35983-0.29633 0.40217-0.254 0.4445-0.16933 0.42333-0.14817 0.508-0.16933 0.46567-0.0635 0.46567-0.0212" fill="#fff" fill-rule="evenodd"/>
  <path d="m60.981 134.16 0.48683 0.0212 0.48683 0.0635 0.508 0.16933 0.40217 0.14817 0.4445 0.16933 0.40217 0.254 0.40217 0.29633 0.3175 0.27517 0.3175 0.35983 0.254 0.35984 0.27517 0.40216 0.1905 0.42334 0.127 0.42333 0.16933 0.508 0.0635 0.4445 0.04233 0.48683-0.04233 0.46567-0.0635 0.48683-0.16933 0.48684-0.127 0.40216-0.1905 0.4445-0.27517 0.40217-0.254 0.381-0.3175 0.33867-0.3175 0.29633-0.80433 0.508-0.4445 0.21167-0.40217 0.127-0.508 0.14816-0.48683 0.0847-0.48683 0.0212-0.46567-0.0212-0.46567-0.0847-0.508-0.14816-0.42333-0.127-0.4445-0.21167-0.40217-0.254-0.35983-0.254-0.35983-0.29633-0.29633-0.33867-0.27517-0.381-0.254-0.40217-0.1905-0.4445-0.14817-0.40216-0.14817-0.48684-0.08467-0.48683-0.02117-0.46567 0.02117-0.48683 0.08467-0.4445 0.14817-0.508 0.14817-0.42333 0.1905-0.42334 0.254-0.40216 0.27517-0.35984 0.29633-0.35983 0.35983-0.27517 0.35983-0.29633 0.40217-0.254 0.4445-0.16933 0.42333-0.14817 0.508-0.16933 0.46567-0.0635 0.46567-0.0212" fill="none" stroke="#000" stroke-miterlimit="10" stroke-width=".021167"/>
  <path d="m59.902 145.38h2.2437v-12.742h-2.2437z"/>
  <path d="m59.902 145.38v-12.742h2.2437v12.742h-2.2437" fill="none" stroke="#000" stroke-miterlimit="10" stroke-width=".021167"/>
 </g>
</svg>
